<svg width="109" height="109" viewBox="0 0 109 109">
<g id="kvg:StrokePaths_00042">
<g id="kvg:00042">
	<path id="kvg:00042-s1" d="M28.29,17.66c0,8.53-0.29,65.32-0.29,72.4"/>
	<path id="kvg:00042-s2" d="M28.53,16.94c17.05,0,13.74,0,30.94,0c24.41,0,24.55,33.81,0,33.81c-16.47,0-17.07,0-30.51,0"/>
	<path id="kvg:00042-s3" d="M28.53,52.78c18.2,0,14.67,0,33.02,0c26.05,0,26.21,38.01,0,38.01c-17.58,0-18.22,0-32.56,0"/>
</g>
</g>
<g id="kvg:StrokeNumbers_00042">
	<text transform="matrix(1 0 0 1 21.62 15.32)">1</text>
	<text transform="matrix(1 0 0 1 33.4 13.5)">2</text>
	<text transform="matrix(1 0 0 1 33.21 61.77)">3</text>
</g>
</svg>
