<svg width="109" height="109" viewBox="0 0 109 109">
<g id="kvg:StrokePaths_02e97">
<g id="kvg:02e97">
	<path id="kvg:02e97-s1" d="M46.5,12.08c1.21,1.21,1.48,2.67,1.48,4.9c0,16.39-0.04,63.78-0.04,69.36c0,11.7-7.31,3.16-10.3,0.78"/>
	<path id="kvg:02e97-s2" d="M28.11,45.4c-2.36,9.1-6.36,18.1-11.11,22.96"/>
	<path id="kvg:02e97-s3" d="M63.56,44.54c3.56,3.97,9.19,16.34,10.08,22.52"/>
	<path id="kvg:02e97-s4" d="M81.12,41.88c4.48,3.93,11.56,16.18,12.68,22.3"/>
</g>
</g>
<g id="kvg:StrokeNumbers_02e97">
	<text transform="matrix(1 0 0 1 36.25 11.25)">1</text>
	<text transform="matrix(1 0 0 1 22.25 42.25)">2</text>
	<text transform="matrix(1 0 0 1 56.25 42.25)">3</text>
	<text transform="matrix(1 0 0 1 73.25 42.25)">4</text>
</g>
</svg>
