<svg width="109" height="109" viewBox="0 0 109 109">
<g id="kvg:StrokePaths_02ecf">
<g id="kvg:02ecf">
	<path id="kvg:02ecf-s1" d="M 73.044237,13.54 c 1.56,0.28 3.41,0.8 5.34,0.48 9,-1.51 17.37,-3.14 20.62,-4.18 3.480003,-1.12 5.320003,1.83 3.900003,4.59 -2.03,3.95 -8.110003,15.24 -10.810003,19.08"/>
	<path id="kvg:02ecf-s2" d="M 92.004237,33.75 c 16.000003,11 14.380003,37 -0.83,27.75"/>
	<path id="kvg:02ecf-s3" d="M 74.874237,14.5 c 0.75,0.75 0.96,1.62 0.96,2.75 0,0.85 0.02,51.18 0.03,72.38 0,4.28 0,7.37 0,8.62"/>
</g>
</g>
<g id="kvg:StrokeNumbers_02ecf">
	<text transform="matrix(1 0 0 1 67.50 11.25)">1</text>
	<text transform="matrix(1 0 0 1 85.50 38.25)">2</text>
	<text transform="matrix(1 0 0 1 68.50 23.25)">3</text>
</g>
</svg>
