<svg width="109" height="109" viewBox="0 0 109 109">
<g id="kvg:StrokePaths_03005">
<g id="kvg:03005">
	<path id="kvg:03005-s1" d="M50.75,19.5c0.1,1.3,0.37,3.74-0.19,5.21C43.57,43,32.73,60.29,14.5,75.04"/>
	<path id="kvg:03005-s2" d="M45,44.35c1.05,0,3.62,0.35,6.26,0.1c9.18-0.85,25.21-3.31,29.06-3.67c4.26-0.4,6.46,4.28,4.68,6.25C78.32,54.46,67.5,67,57.81,79.22"/>
	<path id="kvg:03005-s3" d="M42.52,68.33c10.16,5.01,26.25,20.59,28.79,28.38"/>
</g>
</g>
<g id="kvg:StrokeNumbers_03005">
	<text transform="matrix(1 0 0 1 40.50 18.50)">1</text>
	<text transform="matrix(1 0 0 1 51.50 40.50)">2</text>
	<text transform="matrix(1 0 0 1 36.27 72.50)">3</text>
</g>
</svg>
