<svg width="109" height="109" viewBox="0 0 109 109">
<g id="kvg:StrokePaths_03052">
<g id="kvg:03052">
	<path id="kvg:03052-s1" d="M24.91,20.25c1.25,1.5,2.37,3.75,1.88,6.38c-3,15.88-6.5,29.5-4.88,44.62c2.02,18.84,2.25,4.75,6.75-3.5"/>
	<path id="kvg:03052-s2" d="M53.67,39.12c2.12,1.38,4.28,1.89,6.88,1.5c8.25-1.25,15.39-2.57,20.62-4c2.75-0.75,5.25-1.12,6.88-1.12"/>
	<path id="kvg:03052-s3" d="M71.67,14.62c2.12,1.38,2.87,3.61,2.87,5.38c0,11.62,0.12,20.38,0.12,30.12c0,20.75-0.62,30.88-12.5,42.25"/>
	<path id="kvg:03052-s4" d="M86.17,13c2.75,1.75,6,5.38,7.75,8.5"/>
	<path id="kvg:03052-s5" d="M92.54,8.12c3.06,1.57,6.68,4.82,8.62,7.62"/>
</g>
</g>
<g id="kvg:StrokeNumbers_03052">
	<text transform="matrix(1 0 0 1 16.29 19.25)">1</text>
	<text transform="matrix(1 0 0 1 46.67 37.38)">2</text>
	<text transform="matrix(1 0 0 1 64.04 13.75)">3</text>
	<text transform="matrix(1 0 0 1 78.54 12)">4</text>
	<text transform="matrix(1 0 0 1 84.67 6.88)">5</text>
</g>
</svg>
