<svg width="109" height="109" viewBox="0 0 109 109">
<g id="kvg:StrokePaths_03051">
<g id="kvg:03051">
	<path id="kvg:03051-s1" d="M24.67,19.75c1.25,1.5,2.62,3.75,2.12,6.38c-3,15.88-6.5,29.5-4.88,44.62c2.02,18.84,2.25,4.75,6.75-3.5"/>
	<path id="kvg:03051-s2" d="M53.67,38.62c2.12,1.38,4.28,1.89,6.88,1.5c8.25-1.25,15.39-2.57,20.62-4c2.76-0.74,5.26-1.12,6.88-1.12"/>
	<path id="kvg:03051-s3" d="M71.67,14.38c2.13,1.37,2.88,3.35,2.88,5.12c0,11.62,0.12,20.38,0.12,30.12c0,20.75-0.62,30.88-12.5,42.25"/>
</g>
</g>
<g id="kvg:StrokeNumbers_03051">
	<text transform="matrix(1 0 0 1 16.3 18.75)">1</text>
	<text transform="matrix(1 0 0 1 46.68 36.88)">2</text>
	<text transform="matrix(1 0 0 1 64.05 13.25)">3</text>
</g>
</svg>
