<svg width="109" height="109" viewBox="0 0 109 109">
<g id="kvg:StrokePaths_0306b">
<g id="kvg:0306b">
	<path id="kvg:0306b-s1" d="M24.53,22.75c1.25,1.5,1.62,3.75,1.12,6.38c-3,15.88-9,32.5-7.38,47.62c2.02,18.84,4.5,5.75,8.5-3.5"/>
	<path id="kvg:0306b-s2" d="M53.2,30.64c0.96,0.79,2.44,1.58,5.1,1.35c6.98-0.61,15.01-3.3,22.04-3.36c13.19-0.11,1.5,3.75-8.39,7.35"/>
	<path id="kvg:0306b-s3" d="M52.53,68c1.76,12.92,11.92,16.01,24.23,14.93c5.08-0.45,8.9-0.8,14.27-2.06"/>
</g>
</g>
<g id="kvg:StrokeNumbers_0306b">
	<text transform="matrix(1 0 0 1 16.79 22.13)">1</text>
	<text transform="matrix(1 0 0 1 46.91 29)">2</text>
	<text transform="matrix(1 0 0 1 46.41 66)">3</text>
</g>
</svg>
