<svg width="109" height="109" viewBox="0 0 109 109">
<g id="kvg:StrokePaths_03065">
<g id="kvg:03065">
	<path id="kvg:03065-s1" d="M14,44.75c1.88,1.62,4.68,2.09,8.12,0.62c17.88-7.62,30-11.12,44.88-10.88c12.56,0.21,22.98,7.17,22.87,19.17c-0.18,18.77-24.75,28.71-45.01,32.08"/>
	<path id="kvg:03065-s2" d="M81,18c2.75,1.75,6,5.38,7.75,8.5"/>
	<path id="kvg:03065-s3" d="M87.38,13.12c3.06,1.57,6.68,4.82,8.62,7.62"/>
</g>
</g>
<g id="kvg:StrokeNumbers_03065">
	<text transform="matrix(1 0 0 1 9.38 40.38)">1</text>
	<text transform="matrix(1 0 0 1 73.38 17)">2</text>
	<text transform="matrix(1 0 0 1 79.51 11.88)">3</text>
</g>
</svg>
