<svg width="109" height="109" viewBox="0 0 109 109">
<g id="kvg:StrokePaths_03088">
<g id="kvg:03088">
	<path id="kvg:03088-s1" d="M58.24,35.38c7.5-1.28,13.74-2.63,18.5-4.1c2.5-0.77,4.77-1.15,6.25-1.15"/>
	<path id="kvg:03088-s2" d="M54.62,13.88c2.25,2.12,2.98,4.13,2.88,6.5c-0.75,17-0.12,34.88,1.39,53.5c1.88,23.07-34.89,20.88-34.89,11.5c0-12,26.25-8,35.98-4.12c8.1,3.23,11.52,4.88,18.52,10.38"/>
</g>
</g>
<g id="kvg:StrokeNumbers_03088">
	<text transform="matrix(1 0 0 1 61.62 28.88)">1</text>
	<text transform="matrix(1 0 0 1 45.62 14.63)">2</text>
</g>
</svg>
