<svg width="109" height="109" viewBox="0 0 109 109">
<g id="kvg:StrokePaths_03081">
<g id="kvg:03081">
	<path id="kvg:03081-s1" d="M27.48,31.75c1.75,1,2.41,3.09,2.5,5.25c0.5,11.62,2.75,23.5,7.25,31.38c1.39,2.44,5.38,8.5,7.25,10.38"/>
	<path id="kvg:03081-s2" d="M59.6,19.38c1,1.5,1.35,4.12,0.88,6.62c-2.75,14.62-13.62,37.75-20.1,47.24c-12.28,17.14-16.78,13.14-22.28,0.64c-5.38-15.38,26.4-42.18,53.42-35.28c29.08,8.27,23.96,46.02-7.98,50.15"/>
</g>
</g>
<g id="kvg:StrokeNumbers_03081">
	<text transform="matrix(1 0 0 1 20.1 30)">1</text>
	<text transform="matrix(1 0 0 1 50.1 18)">2</text>
</g>
</svg>
