<svg width="109" height="109" viewBox="0 0 109 109">
<g id="kvg:StrokePaths_03096">
<g id="kvg:03096">
	<path id="kvg:03096-s1" d="M28.76,34.57c1.09,1.31,2.29,3.28,1.86,5.57c-2.62,13.88-5.68,25.79-4.26,39.01c1.77,16.47,1.97,4.15,5.9-3.06"/>
	<path id="kvg:03096-s2" d="M54.11,51.07c1.86,1.2,3.74,1.65,6.01,1.31c7.21-1.09,13.45-2.25,18.03-3.5c2.4-0.66,4.59-0.98,6.01-0.98"/>
	<path id="kvg:03096-s3" d="M69.84,29.88c1.86,1.2,2.51,2.94,2.51,4.48c0,10.16,0.11,17.81,0.11,26.34c0,18.14-0.55,26.99-10.93,36.93"/>
</g>
</g>
<g id="kvg:StrokeNumbers_03096">
	<text transform="matrix(1 0 0 1 22.41 34.25)">1</text>
	<text transform="matrix(1 0 0 1 46.41 49.38)">2</text>
	<text transform="matrix(1 0 0 1 62.41 28.5)">3</text>
</g>
</svg>
