<svg width="109" height="109" viewBox="0 0 109 109">
<g id="kvg:StrokePaths_03092">
<g id="kvg:03092">
	<path id="kvg:03092-s1" d="M28.56,27.87c1.62,1.13,3.17,1.64,6.01,1.12c10.86-1.99,16.74-3.37,24.71-4.72c3.64-0.62,5.65-0.93,8.4-0.75"/>
	<path id="kvg:03092-s2" d="M49.93,14.38c0.75,1,1.48,3.22,0.38,5.62c-4.62,10.12-10,20.75-17.12,30.25c-9.25,12.33-9.25,11.19,2.12,2.5c9-6.88,23.75-12.12,22.88,19.88"/>
	<path id="kvg:03092-s3" d="M83.06,39.88c0.62,1.75,0,4-3,5.75c-3,1.75-49.62,24.16-44.75,38.25c3.28,9.48,17.93,9.12,29.98,7.75c4.48-0.51,9.15-1.12,12.4-1.75"/>
</g>
</g>
<g id="kvg:StrokeNumbers_03092">
	<text transform="matrix(1 0 0 1 21.94 25.88)">1</text>
	<text transform="matrix(1 0 0 1 39.69 12.75)">2</text>
	<text transform="matrix(1 0 0 1 76.69 37.38)">3</text>
</g>
</svg>
