<svg width="109" height="109" viewBox="0 0 109 109">
<g id="kvg:StrokePaths_030bf">
<g id="kvg:030bf">
	<path id="kvg:030bf-s1" d="M48.83,19.75c0.43,1.72,0.39,4-0.58,5.89c-4.77,9.34-9.1,17.82-18.63,27.73"/>
	<path id="kvg:030bf-s2" d="M49.75,30.38c2.75,0.5,5,0,7.62-0.62c6.02-1.43,10.5-2.62,15.88-4.12c5.79-1.62,8.22,0.31,5.88,5.62c-10.88,24.62-22.13,43.99-50.13,59.99"/>
	<path id="kvg:030bf-s3" d="M43.38,45.62c6.75,3.5,10.62,7.88,14.75,15.25"/>
</g>
</g>
<g id="kvg:StrokeNumbers_030bf">
	<text transform="matrix(1 0 0 1 41.38 17.25)">1</text>
	<text transform="matrix(1 0 0 1 54.75 26)">2</text>
	<text transform="matrix(1 0 0 1 45.13 43.5)">3</text>
</g>
</svg>
