<svg width="109" height="109" viewBox="0 0 109 109">
<g id="kvg:StrokePaths_030b1">
<g id="kvg:030b1">
	<path id="kvg:030b1-s1" d="M40.96,17.88c0.44,1.9,0.39,4.42-0.59,6.5c-4.82,10.31-9.21,19.67-18.87,30.62"/>
	<path id="kvg:030b1-s2" d="M37.88,37.62c2.12,0.88,4.15,1.04,6.62,0.5c12.62-2.75,25.5-4.88,35.75-6.5c3.61-0.57,6.25-0.75,9.25-0.5"/>
	<path id="kvg:030b1-s3" d="M64.46,38.88c0.44,1.9,0.5,4.27-0.08,6.5c-3.63,13.75-9.25,31.25-24.63,43.87"/>
</g>
</g>
<g id="kvg:StrokeNumbers_030b1">
	<text transform="matrix(1 0 0 1 32.5 17.38)">1</text>
	<text transform="matrix(1 0 0 1 41.5 34.75)">2</text>
	<text transform="matrix(1 0 0 1 56.25 44)">3</text>
</g>
</svg>
