<svg width="109" height="109" viewBox="0 0 109 109">
<g id="kvg:StrokePaths_030b4">
<g id="kvg:030b4">
	<path id="kvg:030b4-s1" d="M30.13,35c1.75,1,3.01,2.18,6.5,1.62c14.25-2.25,29.62-4.25,37.38-5.5c9.37-1.51,9.88,0.25,8,7.5c-2.77,10.71-5.25,22.12-7,34.88"/>
	<path id="kvg:030b4-s2" d="M27.5,77.38c2.62,1.12,4.38,1.51,8.25,1c11.38-1.5,22.62-3,33.75-3.38c4-0.13,5.88,0,9.62,0.5"/>
	<path id="kvg:030b4-s3" d="M84.75,15.5c2.75,1.75,6,5.38,7.75,8.5"/>
	<path id="kvg:030b4-s4" d="M90.87,10.38c3.06,1.57,6.68,4.82,8.62,7.62"/>
</g>
</g>
<g id="kvg:StrokeNumbers_030b4">
	<text transform="matrix(1 0 0 1 22.88 32)">1</text>
	<text transform="matrix(1 0 0 1 23.88 72.88)">2</text>
	<text transform="matrix(1 0 0 1 77.13 14.5)">3</text>
	<text transform="matrix(1 0 0 1 83 9.13)">4</text>
</g>
</svg>
