<svg width="109" height="109" viewBox="0 0 109 109">
<g id="kvg:StrokePaths_030d0">
<g id="kvg:030d0">
	<path id="kvg:030d0-s1" d="M39.08,36.62c0.38,1.14,0.38,2.84-0.12,4.14c-5.46,13.99-13.08,24.12-21.96,32.49"/>
	<path id="kvg:030d0-s2" d="M65.5,36.38c13,9.12,23.12,22.62,28,33.38"/>
	<path id="kvg:030d0-s3" d="M81.13,21c2.75,1.75,6,5.38,7.75,8.5"/>
	<path id="kvg:030d0-s4" d="M87.5,16.12c3.06,1.57,6.68,4.82,8.62,7.62"/>
</g>
</g>
<g id="kvg:StrokeNumbers_030d0">
	<text transform="matrix(1 0 0 1 27.76 35)">1</text>
	<text transform="matrix(1 0 0 1 58.51 33.75)">2</text>
	<text transform="matrix(1 0 0 1 73.51 20)">3</text>
	<text transform="matrix(1 0 0 1 79.63 15.63)">4</text>
</g>
</svg>
