<svg width="109" height="109" viewBox="0 0 109 109">
<g id="kvg:StrokePaths_034c1">
<g id="kvg:034c1">
	<g id="kvg:034c1-g1">
		<path id="kvg:034c1-s1" d="M17.661026,34.477825C17.524202,38.194419,14.118824,48.459797,12.91782,50.670801"/>
		<path id="kvg:034c1-s2" d="M18.588383,36.362443C46.545931,33.951396,60.988384,32.64585,88.018575,31.44559,105.63837,30.666475,92.898604,37.773275,87.197636,41.62674"/>
	</g>
	<g id="kvg:034c1-g2">
		<g id="kvg:034c1-g3">
			<path id="kvg:034c1-s3" d="m36.861887,41.584625c0.106418,0.579073,0.106418,1.484532-0.197634,2.32682-2.751667,7.433186-6.293869,13.108098-18.060667,20.309655"/>
		</g>
		<g id="kvg:034c1-g4">
			<path id="kvg:034c1-s4" d="m61.55088,38.162833c1.429043,0.989687,2.265185,2.411048,2.265185,4.127208,0,2.295233,0.0152,6.611957,0.0152,8.243888,0,5.137954,1.520258,6.053941,11.782001,6.053941,7.221227,0,12.54213,0,15.597849,-1.442417"/>
		</g>
	</g>
</g>
</g>
<g id="kvg:StrokeNumbers_034c1">
	<text transform="matrix(1 0 0 1 8.74 39.81)">1</text>
	<text transform="matrix(1 0 0 1 26.02 31.24)">2</text>
	<text transform="matrix(1 0 0 1 39.95 45.89)">3</text>
	<text transform="matrix(1 0 0 1 55.95 47.68)">4</text>
</g>
</svg>
