<svg width="109" height="109" viewBox="0 0 109 109">
<g id="kvg:StrokePaths_04e03">
<g id="kvg:04e03">
	<g id="kvg:04e03-g1">
		<path id="kvg:04e03-s1" d="M15.5,51.75c1.82,0.5,4.38,0.88,6.96,0.5c16.91-2.45,50.92-8.12,64.44-8.74c3.02-0.14,4.84,0.24,6.35,0.49"/>
	</g>
	<g id="kvg:04e03-g2">
		<path id="kvg:04e03-s2" d="M43,20c1.38,1.38,2.15,3.25,2.15,5.26C45.15,29.5,45,71.84,45,76c0,10.5,2.25,12.25,20.25,12.25c18.75,0,20-3.75,20-12.31"/>
	</g>
</g>
</g>
<g id="kvg:StrokeNumbers_04e03">
	<text transform="matrix(1 0 0 1 8.50 53.50)">1</text>
	<text transform="matrix(1 0 0 1 34.50 19.63)">2</text>
</g>
</svg>
