<svg width="109" height="109" viewBox="0 0 109 109">
<g id="kvg:StrokePaths_04e0d">
<g id="kvg:04e0d">
	<g id="kvg:04e0d-g1">
		<path id="kvg:04e0d-s1" d="M18.5,23.7c2.46,0.54,6.98,0.73,9.44,0.54c19.44-1.49,39.69-4.12,56.57-4.73c4.1-0.15,6.57,0.26,8.62,0.53"/>
	</g>
	<g id="kvg:04e0d-g2">
		<path id="kvg:04e0d-s2" d="M60.25,24.88c0.13,1.08-0.07,2.6-0.76,4.09c-4.33,9.27-22.7,30.16-46.18,41.5"/>
	</g>
	<g id="kvg:04e0d-g3">
		<path id="kvg:04e0d-s3" d="M52.5,35.5c0.75,0.75,1.46,1.5,1.46,3.5c0,0.86,0.02,36.38,0.03,51.75c0,2.96,0,5.18,0,6.25"/>
	</g>
	<path id="kvg:04e0d-s4" d="M72.52,49.08c8.4,3.64,20.86,14.29,23.79,20.63"/>
</g>
</g>
<g id="kvg:StrokeNumbers_04e0d">
	<text transform="matrix(1 0 0 1 12.50 25.50)">1</text>
	<text transform="matrix(1 0 0 1 49.50 31.50)">2</text>
	<text transform="matrix(1 0 0 1 46.50 56.50)">3</text>
	<text transform="matrix(1 0 0 1 68.25 57.13)">4</text>
</g>
</svg>
