<svg width="109" height="109" viewBox="0 0 109 109">
<g id="kvg:StrokePaths_04e08">
<g id="kvg:04e08">
	<g id="kvg:04e08-g1">
		<path id="kvg:04e08-s1" d="M19.25,38.23c3.07,1.12,6.86,0.63,10.02,0.24c15.11-1.84,33.86-4.18,47.24-4.94c3.41-0.2,6.88-0.37,10.24,0.36"/>
	</g>
	<g id="kvg:04e08-g2">
		<g id="kvg:04e08-g3">
			<path id="kvg:04e08-s2" d="M52.77,15.18c1.21,1.21,1.48,2.57,1.55,5.42C55.25,56.75,49.75,78,16.5,95"/>
		</g>
		<path id="kvg:04e08-s3" d="M27.25,51.25c5.44,1.3,30.3,22.94,48.57,34.71c4.6,2.96,9.37,5.71,14.43,7.79"/>
	</g>
</g>
</g>
<g id="kvg:StrokeNumbers_04e08">
	<text transform="matrix(1 0 0 1 12.50 38.50)">1</text>
	<text transform="matrix(1 0 0 1 42.75 16.63)">2</text>
	<text transform="matrix(1 0 0 1 19.50 52.50)">3</text>
</g>
</svg>
