<svg width="109" height="109" viewBox="0 0 109 109">
<g id="kvg:StrokePaths_04e0a">
<g id="kvg:04e0a">
	<g id="kvg:04e0a-g1">
		<path id="kvg:04e0a-s1" d="M52.31,15.88c1.15,1.15,2.01,3.12,2.01,5.12c0,0.82-0.22,63.62-0.25,64.63"/>
		<path id="kvg:04e0a-s2" d="M58,44.75c7-0.62,14.25-2.5,17.75-3c1.38-0.2,3.5-0.38,4.75,0"/>
	</g>
	<g id="kvg:04e0a-g2">
		<path id="kvg:04e0a-s3" d="M13.38,88.28c3.6,1.15,7.45,0.62,11.13,0.34c16.23-1.23,41.16-2.66,60.24-2.92c3.65-0.05,7.47-0.32,11,0.82"/>
	</g>
</g>
</g>
<g id="kvg:StrokeNumbers_04e0a">
	<text transform="matrix(1 0 0 1 43.50 16.28)">1</text>
	<text transform="matrix(1 0 0 1 60.25 41.50)">2</text>
	<text transform="matrix(1 0 0 1 5.50 88.50)">3</text>
</g>
</svg>
