<svg width="109" height="109" viewBox="0 0 109 109">
<g id="kvg:StrokePaths_04e0b">
<g id="kvg:04e0b">
	<g id="kvg:04e0b-g1">
		<path id="kvg:04e0b-s1" d="M13.25,22.5c0.94,0.23,5.18,0.96,7.74,0.75c17.87-1.5,46.54-4.75,66.38-4.75c2.92,0,6.42,0.75,7.88,1.25"/>
	</g>
	<g id="kvg:04e0b-g2">
		<path id="kvg:04e0b-s2" d="M52.97,23.25c0.93,1.07,1.56,2.75,1.56,5.3c0,8.65-0.2,39.42-0.27,57.2c-0.02,3.86-0.02,5.89-0.02,8.25"/>
		<path id="kvg:04e0b-s3" d="M67.83,37.17C72.75,39.5,79.88,47.62,82,52.12"/>
	</g>
</g>
</g>
<g id="kvg:StrokeNumbers_04e0b">
	<text transform="matrix(1 0 0 1 6.50 22.63)">1</text>
	<text transform="matrix(1 0 0 1 46.75 33.13)">2</text>
	<text transform="matrix(1 0 0 1 62.50 32.13)">3</text>
</g>
</svg>
