<svg width="109" height="109" viewBox="0 0 109 109">
<g id="kvg:StrokePaths_04e17">
<g id="kvg:04e17">
	<g id="kvg:04e17-g1">
		<g id="kvg:04e17-g2">
			<g id="kvg:04e17-g3">
				<g id="kvg:04e17-g4">
					<path id="kvg:04e17-s1" d="M12.75,51.7c1.52,0.54,4.31,0.68,5.82,0.54c11.18-0.99,53.93-5.49,72.11-5.73c2.53-0.03,4.05,0.26,5.31,0.53"/>
				</g>
			</g>
			<g id="kvg:04e17-g5">
				<g id="kvg:04e17-g6">
					<g id="kvg:04e17-g7">
						<g id="kvg:04e17-g8">
							<path id="kvg:04e17-s2" d="M27.75,15.25c1.25,0.5,2,2.25,2.25,3.25c0.16,0.65,0.02,70.25-0.25,77"/>
						</g>
					</g>
				</g>
			</g>
			<g id="kvg:04e17-g9">
				<g id="kvg:04e17-g10">
					<g id="kvg:04e17-g11">
						<path id="kvg:04e17-s3" d="M52.75,15.25c1.25,0.5,2,2.25,2.25,3.25s0,66.75-0.25,73"/>
					</g>
				</g>
			</g>
		</g>
		<g id="kvg:04e17-g12">
			<path id="kvg:04e17-s4" d="M77.75,12.75C79,13.25,79.75,15,80,16s0,71.25-0.25,77.5"/>
		</g>
	</g>
	<g id="kvg:04e17-g13">
		<path id="kvg:04e17-s5" d="M30.5,93.75c7-0.75,43.17-3.8,48.96-3.36"/>
	</g>
</g>
</g>
<g id="kvg:StrokeNumbers_04e17">
	<text transform="matrix(1 0 0 1 5.25 52.88)">1</text>
	<text transform="matrix(1 0 0 1 19.50 16.50)">2</text>
	<text transform="matrix(1 0 0 1 42.75 16.50)">3</text>
	<text transform="matrix(1 0 0 1 70.00 15.40)">4</text>
	<text transform="matrix(1 0 0 1 34.50 89.50)">5</text>
</g>
</svg>
