<svg width="109" height="109" viewBox="0 0 109 109">
<g id="kvg:StrokePaths_04e11">
<g id="kvg:04e11">
	<path id="kvg:04e11-s1" d="M27,25c2.93,1.07,6.45,0.65,9.51,0.38c12.46-1.08,27.45-2.96,37.91-3.64c3.32-0.22,4.63,2.42,4.04,5.13C76,38.12,70.75,68.5,67.76,85.62"/>
	<path id="kvg:04e11-s2" d="M50,27.75c0.75,1.25,0.67,2.48,0.5,3.5c-1.88,11-9.5,40.88-14,55.5"/>
	<g id="kvg:04e11-g1">
		<path id="kvg:04e11-s3" d="M17,54.45c2.88,1.03,6.17,0.51,9.13,0.28c16.46-1.29,38.81-2.53,55.99-2.89c3.23-0.07,6.44,0.02,9.62,0.71"/>
	</g>
	<path id="kvg:04e11-s4" d="M12.5,88.07c3.88,1.05,7.78,1.05,11.51,0.68c19.06-1.89,41.55-2.61,60.49-2.86c3.62-0.05,6.95,0.27,10.5,1.03"/>
</g>
</g>
<g id="kvg:StrokeNumbers_04e11">
	<text transform="matrix(1 0 0 1 20.25 25.25)">1</text>
	<text transform="matrix(1 0 0 1 41.25 35.25)">2</text>
	<text transform="matrix(1 0 0 1 9.25 55.25)">3</text>
	<text transform="matrix(1 0 0 1 5.25 89.15)">4</text>
</g>
</svg>
