<svg width="109" height="109" viewBox="0 0 109 109">
<g id="kvg:StrokePaths_04e2a">
<g id="kvg:04e2a">
	<g id="kvg:04e2a-g1">
		<path id="kvg:04e2a-s1" d="M52.75,10.25c0.11,1.12,0,3.49-0.72,4.99C47.5,24.75,34.25,45,14.25,57.75"/>
		<path id="kvg:04e2a-s2" d="M51.75,15.75c5.92,7.28,31.44,31.07,37.97,36.4c2.22,1.81,5.06,2.58,7.28,3.1"/>
	</g>
	<g id="kvg:04e2a-g2">
		<path id="kvg:04e2a-s3" d="M51.87,46.25c1.09,0.5,1.74,2.25,1.96,3.25c0.22,1,0,43.25-0.22,49.5"/>
	</g>
</g>
</g>
<g id="kvg:StrokeNumbers_04e2a">
	<text transform="matrix(1 0 0 1 44.50 9.50)">1</text>
	<text transform="matrix(1 0 0 1 60.50 20.50)">2</text>
	<text transform="matrix(1 0 0 1 44.50 53.50)">3</text>
</g>
</svg>
