<svg width="109" height="109" viewBox="0 0 109 109">
<g id="kvg:StrokePaths_04e2d">
<g id="kvg:04e2d">
	<g id="kvg:04e2d-g1">
		<path id="kvg:04e2d-s1" d="M19.89,36.87c1,1,1.74,2.25,2.01,3.65c1.13,5.71,2.58,13.06,4.17,22.97c0.27,1.68,0.55,4.43,0.83,6.26"/>
		<path id="kvg:04e2d-s2" d="M23.33,39.51C37.12,37.62,70.88,34,84,33.24c4.38-0.25,6,1.14,5.12,4.42c-1.53,5.7-5.61,20.18-6.12,22.09"/>
		<path id="kvg:04e2d-s3" d="M27.74,64.84C40.12,63.62,61.86,62.2,79,60.77c2.36-0.2,5.75-0.27,7.25-0.27"/>
	</g>
	<g id="kvg:04e2d-g2">
		<path id="kvg:04e2d-s4" d="M52.5,11.5c1.44,1.44,2.25,3.5,2.25,5.06c0,0.9,0.06,56.6-0.15,76.69c-0.03,3.3-0.07,5.6-0.1,6.5"/>
	</g>
</g>
</g>
<g id="kvg:StrokeNumbers_04e2d">
	<text transform="matrix(1 0 0 1 14.50 45.13)">1</text>
	<text transform="matrix(1 0 0 1 24.50 35.50)">2</text>
	<text transform="matrix(1 0 0 1 30.50 60.75)">3</text>
	<text transform="matrix(1 0 0 1 43.50 12.50)">4</text>
</g>
</svg>
