<svg width="109" height="109" viewBox="0 0 109 109">
<g id="kvg:StrokePaths_04e39">
<g id="kvg:04e39">
	<g id="kvg:04e39-g1">
		<g id="kvg:04e39-g2">
			<path id="kvg:04e39-s1" d="M32.62,15.67c0.98,0.98,1.28,2.42,1.35,4.32C35.38,62,32.5,84.75,24,96.42"/>
		</g>
		<path id="kvg:04e39-s2" d="M35,17.83c11.75-1.83,28.68-4.66,35-5.42c3.5-0.42,5.25,0.83,5.25,5.17c0,2.33,0.08,70.25,0.08,73.58c0,11.08-6.08,4.08-8.58,1.58"/>
	</g>
	<g id="kvg:04e39-g3">
		<path id="kvg:04e39-s3" d="M48.42,27.75c2.51,1.37,8.97,9.11,9.5,11.67"/>
	</g>
	<path id="kvg:04e39-s4" d="M10.67,52.78c3.68,0.75,7,0.84,10.7,0.38c16.54-2.06,46.76-5.04,64.77-6.01c3.89-0.21,8.16-0.25,11.95,0.71"/>
</g>
</g>
<g id="kvg:StrokeNumbers_04e39">
	<text transform="matrix(1 0 0 1 26.50 25.63)">1</text>
	<text transform="matrix(1 0 0 1 36.75 13.63)">2</text>
	<text transform="matrix(1 0 0 1 41.25 27.05)">3</text>
	<text transform="matrix(1 0 0 1 3.50 52.50)">4</text>
</g>
</svg>
