<svg width="109" height="109" viewBox="0 0 109 109">
<g id="kvg:StrokePaths_04e3b">
<g id="kvg:04e3b">
	<g id="kvg:04e3b-g1">
		<g id="kvg:04e3b-g2">
			<path id="kvg:04e3b-s1" d="M42.5,14.38c4.89,1.83,12.09,6.99,13.31,9.84"/>
		</g>
	</g>
	<g id="kvg:04e3b-g3">
		<g id="kvg:04e3b-g4">
			<path id="kvg:04e3b-s2" d="M25,39.36c2.59,0.85,5.96,0.5,8.63,0.17c12.89-1.59,25.99-4.01,39.63-4.75c2.53-0.14,5.01-0.11,7.5,0.43"/>
		</g>
		<path id="kvg:04e3b-s3" d="M52.75,39.83c1.27,1.27,1.75,2.83,1.75,3.75c0,6.41,0.25,38.3,0.25,45.17"/>
		<path id="kvg:04e3b-s4" d="M27.75,64.82c2,0.43,4.84,0.43,6.88,0.16c11.12-1.48,25.35-3.34,36.62-4.26c2.68-0.22,5.88-0.34,8.13,0.14"/>
		<path id="kvg:04e3b-s5" d="M15.5,92.76c2.69,0.62,6.06,0.7,8.22,0.5c17.03-1.51,42.29-5.39,60.96-5.3c3.48,0.02,6.58,0.24,8.33,0.69"/>
	</g>
</g>
</g>
<g id="kvg:StrokeNumbers_04e3b">
	<text transform="matrix(1 0 0 1 35.25 15.50)">1</text>
	<text transform="matrix(1 0 0 1 17.50 40.63)">2</text>
	<text transform="matrix(1 0 0 1 46.50 48.50)">3</text>
	<text transform="matrix(1 0 0 1 21.50 66.50)">4</text>
	<text transform="matrix(1 0 0 1 8.50 94.50)">5</text>
</g>
</svg>
