<svg width="109" height="109" viewBox="0 0 109 109">
<g id="kvg:StrokePaths_04e31">
<g id="kvg:04e31">
	<g id="kvg:04e31-g1">
		<path id="kvg:04e31-s1" d="M19.27,28.83c0.98,0.92,1.67,1.99,1.76,5.02c0.15,5.47-0.27,15.4-0.9,26.4C19.99,62.4,20.86,63.36,23,63c7.5-1.25,18.28-2.5,21-2.75"/>
		<g id="kvg:04e31-g2">
			<path id="kvg:04e31-s2" d="M42.54,16.75c1.21,1.75,1.81,4.16,1.81,7.08c0,48.67,1.9,62.67-22.3,78.64"/>
		</g>
	</g>
	<g id="kvg:04e31-g3">
		<g id="kvg:04e31-g4">
			<path id="kvg:04e31-s3" d="M88.77,19.33c0.98,0.92,1.76,1.99,1.76,5.02c0,8.4,0.1,25.15,0.1,36.4"/>
		</g>
		<path id="kvg:04e31-s4" d="M66.75,59.5C70,59.5,86.5,57.5,90.75,57"/>
		<path id="kvg:04e31-s5" d="M64.27,11.33c0.98,0.92,1.67,1.99,1.76,5.02c0.15,5.47,0.1,68.65,0.1,83.4"/>
	</g>
</g>
</g>
<g id="kvg:StrokeNumbers_04e31">
	<text transform="matrix(1 0 0 1 10.50 29.50)">1</text>
	<text transform="matrix(1 0 0 1 33.50 16.50)">2</text>
	<text transform="matrix(1 0 0 1 80.50 17.50)">3</text>
	<text transform="matrix(1 0 0 1 71.50 55.50)">4</text>
	<text transform="matrix(1 0 0 1 58.50 8.50)">5</text>
</g>
</svg>
