<svg width="109" height="109" viewBox="0 0 109 109">
<g id="kvg:StrokePaths_04e4f">
<g id="kvg:04e4f">
	<g id="kvg:04e4f-g1">
		<path id="kvg:04e4f-s1" d="M68.96,13.75c-0.34,1.25-1.19,2.09-1.94,2.54c-8.86,5.4-24.27,9.96-43.77,14.5"/>
	</g>
	<g id="kvg:04e4f-g2">
		<g id="kvg:04e4f-g3">
			<path id="kvg:04e4f-s2" d="M50.02,31.58C51,32.5,51.52,34,51.52,36.1c0,3.15-0.02,6.94-0.02,11.9"/>
		</g>
		<path id="kvg:04e4f-s3" d="M22.58,53.5c2.14,0.95,5.94,0.32,8.2-0.12c10.52-2.04,38.16-7.04,40.3-7.38c4.67-0.75,5.67,2,2.5,4.75C59.89,62.59,45.75,72.5,25.25,83"/>
		<path id="kvg:04e4f-s4" d="M16.75,84.35c3.02-0.43,8.99-0.99,13.59-0.65c9.04,0.68,30.27,6.67,34.72,7.79C77.13,94.51,83.12,95,92.5,94.61"/>
	</g>
</g>
</g>
<g id="kvg:StrokeNumbers_04e4f">
	<text transform="matrix(1 0 0 1 59.25 13.63)">1</text>
	<text transform="matrix(1 0 0 1 41.25 35.50)">2</text>
	<text transform="matrix(1 0 0 1 14.50 54.50)">3</text>
	<text transform="matrix(1 0 0 1 9.75 84.50)">4</text>
</g>
</svg>
