<svg width="109" height="109" viewBox="0 0 109 109">
<g id="kvg:StrokePaths_04e43">
<g id="kvg:04e43">
	<g id="kvg:04e43-g1">
		<path id="kvg:04e43-s1" d="M48.15,24.18c0.6,1.32,0.75,3.4,0.3,5.55C45.14,45.7,37.25,68.75,13.14,85.9"/>
	</g>
	<path id="kvg:04e43-s2" d="M29.75,21c3.21,1.38,6.92,0.67,10.25,0.34c12.1-1.19,26.2-2.61,37.61-4.12c4.03-0.54,6.86,0.6,4.79,4.85C66.25,55.25,60.88,49.75,87.76,44.8c4.26-0.78,4.9,1.32,3.77,4.96C88.08,60.95,82.68,77,74.85,87.2c-4.01,5.23-9.32,8.85-13.35,1.8"/>
</g>
</g>
<g id="kvg:StrokeNumbers_04e43">
	<text transform="matrix(1 0 0 1 40.25 32.25)">1</text>
	<text transform="matrix(1 0 0 1 33.50 17.88)">2</text>
</g>
</svg>
