<svg width="109" height="109" viewBox="0 0 109 109">
<g id="kvg:StrokePaths_04e57">
<g id="kvg:04e57">
	<g id="kvg:04e57-g1">
		<g id="kvg:04e57-g2">
			<path id="kvg:04e57-s1" d="M68.21,10.39c-0.33,0.98-0.83,1.61-1.87,2.11c-4.32,2.09-17.96,6.87-33.78,9.72"/>
		</g>
		<g id="kvg:04e57-g3">
			<path id="kvg:04e57-s2" d="M24,32.7c2.01,0.54,5.71,0.51,7.71,0.29c14.85-1.62,30.99-3.62,45-4.23c3.35-0.15,5.36,0.26,7.04,0.53"/>
		</g>
	</g>
	<path id="kvg:04e57-s3" d="M14.5,47.95c2.47,0.54,7,0.46,9.46,0.29c16.04-1.12,39.16-3.62,59.27-4.48c4.11-0.18,6.58,0.26,8.64,0.53"/>
	<path id="kvg:04e57-s4" d="M34.81,36.63c1.28,1.28,1.82,2.13,2.01,3.5c0.93,6.62,1.53,16.82,1.93,21.12"/>
	<path id="kvg:04e57-s5" d="M72.81,32.63c0.9,0.9,1.11,2.6,1.01,3.5C73.25,41.38,72,51.75,70.25,59"/>
	<g id="kvg:04e57-g4">
		<path id="kvg:04e57-s6" d="M24,62.05c2.09,0.58,5.92,0.47,8,0.31c10.56-0.79,32.6-3.2,49.69-3.72c3.48-0.11,5.57,0.28,7.31,0.56"/>
		<g id="kvg:04e57-g5">
			<g id="kvg:04e57-g6">
				<path id="kvg:04e57-s7" d="M52.56,20.13c0.84,0.84,1.51,2.62,1.51,4.25c0,4.61,0,48.92,0,66.99c0,2.98,0,5.25,0,6.51"/>
			</g>
		</g>
		<path id="kvg:04e57-s8" d="M50.75,61.25c0,0.62-0.7,1.85-1.41,2.81C42.35,73.56,28.38,85.46,17,90.5"/>
		<path id="kvg:04e57-s9" d="M56.5,61.5c4.2,3.45,19.42,17.95,27.52,23.46c2.64,1.8,5.19,3.54,7.85,4.41"/>
	</g>
</g>
</g>
<g id="kvg:StrokeNumbers_04e57">
	<text transform="matrix(1 0 0 1 58.50 9.50)">1</text>
	<text transform="matrix(1 0 0 1 16.50 33.50)">2</text>
	<text transform="matrix(1 0 0 1 7.50 48.50)">3</text>
	<text transform="matrix(1 0 0 1 27.75 42.50)">4</text>
	<text transform="matrix(1 0 0 1 65.50 39.50)">5</text>
	<text transform="matrix(1 0 0 1 17.25 63.50)">6</text>
	<text transform="matrix(1 0 0 1 46.50 27.50)">7</text>
	<text transform="matrix(1 0 0 1 34.50 71.50)">8</text>
	<text transform="matrix(1 0 0 1 69.50 69.50)">9</text>
</g>
</svg>
