<svg width="109" height="109" viewBox="0 0 109 109">
<g id="kvg:StrokePaths_04e5e">
<g id="kvg:04e5e">
	<g id="kvg:04e5e-g1">
		<path id="kvg:04e5e-s1" d="M40.05,11c0.07,0.92,0.06,2.17-0.38,3.19C34.5,26,27.12,37.62,14.25,49.5"/>
		<path id="kvg:04e5e-s2" d="M36.75,27.5c3.25,0.12,5.44-0.26,8.14-0.65c8.9-1.27,20.49-2.85,31.24-4.91c3.11-0.6,6.22-0.63,9.38-0.44"/>
	</g>
	<g id="kvg:04e5e-g2">
		<path id="kvg:04e5e-s3" d="M30,49.09c2.78,1.06,5.42,0.99,8.38,0.5c7.21-1.21,20.46-3.44,25.38-4.13c3.82-0.54,4.96,1.14,1.9,3.73c-10.56,8.95-22.2,22.63-27.38,29.55c-11.9,15.89,8.85,18.8,26.35,18.8c26,0,27.5-0.66,28.14-8.89"/>
	</g>
</g>
</g>
<g id="kvg:StrokeNumbers_04e5e">
	<text transform="matrix(1 0 0 1 30.50 14.13)">1</text>
	<text transform="matrix(1 0 0 1 44.00 23.50)">2</text>
	<text transform="matrix(1 0 0 1 29.50 46.50)">3</text>
</g>
</svg>
