<svg width="109" height="109" viewBox="0 0 109 109">
<g id="kvg:StrokePaths_04e5d">
<g id="kvg:04e5d">
	<g id="kvg:04e5d-g1">
		<path id="kvg:04e5d-s1" d="M41.88,14.38c1,1.38,1.5,3.25,1.5,5.12c0,40.13-9.12,57.5-28.5,68.75"/>
	</g>
	<g id="kvg:04e5d-g2">
		<path id="kvg:04e5d-s2" d="M13.5,45.75c2.88,0.85,5.78,0.05,8.58-0.66c8.47-2.14,39.88-9.79,40.92-9.84c2.5-0.12,4.75,0.5,4.25,4.75c-0.5,4.25-5.5,20.75-7,32.5c-2.23,17.46,2,19.37,18.21,19.37c13.79,0,19.01-1.07,19.27-10.12"/>
	</g>
</g>
</g>
<g id="kvg:StrokeNumbers_04e5d">
	<text transform="matrix(1 0 0 1 32.50 14.50)">1</text>
	<text transform="matrix(1 0 0 1 5.50 46.63)">2</text>
</g>
</svg>
