<svg width="109" height="109" viewBox="0 0 109 109">
<g id="kvg:StrokePaths_04e58">
<g id="kvg:04e58">
	<g id="kvg:04e58-g1">
		<g id="kvg:04e58-g2">
			<path id="kvg:04e58-s1" d="M68.51,10.5c-0.26,1.25-0.19,1.44-0.74,1.87C62.5,16.5,46.25,22.5,25.75,25"/>
		</g>
	</g>
	<g id="kvg:04e58-g3">
		<path id="kvg:04e58-s2" d="M15.25,33.69c0.78,0.33,3.9,1.2,5.96,0.98c9.33-0.98,49.51-5.65,65.33-6.55c2.07-0.12,4.67,0.39,5.96,0.72"/>
	</g>
	<g id="kvg:04e58-g4">
		<g id="kvg:04e58-g5">
			<path id="kvg:04e58-s3" d="M15.5,52.03c1.39,0.29,1.74,0.44,3.14,0.44s15.18-2.36,16.4-2.36"/>
			<path id="kvg:04e58-s4" d="M34.19,39.44c1.05,0.89,1.42,2.92,1.42,3.51s0.17,17.37,0.17,18.99"/>
			<path id="kvg:04e58-s5" d="M16.26,67.62c2.16,1.24,3.82,1.31,5.41,0.69c9.55-3.73,12.61-4.83,17.66-6.91"/>
		</g>
		<g id="kvg:04e58-g6">
			<path id="kvg:04e58-s6" d="M87.32,37.58c0.13,0.22,0.19,0.82-0.13,1.18c-3.06,3.46-10.59,8.52-17.2,10.33"/>
			<path id="kvg:04e58-s7" d="M66.22,36c0.52,0.4,1.21,1.19,1.21,2c0,0.55,0.17,18.06,0.17,19.71c0,4.23,2.91,5.34,12.16,5.34c8.25,0,11.99-1.04,11.99-5.45"/>
		</g>
	</g>
	<g id="kvg:04e58-g7">
		<g id="kvg:04e58-g8">
			<path id="kvg:04e58-s8" d="M52.72,22.5c0.89,0.49,1.42,2.19,1.6,3.16c0.18,0.97,0,68.26-0.18,74.34"/>
			<path id="kvg:04e58-s9" d="M54,56.18C47.46,70.47,30.75,86.25,15.75,94.5"/>
			<path id="kvg:04e58-s10" d="M54.25,58.21c7,8.04,26,25.29,33.96,30.99c1.93,1.38,3.44,2.13,5.29,2.55"/>
		</g>
	</g>
</g>
</g>
<g id="kvg:StrokeNumbers_04e58">
	<text transform="matrix(1 0 0 1 60.50 9.50)">1</text>
	<text transform="matrix(1 0 0 1 8.50 34.50)">2</text>
	<text transform="matrix(1 0 0 1 7.50 52.50)">3</text>
	<text transform="matrix(1 0 0 1 26.50 42.50)">4</text>
	<text transform="matrix(1 0 0 1 8.50 69.50)">5</text>
	<text transform="matrix(1 0 0 1 79.50 37.50)">6</text>
	<text transform="matrix(1 0 0 1 58.50 40.50)">7</text>
	<text transform="matrix(1 0 0 1 45.44 28.50)">8</text>
	<text transform="matrix(1 0 0 1 46.50 58.53)">9</text>
	<text transform="matrix(1 0 0 1 56.50 58.50)">10</text>
</g>
</svg>
