<svg width="109" height="109" viewBox="0 0 109 109">
<g id="kvg:StrokePaths_04e5f">
<g id="kvg:04e5f">
	<path id="kvg:04e5f-s1" d="M15,52.81c3.38,1.44,6.14,1.17,9.14,0.22C44.05,46.76,64.8,39.37,78,34.5c4.19-1.55,6.91-0.7,6.25,3.25c-1.75,10.5-2.99,14.6-5,19.27c-3.88,8.98-5.75,5.98-11.12-1"/>
	<g id="kvg:04e5f-g1">
		<path id="kvg:04e5f-s2" d="M54.54,14.5c1.35,1.35,1.61,2.88,1.61,4.75c0,2.2-0.02,28.39-0.02,43.87c0,3.83,0,7,0,9"/>
	</g>
	<g id="kvg:04e5f-g2">
		<path id="kvg:04e5f-s3" d="M30.78,36.4c1.16,1.16,1.37,2.73,1.37,5.46c0,6.27-0.02,24.15-0.02,30.4C32.12,90.62,33.29,92,61.25,92c28.2,0,29.64-2.71,29.64-14.28"/>
	</g>
</g>
</g>
<g id="kvg:StrokeNumbers_04e5f">
	<text transform="matrix(1 0 0 1 8.25 53.25)">1</text>
	<text transform="matrix(1 0 0 1 45.25 13.25)">2</text>
	<text transform="matrix(1 0 0 1 22.25 35.25)">3</text>
</g>
</svg>
