<svg width="109" height="109" viewBox="0 0 109 109">
<g id="kvg:StrokePaths_04e71">
<g id="kvg:04e71">
	<g id="kvg:04e71-g1">
		<g id="kvg:04e71-g2">
			<path id="kvg:04e71-s1" d="M45.63,17.75c-0.13,0.62-0.5,1.5-1.36,2.15c-3.68,2.81-12.61,7.84-28.4,11.96"/>
			<path id="kvg:04e71-s2" d="M12.11,48.05c1.86,0.51,3.87,0.3,5.75,0.05c6.74-0.9,19.89-2.99,28.52-3.94c2.39-0.26,4.9-0.29,7.27,0.1"/>
			<path id="kvg:04e71-s3" d="M31.64,30.33c0.89,0.89,1.48,2.79,1.48,4.4c0,1.35-0.07,27.74-0.2,32.36"/>
		</g>
		<g id="kvg:04e71-g3">
			<path id="kvg:04e71-s4" d="M16.44,68.35c0.92,0.92,1.41,1.61,1.64,2.85c1.29,6.92,1.71,10.06,2.47,15.54c0.2,1.42,0.4,2.77,0.62,4.01"/>
			<path id="kvg:04e71-s5" d="M18.73,69.81c12.47-1.86,19.38-2.96,26.39-3.92c4.03-0.55,5.74,0.38,4.52,4.53c-1.09,3.68-1.71,7.03-3.67,14.48"/>
			<path id="kvg:04e71-s6" d="M21.92,88.21c6.8-0.49,13.06-1.17,21.88-1.82c1.67-0.12,3.39-0.25,5.16-0.4"/>
		</g>
	</g>
	<g id="kvg:04e71-g4">
		<path id="kvg:04e71-s7" d="M63.49,19.12c1.26,1.26,1.71,2.88,1.71,5.18c0,8.19,0.04,48.14,0.04,53.7c0,9.62,2.14,11.28,16.79,11.28c13.47,0,14.86-2.28,14.86-8.87"/>
	</g>
</g>
</g>
<g id="kvg:StrokeNumbers_04e71">
	<text transform="matrix(1 0 0 1 35.50 16.50)">1</text>
	<text transform="matrix(1 0 0 1 5.25 49.63)">2</text>
	<text transform="matrix(1 0 0 1 26.25 39.13)">3</text>
	<text transform="matrix(1 0 0 1 11.25 76.63)">4</text>
	<text transform="matrix(1 0 0 1 19.50 66.13)">5</text>
	<text transform="matrix(1 0 0 1 24.75 84.05)">6</text>
	<text transform="matrix(1 0 0 1 56.50 18.50)">7</text>
</g>
</svg>
