<svg width="109" height="109" viewBox="0 0 109 109">
<g id="kvg:StrokePaths_04e73">
<g id="kvg:04e73">
	<g id="kvg:04e73-g1">
		<g id="kvg:04e73-g2">
			<path id="kvg:04e73-s1" d="M42.27,13.04c-0.15,1.21-0.75,1.8-1.6,2.39c-4.42,3.07-12.17,6.7-25.07,11.05"/>
			<path id="kvg:04e73-s2" d="M14.52,32.99c2.49,2.09,6.43,8.59,7.05,11.84"/>
			<path id="kvg:04e73-s3" d="M27.5,29.62c2.79,2.07,7.2,8.5,7.89,11.72"/>
			<path id="kvg:04e73-s4" d="M50.03,24.09c0.07,1,0,1.99-0.37,2.92c-1.41,3.61-3.5,8.16-7.48,13.57"/>
		</g>
		<g id="kvg:04e73-g3">
			<path id="kvg:04e73-s5" d="M15.79,52.34c1.59,0.53,4.09,0.66,6.01,0.25c5.67-1.2,20.67-5.09,22.07-5.09c1.64,0,2.67,1.21,1.03,2.62c-1.64,1.41-8.15,7.25-13.09,10.71"/>
			<path id="kvg:04e73-s6" d="M31.85,61c8.4,8.62,9.42,19.43,8.48,26.25c-1.15,8.3-6.47,11.69-11.81,4.64"/>
			<path id="kvg:04e73-s7" d="M13,82.15c1.34,0.71,2.74,0.56,4.73-0.44C26.5,77.32,34.62,73,50,65"/>
		</g>
	</g>
	<g id="kvg:04e73-g4">
		<path id="kvg:04e73-s8" d="M62.24,17.87c0.95,0.95,1.25,2.59,1.25,4.43c0,8.58-0.23,52.2-0.23,58.2c0,10,1.75,12.53,17.27,12.53c13.98,0,15.62-2.28,15.62-10.12"/>
	</g>
</g>
</g>
<g id="kvg:StrokeNumbers_04e73">
	<text transform="matrix(1 0 0 1 33.75 13.63)">1</text>
	<text transform="matrix(1 0 0 1 8.25 37.63)">2</text>
	<text transform="matrix(1 0 0 1 21.75 34.63)">3</text>
	<text transform="matrix(1 0 0 1 41.25 26.50)">4</text>
	<text transform="matrix(1 0 0 1 8.25 53.50)">5</text>
	<text transform="matrix(1 0 0 1 26.50 69.13)">6</text>
	<text transform="matrix(1 0 0 1 4.50 85.50)">7</text>
	<text transform="matrix(1 0 0 1 55.50 15.50)">8</text>
</g>
</svg>
