<svg width="109" height="109" viewBox="0 0 109 109">
<g id="kvg:StrokePaths_04e8e">
<g id="kvg:04e8e">
	<g id="kvg:04e8e-g1">
		<g id="kvg:04e8e-g2">
			<path id="kvg:04e8e-s1" d="M22.51,18.78c1.09,0.39,3.09,0.45,4.18,0.39c7.56-0.42,44.99-4.48,55.36-4.48c1.82,0,2.91,0.19,3.82,0.38"/>
		</g>
		<g id="kvg:04e8e-g3">
			<path id="kvg:04e8e-s2" d="M12.75,46.99c1.63,0.57,4.61,0.64,6.23,0.57C32.5,47,75,42.5,92.56,42.56c2.71,0.01,4.33,0.27,5.69,0.56"/>
		</g>
	</g>
	<g id="kvg:04e8e-g4">
		<path id="kvg:04e8e-s3" d="M53.58,19.33c0.67,0.89,1.91,2.92,1.98,5.88c0.31,14.24-0.2,60.51-0.2,65.36c0,10.26-6.92,0.2-7.8-0.73"/>
	</g>
</g>
</g>
<g id="kvg:StrokeNumbers_04e8e">
	<text transform="matrix(1 0 0 1 15.25 18.50)">1</text>
	<text transform="matrix(1 0 0 1 4.50 47.50)">2</text>
	<text transform="matrix(1 0 0 1 46.50 27.50)">3</text>
</g>
</svg>
