<svg width="109" height="109" viewBox="0 0 109 109">
<g id="kvg:StrokePaths_04e88">
<g id="kvg:04e88">
	<g id="kvg:04e88-g1">
		<path id="kvg:04e88-s1" d="M28.48,15.91c1.77,0.71,3.56,0.98,5.28,0.71c3.39-0.53,32.66-4.34,36.24-4.87c3.58-0.53,4.81,2.25,2.67,4c-3.67,3-17.35,13.82-19.61,15.95"/>
		<path id="kvg:04e88-s2" d="M43.38,26.38c3.35,1.46,12.01,7.06,13.59,10.88"/>
	</g>
	<g id="kvg:04e88-g2">
		<path id="kvg:04e88-s3" d="M13.92,42.58c1.58,0.79,4.83,1.17,7.92,0.92c6.02-0.49,59.83-6.04,64.5-6.67c4.52-0.6,5.93,1.27,3.18,4.36c-3.38,3.81-8.32,8.47-10.76,10.89"/>
		<g id="kvg:04e88-g3">
			<path id="kvg:04e88-s4" d="M52.67,43.92C53.94,45.19,55,47,55,48.5c0,2,0.08,38.67,0.08,42.33c0,12.67-7.46,2.54-9.67,0"/>
		</g>
	</g>
</g>
</g>
<g id="kvg:StrokeNumbers_04e88">
	<text transform="matrix(1 0 0 1 21.50 16.50)">1</text>
	<text transform="matrix(1 0 0 1 35.50 27.13)">2</text>
	<text transform="matrix(1 0 0 1 6.75 44.24)">3</text>
	<text transform="matrix(1 0 0 1 47.50 53.50)">4</text>
</g>
</svg>
