<svg width="109" height="109" viewBox="0 0 109 109">
<g id="kvg:StrokePaths_04e9b">
<g id="kvg:04e9b">
	<g id="kvg:04e9b-g1">
		<g id="kvg:04e9b-g2">
			<g id="kvg:04e9b-g3">
				<path id="kvg:04e9b-s1" d="M35.27,13.73c0.75,0.75,1.16,1.9,1.16,3.12c0,0.76-0.06,32.95-0.06,41.78"/>
				<path id="kvg:04e9b-s2" d="M37.62,35.25c4.52-1.16,7.75-2,11.88-2.96c0.97-0.17,1.96-0.21,2.95-0.12"/>
			</g>
			<path id="kvg:04e9b-s3" d="M20.8,33.01c0.97,0.97,1.08,2.36,1.08,3.9c0,4.49,0.05,22.54,0.05,28.45"/>
			<path id="kvg:04e9b-s4" d="M15.6,66.64c1.03,0.98,2.45,1.12,3.53,0.64c10.24-4.53,19.87-9.03,33.66-15.7"/>
		</g>
		<g id="kvg:04e9b-g4">
			<path id="kvg:04e9b-s5" d="M88.29,21.19c-0.04,1.06-0.64,2.34-1.18,2.81C82.62,27.88,76,32.62,65.38,38"/>
			<path id="kvg:04e9b-s6" d="M60.96,12.25c0.89,0.89,1.23,2,1.23,3.1s-0.07,26.02-0.07,33.15c0,10.46,2.53,12.83,15.87,12.83c13.13,0,14.16-2.49,14.16-7.48"/>
		</g>
	</g>
	<g id="kvg:04e9b-g5">
		<g id="kvg:04e9b-g6">
			<path id="kvg:04e9b-s7" d="M31.75,76.17c3.12,0.52,6.21,0.21,9.38-0.13c8.62-0.91,19.27-2.22,27.88-2.63c2.99-0.33,5.97-0.27,8.93,0.19"/>
		</g>
		<g id="kvg:04e9b-g7">
			<path id="kvg:04e9b-s8" d="M17.75,95.04c5.5,1.33,12.23,0.39,17.52-0.14c17.61-1.78,28.98-2.4,43.1-3.58c5.58-0.46,11.36-0.16,16.88,0.93"/>
		</g>
	</g>
</g>
</g>
<g id="kvg:StrokeNumbers_04e9b">
	<text transform="matrix(1 0 0 1 25.50 13.50)">1</text>
	<text transform="matrix(1 0 0 1 41.25 30.50)">2</text>
	<text transform="matrix(1 0 0 1 11.50 33.50)">3</text>
	<text transform="matrix(1 0 0 1 7.25 67.40)">4</text>
	<text transform="matrix(1 0 0 1 79.50 20.50)">5</text>
	<text transform="matrix(1 0 0 1 52.50 9.50)">6</text>
	<text transform="matrix(1 0 0 1 25.50 77.50)">7</text>
	<text transform="matrix(1 0 0 1 10.50 96.50)">8</text>
</g>
</svg>
