<svg width="109" height="109" viewBox="0 0 109 109">
<g id="kvg:StrokePaths_04e9c">
<g id="kvg:04e9c">
	<g id="kvg:04e9c-g1">
		<g id="kvg:04e9c-g2">
			<path id="kvg:04e9c-s1" d="M23.38,21.68c2.99,0.65,5.98,0.58,9.01,0.33c13.11-1.04,30.12-2.73,45.99-3.15c2.81-0.07,5.73-0.07,8.5,0.53"/>
		</g>
	</g>
	<g id="kvg:04e9c-g3">
		<path id="kvg:04e9c-s2" d="M20,43.14c1.19,0.96,1.48,1.7,1.82,3.1c1.31,5.39,2.44,12.96,3.43,19.51c0.3,2,0.57,3.56,0.81,5"/>
		<path id="kvg:04e9c-s3" d="M22.75,45.54c23-2.79,41.54-4.46,60.89-5.84c3.48-0.25,6.74,0.45,5.39,5.54c-1.26,4.77-3.41,11.01-5.27,16.76"/>
		<path id="kvg:04e9c-s4" d="M26.5,67c19.64-1.66,31.34-2.67,50.25-3.8c2.63-0.25,5.26-0.28,7.89-0.09"/>
	</g>
	<path id="kvg:04e9c-s5" d="M42.12,24c1.09,1.56,1.57,3.23,1.46,5.01c0,7.22,0.03,50.43,0.03,58.99"/>
	<path id="kvg:04e9c-s6" d="M62.62,22.75c0.91,1.63,1.32,3.09,1.21,4.88c0,8.29,0.03,52.17,0.03,58.88"/>
	<g id="kvg:04e9c-g4">
		<path id="kvg:04e9c-s7" d="M15.88,89.23c3.62,0.65,7.25,0.71,10.62,0.49c18.61-1.21,42.5-2.34,60.12-2.56c3.21-0.04,6.34,0.23,9.5,0.91"/>
	</g>
</g>
</g>
<g id="kvg:StrokeNumbers_04e9c">
	<text transform="matrix(1 0 0 1 16.50 22.63)">1</text>
	<text transform="matrix(1 0 0 1 14.50 53.50)">2</text>
	<text transform="matrix(1 0 0 1 24.50 42.13)">3</text>
	<text transform="matrix(1 0 0 1 29.50 63.13)">4</text>
	<text transform="matrix(1 0 0 1 36.75 33.13)">5</text>
	<text transform="matrix(1 0 0 1 56.25 32.50)">6</text>
	<text transform="matrix(1 0 0 1 8.50 90.50)">7</text>
</g>
</svg>
