<svg width="109" height="109" viewBox="0 0 109 109">
<g id="kvg:StrokePaths_04ea8">
<g id="kvg:04ea8">
	<g id="kvg:04ea8-g1">
		<path id="kvg:04ea8-s1" d="M52.73,8.25c1.07,1.07,1.25,2,1.25,3.64c0,2.12-0.1,3.78-0.1,6.11"/>
		<path id="kvg:04ea8-s2" d="M20.25,21.86c3.36,0.66,6.23,0.52,9.62,0.13c12.98-1.5,34.26-3.62,49.13-4.5c3.34-0.2,7.3-0.53,10.5,0.67"/>
	</g>
	<g id="kvg:04ea8-g2">
		<g id="kvg:04ea8-g3">
			<path id="kvg:04ea8-s3" d="M34.89,31.43c0.87,0.55,1.37,1.35,1.52,2.39c0.85,2.57,1.74,6.97,2.46,10.71c0.29,1.5,0.56,2.94,0.78,4.19"/>
			<path id="kvg:04ea8-s4" d="M37.27,32.65c10.13-1.58,25.69-3.31,32.36-3.95c2.93-0.28,5.54,0.54,4.41,3.99c-0.96,2.91-2.11,5.43-4.06,9.88"/>
			<path id="kvg:04ea8-s5" d="M40.28,45.85c4.68-0.37,18.5-1.76,27.23-2.49c1.85-0.15,3.47-0.28,4.73-0.36"/>
		</g>
		<g id="kvg:04ea8-g4">
			<path id="kvg:04ea8-s6" d="M26.78,58.54c3.14,0.79,5.94,0.58,9.08,0.16c8.84-1.18,32.89-4.33,37.73-5.02c2.35-0.34,3.87,1.91,1.16,3.51C70,60,60,66.62,53.49,71.11"/>
			<g id="kvg:04ea8-g5">
				<path id="kvg:04ea8-s7" d="M50.98,70.5c5.89,3.25,8.52,15.75,5.56,26.7c-1.46,5.39-6.29,0.68-8.67-1.32"/>
			</g>
		</g>
	</g>
</g>
</g>
<g id="kvg:StrokeNumbers_04ea8">
	<text transform="matrix(1 0 0 1 44.25 8.25)">1</text>
	<text transform="matrix(1 0 0 1 12.25 22.25)">2</text>
	<text transform="matrix(1 0 0 1 29.25 39.25)">3</text>
	<text transform="matrix(1 0 0 1 40.25 29.15)">4</text>
	<text transform="matrix(1 0 0 1 43.25 42.25)">5</text>
	<text transform="matrix(1 0 0 1 19.25 59.00)">6</text>
	<text transform="matrix(1 0 0 1 44.25 74.25)">7</text>
</g>
</svg>
