<svg width="109" height="109" viewBox="0 0 109 109">
<g id="kvg:StrokePaths_04ea1">
<g id="kvg:04ea1">
	<g id="kvg:04ea1-g1">
		<path id="kvg:04ea1-s1" d="M52.79,14.36c1.61,1.61,1.96,3.64,1.96,6.14c0,4.88,0,10.43,0,15.25"/>
		<g id="kvg:04ea1-g2">
			<path id="kvg:04ea1-s2" d="M13.38,39.42c3.54,1.09,7.27,0.56,10.87,0.21c14.84-1.44,47.75-4.32,64-4.96c3.13-0.12,6.37-0.44,9.36,0.68"/>
		</g>
	</g>
	<g id="kvg:04ea1-g3">
		<path id="kvg:04ea1-s3" d="M29.75,43.5c1.06,1.06,1.5,2.88,1.5,5.25c0,12.34,0,24.04,0,28.71c0,10.04,2,12.82,27.75,12.82c12.88,0,21.63-0.41,30.5-3.2"/>
	</g>
</g>
</g>
<g id="kvg:StrokeNumbers_04ea1">
	<text transform="matrix(1 0 0 1 44.00 15.13)">1</text>
	<text transform="matrix(1 0 0 1 5.50 39.50)">2</text>
	<text transform="matrix(1 0 0 1 23.00 52.63)">3</text>
</g>
</svg>
