<svg width="109" height="109" viewBox="0 0 109 109">
<g id="kvg:StrokePaths_04eab">
<g id="kvg:04eab">
	<g id="kvg:04eab-g1">
		<path id="kvg:04eab-s1" d="M52.6,9.25c1.14,1.13,1.55,2.5,1.55,4.06c0,1.44-0.03,3.63-0.03,5.81"/>
		<path id="kvg:04eab-s2" d="M21.05,22.69c3.2,0.44,5.41,0.52,8.33,0.15c13.5-1.71,35.13-4.21,50.13-4.95c2.9-0.14,6.37,0.11,9.2,0.81"/>
	</g>
	<g id="kvg:04eab-g2">
		<g id="kvg:04eab-g3">
			<path id="kvg:04eab-s3" d="M35.28,32.52c0.85,0.85,1.39,1.75,1.58,2.74c0.93,2.53,1.59,5.97,2.52,9.71c0.32,1.29,0.6,2.56,0.83,3.74"/>
			<path id="kvg:04eab-s4" d="M37.12,33.27c8.87-1.07,24.21-3.19,31.49-4c3.46-0.38,6.09-0.18,4.94,3.9c-0.78,2.76-1.8,5.32-3.11,8.95"/>
			<path id="kvg:04eab-s5" d="M40.62,46.52c5.34-0.41,19.42-2.33,28.12-3.15c1.35-0.13,2.57-0.23,3.62-0.29"/>
		</g>
		<g id="kvg:04eab-g4">
			<path id="kvg:04eab-s6" d="M37.03,58.37c1.96,0.39,4.02,0.49,5.97,0.15c4.94-0.85,17.98-3.87,22.77-4.78c1.76-0.33,2.5,0.83,0.94,2.34c-2.22,2.16-4.34,4.28-11.85,10.07"/>
			<path id="kvg:04eab-s7" d="M54.87,66.16c4.25,4.59,8.11,18.7,2.62,29.94c-3.25,6.65-6.18,1.12-7.75,0.56"/>
			<path id="kvg:04eab-s8" d="M18.5,78.33c4,0.92,7.38,0.65,10.62,0.17c13.62-2,38.25-4.63,54.5-5.22c3.62-0.13,7.63-0.16,11.13,0.62"/>
		</g>
	</g>
</g>
</g>
<g id="kvg:StrokeNumbers_04eab">
	<text transform="matrix(1 0 0 1 44.25 9.50)">1</text>
	<text transform="matrix(1 0 0 1 13.50 23.50)">2</text>
	<text transform="matrix(1 0 0 1 28.50 39.13)">3</text>
	<text transform="matrix(1 0 0 1 39.75 30.13)">4</text>
	<text transform="matrix(1 0 0 1 44.50 43.50)">5</text>
	<text transform="matrix(1 0 0 1 29.25 59.98)">6</text>
	<text transform="matrix(1 0 0 1 48.50 70.50)">7</text>
	<text transform="matrix(1 0 0 1 11.25 79.63)">8</text>
</g>
</svg>
