<svg width="109" height="109" viewBox="0 0 109 109">
<g id="kvg:StrokePaths_04ea4">
<g id="kvg:04ea4">
	<g id="kvg:04ea4-g1">
		<path id="kvg:04ea4-s1" d="M51.62,11.75c1.06,1.06,1.73,2.38,1.73,4.01c0,4.32-0.11,8.74-0.11,12.15"/>
		<path id="kvg:04ea4-s2" d="M21.5,30.76c2.49,0.61,5.29,0.81,8.48,0.5c15.27-1.51,32.64-3.51,49.25-4.35c3.4-0.17,5.39,0.04,7.92,0.63"/>
	</g>
	<g id="kvg:04ea4-g2">
		<path id="kvg:04ea4-s3" d="M38.65,39.33c0.35,1.17,0.23,2.47-0.58,3.81C34.86,48.41,28,55.38,22,59.5"/>
		<path id="kvg:04ea4-s4" d="M67.51,37.73c7.84,4.31,14.32,9.28,18.24,14.52"/>
		<path id="kvg:04ea4-s5" d="M67.43,51c0.44,1.5,0.17,2.92-0.69,4.74C58.82,72.27,40.22,88.14,19,95.25"/>
		<path id="kvg:04ea4-s6" d="M35,59c4.45,0.12,29.53,21.55,46.53,32.58c3.81,2.47,6.72,4.17,11.47,5.07"/>
	</g>
</g>
</g>
<g id="kvg:StrokeNumbers_04ea4">
	<text transform="matrix(1 0 0 1 44.25 11.50)">1</text>
	<text transform="matrix(1 0 0 1 13.50 31.63)">2</text>
	<text transform="matrix(1 0 0 1 30.75 42.13)">3</text>
	<text transform="matrix(1 0 0 1 58.50 38.50)">4</text>
	<text transform="matrix(1 0 0 1 58.50 51.50)">5</text>
	<text transform="matrix(1 0 0 1 38.50 57.13)">6</text>
</g>
</svg>
