<svg width="109" height="109" viewBox="0 0 109 109">
<g id="kvg:StrokePaths_04ecb">
<g id="kvg:04ecb">
	<g id="kvg:04ecb-g1">
		<path id="kvg:04ecb-s1" d="M51.75,11c0.11,1.16-0.12,2.81-0.73,4.43C47.25,25.5,31.75,47.75,11,60.25"/>
		<path id="kvg:04ecb-s2" d="M52,16.5c8.62,9.25,22.88,23.5,35.34,34.33C90.2,53.31,93,55.38,96.25,57"/>
	</g>
	<g id="kvg:04ecb-g2">
		<g id="kvg:04ecb-g3">
			<path id="kvg:04ecb-s3" d="M39.02,49c0.99,0.99,1.08,2.57,1.08,4.19c0,14.81-0.6,34.06-14.29,44.28"/>
		</g>
		<g id="kvg:04ecb-g4">
			<path id="kvg:04ecb-s4" d="M64.62,45c1.07,1.06,1.21,2.5,1.21,4c0,2.03,0.02,29.62,0.03,42.88c0,3.04,0,5.33,0,6.38"/>
		</g>
	</g>
</g>
</g>
<g id="kvg:StrokeNumbers_04ecb">
	<text transform="matrix(1 0 0 1 43.50 13.63)">1</text>
	<text transform="matrix(1 0 0 1 60.50 21.13)">2</text>
	<text transform="matrix(1 0 0 1 30.50 57.13)">3</text>
	<text transform="matrix(1 0 0 1 57.75 52.63)">4</text>
</g>
</svg>
