<svg width="109" height="109" viewBox="0 0 109 109">
<g id="kvg:StrokePaths_04ece">
<g id="kvg:04ece">
	<g id="kvg:04ece-g1">
		<path id="kvg:04ece-s1" d="M30.25,23.24c0.5,1.01,0.39,3.06,0.34,5.12C30.25,45,24.75,75.75,10.72,90.38"/>
		<path id="kvg:04ece-s2" d="M29.89,55.21c6.1,3.2,13.89,11.72,16.86,19.79"/>
	</g>
	<g id="kvg:04ece-g2">
		<path id="kvg:04ece-s3" d="M68.25,20.24c0.5,1.26,0.52,3.72,0.3,5.88C67.25,38.5,60.25,77.5,42.97,91.88"/>
		<path id="kvg:04ece-s4" d="M64,53.75C67.89,59,84.93,83.84,89.16,89c1.43,1.75,2.66,2.5,4.09,3"/>
	</g>
</g>
</g>
<g id="kvg:StrokeNumbers_04ece">
	<text transform="matrix(1 0 0 1 21.08 24.30)">1</text>
	<text transform="matrix(1 0 0 1 32.92 54.39)">2</text>
	<text transform="matrix(1 0 0 1 60.42 25.48)">3</text>
	<text transform="matrix(1 0 0 1 68.25 56.74)">4</text>
</g>
</svg>
