<svg width="109" height="109" viewBox="0 0 109 109">
<g id="kvg:StrokePaths_04ec0">
<g id="kvg:04ec0">
	<g id="kvg:04ec0-g1">
		<path id="kvg:04ec0-s1" d="M33.74,15.14c0,1.48-0.16,2.68-0.63,4.1C29.5,30.25,22.12,44,10.31,57.72"/>
		<path id="kvg:04ec0-s2" d="M26.74,38c0.88,0.88,1.1,2.12,1.1,3.63c0,10.56-0.04,28.98-0.06,42.12c-0.01,5.08-0.01,9.38-0.01,12.12"/>
	</g>
	<g id="kvg:04ec0-g2">
		<path id="kvg:04ec0-s3" d="M39,47.17c3.58,0.69,7.12,0.43,10.75,0.01c12.38-1.43,25-2.43,38.13-3.14c3.33-0.18,6.65,0.14,9.95,0.57"/>
		<path id="kvg:04ec0-s4" d="M66.25,11c1.19,1.19,1.5,2.5,1.5,4.25c0,8.35,0,49.96,0,70.5c0,5.29,0,9.19,0,10.75"/>
	</g>
</g>
</g>
<g id="kvg:StrokeNumbers_04ec0">
	<text transform="matrix(1 0 0 1 24.50 15.85)">1</text>
	<text transform="matrix(1 0 0 1 20.50 55.50)">2</text>
	<text transform="matrix(1 0 0 1 36.50 44.50)">3</text>
	<text transform="matrix(1 0 0 1 55.50 11.50)">4</text>
</g>
</svg>
