<svg width="109" height="109" viewBox="0 0 109 109">
<g id="kvg:StrokePaths_04ec6">
<g id="kvg:04ec6">
	<g id="kvg:04ec6-g1">
		<path id="kvg:04ec6-s1" d="M40.47,15.89c0.15,1.22,0.27,2.74-0.14,4.24c-2.6,9.46-12.66,27.76-24.77,40.58"/>
		<path id="kvg:04ec6-s2" d="M35.03,39c0.59,0.61,0.76,1.97,0.76,3.23c0,13.02-0.29,43.15-0.29,51.9"/>
	</g>
	<g id="kvg:04ec6-g2">
		<path id="kvg:04ec6-s3" d="M66.31,13.63c0.76,0.45,1.86,3.35,2.01,4.25c0.15,0.9-0.1,72.15-0.25,77.75"/>
		<path id="kvg:04ec6-s4" d="M70.75,41c8.47,4.1,21.77,15.03,24,23.25"/>
	</g>
</g>
</g>
<g id="kvg:StrokeNumbers_04ec6">
	<text transform="matrix(1 0 0 1 31.50 15.50)">1</text>
	<text transform="matrix(1 0 0 1 28.50 54.50)">2</text>
	<text transform="matrix(1 0 0 1 56.50 14.50)">3</text>
	<text transform="matrix(1 0 0 1 73.50 39.50)">4</text>
</g>
</svg>
