<svg width="109" height="109" viewBox="0 0 109 109">
<g id="kvg:StrokePaths_04ee3">
<g id="kvg:04ee3">
	<g id="kvg:04ee3-g1">
		<path id="kvg:04ee3-s1" d="M29.76,22.5c0.21,1.94-0.06,4.48-0.74,6.15c-4.36,10.6-8.54,20.07-18.52,32.98"/>
		<path id="kvg:04ee3-s2" d="M24.38,45c1.25,1.25,1.76,3.12,1.76,4.48c0,10.42-0.02,28.67-0.02,39.27c0,2.64,0,4.8,0,6.25"/>
	</g>
	<g id="kvg:04ee3-g2">
		<path id="kvg:04ee3-s3" d="M39.49,44.11c2.64,0.64,5.3,0.4,7.92-0.19c7.24-1.62,22.53-6.21,33.48-8.44c2.26-0.46,4.98-0.86,7.31-0.31"/>
		<path id="kvg:04ee3-s4" d="M53.19,13.5c1.94,1.7,2.83,3.16,3.15,6.82C58.75,48.12,70,79.88,91.96,92.8c7.28,4.29,6.29,0.98,5.32-6.54"/>
		<g id="kvg:04ee3-g3">
			<path id="kvg:04ee3-s5" d="M71.75,15.38c3.44,1.47,8.94,4.82,10.55,7.33"/>
		</g>
	</g>
</g>
</g>
<g id="kvg:StrokeNumbers_04ee3">
	<text transform="matrix(1 0 0 1 21.75 23.50)">1</text>
	<text transform="matrix(1 0 0 1 18.75 61.50)">2</text>
	<text transform="matrix(1 0 0 1 38.50 41.50)">3</text>
	<text transform="matrix(1 0 0 1 44.50 14.50)">4</text>
	<text transform="matrix(1 0 0 1 65.50 13.50)">5</text>
</g>
</svg>
