<svg width="109" height="109" viewBox="0 0 109 109">
<g id="kvg:StrokePaths_04ee4">
<g id="kvg:04ee4">
	<g id="kvg:04ee4-g1">
		<path id="kvg:04ee4-s1" d="M49.62,13.25c0.11,0.94,0.38,2.48-0.22,3.77c-4.15,8.86-15.15,25.23-36.65,37.08"/>
		<path id="kvg:04ee4-s2" d="M50.54,16.55c6.13,4.35,24.99,20.22,33.98,27.33c3.22,2.54,5.6,4.12,9.73,5.37"/>
	</g>
	<g id="kvg:04ee4-g2">
		<g id="kvg:04ee4-g3">
			<path id="kvg:04ee4-s3" d="M47.27,45.33c3.54,1.52,9.16,6.26,10.04,8.63"/>
		</g>
		<g id="kvg:04ee4-g4">
			<path id="kvg:04ee4-s4" d="M29.08,65.79c1.35,0.83,4.19,1.22,5.72,1.01c3.03-0.41,35.42-5.69,38.62-6.1s4,1.47,1.71,3.66c-5.38,5.13-21.87,19.81-23.89,21.47"/>
			<path id="kvg:04ee4-s5" d="M41.59,81.4c6.16,3.22,13.66,8.47,17.12,15.6"/>
		</g>
	</g>
</g>
</g>
<g id="kvg:StrokeNumbers_04ee4">
	<text transform="matrix(1 0 0 1 42.50 15.13)">1</text>
	<text transform="matrix(1 0 0 1 58.50 19.63)">2</text>
	<text transform="matrix(1 0 0 1 44.50 42.50)">3</text>
	<text transform="matrix(1 0 0 1 21.50 65.50)">4</text>
	<text transform="matrix(1 0 0 1 33.50 82.50)">5</text>
</g>
</svg>
