<svg width="109" height="109" viewBox="0 0 109 109">
<g id="kvg:StrokePaths_04ee5">
<g id="kvg:04ee5">
	<g id="kvg:04ee5-g1">
		<path id="kvg:04ee5-s1" d="M20.87,27.5c1.09,0.5,2.28,1.72,2.46,3.25C25,45.12,27,61.75,28.25,70.5"/>
		<path id="kvg:04ee5-s2" d="M15.37,77.52c2.25,1.32,3.9,0.34,6.32-1.32c1.61-1.11,14.59-10.49,21.43-15.82"/>
		<g id="kvg:04ee5-g2">
			<path id="kvg:04ee5-s3" d="M43.62,23.12c4.3,4.16,11.11,17.12,12.18,23.59"/>
		</g>
	</g>
	<g id="kvg:04ee5-g3">
		<path id="kvg:04ee5-s4" d="M83.76,21.3c0.74,1.58,0.87,3.04,0.3,5.25C79.75,43.12,69.5,67.88,46.14,86.4"/>
		<path id="kvg:04ee5-s5" d="M71.52,61.33c8.04,4.26,20.78,17.51,22.79,24.13"/>
	</g>
</g>
</g>
<g id="kvg:StrokeNumbers_04ee5">
	<text transform="matrix(1 0 0 1 12.50 29.50)">1</text>
	<text transform="matrix(1 0 0 1 6.75 81.50)">2</text>
	<text transform="matrix(1 0 0 1 36.75 23.50)">3</text>
	<text transform="matrix(1 0 0 1 74.50 20.50)">4</text>
	<text transform="matrix(1 0 0 1 77.50 62.50)">5</text>
</g>
</svg>
