<svg width="109" height="109" viewBox="0 0 109 109">
<g id="kvg:StrokePaths_04ef6">
<g id="kvg:04ef6">
	<g id="kvg:04ef6-g1">
		<path id="kvg:04ef6-s1" d="M30.76,15.25c0.36,1.38,0.19,2.48-0.48,4.24C26,30.67,19.82,42.67,10,56.29"/>
		<path id="kvg:04ef6-s2" d="M24.03,37.25c0.86,0.86,1.25,1.97,1.25,3.37c0,11.19-0.02,34.43-0.03,47c0,3.18,0,5.68,0,7.12"/>
	</g>
	<g id="kvg:04ef6-g2">
		<path id="kvg:04ef6-s3" d="M51.13,20.62c0.13,0.84,0.01,2.32-0.32,3.11c-2.93,7.01-7.18,14.64-14.16,23.6"/>
		<path id="kvg:04ef6-s4" d="M47.43,38.11c1.44,0.27,2.76,0.21,3.65,0.13c10.88-1.04,23.17-3.23,34-5.31c1.45-0.28,3.92-0.55,5.35-0.13"/>
		<path id="kvg:04ef6-s5" d="M38.09,60.63c2.51,0.81,5.33,0.69,7.91,0.4c12.76-1.41,33.38-4.16,45.38-4.87c2.59-0.15,4.88-0.36,7.42,0.13"/>
		<path id="kvg:04ef6-s6" d="M67.16,11.88c1.17,1.17,1.87,2.87,1.87,4.7c0,0.76,0.01,52.96,0.01,73.04c0,3.49,0,6.01,0,7.12"/>
	</g>
</g>
</g>
<g id="kvg:StrokeNumbers_04ef6">
	<text transform="matrix(1 0 0 1 21.75 14.50)">1</text>
	<text transform="matrix(1 0 0 1 17.50 56.50)">2</text>
	<text transform="matrix(1 0 0 1 42.50 20.50)">3</text>
	<text transform="matrix(1 0 0 1 53.25 34.63)">4</text>
	<text transform="matrix(1 0 0 1 35.50 57.50)">5</text>
	<text transform="matrix(1 0 0 1 57.50 12.50)">6</text>
</g>
</svg>
