<svg width="109" height="109" viewBox="0 0 109 109">
<g id="kvg:StrokePaths_04f0f">
<g id="kvg:04f0f">
	<g id="kvg:04f0f-g1">
		<path id="kvg:04f0f-s1" d="M32.75,14.64c0.13,1.23,0.12,2.57-0.36,4.04C28.88,29.38,22,43.75,12.06,56.72"/>
		<path id="kvg:04f0f-s2" d="M25.03,40.5c0.92,0.92,1.26,2.12,1.26,3.73c0,10.5,0.06,32.2-0.01,44.52c-0.02,2.96-0.03,5.43-0.03,7.12"/>
	</g>
	<g id="kvg:04f0f-g2">
		<g id="kvg:04f0f-g3">
			<path id="kvg:04f0f-s3" d="M35.88,46.44c2.62,0.56,5.59,0.51,7.99,0.21c9.12-1.15,24.88-3.15,36.52-4.04c2.63-0.2,5.03-0.36,7.62,0.29"/>
			<path id="kvg:04f0f-s4" d="M59.27,14.75c1.05,1.05,1.21,2.25,1.29,4.36C61.62,49.25,57.62,81.38,34.75,96"/>
			<path id="kvg:04f0f-s5" d="M60.62,48.75c6.22,10.89,16.59,27.39,25.41,37.54c2.16,2.49,4.48,5.32,7.21,7.21"/>
		</g>
		<g id="kvg:04f0f-g4">
			<path id="kvg:04f0f-s6" d="M77.58,20.75c5.29,3.38,8.93,7.09,11.17,11"/>
		</g>
	</g>
</g>
</g>
<g id="kvg:StrokeNumbers_04f0f">
	<text transform="matrix(1 0 0 1 23.50 14.50)">1</text>
	<text transform="matrix(1 0 0 1 18.50 58.50)">2</text>
	<text transform="matrix(1 0 0 1 33.50 43.50)">3</text>
	<text transform="matrix(1 0 0 1 48.75 15.13)">4</text>
	<text transform="matrix(1 0 0 1 67.50 54.50)">5</text>
	<text transform="matrix(1 0 0 1 69.50 19.50)">6</text>
</g>
</svg>
