<svg width="109" height="109" viewBox="0 0 109 109">
<g id="kvg:StrokePaths_04f01">
<g id="kvg:04f01">
	<g id="kvg:04f01-g1">
		<path id="kvg:04f01-s1" d="M52,11.75c0.11,1.07-0.06,2.59-0.72,4.05C47,25.25,31.5,45.75,11.5,56.75"/>
		<path id="kvg:04f01-s2" d="M51.5,16c6.09,6.96,32.31,29.69,39.02,34.79c2.28,1.73,5.2,2.47,7.48,2.96"/>
	</g>
	<g id="kvg:04f01-g2">
		<g id="kvg:04f01-g3">
			<path id="kvg:04f01-s3" d="M53.12,44c0.88,1.25,1.29,3,1.29,4.72c0,8.03,0.05,35.78,0.05,40.65"/>
			<path id="kvg:04f01-s4" d="M55.67,65.36c6.5-0.51,11.6-1.71,18.44-2.05c1.59-0.08,1.99-0.17,2.98,0"/>
		</g>
		<path id="kvg:04f01-s5" d="M31.03,65.32c0.72,0.93,1.04,2.3,1.04,3.97c0,4.46,0.05,16.96,0.05,21.93"/>
		<path id="kvg:04f01-s6" d="M18.67,92.11c3.25,0.94,6.53,0.59,9.83,0.33c12.47-0.95,35.87-2.57,49-3.03c3.45-0.12,6.91-0.08,10.33,0.58"/>
	</g>
</g>
</g>
<g id="kvg:StrokeNumbers_04f01">
	<text transform="matrix(1 0 0 1 43.50 14.50)">1</text>
	<text transform="matrix(1 0 0 1 63.50 22.63)">2</text>
	<text transform="matrix(1 0 0 1 42.50 46.50)">3</text>
	<text transform="matrix(1 0 0 1 59.25 61.50)">4</text>
	<text transform="matrix(1 0 0 1 20.50 67.63)">5</text>
	<text transform="matrix(1 0 0 1 15.75 88.55)">6</text>
</g>
</svg>
