<svg width="109" height="109" viewBox="0 0 109 109">
<g id="kvg:StrokePaths_04f0e">
<g id="kvg:04f0e">
	<g id="kvg:04f0e-g1">
		<path id="kvg:04f0e-s1" d="M35.47,14.39c0.16,1.27,0.04,2.61-0.39,4.16C31.75,30.38,22.04,47.39,9.56,60.72"/>
		<path id="kvg:04f0e-s2" d="M24.78,43.75c0.98,0.98,1.26,2.12,1.26,3.98c0,10.43-0.03,29.67-0.04,41.51c0,2.94,0,5.4,0,7.14"/>
	</g>
	<g id="kvg:04f0e-g2">
		<g id="kvg:04f0e-g3">
			<path id="kvg:04f0e-s3" d="M39.35,33.03c2.77,0.85,5.78,0.66,8.28,0.27c12.58-1.96,23.12-3.42,34.86-4.36c2.71-0.22,5.58-0.2,8.22,0.49"/>
			<path id="kvg:04f0e-s4" d="M60.97,11.38c1.07,1.07,1.34,2.49,1.34,4.33c0,5.29,0.04,26.29,0.04,32.67"/>
		</g>
		<g id="kvg:04f0e-g4">
			<path id="kvg:04f0e-s5" d="M45.08,51.54c2.56,0.76,4.26,0.42,6.92-0.05c7.88-1.37,14.5-2.62,22.83-4.51c2.85-0.65,4.17,1.04,3.15,3.3c-8.74,19.46-22.61,35.58-43,45.46"/>
			<path id="kvg:04f0e-s6" d="M44.33,56.89c4.46,0.83,23.8,19.73,39.98,31.95c3.35,2.53,6.53,4.31,10.42,5.88"/>
		</g>
	</g>
</g>
</g>
<g id="kvg:StrokeNumbers_04f0e">
	<text transform="matrix(1 0 0 1 26.25 14.25)">1</text>
	<text transform="matrix(1 0 0 1 18.25 60.25)">2</text>
	<text transform="matrix(1 0 0 1 39.25 30.25)">3</text>
	<text transform="matrix(1 0 0 1 51.00 11.25)">4</text>
	<text transform="matrix(1 0 0 1 43.25 48.25)">5</text>
	<text transform="matrix(1 0 0 1 38.25 61.25)">6</text>
</g>
</svg>
