<svg width="109" height="109" viewBox="0 0 109 109">
<g id="kvg:StrokePaths_04f09">
<g id="kvg:04f09">
	<g id="kvg:04f09-g1">
		<path id="kvg:04f09-s1" d="M32.99,16.89c0.13,1.1,0.23,2.47-0.12,3.82c-2.21,8.51-10.76,24.97-21.07,36.51"/>
		<path id="kvg:04f09-s2" d="M26.01,41c0.63,0.66,0.81,2.11,0.81,3.46c0,13.96-0.31,43.03-0.31,52.41"/>
	</g>
	<g id="kvg:04f09-g2">
		<g id="kvg:04f09-g3">
			<path id="kvg:04f09-s3" d="M61.43,12.75c0.91,0.61,2.4,2.96,2.4,4.16c0,4.45-0.12,5.59-0.12,9.65"/>
			<path id="kvg:04f09-s4" d="M38.02,29.23c1.23,0.77,3.96,1.1,6.09,0.87c12.64-1.35,29.64-4.85,44.25-5.85c2.36-0.16,3.57,0.07,5.33,1.11"/>
		</g>
		<g id="kvg:04f09-g4">
			<g id="kvg:04f09-g5">
				<path id="kvg:04f09-s5" d="M52.57,42.5c0.41,0.91,0.91,3.06,0.96,4.78c0.1,3.68,0.11,3.48,0.05,10.33C53.43,75.35,46.51,89.1,39.5,93"/>
			</g>
			<path id="kvg:04f09-s6" d="M53.37,43.5c4.55-1,13.83-2.99,18.38-4.25c3.62-1,4.75,2.01,4.49,4.55c-0.99,9.95-0.96,33.64-0.96,39.2c0,10.75,3.46,11.53,10.29,11.53c7.92,0,10.31-2.28,10.31-9.12"/>
		</g>
	</g>
</g>
</g>
<g id="kvg:StrokeNumbers_04f09">
	<text transform="matrix(1 0 0 1 24.50 15.85)">1</text>
	<text transform="matrix(1 0 0 1 19.50 57.50)">2</text>
	<text transform="matrix(1 0 0 1 51.71 13.50)">3</text>
	<text transform="matrix(1 0 0 1 38.50 26.50)">4</text>
	<text transform="matrix(1 0 0 1 44.50 49.50)">5</text>
	<text transform="matrix(1 0 0 1 54.50 39.50)">6</text>
</g>
</svg>
