<svg width="109" height="109" viewBox="0 0 109 109">
<g id="kvg:StrokePaths_04f34">
<g id="kvg:04f34">
	<g id="kvg:04f34-g1">
		<path id="kvg:04f34-s1" d="M35.73,14.89c0.14,1.15,0,2.34-0.38,3.76c-2.39,8.93-11.65,26.46-22.8,38.57"/>
		<path id="kvg:04f34-s2" d="M28.53,37.75c0.92,0.92,1.26,1.97,1.26,3.23c0,10.64-0.03,32.78-0.04,45.03c0,2.74,0,5.02,0,6.62"/>
	</g>
	<g id="kvg:04f34-g2">
		<path id="kvg:04f34-s3" d="M47.5,23.5c2.97,2.26,7.67,9.28,8.41,12.79"/>
		<path id="kvg:04f34-s4" d="M91.18,19.63c0.08,1.03-0.04,1.45-0.56,2.38c-2.02,3.67-5.12,7.64-9.51,12.29"/>
		<g id="kvg:04f34-g3">
			<path id="kvg:04f34-s5" d="M47.71,46.93c2.13,0.7,4.74,0.66,6.89,0.29c7.9-1.35,20.65-2.85,31.02-3.85c2.09-0.2,4.17-0.19,6.24,0.22"/>
		</g>
		<g id="kvg:04f34-g4">
			<g id="kvg:04f34-g5">
				<path id="kvg:04f34-s6" d="M39.56,65.64c2.64,0.76,5.75,0.58,8.45,0.23c10.93-1.41,28.49-3.37,42.86-3.97c2.71-0.11,5.15-0.12,7.81,0.34"/>
			</g>
			<path id="kvg:04f34-s7" d="M68.6,10.75c1.2,1.2,1.5,2.62,1.5,4.08c0,0.87-0.09,67.42-0.09,73.42c0,4.59-0.01,7.92-0.01,9.25"/>
		</g>
	</g>
</g>
</g>
<g id="kvg:StrokeNumbers_04f34">
	<text transform="matrix(1 0 0 1 27.50 15.50)">1</text>
	<text transform="matrix(1 0 0 1 22.50 55.50)">2</text>
	<text transform="matrix(1 0 0 1 44.50 20.50)">3</text>
	<text transform="matrix(1 0 0 1 82.50 19.50)">4</text>
	<text transform="matrix(1 0 0 1 40.50 47.50)">5</text>
	<text transform="matrix(1 0 0 1 37.50 62.50)">6</text>
	<text transform="matrix(1 0 0 1 60.75 10.63)">7</text>
</g>
</svg>
