<svg width="109" height="109" viewBox="0 0 109 109">
<g id="kvg:StrokePaths_04f46">
<g id="kvg:04f46">
	<g id="kvg:04f46-g1">
		<path id="kvg:04f46-s1" d="M33.24,16.14c0.14,1.18,0.24,2.4-0.12,3.85c-2.29,9.15-11.39,26.83-22.06,39.22"/>
		<path id="kvg:04f46-s2" d="M26.28,40.75c0.98,0.98,1.26,2.5,1.26,4.48c0,10.24-0.03,29-0.04,41.02c0,3.27,0,6,0,7.88"/>
	</g>
	<g id="kvg:04f46-g2">
		<g id="kvg:04f46-g3">
			<path id="kvg:04f46-s3" d="M49.23,23.92c0.93,0.93,1.16,2.18,1.16,3.67c0,0.67,0,32.04,0,39.16c0,1.88,0,3.62,0,6.06"/>
			<path id="kvg:04f46-s4" d="M51.35,25.86c6.19-0.71,22.9-2.38,28.66-2.93c3.33-0.32,5.69,0.44,5.69,4.21c0,6.12,0.08,28.5-0.03,39.43c-0.03,3.49-0.05,5.82-0.05,6.07"/>
			<path id="kvg:04f46-s5" d="M51.43,47.22C61,46.5,77,45.12,84.68,44.86"/>
			<path id="kvg:04f46-s6" d="M51.35,70.01c8.9-0.64,23.15-2.14,33.2-2.49"/>
		</g>
		<g id="kvg:04f46-g4">
			<path id="kvg:04f46-s7" d="M40.13,89.54c2.87,0.71,5.78,0.77,8.25,0.54c11.49-1.09,30.42-2.54,41.5-2.8c2.33-0.06,4.98,0.09,7.25,0.66"/>
		</g>
	</g>
</g>
</g>
<g id="kvg:StrokeNumbers_04f46">
	<text transform="matrix(1 0 0 1 25.50 15.50)">1</text>
	<text transform="matrix(1 0 0 1 20.50 57.50)">2</text>
	<text transform="matrix(1 0 0 1 42.75 33.13)">3</text>
	<text transform="matrix(1 0 0 1 53.25 21.13)">4</text>
	<text transform="matrix(1 0 0 1 54.50 43.55)">5</text>
	<text transform="matrix(1 0 0 1 54.36 66.50)">6</text>
	<text transform="matrix(1 0 0 1 39.50 86.50)">7</text>
</g>
</svg>
