<svg width="109" height="109" viewBox="0 0 109 109">
<g id="kvg:StrokePaths_04f5d">
<g id="kvg:04f5d">
	<g id="kvg:04f5d-g1">
		<path id="kvg:04f5d-s1" d="M32.49,16.89c0.13,1.14,0.24,2.58-0.12,3.98c-2.26,8.88-11.02,26.05-21.56,38.09"/>
		<path id="kvg:04f5d-s2" d="M26.53,41.5c0.59,0.61,0.76,1.97,0.76,3.23c0,13.02-0.29,41.15-0.29,49.9"/>
	</g>
	<g id="kvg:04f5d-g2">
		<g id="kvg:04f5d-g3">
			<g id="kvg:04f5d-g4">
				<path id="kvg:04f5d-s3" d="M53.96,13.35c0.05,0.79,0.1,2.04-0.1,3.18c-1.17,6.7-7.92,21.4-17.15,30.39"/>
			</g>
			<path id="kvg:04f5d-s4" d="M52.15,29.85c0.91,0.69,3.19,0.91,4.65,0.46c1.46-0.46,27.78-3.79,31.4-4.4c2.74-0.46,3.84,1.59,3.83,4.8C92,46.5,88.25,74.25,81.82,91.88c-2.04,5.6-5.82,3.38-8.84-1.14"/>
		</g>
		<g id="kvg:04f5d-g5">
			<path id="kvg:04f5d-s5" d="M43.86,50.4c0.31,0.31,1.12,2.08,1.26,2.47c1.07,3.12,2.58,18.52,3.31,24.12"/>
			<path id="kvg:04f5d-s6" d="M45.05,52.65c7.94-1.76,16.3-3,20.59-3.47c1.56-0.17,2.6,0.81,2.28,2.41c-0.83,4.17-2.66,14.66-3.89,21.39"/>
			<path id="kvg:04f5d-s7" d="M48.73,74.85c5.03-0.53,10.83-0.94,17.73-1.75"/>
		</g>
	</g>
</g>
</g>
<g id="kvg:StrokeNumbers_04f5d">
	<text transform="matrix(1 0 0 1 23.50 16.50)">1</text>
	<text transform="matrix(1 0 0 1 20.50 56.50)">2</text>
	<text transform="matrix(1 0 0 1 45.50 13.50)">3</text>
	<text transform="matrix(1 0 0 1 57.50 26.50)">4</text>
	<text transform="matrix(1 0 0 1 37.50 59.50)">5</text>
	<text transform="matrix(1 0 0 1 47.50 48.50)">6</text>
	<text transform="matrix(1 0 0 1 52.50 71.50)">7</text>
</g>
</svg>
