<svg width="109" height="109" viewBox="0 0 109 109">
<g id="kvg:StrokePaths_04f69">
<g id="kvg:04f69">
	<g id="kvg:04f69-g1">
		<path id="kvg:04f69-s1" d="M32.49,18.39c0.14,1.08,0.24,2.44-0.12,3.77c-2.34,8.41-11.39,24.66-22.3,36.06"/>
		<path id="kvg:04f69-s2" d="M24.49,44.5c0.66,0.68,0.84,2.19,0.84,3.58c0,14.46-0.32,35.58-0.32,45.29"/>
	</g>
	<g id="kvg:04f69-g2">
		<g id="kvg:04f69-g3">
			<g id="kvg:04f69-g4">
				<path id="kvg:04f69-s3" d="M42.43,22.5c0.37,1.84,0.9,3.28,0.9,5.58c0,20.96,0.89,47.38-11.08,61.97"/>
			</g>
			<path id="kvg:04f69-s4" d="M43.21,23.91c8.93-1.65,34.82-4.41,38.06-4.41s4.73,0.88,4.46,4.47c-1.42,19.06-3.23,45.28,7.99,61.46c7.72,11.12,5.27,5.09,4.87-4.32"/>
		</g>
		<path id="kvg:04f69-s5" d="M50.25,35.45c0.73,0.34,2.07,0.38,2.81,0.34c4.44-0.29,17.61-3.3,22.13-2.91c1.22,0.1,1.95,0.16,2.56,0.33"/>
		<g id="kvg:04f69-g5">
			<path id="kvg:04f69-s6" d="M51.44,49.1c0.3,0.34,0.94,2.55,1,3.23c0.06,0.68-0.04,20.38-0.1,24.63"/>
			<path id="kvg:04f69-s7" d="M52.3,50.32c1.88-0.24,21.2-2.96,22.61-3.08c2.82-0.23,2.82,2.05,2.76,3.61c-0.3,7.81-0.41,15.11-1.37,22.77c-0.69,5.51-4.05,0.9-5.3-1.14"/>
			<path id="kvg:04f69-s8" d="M62.77,36.6c0.3,0.34,0.94,2.55,1,3.23c0.06,0.68-0.04,50.3-0.1,54.56"/>
		</g>
	</g>
</g>
</g>
<g id="kvg:StrokeNumbers_04f69">
	<text transform="matrix(1 0 0 1 24.50 18.50)">1</text>
	<text transform="matrix(1 0 0 1 17.50 59.50)">2</text>
	<text transform="matrix(1 0 0 1 36.50 32.50)">3</text>
	<text transform="matrix(1 0 0 1 46.50 20.50)">4</text>
	<text transform="matrix(1 0 0 1 49.50 32.50)">5</text>
	<text transform="matrix(1 0 0 1 46.50 58.50)">6</text>
	<text transform="matrix(1 0 0 1 54.50 47.50)">7</text>
	<text transform="matrix(1 0 0 1 67.50 42.50)">8</text>
</g>
</svg>
