<svg width="109" height="109" viewBox="0 0 109 109">
<g id="kvg:StrokePaths_04f75">
<g id="kvg:04f75">
	<g id="kvg:04f75-g1">
		<path id="kvg:04f75-s1" d="M33.74,18.89c0.14,1.05-0.17,2.15-0.62,3.42C30,31.12,21.73,46.11,11.06,57.22"/>
		<path id="kvg:04f75-s2" d="M25.78,41.25c1.17,1.17,1.51,2.5,1.51,4.38c0,10.65,0.06,30.76-0.01,42.12c-0.02,3.15-0.03,5.79-0.03,7.62"/>
	</g>
	<g id="kvg:04f75-g2">
		<g id="kvg:04f75-g3">
			<path id="kvg:04f75-s3" d="M47.71,19.09c2.99,2.15,7.73,8.85,8.48,12.21"/>
			<path id="kvg:04f75-s4" d="M84.3,13.39c0.08,0.87-0.04,1.7-0.36,2.51c-1.57,3.35-4.34,7.81-8.48,12.46"/>
		</g>
		<g id="kvg:04f75-g4">
			<g id="kvg:04f75-g5">
				<path id="kvg:04f75-s5" d="M43.2,39.49c2.67,0.64,4.85,0.44,7.06,0.13c8.46-1.17,24.39-4.04,34.11-4.68c2.37-0.16,4.79-0.3,7.1,0.36"/>
				<g id="kvg:04f75-g6">
					<path id="kvg:04f75-s6" d="M40.75,60.45c2.88,0.67,5.48,0.28,8.01,0c11.83-1.31,26.67-3.27,39.37-4.15c2.7-0.19,5.71-0.67,8.37,0.09"/>
				</g>
			</g>
			<path id="kvg:04f75-s7" d="M56.42,42.43c0.88,0.88,1.11,2.14,1.11,3.99c0,16.89,1.59,37.58-14.44,49.91"/>
			<g id="kvg:04f75-g7">
				<g id="kvg:04f75-g8">
					<path id="kvg:04f75-s8" d="M78.16,39.48c0.93,0.93,1.01,2.02,1.01,3.51c0,0.69,0.13,30.79,0.03,45.75c-0.03,3.71-0.05,6.44-0.08,7.5"/>
				</g>
			</g>
		</g>
	</g>
</g>
</g>
<g id="kvg:StrokeNumbers_04f75">
	<text transform="matrix(1 0 0 1 25.50 19.50)">1</text>
	<text transform="matrix(1 0 0 1 20.25 58.55)">2</text>
	<text transform="matrix(1 0 0 1 40.50 18.13)">3</text>
	<text transform="matrix(1 0 0 1 75.75 13.50)">4</text>
	<text transform="matrix(1 0 0 1 36.75 39.13)">5</text>
	<text transform="matrix(1 0 0 1 39.50 57.13)">6</text>
	<text transform="matrix(1 0 0 1 49.50 50.50)">7</text>
	<text transform="matrix(1 0 0 1 70.50 46.63)">8</text>
</g>
</svg>
