<svg width="109" height="109" viewBox="0 0 109 109">
<g id="kvg:StrokePaths_04fad">
<g id="kvg:04fad">
	<g id="kvg:04fad-g1">
		<path id="kvg:04fad-s1" d="M32.99,11.89c0.14,1.21,0.24,2.73-0.13,4.22c-2.34,9.41-11.39,27.6-22.3,40.36"/>
		<path id="kvg:04fad-s2" d="M24.5,40.5c0.65,0.67,0.83,2.16,0.83,3.54c0,14.27-0.32,44-0.32,53.59"/>
	</g>
	<g id="kvg:04fad-g2">
		<g id="kvg:04fad-g3">
			<g id="kvg:04fad-g4">
				<path id="kvg:04fad-s3" d="M43.45,18.88c1.46,0.66,4.29,1.25,5.84,1.12c8.36-0.74,29.69-3.96,33.03-4.35c2.87-0.34,3.8,1.68,3.36,3.62C84.7,23.5,83.25,28,80.82,36.22"/>
				<path id="kvg:04fad-s4" d="M46.97,39.61c4.19-0.22,33.42-3.46,37.8-3.68"/>
				<g id="kvg:04fad-g5">
					<path id="kvg:04fad-s5" d="M46.01,19.86c0.49,5.39,0.72,11.14,0.56,22.18C46.25,64.5,43.5,80.25,33.5,93.16"/>
				</g>
			</g>
			<g id="kvg:04fad-g6">
				<path id="kvg:04fad-s6" d="M65.18,38.5c5.57,14.25,18.57,38.25,26.49,48.61c1.74,2.28,3.53,3.45,5.08,4.14"/>
			</g>
		</g>
		<g id="kvg:04fad-g7">
			<g id="kvg:04fad-g8">
				<path id="kvg:04fad-s7" d="M56.52,61.58c4.16,1.52,10.75,6.26,11.79,8.63"/>
			</g>
			<g id="kvg:04fad-g9">
				<path id="kvg:04fad-s8" d="M54.77,81.08c6.1,2.01,15.77,8.26,17.29,11.38"/>
			</g>
		</g>
	</g>
</g>
</g>
<g id="kvg:StrokeNumbers_04fad">
	<text transform="matrix(1 0 0 1 24.50 11.50)">1</text>
	<text transform="matrix(1 0 0 1 18.50 56.50)">2</text>
	<text transform="matrix(1 0 0 1 50.50 16.50)">3</text>
	<text transform="matrix(1 0 0 1 51.50 35.50)">4</text>
	<text transform="matrix(1 0 0 1 38.50 26.50)">5</text>
	<text transform="matrix(1 0 0 1 60.50 48.50)">6</text>
	<text transform="matrix(1 0 0 1 52.50 59.50)">7</text>
	<text transform="matrix(1 0 0 1 51.50 78.50)">8</text>
</g>
</svg>
