<svg width="109" height="109" viewBox="0 0 109 109">
<g id="kvg:StrokePaths_04fce">
<g id="kvg:04fce">
	<g id="kvg:04fce-g1">
		<g id="kvg:04fce-g2">
			<path id="kvg:04fce-s1" d="M34.25,19.49c0,0.76,0.05,1.36-0.14,2.28c-0.97,4.75-10.22,20.58-18.14,27.61"/>
			<path id="kvg:04fce-s2" d="M31.89,33.21c4.47,2.07,10.18,7.57,12.36,12.79"/>
		</g>
		<g id="kvg:04fce-g3">
			<path id="kvg:04fce-s3" d="M34.25,54.49c0,0.96,0.06,1.72-0.17,2.87c-1.16,5.98-12.18,25.92-21.61,34.77"/>
			<path id="kvg:04fce-s4" d="M31.39,69.96C36.4,72.4,42.81,78.87,45.25,85"/>
		</g>
	</g>
	<g id="kvg:04fce-g4">
		<g id="kvg:04fce-g5">
			<path id="kvg:04fce-s5" d="M52.46,19.59c0.59,1.03,0.98,2.05,1.18,3.06c0.2,1.01,0.43,70.08,0.36,72.31"/>
			<path id="kvg:04fce-s6" d="M54.8,20.73c2.27-0.1,23.12-2.98,24.81-3.16c3.03-0.31,4.18,3.51,3.81,4.98c-0.36,1.41-0.18,49.21-0.29,69.39"/>
			<path id="kvg:04fce-s7" d="M54.88,43.9c7.76-1,20.45-2.44,27.27-2.75"/>
			<path id="kvg:04fce-s8" d="M55.34,66.86c6.06-0.36,17.91-2.11,26.33-2.81"/>
		</g>
		<g id="kvg:04fce-g6">
			<path id="kvg:04fce-s9" d="M33.04,96.46c1.4,0.52,3.98,0.6,5.38,0.52c14.61-0.87,41.59-3.48,56.29-3.48c2.34,0,3.74,0.25,4.91,0.51"/>
		</g>
	</g>
</g>
</g>
<g id="kvg:StrokeNumbers_04fce">
	<text transform="matrix(1 0 0 1 26.25 18.63)">1</text>
	<text transform="matrix(1 0 0 1 37.50 33.50)">2</text>
	<text transform="matrix(1 0 0 1 25.50 55.48)">3</text>
	<text transform="matrix(1 0 0 1 37.50 71.50)">4</text>
	<text transform="matrix(1 0 0 1 46.50 27.33)">5</text>
	<text transform="matrix(1 0 0 1 56.50 17.50)">6</text>
	<text transform="matrix(1 0 0 1 58.50 40.50)">7</text>
	<text transform="matrix(1 0 0 1 58.46 63.50)">8</text>
	<text transform="matrix(1 0 0 1 32.50 93.50)">9</text>
</g>
</svg>
