<svg width="109" height="109" viewBox="0 0 109 109">
<g id="kvg:StrokePaths_04ff6">
<g id="kvg:04ff6">
	<g id="kvg:04ff6-g1">
		<path id="kvg:04ff6-s1" d="M30.5,17.89c0.12,1.14,0.21,2.58-0.11,3.98c-2.06,8.88-10,26.05-19.58,38.09"/>
		<path id="kvg:04ff6-s2" d="M23.49,45c0.66,0.68,0.84,2.19,0.84,3.58c0,14.46-0.32,38.08-0.32,47.79"/>
	</g>
	<g id="kvg:04ff6-g2">
		<g id="kvg:04ff6-g3">
			<g id="kvg:04ff6-g4">
				<g id="kvg:04ff6-g5">
					<path id="kvg:04ff6-s3" d="M45.33,13.88c0.66,0.43,2.07,3.18,2.2,4.04c0.13,0.85-0.09,24.15-0.22,29.47"/>
					<path id="kvg:04ff6-s4" d="M47.92,31.27c1.76,0,4.97-0.93,10.1-1.64c1.84-0.25,2.64-0.23,3.74-0.18"/>
				</g>
				<g id="kvg:04ff6-g6">
					<path id="kvg:04ff6-s5" d="M30.41,49.05c2.15,0.72,3.19,0.72,5,0.6c6.8-0.45,17.46-3.01,25.76-3.71c1.04-0.09,3.15-0.33,4.27,0.07"/>
				</g>
			</g>
			<g id="kvg:04ff6-g7">
				<path id="kvg:04ff6-s6" d="M47.21,50.53c0.07,0.41,1.07,2.12,1.07,4.71c0,13.52-0.22,29.57-0.22,33.8c0,9.59-6.14,1.28-7.42,0.21"/>
				<path id="kvg:04ff6-s7" d="M38.82,62.79c0.03,0.51,0.05,1.31-0.05,2.04c-0.63,4.31-4.25,13.76-9.2,19.55"/>
				<path id="kvg:04ff6-s8" d="M56.28,61.61c2.25,2.78,5.82,11.42,6.38,15.75"/>
			</g>
		</g>
		<g id="kvg:04ff6-g8">
			<path id="kvg:04ff6-s9" d="M67.51,29.51c1.39,0.46,1.52,0.93,4.35,0.46c3.76-0.63,15.52-3.61,17.49-4.07c2.22-0.52,4.37,1.44,3.67,3.95c-8.17,29.62-14.77,46.91-33.75,64.91"/>
			<path id="kvg:04ff6-s10" d="M67.66,37.54C70,44.5,83.69,75.85,92.71,88.44c1.64,2.29,3.91,4.89,5.44,5.65"/>
		</g>
	</g>
</g>
</g>
<g id="kvg:StrokeNumbers_04ff6">
	<text transform="matrix(1 0 0 1 21.50 16.50)">1</text>
	<text transform="matrix(1 0 0 1 16.50 62.50)">2</text>
	<text transform="matrix(1 0 0 1 36.50 12.50)">3</text>
	<text transform="matrix(1 0 0 1 51.50 27.50)">4</text>
	<text transform="matrix(1 0 0 1 28.50 46.50)">5</text>
	<text transform="matrix(1 0 0 1 39.50 58.50)">6</text>
	<text transform="matrix(1 0 0 1 31.50 61.50)">7</text>
	<text transform="matrix(1 0 0 1 53.50 58.50)">8</text>
	<text transform="matrix(1 0 0 1 66.50 26.50)">9</text>
	<text transform="matrix(1 0 0 1 69.50 41.50)">10</text>
</g>
</svg>
