<svg width="109" height="109" viewBox="0 0 109 109">
<g id="kvg:StrokePaths_05016">
<g id="kvg:05016">
	<g id="kvg:05016-g1">
		<path id="kvg:05016-s1" d="M37.15,10.75c0.16,1.25,0.29,2.82-0.15,4.36c-2.76,9.73-13.41,29.03-26.26,42.21"/>
		<path id="kvg:05016-s2" d="M26.23,40.61c0.96,0.96,1.01,2.47,1.01,3.73c0,10.57-0.03,31.57-0.04,43.79c0,2.84,0,5.21,0,6.86"/>
	</g>
	<g id="kvg:05016-g2">
		<g id="kvg:05016-g3">
			<g id="kvg:05016-g4">
				<path id="kvg:05016-s3" d="M47.51,22.8c2.36,0.45,4.71,0.25,6.87-0.02c8.88-1.09,16.2-2.36,25.13-2.84c2.24-0.12,4.48-0.33,6.68,0.23"/>
				<path id="kvg:05016-s4" d="M63.67,9.25c0.91,0.91,1.27,2.02,1.27,3.89c0,12.11-0.07,19.82-0.07,22.86"/>
				<path id="kvg:05016-s5" d="M37.63,38.36c2.83,1.09,6.59,0.58,9.5,0.27c11.75-1.25,25.66-2.85,38.13-3.56c3.14-0.18,6.29-0.08,9.38,0.64"/>
			</g>
			<path id="kvg:05016-s6" d="M50.25,44c1.72,1.98,4.45,8.14,4.88,11.22"/>
			<path id="kvg:05016-s7" d="M79.85,40.14c0.06,0.81-0.03,1.6-0.26,2.38c-0.74,2.74-2.74,6.48-5.75,11.2"/>
		</g>
		<g id="kvg:05016-g5">
			<path id="kvg:05016-s8" d="M36.46,58.98c2.92,0.77,6.23,0.58,8.67,0.31C55.75,58.12,73,56.25,87.75,55.6c2.7-0.12,5.43,0.07,8.07,0.85"/>
			<g id="kvg:05016-g6">
				<path id="kvg:05016-s9" d="M38.13,74.9c2.8,0.96,6,0.38,8.85,0.09c10.17-1.03,29.13-2.87,39.54-3.42c2.58-0.13,5.09-0.2,7.63,0.32"/>
				<path id="kvg:05016-s10" d="M64.81,59.25c1.03,1.04,1.04,2.25,1.04,3.58c0,0.79-0.05,16.52-0.08,26.54c-0.01,2.97-0.01,5.45-0.01,6.88"/>
			</g>
		</g>
	</g>
</g>
</g>
<g id="kvg:StrokeNumbers_05016">
	<text transform="matrix(1 0 0 1 28.25 10.25)">1</text>
	<text transform="matrix(1 0 0 1 20.25 57.25)">2</text>
	<text transform="matrix(1 0 0 1 45.25 20.25)">3</text>
	<text transform="matrix(1 0 0 1 55.25 8.25)">4</text>
	<text transform="matrix(1 0 0 1 36.25 35.25)">5</text>
	<text transform="matrix(1 0 0 1 42.19 48.25)">6</text>
	<text transform="matrix(1 0 0 1 71.25 44.97)">7</text>
	<text transform="matrix(1 0 0 1 35.25 56.25)">8</text>
	<text transform="matrix(1 0 0 1 36.25 72.25)">9</text>
	<text transform="matrix(1 0 0 1 55.25 67.75)">10</text>
</g>
</svg>
