<svg width="109" height="109" viewBox="0 0 109 109">
<g id="kvg:StrokePaths_05048">
<g id="kvg:05048">
	<g id="kvg:05048-g1">
		<path id="kvg:05048-s1" d="M32.93,13.5c0.14,1.22,0.24,2.76-0.12,4.27C30.52,27.28,21.67,45.68,11,58.57"/>
		<path id="kvg:05048-s2" d="M22.98,44.61c0.59,0.61,0.76,1.97,0.76,3.23c0,13.02-0.29,38.15-0.29,46.9"/>
	</g>
	<g id="kvg:05048-g2">
		<g id="kvg:05048-g3">
			<path id="kvg:05048-s3" d="M44.79,13.14c0.3,0.52,0.31,0.89,0.48,1.55c1.37,5.43,2.85,19.64,3.7,29.77"/>
			<path id="kvg:05048-s4" d="M45.77,15.44c9.38-1.16,26.83-3.4,35.51-4.15c2.58-0.22,3.1,2.05,2.96,3.32c-0.48,4.65-3.58,20.47-4.75,28.24"/>
			<path id="kvg:05048-s5" d="M47.73,28.3c5.38-0.41,31.37-2.78,34.09-2.9"/>
			<path id="kvg:05048-s6" d="M49.02,41.86c9.57-0.53,21.25-1.62,30.86-1.86"/>
		</g>
		<g id="kvg:05048-g4">
			<g id="kvg:05048-g5">
				<g id="kvg:05048-g6">
					<path id="kvg:05048-s7" d="M51.8,46.73c0.06,0.53,0.27,1.39-0.11,2.11C48.8,54.22,42.24,62.11,31.25,69"/>
				</g>
				<path id="kvg:05048-s8" d="M51.73,56.15c1.04,0.5,2.49,0.67,4.14,0.33c1.66-0.33,30.86-3.59,34.99-3.99c2.56-0.25,4.35,1.32,3.91,4.84c-1.52,12.16-5.1,25.39-11.71,36.76c-2.56,4.4-4.81,4.15-7.52-0.83"/>
			</g>
			<g id="kvg:05048-g7">
				<path id="kvg:05048-s9" d="M62.95,59.12c0.29,0.32-0.04,2.02-0.24,2.65C60.7,68,58.69,73.25,51.48,80.75"/>
				<path id="kvg:05048-s10" d="M60.96,68.29c4.3,1.78,9.78,6.51,11.88,11"/>
			</g>
			<path id="kvg:05048-s11" d="M42.1,65.51c0.76,0.46,1.21,2.07,1.36,2.99c0.14,0.83-0.53,7.72-0.53,15.87c0,1.88,0.62,3.07,2.69,2.86c4.83-0.49,20.31-2.24,28.77-2.87c1.84-0.14,3.32,0.38,4.23,0.38"/>
		</g>
	</g>
</g>
</g>
<g id="kvg:StrokeNumbers_05048">
	<text transform="matrix(1 0 0 1 24.50 12.50)">1</text>
	<text transform="matrix(1 0 0 1 16.66 60.50)">2</text>
	<text transform="matrix(1 0 0 1 39.00 22.98)">3</text>
	<text transform="matrix(1 0 0 1 48.50 11.50)">4</text>
	<text transform="matrix(1 0 0 1 51.50 24.33)">5</text>
	<text transform="matrix(1 0 0 1 52.50 38.50)">6</text>
	<text transform="matrix(1 0 0 1 43.50 52.93)">7</text>
	<text transform="matrix(1 0 0 1 57.50 53.50)">8</text>
	<text transform="matrix(1 0 0 1 54.50 66.50)">9</text>
	<text transform="matrix(1 0 0 1 66.50 69.95)">10</text>
	<text transform="matrix(1 0 0 1 33.50 76.50)">11</text>
</g>
</svg>
