<svg width="109" height="109" viewBox="0 0 109 109">
<g id="kvg:StrokePaths_0509a">
<g id="kvg:0509a">
	<g id="kvg:0509a-g1">
		<path id="kvg:0509a-s1" d="M26.47,15c0.1,1.03,0.17,2.33-0.09,3.6c-1.64,8.04-7.98,23.58-15.63,34.47"/>
		<path id="kvg:0509a-s2" d="M21.48,38.11c0.59,0.61,0.76,1.97,0.76,3.23c0,13.02-0.29,43.65-0.29,52.4"/>
	</g>
	<g id="kvg:0509a-g2">
		<g id="kvg:0509a-g3">
			<g id="kvg:0509a-g4">
				<path id="kvg:0509a-s3" d="M48.05,15c0.56,0.47,1.48,2.25,1.48,3.18c0,3.65-0.02,8.67-0.08,11.3"/>
				<path id="kvg:0509a-s4" d="M29.99,31.64c1.08,0.08,3.53,0.54,4.58,0.41c8.68-1.06,17.93-3.31,25.39-4.25c1.76-0.22,2.68,0.04,4,0.53"/>
			</g>
			<g id="kvg:0509a-g5">
				<path id="kvg:0509a-s5" d="M41.33,39.27c0.23,0.64-0.01,2.15-0.56,3.2c-2.18,4.16-6.11,8.67-10.55,12.31"/>
				<path id="kvg:0509a-s6" d="M51.77,36.43c4.25,3.48,7.76,7.5,9.89,11.73"/>
				<path id="kvg:0509a-s7" d="M52.72,50.51c0.3,0.88,0.41,2.45-0.09,4.03c-4.68,14.74-13.08,27.73-23.36,35.69"/>
				<path id="kvg:0509a-s8" d="M36.93,58.42c6.09,2.59,14.4,12.89,19.58,23.22"/>
			</g>
		</g>
		<g id="kvg:0509a-g6">
			<g id="kvg:0509a-g7">
				<path id="kvg:0509a-s9" d="M73.64,15.61c0.02,0.64,0.11,1.68-0.04,2.57c-1.11,6.47-3.59,17.42-7.41,25.22"/>
				<path id="kvg:0509a-s10" d="M71.81,35.22c1.45,0.48,2.65,0.55,3.43,0.43c4.26-0.66,11.76-3.41,18.15-5c0.96-0.24,2.79-0.23,3.61,0.13"/>
			</g>
			<g id="kvg:0509a-g8">
				<g id="kvg:0509a-g9">
					<path id="kvg:0509a-s11" d="M83.53,38.09c0.46,1.31,0.71,2.24,0.23,4.63c-4.36,21.72-11.87,40.24-28.65,49.52"/>
				</g>
				<path id="kvg:0509a-s12" d="M67.14,51.67c5.61,11.08,17.64,28.28,25.93,37.41c1.53,1.68,3.15,2.8,4.43,2.97"/>
			</g>
		</g>
	</g>
</g>
</g>
<g id="kvg:StrokeNumbers_0509a">
	<text transform="matrix(1 0 0 1 18.50 15.50)">1</text>
	<text transform="matrix(1 0 0 1 15.50 56.50)">2</text>
	<text transform="matrix(1 0 0 1 38.50 15.50)">3</text>
	<text transform="matrix(1 0 0 1 29.50 28.50)">4</text>
	<text transform="matrix(1 0 0 1 33.50 41.50)">5</text>
	<text transform="matrix(1 0 0 1 48.50 44.50)">6</text>
	<text transform="matrix(1 0 0 1 45.50 53.50)">7</text>
	<text transform="matrix(1 0 0 1 32.50 66.50)">8</text>
	<text transform="matrix(1 0 0 1 64.50 14.50)">9</text>
	<text transform="matrix(1 0 0 1 75.50 31.50)">10</text>
	<text transform="matrix(1 0 0 1 73.25 44.50)">11</text>
	<text transform="matrix(1 0 0 1 68.50 53.50)">12</text>
</g>
</svg>
