<svg width="109" height="109" viewBox="0 0 109 109">
<g id="kvg:StrokePaths_0513f">
<g id="kvg:0513f">
	<g id="kvg:0513f-g1">
		<g id="kvg:0513f-g2">
			<path id="kvg:0513f-s1" d="M41.32,15.75c0.83,2.23,1.43,5.46,1.43,8.25c0,25.45,3.99,60.65-24.25,73.75"/>
		</g>
		<g id="kvg:0513f-g3">
			<path id="kvg:0513f-s2" d="M63.25,13.25c0.65,1.21,1.3,3.02,1.52,4.63c0.22,1.61-0.65,60.3,0.22,65.13c0.87,4.84,1.52,10.49,4.99,10.89c3.47,0.4,21.78,1.27,24.08-2.28C95.75,89,96,86.07,96,81.62"/>
		</g>
	</g>
</g>
</g>
<g id="kvg:StrokeNumbers_0513f">
	<text transform="matrix(1 0 0 1 31.75 14.13)">1</text>
	<text transform="matrix(1 0 0 1 53.75 11.63)">2</text>
</g>
</svg>
