<svg width="109" height="109" viewBox="0 0 109 109">
<g id="kvg:StrokePaths_05143">
<g id="kvg:05143">
	<g id="kvg:05143-g1">
		<path id="kvg:05143-s1" d="M28.59,21.36c1.78,0.33,5.04,0.48,6.82,0.33c10.84-0.94,21.52-2.57,32.08-3.03c2.96-0.13,4.75,0.16,6.23,0.32"/>
		<path id="kvg:05143-s2" d="M16.13,44.06c2.16,0.47,5.88,0.62,8.04,0.47c18.08-1.27,36.71-3.9,56.39-4.5c3.6-0.11,5.77,0.22,7.57,0.46"/>
	</g>
	<g id="kvg:05143-g2">
		<g id="kvg:05143-g3">
			<path id="kvg:05143-s3" d="M41.29,46.69c0.59,1.18,0.74,2.97,0.36,4.44c-2.9,11.36-8.78,27.99-25.4,41.36"/>
		</g>
		<path id="kvg:05143-s4" d="M56.7,44.12c1.53,1.53,2,3.11,2,5.66c0,9.59,0.01,19.49,0.01,27.97c0,14.38,1.03,15.62,18.28,15.62c14.88,0,16.14-1.12,16.14-12.69"/>
	</g>
</g>
</g>
<g id="kvg:StrokeNumbers_05143">
	<text transform="matrix(1 0 0 1 20.25 21.13)">1</text>
	<text transform="matrix(1 0 0 1 8.25 45.13)">2</text>
	<text transform="matrix(1 0 0 1 32.25 54.13)">3</text>
	<text transform="matrix(1 0 0 1 50.25 54.13)">4</text>
</g>
</svg>
