<svg width="109" height="109" viewBox="0 0 109 109">
<g id="kvg:StrokePaths_0516c">
<g id="kvg:0516c">
	<g id="kvg:0516c-g1">
		<path id="kvg:0516c-s1" d="M38,21.5c0.25,1.38-0.17,2.77-0.71,3.88C33.47,33.1,27.75,43,16,51.75"/>
		<path id="kvg:0516c-s2" d="M56.25,16c4.5,0.38,22.38,23.62,30.89,30.49c3.19,2.57,4.86,2.89,7.61,4.01"/>
	</g>
	<g id="kvg:0516c-g2">
		<path id="kvg:0516c-s3" d="M50.8,49.5c0.45,1.5,0.38,3.04-0.77,5.05c-6.41,11.2-10.79,17.7-20.09,29.36c-2.27,2.84-1.45,5.66,2.18,4.58C42.25,85.5,60,81.12,73.25,78.25"/>
		<path id="kvg:0516c-s4" d="M65.88,67.5c5.43,4.46,14.02,18.32,15.38,25.25"/>
	</g>
</g>
</g>
<g id="kvg:StrokeNumbers_0516c">
	<text transform="matrix(1 0 0 1 29.50 21.50)">1</text>
	<text transform="matrix(1 0 0 1 49.50 16.50)">2</text>
	<text transform="matrix(1 0 0 1 42.50 48.13)">3</text>
	<text transform="matrix(1 0 0 1 63.50 63.50)">4</text>
</g>
</svg>
