<svg width="109" height="109" viewBox="0 0 109 109">
<g id="kvg:StrokePaths_05178">
<g id="kvg:05178">
	<g id="kvg:05178-g1">
		<g id="kvg:05178-g2">
			<path id="kvg:05178-s1" d="M25.22,31.84c0.97,0.97,1.46,2.71,1.58,4c0.33,3.53,3.63,34.81,3.63,35.46"/>
			<path id="kvg:05178-s2" d="M27.23,33.41c4.5-0.49,43.47-3.96,52.29-4.8c3.65-0.35,5.9,0.52,5.28,4.65c-0.87,5.77-3.43,20.11-5.2,34.53"/>
		</g>
		<g id="kvg:05178-g3">
			<g id="kvg:05178-g4">
				<path id="kvg:05178-s3" d="M42.47,16.98c1.28,0.89,1.77,2.6,1.8,3.44c0.48,17.45,1.36,39.95,1.71,49.4"/>
			</g>
			<g id="kvg:05178-g5">
				<path id="kvg:05178-s4" d="M65.06,13.25c0.84,0.84,1.38,2.37,1.29,3.69c-1.73,25.81-2.32,34.68-3.51,52.09"/>
				<path id="kvg:05178-s5" d="M29.59,52.34c15.66-1.47,42.41-3.97,51.5-4.23"/>
			</g>
		</g>
		<g id="kvg:05178-g6">
			<path id="kvg:05178-s6" d="M15.75,72.45c2.21,0.54,6.28,0.75,8.49,0.54C41.38,71.38,73,69.12,88,68.51c3.69-0.15,5.9,0.26,7.75,0.53"/>
		</g>
	</g>
	<g id="kvg:05178-g7">
		<g id="kvg:05178-g8">
			<path id="kvg:05178-s7" d="M41.97,78.64c0.09,0.54-0.2,1.21-0.67,1.92C38.38,85,31.88,90.5,20.17,97.08"/>
		</g>
		<g id="kvg:05178-g9">
			<path id="kvg:05178-s8" d="M64.88,78.62C73.14,81.68,86.23,91.23,88.29,96"/>
		</g>
	</g>
</g>
</g>
<g id="kvg:StrokeNumbers_05178">
	<text transform="matrix(1 0 0 1 19.25 41.50)">1</text>
	<text transform="matrix(1 0 0 1 29.25 29.50)">2</text>
	<text transform="matrix(1 0 0 1 33.50 16.50)">3</text>
	<text transform="matrix(1 0 0 1 55.50 13.50)">4</text>
	<text transform="matrix(1 0 0 1 33.75 48.13)">5</text>
	<text transform="matrix(1 0 0 1 17.50 69.50)">6</text>
	<text transform="matrix(1 0 0 1 31.50 82.50)">7</text>
	<text transform="matrix(1 0 0 1 56.25 82.50)">8</text>
</g>
</svg>
