<svg width="109" height="109" viewBox="0 0 109 109">
<g id="kvg:StrokePaths_05176">
<g id="kvg:05176">
	<g id="kvg:05176-g1">
		<g id="kvg:05176-g2">
			<g id="kvg:05176-g3">
				<g id="kvg:05176-g4">
					<path id="kvg:05176-s1" d="M23,30.42c2.61,0.41,5.23,0.48,7.86,0.2c14.14-1.87,32.14-4,48.88-5.6c2.61-0.25,5.18-0.36,7.76,0.08"/>
					<path id="kvg:05176-s2" d="M39.87,16.5c1,1,1.21,2.48,1.21,3.5c0,4,0.03,43.88,0.03,51.5"/>
				</g>
				<path id="kvg:05176-s3" d="M66.87,12.25c1.07,1.06,1.46,2.73,1.46,3.75c0,3.38,0.03,45.12,0.03,52.75"/>
			</g>
			<path id="kvg:05176-s4" d="M42,43.25c5.5-0.62,20.52-2.42,25.5-2.75"/>
			<g id="kvg:05176-g5">
				<path id="kvg:05176-s5" d="M42.5,56.75c4.5-0.25,18.25-2,24.75-2.25"/>
			</g>
		</g>
		<path id="kvg:05176-s6" d="M16.75,73.7c3.51,0.72,6.96,0.37,10.51,0.02c17.37-1.72,39.52-3.94,55.75-4.61c3.34-0.26,7.24-0.24,10.99,0.68"/>
	</g>
	<g id="kvg:05176-g6">
		<path id="kvg:05176-s7" d="M43.08,79.39c-0.11,1.33-0.55,2.52-1.4,3.51c-4.06,4.72-8.68,8.47-19.79,14.81"/>
		<path id="kvg:05176-s8" d="M66.02,79.08c7.25,3.24,18.73,13.34,20.54,18.38"/>
	</g>
</g>
</g>
<g id="kvg:StrokeNumbers_05176">
	<text transform="matrix(1 0 0 1 16.50 32.50)">1</text>
	<text transform="matrix(1 0 0 1 29.92 15.89)">2</text>
	<text transform="matrix(1 0 0 1 57.50 12.81)">3</text>
	<text transform="matrix(1 0 0 1 45.32 39.74)">4</text>
	<text transform="matrix(1 0 0 1 45.50 53.50)">5</text>
	<text transform="matrix(1 0 0 1 8.50 74.50)">6</text>
	<text transform="matrix(1 0 0 1 34.50 82.50)">7</text>
	<text transform="matrix(1 0 0 1 57.50 80.77)">8</text>
</g>
</svg>
