<svg width="109" height="109" viewBox="0 0 109 109">
<g id="kvg:StrokePaths_05189">
<g id="kvg:05189">
	<g id="kvg:05189-g1">
		<path id="kvg:05189-s1" d="M28.45,30.19c0.53,1.1,0.88,2.87,0.71,4.85c-0.18,1.98,0.18,57.9,0.18,61.21"/>
		<path id="kvg:05189-s2" d="M29.15,32.39c6.71-0.88,43.5-4.1,44.82-4.41c2.82-0.66,4.9,1.61,4.59,2.65c-0.53,1.76-0.53,56.04-0.53,61.11c0,8.16-5.29,3.01-7.62,1.32"/>
	</g>
	<g id="kvg:05189-g2">
		<path id="kvg:05189-s3" d="M51.92,13.12c0.12,0.29,1.77,1.52,1.77,3.39c0,12,0.14,33.5,0.14,49.36"/>
		<path id="kvg:05189-s4" d="M29.39,50.05C42.5,49,63.5,47.5,77.69,46.66"/>
		<path id="kvg:05189-s5" d="M11.88,70.23c1.52,0.54,4.31,0.66,5.82,0.54c18.8-1.52,58.3-5.02,75.11-5.73c2.53-0.11,4.05,0.26,5.31,0.53"/>
	</g>
</g>
</g>
<g id="kvg:StrokeNumbers_05189">
	<text transform="matrix(1 0 0 1 21.50 38.13)">1</text>
	<text transform="matrix(1 0 0 1 31.50 28.50)">2</text>
	<text transform="matrix(1 0 0 1 42.25 14.73)">3</text>
	<text transform="matrix(1 0 0 1 34.50 46.50)">4</text>
	<text transform="matrix(1 0 0 1 11.50 67.50)">5</text>
</g>
</svg>
