<svg width="109" height="109" viewBox="0 0 109 109">
<g id="kvg:StrokePaths_05186">
<g id="kvg:05186">
	<g id="kvg:05186-g1">
		<path id="kvg:05186-s1" d="M21.75,19.8c0.91,0.91,1.47,3.23,1.5,5.45c0.2,13.9,0.03,47.69,0.03,62.5c0,2-0.03,4.99-0.03,6"/>
		<path id="kvg:05186-s2" d="M24.06,21.56c15.07-1.68,49.46-5.58,57.92-6.31c2.9-0.25,4.78,1.88,4.78,4.27c0,13.48,0,53.21,0,67.48c0,9.75-4.25,6.5-8.5,1.5"/>
	</g>
	<g id="kvg:05186-g2">
		<path id="kvg:05186-s3" d="M52.25,20.75c0.88,0.88,1.5,2,1.5,3.71c0,6.76,0,27.54,0,31.04"/>
		<path id="kvg:05186-s4" d="M24.75,59.75c14.62-1.75,43-4.25,60.5-5.25"/>
	</g>
</g>
</g>
<g id="kvg:StrokeNumbers_05186">
	<text transform="matrix(1 0 0 1 16.50 28.63)">1</text>
	<text transform="matrix(1 0 0 1 24.75 17.50)">2</text>
	<text transform="matrix(1 0 0 1 45.50 29.50)">3</text>
	<text transform="matrix(1 0 0 1 28.50 56.50)">4</text>
</g>
</svg>
