<svg width="109" height="109" viewBox="0 0 109 109">
<g id="kvg:StrokePaths_05185">
<g id="kvg:05185">
	<g id="kvg:05185-g1">
		<g id="kvg:05185-g2">
			<path id="kvg:05185-s1" d="M22.54,33.27c0.96,1.3,1.27,2.79,1.27,5.15c0,4.81-0.05,33.43,0.03,47.33c0.02,3.68,0.04,6.29,0.04,7.11"/>
		</g>
		<path id="kvg:05185-s2" d="M24.5,35.25c15.76-1.46,57.65-5.15,59.14-5.15c3.11,0,5.42,1.9,5.42,6.05c0,1.91-0.93,42.61-1.51,54.43c-0.51,10.41-6.79,2.92-9.19,0.54"/>
	</g>
	<g id="kvg:05185-g3">
		<path id="kvg:05185-s3" d="M53.71,11.88c0.77,0.76,1.65,2.41,1.64,4.49C55.25,36.5,50.5,59.5,29.64,72.9"/>
		<path id="kvg:05185-s4" d="M55.5,45.5c7.7,3.74,19.88,15.39,21.81,21.22"/>
	</g>
</g>
</g>
<g id="kvg:StrokeNumbers_05185">
	<text transform="matrix(1 0 0 1 16.50 42.13)">1</text>
	<text transform="matrix(1 0 0 1 25.50 31.50)">2</text>
	<text transform="matrix(1 0 0 1 44.50 12.50)">3</text>
	<text transform="matrix(1 0 0 1 59.50 45.50)">4</text>
</g>
</svg>
