<svg width="109" height="109" viewBox="0 0 109 109">
<g id="kvg:StrokePaths_05193">
<g id="kvg:05193">
	<g id="kvg:05193-g1">
		<g id="kvg:05193-g2">
			<path id="kvg:05193-s1" d="M24.25,21.7c1.14,0.33,3.25,0.48,4.37,0.33c4.62-0.64,41.38-4.28,52.64-4.77c1.9-0.08,3.04,0.16,3.99,0.32"/>
		</g>
		<path id="kvg:05193-s2" d="M37.31,12.88c0.76,0.41,2.36,3.08,2.51,3.9C39.98,17.61,41,32.75,42,43.25"/>
		<path id="kvg:05193-s3" d="M65.31,9.38c1.44,0.62,2.6,3.35,2.51,4.25C67.5,17,66.5,33.75,65.75,41.25"/>
		<g id="kvg:05193-g3">
			<g id="kvg:05193-g4">
				<path id="kvg:05193-s4" d="M26.25,33.2c1.14,0.33,3.25,0.48,4.37,0.33c4.62-0.64,37.38-4.28,48.64-4.77c1.9-0.08,3.04,0.16,3.99,0.32"/>
			</g>
			<g id="kvg:05193-g5">
				<g id="kvg:05193-g6">
					<path id="kvg:05193-s5" d="M16.25,45.7c1.52,0.54,4.31,0.7,5.82,0.54c9.68-0.99,50.43-5.24,67.61-5.73c2.53-0.07,4.05,0.26,5.31,0.53"/>
				</g>
			</g>
		</g>
	</g>
	<g id="kvg:05193-g7">
		<g id="kvg:05193-g8">
			<g id="kvg:05193-g9">
				<path id="kvg:05193-s6" d="M33.87,53.41c0.45,0.78,0.74,2.02,0.6,3.42S34.61,96.67,34.61,99"/>
				<path id="kvg:05193-s7" d="M34.46,54.96c5.65-0.62,36.67-3.89,37.78-4.11c2.38-0.47,3.89,2.09,3.87,2.87c-0.12,4.78-0.45,38.52-0.45,42.1c0,5.75-4.46,2.12-6.42,0.93"/>
			</g>
			<g id="kvg:05193-g10">
				<path id="kvg:05193-s8" d="M52.66,43.87c0.1,0.21,1.49,1.07,1.49,2.39c0,8.46,0.12,19.62,0.12,30.82"/>
				<path id="kvg:05193-s9" d="M34.66,66.42c11.05-0.74,28.75-3.3,40.72-3.89"/>
				<path id="kvg:05193-s10" d="M18.9,79.63c1.61,0.4,4.59,0.59,6.19,0.4C39.75,78.25,73.75,75,88.7,73.74c2.68-0.23,4.31,0.19,5.65,0.39"/>
			</g>
		</g>
	</g>
</g>
</g>
<g id="kvg:StrokeNumbers_05193">
	<text transform="matrix(1 0 0 1 17.50 21.50)">1</text>
	<text transform="matrix(1 0 0 1 28.50 13.50)">2</text>
	<text transform="matrix(1 0 0 1 56.50 9.50)">3</text>
	<text transform="matrix(1 0 0 1 18.50 33.50)">4</text>
	<text transform="matrix(1 0 0 1 9.50 47.50)">5</text>
	<text transform="matrix(1 0 0 1 25.50 60.76)">6</text>
	<text transform="matrix(1 0 0 1 36.50 52.50)">7</text>
	<text transform="matrix(1 0 0 1 47.50 50.50)">8</text>
	<text transform="matrix(1 0 0 1 39.50 63.50)">9</text>
	<text transform="matrix(1 0 0 1 7.50 81.50)">10</text>
</g>
</svg>
