<svg width="109" height="109" viewBox="0 0 109 109">
<g id="kvg:StrokePaths_05192">
<g id="kvg:05192">
	<g id="kvg:05192-g1">
		<path id="kvg:05192-s1" d="M24.49,15.12c0.87,0.93,1.54,2.37,1.75,3.6c1.26,7.16,2.01,12.41,3.23,20.75c0.24,1.66,0.41,3.27,0.61,4.74"/>
		<path id="kvg:05192-s2" d="M26.74,17.25C43.38,15.62,64,14,79.28,13.29c3.35-0.16,5.31,1.02,4.74,4.35c-0.74,4.29-2.21,12-3.64,18.64c-0.4,1.85-0.79,3.62-1.16,5.21"/>
		<path id="kvg:05192-s3" d="M29.02,28.98c4.85-0.46,45.48-3.11,52.23-3.07"/>
		<path id="kvg:05192-s4" d="M31.1,41.92c13.4-0.92,31.4-2.05,47.36-2.71"/>
	</g>
	<g id="kvg:05192-g2">
		<path id="kvg:05192-s5" d="M32.06,51.84c1.12,1.12,1.21,2.56,1.21,3.94c0,1.04,0.02,24.59,0.03,36.22c0,3.82,0.01,6.4,0.01,6.57"/>
		<path id="kvg:05192-s6" d="M34.05,53.18c3.93-0.17,34.74-2.44,38.32-2.65c2.98-0.17,5.08,0.97,5.08,4.25c0,4.38,0.03,22.35-0.05,36c-0.01,1.84-0.02,3.59-0.02,5.22"/>
		<path id="kvg:05192-s7" d="M34.6,66.51c9.65-0.89,35.37-2.95,41.67-2.95"/>
		<path id="kvg:05192-s8" d="M34.42,80.21c11.2-0.96,29.33-2.46,41.64-2.82"/>
		<path id="kvg:05192-s9" d="M34.37,95.23c10.13-0.73,30.63-2.1,41.75-2.3"/>
	</g>
</g>
</g>
<g id="kvg:StrokeNumbers_05192">
	<text transform="matrix(1 0 0 1 20.25 27.13)">1</text>
	<text transform="matrix(1 0 0 1 28.50 13.63)">2</text>
	<text transform="matrix(1 0 0 1 33.75 25.63)">3</text>
	<text transform="matrix(1 0 0 1 33.75 38.50)">4</text>
	<text transform="matrix(1 0 0 1 26.25 59.98)">5</text>
	<text transform="matrix(1 0 0 1 36.75 50.50)">6</text>
	<text transform="matrix(1 0 0 1 37.50 63.50)">7</text>
	<text transform="matrix(1 0 0 1 37.50 76.48)">8</text>
	<text transform="matrix(1 0 0 1 37.50 92.50)">9</text>
</g>
</svg>
