<svg width="109" height="109" viewBox="0 0 109 109">
<g id="kvg:StrokePaths_051ac">
<g id="kvg:051ac">
	<g id="kvg:051ac-g1">
		<path id="kvg:051ac-s1" d="M44.62,15.25c0.14,1.46-0.19,2.53-0.9,3.84c-4.05,7.46-11.32,16.3-21.98,23.66"/>
		<path id="kvg:051ac-s2" d="M45.86,21.96c0.81,0.29,2.21,0.43,3.89,0.18c5.75-0.88,9.61-1.32,13.36-2.17c4.04-0.92,4.68,1.79,2.97,4.69C58.5,37.5,42.25,59.38,13.75,70.75"/>
		<path id="kvg:051ac-s3" d="M38.38,32.25c6.13,4.66,30.42,20.84,42.71,27.89c3.8,2.18,8.54,4.17,12.91,4.86"/>
	</g>
	<g id="kvg:051ac-g2">
		<g id="kvg:051ac-g3">
			<path id="kvg:051ac-s4" d="M47.25,65c5.56,1.41,14.36,5.8,15.75,8"/>
		</g>
		<g id="kvg:051ac-g4">
			<path id="kvg:051ac-s5" d="M40.5,81.75c8.91,2.65,22.25,9.62,25.5,14"/>
		</g>
	</g>
</g>
</g>
<g id="kvg:StrokeNumbers_051ac">
	<text transform="matrix(1 0 0 1 35.50 14.50)">1</text>
	<text transform="matrix(1 0 0 1 49.50 18.50)">2</text>
	<text transform="matrix(1 0 0 1 36.75 42.50)">3</text>
	<text transform="matrix(1 0 0 1 39.50 66.50)">4</text>
	<text transform="matrix(1 0 0 1 31.50 83.50)">5</text>
</g>
</svg>
