<svg width="109" height="109" viewBox="0 0 109 109">
<g id="kvg:StrokePaths_051b5">
<g id="kvg:051b5">
	<g id="kvg:051b5-g1">
		<g id="kvg:051b5-g2">
			<path id="kvg:051b5-s1" d="M17.29,19.75c3.99,1.93,10.3,7.92,11.29,10.91"/>
		</g>
		<g id="kvg:051b5-g3">
			<path id="kvg:051b5-s2" d="M12.98,82.67c1.71,2.05,3.94,1.73,5.13,0c1.16-1.68,8.39-14.17,12.66-23.51"/>
		</g>
	</g>
	<g id="kvg:051b5-g4">
		<g id="kvg:051b5-g5">
			<path id="kvg:051b5-s3" d="M41.21,17.83c0.27,0.92,0.52,1.54,0.67,2.25C43,25.5,45,38.75,46.33,47.84"/>
			<path id="kvg:051b5-s4" d="M42.55,19.05c9.46-1.73,33.04-3.6,39.79-4.8c2.3-0.41,4.42,2.1,3.98,4.64C85.21,25.3,84.25,36,81.21,44.03"/>
			<path id="kvg:051b5-s5" d="M46.22,45.52C56.75,44,73.25,42.5,81.48,42.47"/>
		</g>
		<g id="kvg:051b5-g6">
			<g id="kvg:051b5-g7">
				<path id="kvg:051b5-s6" d="M54.12,48.83c0.08,1.09,0.46,2.78,0.35,4.37C53.75,63,44.25,85.25,27.06,95"/>
			</g>
			<path id="kvg:051b5-s7" d="M66.39,46.57c0.58,0.88,1.42,1.95,1.45,4.4c0.07,5.86-0.5,22.51-0.5,31.52c0,9.51,1.4,11.23,15.73,11.23c11.17,0,13.5-2.71,13.5-10.56"/>
		</g>
	</g>
</g>
</g>
<g id="kvg:StrokeNumbers_051b5">
	<text transform="matrix(1 0 0 1 8.50 18.50)">1</text>
	<text transform="matrix(1 0 0 1 5.50 84.50)">2</text>
	<text transform="matrix(1 0 0 1 34.50 26.50)">3</text>
	<text transform="matrix(1 0 0 1 43.50 15.50)">4</text>
	<text transform="matrix(1 0 0 1 50.50 41.50)">5</text>
	<text transform="matrix(1 0 0 1 46.50 56.50)">6</text>
	<text transform="matrix(1 0 0 1 59.50 59.50)">7</text>
</g>
</svg>
