<svg width="109" height="109" viewBox="0 0 109 109">
<g id="kvg:StrokePaths_051e6">
<g id="kvg:051e6">
	<g id="kvg:051e6-g1">
		<path id="kvg:051e6-s1" d="M32.08,17.5c0.17,1,0.22,2.39-0.11,3.69c-2.09,8.31-9.09,23.56-19.72,35.56"/>
		<path id="kvg:051e6-s2" d="M32.43,31.15c0.22,0.05,1.17,0,1.81-0.13c3.38-0.64,6.01-1.39,11.35-3.1c2.05-0.91,3.97,0.86,3.31,3.47c-3.59,14.29-21.67,50-37.65,57.36"/>
		<path id="kvg:051e6-s3" d="M22,48.25c5.4,2.81,40.39,27.53,59.52,37.32c4.42,2.26,9.1,4.05,12.98,5.18"/>
	</g>
	<g id="kvg:051e6-g2">
		<g id="kvg:051e6-g3">
			<path id="kvg:051e6-s4" d="M62.26,26c0.68,0.68,1.23,1.8,1.23,3.24c0,13.11,0.25,25.76-9.35,33.26"/>
		</g>
		<path id="kvg:051e6-s5" d="M64.46,27.9c3.32-1,8.05-2.35,10.55-3.01c2.96-0.78,4.83,0.11,4.83,2.99c0,4.5-0.2,19.17-0.2,26.88c0,7.38,1.37,9.44,7.34,9.44c7.04,0,8.02-1.44,8.02-6.18"/>
	</g>
</g>
</g>
<g id="kvg:StrokeNumbers_051e6">
	<text transform="matrix(1 0 0 1 24.50 18.50)">1</text>
	<text transform="matrix(1 0 0 1 38.25 26.50)">2</text>
	<text transform="matrix(1 0 0 1 27.75 48.05)">3</text>
	<text transform="matrix(1 0 0 1 55.50 34.50)">4</text>
	<text transform="matrix(1 0 0 1 64.50 23.50)">5</text>
</g>
</svg>
