<svg width="109" height="109" viewBox="0 0 109 109">
<g id="kvg:StrokePaths_051e1">
<g id="kvg:051e1">
	<g id="kvg:051e1-g1">
		<g id="kvg:051e1-g2">
			<path id="kvg:051e1-s1" d="M35.55,21.25c1.04,1.04,1.5,2.38,1.57,4.74C37.75,48,38,78.5,17.25,92.5"/>
		</g>
		<path id="kvg:051e1-s2" d="M38.25,23.75C42,23,60.5,19.5,63.5,18.75s5.85,0.69,5.5,4.5c-1.75,19.25-2.5,36-2.5,52c0,13.02,2.75,15,14.25,15c12,0,13.5-1.5,13.5-10.5"/>
	</g>
	<g id="kvg:051e1-g3">
		<path id="kvg:051e1-s3" d="M46,48c5.58,4.67,8.77,9.62,10.5,14"/>
	</g>
</g>
</g>
<g id="kvg:StrokeNumbers_051e1">
	<text transform="matrix(1 0 0 1 30.50 31.63)">1</text>
	<text transform="matrix(1 0 0 1 38.50 19.50)">2</text>
	<text transform="matrix(1 0 0 1 43.50 44.50)">3</text>
</g>
</svg>
