<svg width="109" height="109" viewBox="0 0 109 109">
<g id="kvg:StrokePaths_051f9">
<g id="kvg:051f9">
	<path id="kvg:051f9-s1" d="M20.25,23.75c2.18-0.22,12.22-1.66,17.01-2.29c3.52-0.46,5.24-0.08,5.24,3.79c0,5.37,0,27.08,0,29.5c0,1.75,0.63,2.69,2,2.5c5.5-0.75,16.75-1.5,19-1.5"/>
	<path id="kvg:051f9-s2" d="M63.68,20.44c0.88,0.88,0.96,2.06,0.96,3.48c0,0.95,0.04,18.14,0.04,27.89c0,2.92-0.05,4.5-0.05,6.18"/>
	<path id="kvg:051f9-s3" d="M65.44,21.82c2.2-0.13,19.61-2.28,21.62-2.44"/>
	<g id="kvg:051f9-g1">
		<path id="kvg:051f9-s4" d="M18.06,21.38c1.15,1.15,1.26,2.62,1.26,4.25c0,0.83,0.04,49.86,0.01,59.24c-0.01,1.82,0.26,3.54,2.65,3.4c13.79-0.82,43.27-1.52,65.77-1.77"/>
		<path id="kvg:051f9-s5" d="M87.56,18.38c1.09,1.09,1.26,2.62,1.26,4c0,0.81,0.02,37.57-0.01,60.12c0,2.68,0,5.17,0.01,7.38"/>
	</g>
</g>
</g>
<g id="kvg:StrokeNumbers_051f9">
	<text transform="matrix(1 0 0 1 20.50 20.50)">1</text>
	<text transform="matrix(1 0 0 1 56.50 28.63)">2</text>
	<text transform="matrix(1 0 0 1 65.25 18.13)">3</text>
	<text transform="matrix(1 0 0 1 11.50 31.63)">4</text>
	<text transform="matrix(1 0 0 1 81.50 29.50)">5</text>
</g>
</svg>
