<svg width="109" height="109" viewBox="0 0 109 109">
<g id="kvg:StrokePaths_0520b">
<g id="kvg:0520b">
	<g id="kvg:0520b-g1">
		<g id="kvg:0520b-g2">
			<path id="kvg:0520b-s1" d="M50.63,13.92c0.1,0.46-0.2,2.54-1.33,3.35C43.75,21.25,36,26.5,17.14,32.91"/>
		</g>
		<g id="kvg:0520b-g3">
			<path id="kvg:0520b-s2" d="M10.63,51.79c0.85,0.51,2.98,0.55,3.84,0.51c11.03-0.55,26.53-5.05,41.17-6c1.42-0.09,2.28,0.24,2.99,0.5"/>
			<path id="kvg:0520b-s3" d="M36.41,27.25c0.6,1.79,1.47,3.19,1.47,5.42c0,20.4,0.62,45.08-18.07,60.29"/>
		</g>
	</g>
	<g id="kvg:0520b-g4">
		<path id="kvg:0520b-s4" d="M67.27,31.83c0.98,0.92,1.67,1.99,1.76,5.02C69.42,51.41,69,62.54,69,67.5"/>
		<path id="kvg:0520b-s5" d="M88.77,16.33c0.98,0.92,1.67,1.99,1.76,5.02c0.4,14.55-0.26,61.16-0.26,66.12c0,13.14-7.21,1.5-8.71,0.25"/>
	</g>
</g>
</g>
<g id="kvg:StrokeNumbers_0520b">
	<text transform="matrix(1 0 0 1 42.50 13.50)">1</text>
	<text transform="matrix(1 0 0 1 3.50 53.50)">2</text>
	<text transform="matrix(1 0 0 1 30.50 38.50)">3</text>
	<text transform="matrix(1 0 0 1 59.50 31.50)">4</text>
	<text transform="matrix(1 0 0 1 78.50 16.50)">5</text>
</g>
</svg>
