<svg width="109" height="109" viewBox="0 0 109 109">
<g id="kvg:StrokePaths_0520a">
<g id="kvg:0520a">
	<g id="kvg:0520a-g1">
		<path id="kvg:0520a-s1" d="M17.79,26.53c1.68,0.31,3.42,0.39,5.1,0.17c5.15-0.67,16.03-2.46,23.11-3.28c1.84-0.21,3.75-0.28,5.53,0.36"/>
		<g id="kvg:0520a-g2">
			<path id="kvg:0520a-s2" d="M11.79,48.72c1.95,0.77,4.67,0.58,6.71,0.28c10.56-1.55,21.53-3.24,31.5-4.36c2.51-0.28,4.74-0.57,7.21,0.03"/>
			<path id="kvg:0520a-s3" d="M33.85,28.58c1.1,1.1,1.74,2.54,1.74,3.94c0,0.79-0.03,39.01-0.09,54.86c-0.01,3.08-0.02,5.31-0.03,6.26"/>
		</g>
	</g>
	<g id="kvg:0520a-g3">
		<path id="kvg:0520a-s4" d="M66.02,33.08C67,34,67.52,35.62,67.52,37.6c0,10.25-0.01,18.3-0.02,23.9c0,2.36,0,4.28,0,5.75"/>
		<path id="kvg:0520a-s5" d="M87.27,16.83c0.98,0.92,1.76,2.29,1.76,4.27c0,14.56-0.01,60.41-0.01,65.37c0,14.28-6.77,4.78-8.71,2.5"/>
	</g>
</g>
</g>
<g id="kvg:StrokeNumbers_0520a">
	<text transform="matrix(1 0 0 1 11.50 27.13)">1</text>
	<text transform="matrix(1 0 0 1 4.50 49.50)">2</text>
	<text transform="matrix(1 0 0 1 27.50 37.63)">3</text>
	<text transform="matrix(1 0 0 1 57.50 32.50)">4</text>
	<text transform="matrix(1 0 0 1 77.50 17.50)">5</text>
</g>
</svg>
