<svg width="109" height="109" viewBox="0 0 109 109">
<g id="kvg:StrokePaths_05207">
<g id="kvg:05207">
	<g id="kvg:05207-g1">
		<g id="kvg:05207-g2">
			<path id="kvg:05207-s1" d="M11.5,43.98c1.05,0.3,2.98,0.42,4.01,0.3c7.74-0.91,15.49-3.54,22.67-5.54c1.66-0.46,3.45-0.65,4.32-0.5"/>
		</g>
		<path id="kvg:05207-s2" d="M26.75,18.25c1,1,1.67,2.53,1.73,4.5c0.2,7.02-0.48,34.49-0.48,40C28,69.5,29,71,37.75,71c5.5,0,8.75-0.88,11.75-2"/>
	</g>
	<g id="kvg:05207-g3">
		<path id="kvg:05207-s3" d="M52.75,29.75c2.39,1.02,5.02,0.94,7.48,0.57C70.75,28.75,83.75,26.5,91.5,25c4.45-0.86,6.62,0.88,6.25,5.5C96.68,43.74,92,73,85.5,86c-5.2,10.4-9.88,2.5-12.25,0"/>
		<path id="kvg:05207-s4" d="M68.25,36.62c0.45,1.33,0.35,3.15,0.11,4.91c-2.15,15.67-10,32.82-25.11,45.97"/>
	</g>
</g>
</g>
<g id="kvg:StrokeNumbers_05207">
	<text transform="matrix(1 0 0 1 4.50 45.50)">1</text>
	<text transform="matrix(1 0 0 1 17.50 19.50)">2</text>
	<text transform="matrix(1 0 0 1 45.75 29.50)">3</text>
	<text transform="matrix(1 0 0 1 59.50 40.50)">4</text>
</g>
</svg>
