<svg width="109" height="109" viewBox="0 0 109 109">
<g id="kvg:StrokePaths_05214">
<g id="kvg:05214">
	<g id="kvg:05214-g1">
		<path id="kvg:05214-s1" d="M17.05,32.07c1.41,0.72,3.06,1.45,5.17,1.21c2.12-0.24,25.95-4.36,28.78-4.36c1.74,0,3.49,1.08,2.74,3.83c-1.2,4.4-2.25,12.5-2.75,18"/>
		<g id="kvg:05214-g2">
			<path id="kvg:05214-s2" d="M12.12,55.03c0.91,0.42,3.25,0.7,4.24,0.59c12.13-1.37,28.87-4.01,40.04-4.94c2.09-0.17,4.09-0.17,5.87,0.39"/>
			<g id="kvg:05214-g3">
				<path id="kvg:05214-s3" d="M34.91,15.25c0.59,1,1.61,2.08,1.7,4.17C38,50.5,34.25,78.5,15.5,93.25"/>
				<path id="kvg:05214-s4" d="M38.56,60.96c6.29,4.27,14.04,14.4,17.55,21.67"/>
			</g>
		</g>
	</g>
	<g id="kvg:05214-g4">
		<path id="kvg:05214-s5" d="M70.27,24.33c0.98,0.92,1.67,1.99,1.76,5.02C72.42,43.91,72,61.04,72,66"/>
		<path id="kvg:05214-s6" d="M88.77,13.33c0.98,0.92,1.67,1.99,1.76,5.02c0.4,14.55-0.26,65.16-0.26,70.12c0,13.14-7.21,1.5-8.71,0.25"/>
	</g>
</g>
</g>
<g id="kvg:StrokeNumbers_05214">
	<text transform="matrix(1 0 0 1 10.25 32.50)">1</text>
	<text transform="matrix(1 0 0 1 4.50 55.50)">2</text>
	<text transform="matrix(1 0 0 1 26.50 15.50)">3</text>
	<text transform="matrix(1 0 0 1 42.50 61.50)">4</text>
	<text transform="matrix(1 0 0 1 60.50 25.33)">5</text>
	<text transform="matrix(1 0 0 1 78.25 13.50)">6</text>
</g>
</svg>
