<svg width="109" height="109" viewBox="0 0 109 109">
<g id="kvg:StrokePaths_0522a">
<g id="kvg:0522a">
	<g id="kvg:0522a-g1">
		<g id="kvg:0522a-g2">
			<path id="kvg:0522a-s1" d="M17.41,16.98c0.84,1.02,1.74,3.23,1.6,5.46c-0.15,2.24,0.15,69.08,0.15,72.8"/>
			<path id="kvg:0522a-s2" d="M19.01,19.47c5.65-0.99,36.68-4.62,37.8-4.97c2.38-0.75,4.13,1.82,3.87,2.98c-0.45,1.99-0.45,64.84-0.45,70.56c0,9.19-2.97,4.96-5.82,1.99"/>
		</g>
		<g id="kvg:0522a-g3">
			<g id="kvg:0522a-g4">
				<path id="kvg:0522a-s3" d="M32.01,20.46c0.83,0.52,1.33,2.33,1.5,3.37c0.17,1.04,0,60.84-0.17,67.32"/>
			</g>
			<g id="kvg:0522a-g5">
				<path id="kvg:0522a-s4" d="M44.04,18.65c0.83,0.52,1.33,2.33,1.5,3.37c0.09,0.55,0.01,60.4-0.17,67.37"/>
			</g>
			<g id="kvg:0522a-g6">
				<path id="kvg:0522a-s5" d="M8.77,52.03c1.16,0.56,3.3,0.64,4.46,0.56c12.02-0.84,37.79-4.39,51.92-4.9c1.94-0.07,3.1,0.27,4.07,0.55"/>
			</g>
		</g>
	</g>
	<g id="kvg:0522a-g7">
		<path id="kvg:0522a-s6" d="M74.27,22.83c0.98,0.92,1.67,1.99,1.76,5.02C76.42,42.41,76,65.54,76,70.5"/>
		<path id="kvg:0522a-s7" d="M89.77,12.83c0.98,0.92,1.67,1.99,1.76,5.02c0.4,14.55-0.26,67.16-0.26,72.12c0,13.14-7.21,1.5-8.71,0.25"/>
	</g>
</g>
</g>
<g id="kvg:StrokeNumbers_0522a">
	<text transform="matrix(1 0 0 1 11.50 25.50)">1</text>
	<text transform="matrix(1 0 0 1 21.50 15.50)">2</text>
	<text transform="matrix(1 0 0 1 26.50 27.50)">3</text>
	<text transform="matrix(1 0 0 1 38.50 25.50)">4</text>
	<text transform="matrix(1 0 0 1 5.50 49.50)">5</text>
	<text transform="matrix(1 0 0 1 69.50 19.50)">6</text>
	<text transform="matrix(1 0 0 1 80.50 13.50)">7</text>
</g>
</svg>
