<svg width="109" height="109" viewBox="0 0 109 109">
<g id="kvg:StrokePaths_05243">
<g id="kvg:05243">
	<g id="kvg:05243-g1">
		<g id="kvg:05243-g2">
			<path id="kvg:05243-s1" d="M21.16,15.25c2.62,1.63,6.78,6.69,7.43,9.22"/>
			<path id="kvg:05243-s2" d="M47.85,12c0.08,1.05-0.09,2.06-0.49,3.04C46.2,18.43,44,21.5,39.36,27.25"/>
		</g>
		<g id="kvg:05243-g3">
			<g id="kvg:05243-g4">
				<g id="kvg:05243-g5">
					<path id="kvg:05243-s3" d="M15.18,30.54c1.17,1.07,3.25,1.31,4.75,1.19c6.07-0.48,30.13-4.17,33.11-4.76c2.98-0.59,2.72,2.15,2.19,4.05c-0.55,1.97-1.56,5.47-2.29,8.28c-0.37,1.45-0.67,2.72-0.78,3.51"/>
					<path id="kvg:05243-s4" d="M20.25,46.75c5-0.75,27.39-4,29.19-4s3.61,0,5.06,0"/>
					<path id="kvg:05243-s5" d="M19.48,45.92c0.89,0.79,0.76,2.95,0.18,4.21c-0.66,1.44-3.27,7.54-3.64,8.34c-1.29,2.78-0.94,4.19,0.95,3.88c1.8-0.29,35.07-5.03,39.84-5.62c4.77-0.6,3.6,3.99,3.26,5.42c-0.65,2.74-3.06,11.6-5.74,17.29c-3.68,7.8-5.3,1.05-6.66-0.48"/>
				</g>
				<g id="kvg:05243-g6">
					<path id="kvg:05243-s6" d="M35.87,31.41c1.22,1.15,1.45,2.48,1.48,4.09c0.14,9.47-0.07,40.65-0.14,57.25c-0.01,2.89-0.04,4.08-0.09,5.25"/>
				</g>
			</g>
			<g id="kvg:05243-g7">
				<path id="kvg:05243-s7" d="M34.94,60.5c0.06,0.62,0.13,1.6-0.14,2.49c-1.6,5.25-10.99,17.71-23.55,24.76"/>
			</g>
		</g>
	</g>
	<g id="kvg:05243-g8">
		<path id="kvg:05243-s8" d="M70.77,25.33c0.98,0.92,1.67,1.99,1.76,5.02c0.31,11.1,0.13,23.12,0.03,30.4c-0.03,2.27-0.05,4.07-0.05,5.25"/>
		<path id="kvg:05243-s9" d="M89.27,13.33c0.98,0.92,1.67,1.99,1.76,5.02c0.4,14.55-0.26,65.66-0.26,70.62c0,13.14-7.21,1.5-8.71,0.25"/>
	</g>
</g>
</g>
<g id="kvg:StrokeNumbers_05243">
	<text transform="matrix(1 0 0 1 14.50 15.50)">1</text>
	<text transform="matrix(1 0 0 1 39.50 11.50)">2</text>
	<text transform="matrix(1 0 0 1 8.50 30.50)">3</text>
	<text transform="matrix(1 0 0 1 15.50 43.50)">4</text>
	<text transform="matrix(1 0 0 1 12.25 53.50)">5</text>
	<text transform="matrix(1 0 0 1 29.50 39.50)">6</text>
	<text transform="matrix(1 0 0 1 24.50 70.50)">7</text>
	<text transform="matrix(1 0 0 1 63.25 27.50)">8</text>
	<text transform="matrix(1 0 0 1 79.50 14.03)">9</text>
</g>
</svg>
