<svg width="109" height="109" viewBox="0 0 109 109">
<g id="kvg:StrokePaths_052a3">
<g id="kvg:052a3">
	<g id="kvg:052a3-g1">
		<g id="kvg:052a3-g2">
			<path id="kvg:052a3-s1" d="M55.37,9.67c0.77,0.77,1.01,1.62,1.01,3.08c0,4.42,0.01,18.37,0.01,21.14c0,7.84-5.53,0.84-6.74,0.14"/>
			<path id="kvg:052a3-s2" d="M35.4,18.92c0.05,0.39,0.19,1.02-0.11,1.56c-2.15,3.88-11.24,11.37-18.63,14.95"/>
			<path id="kvg:052a3-s3" d="M79.75,16.75c5.59,2.41,11.75,7.62,14.5,12.34"/>
		</g>
		<g id="kvg:052a3-g3">
			<path id="kvg:052a3-s4" d="M73.83,24.33c0.16,0.87-0.28,2.01-1.07,3.24C66.25,37.74,41.18,54.17,15.75,61"/>
		</g>
	</g>
	<g id="kvg:052a3-g4">
		<path id="kvg:052a3-s5" d="M32.08,63.45c2.26,0.81,5.56,0.79,7.93,0.47c10.46-1.4,29.97-4.06,36.36-4.77c4.35-0.49,5.78,1.04,5.02,5.27c-1.77,9.92-6.84,22.31-13.9,29.92c-4.8,5.18-7.55,0.21-8.9-0.46"/>
		<path id="kvg:052a3-s6" d="M56.64,47.43c0.36,1.07,0.29,2.4-0.19,3.97c-3.32,10.73-13.19,28.98-34.5,42.82"/>
	</g>
</g>
</g>
<g id="kvg:StrokeNumbers_052a3">
	<text transform="matrix(1 0 0 1 47.00 10.38)">1</text>
	<text transform="matrix(1 0 0 1 27.25 18.25)">2</text>
	<text transform="matrix(1 0 0 1 71.25 16.25)">3</text>
	<text transform="matrix(1 0 0 1 64.25 23.88)">4</text>
	<text transform="matrix(1 0 0 1 25.25 65.88)">5</text>
	<text transform="matrix(1 0 0 1 48.25 55.25)">6</text>
</g>
</svg>
