<svg width="109" height="109" viewBox="0 0 109 109">
<g id="kvg:StrokePaths_052b4">
<g id="kvg:052b4">
	<g id="kvg:052b4-g1">
		<g id="kvg:052b4-g2">
			<path id="kvg:052b4-s1" d="M28.59,21.25c4.03,3.23,8.34,8.88,8.92,10.5"/>
			<path id="kvg:052b4-s2" d="M48.5,16.12c1.88,2.31,6.4,8.37,7.15,12.12"/>
			<path id="kvg:052b4-s3" d="M79.43,14c0.45,0.88,0.33,1.99-0.22,3c-1.08,2-5.33,8.5-8.54,13"/>
		</g>
		<g id="kvg:052b4-g3">
			<path id="kvg:052b4-s4" d="M19.88,39.38c0,3.25-3.52,15.46-4.88,17.62"/>
			<path id="kvg:052b4-s5" d="M20.41,42.75c21.47-2.62,45.47-4.38,66.61-5.5c9.35-0.5,6.48,5.12,0.06,10"/>
		</g>
	</g>
	<g id="kvg:052b4-g4">
		<path id="kvg:052b4-s6" d="M28.94,60.59c1.93,0.54,3.68,0.55,5.56,0.38c13.36-1.26,34.36-3.74,39.03-4.26c3.17-0.35,4.49,2.11,4.12,4.55c-1.03,6.87-9.73,27.89-14.69,32.26C59,97,56.79,92.25,55.51,91.48"/>
		<path id="kvg:052b4-s7" d="M51.97,45.68c0.4,1.32,0.23,2.8-0.19,4.48C48.66,62.64,39.75,84.88,18.5,94.94"/>
	</g>
</g>
</g>
<g id="kvg:StrokeNumbers_052b4">
	<text transform="matrix(1 0 0 1 19.99 19.63)">1</text>
	<text transform="matrix(1 0 0 1 38.25 13.63)">2</text>
	<text transform="matrix(1 0 0 1 81.49 10.48)">3</text>
	<text transform="matrix(1 0 0 1 9.75 42.13)">4</text>
	<text transform="matrix(1 0 0 1 26.25 37.63)">5</text>
	<text transform="matrix(1 0 0 1 20.25 63.13)">6</text>
	<text transform="matrix(1 0 0 1 40.99 52.18)">7</text>
</g>
</svg>
