<svg width="109" height="109" viewBox="0 0 109 109">
<g id="kvg:StrokePaths_052c9">
<g id="kvg:052c9">
	<g id="kvg:052c9-g1">
		<g id="kvg:052c9-g2">
			<g id="kvg:052c9-g3">
				<path id="kvg:052c9-s1" d="M32.13,12.15c0.04,0.5,0.17,1.32-0.09,2.01c-1.91,5.09-8.41,14.09-16.91,20.51"/>
				<path id="kvg:052c9-s2" d="M30.25,20.52c1.12,0.48,2.12,0.31,3.27,0.13c4.78-0.74,12.56-2.58,14.14-2.77c1.77-0.21,2.69,1.77,1.95,2.81c-3.11,4.41-6.51,8.14-11.43,15.2"/>
			</g>
			<path id="kvg:052c9-s3" d="M20.37,38.22c0.71,0.87,1.11,1.86,1.2,2.98c0.73,3.46,1.23,8.04,1.76,13.27c0.13,1.28,0.26,2.61,0.4,3.96"/>
			<path id="kvg:052c9-s4" d="M22.68,39.46c8.09-1.82,24.84-3.85,29.05-4.07c2.77-0.14,3.44,2.26,3.22,3.58c-0.7,4.25-1.57,7.44-2.77,11.5c-0.34,1.15-0.7,2.36-1.1,3.7"/>
			<path id="kvg:052c9-s5" d="M36.75,38.56c0.79,0.79,1.14,1.93,1.14,3.09c0,1.16-0.08,9.25-0.08,11.11"/>
			<path id="kvg:052c9-s6" d="M24.38,55.04c3.27-0.46,22.66-2.52,26.26-2.75"/>
		</g>
		<g id="kvg:052c9-g4">
			<g id="kvg:052c9-g5">
				<path id="kvg:052c9-s7" d="M30.68,58.17c0.04,0.77,0.09,1.99-0.09,3.1C29.51,67.81,22.75,82.75,12.25,90"/>
			</g>
			<g id="kvg:052c9-g6">
				<path id="kvg:052c9-s8" d="M39.91,56.12c0.92,0.92,1.68,2.75,1.68,4.54c0,8.4-0.24,16.83-0.24,22.54c0,10.8,2.77,12.58,24.54,12.58c25.61,0,26.5-3.28,26.5-9.36"/>
			</g>
		</g>
	</g>
	<g id="kvg:052c9-g7">
		<path id="kvg:052c9-s9" d="M62.3,45.98c2.32,0.65,4.04,0.46,5.7,0.15c6.41-1.19,16.11-3.58,20.75-4.34c3.27-0.54,4.42,0.55,4.44,3.76c0.05,7.95-8.84,28.87-12.67,32.88c-3,3.14-3.59,1.4-6.4-1.05"/>
		<path id="kvg:052c9-s10" d="M77.26,22.75c0.74,1.38,0.78,2.97,0.52,5c-1.9,15.4-8.49,38.66-23.43,53.45"/>
	</g>
</g>
</g>
<g id="kvg:StrokeNumbers_052c9">
	<text transform="matrix(1 0 0 1 26.25 10.63)">1</text>
	<text transform="matrix(1 0 0 1 39.75 16.94)">2</text>
	<text transform="matrix(1 0 0 1 12.75 48.13)">3</text>
	<text transform="matrix(1 0 0 1 24.75 34.63)">4</text>
	<text transform="matrix(1 0 0 1 41.25 46.63)">5</text>
	<text transform="matrix(1 0 0 1 26.25 51.13)">6</text>
	<text transform="matrix(1 0 0 1 21.75 69.13)">7</text>
	<text transform="matrix(1 0 0 1 45.75 66.13)">8</text>
	<text transform="matrix(1 0 0 1 62.25 42.13)">9</text>
	<text transform="matrix(1 0 0 1 71.25 17.89)">10</text>
</g>
</svg>
