<svg width="109" height="109" viewBox="0 0 109 109">
<g id="kvg:StrokePaths_052f2">
<g id="kvg:052f2">
	<g id="kvg:052f2-g1">
		<g id="kvg:052f2-g2">
			<g id="kvg:052f2-g3">
				<g id="kvg:052f2-g4">
					<path id="kvg:052f2-s1" d="M49.29,13.14c0,1.24-1.44,2.18-2.06,2.54c-3.81,2.16-11.99,5.23-24.81,8.21"/>
				</g>
				<g id="kvg:052f2-g5">
					<path id="kvg:052f2-s2" d="M14.97,30.29c2.43,0.3,4.76,0.15,7.17-0.18c7.99-1.1,18.77-2.15,26.5-2.94c2.58-0.26,5.07-0.6,7.64-0.09"/>
				</g>
			</g>
			<g id="kvg:052f2-g6">
				<path id="kvg:052f2-s3" d="M20.29,38.85c0.68,0.68,1.15,1.63,1.32,2.51c1.02,5.52,1.49,8.6,2.25,13.34c0.26,1.6,0.47,3.15,0.63,4.53"/>
				<path id="kvg:052f2-s4" d="M22.2,40.16c10.21-1.86,19.18-3.17,27.18-4.1c3.52-0.41,5.76,0.13,5.11,4.31c-0.43,2.74-1.12,6.6-1.88,10.69c-0.27,1.46-0.55,2.92-0.81,4.29"/>
				<path id="kvg:052f2-s5" d="M23.74,47.85c2.83-0.41,24.76-3.23,28.72-3.23"/>
				<path id="kvg:052f2-s6" d="M25.35,56.85c9.23-1.62,17.09-2.53,25.72-3.37"/>
				<g id="kvg:052f2-g7">
					<g id="kvg:052f2-g8">
						<path id="kvg:052f2-s7" d="M37.08,22.38c0.64,0.64,1.03,1.75,1.03,3.02c0,0.72-0.12,40.21-0.12,46.73"/>
					</g>
				</g>
				<path id="kvg:052f2-s8" d="M22.57,66.52c1.53,0.53,3.91,0.18,5.46-0.08c7.73-1.32,14.35-2.94,18.98-3.82c1.03-0.2,2.62-0.35,3.14-0.25"/>
				<path id="kvg:052f2-s9" d="M18.7,77.2c0.8,0.93,1.82,1.51,3.86,0.89c10.44-3.21,14.19-4.33,27.35-8.41"/>
			</g>
		</g>
		<g id="kvg:052f2-g9">
			<path id="kvg:052f2-s10" d="M61.97,34.72c2.03,0.53,4.48,0.81,6.27,0.47c6.86-1.31,15.93-3.2,20.63-3.99c4.92-0.83,5.51,1.51,4.88,5.93c-1.3,9.07-6.12,27.25-10.59,34.55c-3.78,6.17-5.4,2.7-7.06-0.05"/>
			<path id="kvg:052f2-s11" d="M77.14,15.17c0.86,1.21,0.83,2.29,0.52,4.24c-2.29,14.35-5.91,37.35-20.29,53"/>
		</g>
	</g>
	<g id="kvg:052f2-g10">
		<path id="kvg:052f2-s12" d="M23.19,83.71c0,5.18-3.92,12.82-4.94,14.29"/>
		<path id="kvg:052f2-s13" d="M40.52,82.57c2.45,2.62,4.78,9.84,5.39,13.93"/>
		<path id="kvg:052f2-s14" d="M61.17,82.46c2.27,2.56,5.86,10.55,6.43,14.54"/>
		<path id="kvg:052f2-s15" d="M81.88,82.38c3.59,2.53,9.28,10.42,10.18,14.36"/>
	</g>
</g>
</g>
<g id="kvg:StrokeNumbers_052f2">
	<text transform="matrix(1 0 0 1 41.25 12.13)">1</text>
	<text transform="matrix(1 0 0 1 8.25 31.63)">2</text>
	<text transform="matrix(1 0 0 1 14.25 46.55)">3</text>
	<text transform="matrix(1 0 0 1 21.75 37.50)">4</text>
	<text transform="matrix(1 0 0 1 27.50 45.50)">5</text>
	<text transform="matrix(1 0 0 1 27.50 54.50)">6</text>
	<text transform="matrix(1 0 0 1 31.50 27.50)">7</text>
	<text transform="matrix(1 0 0 1 15.75 67.63)">8</text>
	<text transform="matrix(1 0 0 1 11.25 79.55)">9</text>
	<text transform="matrix(1 0 0 1 60.75 32.50)">10</text>
	<text transform="matrix(1 0 0 1 65.25 15.13)">11</text>
	<text transform="matrix(1 0 0 1 12.50 88.63)">12</text>
	<text transform="matrix(1 0 0 1 31.50 86.50)">13</text>
	<text transform="matrix(1 0 0 1 51.50 86.50)">14</text>
	<text transform="matrix(1 0 0 1 71.50 86.50)">15</text>
</g>
</svg>
