<svg width="109" height="109" viewBox="0 0 109 109">
<g id="kvg:StrokePaths_05317">
<g id="kvg:05317">
	<g id="kvg:05317-g1">
		<path id="kvg:05317-s1" d="M13.25,48.75c2.61,0.5,3.52,0.51,6.12,0.25c3.76-0.38,14.13-3.38,17.63-3.75"/>
		<path id="kvg:05317-s2" d="M37.25,21.5c1.19,1.19,2,3.25,2,4.75c0,1,0.25,48,0.25,50.75"/>
		<path id="kvg:05317-s3" d="M12.75,88.75c1.88,1.12,4.29,0.87,6.5-0.25C32.5,81.75,36.5,80,43.5,76.25"/>
	</g>
	<g id="kvg:05317-g2">
		<path id="kvg:05317-s4" d="M90.25,33c-0.25,1.75-1.13,3.26-2.19,4.07C82.12,41.62,73.75,46.5,65,49.75"/>
		<path id="kvg:05317-s5" d="M60.37,19.5c1.38,1.5,1.91,3.25,1.91,5.3c0,1.12-0.28,33.71-0.28,47.7c0,14,2,15.75,17.25,15.75c15.5,0,16.5-1.5,16.5-12.49"/>
	</g>
</g>
</g>
<g id="kvg:StrokeNumbers_05317">
	<text transform="matrix(1 0 0 1 7.50 51.50)">1</text>
	<text transform="matrix(1 0 0 1 27.75 22.50)">2</text>
	<text transform="matrix(1 0 0 1 3.50 90.50)">3</text>
	<text transform="matrix(1 0 0 1 81.50 32.50)">4</text>
	<text transform="matrix(1 0 0 1 52.50 20.50)">5</text>
</g>
</svg>
