<svg width="109" height="109" viewBox="0 0 109 109">
<g id="kvg:StrokePaths_0531d">
<g id="kvg:0531d">
	<g id="kvg:0531d-g1">
		<path id="kvg:0531d-s1" d="M19.88,20.54c4.06,0.52,8.1,0.54,12.12,0.07c14.5-1.35,31.1-2.52,47.5-3.29c3.2-0.15,6.39,0.35,9.57,0.72"/>
	</g>
	<g id="kvg:0531d-g2">
		<path id="kvg:0531d-s2" d="M37.31,40.71c0.8,0.8,1.21,1.91,1.21,3.15c0,0.48,0.05,15.14,0.07,24.14c0.01,2.59,0.01,4.65,0.01,5.67"/>
		<path id="kvg:0531d-s3" d="M39.49,42.25c13.86-1.7,24.14-2.93,35.89-3.99c2.7-0.24,4.55,1.18,4.63,3.99c0.21,7.52,0.33,16.56-0.47,24.38c-0.66,6.5-2.04,6.5-6.16,1.92"/>
		<path id="kvg:0531d-s4" d="M56.92,24.61c0.92,0.92,1.21,2.26,1.21,3.65c0,0.47,0.05,31.59,0.07,47.99c0.01,5.09,0.01,8.76,0.01,9.66"/>
	</g>
	<g id="kvg:0531d-g3">
		<path id="kvg:0531d-s5" d="M22.58,21.96c0.98,0.98,1,2.41,1,3.91c0,14.75,0,61.03,0,64.11c0,2.99,0.98,3.91,3.66,3.74c9.58-0.63,39.01-1.99,51.01-2.37c4.26-0.13,8.51,0.28,12.75,0.83"/>
	</g>
</g>
</g>
<g id="kvg:StrokeNumbers_0531d">
	<text transform="matrix(1 0 0 1 22.50 17.50)">1</text>
	<text transform="matrix(1 0 0 1 30.50 48.55)">2</text>
	<text transform="matrix(1 0 0 1 41.50 38.50)">3</text>
	<text transform="matrix(1 0 0 1 48.50 29.50)">4</text>
	<text transform="matrix(1 0 0 1 16.50 29.33)">5</text>
</g>
</svg>
