<svg width="109" height="109" viewBox="0 0 109 109">
<g id="kvg:StrokePaths_05349">
<g id="kvg:05349">
	<g id="kvg:05349-g1">
		<path id="kvg:05349-s1" d="M24.89,30.46c1.1,0.39,3.11,0.49,4.2,0.39c13.93-1.28,42.08-4.34,51.69-4.5c1.83-0.03,2.92,0.19,3.84,0.38"/>
		<g id="kvg:05349-g2">
			<path id="kvg:05349-s2" d="M53.27,11.88c0.38,0.3,1.19,2.27,1.26,2.87c0.08,0.61-0.05,30.6-0.13,34.38"/>
		</g>
	</g>
	<g id="kvg:05349-g3">
		<g id="kvg:05349-g4">
			<path id="kvg:05349-s3" d="M13.88,59.98c1.52,0.54,4.3,0.63,5.82,0.54c15.8-0.91,50.55-5.27,70.61-5.73c2.53-0.06,4.05,0.26,5.31,0.53"/>
		</g>
		<g id="kvg:05349-g5">
			<path id="kvg:05349-s4" d="M37.61,45c0.66,1.21,1.28,2.47,1.34,4.23c0.53,16.09-2.12,38.99-19.7,47.77"/>
		</g>
		<g id="kvg:05349-g6">
			<path id="kvg:05349-s5" d="M70.87,41.75c0.7,0.72,1.96,1.75,1.96,3.25c0,6.75,0,45.75-0.22,52"/>
		</g>
	</g>
</g>
</g>
<g id="kvg:StrokeNumbers_05349">
	<text transform="matrix(1 0 0 1 18.50 30.50)">1</text>
	<text transform="matrix(1 0 0 1 44.50 12.50)">2</text>
	<text transform="matrix(1 0 0 1 6.50 61.50)">3</text>
	<text transform="matrix(1 0 0 1 28.50 45.50)">4</text>
	<text transform="matrix(1 0 0 1 62.50 42.50)">5</text>
</g>
</svg>
