<svg width="109" height="109" viewBox="0 0 109 109">
<g id="kvg:StrokePaths_05347">
<g id="kvg:05347">
	<g id="kvg:05347-g1">
		<path id="kvg:05347-s1" d="M45.8,13.25c-0.17,1.75-0.64,2.71-1.91,3.87C38.25,22.25,29.75,28,19.75,32.29"/>
	</g>
	<g id="kvg:05347-g2">
		<g id="kvg:05347-g3">
			<path id="kvg:05347-s2" d="M39.61,26c1.01,1.01,1.51,2.17,1.59,4.43C42,53.25,40,77.5,21.5,92.5"/>
		</g>
		<g id="kvg:05347-g4">
			<path id="kvg:05347-s3" d="M12.88,52.73c4.12,0.77,8.17,0.52,11.65,0.02C43.75,50,65,46.25,85.51,44.35c4.36-0.4,8.12-0.35,11.37,0.22"/>
			<path id="kvg:05347-s4" d="M67.12,12c1.44,1.44,1.71,3.5,1.71,5.5c0,8.66-0.06,50.24-0.08,74.5c0,3.06,0,5.84,0,8.25"/>
		</g>
	</g>
</g>
</g>
<g id="kvg:StrokeNumbers_05347">
	<text transform="matrix(1 0 0 1 37.50 12.50)">1</text>
	<text transform="matrix(1 0 0 1 32.50 35.50)">2</text>
	<text transform="matrix(1 0 0 1 4.50 54.50)">3</text>
	<text transform="matrix(1 0 0 1 57.50 12.50)">4</text>
</g>
</svg>
