<svg width="109" height="109" viewBox="0 0 109 109">
<g id="kvg:StrokePaths_05378">
<g id="kvg:05378">
	<g id="kvg:05378-g1">
		<g id="kvg:05378-g2">
			<g id="kvg:05378-g3">
				<path id="kvg:05378-s1" d="M31.09,12.75c0.08,1.2,0.02,2.14-0.4,3.27c-2.98,8-7.21,14.51-14.69,22.27"/>
				<g id="kvg:05378-g4">
					<path id="kvg:05378-s2" d="M28.25,28.64c1.88,0.11,2.64-0.18,4.14-0.47c5.36-1.04,11.19-2.2,15.5-3.12c1.46-0.31,3.61-0.68,4.86-0.29"/>
				</g>
			</g>
			<g id="kvg:05378-g5">
				<g id="kvg:05378-g6">
					<g id="kvg:05378-g7">
						<path id="kvg:05378-s3" d="M15.25,46.75c2.62,0.5,5.31,0.09,7.77-0.41c7.59-1.53,20.04-4.02,27.5-5.18c2.54-0.39,5.18-0.88,7.72-0.26"/>
						<g id="kvg:05378-g8">
							<g id="kvg:05378-g9">
								<path id="kvg:05378-s4" d="M37.12,30.5c0.94,0.94,1.21,2.25,1.21,3.75c0,1.02,0.03,36.12,0.03,44"/>
							</g>
						</g>
					</g>
				</g>
			</g>
		</g>
		<g id="kvg:05378-g10">
			<g id="kvg:05378-g11">
				<g id="kvg:05378-g12">
					<path id="kvg:05378-s5" d="M39.38,56.75c4.03-0.87,7.28-1.56,10.49-2.22C51.53,54.2,53.3,53.61,55,54"/>
				</g>
			</g>
			<path id="kvg:05378-s6" d="M22.62,57.75c1,1,1.21,2.25,1.21,3.75c0,1.02,0.03,16.62,0.03,23.75"/>
			<path id="kvg:05378-s7" d="M18.5,86.88c0.41,0.95,2.11,1.41,3.12,0.85C28.75,83.75,49,73.75,55,70.25"/>
		</g>
	</g>
	<g id="kvg:05378-g13">
		<path id="kvg:05378-s8" d="M64,26.33c0.83,0.21,2.49,0.2,4.15,0s18.13-4.08,20.21-4.28s5.19-0.42,5.4,3.94c0.1,2.08-0.86,27.56-3.02,37.09c-2.08,9.13-7.89,1.04-8.51,0.62"/>
		<path id="kvg:05378-s9" d="M66.08,27c0.96,0.96,1.31,2.12,1.31,3.25c0,7.78-0.01,45.27-0.01,61.12c0,3.63,0,6.13,0,6.88"/>
	</g>
</g>
</g>
<g id="kvg:StrokeNumbers_05378">
	<text transform="matrix(1 0 0 1 23.50 14.50)">1</text>
	<text transform="matrix(1 0 0 1 35.25 24.50)">2</text>
	<text transform="matrix(1 0 0 1 20.25 43.50)">3</text>
	<text transform="matrix(1 0 0 1 30.75 37.40)">4</text>
	<text transform="matrix(1 0 0 1 42.75 52.33)">5</text>
	<text transform="matrix(1 0 0 1 13.50 60.50)">6</text>
	<text transform="matrix(1 0 0 1 12.25 90.68)">7</text>
	<text transform="matrix(1 0 0 1 68.25 22.63)">8</text>
	<text transform="matrix(1 0 0 1 60.75 37.55)">9</text>
</g>
</svg>
