<svg width="109" height="109" viewBox="0 0 109 109">
<g id="kvg:StrokePaths_05375">
<g id="kvg:05375">
	<g id="kvg:05375-g1">
		<g id="kvg:05375-g2">
			<path id="kvg:05375-s1" d="M40.32,15.25c0.13,0.78-0.24,1.68-0.71,2.22c-3.83,4.42-8.62,8.41-16.86,12.57"/>
			<path id="kvg:05375-s2" d="M18.87,30.51c0.81,0.81,1.03,2.11,1.03,3.49c0,3.88-0.08,23.12-0.08,27.22c0,3.53,1.38,3.93,3.51,2.87C27.5,62,36.75,57.75,44,54.25"/>
		</g>
		<g id="kvg:05375-g3">
			<path id="kvg:05375-s3" d="M29.02,38.33c2.31,1.92,5.97,7.9,6.54,10.88"/>
		</g>
		<g id="kvg:05375-g4">
			<g id="kvg:05375-g5">
				<path id="kvg:05375-s4" d="M44.47,30.68c0.78,0.82,1.17,2.03,1.17,4.14c0,16.44,0.36,42.94-15.75,58.84"/>
			</g>
		</g>
		<g id="kvg:05375-g6">
			<path id="kvg:05375-s5" d="M61.75,25.99c1.12,0.51,2.56,1.38,4.28,1.28c4.84-0.28,20.76-2.89,22.9-3.1c2.14-0.21,5.35-0.43,5.56,4.07c0.1,2.15-1.7,26.56-3.92,36.38C88,76,83.94,66.69,83.3,66.26"/>
			<g id="kvg:05375-g7">
				<path id="kvg:05375-s6" d="M73.52,38.96c2.6,2.17,6.71,8.92,7.36,12.29"/>
			</g>
			<path id="kvg:05375-s7" d="M62.97,27.11c0.96,0.96,1.25,2.49,1.26,3.63c0.02,10.15-0.01,39.72-0.11,55.01c-0.03,4.38-0.06,7.56-0.1,8.75"/>
		</g>
	</g>
</g>
</g>
<g id="kvg:StrokeNumbers_05375">
	<text transform="matrix(1 0 0 1 32.50 14.50)">1</text>
	<text transform="matrix(1 0 0 1 12.50 37.63)">2</text>
	<text transform="matrix(1 0 0 1 23.50 37.63)">3</text>
	<text transform="matrix(1 0 0 1 36.50 37.63)">4</text>
	<text transform="matrix(1 0 0 1 66.50 23.50)">5</text>
	<text transform="matrix(1 0 0 1 67.50 38.50)">6</text>
	<text transform="matrix(1 0 0 1 56.25 34.50)">7</text>
</g>
</svg>
