<svg width="109" height="109" viewBox="0 0 109 109">
<g id="kvg:StrokePaths_053ce">
<g id="kvg:053ce">
	<g id="kvg:053ce-g1">
		<g id="kvg:053ce-g2">
			<path id="kvg:053ce-s1" d="M32.87,15.75c1.09,0.5,1.74,2.25,1.96,3.25c0.22,1,0,72.75-0.22,79"/>
		</g>
		<path id="kvg:053ce-s2" d="M15.5,32.5c1.5,1.75,1.39,2.5,1.39,5c0,11.82-0.45,27.69-0.45,29.69s1.65,3.14,3.74,1.64s11.5-7.34,14.28-8.84"/>
	</g>
	<g id="kvg:053ce-g3">
		<path id="kvg:053ce-s3" d="M53.05,30.11c1.32,0.42,2.96,0.68,5.64,0.17c4.19-0.79,16.89-4.79,18.75-5.3c2.69-0.73,4.45,0.86,3.48,4.43C74.25,54,67.25,71.38,46.26,86.25"/>
		<path id="kvg:053ce-s4" d="M49.98,41.91c4.63,0.87,20.72,23.24,33.14,37.71c2.25,2.62,5,5.12,8.62,7.64"/>
	</g>
</g>
</g>
<g id="kvg:StrokeNumbers_053ce">
	<text transform="matrix(1 0 0 1 23.25 16.63)">1</text>
	<text transform="matrix(1 0 0 1 8.25 42.13)">2</text>
	<text transform="matrix(1 0 0 1 52.50 27.50)">3</text>
	<text transform="matrix(1 0 0 1 55.50 44.50)">4</text>
</g>
</svg>
