<svg width="109" height="109" viewBox="0 0 109 109">
<g id="kvg:StrokePaths_053cb">
<g id="kvg:053cb">
	<path id="kvg:053cb-s1" d="M17.88,37.23c2.13,0.54,5.78,0.58,7.89,0.29c17.48-2.39,35.98-4.39,54.65-5.48c3.54-0.21,5.68,0.01,7.46,0.28"/>
	<path id="kvg:053cb-s2" d="M48.22,14.14c0.53,2.11,0.53,4.3,0.31,6.73C47,38,33,72.5,15.5,85.25"/>
	<g id="kvg:053cb-g1">
		<path id="kvg:053cb-s3" d="M42.66,54.86c1.09,0.27,2.51,0.28,3.59,0.14c6.88-0.88,16.62-3.25,22.43-4.88c3.45-0.97,4.6,1.45,3.11,4.55C66.5,65.62,48.12,87.75,24,96.5"/>
		<path id="kvg:053cb-s4" d="M41.25,63.5c5.15,0.45,27.5,18.62,40.93,26.36c3.2,1.84,6.65,3.76,10.32,4.39"/>
	</g>
</g>
</g>
<g id="kvg:StrokeNumbers_053cb">
	<text transform="matrix(1 0 0 1 10.50 38.50)">1</text>
	<text transform="matrix(1 0 0 1 38.50 14.50)">2</text>
	<text transform="matrix(1 0 0 1 46.50 51.50)">3</text>
	<text transform="matrix(1 0 0 1 38.50 71.50)">4</text>
</g>
</svg>
