<svg width="109" height="109" viewBox="0 0 109 109">
<g id="kvg:StrokePaths_053e3">
<g id="kvg:053e3">
	<path id="kvg:053e3-s1" d="M22.25,33.25c1.25,1.25,2,2.88,2.26,4.43c1.16,7.03,3.15,23.61,4.68,37.85C29.46,78.09,29.73,80.6,30,83"/>
	<path id="kvg:053e3-s2" d="M25.29,35.67c17.46-2.17,41.59-5.04,55.49-5.93c3.94-0.25,6.33,2.72,5.72,5.14c-2.25,8.87-6.62,26.5-9,38.87"/>
	<path id="kvg:053e3-s3" d="M30.25,77.75c10.5-0.5,30.53-2.3,44.99-3.04c2.05-0.11,3.99-0.18,5.76-0.21"/>
</g>
</g>
<g id="kvg:StrokeNumbers_053e3">
	<text transform="matrix(1 0 0 1 15.50 40.50)">1</text>
	<text transform="matrix(1 0 0 1 28.50 30.50)">2</text>
	<text transform="matrix(1 0 0 1 34.50 72.50)">3</text>
</g>
</svg>
