<svg width="109" height="109" viewBox="0 0 109 109">
<g id="kvg:StrokePaths_053e9">
<g id="kvg:053e9">
	<g id="kvg:053e9-g1">
		<path id="kvg:053e9-s1" d="M13.75,29.79c0.47,0.51,0.94,0.94,1.15,1.58c1.62,5.07,4.05,18.54,5.16,27.63"/>
		<path id="kvg:053e9-s2" d="M16.65,31.22c11.77-2.22,19.79-3.56,25.25-4.23c2-0.24,3.19,1.44,2.91,2.87c-1.18,5.92-2.56,15.07-4.32,23.25"/>
		<path id="kvg:053e9-s3" d="M19.78,56.55c6.41-0.75,14.15-1.55,22.96-2.71"/>
	</g>
	<g id="kvg:053e9-g2">
		<path id="kvg:053e9-s4" d="M48.75,17.25c1,0.25,2.99,1.08,5,1C60,18,82.5,14.25,85,14s6.25-0.5,6.5,4.75c0.12,2.51,0.25,34.5-1.75,49.5C88.26,79.43,80.25,69.5,79.5,69"/>
		<path id="kvg:053e9-s5" d="M61.33,18.5c0.22,1,0,73.75-0.22,80"/>
	</g>
</g>
</g>
<g id="kvg:StrokeNumbers_053e9">
	<text transform="matrix(1 0 0 1 7.50 37.35)">1</text>
	<text transform="matrix(1 0 0 1 16.50 27.50)">2</text>
	<text transform="matrix(1 0 0 1 22.71 52.35)">3</text>
	<text transform="matrix(1 0 0 1 41.50 15.50)">4</text>
	<text transform="matrix(1 0 0 1 54.50 28.83)">5</text>
</g>
</svg>
