<svg width="109" height="109" viewBox="0 0 109 109">
<g id="kvg:StrokePaths_053e5">
<g id="kvg:053e5">
	<g id="kvg:053e5-g1">
		<g id="kvg:053e5-g2">
			<path id="kvg:053e5-s1" d="M39.5,11.25c0.06,0.9-0.17,2.14-0.63,3.38C36,22.5,27.38,37.12,15.75,48.38"/>
		</g>
		<path id="kvg:053e5-s2" d="M34.75,30.25c2.87,0.9,5.72,0.6,8.63,0.14c8.82-1.39,35.97-6.05,40.37-6.64c4.62-0.62,6.73,0.49,6.5,5.25c-0.5,10.25-4.5,45.25-14,64.75c-2.37,4.86-5.05,1.88-8-1.25"/>
	</g>
	<g id="kvg:053e5-g3">
		<path id="kvg:053e5-s3" d="M27.25,51.89c0.9,0.73,1.66,1.92,1.8,3.07c1.16,4.09,2.44,11.63,3.48,17.91c0.28,1.71,0.53,3.29,0.72,4.63"/>
		<path id="kvg:053e5-s4" d="M29.88,53.7c9.81-1.72,19.96-3.25,26.25-3.96c4.38-0.49,5.88,0.51,5.12,4.17c-0.99,4.83-2.61,9.93-4.32,16.46"/>
		<path id="kvg:053e5-s5" d="M33.98,74.08c5.95-0.57,13.67-1.69,21.76-2.63c1.27-0.15,2.54-0.29,3.82-0.43"/>
	</g>
</g>
</g>
<g id="kvg:StrokeNumbers_053e5">
	<text transform="matrix(1 0 0 1 30.50 12.13)">1</text>
	<text transform="matrix(1 0 0 1 43.50 26.50)">2</text>
	<text transform="matrix(1 0 0 1 22.50 61.50)">3</text>
	<text transform="matrix(1 0 0 1 30.49 49.50)">4</text>
	<text transform="matrix(1 0 0 1 36.49 70.33)">5</text>
</g>
</svg>
