<svg width="109" height="109" viewBox="0 0 109 109">
<g id="kvg:StrokePaths_053e8">
<g id="kvg:053e8">
	<g id="kvg:053e8-g1">
		<path id="kvg:053e8-s1" d="M13.25,32.79c0.37,0.51,0.76,0.94,0.92,1.58c1.29,5.07,3.34,19.04,4.23,28.13"/>
		<path id="kvg:053e8-s2" d="M15.58,35.22C25,33,33.12,32.16,37.49,31.49c1.6-0.24,2.56,1.44,2.33,2.87c-0.95,5.92-3.05,15.57-4.46,23.75"/>
		<path id="kvg:053e8-s3" d="M18.57,60.05c5.14-0.75,11.83-1.05,18.89-2.21"/>
	</g>
	<g id="kvg:053e8-g2">
		<path id="kvg:053e8-s4" d="M46.75,23.5c1.75,0.75,3.95,0.62,5.48,0.4c12.02-1.65,26.85-3.64,33.77-4.4c4.5-0.5,6.51,1.5,6.25,5c-1,13.25-7.5,51.25-14,64.25c-5.2,10.4-8.25,2-9.5-0.25"/>
		<path id="kvg:053e8-s5" d="M67.44,25.18c0.56,1.07,0.7,2.66,0.36,4.4C64.5,46.75,52.25,75,37.75,90.75"/>
	</g>
</g>
</g>
<g id="kvg:StrokeNumbers_053e8">
	<text transform="matrix(1 0 0 1 7.50 40.50)">1</text>
	<text transform="matrix(1 0 0 1 17.50 31.50)">2</text>
	<text transform="matrix(1 0 0 1 21.50 56.35)">3</text>
	<text transform="matrix(1 0 0 1 46.50 20.50)">4</text>
	<text transform="matrix(1 0 0 1 59.50 32.50)">5</text>
</g>
</svg>
