<svg width="109" height="109" viewBox="0 0 109 109">
<g id="kvg:StrokePaths_053f0">
<g id="kvg:053f0">
	<g id="kvg:053f0-g1">
		<path id="kvg:053f0-s1" d="M50.25,14.5c0.5,2-0.25,3.5-1.75,5.21c-9.59,10.93-15,16.79-23.75,26.36c-3.45,3.77-3.13,4.67,1.5,3.48C36.25,47,60.5,41.75,77,38.5"/>
		<path id="kvg:053f0-s2" d="M69,29.75C75.18,33.32,84.71,44.44,86.25,50"/>
	</g>
	<g id="kvg:053f0-g2">
		<path id="kvg:053f0-s3" d="M28.75,64.48c1.2,1.2,1.9,2.7,2.22,4.27c1.4,6.87,2.81,13.67,4.08,21.99c0.27,1.76,0.52,3.45,0.74,5.01"/>
		<path id="kvg:053f0-s4" d="M31,65.55c16.02-1.56,36.34-3.15,45.3-4.14c3.34-0.37,5.32,1.08,4.38,4.59c-1.76,6.58-3.5,16.65-5.02,23.28"/>
		<path id="kvg:053f0-s5" d="M36.37,92.75c11.39-0.66,24.26-1.37,35.4-1.98c1.74-0.09,3.55-0.05,5.42-0.06"/>
	</g>
</g>
</g>
<g id="kvg:StrokeNumbers_053f0">
	<text transform="matrix(1 0 0 1 42.50 12.50)">1</text>
	<text transform="matrix(1 0 0 1 65.50 26.50)">2</text>
	<text transform="matrix(1 0 0 1 22.50 73.50)">3</text>
	<text transform="matrix(1 0 0 1 32.50 62.50)">4</text>
	<text transform="matrix(1 0 0 1 39.50 89.50)">5</text>
</g>
</svg>
