<svg width="109" height="109" viewBox="0 0 109 109">
<g id="kvg:StrokePaths_053f8">
<g id="kvg:053f8">
	<path id="kvg:053f8-s1" d="M24.5,18.5c2.81,0.47,5.53,0.55,8.36,0.24C49.81,16.86,75.38,14.34,79.5,14c4.5-0.38,5.75,1.25,5.75,5c0,2.5,0.25,63.5,0.25,69.25c0,13.62-6.38,6.25-10.5,2.5"/>
	<g id="kvg:053f8-g1">
		<path id="kvg:053f8-s2" d="M26,39.96c1.91,0.65,4.07,0.28,6.02,0.08c6.49-0.67,18.39-2.28,24.98-2.77c1.87-0.14,3.65-0.2,5.5,0.17"/>
	</g>
	<g id="kvg:053f8-g2">
		<path id="kvg:053f8-s3" d="M25.75,56.66c0.82,0.67,1.53,2.03,1.63,3.09c0.87,3.36,1.47,9.16,2.07,14.14c0.15,1.27,0.31,2.49,0.47,3.6"/>
		<path id="kvg:053f8-s4" d="M28.59,58.35c9.64-1.76,21.62-3.46,27.44-4.15c2.95-0.35,4.88,0.76,4.07,3.96c-0.97,3.86-2.15,6.8-4.14,13.36"/>
		<path id="kvg:053f8-s5" d="M30.79,75.19c4.79-0.48,15.41-1.58,23.97-2.47c1.37-0.14,2.69-0.28,3.92-0.41"/>
	</g>
</g>
</g>
<g id="kvg:StrokeNumbers_053f8">
	<text transform="matrix(1 0 0 1 17.50 20.50)">1</text>
	<text transform="matrix(1 0 0 1 18.50 42.13)">2</text>
	<text transform="matrix(1 0 0 1 19.50 64.50)">3</text>
	<text transform="matrix(1 0 0 1 29.50 55.50)">4</text>
	<text transform="matrix(1 0 0 1 33.75 71.50)">5</text>
</g>
</svg>
