<svg width="109" height="109" viewBox="0 0 109 109">
<g id="kvg:StrokePaths_053f3">
<g id="kvg:053f3">
	<path id="kvg:053f3-s1" d="M53.5,21.5c0.62,1.12,0.69,2.23,0.25,4C49.62,42,39.5,61,25.25,74.25"/>
	<path id="kvg:053f3-s2" d="M13,42.15c1.9,0.56,5.9,0.52,7.79,0.34c23.41-2.24,49.76-5.74,67.67-6.3c3.24-0.1,6.45,0.31,9.17,0.81"/>
	<g id="kvg:053f3-g1">
		<path id="kvg:053f3-s3" d="M41.75,66.5c0.75,0.75,1.35,1.93,1.54,2.95c0.94,5,2.38,16.66,3.07,22.76c0.24,2.15,0.39,2.8,0.39,3.54"/>
		<path id="kvg:053f3-s4" d="M43.25,68c5.25-0.5,29.75-3.25,37-3.75c1.75-0.12,3.24,1.52,3,2.75c-1,5.12-3.38,18-4.5,23.25"/>
		<path id="kvg:053f3-s5" d="M47,93.25c5.79-0.2,19.51-1.58,28.25-2.23c2.21-0.17,4.18-0.27,5.75-0.27"/>
	</g>
</g>
</g>
<g id="kvg:StrokeNumbers_053f3">
	<text transform="matrix(1 0 0 1 47 20)">1</text>
	<text transform="matrix(1 0 0 1 8.25 40)">2</text>
	<text transform="matrix(1 0 0 1 37.25 78.63)">3</text>
	<text transform="matrix(1 0 0 1 45.75 64.50)">4</text>
	<text transform="matrix(1 0 0 1 51.75 89.43)">5</text>
</g>
</svg>
