<svg width="109" height="109" viewBox="0 0 109 109">
<g id="kvg:StrokePaths_0540a">
<g id="kvg:0540a">
	<g id="kvg:0540a-g1">
		<path id="kvg:0540a-s1" d="M31,12.6c0.5,0.47,1.02,0.86,1.24,1.45c1.75,4.66,3.01,12.94,5.04,20.91"/>
		<path id="kvg:0540a-s2" d="M32.14,13.71c11.36-0.96,36.17-2.03,42.55-2.69c2.33-0.24,3.73,2.43,3.4,3.85c-1.38,5.87-2.46,7.93-5.42,16.4"/>
		<path id="kvg:0540a-s3" d="M37.29,33.38C44.77,32.63,66.5,32.25,76,31.5"/>
	</g>
	<g id="kvg:0540a-g2">
		<path id="kvg:0540a-s4" d="M24.31,50.33c0.76,0.4,2.36,2.97,2.51,3.77c0.15,0.79,2.4,28.66,2.25,33.62"/>
		<path id="kvg:0540a-s5" d="M26.5,51.95c4.75-0.28,52.79-4.14,56.34-4.31c4.16-0.2,5.06,3.5,4.91,5.31c-0.75,9.12-1.57,20.34-4,29.27c-1.75,6.43-6.25,0.89-8.25-1.33"/>
		<path id="kvg:0540a-s6" d="M52.81,35.38c0.76,0.4,2.36,2.97,2.51,3.77c0.15,0.79-0.1,55.77-0.25,60.73"/>
	</g>
</g>
</g>
<g id="kvg:StrokeNumbers_0540a">
	<text transform="matrix(1 0 0 1 24.50 19.50)">1</text>
	<text transform="matrix(1 0 0 1 35.50 9.50)">2</text>
	<text transform="matrix(1 0 0 1 40.50 30.50)">3</text>
	<text transform="matrix(1 0 0 1 19.25 58.40)">4</text>
	<text transform="matrix(1 0 0 1 30.25 47.33)">5</text>
	<text transform="matrix(1 0 0 1 45.50 42.50)">6</text>
</g>
</svg>
