<svg width="109" height="109" viewBox="0 0 109 109">
<g id="kvg:StrokePaths_05404">
<g id="kvg:05404">
	<g id="kvg:05404-g1">
		<path id="kvg:05404-s1" d="M43.71,11.5c0.06,0.76,0.12,1.96-0.12,3.05c-1.44,6.43-9.72,20.54-21.06,29.17"/>
		<path id="kvg:05404-s2" d="M42.74,23.42c0.41,0.04,2.19,0.12,3.34-0.12c5.16-1.05,12.62-2.82,18.14-4.01c3.79-0.81,4.61,1.43,3.65,3.65C62.56,35.07,41.5,62.25,17.44,71.5"/>
		<path id="kvg:05404-s3" d="M37.71,28.93c5.79,5.32,29.16,23.45,41.36,32.01c3.23,2.27,6.51,4.69,10.3,5.81"/>
	</g>
	<g id="kvg:05404-g2">
		<path id="kvg:05404-s4" d="M34,71.73c1.06,1.09,1.26,1.9,1.6,3.27c1.09,4.44,2,12.24,2.79,18.77c0.17,1.38,0.33,2.71,0.49,3.93"/>
		<path id="kvg:05404-s5" d="M36.69,73.23c8.52-1.23,21.58-2.48,28.8-3.29c3.94-0.44,6.92-0.9,5.92,4.07c-1,4.96-2.42,11.07-3.85,17.36"/>
		<path id="kvg:05404-s6" d="M39.34,94.82c5.06-0.56,16.66-1.39,25.8-2.16c1.6-0.13,3.12-0.27,4.52-0.39"/>
	</g>
</g>
</g>
<g id="kvg:StrokeNumbers_05404">
	<text transform="matrix(1 0 0 1 35.50 12.50)">1</text>
	<text transform="matrix(1 0 0 1 50.50 19.50)">2</text>
	<text transform="matrix(1 0 0 1 38.50 41.50)">3</text>
	<text transform="matrix(1 0 0 1 28.50 80.91)">4</text>
	<text transform="matrix(1 0 0 1 38.50 69.50)">5</text>
	<text transform="matrix(1 0 0 1 42.50 91.50)">6</text>
</g>
</svg>
