<svg width="109" height="109" viewBox="0 0 109 109">
<g id="kvg:StrokePaths_0540d">
<g id="kvg:0540d">
	<g id="kvg:0540d-g1">
		<path id="kvg:0540d-s1" d="M54.2,12.64c0.3,1.61-0.07,2.99-0.69,4.24c-3.49,7.13-13.28,19.29-25.96,27.54"/>
		<path id="kvg:0540d-s2" d="M53.25,24.16c0.88,0.47,1.95,0.5,3.28,0.37c4.37-0.43,11.99-2.47,17.81-4.1c4.18-1.17,5.46,1.02,4.41,3.51C72.25,39.38,43.88,69.62,16,77.5"/>
		<path id="kvg:0540d-s3" d="M43.62,40.88c3.62,2,8,6,9.68,9.58"/>
	</g>
	<g id="kvg:0540d-g2">
		<path id="kvg:0540d-s4" d="M42,67.81c0.91,0.91,1.62,2.19,1.83,3.33c0.5,2.82,2.15,14.38,3.05,20.86c0.3,2.12,0.52,3.7,0.59,4.25"/>
		<path id="kvg:0540d-s5" d="M44.53,69.52c10.82-1.38,32.39-4.4,38.01-4.53c2.76-0.06,4.08,1.63,3.25,4.64c-1.13,4.06-3.52,14.04-4.64,20.36"/>
		<path id="kvg:0540d-s6" d="M47.99,93.99c7.26-0.61,19.65-1.61,29.54-2.37c2.19-0.17,4.24-0.28,6.04-0.31"/>
	</g>
</g>
</g>
<g id="kvg:StrokeNumbers_0540d">
	<text transform="matrix(1 0 0 1 46.50 12.50)">1</text>
	<text transform="matrix(1 0 0 1 60.50 20.50)">2</text>
	<text transform="matrix(1 0 0 1 38.50 48.50)">3</text>
	<text transform="matrix(1 0 0 1 37.50 77.50)">4</text>
	<text transform="matrix(1 0 0 1 54.50 64.50)">5</text>
	<text transform="matrix(1 0 0 1 50.50 90.50)">6</text>
</g>
</svg>
