<svg width="109" height="109" viewBox="0 0 109 109">
<g id="kvg:StrokePaths_05420">
<g id="kvg:05420">
	<g id="kvg:05420-g1">
		<path id="kvg:05420-s1" d="M10.75,38.89c0.38,0.4,0.78,0.73,0.95,1.23c1.33,3.94,2.93,14.81,3.85,21.89"/>
		<path id="kvg:05420-s2" d="M13.15,40.78c9.72-1.73,16.51-2.77,21.02-3.29c1.65-0.19,2.64,1.12,2.4,2.23c-0.98,4.6-2.62,10.72-4.07,17.09"/>
		<path id="kvg:05420-s3" d="M15.73,60.1c5.29-0.59,12.19-1.82,19.46-2.72"/>
	</g>
	<g id="kvg:05420-g2">
		<g id="kvg:05420-g3">
			<path id="kvg:05420-s4" d="M43.4,45.27c0.72,0.35,3.18,0.79,4.57,0.58c7.28-1.07,32.46-4.28,41.23-5.02c1-0.08,2.42,0.14,4.66,0.74"/>
			<path id="kvg:05420-s5" d="M62.5,14.25c1.02,1.18,1.65,2.35,1.78,4.7c1.8,30.67-3.54,64.55-35.79,78.55"/>
			<path id="kvg:05420-s6" d="M65.06,45c6.4,14.1,18.85,37.96,27.02,48.03c2.15,2.64,2.93,2.98,3.92,3.22"/>
		</g>
		<g id="kvg:05420-g4">
			<path id="kvg:05420-s7" d="M77.41,20c6.09,3.61,7.75,6.36,9.64,9.75"/>
		</g>
	</g>
</g>
</g>
<g id="kvg:StrokeNumbers_05420">
	<text transform="matrix(1 0 0 1 4.50 41.50)">1</text>
	<text transform="matrix(1 0 0 1 14.50 37.50)">2</text>
	<text transform="matrix(1 0 0 1 18.71 56.50)">3</text>
	<text transform="matrix(1 0 0 1 43.50 42.50)">4</text>
	<text transform="matrix(1 0 0 1 53.50 13.50)">5</text>
	<text transform="matrix(1 0 0 1 72.50 54.50)">6</text>
	<text transform="matrix(1 0 0 1 74.50 16.50)">7</text>
</g>
</svg>
