<svg width="109" height="109" viewBox="0 0 109 109">
<g id="kvg:StrokePaths_0543e">
<g id="kvg:0543e">
	<g id="kvg:0543e-g1">
		<g id="kvg:0543e-g2">
			<g id="kvg:0543e-g3">
				<path id="kvg:0543e-s1" d="M28.88,18.24c2.38,0.38,4.9,0.48,7.15,0.25c9.85-0.99,24.48-2.35,35.1-2.68c2.29-0.07,5.37,0.04,7.63,0.46"/>
			</g>
		</g>
		<path id="kvg:0543e-s2" d="M53.24,20c0.38,1,0.13,2.25-0.21,3.39c-1.56,5.15-7.15,24.74-9.53,31.36"/>
		<path id="kvg:0543e-s3" d="M30.23,37.96c1.64,0.91,4.46,0.88,6.02,0.65c11.64-1.7,26.25-3.99,34.44-4.34c2.14-0.09,3.44,1.35,3,3.24c-1.01,4.42-2.82,12.61-3.94,16.48"/>
		<g id="kvg:0543e-g4">
			<path id="kvg:0543e-s4" d="M12.63,57.98c2.94,0.82,6.37,0.69,9.38,0.45c14.37-1.12,44.86-3.19,63.61-3.83c3.55-0.12,6.98-0.08,10.5,0.5"/>
		</g>
	</g>
	<g id="kvg:0543e-g5">
		<path id="kvg:0543e-s5" d="M32.6,70.5c0.53,0.75,0.9,1.75,1.2,3.27c1.01,5.1,2.38,15,3.2,21.48"/>
		<path id="kvg:0543e-s6" d="M34.73,72.59c8.03-0.97,25.84-2.62,33.39-3.35c3.51-0.34,5.7-0.06,4.73,4.04c-1.11,4.69-2.68,9.71-4.14,16.2"/>
		<path id="kvg:0543e-s7" d="M38.19,92.16c6.47-0.33,19.99-1.2,28.96-1.66c2.2-0.11,4.13-0.2,5.61-0.25"/>
	</g>
</g>
</g>
<g id="kvg:StrokeNumbers_0543e">
	<text transform="matrix(1 0 0 1 21.25 18.25)">1</text>
	<text transform="matrix(1 0 0 1 44.25 28.25)">2</text>
	<text transform="matrix(1 0 0 1 22.25 38.88)">3</text>
	<text transform="matrix(1 0 0 1 5.25 60.25)">4</text>
	<text transform="matrix(1 0 0 1 26.25 79.25)">5</text>
	<text transform="matrix(1 0 0 1 35.25 68.88)">6</text>
	<text transform="matrix(1 0 0 1 40.25 88.38)">7</text>
</g>
</svg>
