<svg width="109" height="109" viewBox="0 0 109 109">
<g id="kvg:StrokePaths_05446">
<g id="kvg:05446">
	<g id="kvg:05446-g1">
		<path id="kvg:05446-s1" d="M29.75,16.79c0.5,0.46,1.01,0.85,1.22,1.43c1.72,4.59,4.29,16.77,5.47,25.02"/>
		<path id="kvg:05446-s2" d="M31.35,18.9c13.15-1.4,38.04-3.55,43.86-4.15c2.13-0.22,3.41,1.31,3.1,2.6c-1.26,5.37-2.73,12.85-4.61,20.27"/>
		<path id="kvg:05446-s3" d="M36.67,41.21c6.84-0.68,29.77-1.86,39.16-2.91"/>
	</g>
	<g id="kvg:05446-g2">
		<path id="kvg:05446-s4" d="M19.15,59.08c1.55,0,3.89,0.32,5.96,0.2c9.4-0.53,46.3-3.04,60.54-4.06c2.06-0.15,2.59-0.2,3.89,0"/>
		<path id="kvg:05446-s5" d="M52.25,46.25c1.25,0.5,2.25,3.22,2.25,4.25c0,7,0,42.75-0.25,49"/>
		<path id="kvg:05446-s6" d="M52.28,58.68C45.81,69.44,28.97,84.66,15.5,90.75"/>
		<path id="kvg:05446-s7" d="M55.21,58.48c4.92,4.26,26.51,24.42,31.86,28.62c1.81,1.42,3.37,2.03,5.18,2.44"/>
	</g>
</g>
</g>
<g id="kvg:StrokeNumbers_05446">
	<text transform="matrix(1 0 0 1 24.50 25.50)">1</text>
	<text transform="matrix(1 0 0 1 34.50 15.50)">2</text>
	<text transform="matrix(1 0 0 1 40.25 38.50)">3</text>
	<text transform="matrix(1 0 0 1 19.50 56.50)">4</text>
	<text transform="matrix(1 0 0 1 45.25 49.33)">5</text>
	<text transform="matrix(1 0 0 1 37.25 67.25)">6</text>
	<text transform="matrix(1 0 0 1 68.50 66.18)">7</text>
</g>
</svg>
