<svg width="109" height="109" viewBox="0 0 109 109">
<g id="kvg:StrokePaths_05451">
<g id="kvg:05451">
	<g id="kvg:05451-g1">
		<g id="kvg:05451-g2">
			<path id="kvg:05451-s1" d="M66.45,12.89c0.11,0.4,0.2,1.02-0.21,1.62C62.76,19.6,48.8,27.22,29.06,29.98"/>
		</g>
		<g id="kvg:05451-g3">
			<g id="kvg:05451-g4">
				<path id="kvg:05451-s2" d="M15.38,44.11c0.99,0.33,3.53,0.5,4.62,0.46c12.65-0.54,51.51-6.09,67.37-6.22c1.37-0.01,3.32,0.13,6.39,0.69"/>
			</g>
			<path id="kvg:05451-s3" d="M53.1,26.95c0.6,0.69,0.41,2.58-0.11,3.99C44.75,53.25,34.25,65.5,15.25,75.5"/>
			<path id="kvg:05451-s4" d="M56,41.27c8.21,7.44,26.01,24.96,34.22,29.94c2.79,1.69,3.76,1.95,5.03,2.1"/>
		</g>
	</g>
	<g id="kvg:05451-g5">
		<path id="kvg:05451-s5" d="M33.75,71.52c0.51,0.44,1.03,0.8,1.26,1.34c1.77,4.32,3.89,16.23,5.1,23.99"/>
		<path id="kvg:05451-s6" d="M36.93,73.45c10.57-1.2,29.14-2.74,35.12-3.31c2.18-0.21,3.01,2.39,2.7,3.61c-1.29,5.04-3.32,12.97-5.25,19.95"/>
		<path id="kvg:05451-s7" d="M40.34,96.06c7.02-0.64,20.16-1.56,31.34-1.74"/>
	</g>
</g>
</g>
<g id="kvg:StrokeNumbers_05451">
	<text transform="matrix(1 0 0 1 58.50 13.50)">1</text>
	<text transform="matrix(1 0 0 1 7.50 45.13)">2</text>
	<text transform="matrix(1 0 0 1 44.50 35.50)">3</text>
	<text transform="matrix(1 0 0 1 69.50 50.50)">4</text>
	<text transform="matrix(1 0 0 1 29.25 82.63)">5</text>
	<text transform="matrix(1 0 0 1 38.50 69.50)">6</text>
	<text transform="matrix(1 0 0 1 44.25 92.50)">7</text>
</g>
</svg>
