<svg width="109" height="109" viewBox="0 0 109 109">
<g id="kvg:StrokePaths_05477">
<g id="kvg:05477">
	<g id="kvg:05477-g1">
		<path id="kvg:05477-s1" d="M10.75,34.79c0.37,0.51,0.76,0.94,0.92,1.58C12.96,41.43,15.01,52.9,15.9,62"/>
		<path id="kvg:05477-s2" d="M12.58,35.72c7.92-1.22,16.05-2.56,20.42-3.23c1.6-0.24,2.56,1.44,2.33,2.87c-0.95,5.92-2.55,11.57-3.96,19.75"/>
		<path id="kvg:05477-s3" d="M16.07,58.05c5.14-0.75,10.83-1.05,17.89-2.21"/>
	</g>
	<g id="kvg:05477-g2">
		<g id="kvg:05477-g3">
			<path id="kvg:05477-s4" d="M44.79,17.08c0.34,0.72,1.41,2.29,1.58,3.18c1.71,9.05,4.49,25.96,5.39,39.41"/>
			<path id="kvg:05477-s5" d="M46.95,18.74c13.15-1.66,34.99-4.05,44.03-4.76c3.32-0.26,5.32,1.28,5.2,4.31c-0.28,7.21-4.53,33.95-5.84,38.38"/>
			<path id="kvg:05477-s6" d="M49.16,37.47c3.95-0.35,41.64-3.54,44.9-3.54"/>
			<path id="kvg:05477-s7" d="M51.39,56.26c11.44-1.64,27.09-2.69,39.6-3.39"/>
		</g>
		<g id="kvg:05477-g4">
			<path id="kvg:05477-s8" d="M69.43,18.41c0.97,0.61,1.58,2.23,1.57,4.16c-0.03,9.83,0.33,73.69,0.33,76.89"/>
		</g>
	</g>
</g>
</g>
<g id="kvg:StrokeNumbers_05477">
	<text transform="matrix(1 0 0 1 5.85 42.50)">1</text>
	<text transform="matrix(1 0 0 1 14.50 32.50)">2</text>
	<text transform="matrix(1 0 0 1 18.50 54.50)">3</text>
	<text transform="matrix(1 0 0 1 39.50 25.50)">4</text>
	<text transform="matrix(1 0 0 1 49.50 15.50)">5</text>
	<text transform="matrix(1 0 0 1 53.50 34.50)">6</text>
	<text transform="matrix(1 0 0 1 55.50 52.50)">7</text>
	<text transform="matrix(1 0 0 1 62.50 26.50)">8</text>
</g>
</svg>
