<svg width="109" height="109" viewBox="0 0 109 109">
<g id="kvg:StrokePaths_05471">
<g id="kvg:05471">
	<g id="kvg:05471-g1">
		<path id="kvg:05471-s1" d="M11.25,33.29c0.37,0.51,0.76,0.94,0.92,1.58C13.46,39.93,15.01,53.9,15.9,63"/>
		<path id="kvg:05471-s2" d="M13.58,35.72c9.42-2.22,15.05-3.56,19.42-4.23c1.6-0.24,2.56,1.44,2.33,2.87c-0.95,5.92-2.05,15.07-3.46,23.25"/>
		<path id="kvg:05471-s3" d="M16.07,60.55c5.14-0.75,11.33-1.05,18.39-2.21"/>
	</g>
	<g id="kvg:05471-g2">
		<g id="kvg:05471-g3">
			<path id="kvg:05471-s4" d="M75,8c0.07,0.5-0.11,2.1-0.52,2.66c-5.14,7.03-12.37,12.82-25.78,18.49"/>
		</g>
		<path id="kvg:05471-s5" d="M45.24,28.21c0.35,0.82,0.9,2.26,0.99,4.6c0.96,24.32-0.63,52.82-12.19,64.41"/>
		<g id="kvg:05471-g4">
			<path id="kvg:05471-s6" d="M59.22,26.53c0.96,0.68,1.73,3.04,1.73,4.43c0,7.12-0.19,38.79-0.19,50.34"/>
			<path id="kvg:05471-s7" d="M48.72,86.22c0.65,0.68,1.93,1.98,3.29,1.25c7.23-3.88,12.69-7.37,20.42-11.67"/>
			<path id="kvg:05471-s8" d="M69.04,70.09c2.15,2.95,5.56,12.12,6.1,16.71"/>
		</g>
		<path id="kvg:05471-s9" d="M71.97,22c0.2,0,0.86,0.69,1.09,2.09c2.49,15.23,6.66,47.59,15.31,66.57c1.31,2.88,2.71,4.67,3.64,5.61"/>
	</g>
</g>
</g>
<g id="kvg:StrokeNumbers_05471">
	<text transform="matrix(1 0 0 1 5.35 40.35)">1</text>
	<text transform="matrix(1 0 0 1 14.16 29.35)">2</text>
	<text transform="matrix(1 0 0 1 17.21 55.35)">3</text>
	<text transform="matrix(1 0 0 1 68.75 9.90)">4</text>
	<text transform="matrix(1 0 0 1 38.75 35.83)">5</text>
	<text transform="matrix(1 0 0 1 55.25 34.75)">6</text>
	<text transform="matrix(1 0 0 1 50.75 85.68)">7</text>
	<text transform="matrix(1 0 0 1 69.75 68.60)">8</text>
	<text transform="matrix(1 0 0 1 77.75 26.53)">9</text>
</g>
</svg>
