<svg width="109" height="109" viewBox="0 0 109 109">
<g id="kvg:StrokePaths_0548c">
<g id="kvg:0548c">
	<g id="kvg:0548c-g1">
		<g id="kvg:0548c-g2">
			<path id="kvg:0548c-s1" d="M48.62,15.5c0.03,0.72-0.29,1.64-1.04,2.34c-3.33,3.12-13.46,7.99-26.82,11.41"/>
		</g>
		<g id="kvg:0548c-g3">
			<path id="kvg:0548c-s2" d="M12.94,45.38c2.31,0.62,5.12,0.6,7.56,0.27c8.62-1.15,19.25-3.15,28.62-4.27c1.65-0.2,4.24-0.12,5.88,0.33"/>
			<path id="kvg:0548c-s3" d="M37.39,27.2c0.96,0.96,1.51,1.93,1.51,2.8c0,2.94,0,43.09-0.07,58.99C38.81,92,38.8,94.14,38.78,95"/>
			<path id="kvg:0548c-s4" d="M38.03,44.02c0,1.23-0.26,2.66-0.54,3.39c-4.68,11.92-14.53,26.71-23.49,32.9"/>
			<path id="kvg:0548c-s5" d="M41.14,53.81c4.38,1.75,9.87,7.12,11.8,10.63"/>
		</g>
	</g>
	<g id="kvg:0548c-g4">
		<path id="kvg:0548c-s6" d="M60,47.19c0.97,0.97,1.52,2.14,1.76,3.43c1.26,6.69,2.17,15.52,3.12,23.48c0.17,1.41,0.33,2.8,0.49,4.14"/>
		<path id="kvg:0548c-s7" d="M62.44,48.81c11.87-1.69,21.33-2.94,27.06-3.67c2.81-0.36,4.46,0.83,3.89,3.77c-1.2,6.23-3.01,15.28-4.71,23.5"/>
		<path id="kvg:0548c-s8" d="M65.6,75.56c9.62-1.12,16.1-1.83,22.04-2.37c1.03-0.09,2.04-0.18,3.07-0.26"/>
	</g>
</g>
</g>
<g id="kvg:StrokeNumbers_0548c">
	<text transform="matrix(1 0 0 1 40.50 14.50)">1</text>
	<text transform="matrix(1 0 0 1 5.50 46.50)">2</text>
	<text transform="matrix(1 0 0 1 31.50 36.13)">3</text>
	<text transform="matrix(1 0 0 1 26.50 55.50)">4</text>
	<text transform="matrix(1 0 0 1 45.50 52.63)">5</text>
	<text transform="matrix(1 0 0 1 54.75 57.13)">6</text>
	<text transform="matrix(1 0 0 1 63.50 45.47)">7</text>
	<text transform="matrix(1 0 0 1 69.75 71.50)">8</text>
</g>
</svg>
