<svg width="109" height="109" viewBox="0 0 109 109">
<g id="kvg:StrokePaths_05480">
<g id="kvg:05480">
	<g id="kvg:05480-g1">
		<path id="kvg:05480-s1" d="M10.75,33.29c0.37,0.51,0.76,0.94,0.92,1.58C12.96,39.93,14.51,52.9,15.4,62"/>
		<path id="kvg:05480-s2" d="M13.08,35.22c3.17-0.97,16.05-2.56,20.42-3.23c1.6-0.24,2.56,1.44,2.33,2.87c-0.95,5.92-3.05,12.57-4.46,20.75"/>
		<path id="kvg:05480-s3" d="M15.57,58.55c5.14-0.75,11.33-1.05,18.39-2.21"/>
	</g>
	<g id="kvg:05480-g2">
		<g id="kvg:05480-g3">
			<path id="kvg:05480-s4" d="M49.96,16.59c0.59,1.03,0.98,2.05,1.18,3.06c0.2,1.01,0.43,69.08,0.36,71.31"/>
			<path id="kvg:05480-s5" d="M52.3,17.73c2.27-0.1,24.12-2.98,25.81-3.16c3.03-0.31,4.18,3.51,3.81,4.98c-0.36,1.41-0.18,48.21-0.29,68.39"/>
			<path id="kvg:05480-s6" d="M52.38,40.4c7.76-1,21.45-2.44,28.27-2.75"/>
			<path id="kvg:05480-s7" d="M52.84,63.86c6.06-0.36,20.32-1.76,27.33-1.81"/>
		</g>
		<g id="kvg:05480-g4">
			<path id="kvg:05480-s8" d="M33.54,92.29c1.42,0.53,4.04,0.61,5.46,0.53c14.83-0.88,42.21-3.54,57.14-3.54c2.38,0,3.8,0.25,4.99,0.51"/>
		</g>
	</g>
</g>
</g>
<g id="kvg:StrokeNumbers_05480">
	<text transform="matrix(1 0 0 1 4.50 41.50)">1</text>
	<text transform="matrix(1 0 0 1 14.66 31.50)">2</text>
	<text transform="matrix(1 0 0 1 18.50 54.50)">3</text>
	<text transform="matrix(1 0 0 1 43.50 23.50)">4</text>
	<text transform="matrix(1 0 0 1 54.50 13.50)">5</text>
	<text transform="matrix(1 0 0 1 56.50 36.50)">6</text>
	<text transform="matrix(1 0 0 1 56.50 60.50)">7</text>
	<text transform="matrix(1 0 0 1 31.50 89.50)">8</text>
</g>
</svg>
