<svg width="109" height="109" viewBox="0 0 109 109">
<g id="kvg:StrokePaths_0548e">
<g id="kvg:0548e">
	<g id="kvg:0548e-g1">
		<g id="kvg:0548e-g2">
			<path id="kvg:0548e-s1" d="M33.77,12.08c0.06,0.73,0.29,1.94-0.11,2.94c-3.1,7.68-10.03,19.13-19.75,28.71"/>
			<path id="kvg:0548e-s2" d="M31.6,22.57c0.33,0.04,1.76,0,2.71-0.11c3.14-0.35,11.46-2.59,15.94-3.68c3.08-0.75,3.95,0.85,3.16,2.89C49.11,32.81,34.67,58,13.77,68.7"/>
			<path id="kvg:0548e-s3" d="M24.98,34.91C35.42,35.16,62.33,55,84.33,63.31c3.46,1.31,6.22,2.05,9.57,2.46"/>
		</g>
		<g id="kvg:0548e-g3">
			<path id="kvg:0548e-s4" d="M76.09,14.81c0.05,0.63,0.11,1.62-0.1,2.52c-1.22,5.32-8.2,16.99-17.76,24.14"/>
			<path id="kvg:0548e-s5" d="M73.02,27.58c5.34,2.79,13.79,11.46,15.13,15.8"/>
		</g>
	</g>
	<g id="kvg:0548e-g4">
		<g id="kvg:0548e-g5">
			<path id="kvg:0548e-s6" d="M31.67,70.08c0.39,0.46,0.78,0.84,0.96,1.42c1.35,4.55,2.92,18.62,3.84,26.8"/>
			<path id="kvg:0548e-s7" d="M33.08,72.63c10.91-1.54,34.28-3.42,38.83-4.02c1.66-0.22,2.66,1.29,2.42,2.58c-0.98,5.32-3.21,14.26-4.67,21.61"/>
			<path id="kvg:0548e-s8" d="M36.65,95.32c5.34-0.68,27.88-1.79,35.21-2.83"/>
		</g>
	</g>
</g>
</g>
<g id="kvg:StrokeNumbers_0548e">
	<text transform="matrix(1 0 0 1 26.50 12.50)">1</text>
	<text transform="matrix(1 0 0 1 39.25 17.50)">2</text>
	<text transform="matrix(1 0 0 1 23.50 43.50)">3</text>
	<text transform="matrix(1 0 0 1 67.50 16.50)">4</text>
	<text transform="matrix(1 0 0 1 77.50 28.50)">5</text>
	<text transform="matrix(1 0 0 1 25.25 78.50)">6</text>
	<text transform="matrix(1 0 0 1 36.50 68.18)">7</text>
	<text transform="matrix(1 0 0 1 40.50 91.50)">8</text>
</g>
</svg>
