<svg width="109" height="109" viewBox="0 0 109 109">
<g id="kvg:StrokePaths_0548b">
<g id="kvg:0548b">
	<g id="kvg:0548b-g1">
		<path id="kvg:0548b-s1" d="M11.5,27.54c1.11,1.1,1.43,2.24,1.51,3.43c0.72,5.71,1.64,14.09,2.39,21.42c0.27,2.65,0.53,5.16,0.74,7.37"/>
		<path id="kvg:0548b-s2" d="M14.08,30.22c8.38-1.73,12.55-2.5,16.32-3.47c1.98-0.51,4.23,0.37,3.92,2.61c-0.8,5.94-2.05,14.07-3.46,22.25"/>
		<path id="kvg:0548b-s3" d="M16.57,54.8c3.84-0.56,7.77-1.15,12.41-1.79c1.57-0.22,3.22-0.44,4.97-0.67"/>
	</g>
	<g id="kvg:0548b-g2">
		<g id="kvg:0548b-g3">
			<path id="kvg:0548b-s4" d="M55.76,13c0.04,0.98-0.15,2.35-0.58,3.68C51.5,28.12,48.12,39.5,40.31,53.5"/>
		</g>
		<path id="kvg:0548b-s5" d="M54.36,31.67c2.52,0.25,5.02,0.13,7.51-0.35c9.17-1.32,20.36-3.94,27.96-5.31c2.53-0.7,5.17-0.76,7.63-0.64"/>
		<path id="kvg:0548b-s6" d="M62.5,33.25c1.13,1.13,1.19,2.25,1.19,3.84c0,0.74-0.04,31.76-0.06,49.66c-0.01,5.61-0.01,9.93-0.01,11.62"/>
		<path id="kvg:0548b-s7" d="M65.32,48.38c5.65-0.95,12.61-2.46,18.92-3.42c2.05-0.45,4.13-0.5,6.23-0.13"/>
		<path id="kvg:0548b-s8" d="M64.99,67.84c4.85-0.58,12.34-1.98,23.02-3.29c2.56-0.49,5.14-0.53,7.73-0.13"/>
	</g>
</g>
</g>
<g id="kvg:StrokeNumbers_0548b">
	<text transform="matrix(1 0 0 1 6.35 35.85)">1</text>
	<text transform="matrix(1 0 0 1 16.50 26.50)">2</text>
	<text transform="matrix(1 0 0 1 19.50 51.50)">3</text>
	<text transform="matrix(1 0 0 1 45.50 13.50)">4</text>
	<text transform="matrix(1 0 0 1 57.50 28.50)">5</text>
	<text transform="matrix(1 0 0 1 56.50 41.50)">6</text>
	<text transform="matrix(1 0 0 1 68.50 44.50)">7</text>
	<text transform="matrix(1 0 0 1 68.50 63.50)">8</text>
</g>
</svg>
