<svg width="109" height="109" viewBox="0 0 109 109">
<g id="kvg:StrokePaths_054ac">
<g id="kvg:054ac">
	<g id="kvg:054ac-g1">
		<path id="kvg:054ac-s1" d="M10.75,32.79c0.37,0.51,0.76,0.94,0.92,1.58c1.29,5.07,3.34,19.04,4.23,28.13"/>
		<path id="kvg:054ac-s2" d="M13.58,35.22C23,33,29.62,32.16,33.99,31.49c1.6-0.24,2.56,1.44,2.33,2.87c-0.95,5.92-3.05,14.57-4.46,22.75"/>
		<path id="kvg:054ac-s3" d="M16.07,59.05c5.14-0.75,11.33-1.05,18.39-2.21"/>
	</g>
	<g id="kvg:054ac-g2">
		<g id="kvg:054ac-g3">
			<path id="kvg:054ac-s4" d="M66.12,12.5c0.84,0.55,2.23,2.67,2.23,3.76c0,4.32-0.02,9.55-0.11,12.65"/>
			<path id="kvg:054ac-s5" d="M45.5,31.01c1.33,0.09,4.35,0.64,5.64,0.5c11.49-1.26,28.62-3.76,37.58-4.1c2.19-0.08,3.3,0.04,4.93,0.63"/>
		</g>
		<g id="kvg:054ac-g4">
			<path id="kvg:054ac-s6" d="M56.95,38.59c0.25,0.69-0.01,2.3-0.62,3.43c-2.39,4.46-6.71,9.29-11.58,13.19"/>
			<path id="kvg:054ac-s7" d="M77.27,36.98c6.94,4.91,12.67,10.58,16.13,16.54"/>
			<path id="kvg:054ac-s8" d="M79.54,49.91c0.53,0.94,0.74,2.65-0.16,4.3C71,69.5,57,83.25,39,92.9"/>
			<path id="kvg:054ac-s9" d="M53.84,55.77c3,0.24,25.87,25.07,38.32,34.47c2.34,1.77,4.07,1.74,6.1,1.9"/>
		</g>
	</g>
</g>
</g>
<g id="kvg:StrokeNumbers_054ac">
	<text transform="matrix(1 0 0 1 5.50 41.50)">1</text>
	<text transform="matrix(1 0 0 1 15.66 31.50)">2</text>
	<text transform="matrix(1 0 0 1 18.71 55.50)">3</text>
	<text transform="matrix(1 0 0 1 56.50 13.50)">4</text>
	<text transform="matrix(1 0 0 1 45.25 28.33)">5</text>
	<text transform="matrix(1 0 0 1 48.50 40.50)">6</text>
	<text transform="matrix(1 0 0 1 69.50 39.18)">7</text>
	<text transform="matrix(1 0 0 1 71.50 50.10)">8</text>
	<text transform="matrix(1 0 0 1 49.50 62.50)">9</text>
</g>
</svg>
