<svg width="109" height="109" viewBox="0 0 109 109">
<g id="kvg:StrokePaths_054be">
<g id="kvg:054be">
	<g id="kvg:054be-g1">
		<path id="kvg:054be-s1" d="M11.25,33.29c0.37,0.51,0.76,0.94,0.92,1.58c1.29,5.07,2.84,18.54,3.73,27.63"/>
		<path id="kvg:054be-s2" d="M12.08,35.22c9.42-2.22,17.05-3.56,21.42-4.23c1.6-0.24,2.56,1.44,2.33,2.87c-0.95,5.92-2.55,13.57-3.96,21.75"/>
		<path id="kvg:054be-s3" d="M16.07,58.55c5.14-0.75,10.33-1.05,17.39-2.21"/>
	</g>
	<g id="kvg:054be-g2">
		<g id="kvg:054be-g3">
			<g id="kvg:054be-g4">
				<path id="kvg:054be-s4" d="M49.4,31.93c0.69,0.3,1.96,0.34,2.66,0.3c7.88-0.49,18.12-2.23,24.77-2.9c1.15-0.11,1.85,0.14,2.43,0.29"/>
				<path id="kvg:054be-s5" d="M63.92,11.37c0.11,0.27,1.48,1.4,1.59,3.1c0.51,8.18,0.27,29.5,0.27,32.29"/>
				<path id="kvg:054be-s6" d="M40.58,49.68c1.41,0.63,3.98,0.8,5.39,0.63c13.03-1.56,29.28-4.47,47.11-5.58c2.34-0.15,3.75,0.3,4.92,0.62"/>
			</g>
			<path id="kvg:054be-s7" d="M87.57,20.67c0.15,1.39-0.14,3.47-1.25,5.12C72.1,47,57.55,63.18,33.93,79.43"/>
		</g>
		<g id="kvg:054be-g5">
			<path id="kvg:054be-s8" d="M88.52,58.02c0.3,0.51,0.55,2.06-0.28,2.77c-5.8,4.99-15.52,11.57-23.7,14.47"/>
			<path id="kvg:054be-s9" d="M59.48,56.06c0.7,0.77,1.99,2.25,1.99,3.3c0,7.4,0.23,27.06,0.23,30.25c0,8.22,9.42,6.93,17.43,6.93c6.22,0,10.9-0.43,13.24-2.73c2.34-2.3,2.06-4.97,2.29-7.27"/>
		</g>
	</g>
</g>
</g>
<g id="kvg:StrokeNumbers_054be">
	<text transform="matrix(1 0 0 1 6.35 39.85)">1</text>
	<text transform="matrix(1 0 0 1 15.16 31.50)">2</text>
	<text transform="matrix(1 0 0 1 19.50 54.85)">3</text>
	<text transform="matrix(1 0 0 1 47.50 29.50)">4</text>
	<text transform="matrix(1 0 0 1 53.75 11.50)">5</text>
	<text transform="matrix(1 0 0 1 39.50 46.50)">6</text>
	<text transform="matrix(1 0 0 1 80.50 19.18)">7</text>
	<text transform="matrix(1 0 0 1 79.75 57.10)">8</text>
	<text transform="matrix(1 0 0 1 53.75 74.53)">9</text>
</g>
</svg>
