<svg width="109" height="109" viewBox="0 0 109 109">
<g id="kvg:StrokePaths_054c4">
<g id="kvg:054c4">
	<g id="kvg:054c4-g1">
		<path id="kvg:054c4-s1" d="M11.25,33.29c0.37,0.51,0.76,0.94,0.92,1.58c1.29,5.07,2.84,18.54,3.73,27.63"/>
		<path id="kvg:054c4-s2" d="M12.58,35.22c7.92-1.97,16.55-3.06,20.92-3.73c1.6-0.24,2.56,1.44,2.33,2.87c-0.95,5.92-2.55,14.57-3.96,22.75"/>
		<path id="kvg:054c4-s3" d="M16.07,59.05c5.14-0.75,11.33-1.05,18.39-2.21"/>
	</g>
	<g id="kvg:054c4-g2">
		<g id="kvg:054c4-g3">
			<path id="kvg:054c4-s4" d="M43.99,38.11c0.9,0.35,2.56,0.38,3.47,0.35c7.79-0.21,31.79-4.21,42.14-4.71c1.51-0.07,3.41,0.67,4.17,0.85"/>
			<path id="kvg:054c4-s5" d="M53.5,17.68c1.27,0.54,2.25,2.4,2.28,3.5c0.2,7.81,1.66,35.41,2.24,44.3"/>
			<path id="kvg:054c4-s6" d="M79.5,12.2c1.03,0.56,1.96,2.52,1.84,3.67c-1.96,18.88-2.49,29.82-4.37,47.95"/>
			<path id="kvg:054c4-s7" d="M39,66.37c1.28,0.42,3.62,0.46,4.9,0.42c9.89-0.29,38.96-4.54,51.88-4.15c2.13,0.06,3.41,0.2,4.47,0.42"/>
		</g>
		<g id="kvg:054c4-g4">
			<path id="kvg:054c4-s8" d="M56.69,73.84c0.05,0.47,0.1,1.21-0.1,1.89c-1.2,3.98-9.08,11.67-17.5,18.06"/>
			<path id="kvg:054c4-s9" d="M78.1,72.19c6.19,3.9,16,16.02,17.55,22.08"/>
		</g>
	</g>
</g>
</g>
<g id="kvg:StrokeNumbers_054c4">
	<text transform="matrix(1 0 0 1 4.50 40.35)">1</text>
	<text transform="matrix(1 0 0 1 15.66 31.50)">2</text>
	<text transform="matrix(1 0 0 1 18.71 55.35)">3</text>
	<text transform="matrix(1 0 0 1 43.50 34.50)">4</text>
	<text transform="matrix(1 0 0 1 44.50 17.50)">5</text>
	<text transform="matrix(1 0 0 1 70.50 11.50)">6</text>
	<text transform="matrix(1 0 0 1 39.50 63.68)">7</text>
	<text transform="matrix(1 0 0 1 48.50 76.60)">8</text>
	<text transform="matrix(1 0 0 1 70.50 75.50)">9</text>
</g>
</svg>
