<svg width="109" height="109" viewBox="0 0 109 109">
<g id="kvg:StrokePaths_05506">
<g id="kvg:05506">
	<g id="kvg:05506-g1">
		<path id="kvg:05506-s1" d="M14.89,33.43c0.73,1.12,0.89,1.82,1.09,3.17c0.77,5.34,1.34,13.67,2.05,21.14c0.16,1.64,0.31,3.24,0.48,4.75"/>
		<path id="kvg:05506-s2" d="M17.31,35.2c5.34-1.13,9.97-2.14,14.7-3.16c3.73-0.8,5.61-0.55,4.96,3.82c-0.88,5.87-2.33,11.15-3.8,21.19"/>
		<path id="kvg:05506-s3" d="M19.38,60.38c3.5-0.46,7.04-1.21,11.67-1.82c1.67-0.22,3.39-0.46,5.12-0.72"/>
	</g>
	<g id="kvg:05506-g2">
		<g id="kvg:05506-g3">
			<g id="kvg:05506-g4">
				<path id="kvg:05506-s4" d="M64.41,11.5c0.34,1.25,0.08,2.45-0.4,3.19c-4.38,6.81-7.76,11.68-12.7,18.2c-1.47,1.95-0.86,3.16,1.88,2.52c9.81-2.29,18.68-4.91,29.6-7.66"/>
				<path id="kvg:05506-s5" d="M76.9,21.01c4.47,2.36,11.54,9.7,12.66,13.37"/>
			</g>
			<g id="kvg:05506-g5">
				<g id="kvg:05506-g6">
					<path id="kvg:05506-s6" d="M58.56,38.36c0.1,0.81,0,1.58-0.29,2.32c-1.2,3.41-5.17,8.48-12.32,13.99"/>
				</g>
				<g id="kvg:05506-g7">
					<path id="kvg:05506-s7" d="M73.48,33.55c0.61,0.61,0.96,1.7,0.96,3.12c0,3.46-0.02,5.07-0.02,7.43c0,4.65,1.58,5.62,8.57,5.62c5.51,0,7.7-0.67,8.54-2.04"/>
				</g>
			</g>
		</g>
		<g id="kvg:05506-g8">
			<path id="kvg:05506-s8" d="M58.84,53.5c0.05,0.58-0.22,2.06-0.6,2.83c-2.74,5.42-7.99,14.17-18.2,21.78"/>
			<path id="kvg:05506-s9" d="M59.75,60.56c1.39,0.17,2.87-0.22,4.19-0.61c3.04-0.89,7.73-2.69,10.9-3.7c3.81-1.22,5.62,0.61,3.7,4.26C72.49,71.98,58.5,86.75,40.67,94.75"/>
			<path id="kvg:05506-s10" d="M53.81,67.18c3.67,0.65,20.06,13.32,30.33,21.11c2.96,2.25,5.23,3.71,9.43,5.35"/>
		</g>
	</g>
</g>
</g>
<g id="kvg:StrokeNumbers_05506">
	<text transform="matrix(1 0 0 1 9.75 43.63)">1</text>
	<text transform="matrix(1 0 0 1 18.75 31.50)">2</text>
	<text transform="matrix(1 0 0 1 21.75 55.55)">3</text>
	<text transform="matrix(1 0 0 1 56.50 12.13)">4</text>
	<text transform="matrix(1 0 0 1 69.50 22.50)">5</text>
	<text transform="matrix(1 0 0 1 48.50 46.63)">6</text>
	<text transform="matrix(1 0 0 1 66.50 42.13)">7</text>
	<text transform="matrix(1 0 0 1 48.50 61.50)">8</text>
	<text transform="matrix(1 0 0 1 64.50 56.50)">9</text>
	<text transform="matrix(1 0 0 1 60.50 69.50)">10</text>
</g>
</svg>
