<svg width="109" height="109" viewBox="0 0 109 109">
<g id="kvg:StrokePaths_05531">
<g id="kvg:05531">
	<g id="kvg:05531-g1">
		<path id="kvg:05531-s1" d="M12.75,29.88c0.81,0.81,1.25,2.12,1.47,3.38c0.95,5.48,1.66,13.3,2.38,21.01c0.18,1.93,0.36,3.86,0.55,5.74"/>
		<path id="kvg:05531-s2" d="M14.95,32.17c9.63-1.25,16.32-1.84,20.93-2.43c2.75-0.35,4.62,0.21,4.08,3.41c-0.97,5.86-2.1,11.6-3.53,19.71"/>
		<path id="kvg:05531-s3" d="M17.58,55.42c5.75-0.55,10.51-0.99,17.18-1.49c1.36-0.1,2.81-0.21,4.36-0.31"/>
	</g>
	<g id="kvg:05531-g2">
		<g id="kvg:05531-g3">
			<path id="kvg:05531-s4" d="M49.52,18.57c0.83,0.83,1.53,2.04,1.53,2.96c0,0.7,1.72,15.76,2.55,23.23c0.27,2.39,0.44,4,0.44,4.11"/>
			<path id="kvg:05531-s5" d="M51.69,19.93c10.39-1.59,27.59-3.13,32.94-3.57c2.85-0.23,4.98,0.98,4.46,4.14c-0.86,5.38-1.96,12.65-4.32,21.79c-0.29,1.13-0.6,2.29-0.94,3.48"/>
			<path id="kvg:05531-s6" d="M53.33,32.68c7.42-0.68,25.79-2.55,33.22-2.73"/>
			<path id="kvg:05531-s7" d="M54.94,45.66c6.06-0.5,19.81-1.91,28.6-2.25"/>
		</g>
		<g id="kvg:05531-g4">
			<path id="kvg:05531-s8" d="M44.02,58.49c0.87,0.87,1.51,2.2,1.65,3.25c0.24,1.81,2.12,17.51,3.21,26.51c0.42,3.48,0.73,5.96,0.79,6.25"/>
			<path id="kvg:05531-s9" d="M46.12,59.87c7-0.74,35.87-2.93,43.75-3.51c4.02-0.29,5.43,1.54,4.85,5.4c-0.92,6.07-3.14,17.17-4.67,24.9c-0.32,1.6-0.6,3.05-0.84,4.29"/>
			<path id="kvg:05531-s10" d="M48.44,73.97c9.31-0.72,38.22-2.34,43.18-2.34"/>
			<path id="kvg:05531-s11" d="M50.24,89.52c8.94-0.57,27.23-1.09,38.37-1.58"/>
		</g>
	</g>
</g>
</g>
<g id="kvg:StrokeNumbers_05531">
	<text transform="matrix(1 0 0 1 8.25 40.63)">1</text>
	<text transform="matrix(1 0 0 1 18.75 28.63)">2</text>
	<text transform="matrix(1 0 0 1 20.50 51.50)">3</text>
	<text transform="matrix(1 0 0 1 42.75 27.13)">4</text>
	<text transform="matrix(1 0 0 1 53.50 16.63)">5</text>
	<text transform="matrix(1 0 0 1 57.75 29.50)">6</text>
	<text transform="matrix(1 0 0 1 58.50 42.50)">7</text>
	<text transform="matrix(1 0 0 1 38.25 69.13)">8</text>
	<text transform="matrix(1 0 0 1 46.99 56.53)">9</text>
	<text transform="matrix(1 0 0 1 51.50 70.50)">10</text>
	<text transform="matrix(1 0 0 1 52.50 85.63)">11</text>
</g>
</svg>
