<svg width="109" height="109" viewBox="0 0 109 109">
<g id="kvg:StrokePaths_05533">
<g id="kvg:05533">
	<g id="kvg:05533-g1">
		<path id="kvg:05533-s1" d="M11,34.57c0.35,0.45,1.22,1.83,1.37,2.39c1.23,4.46,2.7,16.77,3.54,24.79"/>
		<path id="kvg:05533-s2" d="M12.21,36.22c8.94-1.96,15.77-3.14,19.91-3.73c1.52-0.21,2.43,1.27,2.21,2.53c-0.9,5.21-1.95,13.27-3.28,20.48"/>
		<path id="kvg:05533-s3" d="M16.07,58.09c4.87-0.66,10.75-1.43,17.43-2.45"/>
	</g>
	<g id="kvg:05533-g2">
		<g id="kvg:05533-g3">
			<path id="kvg:05533-s4" d="M43.43,18.24c0.86,0.31,3.34,0.36,4.2,0.31c9.94-0.59,22.5-2.2,36.24-4.01c1.42-0.19,3.2,0.15,3.91,0.3"/>
			<path id="kvg:05533-s5" d="M43.2,31.35c1.05,0.39,2.64,1.09,4.7,0.81c10.72-1.46,31.26-3.79,37.97-4.49c1.82-0.19,3.65,1.3,2.96,4.17c-1.21,5.08-1.62,6.86-2.49,9.71"/>
			<path id="kvg:05533-s6" d="M46.61,46.93c7.14-1.18,30.64-3.68,41.77-4.52"/>
			<path id="kvg:05533-s7" d="M45.97,32.75c0.04,1.41,0.3,3.62,0.31,5.65c0.13,25.56-2.53,41.6-15.07,54.1"/>
		</g>
		<g id="kvg:05533-g4">
			<path id="kvg:05533-s8" d="M49.84,63.29c0.75,0.4,2.75,0.86,4.34,0.69c10.76-1.19,23.78-3.56,33.44-4.13c1.66-0.1,3-0.05,4.5,0.26"/>
			<path id="kvg:05533-s9" d="M67.04,47.96c0.39,0.69,0.59,1.49,0.58,2.99c-0.19,25.91-9.56,39.58-24.97,47.54"/>
			<path id="kvg:05533-s10" d="M67.6,62.81c5.54,9.66,17.85,25.9,25.25,31c2.15,1.48,2.76,1.95,3.69,2.12"/>
		</g>
	</g>
</g>
</g>
<g id="kvg:StrokeNumbers_05533">
	<text transform="matrix(1 0 0 1 5.50 42.50)">1</text>
	<text transform="matrix(1 0 0 1 13.50 32.50)">2</text>
	<text transform="matrix(1 0 0 1 18.50 54.50)">3</text>
	<text transform="matrix(1 0 0 1 42.50 15.50)">4</text>
	<text transform="matrix(1 0 0 1 47.50 29.50)">5</text>
	<text transform="matrix(1 0 0 1 50.50 43.50)">6</text>
	<text transform="matrix(1 0 0 1 38.50 39.50)">7</text>
	<text transform="matrix(1 0 0 1 50.50 60.60)">8</text>
	<text transform="matrix(1 0 0 1 59.50 54.50)">9</text>
	<text transform="matrix(1 0 0 1 74.50 70.50)">10</text>
</g>
</svg>
