<svg width="109" height="109" viewBox="0 0 109 109">
<g id="kvg:StrokePaths_05606">
<g id="kvg:05606">
	<g id="kvg:05606-g1">
		<path id="kvg:05606-s1" d="M11.89,34.65c0.8,0.72,1.23,1.6,1.42,2.96c0.82,5.76,2.26,15.41,3.26,22.67c0.26,1.92,0.5,3.55,0.68,4.72"/>
		<path id="kvg:05606-s2" d="M14.06,36.12c5.89-0.81,12.9-1.69,18.6-2.52c3.17-0.46,3.97,0.41,3.44,3.49c-0.86,5.07-2.23,13.9-3.43,21.12"/>
		<path id="kvg:05606-s3" d="M17.75,60.62c3.89-0.36,8.1-0.93,13.07-1.49c1.16-0.13,2.35-0.26,3.6-0.39"/>
	</g>
	<g id="kvg:05606-g2">
		<g id="kvg:05606-g3">
			<path id="kvg:05606-s4" d="M40.57,24.06c2.06,0.44,4.37,0.35,6.43,0.11c10.2-1.16,27.23-3.37,37.75-3.91c2.47-0.13,5.01-0.33,7.43,0.29"/>
			<path id="kvg:05606-s5" d="M53.25,13.5c0.74,0.82,1.24,1.93,1.38,2.72c1.28,7.39,1.65,12.46,2.01,15.15"/>
			<path id="kvg:05606-s6" d="M75.39,10.75c0.38,1.08,0.54,2.11,0.21,3.46c-1.2,4.87-2.22,10.04-3.56,16.15"/>
		</g>
		<g id="kvg:05606-g4">
			<path id="kvg:05606-s7" d="M44.5,38.05c0.73,0.73,1.08,1.5,1.25,2.45c0.89,2.68,1.5,6.75,2.14,10.73c0.2,1.24,0.4,2.5,0.61,3.72"/>
			<path id="kvg:05606-s8" d="M46.63,39.23c7.88-1.17,26.91-3.37,34.87-4.22c2.67-0.29,5.02,0.05,3.95,3.84c-0.99,3.49-1.88,6.34-3.29,10.96"/>
			<path id="kvg:05606-s9" d="M49.7,53.37c4.79-0.4,19.95-1.74,29.57-2.61c2.03-0.18,3.81-0.35,5.19-0.47"/>
		</g>
		<g id="kvg:05606-g5">
			<path id="kvg:05606-s10" d="M45.46,62.93c2.66,0.69,4.87,0.42,7.05,0.17c7.48-0.87,19.37-2.1,27.62-2.88c2.08-0.2,4.29-0.26,6.34,0.27"/>
			<g id="kvg:05606-g6">
				<path id="kvg:05606-s11" d="M39.59,75.29c2.57,0.62,5.2,0.28,7.79,0.04c10.37-0.96,30.02-2.98,38.74-3.5c2.33-0.14,4.88-0.21,7.2,0.37"/>
				<path id="kvg:05606-s12" d="M64.08,38.92c0.75,0.75,0.94,1.83,0.94,3.24c0,39.91-6.49,47.97-28.77,55.33"/>
				<path id="kvg:05606-s13" d="M64.5,74.37c6.7,6.03,14.62,13.1,21.27,17.66c2.44,1.68,5.73,3.59,8.73,4.68"/>
			</g>
		</g>
	</g>
</g>
</g>
<g id="kvg:StrokeNumbers_05606">
	<text transform="matrix(1 0 0 1 6.75 43.63)">1</text>
	<text transform="matrix(1 0 0 1 17.25 31.63)">2</text>
	<text transform="matrix(1 0 0 1 20.25 57.05)">3</text>
	<text transform="matrix(1 0 0 1 34.50 23.50)">4</text>
	<text transform="matrix(1 0 0 1 44.50 14.50)">5</text>
	<text transform="matrix(1 0 0 1 65.50 11.50)">6</text>
	<text transform="matrix(1 0 0 1 39.75 49.63)">7</text>
	<text transform="matrix(1 0 0 1 47.25 36.13)">8</text>
	<text transform="matrix(1 0 0 1 51.75 50.50)">9</text>
	<text transform="matrix(1 0 0 1 35.25 65.98)">10</text>
	<text transform="matrix(1 0 0 1 29.25 77.91)">11</text>
	<text transform="matrix(1 0 0 1 55.50 45.13)">12</text>
	<text transform="matrix(1 0 0 1 76.50 82.50)">13</text>
</g>
</svg>
