<svg width="109" height="109" viewBox="0 0 109 109">
<g id="kvg:StrokePaths_056d7">
<g id="kvg:056d7">
	<path id="kvg:056d7-s1" d="M18.75,15.82c0.75,1.43,1.84,2.51,1.86,4.41c0.14,14.27,0.14,48.02-0.31,75.27"/>
	<path id="kvg:056d7-s2" d="M22.23,18.15C40.25,16.5,74.18,15,86.25,15c2.75,0,3.55,2.49,3.5,5.5c-0.25,15.75-1,50.25-0.5,72.5"/>
	<path id="kvg:056d7-s3" d="M21.25,92.51c13.07,0,49.96-2.1,68-2.51"/>
</g>
</g>
<g id="kvg:StrokeNumbers_056d7">
	<text transform="matrix(1 0 0 1 12.50 25.50)">1</text>
	<text transform="matrix(1 0 0 1 23.50 14.50)">2</text>
	<text transform="matrix(1 0 0 1 25.50 89.50)">3</text>
</g>
</svg>
