<svg width="109" height="109" viewBox="0 0 109 109">
<g id="kvg:StrokePaths_056f3">
<g id="kvg:056f3">
	<g id="kvg:056f3-g1">
		<path id="kvg:056f3-s1" d="M19,17.88c1.25,1.25,1.82,2.7,1.82,4.56c0,15.18,0.04,41.06,0.04,67.55c0,2.12-0.06,4.2-0.1,6.25"/>
		<path id="kvg:056f3-s2" d="M21.52,19.73c18.46-1.58,52.47-4.4,63.27-4.4c3.2,0,4.72,1.93,4.68,4.87c-0.22,13.81-0.33,46.02-0.1,67.53c0.03,2.46,0.06,4.83,0.11,7.06"/>
	</g>
	<g id="kvg:056f3-g2">
		<path id="kvg:056f3-s3" d="M33,37.12c2.82,1.52,7.29,6.26,8,8.62"/>
		<path id="kvg:056f3-s4" d="M47.38,30.38c2.96,1.88,7.64,7.71,8.38,10.62"/>
	</g>
	<g id="kvg:056f3-g3">
		<g id="kvg:056f3-g4">
			<g id="kvg:056f3-g5">
				<path id="kvg:056f3-s5" d="M72.02,32.18c0.48,1.32,0.38,2.64-0.43,4.81C65.25,54.12,53.12,70.62,34,80.75"/>
			</g>
		</g>
	</g>
	<g id="kvg:056f3-g6">
		<path id="kvg:056f3-s6" d="M40.25,54.5C48.33,57.57,63.72,67.3,70.5,76"/>
	</g>
	<g id="kvg:056f3-g7">
		<path id="kvg:056f3-s7" d="M22.19,92.08c15.31-0.58,47.64-2.3,65.29-2.71"/>
	</g>
</g>
</g>
<g id="kvg:StrokeNumbers_056f3">
	<text transform="matrix(1 0 0 1 13.50 27.13)">1</text>
	<text transform="matrix(1 0 0 1 23.50 16.50)">2</text>
	<text transform="matrix(1 0 0 1 27.75 34.50)">3</text>
	<text transform="matrix(1 0 0 1 41.50 28.50)">4</text>
	<text transform="matrix(1 0 0 1 63.50 33.50)">5</text>
	<text transform="matrix(1 0 0 1 32.25 57.50)">6</text>
	<text transform="matrix(1 0 0 1 25.50 89.50)">7</text>
</g>
</svg>
