<svg width="109" height="109" viewBox="0 0 109 109">
<g id="kvg:StrokePaths_0571c">
<g id="kvg:0571c">
	<g id="kvg:0571c-g1">
		<path id="kvg:0571c-s1" d="M18.25,13.82c0.75,1.43,1.34,2.51,1.36,4.41C19.75,32.5,19.75,72.75,19.3,100"/>
		<path id="kvg:0571c-s2" d="M19.73,16.15c18.02-1.65,53.45-4.65,65.52-4.65c2.75,0,3.55,2.49,3.5,5.5c-0.25,15.75-0.5,58.75,0,81"/>
	</g>
	<g id="kvg:0571c-g2">
		<path id="kvg:0571c-s3" d="M31.5,23.95c0.23,0.25,0.47,0.89,0.57,1.2c0.8,2.45,2.76,8.33,3.31,12.73"/>
		<path id="kvg:0571c-s4" d="M33.44,24.74c6.81-0.99,37.88-3.94,40.59-4.26c0.99-0.12,2.33,0.83,2.07,2.2c-0.55,2.87-1.92,7.8-3.39,11.9"/>
		<path id="kvg:0571c-s5" d="M45.82,23.38c0.04,0.47,0.67,1.47,0.82,2.7c0.38,3.02,0.47,7.42,0.58,8.72"/>
		<path id="kvg:0571c-s6" d="M60.45,22.36c-0.04,0.69,0.38,1.67,0.27,2.78c-0.3,3.13-1.29,7.23-1.52,8.44"/>
		<path id="kvg:0571c-s7" d="M36.11,36.12c3.18-0.36,32.59-3.06,36.96-3.62"/>
	</g>
	<path id="kvg:0571c-s8" d="M28.75,44.22c1.02,0.36,2.89,0.46,3.9,0.36c6.49-0.63,37.75-4.59,44.03-4.17c1.69,0.11,2.72,0.17,3.56,0.35"/>
	<g id="kvg:0571c-g3">
		<path id="kvg:0571c-s9" d="M36.75,51.38c0.33,0.24,0.67,0.45,0.82,0.75c1.16,2.42,1.93,7.36,2.33,12"/>
		<path id="kvg:0571c-s10" d="M38.82,52.61c8.17-1.02,23.58-3.19,27.79-3.53c1.54-0.12,2.46,1.26,2.25,2c-0.91,3.05-0.58,4.33-2.54,8.72"/>
		<path id="kvg:0571c-s11" d="M40.73,62.58c6.27-0.83,19.11-1.89,27.13-2.85"/>
	</g>
	<path id="kvg:0571c-s12" d="M48.94,64.28c0.07,0.41,0.26,1.1-0.13,1.66c-2.53,3.61-10.77,10.2-23.45,15.9"/>
	<path id="kvg:0571c-s13" d="M41.79,75.79c0.39,0.33,0.81,1.64,0.81,2.21c-0.03,7.13-0.06,4.34-0.26,9.2c-0.09,2.06,0.91,2.56,2.91,1.31s7.5-6,9.75-7.5"/>
	<path id="kvg:0571c-s14" d="M73.23,63.23c0.03,0.23,0.33,1.11,0.15,1.41c-1.18,1.9-4.87,4.61-10.88,8.39"/>
	<path id="kvg:0571c-s15" d="M51.17,65.96c1.26,0.65,3.28,2.5,3.63,2.78C59.96,72.85,72.51,83.37,76,85.8c1.31,0.92,2.44,1.31,3.75,1.57"/>
	<g id="kvg:0571c-g4">
		<path id="kvg:0571c-s16" d="M19.75,98.01c13.07,0,50.46-2.6,68.5-3.01"/>
	</g>
</g>
</g>
<g id="kvg:StrokeNumbers_0571c">
	<text transform="matrix(1 0 0 1 12.50 24.50)">1</text>
	<text transform="matrix(1 0 0 1 22.50 12.55)">2</text>
	<text transform="matrix(1 0 0 1 25.50 30.50)">3</text>
	<text transform="matrix(1 0 0 1 38.25 22.40)">4</text>
	<text transform="matrix(1 0 0 1 50.50 30.33)">5</text>
	<text transform="matrix(1 0 0 1 63.50 29.50)">6</text>
	<text transform="matrix(1 0 0 1 38.25 33.50)">7</text>
	<text transform="matrix(1 0 0 1 26.50 41.50)">8</text>
	<text transform="matrix(1 0 0 1 31.25 58.50)">9</text>
	<text transform="matrix(1 0 0 1 40.50 50.50)">10</text>
	<text transform="matrix(1 0 0 1 43.25 60.50)">11</text>
	<text transform="matrix(1 0 0 1 34.50 70.50)">12</text>
	<text transform="matrix(1 0 0 1 33.50 83.50)">13</text>
	<text transform="matrix(1 0 0 1 61.50 67.65)">14</text>
	<text transform="matrix(1 0 0 1 49.50 75.50)">15</text>
	<text transform="matrix(1 0 0 1 25.25 94.50)">16</text>
</g>
</svg>
