<svg width="109" height="109" viewBox="0 0 109 109">
<g id="kvg:StrokePaths_0571f">
<g id="kvg:0571f">
	<path id="kvg:0571f-s1" d="M26.63,50.89c1.63,0.4,4.64,0.6,6.26,0.4C43.5,50,62.12,48,75.66,46.92c2.71-0.22,4.36,0.19,5.72,0.39"/>
	<path id="kvg:0571f-s2" d="M52.17,17.37c1.17,1.17,2.02,3.13,2.02,4.64c0,10.25,0.14,61.06,0.14,63.36"/>
	<path id="kvg:0571f-s3" d="M15.38,87.73c2.12,0.54,6.01,0.73,8.12,0.54C46,86.25,69,84.62,90.34,83.79c3.53-0.14,5.65,0.26,7.41,0.53"/>
</g>
</g>
<g id="kvg:StrokeNumbers_0571f">
	<text transform="matrix(1 0 0 1 19.50 51.13)">1</text>
	<text transform="matrix(1 0 0 1 41.50 17.50)">2</text>
	<text transform="matrix(1 0 0 1 6.50 86.50)">3</text>
</g>
</svg>
