<svg width="109" height="109" viewBox="0 0 109 109">
<g id="kvg:StrokePaths_05728">
<g id="kvg:05728">
	<g id="kvg:05728-g1">
		<path id="kvg:05728-s1" d="M20.5,35.15c2.88,0.72,5.21,0.5,7.88,0.25c11.68-1.09,38.58-3.88,50.74-4.87c2.44-0.2,5.88-0.04,7.88,0.34"/>
		<g id="kvg:05728-g2">
			<path id="kvg:05728-s2" d="M53.89,12.68c0.73,1.57,0.52,3.29,0.03,5.39C50.26,33.6,38.95,58.41,14.89,74.4"/>
			<path id="kvg:05728-s3" d="M27.46,53.75c0.77,0.77,1.32,2.12,1.32,3.43c0,0.55-0.06,23.07-0.06,35.33c0,2.83-0.05,4.92-0.08,5.74"/>
		</g>
	</g>
	<g id="kvg:05728-g3">
		<path id="kvg:05728-s4" d="M43.44,67.81c1.62,0.6,4.13,0.38,5.81,0.2c8.73-0.94,22.01-2.56,30.75-3.1c1.83-0.12,3.93-0.03,5.74,0.37"/>
		<path id="kvg:05728-s5" d="M63.8,44.37c0.98,0.98,2,2.69,2,4.45c0,11.34-0.11,26.89-0.11,41.89"/>
		<path id="kvg:05728-s6" d="M37.24,92.9c3.01,0.47,5.55,0.53,8.13,0.32c11.8-0.94,27.75-2.6,40.5-2.85c2.9-0.06,5.78,0.04,8.64,0.63"/>
	</g>
</g>
</g>
<g id="kvg:StrokeNumbers_05728">
	<text transform="matrix(1 0 0 1 13.50 35.50)">1</text>
	<text transform="matrix(1 0 0 1 45.50 12.13)">2</text>
	<text transform="matrix(1 0 0 1 18.75 55.50)">3</text>
	<text transform="matrix(1 0 0 1 41.50 64.98)">4</text>
	<text transform="matrix(1 0 0 1 53.50 45.50)">5</text>
	<text transform="matrix(1 0 0 1 36.50 90.50)">6</text>
</g>
</svg>
