<svg width="109" height="109" viewBox="0 0 109 109">
<g id="kvg:StrokePaths_0574e">
<g id="kvg:0574e">
	<g id="kvg:0574e-g1">
		<path id="kvg:0574e-s1" d="M11.5,44.14c0.76,0.38,2.24,0.46,3,0.36c4.82-0.66,17.65-2.39,23-3c1.25-0.14,2.62-0.18,3.25,0.01"/>
		<path id="kvg:0574e-s2" d="M25.37,15.5c1.09,0.52,1.96,2.32,1.96,3.39c0,7.56,0.03,43.9,0.03,55.11"/>
		<path id="kvg:0574e-s3" d="M11.5,79.86c0.76,0.89,2.27,1.36,4.54,0.19C22.35,76.8,33.69,71,40,67.75"/>
	</g>
	<g id="kvg:0574e-g2">
		<g id="kvg:0574e-g3">
			<path id="kvg:0574e-s4" d="M58.75,13.5c0.04,0.91,0.08,2.34-0.08,3.64C57.72,24.83,52.3,41.68,44.89,52"/>
			<path id="kvg:0574e-s5" d="M57.22,34.27c1.03,0.31,2.47,0.25,4.04,0.03c3.99-0.55,25.02-4.39,26.82-4.56c9.05-0.86-1,9.36-2.89,11.01"/>
		</g>
		<g id="kvg:0574e-g4">
			<path id="kvg:0574e-s6" d="M62.6,42c0.65,1.25,0.88,2.41,0.86,4.37C63.25,66.5,58.75,86.75,39,98.25"/>
			<path id="kvg:0574e-s7" d="M62.92,59.5c4.49,8.3,20.73,27.86,28.11,34.73c1.56,1.45,2.74,2.31,4.21,2.77"/>
		</g>
	</g>
</g>
</g>
<g id="kvg:StrokeNumbers_0574e">
	<text transform="matrix(1 0 0 1 5.50 43.50)">1</text>
	<text transform="matrix(1 0 0 1 16.25 15.50)">2</text>
	<text transform="matrix(1 0 0 1 3.75 79.50)">3</text>
	<text transform="matrix(1 0 0 1 50.50 13.50)">4</text>
	<text transform="matrix(1 0 0 1 61.50 30.58)">5</text>
	<text transform="matrix(1 0 0 1 55.50 48.50)">6</text>
	<text transform="matrix(1 0 0 1 68.50 63.50)">7</text>
</g>
</svg>
