<svg width="109" height="109" viewBox="0 0 109 109">
<g id="kvg:StrokePaths_05764">
<g id="kvg:05764">
	<g id="kvg:05764-g1">
		<path id="kvg:05764-s1" d="M13.5,47.89c2.16,0.41,4.33,0.5,6.52,0.26c5.46-0.72,13.66-2.56,18.37-3.22c1.53-0.26,3.07-0.31,4.62-0.17"/>
		<path id="kvg:05764-s2" d="M28.12,20.75c1.13,1.13,1.21,2.38,1.21,3.75c0,1.02,0.03,42,0.03,49.25"/>
		<path id="kvg:05764-s3" d="M13.25,80.27c1.5,0.73,3.04,1,5.57-0.29c7.05-3.58,16.75-8.28,23.8-11.86"/>
	</g>
	<g id="kvg:05764-g2">
		<g id="kvg:05764-g3">
			<path id="kvg:05764-s4" d="M48.75,32.99c0.82,0.82,1.16,1.87,1.25,2.63c0.7,6,1.72,16.15,2.71,26.24c0.25,2.53,0.5,5.06,0.74,7.52"/>
			<path id="kvg:05764-s5" d="M50.69,34.67c14.18-2.05,29.39-3.1,37.82-3.72c3.5-0.26,6.05,0.56,5.67,4.44c-0.5,5.13-1.5,13.85-2.87,23.74c-0.37,2.67-0.77,5.42-1.19,8.21"/>
			<path id="kvg:05764-s6" d="M52.46,50.22c9.67-1.1,27.79-2.47,39.36-2.97"/>
			<path id="kvg:05764-s7" d="M54.26,67.03c11.49-1.16,21.61-2.16,35.29-2.85"/>
		</g>
		<g id="kvg:05764-g4">
			<path id="kvg:05764-s8" d="M69.12,11.75c0.94,0.94,1.21,2.38,1.21,3.75c0,0.83,0.02,45.41,0.03,70.12c0,5.86,0,10.6,0,13.38"/>
		</g>
	</g>
</g>
</g>
<g id="kvg:StrokeNumbers_05764">
	<text transform="matrix(1 0 0 1 6.50 47.50)">1</text>
	<text transform="matrix(1 0 0 1 17.50 20.50)">2</text>
	<text transform="matrix(1 0 0 1 4.50 79.50)">3</text>
	<text transform="matrix(1 0 0 1 42.00 40.65)">4</text>
	<text transform="matrix(1 0 0 1 52.50 31.50)">5</text>
	<text transform="matrix(1 0 0 1 55.50 46.50)">6</text>
	<text transform="matrix(1 0 0 1 56.50 63.50)">7</text>
	<text transform="matrix(1 0 0 1 58.50 12.50)">8</text>
</g>
</svg>
