<svg width="109" height="109" viewBox="0 0 109 109">
<g id="kvg:StrokePaths_05788">
<g id="kvg:05788">
	<g id="kvg:05788-g1">
		<g id="kvg:05788-g2">
			<path id="kvg:05788-s1" d="M37.95,14.71c0.27,1.79-0.07,4.14-0.92,5.68C31.61,30.18,26.42,38.93,14,50.84"/>
			<path id="kvg:05788-s2" d="M31.97,33.08c0.78,0.92,1.01,2.23,1.06,3.21c0.44,8.51-0.87,25.3-0.47,30.43"/>
		</g>
		<g id="kvg:05788-g3">
			<path id="kvg:05788-s3" d="M45.41,35.23c1.31,0.29,3.73,0.43,5.02,0.29c5.3-0.56,22.58-4.21,33.54-5.5c2.14-0.25,3.29-0.22,4.58,0.01"/>
			<path id="kvg:05788-s4" d="M57.83,12.04c1.53,1.17,2.09,1.57,2.48,4C63.75,37.25,69.5,55,88.02,65.32c6.18,3.44,5.16,0.5,4.39-4.66"/>
			<g id="kvg:05788-g4">
				<path id="kvg:05788-s5" d="M72.6,11.71c2.91,1.74,7.56,5.73,8.92,8.72"/>
			</g>
		</g>
	</g>
	<g id="kvg:05788-g5">
		<path id="kvg:05788-s6" d="M29.5,78.86c0.89,0.23,2.53,0.29,3.42,0.23c11.47-0.79,31.48-2.46,43.02-2.66c1.49-0.03,2.38,0.11,3.12,0.23"/>
		<path id="kvg:05788-s7" d="M52.78,65.84c0.12,0.3,1.82,1.57,1.82,3.49c0,6.67,0.13,19.42,0.13,25.17"/>
		<path id="kvg:05788-s8" d="M16.67,96.43c1.77,0.61,5.02,0.75,6.78,0.61c21.91-1.73,44.58-3.13,64.17-3.94c2.95-0.12,4.72,0.29,6.19,0.6"/>
	</g>
</g>
</g>
<g id="kvg:StrokeNumbers_05788">
	<text transform="matrix(1 0 0 1 29.50 15.50)">1</text>
	<text transform="matrix(1 0 0 1 26.25 47.50)">2</text>
	<text transform="matrix(1 0 0 1 42.50 31.50)">3</text>
	<text transform="matrix(1 0 0 1 49.50 12.40)">4</text>
	<text transform="matrix(1 0 0 1 69.50 9.50)">5</text>
	<text transform="matrix(1 0 0 1 21.25 79.50)">6</text>
	<text transform="matrix(1 0 0 1 44.50 65.50)">7</text>
	<text transform="matrix(1 0 0 1 15.50 93.10)">8</text>
</g>
</svg>
