<svg width="109" height="109" viewBox="0 0 109 109">
<g id="kvg:StrokePaths_057aa">
<g id="kvg:057aa">
	<g id="kvg:057aa-g1">
		<path id="kvg:057aa-s1" d="M10.5,43.14c0.76,0.38,2.24,0.43,3,0.36c5.25-0.5,18.15-2.39,23.5-3c1.25-0.14,2.62-0.18,3.25,0.01"/>
		<path id="kvg:057aa-s2" d="M25.37,17c1.09,0.5,1.96,2.23,1.96,3.25c0,7.25,0.03,38.75,0.03,49.5"/>
		<path id="kvg:057aa-s3" d="M12,76.79c0.75,0.96,2.25,1.46,4.5,0.21c6.25-3.5,17.5-9.75,23.75-13.25"/>
	</g>
	<g id="kvg:057aa-g2">
		<g id="kvg:057aa-g3">
			<path id="kvg:057aa-s4" d="M49.96,14.09c2.99,2.33,7.73,9.58,8.48,13.21"/>
			<path id="kvg:057aa-s5" d="M81.05,10.89c0.02,0.38,0.04,0.99-0.04,1.53c-0.5,3.24-3.37,10.33-7.3,14.68"/>
		</g>
		<g id="kvg:057aa-g4">
			<g id="kvg:057aa-g5">
				<path id="kvg:057aa-s6" d="M43.2,33.49c1.09,0.5,3.09,0.61,4.18,0.5c8.07-0.79,31.66-4.18,42.03-4.18c1.82,0,2.91,0.24,3.81,0.49"/>
				<g id="kvg:057aa-g6">
					<path id="kvg:057aa-s7" d="M41.75,59.2c1.25,0.59,3.53,0.71,4.77,0.59C60,58.45,78.5,55.5,93.14,54.81c2.07-0.1,3.32,0.28,4.36,0.57"/>
				</g>
			</g>
			<path id="kvg:057aa-s8" d="M56.69,35.43c1.06,1.07,1.58,1.95,1.58,4.01c0,18.83,1.47,43.06-20.93,56.65"/>
			<g id="kvg:057aa-g7">
				<g id="kvg:057aa-g8">
					<path id="kvg:057aa-s9" d="M77.41,33.23c0.7,0.42,1.12,1.91,1.26,2.76c0.14,0.85,0,57.69-0.14,63"/>
				</g>
			</g>
		</g>
	</g>
</g>
</g>
<g id="kvg:StrokeNumbers_057aa">
	<text transform="matrix(1 0 0 1 5.75 45.88)">1</text>
	<text transform="matrix(1 0 0 1 15.50 18.80)">2</text>
	<text transform="matrix(1 0 0 1 6.00 79.98)">3</text>
	<text transform="matrix(1 0 0 1 42.50 13.50)">4</text>
	<text transform="matrix(1 0 0 1 71.75 10.50)">5</text>
	<text transform="matrix(1 0 0 1 43.25 30.25)">6</text>
	<text transform="matrix(1 0 0 1 40.50 55.50)">7</text>
	<text transform="matrix(1 0 0 1 50.50 43.50)">8</text>
	<text transform="matrix(1 0 0 1 71.25 40.03)">9</text>
</g>
</svg>
