<svg width="109" height="109" viewBox="0 0 109 109">
<g id="kvg:StrokePaths_057d2">
<g id="kvg:057d2">
	<g id="kvg:057d2-g1">
		<path id="kvg:057d2-s1" d="M10.25,43.64C11.07,44.02,12.67,44,13.5,44c5.5,0,15.75-2.5,21.73-3.5c1.35-0.23,2.84-0.18,3.52,0.01"/>
		<path id="kvg:057d2-s2" d="M23.87,16.5c1.09,0.5,1.96,2.23,1.96,3.25c0,8.25,0.03,41.75,0.03,51.5"/>
		<path id="kvg:057d2-s3" d="M11.5,79.61c0.69,1.14,3.07,1.25,5.14-0.25C22.39,75.17,31.75,68.19,37.5,64"/>
	</g>
	<g id="kvg:057d2-g2">
		<g id="kvg:057d2-g3">
			<path id="kvg:057d2-s4" d="M84.96,11.89c0.1,0.29,0.2,0.75-0.19,1.17c-2.34,2.46-15.8,7.85-34.21,11.16"/>
			<path id="kvg:057d2-s5" d="M50.53,29.14c0.03,0.49,0.06,1.27-0.06,1.97c-0.68,4.15-4.58,13.27-9.91,18.85"/>
			<path id="kvg:057d2-s6" d="M64.77,29.08c2.22,2.32,5.74,9.53,6.29,13.13"/>
			<path id="kvg:057d2-s7" d="M82.77,26.08c4.78,2.85,12.35,11.71,13.54,16.13"/>
		</g>
		<g id="kvg:057d2-g4">
			<path id="kvg:057d2-s8" d="M44.38,64.4c1.04,0.56,2.93,0.68,3.97,0.56c12.9-1.46,33.5-4.37,46.15-5.23c1.72-0.12,2.76,0.27,3.63,0.55"/>
			<path id="kvg:057d2-s9" d="M81.86,48.83c0.08,0.34,1.08,1.76,1.08,3.91c0,14.44-0.22,36.4-0.22,39.91c0,10.1-6.43,1.26-8.3,0.18"/>
			<path id="kvg:057d2-s10" d="M56.06,73.25c3.37,1.96,8.71,8.04,9.55,11.08"/>
		</g>
	</g>
</g>
</g>
<g id="kvg:StrokeNumbers_057d2">
	<text transform="matrix(1 0 0 1 4.50 44.50)">1</text>
	<text transform="matrix(1 0 0 1 13.50 16.50)">2</text>
	<text transform="matrix(1 0 0 1 3.50 80.50)">3</text>
	<text transform="matrix(1 0 0 1 76.50 10.50)">4</text>
	<text transform="matrix(1 0 0 1 41.50 32.50)">5</text>
	<text transform="matrix(1 0 0 1 57.50 33.50)">6</text>
	<text transform="matrix(1 0 0 1 75.50 30.50)">7</text>
	<text transform="matrix(1 0 0 1 43.50 61.50)">8</text>
	<text transform="matrix(1 0 0 1 72.50 50.50)">9</text>
	<text transform="matrix(1 0 0 1 45.50 77.50)">10</text>
</g>
</svg>
