<svg width="109" height="109" viewBox="0 0 109 109">
<g id="kvg:StrokePaths_057e3">
<g id="kvg:057e3">
	<g id="kvg:057e3-g1">
		<path id="kvg:057e3-s1" d="M10,41.14c0.76,0.38,2.24,0.44,3,0.36c4.75-0.5,17.15-2.89,22.5-3.5c1.25-0.14,2.62-0.18,3.25,0.01"/>
		<path id="kvg:057e3-s2" d="M23.37,14c1.09,0.5,1.96,2.23,1.96,3.25c0,7.25,0.03,40.25,0.03,51"/>
		<path id="kvg:057e3-s3" d="M10,75.29c0.75,0.96,2.25,1.46,4.5,0.21C20.75,72,32,65.75,38.25,62.25"/>
	</g>
	<g id="kvg:057e3-g2">
		<g id="kvg:057e3-g3">
			<g id="kvg:057e3-g4">
				<path id="kvg:057e3-s4" d="M66.64,10.5c0.49,0.47,1.3,2.26,1.3,3.19c0,3.41-0.06,7.31-0.06,10.57"/>
				<path id="kvg:057e3-s5" d="M45.46,26.22c0.88,0.07,2.91,0.46,3.77,0.36c6.95-0.76,31.66-3.89,40.49-4.09c1.46-0.03,2.2,0.03,3.29,0.46"/>
			</g>
			<g id="kvg:057e3-g5">
				<g id="kvg:057e3-g6">
					<path id="kvg:057e3-s6" d="M56.61,31.99c0,0.55,0.03,0.99-0.09,1.65c-0.66,3.44-6.91,14.9-12.25,19.99"/>
					<path id="kvg:057e3-s7" d="M55.3,40.71c3.34,1.34,7.6,4.91,9.23,8.29"/>
				</g>
				<g id="kvg:057e3-g7">
					<path id="kvg:057e3-s8" d="M81.35,29.49c0,0.5,0.03,0.9-0.09,1.5c-0.62,3.12-6.51,13.52-11.55,18.14"/>
					<path id="kvg:057e3-s9" d="M79.11,38.21c4.26,1.79,9.71,6.53,11.79,11.04"/>
				</g>
			</g>
		</g>
		<g id="kvg:057e3-g8">
			<path id="kvg:057e3-s10" d="M41.5,69.64c1.17,0.48,3.32,0.6,4.49,0.48c14.89-1.57,36.89-4.5,47.16-4.69c1.95-0.04,3.12,0.23,4.1,0.47"/>
			<path id="kvg:057e3-s11" d="M67.14,56.5c0.67,0.56,1.21,1.5,1.21,3.8c0,1.13-0.09,31.21-0.22,38.2"/>
		</g>
	</g>
</g>
</g>
<g id="kvg:StrokeNumbers_057e3">
	<text transform="matrix(1 0 0 1 4.00 41.50)">1</text>
	<text transform="matrix(1 0 0 1 14.50 14.50)">2</text>
	<text transform="matrix(1 0 0 1 2.50 75.50)">3</text>
	<text transform="matrix(1 0 0 1 58.00 11.40)">4</text>
	<text transform="matrix(1 0 0 1 39.00 26.50)">5</text>
	<text transform="matrix(1 0 0 1 48.75 35.50)">6</text>
	<text transform="matrix(1 0 0 1 60.75 41.68)">7</text>
	<text transform="matrix(1 0 0 1 72.50 32.50)">8</text>
	<text transform="matrix(1 0 0 1 84.50 39.50)">9</text>
	<text transform="matrix(1 0 0 1 41.25 67.70)">10</text>
	<text transform="matrix(1 0 0 1 55.25 57.50)">11</text>
</g>
</svg>
