<svg width="109" height="109" viewBox="0 0 109 109">
<g id="kvg:StrokePaths_057f7">
<g id="kvg:057f7">
	<g id="kvg:057f7-g1">
		<g id="kvg:057f7-g2">
			<g id="kvg:057f7-g3">
				<path id="kvg:057f7-s1" d="M15.9,27.26c1.85,0.49,3.82,0.29,5.49,0.09c5.1-0.62,12.78-2.12,17.74-2.6c1.71-0.17,3.37-0.33,5.04,0.18"/>
				<path id="kvg:057f7-s2" d="M30.16,12.57c0.7,0.7,1.07,1.68,1.07,3.31c0,11.82,0.02,18.91,0.02,21.88"/>
				<path id="kvg:057f7-s3" d="M10.63,40.2c2.5,0.55,4.49,0.51,6.65,0.22c9.7-1.34,17.28-2.56,24.23-3.12c2.53-0.2,4.61-0.63,7.12,0.08"/>
			</g>
			<path id="kvg:057f7-s4" d="M18.76,44.56c1.68,1.75,4.34,7.21,4.76,9.94"/>
			<path id="kvg:057f7-s5" d="M40.48,40.99c0.05,0.64,0.05,1.29-0.15,1.9c-1.08,3.24-2.71,6.74-5.97,12.1"/>
		</g>
		<g id="kvg:057f7-g4">
			<path id="kvg:057f7-s6" d="M16.35,59.73c1.52,0.39,3.31,0.29,4.52,0.18c6.62-0.56,11.74-1.78,19.49-2.46c1.36-0.12,3.7-0.66,5.05-0.18"/>
			<g id="kvg:057f7-g5">
				<path id="kvg:057f7-s7" d="M10.91,74.4c2.04,0.85,4.38,0.43,6.48,0.13c7.85-1.11,17.4-2.52,25.35-3.31c2.02-0.2,3.75-0.23,5.71,0.26"/>
				<path id="kvg:057f7-s8" d="M30.71,60.65c1.01,1.01,1.33,2.23,1.33,3.74c0,0.76,0.09,15.1,0.02,25.31c-0.02,3.13-0.04,5.72-0.06,7.18"/>
			</g>
		</g>
	</g>
	<g id="kvg:057f7-g6">
		<g id="kvg:057f7-g7">
			<path id="kvg:057f7-s9" d="M67.82,13.62c0.9,0.9,1.12,2.41,1.06,3.63c-1.63,35.99-9,56.74-24.5,75.49"/>
			<g id="kvg:057f7-g8">
				<path id="kvg:057f7-s10" d="M53.5,39.5c2.29,0.76,4.78,0.2,7-0.51c3.84-1.23,13.29-4.51,17.4-6.05c3.8-1.43,5.58-0.93,4.7,3.33C81.36,42.31,78.86,60.58,78,70c-1.5,16.5,0.24,22.5,10.75,22.5c6.75,0,7.25-2.62,7.25-9.75"/>
			</g>
		</g>
		<g id="kvg:057f7-g9">
			<path id="kvg:057f7-s11" d="M53.25,56.5c7,2.25,14.19,10.27,15.56,13.97"/>
		</g>
	</g>
</g>
</g>
<g id="kvg:StrokeNumbers_057f7">
	<text transform="matrix(1 0 0 1 9.75 28.50)">1</text>
	<text transform="matrix(1 0 0 1 20.50 13.50)">2</text>
	<text transform="matrix(1 0 0 1 3.75 41.50)">3</text>
	<text transform="matrix(1 0 0 1 13.50 49.50)">4</text>
	<text transform="matrix(1 0 0 1 32.25 46.50)">5</text>
	<text transform="matrix(1 0 0 1 8.50 61.55)">6</text>
	<text transform="matrix(1 0 0 1 4.50 75.50)">7</text>
	<text transform="matrix(1 0 0 1 24.75 68.50)">8</text>
	<text transform="matrix(1 0 0 1 58.50 15.50)">9</text>
	<text transform="matrix(1 0 0 1 51.75 36.63)">10</text>
	<text transform="matrix(1 0 0 1 48.75 54.13)">11</text>
</g>
</svg>
