<svg width="109" height="109" viewBox="0 0 109 109">
<g id="kvg:StrokePaths_0580b">
<g id="kvg:0580b">
	<g id="kvg:0580b-g1">
		<path id="kvg:0580b-s1" d="M10.5,40.6c0.71,0.37,2.56,0.45,3.26,0.35c4.49-0.64,16.46-3.31,21.45-3.9c1.17-0.14,2.44-0.18,3.03,0.01"/>
		<path id="kvg:0580b-s2" d="M23.37,13.5c1.09,0.5,1.96,2.23,1.96,3.25c0,7.25,0.03,38.75,0.03,49.5"/>
		<path id="kvg:0580b-s3" d="M11.25,73.53c0.72,0.97,2.15,1.49,4.3,0.21c5.97-3.56,16.73-9.92,22.7-13.49"/>
	</g>
	<g id="kvg:0580b-g2">
		<g id="kvg:0580b-g3">
			<path id="kvg:0580b-s4" d="M44.11,17.19c0.69,0.97,1.15,1.94,1.38,2.9c0.23,0.97,0.23,20.33,0.23,31.22c0,10.42-3.42,32.88-10.96,40.18"/>
			<path id="kvg:0580b-s5" d="M46.13,19.05c2.19-0.23,11.36-2.14,12.95-2.56C61,16,62.5,17,62.5,19.98c0,7.9-0.05,49.03-0.05,66.36c0,12.08-5.38,4.18-7.2,2.09"/>
			<path id="kvg:0580b-s6" d="M46.13,39.44c3.1-0.46,11.9-1.63,16.1-1.86"/>
			<path id="kvg:0580b-s7" d="M45.22,59.21c5.84-0.7,10.12-1.43,16.87-1.89"/>
		</g>
		<g id="kvg:0580b-g4">
			<path id="kvg:0580b-s8" d="M74.35,14.71c0.48,0.99,0.8,1.98,0.96,2.97c0.16,0.99,0.16,25.27,0.16,31.95c0,10.66-2.02,31.98-7.66,41.12"/>
			<path id="kvg:0580b-s9" d="M75.49,16.58c2.11-0.24,13.87-2.32,15.44-2.58c2.81-0.47,2.81,2.06,2.81,3.56c0,8.06-0.03,50.43-0.03,68.12c0,11.32-3.97,5.82-7.42,2.56"/>
			<path id="kvg:0580b-s10" d="M76.35,36.31c2.99-0.47,13.12-1.16,17.17-1.4"/>
			<path id="kvg:0580b-s11" d="M75.47,57.15c5.62-0.71,10.9-0.95,17.4-1.42"/>
		</g>
	</g>
</g>
</g>
<g id="kvg:StrokeNumbers_0580b">
	<text transform="matrix(1 0 0 1 4.50 41.38)">1</text>
	<text transform="matrix(1 0 0 1 15.50 14.50)">2</text>
	<text transform="matrix(1 0 0 1 3.50 74.50)">3</text>
	<text transform="matrix(1 0 0 1 38.50 25.50)">4</text>
	<text transform="matrix(1 0 0 1 47.50 15.50)">5</text>
	<text transform="matrix(1 0 0 1 49.50 35.50)">6</text>
	<text transform="matrix(1 0 0 1 49.50 55.50)">7</text>
	<text transform="matrix(1 0 0 1 67.50 22.50)">8</text>
	<text transform="matrix(1 0 0 1 77.50 13.50)">9</text>
	<text transform="matrix(1 0 0 1 77.50 32.50)">10</text>
	<text transform="matrix(1 0 0 1 77.50 53.50)">11</text>
</g>
</svg>
