<svg width="109" height="109" viewBox="0 0 109 109">
<g id="kvg:StrokePaths_05834">
<g id="kvg:05834">
	<g id="kvg:05834-g1">
		<path id="kvg:05834-s1" d="M14.75,41.17c1.33,0.52,2.75,0.44,4.13,0.29c5.78-0.62,11.92-2.14,17.63-3.21c1.58-0.3,3.33-0.32,4.14-0.13"/>
		<path id="kvg:05834-s2" d="M27.8,19.37c1.17,1.17,1.52,2.52,1.52,4.39c0,9.54-0.07,36.54-0.07,38.25"/>
		<path id="kvg:05834-s3" d="M13.5,68.6c1.75,1.4,3.14,1.36,5.67-0.05c1.49-0.84,15-7.27,21.33-11.29"/>
	</g>
	<g id="kvg:05834-g2">
		<g id="kvg:05834-g3">
			<g id="kvg:05834-g4">
				<path id="kvg:05834-s4" d="M51,13.5c0.88,0.88,1.37,1.62,1.59,3.24c0.72,5.29,1.08,10.35,2.23,19.5c0.13,1,0.26,2.05,0.41,3.15"/>
				<path id="kvg:05834-s5" d="M53.53,14.93c6.23-0.83,18.68-2.8,24.51-3.17c2.22-0.14,4.34,1.33,4.17,3.24c-0.7,7.75-1.17,13.66-2.02,18.83c-0.13,0.83-0.54,1.9-0.54,2.47"/>
				<path id="kvg:05834-s6" d="M54.82,25.72c6.06-0.84,20.06-2.22,25.38-2.46"/>
				<path id="kvg:05834-s7" d="M56.17,36.55c4.1-0.55,17.42-1.97,22.53-2.45"/>
			</g>
			<g id="kvg:05834-g5">
				<path id="kvg:05834-s8" d="M43.6,47.75c1.8,0.39,4.56,0.59,6.35,0.39C63,46.62,74,45,89.12,44.02c3-0.19,5.26,0.12,6.76,0.32"/>
			</g>
		</g>
		<g id="kvg:05834-g6">
			<g id="kvg:05834-g7">
				<g id="kvg:05834-g8">
					<path id="kvg:05834-s9" d="M55,50.38c0.11,1.15-0.23,2.25-0.86,3.26c-3.05,4.94-8.3,10.43-15.39,14.86"/>
				</g>
				<path id="kvg:05834-s10" d="M54.87,58.05c2.13,0.33,3.68,0.08,5.42-0.04c6.96-0.5,23.33-3.25,27.59-3.74c3.27-0.37,4.98,1.05,4.45,4.29C91,66.75,86.15,83.96,78.92,92.78c-2.17,2.65-3.4-0.44-5.34-2.37"/>
			</g>
			<g id="kvg:05834-g9">
				<path id="kvg:05834-s11" d="M61.75,61.12c0.12,1-0.08,1.67-0.51,2.56c-2.74,5.66-9.28,13.58-18.49,18.06"/>
			</g>
			<g id="kvg:05834-g10">
				<path id="kvg:05834-s12" d="M75.88,59.39c0.1,0.92-0.04,2.36-0.45,3.67C73.04,70.8,63.03,85.12,50,93.5"/>
			</g>
		</g>
	</g>
</g>
</g>
<g id="kvg:StrokeNumbers_05834">
	<text transform="matrix(1 0 0 1 8.50 42.50)">1</text>
	<text transform="matrix(1 0 0 1 17.25 18.13)">2</text>
	<text transform="matrix(1 0 0 1 4.50 68.50)">3</text>
	<text transform="matrix(1 0 0 1 42.75 18.50)">4</text>
	<text transform="matrix(1 0 0 1 55.50 11.50)">5</text>
	<text transform="matrix(1 0 0 1 58.46 22.63)">6</text>
	<text transform="matrix(1 0 0 1 58.50 34.63)">7</text>
	<text transform="matrix(1 0 0 1 36.75 48.13)">8</text>
	<text transform="matrix(1 0 0 1 44.25 57.13)">9</text>
	<text transform="matrix(1 0 0 1 59.50 55.63)">10</text>
	<text transform="matrix(1 0 0 1 51.50 67.50)">11</text>
	<text transform="matrix(1 0 0 1 64.50 69.50)">12</text>
</g>
</svg>
