<svg width="109" height="109" viewBox="0 0 109 109">
<g id="kvg:StrokePaths_0584b">
<g id="kvg:0584b">
	<g id="kvg:0584b-g1">
		<g id="kvg:0584b-g2">
			<path id="kvg:0584b-s1" d="M20,20.18c2.52,2.23,5.04,8.22,5.25,11.81"/>
			<path id="kvg:0584b-s2" d="M49.24,17.87c0.6,0.5,0.32,2.33-0.22,3.1c-0.54,0.77-5.56,5.68-8.27,7.48"/>
			<path id="kvg:0584b-s3" d="M35.26,12.75c0.99,0.81,1.03,2.88,0.99,3.39c-1,14.36-4.5,21.36-12,28.36"/>
			<path id="kvg:0584b-s4" d="M36.47,32.14c4.29,1.75,9.7,7.29,10.83,9.77"/>
		</g>
		<g id="kvg:0584b-g3">
			<path id="kvg:0584b-s5" d="M55.25,17.18c3.42,2.9,6.15,7.57,6.5,10.81"/>
			<path id="kvg:0584b-s6" d="M86.25,13.87c0.59,0.53,0.31,2.46-0.22,3.27c-0.53,0.82-6.38,5.41-9.04,7.31"/>
			<path id="kvg:0584b-s7" d="M71.34,11.25c0.91,0.69,0.93,2.04,0.91,2.49C71.75,29,67.75,35.75,59.75,42"/>
			<path id="kvg:0584b-s8" d="M74.22,29.39c3.99,1.89,9.03,7.85,10.08,10.52"/>
		</g>
		<g id="kvg:0584b-g4">
			<path id="kvg:0584b-s9" d="M16.66,48.69c-0.13,3.93-3.1,14.22-4.16,16.56"/>
			<path id="kvg:0584b-s10" d="M16.72,51.12c3.61,0,51.43-4.87,69.57-4.87c12.34,0,3.9,5.89-0.71,9.72"/>
		</g>
	</g>
	<g id="kvg:0584b-g5">
		<path id="kvg:0584b-s11" d="M28.63,71.08c1.08,0.33,3.07,0.49,4.13,0.33c4.36-0.65,35.26-3.32,45.35-3.32c1.8,0,2.87,0.16,3.77,0.32"/>
		<path id="kvg:0584b-s12" d="M52.42,54.12c1.08,0.88,1.77,2.21,1.77,3.69c0,9.7,0.06,32.78,0.06,35.2"/>
		<path id="kvg:0584b-s13" d="M18.38,94.86c1.52,0.43,4.31,0.48,5.82,0.43c9.3-0.29,33.53-3.03,62.61-3.15c2.53-0.01,4.05,0.2,5.31,0.42"/>
	</g>
</g>
</g>
<g id="kvg:StrokeNumbers_0584b">
	<text transform="matrix(1 0 0 1 13.50 20.50)">1</text>
	<text transform="matrix(1 0 0 1 42.50 18.50)">2</text>
	<text transform="matrix(1 0 0 1 27.75 12.48)">3</text>
	<text transform="matrix(1 0 0 1 44.50 35.50)">4</text>
	<text transform="matrix(1 0 0 1 53.50 14.50)">5</text>
	<text transform="matrix(1 0 0 1 77.50 12.50)">6</text>
	<text transform="matrix(1 0 0 1 65.50 10.50)">7</text>
	<text transform="matrix(1 0 0 1 79.50 31.10)">8</text>
	<text transform="matrix(1 0 0 1 10.50 50.50)">9</text>
	<text transform="matrix(1 0 0 1 27.50 47.50)">10</text>
	<text transform="matrix(1 0 0 1 19.50 71.50)">11</text>
	<text transform="matrix(1 0 0 1 41.50 57.50)">12</text>
	<text transform="matrix(1 0 0 1 15.50 91.50)">13</text>
</g>
</svg>
