<svg width="109" height="109" viewBox="0 0 109 109">
<g id="kvg:StrokePaths_05897">
<g id="kvg:05897">
	<g id="kvg:05897-g1">
		<path id="kvg:05897-s1" d="M12.5,46.64c0.76,0.38,2.24,0.46,3,0.36c4.82-0.66,12.38-1.75,18.75-3.25c1.23-0.29,2.87-0.43,3.5-0.24"/>
		<path id="kvg:05897-s2" d="M26.37,21.5c0.94,0.94,1.46,2.38,1.46,4c0,7.25,0.03,35.38,0.03,46.75"/>
		<path id="kvg:05897-s3" d="M13.14,80.21c0.77,0.59,2.23,0.79,3.71-0.24C22.67,75.92,32.8,68.22,38.5,64"/>
	</g>
	<g id="kvg:05897-g2">
		<g id="kvg:05897-g3">
			<path id="kvg:05897-s4" d="M49.01,13.8c3.15,2.15,8.14,8.86,8.93,12.21"/>
			<path id="kvg:05897-s5" d="M82.07,10.81c0.09,1.06-0.11,1.55-0.63,2.54c-1.66,3.16-4.94,7.47-9.69,11.78"/>
			<g id="kvg:05897-g4">
				<path id="kvg:05897-s6" d="M42.51,32.19c0.77,0.77,1.24,2.06,1.42,3.18c1.02,6.27,2.08,11.51,2.87,18.38c0.16,1.42,0.32,2.81,0.48,4.12"/>
				<path id="kvg:05897-s7" d="M44.67,33.02c12.42-1.71,33.19-4.01,44.57-5c2.75-0.24,4.95,0.71,4.51,3.85c-0.51,3.69-1.6,11.11-3.18,17.96c-0.36,1.56-0.74,3.1-1.12,4.55"/>
				<path id="kvg:05897-s8" d="M66.56,31.84c0.68,0.68,1.26,1.66,1.26,2.91c0,5.19-0.09,11.81-0.02,19.19"/>
				<path id="kvg:05897-s9" d="M46.84,44.51C57.38,43,84.38,40.5,90.97,40.32"/>
				<path id="kvg:05897-s10" d="M47.92,56.14C60.5,54.5,76.5,53.2,88.79,52.26"/>
			</g>
		</g>
		<g id="kvg:05897-g5">
			<path id="kvg:05897-s11" d="M51.56,66.64c0.78,0.78,1.22,1.99,1.22,3.4c0,7.71-0.03,18.59-0.03,23.46c0,1.49-0.03,3.31,0,5"/>
			<path id="kvg:05897-s12" d="M53.73,67.96c6.65-0.71,24.49-2.67,27.63-2.81c2.62-0.11,3.28,1.34,3.28,3.4c0,5.45,0.01,19.57,0.01,22.96c0,1.65-0.12,3.4-0.19,5.27"/>
			<path id="kvg:05897-s13" d="M53.91,81.23c5.59-0.6,24.3-2.63,29.58-2.63"/>
			<path id="kvg:05897-s14" d="M54.19,95.52C64.5,94.75,72,93.75,82.94,93.36"/>
		</g>
	</g>
</g>
</g>
<g id="kvg:StrokeNumbers_05897">
	<text transform="matrix(1 0 0 1 5.50 47.50)">1</text>
	<text transform="matrix(1 0 0 1 17.50 21.50)">2</text>
	<text transform="matrix(1 0 0 1 5.25 83.50)">3</text>
	<text transform="matrix(1 0 0 1 41.50 13.50)">4</text>
	<text transform="matrix(1 0 0 1 72.50 10.50)">5</text>
	<text transform="matrix(1 0 0 1 36.50 39.13)">6</text>
	<text transform="matrix(1 0 0 1 43.50 30.50)">7</text>
	<text transform="matrix(1 0 0 1 60.75 38.62)">8</text>
	<text transform="matrix(1 0 0 1 49.50 41.50)">9</text>
	<text transform="matrix(1 0 0 1 50.50 52.48)">10</text>
	<text transform="matrix(1 0 0 1 42.50 74.50)">11</text>
	<text transform="matrix(1 0 0 1 53.50 65.50)">12</text>
	<text transform="matrix(1 0 0 1 56.45 77.75)">13</text>
	<text transform="matrix(1 0 0 1 56.50 92.68)">14</text>
</g>
</svg>
