<svg width="109" height="109" viewBox="0 0 109 109">
<g id="kvg:StrokePaths_058ec">
<g id="kvg:058ec">
	<g id="kvg:058ec-g1">
		<g id="kvg:058ec-g2">
			<path id="kvg:058ec-s1" d="M76.68,14.5c-0.68,1.5-1.45,2.31-2.28,2.83C64.04,23.74,50.48,28.37,23.5,33.54"/>
		</g>
		<g id="kvg:058ec-g3">
			<path id="kvg:058ec-s2" d="M14.38,57.48c4.99,0.78,9.94,0.32,15.01-0.12C45,56,66.09,54.27,81.5,53.69c4.23-0.38,8.44-0.25,12.62,0.38"/>
			<path id="kvg:058ec-s3" d="M53.25,30.25c1.12,1.12,1.25,2.62,1.25,3.75c0,1.03,0,47.38,0,55.75"/>
			<path id="kvg:058ec-s4" d="M23.5,92c3.45,0.46,7.9,0.44,11.38,0.16c14-1.16,27-1.78,42.01-2.02c3.77-0.06,7.61-0.01,11.24,0.77"/>
		</g>
	</g>
</g>
</g>
<g id="kvg:StrokeNumbers_058ec">
	<text transform="matrix(1 0 0 1 67.50 13.63)">1</text>
	<text transform="matrix(1 0 0 1 6.50 56.55)">2</text>
	<text transform="matrix(1 0 0 1 46.25 39.50)">3</text>
	<text transform="matrix(1 0 0 1 16.50 91.50)">4</text>
</g>
</svg>
