<svg width="109" height="109" viewBox="0 0 109 109">
<g id="kvg:StrokePaths_058eb">
<g id="kvg:058eb">
	<path id="kvg:058eb-s1" d="M13.13,54.98c3.87,0.9,7.66,0.43,11.36,0.16c18.76-1.39,44.96-3.08,61.9-3.32c3.22-0.05,6.57,0.08,9.74,0.76"/>
	<path id="kvg:058eb-s2" d="M52.25,17.25C53.31,18.31,54,19.88,54,21.5c0,1.03,0.25,58.62,0.25,66"/>
	<path id="kvg:058eb-s3" d="M21.75,89.45c2.73,0.83,5.82,0.54,8.62,0.42c12.73-0.57,33.94-2.04,45.88-2.17c2.97-0.03,5.83,0.21,8.75,0.74"/>
</g>
</g>
<g id="kvg:StrokeNumbers_058eb">
	<text transform="matrix(1 0 0 1 6.50 55.63)">1</text>
	<text transform="matrix(1 0 0 1 40.50 18.50)">2</text>
	<text transform="matrix(1 0 0 1 13.50 89.50)">3</text>
</g>
</svg>
