<svg width="109" height="109" viewBox="0 0 109 109">
<g id="kvg:StrokePaths_05902">
<g id="kvg:05902">
	<path id="kvg:05902-s1" d="M43.56,11.75c0.08,1.09,0.16,2.81-0.15,4.38C41.56,25.35,30.98,45.6,16.5,58"/>
	<path id="kvg:05902-s2" d="M38.84,34.02c0.44,0.05,2.81,0.48,4.06,0.34c5.6-0.61,21.35-2.86,27.23-4.41c4.03-1.06,5.18,1.21,4.15,4.09C68.63,49.81,40.17,88.38,15,96.5"/>
	<path id="kvg:05902-s3" d="M33.5,40.75c7.5,8.75,41.5,42,51.61,50c3.02,2.39,5.46,3.54,8.39,4.25"/>
</g>
</g>
<g id="kvg:StrokeNumbers_05902">
	<text transform="matrix(1 0 0 1 35.25 11.50)">1</text>
	<text transform="matrix(1 0 0 1 45.50 30.50)">2</text>
	<text transform="matrix(1 0 0 1 32.25 52.50)">3</text>
</g>
</svg>
