<svg width="109" height="109" viewBox="0 0 109 109">
<g id="kvg:StrokePaths_05915">
<g id="kvg:05915">
	<path id="kvg:05915-s1" d="M52.99,13.14c0.26,1.61,0,3.47-0.49,4.61C49,26,41.38,39.25,27.56,48.97"/>
	<path id="kvg:05915-s2" d="M54,23.5c1.75,0.5,3.47,0.6,4.78,0.33c5.22-1.08,10.97-2.58,17.56-4.58c4.26-1.29,6.14,0.55,4.41,4.53C70,48.5,48.62,78.38,17.75,93"/>
	<path id="kvg:05915-s3" d="M45.25,42.62c4.84,2.36,12.04,9.2,13.25,12.88"/>
</g>
</g>
<g id="kvg:StrokeNumbers_05915">
	<text transform="matrix(1 0 0 1 45.50 13.50)">1</text>
	<text transform="matrix(1 0 0 1 58.50 20.50)">2</text>
	<text transform="matrix(1 0 0 1 48.50 42.50)">3</text>
</g>
</svg>
