<svg width="109" height="109" viewBox="0 0 109 109">
<g id="kvg:StrokePaths_05918">
<g id="kvg:05918">
	<g id="kvg:05918-g1">
		<path id="kvg:05918-s1" d="M32.79,13.39c0.19,0.71,0.72,2.85,0.38,4.23c-2.32,9.36-9.29,24.42-18.66,37.47"/>
		<path id="kvg:05918-s2" d="M33.1,27.5c0.26,0.05,1.65,0.5,3.13,0.35c2.5-0.24,10.73-2.15,13.84-2.38c2.59-0.19,3.11,1.13,2.49,3.84C49.18,44.13,32.11,80.37,17.02,88"/>
		<path id="kvg:05918-s3" d="M27.69,44.9c4.2,1.94,10.85,7.98,11.9,11"/>
	</g>
	<g id="kvg:05918-g2">
		<path id="kvg:05918-s4" d="M64.7,28.1c0.8,0.16,2.42,0.27,3.97-0.23c4.35-1.4,15.34-3,17.51-3.4c2.57-0.47,4.16,1.03,4.16,3.26c0,5.62-1.84,26.77-5.34,39.42c-1.92,6.95-5.81,0.79-6.4,0.47"/>
		<path id="kvg:05918-s5" d="M63.41,26.97c0.85,1.96,1.58,4.27,1.58,7.3c0,18.05-0.39,54.04-0.39,63.22"/>
	</g>
</g>
</g>
<g id="kvg:StrokeNumbers_05918">
	<text transform="matrix(1 0 0 1 24.50 13.50)">1</text>
	<text transform="matrix(1 0 0 1 37.50 24.50)">2</text>
	<text transform="matrix(1 0 0 1 29.50 43.50)">3</text>
	<text transform="matrix(1 0 0 1 63.50 24.50)">4</text>
	<text transform="matrix(1 0 0 1 57.50 36.50)">5</text>
</g>
</svg>
