<svg width="109" height="109" viewBox="0 0 109 109">
<g id="kvg:StrokePaths_0591c">
<g id="kvg:0591c">
	<g id="kvg:0591c-g1">
		<path id="kvg:0591c-s1" d="M52.27,10.5c1.24,1.24,1.92,2.75,1.92,4.26c0,4.29-0.12,5.13-0.12,8.81"/>
		<path id="kvg:0591c-s2" d="M20,27.47c2.58,0.33,5.52,0.3,9.16-0.04c17.5-1.67,34.28-3.92,51.31-4.98c3.54-0.22,5.63-0.21,8.28,0.33"/>
	</g>
	<g id="kvg:0591c-g2">
		<g id="kvg:0591c-g3">
			<path id="kvg:0591c-s3" d="M34.26,36c0.31,2-0.06,3.89-0.76,5.34c-4.44,9.2-10.07,17.85-20.25,29.05"/>
			<path id="kvg:0591c-s4" d="M27.73,55.9c0.77,1.1,1.26,2.51,1.26,3.84c0,8.77,0.17,23.89,0.04,32.77C29,94.78,28.97,96.68,28.97,98"/>
		</g>
		<g id="kvg:0591c-g4">
			<path id="kvg:0591c-s5" d="M60.5,32c0.13,1.12,0.18,2.04-0.15,2.89C57.86,41.41,52.87,50.32,45,57"/>
			<path id="kvg:0591c-s6" d="M62.21,39.36c1.04,0.14,2.54,0.26,3.52,0.12c4.52-0.61,8.27-1.61,11.9-3.12c3-1.25,4.38,0.75,3.47,3.02C74.75,55.25,61,78.88,38.25,90"/>
			<path id="kvg:0591c-s7" d="M56.75,49.12c2.73,1.25,7.04,5.14,7.73,7.08"/>
		</g>
		<g id="kvg:0591c-g5">
			<path id="kvg:0591c-s8" d="M45,62.75c7.38,0.75,28.23,18.89,38.64,25.59c3.13,2.01,6.66,4,10.36,4.66"/>
		</g>
	</g>
</g>
</g>
<g id="kvg:StrokeNumbers_0591c">
	<text transform="matrix(1 0 0 1 44.50 11.50)">1</text>
	<text transform="matrix(1 0 0 1 12.50 28.50)">2</text>
	<text transform="matrix(1 0 0 1 25.50 40.63)">3</text>
	<text transform="matrix(1 0 0 1 21.50 71.50)">4</text>
	<text transform="matrix(1 0 0 1 51.50 35.50)">5</text>
	<text transform="matrix(1 0 0 1 65.50 35.50)">6</text>
	<text transform="matrix(1 0 0 1 60.50 49.50)">7</text>
	<text transform="matrix(1 0 0 1 49.50 62.50)">8</text>
</g>
</svg>
