<svg width="109" height="109" viewBox="0 0 109 109">
<g id="kvg:StrokePaths_0592c">
<g id="kvg:0592c">
	<path id="kvg:0592c-s1" d="M28.5,31.25C30,32,32.75,32.75,35,32.5c6.75-0.75,34.02-4.05,37-4.5c5-0.75,6.25,0.75,5.5,4.5s-3,16-3.25,19"/>
	<g id="kvg:0592c-g1">
		<path id="kvg:0592c-s2" d="M17.38,57.11c0.97,0.44,3.46,0.77,4.51,0.61c14.86-2.22,45.86-4.97,63.36-6.14c1.34-0.09,4.5-0.08,6.75,0.42"/>
		<g id="kvg:0592c-g2">
			<path id="kvg:0592c-s3" d="M52.25,11.75c0.5,1,1.24,2.16,1.24,4.32c0,2.43,0.28,11.93,0.28,14.18c0,40-11.53,56.5-35.28,67.5"/>
			<path id="kvg:0592c-s4" d="M54,56c8.06,9.05,25.52,30.38,33.56,36.44c2.74,2.06,3.69,2.37,4.94,2.56"/>
		</g>
	</g>
</g>
</g>
<g id="kvg:StrokeNumbers_0592c">
	<text transform="matrix(1 0 0 1 21.50 32.50)">1</text>
	<text transform="matrix(1 0 0 1 9.50 56.50)">2</text>
	<text transform="matrix(1 0 0 1 42.50 12.50)">3</text>
	<text transform="matrix(1 0 0 1 63.50 64.50)">4</text>
</g>
</svg>
