<svg width="109" height="109" viewBox="0 0 109 109">
<g id="kvg:StrokePaths_0592a">
<g id="kvg:0592a">
	<g id="kvg:0592a-g1">
		<path id="kvg:0592a-s1" d="M19.38,47.86c2.65,0.92,5.89,1.11,8.63,0.7c13.62-2.06,33.87-5.31,48.67-6.23c2.62-0.16,5.62,0.17,8.08,0.92"/>
		<path id="kvg:0592a-s2" d="M49,18c1,1,1.49,2.41,1.49,4.57C50.49,56.75,37.75,80.5,18,92"/>
		<path id="kvg:0592a-s3" d="M50.75,47.75c8.04,9.38,24.72,30.39,34.53,39.72c2.4,2.28,4.97,4.66,8.22,5.78"/>
	</g>
	<g id="kvg:0592a-g2">
		<path id="kvg:0592a-s4" d="M44.5,81.5c3.79,2.16,9.8,8.89,10.75,12.25"/>
	</g>
</g>
</g>
<g id="kvg:StrokeNumbers_0592a">
	<text transform="matrix(1 0 0 1 12.75 49.50)">1</text>
	<text transform="matrix(1 0 0 1 40.50 18.50)">2</text>
	<text transform="matrix(1 0 0 1 61.50 55.50)">3</text>
	<text transform="matrix(1 0 0 1 44.50 79.50)">4</text>
</g>
</svg>
