<svg width="109" height="109" viewBox="0 0 109 109">
<g id="kvg:StrokePaths_05932">
<g id="kvg:05932">
	<g id="kvg:05932-g1">
		<path id="kvg:05932-s1" d="M17.99,30.95c1.26,0.48,4.6,1.04,7.27,0.83c18.03-1.43,41.71-4.28,57.89-4.97c2.78-0.12,5.02-0.06,7.53,0.31"/>
		<path id="kvg:05932-s2" d="M51.36,12c0.58,0.75,1.02,1.63,0.87,3.26C50.25,36,35.75,58.75,15,66.57"/>
		<path id="kvg:05932-s3" d="M57.19,29.15c7.75,6.47,25.82,22.94,33.56,27.27c2.63,1.47,3.55,1.69,4.75,1.83"/>
	</g>
	<g id="kvg:05932-g2">
		<path id="kvg:05932-s4" d="M29.61,70.03c0.9,0.3,2.57,0.38,3.47,0.3c11.5-0.99,34.73-3.37,42.66-3.48c1.51-0.02,2.41,0.14,3.17,0.3"/>
		<path id="kvg:05932-s5" d="M52.89,51.88c0.42,0.34,1.32,2.53,1.41,3.2c0.08,0.68-0.05,40.83-0.14,45.05"/>
	</g>
</g>
</g>
<g id="kvg:StrokeNumbers_05932">
	<text transform="matrix(1 0 0 1 12.50 30.50)">1</text>
	<text transform="matrix(1 0 0 1 42.50 11.50)">2</text>
	<text transform="matrix(1 0 0 1 71.50 38.50)">3</text>
	<text transform="matrix(1 0 0 1 22.25 70.50)">4</text>
	<text transform="matrix(1 0 0 1 44.25 53.50)">5</text>
</g>
</svg>
