<svg width="109" height="109" viewBox="0 0 109 109">
<g id="kvg:StrokePaths_05937">
<g id="kvg:05937">
	<g id="kvg:05937-g1">
		<path id="kvg:05937-s1" d="M25,27.38c2.68,0.93,6.23,0.35,9,0.03C46,26,64.5,24,77,23.14c2.74-0.19,5.54-0.31,8.25,0.25"/>
	</g>
	<g id="kvg:05937-g2">
		<path id="kvg:05937-s2" d="M28.33,39.56c2.44,1.12,4.98,0.9,7.54,0.53c16-2.34,29.63-4.34,40-5.71c4.59-0.61,4.84,1.85,3.72,3.96c-1.34,2.54-2.22,4.67-3.53,8.15"/>
		<path id="kvg:05937-s3" d="M27.5,52.13c2.49,0.87,5.23,0.28,7.74-0.06c8.91-1.21,24.13-3.07,35.75-4.17c2.43-0.23,4.85-0.5,7.26,0"/>
		<path id="kvg:05937-s4" d="M29.93,53.18c0.95,1.57,1.21,3.03,0.52,4.68c-0.95,2.27-1.82,4.39-2.38,5.96c-0.84,2.33-0.96,3.47,2.66,2.93c5.02-0.75,46.55-6.17,53.87-6.91c3.73-0.37,6.22,1.25,5.01,4.67c-1.98,5.62-3.48,8.62-6.39,12.42c-4.22,5.53-7.34,0.69-8.62-1.3"/>
	</g>
	<g id="kvg:05937-g3">
		<g id="kvg:05937-g4">
			<path id="kvg:05937-s5" d="M53.44,10.75c1.09,1.09,1.32,2.79,1.33,5.78c0.1,29.34,5.73,65.97-37.96,82.44"/>
		</g>
		<path id="kvg:05937-s6" d="M53.75,67.25c3.91,4.62,16.29,16.55,25,24.14c3.2,2.78,6.62,5.74,11,7.61"/>
	</g>
</g>
</g>
<g id="kvg:StrokeNumbers_05937">
	<text transform="matrix(1 0 0 1 18.00 28.13)">1</text>
	<text transform="matrix(1 0 0 1 20.50 41.55)">2</text>
	<text transform="matrix(1 0 0 1 28.50 50.50)">3</text>
	<text transform="matrix(1 0 0 1 22.50 60.50)">4</text>
	<text transform="matrix(1 0 0 1 43.50 11.50)">5</text>
	<text transform="matrix(1 0 0 1 61.00 71.50)">6</text>
</g>
</svg>
