<svg width="109" height="109" viewBox="0 0 109 109">
<g id="kvg:StrokePaths_0593e">
<g id="kvg:0593e">
	<g id="kvg:0593e-g1">
		<path id="kvg:0593e-s1" d="M17.88,33.24c1.26,0.57,4.63,1.24,7.31,0.99c18.14-1.7,41.95-5.08,58.24-5.9c2.8-0.14,5.05-0.07,7.58,0.37"/>
	</g>
	<g id="kvg:0593e-g2">
		<g id="kvg:0593e-g3">
			<path id="kvg:0593e-s2" d="M31.74,39.74c0.46,0.44,0.47,1.35,0.31,2.24c-1.3,7.52-6.8,18.52-18.08,27.15"/>
			<path id="kvg:0593e-s3" d="M30.66,50.49c4.01,2.01,9.14,7.35,11.09,12.41"/>
		</g>
		<g id="kvg:0593e-g4">
			<path id="kvg:0593e-s4" d="M77.07,34.74c0.36,0.37,0.37,1.13,0.25,1.88c-1.03,6.3-5.4,15.52-14.35,22.76"/>
			<path id="kvg:0593e-s5" d="M75.91,48.49c4.92,2.25,11.2,8.24,13.59,13.91"/>
		</g>
	</g>
	<g id="kvg:0593e-g5">
		<g id="kvg:0593e-g6">
			<path id="kvg:0593e-s6" d="M52.55,13.75c0.63,1.16,1.34,2.51,1.44,5.01C56,66.75,48.25,81.5,13,98.5"/>
		</g>
		<path id="kvg:0593e-s7" d="M52.75,54.75c8.34,9,27.31,31.43,35.64,37.45c2.83,2.05,3.82,2.35,5.11,2.55"/>
	</g>
</g>
</g>
<g id="kvg:StrokeNumbers_0593e">
	<text transform="matrix(1 0 0 1 11.50 33.50)">1</text>
	<text transform="matrix(1 0 0 1 24.50 43.55)">2</text>
	<text transform="matrix(1 0 0 1 36.50 52.50)">3</text>
	<text transform="matrix(1 0 0 1 69.50 38.40)">4</text>
	<text transform="matrix(1 0 0 1 82.50 50.50)">5</text>
	<text transform="matrix(1 0 0 1 43.50 14.50)">6</text>
	<text transform="matrix(1 0 0 1 66.50 66.50)">7</text>
</g>
</svg>
