<svg width="109" height="109" viewBox="0 0 109 109">
<g id="kvg:StrokePaths_0594e">
<g id="kvg:0594e">
	<g id="kvg:0594e-g1">
		<path id="kvg:0594e-s1" d="M20.38,25.61c4.38,1.14,9.12,0.37,13.13,0c13.4-1.24,28.82-2.8,41.36-3.62c4.61-0.3,9.04-0.51,13.63,0.19"/>
		<path id="kvg:0594e-s2" d="M52.27,12.25c0.31,1.67-0.17,2.91-1.09,4.36c-9.35,14.63-19.84,25.87-40.43,37.03"/>
		<path id="kvg:0594e-s3" d="M59,24.19C65,29,75.12,37,82.68,42.37c2.14,1.52,5.7,3.63,9.07,4.88"/>
	</g>
	<g id="kvg:0594e-g2">
		<g id="kvg:0594e-g3">
			<path id="kvg:0594e-s4" d="M33.19,48.93c2.69,0.7,4.95,0.25,7.07,0.11c9.17-0.61,19.69-1.44,28.37-1.9c2.32-0.12,4.73-0.41,7.02,0.15"/>
			<path id="kvg:0594e-s5" d="M52.81,35.37C53.79,36.34,54,37.64,54,39.5c0,3.25,0,14.63,0,20.75"/>
			<path id="kvg:0594e-s6" d="M25.76,62.73c2.66,1,5.74,0.53,8.49,0.29c15.53-1.31,29.21-2.4,43.25-3.09c2.78-0.14,5.4,0.02,8.13,0.64"/>
		</g>
		<g id="kvg:0594e-g4">
			<path id="kvg:0594e-s7" d="M30.21,79.93c2.7,0.88,5.93,0.4,8.67,0.16c10.74-0.97,24.14-1.97,34.99-2.46c2.88-0.13,5.67,0.1,8.48,0.65"/>
			<path id="kvg:0594e-s8" d="M52.59,67.37c1.15,1.15,1.44,2.27,1.44,4.14c0,3.37-0.03,16.63-0.03,21.37"/>
			<path id="kvg:0594e-s9" d="M18.88,94.98c3.33,1.25,7.4,0.88,10.87,0.61c15.53-1.19,35-2.34,51.27-2.52c3.8-0.04,7.67,0.17,11.36,1"/>
		</g>
	</g>
</g>
</g>
<g id="kvg:StrokeNumbers_0594e">
	<text transform="matrix(1 0 0 1 14.25 26.25)">1</text>
	<text transform="matrix(1 0 0 1 43.50 11.25)">2</text>
	<text transform="matrix(1 0 0 1 73.25 32.25)">3</text>
	<text transform="matrix(1 0 0 1 33.25 47.25)">4</text>
	<text transform="matrix(1 0 0 1 46.25 34.25)">5</text>
	<text transform="matrix(1 0 0 1 18.25 63.25)">6</text>
	<text transform="matrix(1 0 0 1 23.25 81.25)">7</text>
	<text transform="matrix(1 0 0 1 44.25 71.25)">8</text>
	<text transform="matrix(1 0 0 1 11.25 96.25)">9</text>
</g>
</svg>
