<svg width="109" height="109" viewBox="0 0 109 109">
<g id="kvg:StrokePaths_0595a">
<g id="kvg:0595a">
	<g id="kvg:0595a-g1">
		<g id="kvg:0595a-g2">
			<path id="kvg:0595a-s1" d="M73.44,9.89c0.12,0.28,0.25,0.72-0.24,1.12C70.29,13.37,52,19.5,27.81,21.22"/>
			<path id="kvg:0595a-s2" d="M30.27,26.14c0.04,0.4,0.08,1.04-0.07,1.62c-0.9,3.41-5.19,9.49-12.63,15.96"/>
			<path id="kvg:0595a-s3" d="M49.77,25.08c2.4,1.7,6.19,6.99,6.79,9.63"/>
			<path id="kvg:0595a-s4" d="M72.27,22.33c5.13,2.71,13.26,11.16,14.54,15.38"/>
		</g>
		<g id="kvg:0595a-g3">
			<path id="kvg:0595a-s5" d="M45.46,33.12c0.5,1.13,0.77,1.92-0.25,3.2c-1.96,2.44-5.71,6.94-9,10.16c-0.83,0.81-0.49,2.11,0.5,2.32c5.25,1.13,6,1.51,10.5,3.58"/>
			<path id="kvg:0595a-s6" d="M63.71,38.76c0.29,1.74-0.74,2.95-1.5,3.51c-10.5,7.71-17.96,12.98-29.75,21.13c-1.67,1.16-1,1.88,1,1.5c8.36-1.57,31.75-5.39,42.5-6.89"/>
			<path id="kvg:0595a-s7" d="M68.21,51.43c4.32,2.31,11.17,9.49,12.25,13.09"/>
		</g>
	</g>
	<g id="kvg:0595a-g4">
		<path id="kvg:0595a-s8" d="M19.38,77.19c1.21,0.38,4.43,0.84,6.99,0.67c17.33-1.14,40.09-3.44,55.65-3.99c2.68-0.09,4.83-0.05,7.24,0.25"/>
		<path id="kvg:0595a-s9" d="M53.38,65c0.58,0.51,0.58,1.62,0.37,2.71C50.5,84.25,37.75,96.75,17,102.29"/>
		<path id="kvg:0595a-s10" d="M52.5,76.62C59.58,81.93,76.09,95.45,83.16,99c2.4,1.21,3.24,1.39,4.34,1.5"/>
	</g>
</g>
</g>
<g id="kvg:StrokeNumbers_0595a">
	<text transform="matrix(1 0 0 1 65.50 9.13)">1</text>
	<text transform="matrix(1 0 0 1 22.50 29.50)">2</text>
	<text transform="matrix(1 0 0 1 42.50 28.50)">3</text>
	<text transform="matrix(1 0 0 1 65.50 25.50)">4</text>
	<text transform="matrix(1 0 0 1 37.50 35.50)">5</text>
	<text transform="matrix(1 0 0 1 53.44 43.50)">6</text>
	<text transform="matrix(1 0 0 1 69.50 49.50)">7</text>
	<text transform="matrix(1 0 0 1 11.50 78.50)">8</text>
	<text transform="matrix(1 0 0 1 45.50 71.53)">9</text>
	<text transform="matrix(1 0 0 1 64.50 84.46)">10</text>
</g>
</svg>
