<svg width="109" height="109" viewBox="0 0 109 109">
<g id="kvg:StrokePaths_05957">
<g id="kvg:05957">
	<g id="kvg:05957-g1">
		<path id="kvg:05957-s1" d="M22.38,24.54c1.1,0.4,4.03,0.88,6.36,0.7c15.78-1.2,36.5-3.61,50.67-4.19c2.44-0.1,4.39-0.05,6.59,0.26"/>
		<path id="kvg:05957-s2" d="M53.62,10.75c0.13,1.25,0.5,2.41-0.13,3.48C43.75,30.75,32.25,42.75,17.5,52.75"/>
		<path id="kvg:05957-s3" d="M55,23c8.04,5.39,26.8,19.12,34.83,22.72c2.73,1.23,3.68,1.41,4.92,1.53"/>
	</g>
	<g id="kvg:05957-g2">
		<path id="kvg:05957-s4" d="M41,40.25c0.88,0.88,0.5,0.75,0.5,2.25s0,28.5,0,30.75"/>
		<path id="kvg:05957-s5" d="M40,38.5c0.92,0.2,1.92,0.45,2.97,0.42c7.53-0.17,19.22-1.72,21.03-1.72c1.6,0,1.8,0,3.01,0.26"/>
		<path id="kvg:05957-s6" d="M41.75,50.5c8.49-0.11,19.35-2,21.23-2c1.48,0,1.67-0.01,2.77,0.22"/>
		<path id="kvg:05957-s7" d="M42,61.75c8.85-0.09,17.5-1.4,20.77-1.59c1.53-0.09,3.06-0.07,4.23,0.09"/>
		<path id="kvg:05957-s8" d="M16.88,75.2c1.39,0.33,3.94,0.38,5.33,0.33c14.47-0.55,46.3-4.56,66.05-5c2.32-0.05,3.71,0.16,4.87,0.32"/>
		<g id="kvg:05957-g3">
			<path id="kvg:05957-s9" d="M48.49,76.75c0.1,0.92-0.14,1.84-0.48,2.28C43.5,85,39.53,90.45,32.59,94.29c-3.09,1.71-2.07,3.52,0.98,2.83c8.17-1.86,29.17-6.61,40.47-8.02"/>
			<path id="kvg:05957-s10" d="M64.38,80.13c6.11,3.32,15.78,13.67,17.31,18.84"/>
		</g>
	</g>
</g>
</g>
<g id="kvg:StrokeNumbers_05957">
	<text transform="matrix(1 0 0 1 16.50 24.50)">1</text>
	<text transform="matrix(1 0 0 1 45.50 10.50)">2</text>
	<text transform="matrix(1 0 0 1 72.50 31.50)">3</text>
	<text transform="matrix(1 0 0 1 34.50 48.50)">4</text>
	<text transform="matrix(1 0 0 1 46.50 35.50)">5</text>
	<text transform="matrix(1 0 0 1 46.50 47.50)">6</text>
	<text transform="matrix(1 0 0 1 46.50 59.50)">7</text>
	<text transform="matrix(1 0 0 1 15.50 70.60)">8</text>
	<text transform="matrix(1 0 0 1 38.50 82.53)">9</text>
	<text transform="matrix(1 0 0 1 54.50 83.50)">10</text>
</g>
</svg>
