<svg width="109" height="109" viewBox="0 0 109 109">
<g id="kvg:StrokePaths_0596c">
<g id="kvg:0596c">
	<g id="kvg:0596c-g1">
		<g id="kvg:0596c-g2">
			<path id="kvg:0596c-s1" d="M36.67,14.6c1.05,0.88,1.73,2.38,1.73,3.41c0,9.9-0.03,43.24-0.03,46.61"/>
			<path id="kvg:0596c-s2" d="M22.28,17.75c1.2,0.41,1.15,1.88,1.25,3.23c0.15,2.02-0.65,6.05-1.02,8.16c-0.12,0.67,0.21,1.73,1.98,1.57c3.16-0.27,10.77-1.75,13.44-2.01"/>
			<path id="kvg:0596c-s3" d="M15.15,42.27c1.16,0.09,1.4,0.36,2.76,0.3c5.81-0.27,16.19-2.55,20.24-2.7"/>
			<path id="kvg:0596c-s4" d="M26.02,44.23c0.03,0.5,0.53,1.29,0.5,2.02c-0.27,6.5-4.27,14-10.81,19.32"/>
		</g>
		<g id="kvg:0596c-g3">
			<g id="kvg:0596c-g4">
				<path id="kvg:0596c-s5" d="M65.57,10c0.18,1,0.07,2.11-0.54,2.95c-3.04,4.17-8.28,9.3-17.23,14.4"/>
				<path id="kvg:0596c-s6" d="M64.45,16.58c1.15,0.26,2.04,0.45,3.7,0.33c5.14-0.36,9.01-0.84,11.63-1.29c2.1-0.36,3.05,0.58,1.9,1.72C75,24,63.25,32,44.79,37.84"/>
				<path id="kvg:0596c-s7" d="M60.2,21.13c0.88,0.34,4.38,2.38,6.13,4.43"/>
				<path id="kvg:0596c-s8" d="M52.51,25.38c1.26,0.83,5.03,4.36,6.07,6.24"/>
			</g>
			<g id="kvg:0596c-g5">
				<path id="kvg:0596c-s9" d="M44.48,42.28c0.89,0.4,2.52,0.45,3.43,0.4c9.9-0.49,30.58-4.02,41.49-4.63c1.49-0.08,2.38,0.19,3.13,0.39"/>
				<path id="kvg:0596c-s10" d="M78.35,29.95c0.06,0.19,0.84,1,0.84,2.23c0,8.23-0.17,23.3-0.17,25.31c0,9.01-4.52,2.01-6.5,0.1"/>
				<path id="kvg:0596c-s11" d="M55.77,47.65c2.45,1.61,6.33,6.62,6.94,9.13"/>
			</g>
		</g>
	</g>
	<g id="kvg:0596c-g6">
		<path id="kvg:0596c-s12" d="M20.38,73.47c1.12,0.46,4.12,1,6.51,0.8C43.04,72.9,67.75,70.66,82.25,70c2.49-0.11,4.5-0.06,6.75,0.3"/>
		<path id="kvg:0596c-s13" d="M53.13,60.08c0.58,0.57,0.92,1.73,0.87,2.96C53.25,79,39.5,97,17.25,101.75"/>
		<path id="kvg:0596c-s14" d="M53,72.32c6.88,5.99,22.92,21.23,29.79,25.24c2.34,1.36,3.15,1.57,4.21,1.69"/>
	</g>
</g>
</g>
<g id="kvg:StrokeNumbers_0596c">
	<text transform="matrix(1 0 0 1 28.50 13.50)">1</text>
	<text transform="matrix(1 0 0 1 13.50 16.05)">2</text>
	<text transform="matrix(1 0 0 1 7.50 43.50)">3</text>
	<text transform="matrix(1 0 0 1 18.50 50.50)">4</text>
	<text transform="matrix(1 0 0 1 58.75 9.50)">5</text>
	<text transform="matrix(1 0 0 1 70.50 14.50)">6</text>
	<text transform="matrix(1 0 0 1 66.50 23.50)">7</text>
	<text transform="matrix(1 0 0 1 57.50 28.50)">8</text>
	<text transform="matrix(1 0 0 1 42.50 49.53)">9</text>
	<text transform="matrix(1 0 0 1 68.50 34.50)">10</text>
	<text transform="matrix(1 0 0 1 49.50 52.50)">11</text>
	<text transform="matrix(1 0 0 1 19.50 70.30)">12</text>
	<text transform="matrix(1 0 0 1 42.50 61.50)">13</text>
	<text transform="matrix(1 0 0 1 52.50 87.50)">14</text>
</g>
</svg>
