<svg width="109" height="109" viewBox="0 0 109 109">
<g id="kvg:StrokePaths_05960">
<g id="kvg:05960">
	<g id="kvg:05960-g1">
		<g id="kvg:05960-g2">
			<g id="kvg:05960-g3">
				<path id="kvg:05960-s1" d="M41.77,12.59c-0.02,1.16,0.01,1.78-0.58,2.48C37.69,19.19,28.75,28,17.3,32.75"/>
			</g>
			<g id="kvg:05960-g4">
				<path id="kvg:05960-s2" d="M57.19,11c1.41,0.19,2.75,0.45,3.65,0.95c8.25,4.65,18.19,14.28,26.02,17.19c3.37,1.25,4.58,1.93,7.85,2.33"/>
			</g>
		</g>
		<g id="kvg:05960-g5">
			<g id="kvg:05960-g6">
				<path id="kvg:05960-s3" d="M36.8,24.65c0.91,0.47,3.72,0.59,4.63,0.47c6.08-0.82,15.82-1.62,24.08-2.75c1.5-0.21,3.19,0.22,3.95,0.46"/>
				<path id="kvg:05960-s4" d="M32.72,33.31c0.54,0.44,0.74,2,0.74,2.59c0,0.59-0.18,26.26,0,26.85"/>
				<path id="kvg:05960-s5" d="M33.86,34.86c3.04-0.07,36.88-3.35,39.65-3.43c2.31-0.07,2.96,1.21,2.96,2.87c0,0.93,0.01,26.16,0.01,26.6"/>
				<path id="kvg:05960-s6" d="M47.77,27.39c0.48,0.61,0.1,1.86,0.11,2.65c0.05,3.3-2.64,13.45-9.15,17.58"/>
				<path id="kvg:05960-s7" d="M58.02,24.88c0.58,0.64,1.04,1.4,1.08,2.38c0.11,3.14-0.25,7.36-0.31,11.23c-0.04,3.36,1.63,3.78,7.14,3.78c3.5,0,6.98-0.42,7.38-0.8"/>
			</g>
			<g id="kvg:05960-g7">
				<path id="kvg:05960-s8" d="M34.08,53.12c4.12,0,37.58-2.76,42.24-2.76"/>
			</g>
			<g id="kvg:05960-g8">
				<path id="kvg:05960-s9" d="M33.8,60.78c8.38-0.32,32.15-1.85,42.59-2.12"/>
			</g>
		</g>
	</g>
	<g id="kvg:05960-g9">
		<path id="kvg:05960-s10" d="M15.72,74.68c1.24,0.54,4.54,1.18,7.16,0.94c17.77-1.61,44.6-3.84,60.55-4.62c2.74-0.13,4.95-0.07,7.42,0.36"/>
		<path id="kvg:05960-s11" d="M51.19,62.75c0.5,0.5,0.31,1.59,0.25,2.68C50.75,78.5,38.5,95,19.68,99.62"/>
		<path id="kvg:05960-s12" d="M51.07,73.16c7.79,5.58,25.95,19.78,33.73,23.51c2.65,1.27,3.57,1.46,4.77,1.58"/>
	</g>
</g>
</g>
<g id="kvg:StrokeNumbers_05960">
	<text transform="matrix(1 0 0 1 34.50 12.50)">1</text>
	<text transform="matrix(1 0 0 1 51.50 9.50)">2</text>
	<text transform="matrix(1 0 0 1 45.50 21.50)">3</text>
	<text transform="matrix(1 0 0 1 25.50 39.50)">4</text>
	<text transform="matrix(1 0 0 1 34.50 32.50)">5</text>
	<text transform="matrix(1 0 0 1 40.50 32.50)">6</text>
	<text transform="matrix(1 0 0 1 52.50 30.50)">7</text>
	<text transform="matrix(1 0 0 1 44.50 50.50)">8</text>
	<text transform="matrix(1 0 0 1 38.50 58.50)">9</text>
	<text transform="matrix(1 0 0 1 3.25 73.45)">10</text>
	<text transform="matrix(1 0 0 1 41.25 68.50)">11</text>
	<text transform="matrix(1 0 0 1 67.25 80.30)">12</text>
</g>
</svg>
