<svg width="109" height="109" viewBox="0 0 109 109">
<g id="kvg:StrokePaths_05981">
<g id="kvg:05981">
	<g id="kvg:05981-g1">
		<path id="kvg:05981-s1" d="M29.48,16.87c0.39,1.04,1.08,2.74,0.89,4.24c-0.98,7.39-7.82,33.66-12.13,42.29c-0.89,1.77,0.39,2.5,0.89,2.63C27.75,68.32,37,76.66,42.25,84.28"/>
		<path id="kvg:05981-s2" d="M41.75,36.89c0.08,1.27,0.14,4.34-0.17,6.18C39.11,57.91,31.96,78.96,14.25,90"/>
		<path id="kvg:05981-s3" d="M11,48.52c0.75,1.07,1.75,1.84,3.75,1.58c2.15-0.28,21.34-5.51,30.25-8.23"/>
	</g>
	<g id="kvg:05981-g2">
		<g id="kvg:05981-g3">
			<g id="kvg:05981-g4">
				<path id="kvg:05981-s4" d="M62.52,14c0.04,0.88,0.08,2.26-0.08,3.51c-0.94,7.41-4.95,24.74-13.7,33.61"/>
			</g>
			<path id="kvg:05981-s5" d="M60,34.37c0.85,0.67,3.47,0.55,4.89,0.45c8.36-0.57,21.08-2.6,24.47-2.82s4.02,1.75,3.9,6.5C93,48.75,89.25,75,82.68,90.98c-1.66,4.04-5.68,0.52-8.42-2.12"/>
		</g>
		<g id="kvg:05981-g5">
			<path id="kvg:05981-s6" d="M57.02,55.33c3.63,2.36,9.38,9.71,10.29,13.38"/>
		</g>
	</g>
</g>
</g>
<g id="kvg:StrokeNumbers_05981">
	<text transform="matrix(1 0 0 1 22.25 16.50)">1</text>
	<text transform="matrix(1 0 0 1 36.50 32.50)">2</text>
	<text transform="matrix(1 0 0 1 4.25 48.50)">3</text>
	<text transform="matrix(1 0 0 1 54.50 14.50)">4</text>
	<text transform="matrix(1 0 0 1 64.50 31.50)">5</text>
	<text transform="matrix(1 0 0 1 50.50 61.50)">6</text>
</g>
</svg>
