<svg width="109" height="109" viewBox="0 0 109 109">
<g id="kvg:StrokePaths_059d1">
<g id="kvg:059d1">
	<g id="kvg:059d1-g1">
		<path id="kvg:059d1-s1" d="M30.48,20.12c0.39,1.07,0.56,2.81,0.39,4.36c-1.07,9.61-5.25,29.99-10.01,40.87c-0.89,2.04-1.35,3.61,1.12,4.29c5.62,1.56,10.64,3.37,14.87,6.76c1.98,1.59,3.79,3.52,5.41,5.94"/>
		<path id="kvg:059d1-s2" d="M42.75,39.48c0.38,1.27,0.41,3.53,0.08,5.33C40,60.25,33.25,80.38,14.75,91.75"/>
		<path id="kvg:059d1-s3" d="M10.5,49.25c0.81,1.19,2.12,1.38,3.53,1.02c3.85-1,20.72-5.14,32.97-8.42"/>
	</g>
	<g id="kvg:059d1-g2">
		<g id="kvg:059d1-g3">
			<path id="kvg:059d1-s4" d="M50.55,46.78c3.18,0.36,6.33,0.33,9.47-0.09c8.91-1.02,21.92-2.7,30.35-3.4c2.87-0.28,5.75-0.22,8.63,0.18"/>
			<path id="kvg:059d1-s5" d="M71.9,16.5c0.99,0.99,1.33,2.62,1.33,4.03c0,22.97-0.04,36.47-0.04,46.33"/>
		</g>
		<g id="kvg:059d1-g4">
			<path id="kvg:059d1-s6" d="M55.29,68.64c0.91,0.91,1.09,1.73,1.25,2.72c0.58,3.39,1.67,10.55,2.62,17.5c0.3,2.19,0.59,4.36,0.84,6.38"/>
			<path id="kvg:059d1-s7" d="M56.81,69.69c7.89-0.84,26.07-2.56,33.71-3.06c2.59-0.17,3.65,1.58,3.3,3.74c-0.62,3.75-3.35,17.72-3.69,19.56"/>
			<path id="kvg:059d1-s8" d="M60.95,92.72c5.45-0.29,16.6-0.99,25.17-1.5c2.35-0.14,4.51-0.27,6.3-0.37"/>
		</g>
	</g>
</g>
</g>
<g id="kvg:StrokeNumbers_059d1">
	<text transform="matrix(1 0 0 1 21.50 19.63)">1</text>
	<text transform="matrix(1 0 0 1 40.25 35.50)">2</text>
	<text transform="matrix(1 0 0 1 2.50 51.50)">3</text>
	<text transform="matrix(1 0 0 1 53.50 43.50)">4</text>
	<text transform="matrix(1 0 0 1 62.50 16.50)">5</text>
	<text transform="matrix(1 0 0 1 48.25 75.50)">6</text>
	<text transform="matrix(1 0 0 1 57.50 66.50)">7</text>
	<text transform="matrix(1 0 0 1 63.50 89.50)">8</text>
</g>
</svg>
