<svg width="109" height="109" viewBox="0 0 109 109">
<g id="kvg:StrokePaths_05a1f">
<g id="kvg:05a1f">
	<g id="kvg:05a1f-g1">
		<path id="kvg:05a1f-s1" d="M29.98,16.87c0.39,1.04,1.08,2.74,0.89,4.24c-0.98,7.39-7.82,34.16-12.13,42.79c-0.89,1.77,0.4,2.46,0.89,2.63C29,69.75,37.5,76.16,42.75,83.78"/>
		<path id="kvg:05a1f-s2" d="M41.75,37.39c0.08,1.27,0.14,4.34-0.16,6.18C39.18,58.41,32.23,79.46,15,90.5"/>
		<path id="kvg:05a1f-s3" d="M10.5,46.92c0.76,0.81,1.78,1.4,3.81,1.2c2.18-0.21,21.66-4.18,30.69-6.24"/>
	</g>
	<g id="kvg:05a1f-g2">
		<g id="kvg:05a1f-g3">
			<path id="kvg:05a1f-s4" d="M52.46,16.12c0.4,0.32,0.82,0.59,0.99,1c1.4,3.2,3.07,13.06,4.03,18.8"/>
			<path id="kvg:05a1f-s5" d="M54.97,17.74c9.87-1.34,27.48-3.1,32.57-3.55c1.86-0.16,2.98,1.67,2.71,2.64C89.16,20.85,88,24,86.54,30.64"/>
			<path id="kvg:05a1f-s6" d="M57.88,34.3c5.98-0.51,21.82-2.26,31.29-2.64"/>
		</g>
		<g id="kvg:05a1f-g4">
			<path id="kvg:05a1f-s7" d="M54.41,44.63c0.69,0.84,1.15,1.69,1.38,2.53c0.23,0.84,0.33,46.27,0.23,48.17"/>
			<path id="kvg:05a1f-s8" d="M55.67,46.47c2.76-0.21,29.64-3.21,31.69-3.45c3.68-0.42,5.06,2.74,4.6,4.01c-0.44,1.22-0.12,24.89-0.12,41.99c0,10.98-5.52,3.8-7.82,1.9"/>
			<path id="kvg:05a1f-s9" d="M56.17,59.18c11.18-1.22,26.97-2.12,35.25-2.76"/>
			<path id="kvg:05a1f-s10" d="M56.15,71.71c7.36-0.63,26.37-2.01,34.87-2.43"/>
		</g>
	</g>
</g>
</g>
<g id="kvg:StrokeNumbers_05a1f">
	<text transform="matrix(1 0 0 1 22.44 15.13)">1</text>
	<text transform="matrix(1 0 0 1 37.50 32.50)">2</text>
	<text transform="matrix(1 0 0 1 6.50 43.50)">3</text>
	<text transform="matrix(1 0 0 1 47.44 24.50)">4</text>
	<text transform="matrix(1 0 0 1 56.50 14.50)">5</text>
	<text transform="matrix(1 0 0 1 61.50 30.50)">6</text>
	<text transform="matrix(1 0 0 1 47.50 51.50)">7</text>
	<text transform="matrix(1 0 0 1 60.44 43.50)">8</text>
	<text transform="matrix(1 0 0 1 60.50 55.50)">9</text>
	<text transform="matrix(1 0 0 1 59.50 68.50)">10</text>
</g>
</svg>
