<svg width="109" height="109" viewBox="0 0 109 109">
<g id="kvg:StrokePaths_05a1a">
<g id="kvg:05a1a">
	<g id="kvg:05a1a-g1">
		<path id="kvg:05a1a-s1" d="M29.48,16.87c0.39,1.04,1.08,2.74,0.89,4.24c-0.98,7.39-7.31,33.65-11.63,42.29c-0.89,1.77,0.4,2.46,0.89,2.63C29,69.25,37.5,76.16,42.75,83.78"/>
		<path id="kvg:05a1a-s2" d="M41.75,37.39c0.08,1.27,0.14,4.34-0.16,6.18C39.18,58.41,32.23,79.46,15,90.5"/>
		<path id="kvg:05a1a-s3" d="M10.25,47.22c0.78,0.94,1.81,1.62,3.89,1.39c2.23-0.24,22.13-4.35,31.36-6.73"/>
	</g>
	<g id="kvg:05a1a-g2">
		<g id="kvg:05a1a-g3">
			<path id="kvg:05a1a-s4" d="M51.07,16.53c0.55,0.94,1.28,2.1,1.4,3.03c0.75,5.4,3.03,17.61,3.8,27.66"/>
			<path id="kvg:05a1a-s5" d="M53.03,18.39c10.13-0.97,30.49-3.32,37.4-3.48c2.86-0.06,4.3,1.38,4.15,2.85c-0.57,5.36-2.36,15.64-4.09,24.73"/>
			<path id="kvg:05a1a-s6" d="M71.8,18.14c0.37,0.73,0.73,1.56,0.74,2.38c0.02,8.34,0.14,20.38,0.14,22.79"/>
			<path id="kvg:05a1a-s7" d="M54.8,31.79c3.39-0.26,35.41-3.16,38.21-3.16"/>
			<path id="kvg:05a1a-s8" d="M56.82,45.81c9.8-1.86,22.21-3.5,33.76-4.17"/>
		</g>
		<g id="kvg:05a1a-g4">
			<path id="kvg:05a1a-s9" d="M47.87,59.08c1.15,0.47,3.6,0.36,4.61,0.26c9.63-1.03,32.4-3.95,36.92-4.67c4.1-0.66,5.08,0.84,4.62,4.64C93,67.5,86.75,85.5,81.82,92.04c-3.78,5.02-7.66,1.28-9.46-1.88"/>
			<path id="kvg:05a1a-s10" d="M72.16,46.42c0.08,1.08,0.19,2.79-0.15,4.33c-2.5,11.42-10.22,29.67-26.62,41.43"/>
		</g>
	</g>
</g>
</g>
<g id="kvg:StrokeNumbers_05a1a">
	<text transform="matrix(1 0 0 1 22.50 16.50)">1</text>
	<text transform="matrix(1 0 0 1 38.50 32.50)">2</text>
	<text transform="matrix(1 0 0 1 6.50 43.50)">3</text>
	<text transform="matrix(1 0 0 1 44.50 24.50)">4</text>
	<text transform="matrix(1 0 0 1 54.50 14.50)">5</text>
	<text transform="matrix(1 0 0 1 75.50 24.50)">6</text>
	<text transform="matrix(1 0 0 1 58.50 28.50)">7</text>
	<text transform="matrix(1 0 0 1 59.50 41.50)">8</text>
	<text transform="matrix(1 0 0 1 46.50 55.53)">9</text>
	<text transform="matrix(1 0 0 1 61.50 52.50)">10</text>
</g>
</svg>
