<svg width="109" height="109" viewBox="0 0 109 109">
<g id="kvg:StrokePaths_05a9b">
<g id="kvg:05a9b">
	<g id="kvg:05a9b-g1">
		<path id="kvg:05a9b-s1" d="M26.87,22.87c0.38,1.13,0.57,2.74,0.38,4.38c-0.93,7.78-5.18,26.61-9.32,36.4c-0.82,1.93-1.19,3.53,1.16,4.06c5.05,1.14,10.74,3.74,15.2,7.64c1.94,1.7,3.64,3.85,4.96,5.9"/>
		<path id="kvg:05a9b-s2" d="M39.75,39.75c0.37,1.75,0.39,3.21,0.09,4.99C37.4,59.13,30.39,80.54,13,91.25"/>
		<path id="kvg:05a9b-s3" d="M10.5,50.46c0.88,1.29,2.28,1.49,4.25,1.04c7.12-1.62,17.5-4.12,29-7.03"/>
	</g>
	<g id="kvg:05a9b-g2">
		<g id="kvg:05a9b-g3">
			<path id="kvg:05a9b-s4" d="M79.48,11.29c-0.23,1.18-1.09,1.9-1.91,2.48c-3.95,2.76-14.59,7.09-29.17,10.03"/>
			<path id="kvg:05a9b-s5" d="M48.27,28.4c1.95,1.66,5.03,6.84,5.52,9.43"/>
			<path id="kvg:05a9b-s6" d="M61.87,26c2.41,1.72,6.24,7.07,6.84,9.75"/>
			<path id="kvg:05a9b-s7" d="M86.03,21.64c0.08,0.93,0.03,1.87-0.37,2.71c-1.66,3.52-3.37,6.27-6.85,10.78"/>
		</g>
		<g id="kvg:05a9b-g4">
			<path id="kvg:05a9b-s8" d="M52.04,45.97c2.34,0.53,4.5,0.32,6.46-0.01c6.35-1.08,15.26-2.35,20.52-3.09c2.01-0.28,4.1-0.4,6.06,0.11"/>
			<g id="kvg:05a9b-g5">
				<path id="kvg:05a9b-s9" d="M45.11,58.78c2.55,0.98,6.02,0.67,8.65,0.28c10.49-1.56,19.49-2.93,32.37-3.73c2.65-0.16,5.42-0.38,8,0.22"/>
				<path id="kvg:05a9b-s10" d="M62.96,48.79c0.27,0.9,0.47,2.16,0.07,3.76C59.88,65.12,52.38,81.38,34.5,95.98"/>
				<g id="kvg:05a9b-g6">
					<path id="kvg:05a9b-s11" d="M60.3,68.92c1.39,0.17,3.77-0.33,5.09-0.71c5.11-1.46,10.98-2.94,14.24-3.75c2.71-0.68,3.53,1.59,2.61,3.33C77.25,77.25,60.19,94.81,43.23,100"/>
					<path id="kvg:05a9b-s12" d="M55.4,73c3.55,0.66,21.36,15.08,28.17,19.29c5.07,3.13,7.3,4.08,10.23,4.87"/>
				</g>
			</g>
		</g>
	</g>
</g>
</g>
<g id="kvg:StrokeNumbers_05a9b">
	<text transform="matrix(1 0 0 1 19.25 23.25)">1</text>
	<text transform="matrix(1 0 0 1 35.25 36.25)">2</text>
	<text transform="matrix(1 0 0 1 4.00 52.73)">3</text>
	<text transform="matrix(1 0 0 1 70.25 10.25)">4</text>
	<text transform="matrix(1 0 0 1 41.25 31.25)">5</text>
	<text transform="matrix(1 0 0 1 56.25 30.25)">6</text>
	<text transform="matrix(1 0 0 1 77.25 25.25)">7</text>
	<text transform="matrix(1 0 0 1 48.25 44.25)">8</text>
	<text transform="matrix(1 0 0 1 42.25 56.25)">9</text>
	<text transform="matrix(1 0 0 1 52.00 54.25)">10</text>
	<text transform="matrix(1 0 0 1 64.25 66.25)">11</text>
	<text transform="matrix(1 0 0 1 55.25 84.25)">12</text>
</g>
</svg>
