<svg width="109" height="109" viewBox="0 0 109 109">
<g id="kvg:StrokePaths_05afa">
<g id="kvg:05afa">
	<g id="kvg:05afa-g1">
		<path id="kvg:05afa-s1" d="M26.48,16.87c0.39,1.04,1.08,2.74,0.89,4.24c-0.98,7.39-6.81,34.15-11.13,42.79c-0.89,1.77,0.4,2.46,0.89,2.63C26.5,69.75,35,76.5,39.75,85.28"/>
		<path id="kvg:05afa-s2" d="M37.75,37.39c0.08,1.27,0.14,4.34-0.16,6.18C35.18,58.41,28.23,79.46,11,90.5"/>
		<path id="kvg:05afa-s3" d="M8,46.72c0.75,0.94,1.75,1.62,3.75,1.39c2.15-0.24,21.34-4.35,30.25-6.73"/>
	</g>
	<g id="kvg:05afa-g2">
		<g id="kvg:05afa-g3">
			<g id="kvg:05afa-g4">
				<path id="kvg:05afa-s4" d="M47.89,18.16c0.6,0.45,1.06,2.38,1.18,3.27c0.12,0.89-0.08,69.28-0.2,74.84"/>
				<path id="kvg:05afa-s5" d="M49.23,19.12c2.01-0.1,14.78-2.63,16.6-2.75c1.52-0.1,2.31,0.9,2.39,1.69c0.11,1.21-1.77,24.56-1.77,25.15"/>
				<path id="kvg:05afa-s6" d="M49.59,30.78c4.93-0.58,12.59-1.59,17.34-2.22"/>
				<path id="kvg:05afa-s7" d="M49.23,43.74c6.68-1.14,11.26-1.5,17.16-2.02"/>
			</g>
			<g id="kvg:05afa-g5">
				<path id="kvg:05afa-s8" d="M76.68,16.3c0.34,0.53,0.69,1.65,0.69,2.36c0,0.7-0.12,23,0,23.7"/>
				<path id="kvg:05afa-s9" d="M77.44,17.73c1.94-0.09,16.73-2.88,18.5-2.99c1.48-0.09,2.33,1.46,2.31,1.99c-0.38,16.2-0.39,62-0.39,73.75c0,10.01-5.93,1.29-7.06,0.22"/>
				<path id="kvg:05afa-s10" d="M77.78,28.45c2.63,0,16.25-1.66,19.22-1.66"/>
				<path id="kvg:05afa-s11" d="M77.94,40.44c3.89,0,14.3-1.48,19.33-1.48"/>
			</g>
		</g>
		<g id="kvg:05afa-g6">
			<g id="kvg:05afa-g7">
				<path id="kvg:05afa-s12" d="M62.45,51.48c0.31,0.51,0.51,1.02,0.61,1.52c0.1,0.5,0.09,14.07-0.24,18.26c-0.47,5.97-0.94,11.99-5.32,18.85"/>
				<path id="kvg:05afa-s13" d="M63.57,52.86c2.1-0.05,12.65-1.92,14.21-2.02c2.8-0.19,3.5,1.07,3.5,2.19c0,2.65-0.53,14.92-0.53,29.96c0,10.34-4.41,4.42-6.2,3.17"/>
				<path id="kvg:05afa-s14" d="M63.57,62.87c4.61-0.29,12.53-1.68,16.58-1.7"/>
				<path id="kvg:05afa-s15" d="M63.51,73c3.79-0.07,11.14-1.05,16.29-1.39"/>
			</g>
		</g>
	</g>
</g>
</g>
<g id="kvg:StrokeNumbers_05afa">
	<text transform="matrix(1 0 0 1 19.50 16.50)">1</text>
	<text transform="matrix(1 0 0 1 33.50 32.55)">2</text>
	<text transform="matrix(1 0 0 1 0.50 47.50)">3</text>
	<text transform="matrix(1 0 0 1 41.50 26.50)">4</text>
	<text transform="matrix(1 0 0 1 50.50 15.50)">5</text>
	<text transform="matrix(1 0 0 1 53.50 27.50)">6</text>
	<text transform="matrix(1 0 0 1 53.50 39.50)">7</text>
	<text transform="matrix(1 0 0 1 71.50 25.10)">8</text>
	<text transform="matrix(1 0 0 1 80.50 14.50)">9</text>
	<text transform="matrix(1 0 0 1 81.50 25.50)">10</text>
	<text transform="matrix(1 0 0 1 81.50 36.50)">11</text>
	<text transform="matrix(1 0 0 1 52.25 60.80)">12</text>
	<text transform="matrix(1 0 0 1 67.50 49.50)">13</text>
	<text transform="matrix(1 0 0 1 66.50 60.50)">14</text>
	<text transform="matrix(1 0 0 1 66.50 70.50)">15</text>
</g>
</svg>
