<svg width="109" height="109" viewBox="0 0 109 109">
<g id="kvg:StrokePaths_05b50">
<g id="kvg:05b50">
	<path id="kvg:05b50-s1" d="M33.28,19.04c1.84,0.71,3.7,0.86,5.4,0.63c4.95-0.67,27.95-4.58,29.86-4.92c3.46-0.62,4.06,1.36,2.11,3.58c-1.95,2.22-11.41,13.17-16.35,17.19"/>
	<path id="kvg:05b50-s2" d="M52.48,37.74c6.42,2.97,11.75,30.73,5.24,52.57c-2.8,9.38-8.09,2.96-10.47,0.99"/>
	<path id="kvg:05b50-s3" d="M12.25,51.48c3.75,1.14,8.79,1.03,12.48,0.49c16.77-2.47,42.86-5.84,58.53-6.75c4.26-0.25,9.11-0.34,13.11,0.57"/>
</g>
</g>
<g id="kvg:StrokeNumbers_05b50">
	<text transform="matrix(1 0 0 1 25.50 20.50)">1</text>
	<text transform="matrix(1 0 0 1 44.50 42.50)">2</text>
	<text transform="matrix(1 0 0 1 4.50 53.50)">3</text>
</g>
</svg>
