<svg width="109" height="109" viewBox="0 0 109 109">
<g id="kvg:StrokePaths_05b51">
<g id="kvg:05b51">
	<g id="kvg:05b51-g1">
		<g id="kvg:05b51-g2">
			<path id="kvg:05b51-s1" d="M28.78,18.29c1.11,0.37,3.22,0.96,4.9,0.63c2.04-0.4,35.42-6.42,37.36-6.42c1.95,0,4.06,1.11,2.11,3.33c-1.95,2.22-13.66,14.92-19.35,20.69"/>
			<g id="kvg:05b51-g3">
				<path id="kvg:05b51-s2" d="M52.19,37.99c6.06,3.01,11.09,31.13,4.95,53.26c-2.64,9.5-7.89,2-9.89,1"/>
			</g>
		</g>
		<path id="kvg:05b51-s3" d="M23,59.85c0.75,1.15,2.77,1.82,4.55,1.03c1.05-0.47,47.5-20.38,51.95-22.63"/>
	</g>
</g>
</g>
<g id="kvg:StrokeNumbers_05b51">
	<text transform="matrix(1 0 0 1 21.50 19.63)">1</text>
	<text transform="matrix(1 0 0 1 44.50 38.50)">2</text>
	<text transform="matrix(1 0 0 1 15.25 58.81)">3</text>
</g>
</svg>
