<svg width="109" height="109" viewBox="0 0 109 109">
<g id="kvg:StrokePaths_05b95">
<g id="kvg:05b95">
	<g id="kvg:05b95-g1">
		<path id="kvg:05b95-s1" d="M51.48,11.81c1.2,0.39,2.92,2.31,2.89,3.45c-0.09,3.56-0.09,7.47-0.09,10.71"/>
		<g id="kvg:05b95-g2">
			<path id="kvg:05b95-s2" d="M21.07,26.83c0,3.76-2.28,14.1-3.32,16.61"/>
			<path id="kvg:05b95-s3" d="M21.2,29.88c8.69-0.9,59.04-5.45,66.09-5.8c11.01-0.54,1.17,8.28-1.57,10.21"/>
		</g>
	</g>
	<g id="kvg:05b95-g3">
		<path id="kvg:05b95-s4" d="M24.21,49.75c1.79,0.75,5.71,0.95,6.85,0.85C45.44,49.38,65,47,81.86,45.62c1.91-0.16,3.06,0.17,4.02,0.34"/>
		<path id="kvg:05b95-s5" d="M49.08,51.37c0.09,0.78,0.45,2.15-0.19,3.15C44.75,61,34.5,74.75,16.25,85.21"/>
		<g id="kvg:05b95-g4">
			<path id="kvg:05b95-s6" d="M39.52,72.36c0.62,0.59,1.41,1.03,1.52,1.8c0.84,5.59,2.53,14.75,3.71,25.34"/>
			<path id="kvg:05b95-s7" d="M40.98,73.27c8.07-0.93,32.41-3.41,37.92-3.56c2.28-0.06,3.71,1.38,3.31,2.72c-1.39,4.61-3.46,13.56-5.8,22.53"/>
			<path id="kvg:05b95-s8" d="M45.35,97.14c6.46-0.47,24.57-1.66,32.81-1.79"/>
		</g>
	</g>
</g>
</g>
<g id="kvg:StrokeNumbers_05b95">
	<text transform="matrix(1 0 0 1 44.50 11.50)">1</text>
	<text transform="matrix(1 0 0 1 14.50 28.50)">2</text>
	<text transform="matrix(1 0 0 1 24.50 26.50)">3</text>
	<text transform="matrix(1 0 0 1 25.50 47.50)">4</text>
	<text transform="matrix(1 0 0 1 37.50 59.50)">5</text>
	<text transform="matrix(1 0 0 1 34.50 81.50)">6</text>
	<text transform="matrix(1 0 0 1 45.50 70.50)">7</text>
	<text transform="matrix(1 0 0 1 48.50 93.50)">8</text>
</g>
</svg>
