<svg width="109" height="109" viewBox="0 0 109 109">
<g id="kvg:StrokePaths_05b9a">
<g id="kvg:05b9a">
	<g id="kvg:05b9a-g1">
		<path id="kvg:05b9a-s1" d="M52.57,10.17c1.26,1.26,1.76,2.96,1.76,4.56c0,3.61-0.09,5.75-0.1,9.03"/>
		<g id="kvg:05b9a-g2">
			<path id="kvg:05b9a-s2" d="M21.25,26c0,3.53-2.41,13.23-3.5,15.58"/>
			<path id="kvg:05b9a-s3" d="M22.44,29.18c18.31-2.68,47.53-6.83,63.05-7.33c11.01-0.35,4.26,7.15-0.18,9.58"/>
		</g>
	</g>
	<g id="kvg:05b9a-g3">
		<path id="kvg:05b9a-s4" d="M33.6,42.82c2.72,0.44,5.36,0.34,8.12,0c6.54-0.82,24.05-2.75,28.37-3.07c3.41-0.25,5.16-0.25,7.66,0.38"/>
		<g id="kvg:05b9a-g4">
			<path id="kvg:05b9a-s5" d="M52.9,42.77c0.92,0.92,1.17,2.46,1.17,3.37c0,2.99,0.28,30.49,0.28,36.39"/>
			<path id="kvg:05b9a-s6" d="M54.61,62.86c6.14-0.74,12.39-1.49,19.43-2.39c1.69-0.22,3.13-0.22,4.2,0"/>
		</g>
		<g id="kvg:05b9a-g5">
			<path id="kvg:05b9a-s7" d="M36.36,57.64c0.06,0.86,0.12,2.22-0.11,3.46c-1.4,7.29-8.89,21.86-19.87,31.65"/>
			<path id="kvg:05b9a-s8" d="M31.96,73.89c7.12,2.96,36.49,16.08,47.62,20.58c3.44,1.39,6.85,2.38,10.55,2.78"/>
		</g>
	</g>
</g>
</g>
<g id="kvg:StrokeNumbers_05b9a">
	<text transform="matrix(1 0 0 1 44.50 10.50)">1</text>
	<text transform="matrix(1 0 0 1 12.75 31.63)">2</text>
	<text transform="matrix(1 0 0 1 25.50 25.50)">3</text>
	<text transform="matrix(1 0 0 1 30.75 39.13)">4</text>
	<text transform="matrix(1 0 0 1 46.50 53.50)">5</text>
	<text transform="matrix(1 0 0 1 59.25 59.50)">6</text>
	<text transform="matrix(1 0 0 1 27.75 59.50)">7</text>
	<text transform="matrix(1 0 0 1 39.75 75.50)">8</text>
</g>
</svg>
