<svg width="109" height="109" viewBox="0 0 109 109">
<g id="kvg:StrokePaths_05b9d">
<g id="kvg:05b9d">
	<g id="kvg:05b9d-g1">
		<path id="kvg:05b9d-s1" d="M52.36,12.61c1.08,1.08,1.72,2.64,1.72,4.29c0,3.66-0.08,5.65-0.08,8.98"/>
		<g id="kvg:05b9d-g2">
			<path id="kvg:05b9d-s2" d="M22,26.12c0,4.14-4.3,15.51-6.25,18.27"/>
			<path id="kvg:05b9d-s3" d="M22.35,30.52c14.9-1.52,43.02-5.4,63.71-6.1c11.31-0.38,1.9,7.47-0.92,9.45"/>
		</g>
	</g>
	<g id="kvg:05b9d-g3">
		<g id="kvg:05b9d-g4">
			<path id="kvg:05b9d-s4" d="M32.85,46.92c2.9,0.45,5.64,0.24,7.79-0.07c5.54-0.8,15.69-2.51,27.61-3.61c2.32-0.21,4.63-0.58,6.91,0.11"/>
			<path id="kvg:05b9d-s5" d="M53.21,48.01c1.2,1.2,1.51,2.61,1.51,5.1c0,7.4-0.09,25.09-0.09,36.51"/>
			<path id="kvg:05b9d-s6" d="M31.88,67.31c1.81,0.93,5.54,0.44,7.47,0.16c5.91-0.84,16.53-2.48,28.9-3.36c2.39-0.17,4.99-0.53,7.36,0.04"/>
			<path id="kvg:05b9d-s7" d="M21.25,92.34c2.59,0.76,5.94,0.62,8.59,0.39c12.85-1.15,36.83-3.09,48.54-3.74c3.36-0.19,7.41-0.28,10.63,0.82"/>
		</g>
		<g id="kvg:05b9d-g5">
			<path id="kvg:05b9d-s8" d="M71.54,72.05c3.85,2.06,7.15,6.45,7.97,9.03"/>
		</g>
	</g>
</g>
</g>
<g id="kvg:StrokeNumbers_05b9d">
	<text transform="matrix(1 0 0 1 44.25 12.13)">1</text>
	<text transform="matrix(1 0 0 1 14.25 30.13)">2</text>
	<text transform="matrix(1 0 0 1 27.50 26.50)">3</text>
	<text transform="matrix(1 0 0 1 30.75 43.55)">4</text>
	<text transform="matrix(1 0 0 1 46.50 56.50)">5</text>
	<text transform="matrix(1 0 0 1 24.75 68.50)">6</text>
	<text transform="matrix(1 0 0 1 14.50 93.13)">7</text>
	<text transform="matrix(1 0 0 1 63.75 74.50)">8</text>
</g>
</svg>
