<svg width="109" height="109" viewBox="0 0 109 109">
<g id="kvg:StrokePaths_05bc4">
<g id="kvg:05bc4">
	<g id="kvg:05bc4-g1">
		<path id="kvg:05bc4-s1" d="M52.38,10.69c1.09,1.09,1.46,2.69,1.46,3.9c0,3.08-0.05,3.82-0.04,6.63"/>
		<g id="kvg:05bc4-g2">
			<path id="kvg:05bc4-s2" d="M27.12,23.38c0.01,2.92-3.09,11.02-4.5,13"/>
			<path id="kvg:05bc4-s3" d="M27.66,25.2c10.21-1.83,42.34-5.33,52.3-5.78c9.34-0.42,2.24,6.1-0.07,7.84"/>
		</g>
	</g>
	<g id="kvg:05bc4-g3">
		<g id="kvg:05bc4-g4">
			<path id="kvg:05bc4-s4" d="M33.34,35.83c1.57,0.31,3.34,0.01,4.9-0.15c7.78-0.82,18.73-2.65,26.65-3.45c2.08-0.21,4.14-0.3,6.23-0.3"/>
			<path id="kvg:05bc4-s5" d="M51.17,25.5c0.27,0.35,0.46,1.5,0.4,2.24C50.62,38.62,44.5,47.62,34.66,51"/>
			<path id="kvg:05bc4-s6" d="M52.88,37.75c6.04,2.21,13.03,5.78,16.72,9.08"/>
		</g>
		<g id="kvg:05bc4-g5">
			<g id="kvg:05bc4-g6">
				<g id="kvg:05bc4-g7">
					<path id="kvg:05bc4-s7" d="M14.38,56.35c3.96,1.1,8.57,0.53,12.57,0c17.01-2.23,37.78-4.61,56.41-5.91c4.2-0.29,8.23-0.37,12.39,0.33"/>
				</g>
			</g>
			<g id="kvg:05bc4-g8">
				<path id="kvg:05bc4-s8" d="M28.01,66.88c0.81,0.81,1.4,1.57,1.59,2.72c0.84,4.97,1.61,8.73,2.28,12.36c0.24,1.32,0.48,2.62,0.7,3.95"/>
				<path id="kvg:05bc4-s9" d="M30.29,68.33c7.79-1.34,16.11-2.78,21.22-3.45c3.25-0.43,4.73,0.62,4.05,3.39c-0.85,3.42-1.98,6.6-3.28,11.02"/>
				<path id="kvg:05bc4-s10" d="M33.52,83.06c5.3-0.86,11-1.69,17.1-2.37c1.37-0.15,2.75-0.3,4.16-0.43"/>
			</g>
			<g id="kvg:05bc4-g9">
				<g id="kvg:05bc4-g10">
					<path id="kvg:05bc4-s11" d="M70.96,54.63c1.27,1.27,1.76,2.87,1.76,4.95c0,13.07-0.01,30.14-0.01,34.59c0,8.33-7.46,1.35-8.96,0.22"/>
				</g>
			</g>
		</g>
	</g>
</g>
</g>
<g id="kvg:StrokeNumbers_05bc4">
	<text transform="matrix(1 0 0 1 46 11.50)">1</text>
	<text transform="matrix(1 0 0 1 19.50 25.63)">2</text>
	<text transform="matrix(1 0 0 1 29 21.50)">3</text>
	<text transform="matrix(1 0 0 1 26.25 38.50)">4</text>
	<text transform="matrix(1 0 0 1 43.50 31.50)">5</text>
	<text transform="matrix(1 0 0 1 62 40)">6</text>
	<text transform="matrix(1 0 0 1 7.50 58.50)">7</text>
	<text transform="matrix(1 0 0 1 22.50 76.63)">8</text>
	<text transform="matrix(1 0 0 1 31.50 65.50)">9</text>
	<text transform="matrix(1 0 0 1 34.50 79.63)">10</text>
	<text transform="matrix(1 0 0 1 61 63.13)">11</text>
</g>
</svg>
