<svg width="109" height="109" viewBox="0 0 109 109">
<g id="kvg:StrokePaths_05be9">
<g id="kvg:05be9">
	<g id="kvg:05be9-g1">
		<path id="kvg:05be9-s1" d="M51.82,11.5c1.09,1.09,1.54,2.25,1.54,3.78c0,1.85-0.08,4.6-0.08,6.31"/>
		<g id="kvg:05be9-g2">
			<path id="kvg:05be9-s2" d="M25.62,23.62c0,3.13-2.73,12.29-3.97,14.38"/>
			<path id="kvg:05be9-s3" d="M26.91,25.55c11.71-1.43,34.59-4.3,54.55-5.19c9.68-0.43,2.05,5.5-0.36,7.2"/>
		</g>
	</g>
	<g id="kvg:05be9-g3">
		<g id="kvg:05be9-g4">
			<g id="kvg:05be9-g5">
				<path id="kvg:05be9-s4" d="M63.7,26.5c0.06,0.79-0.5,1.67-1.21,2.04C57,31.38,47.1,33.98,33.14,36.37"/>
			</g>
			<g id="kvg:05be9-g6">
				<path id="kvg:05be9-s5" d="M33.19,39.72c2.05,1.47,5.15,5.63,5.66,7.92"/>
				<path id="kvg:05be9-s6" d="M71.44,34.16c0.13,0.68-0.01,1.53-0.42,2.06c-1.54,2.82-3.97,6.1-8.59,9.87"/>
				<path id="kvg:05be9-s7" d="M22.4,50.98c2.72,0.57,5.61,0.45,8.35,0.12c11.23-1.36,34.75-3.73,47.38-4.08c2.79-0.08,5.27,0.04,8.02,0.39"/>
				<path id="kvg:05be9-s8" d="M51.96,35.09c0.97,0.97,1.33,2.41,1.33,3.66c0,2.48,0.05,15.42,0.06,22.87c0,2.99,0,5.09-0.01,5.3"/>
				<path id="kvg:05be9-s9" d="M49.14,49.45c0,1.05-0.85,2.39-2.02,3.67c-6.31,6.87-17.09,14.86-27.18,18.47"/>
				<path id="kvg:05be9-s10" d="M55.34,49.83c3.2,1.89,16.15,10.24,24.38,15.23c2.75,1.66,6.28,3.45,9.63,4.78"/>
			</g>
		</g>
		<g id="kvg:05be9-g7">
			<path id="kvg:05be9-s11" d="M30.51,72.58c0.83,0.83,1.24,1.79,1.47,2.89c1.25,5.98,2.22,12.28,3,19c0.16,1.4,0.31,2.75,0.43,4.02"/>
			<path id="kvg:05be9-s12" d="M32.46,73.79c12.29-1.16,28.9-2.73,37.8-3.35c4.42-0.3,6.22,1.01,5.56,5.58c-0.62,4.31-1.98,10.39-3.16,15.72c-0.33,1.52-0.71,3-1.12,4.38"/>
			<path id="kvg:05be9-s13" d="M52.22,74.14c0.7,0.7,0.96,1.89,0.96,2.86c-0.03,5.47-0.05,15.77-0.05,17.62"/>
			<path id="kvg:05be9-s14" d="M35.16,84.85c6.34-0.73,35.7-2.72,38.64-2.72"/>
			<path id="kvg:05be9-s15" d="M35.98,96.56c11.14-0.68,21.89-1.56,35.03-2.07"/>
		</g>
	</g>
</g>
</g>
<g id="kvg:StrokeNumbers_05be9">
	<text transform="matrix(1 0 0 1 43.50 12.50)">1</text>
	<text transform="matrix(1 0 0 1 18.50 26.50)">2</text>
	<text transform="matrix(1 0 0 1 28.50 22.50)">3</text>
	<text transform="matrix(1 0 0 1 51.50 29.50)">4</text>
	<text transform="matrix(1 0 0 1 27.50 44.50)">5</text>
	<text transform="matrix(1 0 0 1 63.50 37.50)">6</text>
	<text transform="matrix(1 0 0 1 15.50 51.50)">7</text>
	<text transform="matrix(1 0 0 1 45.50 41.50)">8</text>
	<text transform="matrix(1 0 0 1 31.50 60.50)">9</text>
	<text transform="matrix(1 0 0 1 70.50 57.50)">10</text>
	<text transform="matrix(1 0 0 1 21.75 84.13)">11</text>
	<text transform="matrix(1 0 0 1 39.75 70.63)">12</text>
	<text transform="matrix(1 0 0 1 43.50 79.50)">13</text>
	<text transform="matrix(1 0 0 1 36.50 82.63)">14</text>
	<text transform="matrix(1 0 0 1 37.50 94.55)">15</text>
</g>
</svg>
