<svg width="109" height="109" viewBox="0 0 109 109">
<g id="kvg:StrokePaths_05bff">
<g id="kvg:05bff">
	<g id="kvg:05bff-g1">
		<g id="kvg:05bff-g2">
			<path id="kvg:05bff-s1" d="M26.75,24.15c2.75,0.47,5.14,0.38,7.5,0.07c11.13-1.47,31.48-3.27,42.38-3.84c2.45-0.13,4.96-0.29,7.38,0.24"/>
		</g>
		<g id="kvg:05bff-g3">
			<g id="kvg:05bff-g4">
				<path id="kvg:05bff-s2" d="M28,37.39c2.38,0.61,5,0.36,7.24,0.06c9.88-1.32,27.13-2.88,36.39-3.72c2.56-0.23,5.09-0.59,7.62,0.03"/>
			</g>
			<g id="kvg:05bff-g5">
				<path id="kvg:05bff-s3" d="M21.75,51.01c2.63,0.94,6.15,0.48,8.86,0.18c11.32-1.27,33.96-3.48,47.51-4.36c2.91-0.19,5.75-0.46,8.63,0.16"/>
			</g>
		</g>
	</g>
	<g id="kvg:05bff-g6">
		<path id="kvg:05bff-s4" d="M53.25,11.5c0.75,1.38,0.74,3.03,0.31,5.24C48.25,44.25,42,74.25,17.75,92.79"/>
	</g>
	<g id="kvg:05bff-g7">
		<path id="kvg:05bff-s5" d="M14.13,68.06c3.87,1.06,7.3,0.76,10.5,0.42C41.13,66.74,68.38,64,86,62.82c3.46-0.23,6.74-0.52,10.12,0.36"/>
		<path id="kvg:05bff-s6" d="M74.27,50.58c0.89,0.89,1.26,2.29,1.26,4.02c0,20.4-0.01,32.91-0.01,37.87c0,12.03-6.77,2.28-8.96,0.75"/>
		<path id="kvg:05bff-s7" d="M44.71,75.87c3,1.72,7.75,7.07,8.5,9.75"/>
	</g>
</g>
</g>
<g id="kvg:StrokeNumbers_05bff">
	<text transform="matrix(1 0 0 1 20.25 24.13)">1</text>
	<text transform="matrix(1 0 0 1 21.75 39.05)">2</text>
	<text transform="matrix(1 0 0 1 14.50 52.50)">3</text>
	<text transform="matrix(1 0 0 1 43.50 11.50)">4</text>
	<text transform="matrix(1 0 0 1 6.75 69.50)">5</text>
	<text transform="matrix(1 0 0 1 66.75 58.63)">6</text>
	<text transform="matrix(1 0 0 1 38.50 82.50)">7</text>
</g>
</svg>
