<svg width="109" height="109" viewBox="0 0 109 109">
<g id="kvg:StrokePaths_05c0f">
<g id="kvg:05c0f">
	<path id="kvg:05c0f-s1" d="M54.71,18.37c1.4,1.4,2.26,3.13,2.26,5.77c0,14.56-0.26,54.91-0.26,59.87c0,11.25-7.21,1.5-8.71,0.25"/>
	<path id="kvg:05c0f-s2" d="M31.95,47.68c0.17,0.82,0.1,1.72-0.34,2.9C29.5,56.38,24.38,66.25,16.75,73"/>
	<path id="kvg:05c0f-s3" d="M80.96,47.12C86.62,52,95.25,64.62,97,72"/>
</g>
</g>
<g id="kvg:StrokeNumbers_05c0f">
	<text transform="matrix(1 0 0 1 45.50 16.13)">1</text>
	<text transform="matrix(1 0 0 1 31.00 43.28)">2</text>
	<text transform="matrix(1 0 0 1 72.50 43.28)">3</text>
</g>
</svg>
