<svg width="109" height="109" viewBox="0 0 109 109">
<g id="kvg:StrokePaths_05c02">
<g id="kvg:05c02">
	<g id="kvg:05c02-g1">
		<path id="kvg:05c02-s1" d="M22.75,21.79c2.62,0.59,5.85,0.36,8.37,0.05C46,20,66.09,17.76,77.25,17.2c2.86-0.15,5.95-0.27,8.75,0.41"/>
		<g id="kvg:05c02-g2">
			<g id="kvg:05c02-g3">
				<path id="kvg:05c02-s2" d="M27.63,33.11c0.94,0.94,1.82,2,2.08,3.32c1.41,7.2,2.39,11.9,3.72,20.05c0.25,1.5,0.49,3.05,0.72,4.65"/>
				<path id="kvg:05c02-s3" d="M29.83,34.3c14.67-2.55,33.59-4.51,43.79-5.62c4.62-0.5,6.83,0.22,6.12,5.32c-0.62,4.39-2.02,10.63-3.58,17.54c-0.32,1.42-0.65,2.85-0.98,4.29"/>
			</g>
			<g id="kvg:05c02-g4">
				<path id="kvg:05c02-s4" d="M32.69,45.89c9.44-1.64,27.06-4.01,44.68-5.46"/>
				<path id="kvg:05c02-s5" d="M35.05,57.91c11.95-1.53,26.91-3.37,39.47-4.24"/>
			</g>
			<g id="kvg:05c02-g5">
				<path id="kvg:05c02-s6" d="M52.29,10.5c0.79,0.79,1.44,2.28,1.44,3.78c0.04,14.8-0.02,36.15-0.02,40.01"/>
			</g>
		</g>
	</g>
	<g id="kvg:05c02-g6">
		<path id="kvg:05c02-s7" d="M15.88,72.92c3.5,1.2,7.59,0.97,10.75,0.58c18-2.25,40.78-3.61,57.38-4.8c3.69-0.26,8.37-0.32,11.12,0.37"/>
		<path id="kvg:05c02-s8" d="M68.04,59.58c1,1,1.43,2.79,1.43,4.77c0,6.65,0.01,23.66,0.01,28.62c0,12.03-7.07,1.78-9.13,0.25"/>
		<path id="kvg:05c02-s9" d="M38.69,79.62c3.46,1.72,8.93,7.07,9.79,9.75"/>
	</g>
</g>
</g>
<g id="kvg:StrokeNumbers_05c02">
	<text transform="matrix(1 0 0 1 15.75 23.50)">1</text>
	<text transform="matrix(1 0 0 1 21.50 40.55)">2</text>
	<text transform="matrix(1 0 0 1 31.50 30.50)">3</text>
	<text transform="matrix(1 0 0 1 36.75 41.50)">4</text>
	<text transform="matrix(1 0 0 1 36.75 54.50)">5</text>
	<text transform="matrix(1 0 0 1 42.50 11.50)">6</text>
	<text transform="matrix(1 0 0 1 8.25 74.50)">7</text>
	<text transform="matrix(1 0 0 1 59.50 65.50)">8</text>
	<text transform="matrix(1 0 0 1 31.50 83.50)">9</text>
</g>
</svg>
