<svg width="109" height="109" viewBox="0 0 109 109">
<g id="kvg:StrokePaths_05c1a">
<g id="kvg:05c1a">
	<g id="kvg:05c1a-g1">
		<path id="kvg:05c1a-s1" d="M53.04,11.62c1.05,1.05,1.45,2.51,1.45,4.64c0,12.26-0.11,25.2-0.11,29.37"/>
		<path id="kvg:05c1a-s2" d="M25.02,25.58c3.99,2.41,10.3,9.89,11.29,13.63"/>
		<path id="kvg:05c1a-s3" d="M79.75,20c0.07,1.06-0.03,1.78-0.45,2.77c-1.66,3.98-5.28,9.11-10.75,14.95"/>
	</g>
	<g id="kvg:05c1a-g2">
		<g id="kvg:05c1a-g3">
			<path id="kvg:05c1a-s4" d="M20.75,46.5c1,1,1.5,2.38,1.55,4.15c0.15,4.88,1.07,24.37,1.46,36.6c0.1,3.08,0.18,5.69,0.23,7.5"/>
			<path id="kvg:05c1a-s5" d="M23.24,48.93c16.64-1.05,45.48-3.54,61.76-4.71c4.42-0.32,6.65,0.54,6.4,5.28c-0.47,8.96-2.88,28.94-5.9,39.5c-2,7-4,5.25-8,0.75"/>
		</g>
		<g id="kvg:05c1a-g4">
			<path id="kvg:05c1a-s6" d="M37.25,61.88c0.87,0.45,1.25,1.25,1.54,2.46c0.73,3.09,1.99,9.02,3.07,13.76c0.53,2.34,0.99,4.33,1.27,5.41"/>
			<path id="kvg:05c1a-s7" d="M40.1,63.32c3.74-0.38,20.17-2.05,26.19-2.72c3.1-0.35,5.25,0.12,4.21,3.9c-0.68,2.48-2,7.25-3.38,12.56"/>
			<path id="kvg:05c1a-s8" d="M43.44,80.46c5.44-0.59,13.76-1.38,21.32-1.99c1.55-0.13,3.08-0.24,4.54-0.35"/>
		</g>
	</g>
</g>
</g>
<g id="kvg:StrokeNumbers_05c1a">
	<text transform="matrix(1 0 0 1 44.25 12.50)">1</text>
	<text transform="matrix(1 0 0 1 18.75 26.50)">2</text>
	<text transform="matrix(1 0 0 1 71.25 19.63)">3</text>
	<text transform="matrix(1 0 0 1 13.50 55.63)">4</text>
	<text transform="matrix(1 0 0 1 24.75 45.13)">5</text>
	<text transform="matrix(1 0 0 1 32.25 72.13)">6</text>
	<text transform="matrix(1 0 0 1 42.75 60.13)">7</text>
	<text transform="matrix(1 0 0 1 46.50 77.50)">8</text>
</g>
</svg>
