<svg width="109" height="109" viewBox="0 0 109 109">
<g id="kvg:StrokePaths_05c38">
<g id="kvg:05c38">
	<path id="kvg:05c38-s1" d="M20.5,18.25c2,0.75,5.88,1.42,8.01,1.27c11.46-0.84,46.12-3.57,50.72-3.87c2.27-0.15,3.27,1.85,3.27,4.1c0,3.78-1.25,9.5-3,17.5"/>
	<path id="kvg:05c38-s2" d="M27,41c5.75-0.25,48.25-3.25,54.25-3.5"/>
	<path id="kvg:05c38-s3" d="M26.75,20.5c0,4,0.3,18.75,0.25,22.5c-0.25,20.5-4,36.5-14,50.5"/>
</g>
</g>
<g id="kvg:StrokeNumbers_05c38">
	<text transform="matrix(1 0 0 1 30.75 13.63)">1</text>
	<text transform="matrix(1 0 0 1 33.75 36.13)">2</text>
	<text transform="matrix(1 0 0 1 17.25 28.63)">3</text>
</g>
</svg>
