<svg width="109" height="109" viewBox="0 0 109 109">
<g id="kvg:StrokePaths_05c31">
<g id="kvg:05c31">
	<g id="kvg:05c31-g1">
		<g id="kvg:05c31-g2">
			<path id="kvg:05c31-s1" d="M31,11.17c1.1,1.1,1.75,2.58,1.76,4.5c0.03,4.36-0.26,7.73-0.1,11.42"/>
			<path id="kvg:05c31-s2" d="M11.55,29.96c1.95,0.29,3.94,0.2,5.96-0.03c7.74-0.89,18.93-2.6,29.49-3.21c1.69-0.1,3.3-0.08,4.96,0.24"/>
		</g>
		<g id="kvg:05c31-g3">
			<g id="kvg:05c31-g4">
				<path id="kvg:05c31-s3" d="M18.56,42.22c0.67,0.67,1.31,1.65,1.52,2.54c0.61,2.55,1.68,6.57,2.51,11.17c0.24,1.31,0.46,2.66,0.67,4.05"/>
				<path id="kvg:05c31-s4" d="M20.44,43.02c7.31-1.27,19.47-3.14,23.73-3.67c1.77-0.22,3.65,1.3,2.94,3.83c-0.79,2.81-1.99,6.77-3.1,10.67"/>
				<path id="kvg:05c31-s5" d="M24.05,57.02c7.41-1.08,11.31-1.36,17.97-2.16c1.16-0.14,2.37-0.04,3.66-0.2"/>
			</g>
			<g id="kvg:05c31-g5">
				<path id="kvg:05c31-s6" d="M32.02,59.04c1.03,1.03,1.43,2.71,1.43,4.44c0,4.83-0.08,23.37-0.08,27.53c0,8.73-5.44,0.26-6.54-0.97"/>
				<path id="kvg:05c31-s7" d="M20.58,69.08c0.06,0.95-0.01,1.68-0.31,2.59c-1.4,4.17-4.34,10.59-9.16,16.39"/>
				<path id="kvg:05c31-s8" d="M42.07,65.58c2.32,2.29,5.52,8.69,6.1,12.26"/>
			</g>
		</g>
	</g>
	<g id="kvg:05c31-g6">
		<g id="kvg:05c31-g7">
			<path id="kvg:05c31-s9" d="M53.75,39.93c1.57,0.56,3.98,0.42,5.63,0.22c6.51-0.77,19.15-2.4,27.49-2.94c1.73-0.11,3.42-0.24,5.13,0.13"/>
			<g id="kvg:05c31-g8">
				<g id="kvg:05c31-g9">
					<path id="kvg:05c31-s10" d="M68.29,13.25c0.98,0.98,1.25,2.5,1.18,4.22C68.5,41.5,66.25,76.12,42.42,91.92"/>
				</g>
				<path id="kvg:05c31-s11" d="M68.73,53.12c0.95,0.95,1.65,2.88,1.65,4.31c0,8.89-0.09,16.82-0.09,24.32c0,11.5,1.09,12.52,12.28,12.52c9.93,0,11.32-0.77,11.32-9.91"/>
			</g>
		</g>
		<g id="kvg:05c31-g10">
			<path id="kvg:05c31-s12" d="M81.12,17.12c2.78,1.83,7.18,7.53,7.88,10.38"/>
		</g>
	</g>
</g>
</g>
<g id="kvg:StrokeNumbers_05c31">
	<text transform="matrix(1 0 0 1 23.50 11.50)">1</text>
	<text transform="matrix(1 0 0 1 5.25 30.50)">2</text>
	<text transform="matrix(1 0 0 1 12.75 50.98)">3</text>
	<text transform="matrix(1 0 0 1 20.50 39.13)">4</text>
	<text transform="matrix(1 0 0 1 26.50 53.50)">5</text>
	<text transform="matrix(1 0 0 1 26.25 67.50)">6</text>
	<text transform="matrix(1 0 0 1 12.75 70.50)">7</text>
	<text transform="matrix(1 0 0 1 43.50 64.50)">8</text>
	<text transform="matrix(1 0 0 1 52.50 37.50)">9</text>
	<text transform="matrix(1 0 0 1 56.50 15.50)">10</text>
	<text transform="matrix(1 0 0 1 73.50 57.13)">11</text>
	<text transform="matrix(1 0 0 1 77.50 14.50)">12</text>
</g>
</svg>
