<svg width="109" height="109" viewBox="0 0 109 109">
<g id="kvg:StrokePaths_05c3c">
<g id="kvg:05c3c">
	<g id="kvg:05c3c-g1">
		<path id="kvg:05c3c-s1" d="M25.78,17.81c1.72,0.94,5.13,1.15,6.97,0.94c9.87-1.14,35.89-3.71,43.65-4.45C79.5,14,81.58,15.54,81,18c-1.5,6.37-2.62,9.87-4.36,15.69"/>
		<path id="kvg:05c3c-s2" d="M32.19,38.93c4.12-0.22,29.43-2.78,41.33-3.83c2.55-0.23,4.47-0.38,5.39-0.43"/>
		<path id="kvg:05c3c-s3" d="M30.12,19.68c1.1,1.1,1.24,2.57,1.21,4.08C31.02,46.41,29,71.12,13.75,92.25"/>
	</g>
	<g id="kvg:05c3c-g2">
		<path id="kvg:05c3c-s4" d="M81.77,52.23c-0.27,1.02-0.82,1.59-1.49,1.95c-5.66,3.07-15.03,7.32-29.91,11.32"/>
		<path id="kvg:05c3c-s5" d="M45.37,47.61c0.82,0.82,1.08,2.02,1.08,3.73c0,1.47-0.07,25.67-0.07,30.16c0,10.59,1.62,11.65,23.57,11.65c20.31,0,21.56-1.15,21.56-12.8"/>
	</g>
</g>
</g>
<g id="kvg:StrokeNumbers_05c3c">
	<text transform="matrix(1 0 0 1 30.75 15.13)">1</text>
	<text transform="matrix(1 0 0 1 36.75 35.50)">2</text>
	<text transform="matrix(1 0 0 1 23.25 28.63)">3</text>
	<text transform="matrix(1 0 0 1 71.50 51.50)">4</text>
	<text transform="matrix(1 0 0 1 36.75 48.50)">5</text>
</g>
</svg>
