<svg width="109" height="109" viewBox="0 0 109 109">
<g id="kvg:StrokePaths_05c4b">
<g id="kvg:05c4b">
	<g id="kvg:05c4b-g1">
		<path id="kvg:05c4b-s1" d="M26.66,20.23c1.78,0.56,3.23,0.59,5.11,0.45c10.72-0.8,40.99-3.82,45.07-4.27c2.66-0.29,4.29,1.12,3.91,3.07c-0.29,1.46-1.84,6.27-2.84,9.41c-0.41,1.29-0.73,2.3-0.83,2.68"/>
		<path id="kvg:05c4b-s2" d="M30.94,35.74c4.26-0.16,31.44-2.36,43.94-3.55c2.47-0.23,3.62-0.19,5.26,0.06"/>
		<path id="kvg:05c4b-s3" d="M29.13,21.17c0.54,0.52,1.43,1.91,1.41,3.96C30.25,60,24,80.12,13.25,92.73"/>
	</g>
	<g id="kvg:05c4b-g2">
		<path id="kvg:05c4b-s4" d="M37.26,46.35c1.84,0.26,4.73,0.21,6.56,0.01c10.55-1.11,19.85-1.86,33.26-2.99c3.05-0.26,4.91-0.12,6.45,0.01"/>
		<path id="kvg:05c4b-s5" d="M56.93,48.43c0.32,1.44-0.3,2.57-1.2,3.46c-4.7,4.65-5.6,5.7-11.59,10.52c-1.93,1.55-1.55,3.22,1.53,2.64c8.21-1.55,17.84-3.3,29.32-5.69"/>
		<path id="kvg:05c4b-s6" d="M70.5,52.62C74.6,54.81,81.1,61.6,82.12,65"/>
		<g id="kvg:05c4b-g3">
			<path id="kvg:05c4b-s7" d="M39.25,78.38c1.28,0.22,3.64,0.31,4.9,0.22C52.5,78,67.38,76,77.18,75.76c2.13-0.05,3.41,0.1,4.47,0.21"/>
			<path id="kvg:05c4b-s8" d="M58.08,64.24c1.17,0.76,1.46,2.13,1.46,3.92c0,6.03-0.04,21-0.04,22.72"/>
			<path id="kvg:05c4b-s9" d="M28.97,93.1c2.56,0.65,5.48,0.73,7.45,0.65c19.63-0.87,31.17-2.62,51.31-2.77c3.24-0.02,5.18,0.31,6.81,0.63"/>
		</g>
	</g>
</g>
</g>
<g id="kvg:StrokeNumbers_05c4b">
	<text transform="matrix(1 0 0 1 29.50 17.50)">1</text>
	<text transform="matrix(1 0 0 1 36.75 32.50)">2</text>
	<text transform="matrix(1 0 0 1 23.50 30.13)">3</text>
	<text transform="matrix(1 0 0 1 35.25 44.50)">4</text>
	<text transform="matrix(1 0 0 1 45.75 55.63)">5</text>
	<text transform="matrix(1 0 0 1 77.50 54.13)">6</text>
	<text transform="matrix(1 0 0 1 33.50 78.13)">7</text>
	<text transform="matrix(1 0 0 1 52.50 72.50)">8</text>
	<text transform="matrix(1 0 0 1 21.75 93.13)">9</text>
</g>
</svg>
