<svg width="109" height="109" viewBox="0 0 109 109">
<g id="kvg:StrokePaths_05c60">
<g id="kvg:05c60">
	<g id="kvg:05c60-g1">
		<path id="kvg:05c60-s1" d="M26.68,15.15c1.91,0.73,4.13,0.88,6.16,0.73C43.8,15.07,72,12.25,76.37,11.65c2.88-0.4,3.63,1.1,3.13,3.97c-0.63,3.61-2,7.13-2.87,11.44"/>
		<path id="kvg:05c60-s2" d="M28.9,30.17c10.85-0.67,43.17-3.13,48.91-3.37"/>
		<path id="kvg:05c60-s3" d="M29.08,15.83c0,3.89-0.26,15.19-0.66,18.81c-2.29,20.56-3.96,36.85-15.18,51.61"/>
	</g>
	<g id="kvg:05c60-g2">
		<g id="kvg:05c60-g3">
			<g id="kvg:05c60-g4">
				<path id="kvg:05c60-s4" d="M38.3,45.01c0.61,0.25,1.73,0.28,2.35,0.25c6.96-0.4,18.8-2.29,25.66-2.46c1.02-0.03,1.63,0.12,2.14,0.24"/>
				<path id="kvg:05c60-s5" d="M53.59,33.87c0.09,0.22,1.28,1.15,1.37,2.56c0.44,6.74,0.24,17.02,0.24,19.32"/>
				<path id="kvg:05c60-s6" d="M31.5,57.97c1.35,0.35,3.43,0.65,4.64,0.52c6.75-0.73,43.67-4.88,51.5-5.04c2.02-0.04,3.23,0.25,4.24,0.51"/>
			</g>
			<path id="kvg:05c60-s7" d="M77.16,35.35c0.09,1.15,0.72,2.31-0.26,3.48C64.22,53.9,51.8,64.67,28.68,78.61"/>
		</g>
		<path id="kvg:05c60-s8" d="M62.3,59.57c2.74,1.1,7.06,4.53,7.75,6.25"/>
		<g id="kvg:05c60-g5">
			<path id="kvg:05c60-s9" d="M46.52,71.36c0.35,0.68,0.65,1.01,0.7,1.91c0.28,4.73,1.88,24.58,2,25.48"/>
			<path id="kvg:05c60-s10" d="M47.3,72.48c1.98-0.11,26.95-3.72,28.75-3.86c1.5-0.11,2.46,1.25,2.35,1.91c-0.24,1.35-2.46,25.82-2.46,26.49"/>
			<path id="kvg:05c60-s11" d="M48.15,83.63c2.67,0,25.95-2.41,28.97-2.41"/>
			<path id="kvg:05c60-s12" d="M49.53,96.73c5.44-0.48,19.8-2.27,26.58-2.69"/>
		</g>
	</g>
</g>
</g>
<g id="kvg:StrokeNumbers_05c60">
	<text transform="matrix(1 0 0 1 28.50 12.50)">1</text>
	<text transform="matrix(1 0 0 1 34.50 26.50)">2</text>
	<text transform="matrix(1 0 0 1 21.50 23.50)">3</text>
	<text transform="matrix(1 0 0 1 35.50 42.50)">4</text>
	<text transform="matrix(1 0 0 1 45.50 37.50)">5</text>
	<text transform="matrix(1 0 0 1 31.50 55.50)">6</text>
	<text transform="matrix(1 0 0 1 70.50 36.50)">7</text>
	<text transform="matrix(1 0 0 1 70 62.50)">8</text>
	<text transform="matrix(1 0 0 1 40.50 82.60)">9</text>
	<text transform="matrix(1 0 0 1 51.5 69.75)">10</text>
	<text transform="matrix(1 0 0 1 51.50 80.50)">11</text>
	<text transform="matrix(1 0 0 1 52.50 93.38)">12</text>
</g>
</svg>
