<svg width="109" height="109" viewBox="0 0 109 109">
<g id="kvg:StrokePaths_05c6e">
<g id="kvg:05c6e">
	<g id="kvg:05c6e-g1">
		<path id="kvg:05c6e-s1" d="M22.6,33.16c0.9,0.46,2.3,1.71,2.3,4.41c0,3.13-1.15,17.8-1.65,23.3c-0.26,2.84-1,4.5,3.31,4.16c12.59-0.99,48.44-5.16,59.7-6.42"/>
		<path id="kvg:05c6e-s2" d="M86.48,27.75c0.77,0.62,2.42,2.62,2.3,3.91c-0.54,5.96-1.79,21.71-2.73,32.08"/>
	</g>
	<g id="kvg:05c6e-g2">
		<path id="kvg:05c6e-s3" d="M53.07,10.12c1.18,1,2.25,3,2.25,4.63c0,13.95,0.05,22.37-0.18,35.38c-0.4,23.24-7.4,40.99-27.59,51.46"/>
	</g>
</g>
</g>
<g id="kvg:StrokeNumbers_05c6e">
	<text transform="matrix(1 0 0 1 13.50 34.50)">1</text>
	<text transform="matrix(1 0 0 1 78.50 28.50)">2</text>
	<text transform="matrix(1 0 0 1 44.50 10.50)">3</text>
</g>
</svg>
