<svg width="109" height="109" viewBox="0 0 109 109">
<g id="kvg:StrokePaths_05c8c">
<g id="kvg:05c8c">
	<g id="kvg:05c8c-g1">
		<path id="kvg:05c8c-s1" d="M51.8,10.88c0.61,0.36,1.91,2.71,2.03,3.43c0.12,0.72-0.08,12.1-0.2,16.62"/>
		<path id="kvg:05c8c-s2" d="M27.61,18.88c0.61,0.36,1.22,1.89,1.22,2.63c0,2.83-1.42,5.92-2.83,10.2c-0.52,1.58,0.91,2.84,2.3,2.48c11.44-2.94,47.84-5.46,53.32-5.6"/>
		<path id="kvg:05c8c-s3" d="M81.88,16.97c0.61,0.36,1.32,2.71,1.22,3.43c-0.61,4.44-0.29,7.03-1.27,11.35"/>
	</g>
	<g id="kvg:05c8c-g2">
		<g id="kvg:05c8c-g3">
			<path id="kvg:05c8c-s4" d="M40.29,47.14c0.71,1.11,0.87,3.03,0.49,4.7C38.03,64.25,31,85.75,11.39,96.85"/>
		</g>
		<path id="kvg:05c8c-s5" d="M32.75,43.65c2.5,0.85,5.2,1.06,7.75,0.64c6.25-1.04,20.25-2.54,24.25-3.6S71.5,40.9,70,43.45S65.5,54,64.25,59.66"/>
		<g id="kvg:05c8c-g4">
			<path id="kvg:05c8c-s6" d="M40.04,63.91c2.6,0.58,4.03,0.16,6.63-0.4c4.51-0.96,23.89-4,28.13-4.39c2.89-0.26,4.13,1.06,3.18,2.7C69.25,77,52.25,89.75,30.5,98"/>
			<path id="kvg:05c8c-s7" d="M39.75,65.17c8.27,5.26,33.68,26.51,42.01,30.27c2.67,1.2,4.38,2.16,6.74,2.6"/>
		</g>
	</g>
</g>
</g>
<g id="kvg:StrokeNumbers_05c8c">
	<text transform="matrix(1 0 0 1 44.50 11.50)">1</text>
	<text transform="matrix(1 0 0 1 19.66 18.50)">2</text>
	<text transform="matrix(1 0 0 1 73.71 16.50)">3</text>
	<text transform="matrix(1 0 0 1 32.50 53.50)">4</text>
	<text transform="matrix(1 0 0 1 33.50 41.50)">5</text>
	<text transform="matrix(1 0 0 1 44.50 60.50)">6</text>
	<text transform="matrix(1 0 0 1 51.50 71.68)">7</text>
</g>
</svg>
