<svg width="109" height="109" viewBox="0 0 109 109">
<g id="kvg:StrokePaths_05cab">
<g id="kvg:05cab">
	<g id="kvg:05cab-g1">
		<path id="kvg:05cab-s1" d="M25.2,16.75c0.61,0.36,2.01,2.69,2.01,3.42c0,7.55,0.25,42.97,0.25,52.65"/>
		<path id="kvg:05cab-s2" d="M12.04,43.1c0.73,0.43,1.51,2.26,1.45,3.13c-0.41,6,0.14,19.22-1.31,28.25c-0.31,1.96,0.21,2.41,1.98,1.97c10.07-2.51,14.1-3.6,26.33-6.1"/>
		<path id="kvg:05cab-s3" d="M41.72,38.16c0.67,0.4,1.33,2.96,1.33,3.76c0,6.21-1.55,23.32-2.42,33.31"/>
	</g>
	<g id="kvg:05cab-g2">
		<g id="kvg:05cab-g3">
			<path id="kvg:05cab-s4" d="M53.5,41.31c0.75,1.38,1.33,2.8,1.5,4c1.43,9.88,1.16,32.2,2.01,50.4"/>
			<path id="kvg:05cab-s5" d="M55.02,43.98c13.23-1.48,29.08-3.35,37.58-4.32c3.12-0.36,4.29,2.51,4.12,5.15c-0.62,9.7-0.5,32.61-2.47,48.6"/>
		</g>
		<g id="kvg:05cab-g4">
			<path id="kvg:05cab-s6" d="M72.86,12.86c1.16,1.09,1.85,2.66,1.85,4.1c0.04,14.16,0.21,70.88,0.21,74.58"/>
		</g>
		<g id="kvg:05cab-g5">
			<path id="kvg:05cab-s7" d="M56.54,66.56c3.71-0.48,36.15-2.94,39.22-2.94"/>
			<path id="kvg:05cab-s8" d="M57.61,93.24c9.39-0.7,25.43-2.21,36.75-2.47"/>
		</g>
	</g>
</g>
</g>
<g id="kvg:StrokeNumbers_05cab">
	<text transform="matrix(1 0 0 1 16.50 15.50)">1</text>
	<text transform="matrix(1 0 0 1 3.50 42.50)">2</text>
	<text transform="matrix(1 0 0 1 33.50 38.50)">3</text>
	<text transform="matrix(1 0 0 1 47.25 49.50)">4</text>
	<text transform="matrix(1 0 0 1 57.50 40.50)">5</text>
	<text transform="matrix(1 0 0 1 63.50 12.50)">6</text>
	<text transform="matrix(1 0 0 1 60.50 63.50)">7</text>
	<text transform="matrix(1 0 0 1 61.50 89.50)">8</text>
</g>
</svg>
