<svg width="109" height="109" viewBox="0 0 109 109">
<g id="kvg:StrokePaths_05cbe">
<g id="kvg:05cbe">
	<g id="kvg:05cbe-g1">
		<path id="kvg:05cbe-s1" d="M25.2,16.25c0.61,0.36,2.01,2.69,2.01,3.42c0,7.55,0.25,42.97,0.25,52.65"/>
		<path id="kvg:05cbe-s2" d="M12.29,43.01c0.67,0.4,1.39,2.07,1.33,2.88c-0.37,5.52,0.13,20.06-1.2,28.36c-0.29,1.8,0.19,2.22,1.82,1.81c9.26-2.31,14.51-3.81,25.76-6.11"/>
		<path id="kvg:05cbe-s3" d="M40.72,38.66c0.67,0.4,1.33,2.96,1.33,3.76c0,6.21-0.8,21.57-1.92,32.31"/>
	</g>
	<g id="kvg:05cbe-g2">
		<g id="kvg:05cbe-g3">
			<path id="kvg:05cbe-s4" d="M66.81,13.13c0.76,0.45,2.36,3.35,2.51,4.25c0.15,0.9-0.25,34.12-0.25,47.25"/>
			<path id="kvg:05cbe-s5" d="M69.25,39.23c10.54-0.98,22.76-2.95,24.23-2.95c1.47,0,4.1,0,5.27,0.33"/>
		</g>
		<g id="kvg:05cbe-g4">
			<path id="kvg:05cbe-s6" d="M51.41,66.34c0.42,0.52,0.85,0.96,1.04,1.61c1.46,5.17,3.21,19.43,4.21,28.71"/>
			<path id="kvg:05cbe-s7" d="M53.28,68.21c11.22-1.92,29.76-3.49,35.08-4.23c1.94-0.27,3.11,2.69,2.83,4.27c-1.15,6.51-2.59,13.72-4.18,21.97"/>
			<path id="kvg:05cbe-s8" d="M57.07,92.67c7.94-0.46,22.49-1.89,32.92-2.21"/>
		</g>
	</g>
</g>
</g>
<g id="kvg:StrokeNumbers_05cbe">
	<text transform="matrix(1 0 0 1 16.50 16.50)">1</text>
	<text transform="matrix(1 0 0 1 3.50 42.50)">2</text>
	<text transform="matrix(1 0 0 1 32.71 38.50)">3</text>
	<text transform="matrix(1 0 0 1 57.50 13.50)">4</text>
	<text transform="matrix(1 0 0 1 72.50 35.50)">5</text>
	<text transform="matrix(1 0 0 1 45.50 76.50)">6</text>
	<text transform="matrix(1 0 0 1 55.50 63.50)">7</text>
	<text transform="matrix(1 0 0 1 60.50 89.50)">8</text>
</g>
</svg>
