<svg width="109" height="109" viewBox="0 0 109 109">
<g id="kvg:StrokePaths_05cb6">
<g id="kvg:05cb6">
	<g id="kvg:05cb6-g1">
		<path id="kvg:05cb6-s1" d="M25.7,16.75c0.61,0.36,2.01,2.69,2.01,3.42c0,7.55,0.25,42.97,0.25,52.65"/>
		<path id="kvg:05cb6-s2" d="M12.79,43.01c0.67,0.4,1.39,2.07,1.33,2.88c-0.37,5.52,0.13,20.56-1.2,28.86c-0.29,1.8,0.19,2.22,1.82,1.81C24,74.25,30.75,72.75,42,70.45"/>
		<path id="kvg:05cb6-s3" d="M42.22,38.66c0.67,0.4,1.33,2.96,1.33,3.76c0,6.21-1.05,22.82-1.92,32.81"/>
	</g>
	<g id="kvg:05cb6-g2">
		<g id="kvg:05cb6-g3">
			<path id="kvg:05cb6-s4" d="M72.89,12.5c0.52,0.8,0.7,1.82,0.47,2.48c-1.7,4.85-6.98,13.96-12.67,19.49"/>
		</g>
		<g id="kvg:05cb6-g4">
			<path id="kvg:05cb6-s5" d="M55.3,34.84c0.62,1.53,1.25,4.08,1.25,6.11c0,2.04,1.25,43.83,1.25,56.04"/>
			<path id="kvg:05cb6-s6" d="M56.93,36.84c3.53-0.25,32.18-3.3,35.39-3.73c2.04-0.28,2.87,0.89,2.87,3.38c0,5.49-1.09,41.49-1.75,58.3"/>
			<path id="kvg:05cb6-s7" d="M57.41,64.02c7.4-0.77,31.5-3.18,36.9-3.18"/>
			<path id="kvg:05cb6-s8" d="M58.65,93.01c8.86-0.82,25.14-2.27,34.58-2.65"/>
		</g>
	</g>
</g>
</g>
<g id="kvg:StrokeNumbers_05cb6">
	<text transform="matrix(1 0 0 1 17.85 15.50)">1</text>
	<text transform="matrix(1 0 0 1 4.50 41.50)">2</text>
	<text transform="matrix(1 0 0 1 34.50 38.50)">3</text>
	<text transform="matrix(1 0 0 1 63.50 11.50)">4</text>
	<text transform="matrix(1 0 0 1 48.50 45.50)">5</text>
	<text transform="matrix(1 0 0 1 70.50 31.50)">6</text>
	<text transform="matrix(1 0 0 1 61.50 60.50)">7</text>
	<text transform="matrix(1 0 0 1 62.50 89.50)">8</text>
</g>
</svg>
