<svg width="109" height="109" viewBox="0 0 109 109">
<g id="kvg:StrokePaths_05cfb">
<g id="kvg:05cfb">
	<g id="kvg:05cfb-g1">
		<path id="kvg:05cfb-s1" d="M23.25,25.03c0.73,0.73,1.04,1.84,1.04,3.54c0,6.72-0.02,29.85-0.02,38.47"/>
		<path id="kvg:05cfb-s2" d="M12.79,43.77c0.91,0.91,1.21,1.98,1.19,3.31c-0.08,4.63-0.73,12.54-1.42,21.55c-0.22,2.91-0.19,3.86,2.73,2.59c5.17-2.26,10.38-3.78,19.63-5.67"/>
		<path id="kvg:05cfb-s3" d="M35.62,40.26c0.94,0.94,1.01,2.11,0.94,3.85c-0.17,4.25-0.41,12.58-0.63,20.26c-0.07,2.29-0.13,4.52-0.19,6.57"/>
	</g>
	<g id="kvg:05cfb-g2">
		<g id="kvg:05cfb-g3">
			<g id="kvg:05cfb-g4">
				<path id="kvg:05cfb-s4" d="M61.16,12.5c0.22,0.88,0,2.09-0.35,2.58c-4.43,6.05-7.55,10.42-13.24,16.82c-1.62,1.82-1.38,3.3,1.38,2.77c8.56-1.66,21.69-5.28,31.1-7.16"/>
				<path id="kvg:05cfb-s5" d="M74.27,19.26c4.33,2.8,11.2,11.52,12.28,15.87"/>
			</g>
			<g id="kvg:05cfb-g5">
				<g id="kvg:05cfb-g6">
					<path id="kvg:05cfb-s6" d="M55.81,38.11c0.11,1.19-0.1,1.99-0.7,3.08c-2.1,3.83-6.92,9.41-12.91,13.73"/>
				</g>
				<g id="kvg:05cfb-g7">
					<path id="kvg:05cfb-s7" d="M67.98,34.3c0.79,0.79,0.86,1.82,0.86,3.3c0,3.79-0.08,4.72-0.08,7.29c0,6.01,5.59,5.33,11.08,5.33c5.8,0,9.41-0.73,10.43-2.23"/>
				</g>
			</g>
		</g>
		<g id="kvg:05cfb-g8">
			<path id="kvg:05cfb-s8" d="M59.84,52c0.06,0.64-0.15,2.33-0.62,3.14C55,62.5,50,71.12,40.54,79.35"/>
			<path id="kvg:05cfb-s9" d="M59.25,60.31c0.96,0.85,4.18,0.58,5.39,0.39c3.59-0.56,8.96-2,11.74-2.73c2.74-0.72,4.49,1.15,3.39,3.35c-5.71,11.33-21.52,28.93-39.35,35.43"/>
			<path id="kvg:05cfb-s10" d="M55.81,66.43c3.53,0.79,18.79,16.94,27.54,25.09c2.4,2.23,5.15,4.48,8.72,6.37"/>
		</g>
	</g>
</g>
</g>
<g id="kvg:StrokeNumbers_05cfb">
	<text transform="matrix(1 0 0 1 14.25 24.25)">1</text>
	<text transform="matrix(1 0 0 1 5.41 43.25)">2</text>
	<text transform="matrix(1 0 0 1 30.25 37.60)">3</text>
	<text transform="matrix(1 0 0 1 53.25 11.25)">4</text>
	<text transform="matrix(1 0 0 1 71.25 16.25)">5</text>
	<text transform="matrix(1 0 0 1 46.25 45.25)">6</text>
	<text transform="matrix(1 0 0 1 62.25 40.25)">7</text>
	<text transform="matrix(1 0 0 1 52.25 54.25)">8</text>
	<text transform="matrix(1 0 0 1 64.25 58.25)">9</text>
	<text transform="matrix(1 0 0 1 62.25 69.25)">10</text>
</g>
</svg>
