<svg width="109" height="109" viewBox="0 0 109 109">
<g id="kvg:StrokePaths_05cfa">
<g id="kvg:05cfa">
	<g id="kvg:05cfa-g1">
		<path id="kvg:05cfa-s1" d="M24.6,17.25c0.63,0.35,2.09,2.62,2.09,3.33c0,7.36,0.26,41.88,0.26,51.32"/>
		<path id="kvg:05cfa-s2" d="M12.79,47.83c0.69,0.39,1.44,2.02,1.38,2.8c-0.39,5.38-0.37,14.58-1.75,22.67c-0.3,1.76,0.2,2.16,1.89,1.77c9.6-2.25,13.97-2.73,25.63-4.97"/>
		<path id="kvg:05cfa-s3" d="M40.17,42.55c0.69,0.39,1.38,2.88,1.38,3.67c0,6.05-0.8,16.29-1.45,26.07"/>
	</g>
	<g id="kvg:05cfa-g2">
		<path id="kvg:05cfa-s4" d="M46.82,18.65c0.97,0.48,2.75,0.61,3.71,0.48c6.17-0.83,27.08-3.46,36.91-3.6c1.62-0.02,2.58,0.23,3.39,0.47"/>
		<g id="kvg:05cfa-g3">
			<path id="kvg:05cfa-s5" d="M47.23,31.91c0.52,0.76,1.05,1.7,1.05,2.72s3.64,25.11,3.81,26.12"/>
			<path id="kvg:05cfa-s6" d="M49.15,33.14c2.96-0.13,37.24-3.75,39.93-3.9c2.25-0.13,3.54,1.16,2.89,4.97c-1.02,5.99-1.46,10.48-4.48,23.75"/>
			<path id="kvg:05cfa-s7" d="M50.12,45.78c7.44-1.3,34.18-3.84,38.71-3.84"/>
			<path id="kvg:05cfa-s8" d="M52.27,58.89c11.52-1.55,23.23-2.64,35.47-3.08"/>
		</g>
		<g id="kvg:05cfa-g4">
			<g id="kvg:05cfa-g5">
				<path id="kvg:05cfa-s9" d="M68.75,20c0.75,1.5,0.71,2.75,0.71,4.93c0,34.57-0.71,61.57-30.46,73.61"/>
			</g>
			<path id="kvg:05cfa-s10" d="M49.72,67.75C57.25,70,78,89.25,92.32,94.67c2.6,0.98,4.5,1.95,6.93,2.33"/>
		</g>
	</g>
</g>
</g>
<g id="kvg:StrokeNumbers_05cfa">
	<text transform="matrix(1 0 0 1 15.50 17.85)">1</text>
	<text transform="matrix(1 0 0 1 5.66 44.85)">2</text>
	<text transform="matrix(1 0 0 1 32.71 40.50)">3</text>
	<text transform="matrix(1 0 0 1 45.50 15.50)">4</text>
	<text transform="matrix(1 0 0 1 39.50 36.50)">5</text>
	<text transform="matrix(1 0 0 1 50.50 30.50)">6</text>
	<text transform="matrix(1 0 0 1 53.50 42.50)">7</text>
	<text transform="matrix(1 0 0 1 55.50 55.50)">8</text>
	<text transform="matrix(1 0 0 1 61.50 26.53)">9</text>
	<text transform="matrix(1 0 0 1 44.44 74.46)">10</text>
</g>
</svg>
