<svg width="109" height="109" viewBox="0 0 109 109">
<g id="kvg:StrokePaths_05d11">
<g id="kvg:05d11">
	<g id="kvg:05d11-g1">
		<path id="kvg:05d11-s1" d="M52.51,9.38c0.56,0.33,1.75,2.48,1.86,3.15c0.11,0.66-0.07,8.58-0.18,12.73"/>
		<path id="kvg:05d11-s2" d="M26.43,16.25c0.56,0.33,1.12,1.73,1.12,2.41c0,2.59-0.55,5.09-1.09,8.26c-0.26,1.5,0.83,2.61,2.11,2.28c6.43-1.7,48.83-5.92,53.85-6.05"/>
		<path id="kvg:05d11-s3" d="M82.52,12.62c0.56,0.33,1.21,2.48,1.12,3.15C83.09,19.84,83,23,82.11,26.96"/>
	</g>
	<g id="kvg:05d11-g2">
		<g id="kvg:05d11-g3">
			<path id="kvg:05d11-s4" d="M31.35,38.01c0.56,0.53,1.13,1.29,1.13,2c0,0.71,3.37,21.76,3.37,22.11"/>
			<path id="kvg:05d11-s5" d="M32.51,39.38c3.17-0.09,38.19-4.53,41.08-4.64c2.41-0.09,3.54,1.09,3.27,3.17c-0.14,1.1-1.54,12.69-3.96,20.33"/>
			<path id="kvg:05d11-s6" d="M34.44,49.22c8.6-0.44,35.99-3.68,40.84-3.68"/>
			<path id="kvg:05d11-s7" d="M35.65,59.63c8.74-0.38,26.55-2.39,37.44-2.72"/>
		</g>
		<g id="kvg:05d11-g4">
			<g id="kvg:05d11-g5">
				<path id="kvg:05d11-s8" d="M28.24,76.54c4.45-0.59,12.76-3.04,18.32-4.54c1.35-0.37,2.07-0.5,3.25-0.11"/>
				<path id="kvg:05d11-s9" d="M26.4,64.04c0.97,0.52,1.32,1.99,1.37,2.73c0.27,4.67-0.31,25.67-0.31,28.02c0,1.45,0.76,2.74,3.93,1.46C37.87,93.62,42,91,49.05,87.67"/>
			</g>
			<g id="kvg:05d11-g6">
				<path id="kvg:05d11-s10" d="M82.27,62.38c0.29,0.38-0.15,2.28-0.84,2.76C74.5,70,68.75,73.75,59.65,77.59"/>
				<path id="kvg:05d11-s11" d="M54.73,63.16c1.52,0.84,2.14,3.25,2.11,3.96c-0.14,3.98-0.3,19.74-0.3,21.88c0,6.51,1.95,8.59,16.11,8.59c16.84,0,17.95-1.58,17.95-11.14"/>
			</g>
		</g>
	</g>
</g>
</g>
<g id="kvg:StrokeNumbers_05d11">
	<text transform="matrix(1 0 0 1 45.50 9.50)">1</text>
	<text transform="matrix(1 0 0 1 18.50 15.85)">2</text>
	<text transform="matrix(1 0 0 1 74.50 12.50)">3</text>
	<text transform="matrix(1 0 0 1 25.25 45.50)">4</text>
	<text transform="matrix(1 0 0 1 34.50 36.50)">5</text>
	<text transform="matrix(1 0 0 1 37.50 46.50)">6</text>
	<text transform="matrix(1 0 0 1 38.50 57.50)">7</text>
	<text transform="matrix(1 0 0 1 32.50 71.50)">8</text>
	<text transform="matrix(1 0 0 1 19.50 69.50)">9</text>
	<text transform="matrix(1 0 0 1 70.50 65.50)">10</text>
	<text transform="matrix(1 0 0 1 47.50 66.50)">11</text>
</g>
</svg>
