<svg width="109" height="109" viewBox="0 0 109 109">
<g id="kvg:StrokePaths_05ddb">
<g id="kvg:05ddb">
	<path id="kvg:05ddb-s1" d="M35.21,14.37c1.04,0.88,1.49,4,0.75,5.75C32,29.5,27.25,40.75,20.5,52.75c-1.3,2.32-0.52,2.11,0,3C27,67,34.75,80,37.5,95.25"/>
	<path id="kvg:05ddb-s2" d="M58.21,13.87c1.04,0.88,1.39,3.96,0.75,5.75C55.5,29.25,52.75,40.75,46.25,52c-0.71,1.22-0.29,2.37,0.25,3.25c6.5,10.5,13,22,17,39"/>
	<path id="kvg:05ddb-s3" d="M84.21,14.87c1.04,0.88,1.35,3.94,0.75,5.75C81.5,31,77.25,41.75,70.75,53c-0.71,1.22-0.29,2.37,0.25,3.25c6.5,10.5,13,21,17,38"/>
</g>
</g>
<g id="kvg:StrokeNumbers_05ddb">
	<text transform="matrix(1 0 0 1 27.50 13.50)">1</text>
	<text transform="matrix(1 0 0 1 50.50 13.50)">2</text>
	<text transform="matrix(1 0 0 1 76.50 13.50)">3</text>
</g>
</svg>
