<svg width="109" height="109" viewBox="0 0 109 109">
<g id="kvg:StrokePaths_05dd6">
<g id="kvg:05dd6">
	<g id="kvg:05dd6-g1">
		<path id="kvg:05dd6-s1" d="M52.01,9.88c0.56,0.33,1.75,2.48,1.86,3.15c0.11,0.66-0.07,6.58-0.18,10.73"/>
		<path id="kvg:05dd6-s2" d="M26.93,15.25c0.56,0.33,1.12,1.73,1.12,2.41c0,2.59-0.3,2.84-1.59,6.76c-0.48,1.45,0.83,2.61,2.11,2.28c8.43-2.2,47.83-4.42,52.85-4.55"/>
		<path id="kvg:05dd6-s3" d="M81.02,12.62c0.56,0.33,1.21,2.48,1.12,3.15c-0.56,4.07-0.64,4.73-1.04,9.19"/>
	</g>
	<g id="kvg:05dd6-g2">
		<g id="kvg:05dd6-g3">
			<g id="kvg:05dd6-g4">
				<path id="kvg:05dd6-s4" d="M27.5,31.91c0.29,0.19,0.59,0.34,0.72,0.58c1.01,1.85,1.78,6.25,2.47,9.57"/>
				<path id="kvg:05dd6-s5" d="M29.31,33.17c5.95-0.96,12.64-1.68,16.04-1.92c1.25-0.09,1.49,1.53,1.32,2.05c-0.74,2.16-1.6,3.42-2.7,6.41"/>
				<path id="kvg:05dd6-s6" d="M31.26,41.14c4-0.28,8.83-0.75,14.33-1.17"/>
			</g>
			<g id="kvg:05dd6-g5">
				<path id="kvg:05dd6-s7" d="M56.69,29.71c0.33,0.23,0.68,0.41,0.83,0.69c1.16,2.23,2.06,6.38,2.85,10.39"/>
				<path id="kvg:05dd6-s8" d="M58.78,30.42c8.29-1.12,11.19-1.65,15.11-1.94c1.43-0.11,2.3,0.64,2.09,1.27c-0.85,2.61-1.35,4.55-2.61,8.16"/>
				<path id="kvg:05dd6-s9" d="M61.02,39.14c4.61-0.33,7.46-0.9,13.79-1.41"/>
			</g>
		</g>
		<g id="kvg:05dd6-g6">
			<g id="kvg:05dd6-g7">
				<path id="kvg:05dd6-s10" d="M23.53,48.56C24.96,49,27.57,49.08,29,49c16.72-1.03,37.13-4.87,51.28-5.24c2.38-0.06,3.8,0.21,4.99,0.43"/>
				<path id="kvg:05dd6-s11" d="M27.29,49.59c0.05,1.06-0.09,2.74-0.09,4.28c0,9.93-3.63,32.26-15.64,41.97"/>
			</g>
			<g id="kvg:05dd6-g8">
				<g id="kvg:05dd6-g9">
					<path id="kvg:05dd6-s12" d="M33.11,55.46c0.47,0.13,1.34,0.17,1.82,0.13c3.02-0.23,12.71-2.23,16.64-2.56c0.79-0.07,1.26,0.06,1.66,0.13"/>
					<path id="kvg:05dd6-s13" d="M41.12,54.81c0.75,0.18,1.81,1.04,1.79,1.55c-0.05,1.6-0.05,4.32-0.06,5.78"/>
					<g id="kvg:05dd6-g10">
						<path id="kvg:05dd6-s14" d="M30.82,63.73c0.6,0.25,1.69,0.33,2.29,0.25c6.74-0.9,15.58-2.61,22.15-3.03c0.99-0.06,1.59,0.12,2.09,0.25"/>
						<path id="kvg:05dd6-s15" d="M35.47,64.97c0.22,0.35,0.56,0.35,0.56,0.93c0,0.58-0.11,21.03-0.11,23.12"/>
						<path id="kvg:05dd6-s16" d="M36.83,71.01c2.16,0,10.42-1.4,14.12-1.4"/>
						<path id="kvg:05dd6-s17" d="M36.6,78.34c2.67,0,10.12-1.28,14.01-1.28"/>
						<path id="kvg:05dd6-s18" d="M29.42,89.59c0.2,0.36,1.12,0.91,1.79,0.72c7.47-2.15,14.81-4.38,20.05-6"/>
						<path id="kvg:05dd6-s19" d="M50.72,63.11c0.22,0.46,0.56,0.35,0.56,0.93c0,0.58,0.11,30.45,0.11,35.22"/>
					</g>
				</g>
				<g id="kvg:05dd6-g11">
					<g id="kvg:05dd6-g12">
						<path id="kvg:05dd6-s20" d="M66.2,49.86c0.02,0.52,0.15,1.38-0.05,2.09c-1.23,4.6-4.01,13.25-8.28,19.61"/>
						<path id="kvg:05dd6-s21" d="M65.32,60.25c0.47,0.37,1.33,0.41,1.8,0.37c4.89-0.43,13.64-3.59,21.1-4.28c0.84-0.08,1.35-0.02,1.57,0.07"/>
					</g>
					<g id="kvg:05dd6-g13">
						<g id="kvg:05dd6-g14">
							<path id="kvg:05dd6-s22" d="M80.33,61.26c0.36,0.85,0.68,1.49,0.18,3C76.75,75.75,69.25,88,57.96,95.74"/>
						</g>
						<path id="kvg:05dd6-s23" d="M62.11,67.49c2.64,0.21,18.1,21.65,26.83,27.42c1.59,1.05,2.54,1.28,3.82,1.4"/>
					</g>
				</g>
			</g>
		</g>
	</g>
</g>
</g>
<g id="kvg:StrokeNumbers_05dd6">
	<text transform="matrix(1 0 0 1 46.85 6.85)">1</text>
	<text transform="matrix(1 0 0 1 19.66 15.85)">2</text>
	<text transform="matrix(1 0 0 1 73.71 12.85)">3</text>
	<text transform="matrix(1 0 0 1 21.50 36.40)">4</text>
	<text transform="matrix(1 0 0 1 31.50 32.50)">5</text>
	<text transform="matrix(1 0 0 1 33.50 39.50)">6</text>
	<text transform="matrix(1 0 0 1 51.50 37.50)">7</text>
	<text transform="matrix(1 0 0 1 60.50 28.10)">8</text>
	<text transform="matrix(1 0 0 1 62.50 36.50)">9</text>
	<text transform="matrix(1 0 0 1 30.50 47.50)">10</text>
	<text transform="matrix(1 0 0 1 15.25 58.88)">11</text>
	<text transform="matrix(1 0 0 1 34.50 53.50)">12</text>
	<text transform="matrix(1 0 0 1 44.50 59.73)">13</text>
	<text transform="matrix(1 0 0 1 29.25 62.50)">14</text>
	<text transform="matrix(1 0 0 1 28.50 72.50)">15</text>
	<text transform="matrix(1 0 0 1 38.50 68.50)">16</text>
	<text transform="matrix(1 0 0 1 38.50 76.43)">17</text>
	<text transform="matrix(1 0 0 1 25.50 85.50)">18</text>
	<text transform="matrix(1 0 0 1 52.25 68.75)">19</text>
	<text transform="matrix(1 0 0 1 56.50 52.50)">20</text>
	<text transform="matrix(1 0 0 1 69.50 56.50)">21</text>
	<text transform="matrix(1 0 0 1 70.50 66.50)">22</text>
	<text transform="matrix(1 0 0 1 68.50 72.50)">23</text>
</g>
</svg>
