<svg width="109" height="109" viewBox="0 0 109 109">
<g id="kvg:StrokePaths_05deb">
<g id="kvg:05deb">
	<g id="kvg:05deb-g1">
		<g id="kvg:05deb-g2">
			<path id="kvg:05deb-s1" d="M24.75,26.6c1.06,0.4,4.53,0.53,5.6,0.41c5-0.54,42.01-3.64,50.41-4.06c1.64-0.08,3.13,0.08,4.49,0.41"/>
		</g>
		<path id="kvg:05deb-s2" d="M52.12,26.25c2.27,2.83,2.27,4.53,2.27,6.8c0,15.86-0.07,24.01-0.07,51.2"/>
	</g>
	<g id="kvg:05deb-g3">
		<g id="kvg:05deb-g4">
			<path id="kvg:05deb-s3" d="M34.75,40.74C35,41.5,34.94,43.16,34.59,44C31.25,52.25,26,63,15.72,70.88"/>
			<path id="kvg:05deb-s4" d="M31.89,54.36c4.56,2.26,10.39,8.28,12.61,13.98"/>
		</g>
		<g id="kvg:05deb-g5">
			<path id="kvg:05deb-s5" d="M78.26,37.74c0.24,0.77,0.18,2.45-0.15,3.31c-3.17,8.39-8.15,19.31-17.89,27.32"/>
			<path id="kvg:05deb-s6" d="M75.39,52.36c5.65,2.51,12.86,9.17,15.61,15.48"/>
		</g>
	</g>
	<g id="kvg:05deb-g6">
		<path id="kvg:05deb-s7" d="M16,86.21c0.96,0.22,4.39,0.45,6.01,0.35c17.5-1.09,52.25-3.71,68.19-4.04c2.61-0.05,5.75,0.37,7.05,0.72"/>
	</g>
</g>
</g>
<g id="kvg:StrokeNumbers_05deb">
	<text transform="matrix(1 0 0 1 17.50 26.50)">1</text>
	<text transform="matrix(1 0 0 1 46.50 35.50)">2</text>
	<text transform="matrix(1 0 0 1 26.50 42.50)">3</text>
	<text transform="matrix(1 0 0 1 37.25 54.50)">4</text>
	<text transform="matrix(1 0 0 1 70.50 38.50)">5</text>
	<text transform="matrix(1 0 0 1 80.50 52.25)">6</text>
	<text transform="matrix(1 0 0 1 7.50 85.50)">7</text>
</g>
</svg>
