<svg width="109" height="109" viewBox="0 0 109 109">
<g id="kvg:StrokePaths_05de8">
<g id="kvg:05de8">
	<g id="kvg:05de8-g1">
		<path id="kvg:05de8-s1" d="M25.79,19.59c1.06,1.06,1.34,2.54,1.34,4.22c0,0.65,0.03,42.49,0.04,59.94c0,3.79,0,6.43,0,7.25"/>
	</g>
	<g id="kvg:05de8-g2">
		<path id="kvg:05de8-s2" d="M28.1,22.11c6.33-0.64,30.52-2.86,49.64-4.47c2.52-0.21,5.4-0.64,7.9-0.12"/>
	</g>
	<path id="kvg:05de8-s3" d="M28.5,44.79c16.11-1.68,35.82-3.92,47-5.07c4.53-0.47,4.99,1.53,4.16,5.13c-1.04,4.48-2.57,11.1-3.73,16.46"/>
	<path id="kvg:05de8-s4" d="M28.32,66.83c5.43-0.54,29.86-2.96,42.93-4.02c2.37-0.19,4.5-0.44,6.77-0.32"/>
	<g id="kvg:05de8-g3">
		<g id="kvg:05de8-g4">
			<path id="kvg:05de8-s5" d="M28.1,90.11c9.21-0.34,35.96-2.06,52.02-2.8c2.33-0.11,5.41-0.05,7.71,0.43"/>
		</g>
	</g>
</g>
</g>
<g id="kvg:StrokeNumbers_05de8">
	<text transform="matrix(1 0 0 1 20.50 28.50)">1</text>
	<text transform="matrix(1 0 0 1 30.75 18.50)">2</text>
	<text transform="matrix(1 0 0 1 33.74 40.55)">3</text>
	<text transform="matrix(1 0 0 1 33.57 62.50)">4</text>
	<text transform="matrix(1 0 0 1 33.75 86.50)">5</text>
</g>
</svg>
