<svg width="109" height="109" viewBox="0 0 109 109">
<g id="kvg:StrokePaths_05de6">
<g id="kvg:05de6">
	<g id="kvg:05de6-g1">
		<path id="kvg:05de6-s1" d="M20.75,40.17c2.95,0.49,5.68,0.29,8.64-0.05c14.5-1.68,29.75-4.47,47.22-5.96c2.83-0.24,5.87-0.58,8.64,0.26"/>
		<path id="kvg:05de6-s2" d="M55.48,12.5c0.27,1.57,0.21,4.18-0.29,5.93C46.59,48.64,32.07,74.14,11.25,91"/>
	</g>
	<g id="kvg:05de6-g2">
		<path id="kvg:05de6-s3" d="M43.25,64.59c1.25,0.29,2.38,0.29,3.86,0.17c4.86-0.37,17.91-2.17,26.92-3.77c1.88-0.33,3.97-0.5,5.97-0.11"/>
		<path id="kvg:05de6-s4" d="M58.54,66.75c1.04,1.04,1.91,2.62,1.91,4.03c0,6.84,0.04,13.22,0.04,18.72"/>
		<path id="kvg:05de6-s5" d="M28.5,92.25c2.76,0.84,5.92,0.51,8.75,0.34c14.54-0.9,32.08-2.65,48.13-3.26c3.25-0.12,6.38-0.17,9.49,0.93"/>
	</g>
</g>
</g>
<g id="kvg:StrokeNumbers_05de6">
	<text transform="matrix(1 0 0 1 10.50 40.50)">1</text>
	<text transform="matrix(1 0 0 1 44.50 13.50)">2</text>
	<text transform="matrix(1 0 0 1 45.50 61.50)">3</text>
	<text transform="matrix(1 0 0 1 51.50 74.50)">4</text>
	<text transform="matrix(1 0 0 1 28.50 89.13)">5</text>
</g>
</svg>
