<svg width="109" height="109" viewBox="0 0 109 109">
<g id="kvg:StrokePaths_05dfb">
<g id="kvg:05dfb">
	<g id="kvg:05dfb-g1">
		<path id="kvg:05dfb-s1" d="M30.02,16.83c3.37,2.1,8.2,8.12,9.04,11.38"/>
		<path id="kvg:05dfb-s2" d="M72.77,12.89c0.11,0.95,0.14,1.93-0.33,2.74c-2.19,3.74-5.95,9.16-11.88,15.58"/>
		<g id="kvg:05dfb-g2">
			<g id="kvg:05dfb-g3">
				<path id="kvg:05dfb-s3" d="M28,37.39c2.5,0.49,4.26,0.36,6.26,0.06c8.86-1.33,25.25-3.73,33.98-4.56c2.22-0.21,4.33-0.41,6.51,0.12"/>
			</g>
			<g id="kvg:05dfb-g4">
				<path id="kvg:05dfb-s4" d="M15.25,52.7c2.97,1.06,6.92,0.69,10.01,0.35c11.8-1.31,39.9-4.57,55.49-5.37c3.27-0.17,6.52-0.32,9.75,0.37"/>
			</g>
		</g>
		<g id="kvg:05dfb-g5">
			<g id="kvg:05dfb-g6">
				<path id="kvg:05dfb-s5" d="M52.5,10.5c0.37,1.25,0.62,2.38,0.29,3.97C50.02,27.7,41.5,63,14.75,76.5"/>
				<path id="kvg:05dfb-s6" d="M54.5,35.5c6.6,7.23,21.19,22.22,29.24,30.02c2.77,2.68,5.64,5.74,9.26,7.23"/>
			</g>
		</g>
	</g>
	<g id="kvg:05dfb-g7">
		<path id="kvg:05dfb-s7" d="M38.02,66.55c1.11,0.65,2.82,0.66,4.45,0.43c4.57-0.63,16.41-2.73,20.18-3.34c2.37-0.38,3.46,0.4,2.87,2.87c-0.33,1.39-1.06,5.21-1.82,9.08"/>
		<path id="kvg:05dfb-s8" d="M35.78,78.59c0.84,0.53,2.03,0.83,3.45,0.7c5.94-0.58,15.58-1.74,22.76-2.43c1.23-0.12,2.26-0.24,3.4-0.06"/>
		<path id="kvg:05dfb-s9" d="M37.12,79.53c0.74,0.74,1.06,1.82,1.05,2.93c-0.02,3.24,0.03,4.7,0.03,7.64c0,7.15,0.67,8.42,17.52,8.42c16.28,0,17.95-1.52,17.95-8.72"/>
	</g>
</g>
</g>
<g id="kvg:StrokeNumbers_05dfb">
	<text transform="matrix(1 0 0 1 23.25 15.13)">1</text>
	<text transform="matrix(1 0 0 1 63.50 11.50)">2</text>
	<text transform="matrix(1 0 0 1 20.25 37.63)">3</text>
	<text transform="matrix(1 0 0 1 6.75 54.05)">4</text>
	<text transform="matrix(1 0 0 1 42.50 9.50)">5</text>
	<text transform="matrix(1 0 0 1 66.75 43.63)">6</text>
	<text transform="matrix(1 0 0 1 41.25 63.05)">7</text>
	<text transform="matrix(1 0 0 1 41.25 76.48)">8</text>
	<text transform="matrix(1 0 0 1 29.25 86.90)">9</text>
</g>
</svg>
