<svg width="109" height="109" viewBox="0 0 109 109">
<g id="kvg:StrokePaths_05e47">
<g id="kvg:05e47">
	<g id="kvg:05e47-g1">
		<g id="kvg:05e47-g2">
			<g id="kvg:05e47-g3">
				<path id="kvg:05e47-s1" d="M18.44,20.18c0.63,0.23,1.77,0.25,2.41,0.23c11.03-0.36,17.58-2.02,25.7-2.22c1.04-0.03,1.67,0.11,2.19,0.23"/>
				<path id="kvg:05e47-s2" d="M33.01,10.69c0.09,0.17,1.28,0.9,1.28,1.99c0,7.05,0.1,6.72,0.1,16.04"/>
				<path id="kvg:05e47-s3" d="M14.31,30.08c1.08,0.53,3.08,0.65,4.16,0.53c7.7-0.83,20.77-2.36,29.77-3.5c1.79-0.23,2.89,0.25,3.8,0.52"/>
			</g>
			<g id="kvg:05e47-g4">
				<path id="kvg:05e47-s4" d="M18.42,43.52c0.51,0.27,1.45,0.31,1.97,0.27c7.04-0.61,19.56-2.22,26.22-3.05c0.85-0.11,1.37,0.13,1.8,0.26"/>
				<path id="kvg:05e47-s5" d="M33.57,34.61c0.07,0.17,1,0.89,1,1.99c0,7.04,0.08,7.62,0.08,16.92"/>
				<path id="kvg:05e47-s6" d="M16.52,57.35c1.38,0.58,2.61,0.65,3.45,0.43c11.57-3.11,17.06-4.67,27.97-7.54"/>
			</g>
		</g>
		<g id="kvg:05e47-g5">
			<path id="kvg:05e47-s7" d="M56.84,25.04c1.81,0.17,3.07,0.13,3.82,0.04c8.22-1.03,23.21-2.44,32.26-3.01c1.23-0.08,2.95,0.18,3.57,0.36"/>
			<path id="kvg:05e47-s8" d="M82.36,11.08c0.09,0.3,1.38,1.55,1.38,3.44c0,12.72-0.28,33.19-0.28,36.28c0,7.5-4.95,1.69-7.14-0.35"/>
			<path id="kvg:05e47-s9" d="M64.25,32.7c2.13,1.53,5.51,6.29,6.05,8.66"/>
		</g>
	</g>
	<g id="kvg:05e47-g6">
		<path id="kvg:05e47-s10" d="M26.46,69.06c0.65,0.38,2.01,2.86,2.14,3.62c0.13,0.76,1.15,15.32,1.79,21.73"/>
		<path id="kvg:05e47-s11" d="M28.18,70.54c4.05-0.27,49.22-5.36,52.24-5.6c2.33-0.19,3.32,1.36,3.19,3.1c-0.64,8.76-1.11,10.98-3.19,19.57c-1.49,6.18-4.33,1.85-6.03-0.28"/>
		<path id="kvg:05e47-s12" d="M52.32,55.38c0.65,0.38,2.14,2.12,2.14,3.62c0,0.77-0.08,36.61-0.21,41.38"/>
	</g>
</g>
</g>
<g id="kvg:StrokeNumbers_05e47">
	<text transform="matrix(1 0 0 1 12.50 19.50)">1</text>
	<text transform="matrix(1 0 0 1 24.50 10.50)">2</text>
	<text transform="matrix(1 0 0 1 7.50 30.50)">3</text>
	<text transform="matrix(1 0 0 1 10.50 43.50)">4</text>
	<text transform="matrix(1 0 0 1 24.50 38.83)">5</text>
	<text transform="matrix(1 0 0 1 8.50 58.50)">6</text>
	<text transform="matrix(1 0 0 1 54.50 21.50)">7</text>
	<text transform="matrix(1 0 0 1 72.25 11.50)">8</text>
	<text transform="matrix(1 0 0 1 59.25 39.53)">9</text>
	<text transform="matrix(1 0 0 1 17.50 76.50)">10</text>
	<text transform="matrix(1 0 0 1 29.50 66.50)">11</text>
	<text transform="matrix(1 0 0 1 41.50 60.50)">12</text>
</g>
</svg>
