<svg width="109" height="109" viewBox="0 0 109 109">
<g id="kvg:StrokePaths_05e64">
<g id="kvg:05e64">
	<g id="kvg:05e64-g1">
		<g id="kvg:05e64-g2">
			<g id="kvg:05e64-g3">
				<path id="kvg:05e64-s1" d="M33.25,9.87c0.11,0.22,2.1,1.13,2.1,2.52c0,6.28-0.1,12.52-0.1,14.78"/>
				<path id="kvg:05e64-s2" d="M25.98,15.07c0.03,0.32,0.07,0.84-0.07,1.3c-0.79,2.75-5.32,8.77-11.51,12.46"/>
				<path id="kvg:05e64-s3" d="M44.2,15.22c3.15,1.2,8.14,4.93,8.93,6.8"/>
			</g>
			<g id="kvg:05e64-g4">
				<g id="kvg:05e64-g5">
					<path id="kvg:05e64-s4" d="M19.59,27.52c0.53,0.42,0.94,1.41,0.98,2.2c0.19,3.43-0.34,19.61-0.24,24.67"/>
					<path id="kvg:05e64-s5" d="M20.76,28.62c9.24-0.81,18.58-2.19,25.61-2.82c1.51-0.14,2.65,0.95,2.62,2.21c-0.11,4.5-0.09,13.11-0.09,20.57c0,5.67-3.4,3.24-5.09,0.7"/>
				</g>
				<g id="kvg:05e64-g6">
					<path id="kvg:05e64-s6" d="M27.14,34.91c0.13,0.12,0.28,0.22,0.32,0.37c0.37,1.38,1.98,9.84,2.35,11.87"/>
					<path id="kvg:05e64-s7" d="M27.96,35.72c2.41-0.29,10.08-1.52,12.31-1.66c0.97-0.06,2.15,0.67,1.82,1.49c-0.63,1.55-1.56,3.14-2.45,8.24"/>
					<path id="kvg:05e64-s8" d="M30.09,45.21c3.11-0.4,8.61-1.26,11.08-1.54"/>
				</g>
			</g>
		</g>
		<g id="kvg:05e64-g7">
			<g id="kvg:05e64-g8">
				<path id="kvg:05e64-s9" d="M67.25,12.52c0.03,0.46,0.19,1.21-0.06,1.84c-1.62,4.03-6.02,13.18-11.63,18.76"/>
				<path id="kvg:05e64-s10" d="M64.94,23.33c0.04-0.14,1.78,0.41,2.42,0.37c6.55-0.42,12.55-2.73,22.55-3.41c1.13-0.08,1.81-0.02,2.11,0.07"/>
			</g>
			<g id="kvg:05e64-g9">
				<g id="kvg:05e64-g10">
					<path id="kvg:05e64-s11" d="M81.66,24.31c0.32,0.68,0.73,2.25,0.16,3.41C77,37.5,70.25,47,61.65,52"/>
				</g>
				<path id="kvg:05e64-s12" d="M60.43,30.03c2.71,0,19.39,17,27.66,21.09c1.59,0.79,2.61,0.92,3.91,1"/>
			</g>
		</g>
	</g>
	<g id="kvg:05e64-g11">
		<path id="kvg:05e64-s13" d="M27.25,62.66c0.6,0.24,1.88,2.33,2,2.82c0.12,0.49,1.92,21.67,1.8,24.73"/>
		<path id="kvg:05e64-s14" d="M29.29,65.02c4.41-0.18,47.67-4.29,50.96-4.4c3.87-0.13,4.71,2.24,4.57,3.4c-0.7,5.84-1.95,15.11-3.61,21.04c-1.95,6.95-4.45,2.2-6.67-0.35"/>
		<path id="kvg:05e64-s15" d="M53.02,52.38c0.6,0.24,1.5,2.31,1.5,2.82c0,5.8-0.08,42.63-0.2,45.68"/>
	</g>
</g>
</g>
<g id="kvg:StrokeNumbers_05e64">
	<text transform="matrix(1 0 0 1 28.50 7.50)">1</text>
	<text transform="matrix(1 0 0 1 18.50 14.50)">2</text>
	<text transform="matrix(1 0 0 1 41.50 12.50)">3</text>
	<text transform="matrix(1 0 0 1 12.25 36.40)">4</text>
	<text transform="matrix(1 0 0 1 25.25 26.33)">5</text>
	<text transform="matrix(1 0 0 1 22.50 41.50)">6</text>
	<text transform="matrix(1 0 0 1 30.50 34.50)">7</text>
	<text transform="matrix(1 0 0 1 31.50 42.50)">8</text>
	<text transform="matrix(1 0 0 1 59.25 13.50)">9</text>
	<text transform="matrix(1 0 0 1 70.50 19.50)">10</text>
	<text transform="matrix(1 0 0 1 71.50 30.50)">11</text>
	<text transform="matrix(1 0 0 1 57.50 39.50)">12</text>
	<text transform="matrix(1 0 0 1 17.50 70.73)">13</text>
	<text transform="matrix(1 0 0 1 31.25 61.50)">14</text>
	<text transform="matrix(1 0 0 1 44.50 60.50)">15</text>
</g>
</svg>
