<svg width="109" height="109" viewBox="0 0 109 109">
<g id="kvg:StrokePaths_05e72">
<g id="kvg:05e72">
	<path id="kvg:05e72-s1" d="M28.63,21.62c2.62,0.63,5.47,0.36,7.75,0.15c9.37-0.89,26.14-2.9,36.63-3.81c2.7-0.23,5.47-0.34,8.12,0.38"/>
	<g id="kvg:05e72-g1">
		<path id="kvg:05e72-s2" d="M16.88,49.03c3.37,0.72,7.13,0.53,10.62,0.11c15.17-1.86,39.74-4.77,56.13-5.91c3.1-0.22,6.18-0.26,9.25,0.3"/>
		<path id="kvg:05e72-s3" d="M52.81,21.63c1.22,1.22,1.79,2.99,1.79,4.83c0,0.85-0.02,43.7-0.12,61.54c-0.02,3.65-0.04,6.3-0.06,7.38"/>
	</g>
</g>
</g>
<g id="kvg:StrokeNumbers_05e72">
	<text transform="matrix(1 0 0 1 21.75 23.50)">1</text>
	<text transform="matrix(1 0 0 1 9.50 51.13)">2</text>
	<text transform="matrix(1 0 0 1 46.50 31.63)">3</text>
</g>
</svg>
