<svg width="109" height="109" viewBox="0 0 109 109">
<g id="kvg:StrokePaths_05e7f">
<g id="kvg:05e7f">
	<path id="kvg:05e7f-s1" d="M52.31,11.63c0.76,0.38,2.36,2.88,2.51,3.65c0.15,0.77,0.08,4.65-0.07,9.46"/>
	<g id="kvg:05e7f-g1">
		<path id="kvg:05e7f-s2" d="M21.63,27.23c1.52,0.54,4.3,0.63,5.82,0.54c15.8-0.91,38.3-4.02,58.11-4.23c2.53-0.03,4.05,0.26,5.31,0.53"/>
		<path id="kvg:05e7f-s3" d="M26.49,30c0.04,1.59,0.09,4.1-0.09,6.38c-1.08,13.46-3.5,46.09-15.1,60.59"/>
	</g>
</g>
</g>
<g id="kvg:StrokeNumbers_05e7f">
	<text transform="matrix(1 0 0 1 44.50 11.38)">1</text>
	<text transform="matrix(1 0 0 1 24.00 24.80)">2</text>
	<text transform="matrix(1 0 0 1 18.25 37.23)">3</text>
</g>
</svg>
