<svg width="109" height="109" viewBox="0 0 109 109">
<g id="kvg:StrokePaths_05e84">
<g id="kvg:05e84">
	<g id="kvg:05e84-g1">
		<path id="kvg:05e84-s1" d="M58.81,13.38c1.09,1.09,1.26,2.37,1.26,3.9c0,0.79-0.07,5.46-0.07,10.21"/>
		<g id="kvg:05e84-g2">
			<path id="kvg:05e84-s2" d="M28.63,30.48c2.92,1.15,6.59,0.47,9.62,0.23c12.9-1.03,29.32-3.1,44.63-3.59c2.86-0.09,5.7-0.21,8.5,0.45"/>
			<path id="kvg:05e84-s3" d="M30.48,32c0.95,0.95,0.73,2.49,0.63,4.45c-0.74,14.17-3.24,37.05-20.06,53.52"/>
		</g>
	</g>
	<g id="kvg:05e84-g3">
		<path id="kvg:05e84-s4" d="M41.71,62.81c1.98,0.77,5.02,0.68,7.04,0.51c9.7-0.82,22.04-2.14,31.24-2.56c1.78-0.08,3.86,0.07,5.58,0.47"/>
		<path id="kvg:05e84-s5" d="M60.67,38.37c1.11,1.1,1.27,2.27,1.27,4.14c0,12-0.07,29.63-0.07,45.5"/>
		<path id="kvg:05e84-s6" d="M30.15,90.06c2.96,1.05,6.52,0.83,9.6,0.59c13.74-1.05,31.97-2.2,44.88-2.84c3.38-0.17,6.68,0,9.98,0.71"/>
	</g>
</g>
</g>
<g id="kvg:StrokeNumbers_05e84">
	<text transform="matrix(1 0 0 1 49.25 14.25)">1</text>
	<text transform="matrix(1 0 0 1 30.75 27.30)">2</text>
	<text transform="matrix(1 0 0 1 23.25 39.73)">3</text>
	<text transform="matrix(1 0 0 1 37.75 59.40)">4</text>
	<text transform="matrix(1 0 0 1 50.25 40.08)">5</text>
	<text transform="matrix(1 0 0 1 29.25 87.25)">6</text>
</g>
</svg>
