<svg width="109" height="109" viewBox="0 0 109 109">
<g id="kvg:StrokePaths_05e9a">
<g id="kvg:05e9a">
	<g id="kvg:05e9a-g1">
		<path id="kvg:05e9a-s1" d="M53.81,12.38c0.84,0.84,1.26,2.37,1.26,3.9C55.07,17.07,55,21,55,24"/>
		<g id="kvg:05e9a-g2">
			<path id="kvg:05e9a-s2" d="M24.13,26.73c2.75,0.77,6.22,1.17,9.39,0.82c15.86-1.79,30.87-3.38,44.48-4.25c3.39-0.16,6.77,0.01,10.13,0.53"/>
			<path id="kvg:05e9a-s3" d="M26.49,28c0.94,0.94,0.98,2.5,0.9,4.21c-0.76,15.91-4.76,41.79-16.83,59"/>
		</g>
	</g>
	<g id="kvg:05e9a-g3">
		<path id="kvg:05e9a-s4" d="M38.67,42.75c2.87,0.64,5.74,0.67,8.61,0.09c9.46-1.09,19.96-3.01,27.6-3.3c4.14-0.16,6.28,1.08,5.51,5.46c-0.96,5.54-1.89,11-3.34,19.25"/>
		<path id="kvg:05e9a-s5" d="M31.25,54.5c3.34,0.68,6.62,0.32,10.01-0.05c13.73-1.49,29.99-2.95,42.38-3.42c3.28-0.13,6.44-0.36,9.62,0.48"/>
		<path id="kvg:05e9a-s6" d="M36.84,67.69c3.04,0.69,6.05,0.41,9.16,0.13c9.44-0.85,18.07-1.84,26.75-2.39c2.33-0.23,4.66-0.22,7,0.02"/>
	</g>
	<g id="kvg:05e9a-g4">
		<path id="kvg:05e9a-s7" d="M57.51,30.25c0.93,0.93,1.2,2.38,1.3,4.22c2.44,43.41-5.31,50.41-35.31,62.78"/>
		<path id="kvg:05e9a-s8" d="M58.75,69.12c3.26,3.74,12.82,12.45,20.31,19.07C83.38,92,86.38,94,91,95.5"/>
	</g>
</g>
</g>
<g id="kvg:StrokeNumbers_05e9a">
	<text transform="matrix(1 0 0 1 45.50 12.50)">1</text>
	<text transform="matrix(1 0 0 1 24.50 23.85)">2</text>
	<text transform="matrix(1 0 0 1 19.71 35.50)">3</text>
	<text transform="matrix(1 0 0 1 32.50 41.50)">4</text>
	<text transform="matrix(1 0 0 1 30.25 51.50)">5</text>
	<text transform="matrix(1 0 0 1 29.50 68.50)">6</text>
	<text transform="matrix(1 0 0 1 48.50 34.18)">7</text>
	<text transform="matrix(1 0 0 1 68.50 75.10)">8</text>
</g>
</svg>
