<svg width="109" height="109" viewBox="0 0 109 109">
<g id="kvg:StrokePaths_05e9c">
<g id="kvg:05e9c">
	<g id="kvg:05e9c-g1">
		<path id="kvg:05e9c-s1" d="M52.31,11.38c1.03,1.03,1.51,2.62,1.51,3.4c0,1.84-0.07,4.59-0.07,8.96"/>
		<g id="kvg:05e9c-g2">
			<path id="kvg:05e9c-s2" d="M20.63,26.98c1.98,0.54,5.62,0.71,7.59,0.54C45.8,26,63.05,23.12,83.95,22.54c3.3-0.09,5.28,0.26,6.93,0.53"/>
			<path id="kvg:05e9c-s3" d="M24.24,28.25c1,1,1.29,2.26,1.15,4.23c-0.89,12.9-3.14,37.15-15.34,53.99"/>
		</g>
	</g>
	<g id="kvg:05e9c-g3">
		<g id="kvg:05e9c-g4">
			<path id="kvg:05e9c-s4" d="M45.19,33.63c0.19,1.47-0.05,2.92-0.67,4.17c-3.92,8.01-9.28,18.09-18.27,27.84"/>
			<path id="kvg:05e9c-s5" d="M37.35,55.28c0.94,0.94,1.5,2.65,1.5,3.94c0,5.21,0,20.51-0.01,30.9c0,2.37,0,4.48,0,6.16"/>
		</g>
		<g id="kvg:05e9c-g5">
			<path id="kvg:05e9c-s6" d="M48.08,53.06c2.05,0.44,4.61,0.45,6.25,0.23c13.55-1.79,26.18-3.54,36.1-4.18c2.7-0.17,4.34,0.05,5.7,0.36"/>
			<path id="kvg:05e9c-s7" d="M76.73,31.08c0.84,0.84,1.36,2.29,1.36,3.8c0,17.87,0.02,51.23,0.02,55.09c0,11.28-5.99,2.4-8.21-0.06"/>
			<path id="kvg:05e9c-s8" d="M56.61,67.15c2.32,1.55,6.01,6.38,6.59,8.8"/>
		</g>
	</g>
</g>
</g>
<g id="kvg:StrokeNumbers_05e9c">
	<text transform="matrix(1 0 0 1 44.50 12.50)">1</text>
	<text transform="matrix(1 0 0 1 24.75 24.13)">2</text>
	<text transform="matrix(1 0 0 1 16.50 36.50)">3</text>
	<text transform="matrix(1 0 0 1 36.50 36.50)">4</text>
	<text transform="matrix(1 0 0 1 30.49 70.33)">5</text>
	<text transform="matrix(1 0 0 1 48.50 50.50)">6</text>
	<text transform="matrix(1 0 0 1 67.50 34.50)">7</text>
	<text transform="matrix(1 0 0 1 47.50 66.13)">8</text>
</g>
</svg>
