<svg width="109" height="109" viewBox="0 0 109 109">
<g id="kvg:StrokePaths_05eff">
<g id="kvg:05eff">
	<g id="kvg:05eff-g1">
		<g id="kvg:05eff-g2">
			<path id="kvg:05eff-s1" d="M12.75,51.2c1.52,0.54,4.3,0.64,5.82,0.54c7.93-0.49,56.93-5.49,73.61-5.73c2.53-0.04,4.05,0.26,5.31,0.53"/>
			<path id="kvg:05eff-s2" d="M38.75,24.25c1.25,0.5,2,2.25,2.25,3.25s0,58.25-0.25,64.5"/>
		</g>
		<path id="kvg:05eff-s3" d="M70.25,19.75c1.25,0.5,2,2.25,2.25,3.25s-2,54.75-2.75,64"/>
	</g>
	<path id="kvg:05eff-s4" d="M40.75,90.25c4.75,0,29.98-2.53,34.25-2.75"/>
</g>
</g>
<g id="kvg:StrokeNumbers_05eff">
	<text transform="matrix(1 0 0 1 5.50 52.50)">1</text>
	<text transform="matrix(1 0 0 1 30.50 25.50)">2</text>
	<text transform="matrix(1 0 0 1 62.50 20.50)">3</text>
	<text transform="matrix(1 0 0 1 45.50 86.50)">4</text>
</g>
</svg>
