<svg width="109" height="109" viewBox="0 0 109 109">
<g id="kvg:StrokePaths_05efe">
<g id="kvg:05efe">
	<g id="kvg:05efe-g1">
		<path id="kvg:05efe-s1" d="M14.88,50.98c1.52,0.54,4.3,0.63,5.82,0.54c15.8-0.91,50.05-5.77,70.11-6.23c2.53-0.06,4.05,0.26,5.31,0.53"/>
	</g>
	<g id="kvg:05efe-g2">
		<path id="kvg:05efe-s2" d="M40.06,14.5c0.69,1.75,1.33,3.58,1.39,6.14C42,44,39.25,77.25,21,90"/>
	</g>
	<g id="kvg:05efe-g3">
		<path id="kvg:05efe-s3" d="M67.87,11.25c1.45,1.45,1.96,1.25,1.96,3.25c0,6.75,0,76.75-0.22,83"/>
	</g>
</g>
</g>
<g id="kvg:StrokeNumbers_05efe">
	<text transform="matrix(1 0 0 1 6.75 49.63)">1</text>
	<text transform="matrix(1 0 0 1 29.25 15.13)">2</text>
	<text transform="matrix(1 0 0 1 57.75 9.13)">3</text>
</g>
</svg>
