<svg width="109" height="109" viewBox="0 0 109 109">
<g id="kvg:StrokePaths_05ef8">
<g id="kvg:05ef8">
	<g id="kvg:05ef8-g1">
		<g id="kvg:05ef8-g2">
			<path id="kvg:05ef8-s1" d="M48.73,33.24c0.35,1.1,0.62,2.24,0.7,3.19c0.67,7.89,1.95,24.9,2.35,39.42"/>
			<path id="kvg:05ef8-s2" d="M50.08,35.58c12.4-1.94,28.75-3.3,36.59-4.06c2.88-0.28,3.96,1.96,3.8,4.04c-0.58,7.61-1.31,25.07-3.12,37.59"/>
		</g>
		<g id="kvg:05ef8-g3">
			<path id="kvg:05ef8-s3" d="M66,14c1.07,1,1.7,2.46,1.71,3.78c0.04,13.06,0.2,50.77,0.2,54.18"/>
		</g>
		<g id="kvg:05ef8-g4">
			<path id="kvg:05ef8-s4" d="M50.94,52.89c3.42-0.38,35.35-2.98,38.17-2.98"/>
			<path id="kvg:05ef8-s5" d="M54.31,72.91c8.66-0.55,20.69-2.12,31.13-2.33"/>
		</g>
	</g>
	<g id="kvg:05ef8-g5">
		<path id="kvg:05ef8-s6" d="M12.11,27.86c1.33,0.65,3.45,1.08,5.31,0.65c1.86-0.43,12.78-2.21,16.44-3.3c2.38-0.71,2.52,1.15,1.19,2.22s-9.31,14.82-12.83,21.25"/>
		<path id="kvg:05ef8-s7" d="M22.96,49.75c6.04-2.25,8.37-3.42,11.1-3.94c2.94-0.56,3.94,0.44,3.19,3.44C33.34,64.89,27.5,83.75,12,93.1"/>
		<path id="kvg:05ef8-s8" d="M13.27,63.44c6.01-0.21,35.48,23.81,65.85,30.63c3.24,0.73,7.11,1.32,10.13,1.68"/>
	</g>
</g>
</g>
<g id="kvg:StrokeNumbers_05ef8">
	<text transform="matrix(1 0 0 1 43.25 40.63)">1</text>
	<text transform="matrix(1 0 0 1 52.50 31.50)">2</text>
	<text transform="matrix(1 0 0 1 56.50 14.50)">3</text>
	<text transform="matrix(1 0 0 1 55.50 49.50)">4</text>
	<text transform="matrix(1 0 0 1 56.25 69.50)">5</text>
	<text transform="matrix(1 0 0 1 4.50 28.50)">6</text>
	<text transform="matrix(1 0 0 1 15.50 50.50)">7</text>
	<text transform="matrix(1 0 0 1 6.50 64.50)">8</text>
</g>
</svg>
