<svg width="109" height="109" viewBox="0 0 109 109">
<g id="kvg:StrokePaths_05ef4">
<g id="kvg:05ef4">
	<path id="kvg:05ef4-s1" d="M17.75,18.25C19,19,21,19.5,22.75,19s11.5-2.25,15-3.25s4.25,0.75,3,2s-13.75,21-17.25,27"/>
	<path id="kvg:05ef4-s2" d="M22.75,45.75c4.75-1,15-5.25,18.25-5.5s6.13-0.17,5.25,4.25C42.75,62,32.75,84.5,12,94"/>
	<path id="kvg:05ef4-s3" d="M20.25,55.5c5.75-0.25,45,29,63,36.64c3.01,1.28,5.36,2.17,8.25,2.61"/>
</g>
</g>
<g id="kvg:StrokeNumbers_05ef4">
	<text transform="matrix(1 0 0 1 10.50 18.50)">1</text>
	<text transform="matrix(1 0 0 1 35.50 38.50)">2</text>
	<text transform="matrix(1 0 0 1 13.50 56.48)">3</text>
</g>
</svg>
