<svg width="109" height="109" viewBox="0 0 109 109">
<g id="kvg:StrokePaths_05f0c">
<g id="kvg:05f0c">
	<g id="kvg:05f0c-g1">
		<path id="kvg:05f0c-s1" d="M14.75,37.7c1.52,0.54,4.31,0.74,5.82,0.54C30.25,37,68,32,84.19,31.51c2.53-0.08,4.05,0.26,5.31,0.53"/>
	</g>
	<g id="kvg:05f0c-g2">
		<path id="kvg:05f0c-s2" d="M15.75,67.89c0.94,0.38,2.66,0.39,3.6,0.38c5.9-0.02,26.33-3.81,32.61-4.38c1.56-0.14,2.5,0.18,3.29,0.37"/>
	</g>
	<g id="kvg:05f0c-g3">
		<path id="kvg:05f0c-s3" d="M57.25,10.5c1.64,1.84,2.32,2.35,2.67,6.31C62.25,43.75,70.5,81.5,89.65,95.66c6.13,4.53,5.54,0.79,4.72-7.36"/>
		<g id="kvg:05f0c-g4">
			<path id="kvg:05f0c-s4" d="M70.25,12.25c3.51,2,9.11,6.57,10.75,10"/>
		</g>
	</g>
</g>
</g>
<g id="kvg:StrokeNumbers_05f0c">
	<text transform="matrix(1 0 0 1 7.50 37.50)">1</text>
	<text transform="matrix(1 0 0 1 8.50 68.50)">2</text>
	<text transform="matrix(1 0 0 1 47.25 10.50)">3</text>
	<text transform="matrix(1 0 0 1 66.50 8.50)">4</text>
</g>
</svg>
