<svg width="109" height="109" viewBox="0 0 109 109">
<g id="kvg:StrokePaths_05f03">
<g id="kvg:05f03">
	<g id="kvg:05f03-g1">
		<path id="kvg:05f03-s1" d="M50.42,10.01c1.02,0.55,2.71,2.69,2.71,3.79c0,4.05-0.32,6.03-0.14,9.45"/>
		<path id="kvg:05f03-s2" d="M17.14,26.92c1.82,0.36,3.42,0.75,5.51,0.5c12.45-1.5,47.9-4.46,62.4-5.18c2.13-0.11,3.22,0.04,4.81,0.64"/>
	</g>
	<g id="kvg:05f03-g2">
		<g id="kvg:05f03-g3">
			<path id="kvg:05f03-s3" d="M47.05,29.25c0.59,0.53,0.37,1.87-0.02,2.53C43.25,38.25,39.5,43,31.7,50.23c-2.34,2.17-2.48,3.77,1.18,2.9C43,50.75,63,46,75.69,44.19"/>
			<path id="kvg:05f03-s4" d="M64.21,34.47C70,37.55,79.18,47.13,80.62,51.91"/>
		</g>
		<g id="kvg:05f03-g4">
			<g id="kvg:05f03-g5">
				<path id="kvg:05f03-s5" d="M14.88,71.47c1.52,0.46,4.3,0.53,5.82,0.46c15.8-0.76,48.55-4.36,68.61-4.75c2.53-0.05,4.05,0.22,5.31,0.45"/>
			</g>
			<g id="kvg:05f03-g6">
				<path id="kvg:05f03-s6" d="M42.18,59.47c1.09,1.25,1.72,1.82,1.77,3.12c0.52,11.85-2.7,26.91-18.95,35.2"/>
			</g>
			<g id="kvg:05f03-g7">
				<path id="kvg:05f03-s7" d="M68.87,55.23c1.09,0.42,1.74,1.9,1.96,2.74c0.22,0.84,0,35.76-0.22,41.03"/>
			</g>
		</g>
	</g>
</g>
</g>
<g id="kvg:StrokeNumbers_05f03">
	<text transform="matrix(1 0 0 1 43.50 10.50)">1</text>
	<text transform="matrix(1 0 0 1 9.50 26.50)">2</text>
	<text transform="matrix(1 0 0 1 37.50 34.50)">3</text>
	<text transform="matrix(1 0 0 1 66.50 33.50)">4</text>
	<text transform="matrix(1 0 0 1 7.50 71.50)">5</text>
	<text transform="matrix(1 0 0 1 34.50 62.50)">6</text>
	<text transform="matrix(1 0 0 1 60.25 57.50)">7</text>
</g>
</svg>
