<svg width="109" height="109" viewBox="0 0 109 109">
<g id="kvg:StrokePaths_05f57">
<g id="kvg:05f57">
	<g id="kvg:05f57-g1">
		<g id="kvg:05f57-g2">
			<g id="kvg:05f57-g3">
				<g id="kvg:05f57-g4">
					<path id="kvg:05f57-s1" d="M15.97,24.3c1.7,0.62,3.75,0.63,5.53,0.47c6.25-0.56,17.65-1.81,23.63-2.14c1.48-0.08,3.01-0.19,4.47,0.13"/>
				</g>
				<g id="kvg:05f57-g5">
					<g id="kvg:05f57-g6">
						<path id="kvg:05f57-s2" d="M17.57,36.99c1.05,0.63,3.52,0.79,4.69,0.63c6.61-0.86,15.61-2.75,22.49-3.69c1.08-0.15,2.37-0.31,4.03-0.2"/>
					</g>
					<g id="kvg:05f57-g7">
						<path id="kvg:05f57-s3" d="M14.63,51.72c0.99,1.03,2.13,1.45,3.55,1.01c9.32-2.86,20.19-5.98,31.64-9.61"/>
					</g>
				</g>
			</g>
			<g id="kvg:05f57-g8">
				<path id="kvg:05f57-s4" d="M30.62,12.75c1.13,0.75,1.87,2.23,1.96,3.25c0.55,6.25,3.55,34.88,4.42,44.25"/>
			</g>
		</g>
		<g id="kvg:05f57-g9">
			<g id="kvg:05f57-g10">
				<g id="kvg:05f57-g11">
					<path id="kvg:05f57-s5" d="M56.22,21.37c1.18,0.43,3.26,0.47,4.53,0.41c6.73-0.29,19.69-1.54,26.13-1.78c1.33-0.05,2.67-0.1,3.97,0.19"/>
				</g>
				<g id="kvg:05f57-g12">
					<g id="kvg:05f57-g13">
						<path id="kvg:05f57-s6" d="M56.82,34.02c1.31,0.53,4.32,0.59,5.69,0.49c7.02-0.56,16.29-1.74,22.49-2.25c1.54-0.13,3.02-0.31,4.54,0.06"/>
					</g>
					<g id="kvg:05f57-g14">
						<path id="kvg:05f57-s7" d="M52.88,47.75c2.49,0.84,5.18,0.65,7.75,0.5c8.76-0.52,17.38-1.29,28.12-2.03c1.97-0.14,3.91-0.39,5.87,0.01"/>
					</g>
				</g>
			</g>
			<g id="kvg:05f57-g15">
				<path id="kvg:05f57-s8" d="M72.62,11.5c1.19,1.19,1.57,2.24,1.46,3.75c-0.7,9.5-1.58,27.38-2.58,43"/>
			</g>
		</g>
	</g>
	<g id="kvg:05f57-g16">
		<path id="kvg:05f57-s9" d="M30.25,66.5c2.75,0.62,5.22,0.56,8.01,0.35c13.06-0.95,23.58-1.91,35.24-3.1c3.23-0.33,5.42,1.24,5,3.75c-1.38,8.25-2.5,14.75-4.25,24.75"/>
		<path id="kvg:05f57-s10" d="M17,81c4.38,1,8.63,0.46,13.13,0.06c16-1.43,36.63-2.35,51.37-3.06c3.87-0.19,7.71,0,11.5,0.76"/>
		<path id="kvg:05f57-s11" d="M29.75,95.68c2.75,0.82,5.38,0.58,8.12,0.32c9.12-0.88,20.97-1.63,31.5-2.05c2.68-0.1,5.13-0.21,7.88,0.55"/>
	</g>
</g>
</g>
<g id="kvg:StrokeNumbers_05f57">
	<text transform="matrix(1 0 0 1 9.25 25.25)">1</text>
	<text transform="matrix(1 0 0 1 10.25 38.25)">2</text>
	<text transform="matrix(1 0 0 1 6.25 54.25)">3</text>
	<text transform="matrix(1 0 0 1 22.00 12.25)">4</text>
	<text transform="matrix(1 0 0 1 55.25 19.25)">5</text>
	<text transform="matrix(1 0 0 1 55.25 31.25)">6</text>
	<text transform="matrix(1 0 0 1 55.25 45.93)">7</text>
	<text transform="matrix(1 0 0 1 67.25 8.25)">8</text>
	<text transform="matrix(1 0 0 1 23.25 66.25)">9</text>
	<text transform="matrix(1 0 0 1 6.00 82.70)">10</text>
	<text transform="matrix(1 0 0 1 20.00 97.25)">11</text>
</g>
</svg>
