<svg width="109" height="109" viewBox="0 0 109 109">
<g id="kvg:StrokePaths_05f51">
<g id="kvg:05f51">
	<path id="kvg:05f51-s1" d="M47.5,13.75c1,1.5,1.02,4.39,0.5,6.75c-2.5,11.25-10.25,33-13.38,41.6c-0.87,2.4-1.12,4.65,2.13,4.4c9.64-0.74,16.66-1.33,31.75-2.25"/>
	<path id="kvg:05f51-s2" d="M43.5,36.5c4.29-0.28,25.05-3.66,28.96-4c3.25-0.28,4.58,1.63,4.04,3.68c-2,7.57-8,30.07-13.75,53.57"/>
	<path id="kvg:05f51-s3" d="M15.25,92.21c1.49,0.53,4.22,0.58,5.71,0.53c15.79-0.49,52.18-3.38,67.82-2.63c2.48,0.12,3.97,0.25,5.22,0.52"/>
</g>
</g>
<g id="kvg:StrokeNumbers_05f51">
	<text transform="matrix(1 0 0 1 39.00 14.13)">1</text>
	<text transform="matrix(1 0 0 1 51.50 32.50)">2</text>
	<text transform="matrix(1 0 0 1 12.50 87.73)">3</text>
</g>
</svg>
