<svg width="109" height="109" viewBox="0 0 109 109">
<g id="kvg:StrokePaths_05f61">
<g id="kvg:05f61">
	<g id="kvg:05f61-g1">
		<path id="kvg:05f61-s1" d="M66.25,14.5c0.1,0.67,0.37,1.83-0.21,2.71C62.25,23,51,35.25,30.72,42.16"/>
	</g>
	<g id="kvg:05f61-g2">
		<path id="kvg:05f61-s2" d="M74.96,36.36c0.12,0.71,0.42,1.95-0.23,2.87c-4.47,6.27-18.47,20.52-41.03,27.44"/>
	</g>
	<g id="kvg:05f61-g3">
		<path id="kvg:05f61-s3" d="M81.75,59c0.15,0.91,0.31,2.33-0.29,3.63C77.93,70.25,57.62,87,29.82,97.25"/>
	</g>
</g>
</g>
<g id="kvg:StrokeNumbers_05f61">
	<text transform="matrix(1 0 0 1 59.25 12.13)">1</text>
	<text transform="matrix(1 0 0 1 66.75 36.13)">2</text>
	<text transform="matrix(1 0 0 1 72.75 60.13)">3</text>
</g>
</svg>
