<svg width="109" height="109" viewBox="0 0 109 109">
<g id="kvg:StrokePaths_05f8c">
<g id="kvg:05f8c">
	<g id="kvg:05f8c-g1">
		<path id="kvg:05f8c-s1" d="M34.25,18.38c0,1.3-0.24,2.26-0.93,3.05c-3.57,4.07-8.94,8.7-15.91,13.39"/>
		<g id="kvg:05f8c-g2">
			<path id="kvg:05f8c-s2" d="M38.75,36.62c0.14,1.32-0.42,2.67-1.13,3.79c-3.45,5.4-11.43,14.17-22.37,22.71"/>
			<path id="kvg:05f8c-s3" d="M28.4,54.36c0.81,0.81,1.38,2.02,1.38,3.28c0,0.68,0.03,25.57-0.07,35.86c-0.02,1.74-0.04,3.05-0.05,3.75"/>
		</g>
	</g>
	<g id="kvg:05f8c-g3">
		<g id="kvg:05f8c-g4">
			<path id="kvg:05f8c-s4" d="M61.16,12.62c0.29,1.07,0.21,2.43-0.39,3.54c-2.52,4.6-6.1,9.01-9.88,12.93c-1.01,1.05-1.26,2.17,0,2.68c2.96,1.19,6.3,3.11,8.88,5.07"/>
			<path id="kvg:05f8c-s5" d="M76.35,20.12c0.27,1.25-0.3,2.56-1,3.31c-7.6,8.19-16.6,16.57-26.61,25.32c-1.25,1.1-0.74,1.76,0.74,1.41C55.72,48.69,74.5,44.4,82.5,43"/>
			<path id="kvg:05f8c-s6" d="M77.88,36.25c3.66,2.21,9.46,9.07,10.38,12.5"/>
		</g>
		<g id="kvg:05f8c-g5">
			<path id="kvg:05f8c-s7" d="M57.75,53c0.09,1.13,0.02,2.27-0.4,3.33c-2.2,5.51-7.08,13.22-15.6,20.92"/>
			<path id="kvg:05f8c-s8" d="M59.31,59.82c1.17,0.13,2.31,0.02,3.29-0.09c2.65-0.29,9.84-1.39,13.62-2.29c2.59-0.62,3.24,0.68,2.67,2.4C75.25,70.75,59.25,88.88,43.02,96.5"/>
			<path id="kvg:05f8c-s9" d="M54.75,67.5c2.52,0,19.5,15.75,31.17,24.23c2.31,1.68,4.74,3.38,7.58,4.01"/>
		</g>
	</g>
</g>
</g>
<g id="kvg:StrokeNumbers_05f8c">
	<text transform="matrix(1 0 0 1 26.50 18.50)">1</text>
	<text transform="matrix(1 0 0 1 30.50 39.50)">2</text>
	<text transform="matrix(1 0 0 1 23.25 66.50)">3</text>
	<text transform="matrix(1 0 0 1 52.50 14.50)">4</text>
	<text transform="matrix(1 0 0 1 68.50 21.50)">5</text>
	<text transform="matrix(1 0 0 1 78.50 34.63)">6</text>
	<text transform="matrix(1 0 0 1 49.50 60.50)">7</text>
	<text transform="matrix(1 0 0 1 63.50 56.50)">8</text>
	<text transform="matrix(1 0 0 1 53.25 76.63)">9</text>
</g>
</svg>
