<svg width="109" height="109" viewBox="0 0 109 109">
<g id="kvg:StrokePaths_05f9e">
<g id="kvg:05f9e">
	<g id="kvg:05f9e-g1">
		<path id="kvg:05f9e-s1" d="M35.08,16.75c0.06,0.51,0.27,1.41-0.11,2.03c-2.71,4.4-10.89,14.99-18.86,19.47"/>
		<g id="kvg:05f9e-g2">
			<path id="kvg:05f9e-s2" d="M39.34,32.75c0.07,0.68,0.34,1.9-0.14,2.74c-3.38,5.93-12.73,17.8-24.7,26.26"/>
			<path id="kvg:05f9e-s3" d="M28.72,53c0.36,0.25,1.07,1.65,1.15,2.16c0.07,0.51,0,37.15-0.07,40.34"/>
		</g>
	</g>
	<g id="kvg:05f9e-g3">
		<g id="kvg:05f9e-g4">
			<g id="kvg:05f9e-g5">
				<path id="kvg:05f9e-s4" d="M57.61,16.99c0,0.6,0.03,1.08-0.08,1.8c-0.58,3.75-6.07,16.28-10.77,21.83"/>
				<path id="kvg:05f9e-s5" d="M56.05,31.21c2.88,1.58,6.57,5.8,7.98,9.79"/>
			</g>
			<g id="kvg:05f9e-g6">
				<path id="kvg:05f9e-s6" d="M82.85,17.49c0,0.6,0.03,1.08-0.09,1.8c-0.62,3.75-6.51,16.28-11.55,21.83"/>
				<path id="kvg:05f9e-s7" d="M80.36,29.46c4.17,1.99,9.5,7.27,11.54,12.29"/>
			</g>
		</g>
		<g id="kvg:05f9e-g7">
			<path id="kvg:05f9e-s8" d="M65.86,47c0.39,0.46,1.31,2.48,1.31,3.4c0,6.25,0.36,26.41,0.28,32.13"/>
			<path id="kvg:05f9e-s9" d="M67.53,62.2C68.51,62.2,75.4,60.74,81.43,59.54C82.71,59.29,83.91,59.27,84.92,59.27"/>
			<path id="kvg:05f9e-s10" d="M51.37,60.81c0.07,0.78,0.52,1.99,0.35,3.13C50.25,73.75,49,82.25,38.5,91.71"/>
			<path id="kvg:05f9e-s11" d="M49.83,74.47c10.81,3.83,29.35,15.34,36.4,17.32c2.24,0.63,4.11,1.21,6.27,1.46"/>
		</g>
	</g>
</g>
</g>
<g id="kvg:StrokeNumbers_05f9e">
	<text transform="matrix(1 0 0 1 27.50 17.50)">1</text>
	<text transform="matrix(1 0 0 1 31.50 35.50)">2</text>
	<text transform="matrix(1 0 0 1 22.50 64.50)">3</text>
	<text transform="matrix(1 0 0 1 48.50 17.50)">4</text>
	<text transform="matrix(1 0 0 1 59.50 31.50)">5</text>
	<text transform="matrix(1 0 0 1 73.50 17.50)">6</text>
	<text transform="matrix(1 0 0 1 85.50 31.50)">7</text>
	<text transform="matrix(1 0 0 1 55.50 49.50)">8</text>
	<text transform="matrix(1 0 0 1 71.50 58.50)">9</text>
	<text transform="matrix(1 0 0 1 39.25 61.50)">10</text>
	<text transform="matrix(1 0 0 1 55.25 75.50)">11</text>
</g>
</svg>
