<svg width="109" height="109" viewBox="0 0 109 109">
<g id="kvg:StrokePaths_05fc3">
<g id="kvg:05fc3">
	<path id="kvg:05fc3-s1" d="M16.88,52.75c0,6.32-1.46,17.69-3.75,23"/>
	<path id="kvg:05fc3-s2" d="M31.25,49.25c9,22.75,27,35.5,53.25,32.25c7.75-0.96,7.25-4.75,3-9.5"/>
	<path id="kvg:05fc3-s3" d="M50.25,26c2,5.12,7.5,13.75,8.75,7.75"/>
	<path id="kvg:05fc3-s4" d="M85.5,30c4,2.75,7.62,7,10.5,14"/>
</g>
</g>
<g id="kvg:StrokeNumbers_05fc3">
	<text transform="matrix(1 0 0 1 11.25 50.50)">1</text>
	<text transform="matrix(1 0 0 1 27.75 45)">2</text>
	<text transform="matrix(1 0 0 1 43.50 23.50)">3</text>
	<text transform="matrix(1 0 0 1 77.50 29.50)">4</text>
</g>
</svg>
