<svg width="109" height="109" viewBox="0 0 109 109">
<g id="kvg:StrokePaths_05fdd">
<g id="kvg:05fdd">
	<g id="kvg:05fdd-g1">
		<g id="kvg:05fdd-g2">
			<path id="kvg:05fdd-s1" d="M67.94,12.14c0.13,0.37,0.24,0.93-0.24,1.48c-4.07,4.66-20.35,11.62-43.39,14.14"/>
		</g>
		<g id="kvg:05fdd-g3">
			<path id="kvg:05fdd-s2" d="M13.88,41.2c1.01,0.39,3.6,0.6,4.71,0.54c12.9-0.64,50.47-4.87,66.65-5.03c1.4-0.01,3.39,0.15,6.52,0.82"/>
			<path id="kvg:05fdd-s3" d="M50.6,25.44c0.4,1.31,0.45,2.54-0.11,3.84C41.75,49.5,31.75,61.5,12.25,74"/>
			<path id="kvg:05fdd-s4" d="M55,39.02c8.42,7.09,26.68,23.8,35.09,28.55c2.86,1.61,3.86,1.85,5.16,2.01"/>
		</g>
	</g>
	<g id="kvg:05fdd-g4">
		<path id="kvg:05fdd-s5" d="M47.49,57.33c0.88,0.82,1.5,1.78,1.57,4.5c0.36,13.04-0.23,23.71-0.23,28.15c0,9.31-6.46,1.34-7.8,0.22"/>
		<path id="kvg:05fdd-s6" d="M32.5,74.75c0,5.16-6.34,12.78-8,14.25"/>
		<path id="kvg:05fdd-s7" d="M60.12,72.83c2.18,2.67,5.64,10.98,6.18,15.13"/>
		<path id="kvg:05fdd-s8" d="M72.27,70.08c3.1,2.98,8.02,12.25,8.79,16.88"/>
	</g>
</g>
</g>
<g id="kvg:StrokeNumbers_05fdd">
	<text transform="matrix(1 0 0 1 58.50 11.50)">1</text>
	<text transform="matrix(1 0 0 1 6.50 41.50)">2</text>
	<text transform="matrix(1 0 0 1 42.25 32.48)">3</text>
	<text transform="matrix(1 0 0 1 67.50 46.40)">4</text>
	<text transform="matrix(1 0 0 1 39.50 62.50)">5</text>
	<text transform="matrix(1 0 0 1 27.50 73.25)">6</text>
	<text transform="matrix(1 0 0 1 55.50 72.50)">7</text>
	<text transform="matrix(1 0 0 1 65.50 70.50)">8</text>
</g>
</svg>
