<svg width="109" height="109" viewBox="0 0 109 109">
<g id="kvg:StrokePaths_05fd9">
<g id="kvg:05fd9">
	<g id="kvg:05fd9-g1">
		<path id="kvg:05fd9-s1" d="M16.25,37.25c0,6.52-2.58,16.14-3.25,18"/>
		<path id="kvg:05fd9-s2" d="M30.25,28.25c3.28,1.49,8.49,6.14,9.31,8.47"/>
		<path id="kvg:05fd9-s3" d="M25.37,12.25c1,1,1.46,2.25,1.46,3.75c0,0.86,0.08,51,0.04,72c-0.01,4-0.01,6.93-0.01,8.25"/>
	</g>
	<g id="kvg:05fd9-g2">
		<g id="kvg:05fd9-g3">
			<path id="kvg:05fd9-s4" d="M66.16,15.48c1.43,1.43,1.96,2.77,1.96,5.39c0,5,0.1,13.88,0.1,18.7"/>
			<g id="kvg:05fd9-g4">
				<path id="kvg:05fd9-s5" d="M40.13,43.71c3.24,0.79,5.98,0.69,9.38,0.15c10.46-1.67,29.7-4.41,40.24-5.19c2.92-0.22,5.77-0.39,8.62,0.42"/>
			</g>
		</g>
		<g id="kvg:05fd9-g5">
			<path id="kvg:05fd9-s6" d="M52.72,46.75c1.14,1.14,1.26,2.5,1.26,4.6c0,11.4,0,22.21,0,26.53c0,9.12,1.77,11.64,18.77,11.64c9.5,0,16.75-1.27,20.53-2.29"/>
		</g>
	</g>
</g>
</g>
<g id="kvg:StrokeNumbers_05fd9">
	<text transform="matrix(1 0 0 1 11.50 36.13)">1</text>
	<text transform="matrix(1 0 0 1 31.50 26.50)">2</text>
	<text transform="matrix(1 0 0 1 15.75 12.50)">3</text>
	<text transform="matrix(1 0 0 1 56.50 16.50)">4</text>
	<text transform="matrix(1 0 0 1 43.50 41.50)">5</text>
	<text transform="matrix(1 0 0 1 46.50 54.50)">6</text>
</g>
</svg>
