<svg width="109" height="109" viewBox="0 0 109 109">
<g id="kvg:StrokePaths_05ffd">
<g id="kvg:05ffd">
	<g id="kvg:05ffd-g1">
		<g id="kvg:05ffd-g2">
			<g id="kvg:05ffd-g3">
				<path id="kvg:05ffd-s1" d="M40.92,13.5c0.11,0.99-0.28,1.94-0.65,2.85c-2.77,5.02-7.82,12.04-14.67,18.47"/>
			</g>
			<path id="kvg:05ffd-s2" d="M39.45,23.77c2.55,0.73,4.11,0.59,6.42,0.32c7.19-1.02,22.76-3.34,30.51-4.27c4.43-0.53,6.37,0.85,5.22,5.25c-1.72,6.6-5.73,20.92-13.02,29.36c-5.03,5.82-7.37,6.03-10.91,3.55"/>
		</g>
		<g id="kvg:05ffd-g4">
			<path id="kvg:05ffd-s3" d="M48.84,27.03c0,1.1-0.31,2.05-0.85,2.95c-3.12,5.27-7.24,9.9-16.11,15.46"/>
		</g>
		<g id="kvg:05ffd-g5">
			<path id="kvg:05ffd-s4" d="M66.04,25.02c0.09,0.79,0.07,1.85-0.43,2.94C62.25,35.25,51.62,49,34.2,58.18"/>
		</g>
	</g>
	<g id="kvg:05ffd-g6">
		<path id="kvg:05ffd-s5" d="M21.89,78.32c0.39,2.39-4.17,12.69-7.31,16.67"/>
		<path id="kvg:05ffd-s6" d="M33.58,72.75c6.92,14,18.68,24.22,43.14,22.93c13.03-0.68,13.9-3.56,3.38-10.3"/>
		<path id="kvg:05ffd-s7" d="M53.16,71.25c2.17,5.25,5.57,10.75,7.88,2.71"/>
		<path id="kvg:05ffd-s8" d="M83.13,67.23c4.74,2.89,7.87,5.52,11.35,11.86"/>
	</g>
</g>
</g>
<g id="kvg:StrokeNumbers_05ffd">
	<text transform="matrix(1 0 0 1 32.50 12.50)">1</text>
	<text transform="matrix(1 0 0 1 46.50 20.50)">2</text>
	<text transform="matrix(1 0 0 1 38.50 33.48)">3</text>
	<text transform="matrix(1 0 0 1 55.50 32.50)">4</text>
	<text transform="matrix(1 0 0 1 16.50 76.33)">5</text>
	<text transform="matrix(1 0 0 1 27.50 73.50)">6</text>
	<text transform="matrix(1 0 0 1 46.25 71.50)">7</text>
	<text transform="matrix(1 0 0 1 76.25 69.50)">8</text>
</g>
</svg>
