<svg width="109" height="109" viewBox="0 0 109 109">
<g id="kvg:StrokePaths_0600e">
<g id="kvg:0600e">
	<g id="kvg:0600e-g1">
		<g id="kvg:0600e-g2">
			<path id="kvg:0600e-s1" d="M40.21,11c0.06,0.77,0.14,2-0.13,3.11c-1.56,6.56-10.03,20.95-22.3,29.76"/>
		</g>
		<path id="kvg:0600e-s2" d="M38.35,23.91c0.93,0.28,2.64,0.32,3.58,0.28c12.31-0.58,31.01-4.09,40.18-4.74c1.72-0.12,2.47-0.18,3.63-0.06"/>
		<path id="kvg:0600e-s3" d="M51.47,25.38c0.78,0.87,1.51,2.64,1.69,3.37c0.19,0.73-0.19,30.49-0.19,37.24"/>
		<path id="kvg:0600e-s4" d="M53.39,36.55c6.3-0.33,16.23-1.82,27.94-3.26c1-0.12,1.61,0.13,2.12,0.28"/>
		<path id="kvg:0600e-s5" d="M53.64,49.99C62.25,49,72.25,48,79.86,47.31c1.65-0.15,2.65,0.07,3.48,0.14"/>
	</g>
	<g id="kvg:0600e-g3">
		<path id="kvg:0600e-s6" d="M25.64,76.32c0.45,2.67-4.48,14.47-8.06,18.92"/>
		<path id="kvg:0600e-s7" d="M37.08,69.75c6.39,15.92,16.49,29.73,41.12,29.93c11.88,0.1,12.66-4.25,2.75-11.49"/>
		<path id="kvg:0600e-s8" d="M58.41,72.75c2.17,5.25,5.32,10.5,7.63,2.46"/>
		<path id="kvg:0600e-s9" d="M80.63,66.73c5.31,2.27,9.29,4.34,13.6,11.36"/>
	</g>
</g>
</g>
<g id="kvg:StrokeNumbers_0600e">
	<text transform="matrix(1 0 0 1 32.50 10.50)">1</text>
	<text transform="matrix(1 0 0 1 46.50 19.50)">2</text>
	<text transform="matrix(1 0 0 1 45.50 32.50)">3</text>
	<text transform="matrix(1 0 0 1 57.50 32.50)">4</text>
	<text transform="matrix(1 0 0 1 57.50 45.50)">5</text>
	<text transform="matrix(1 0 0 1 19.50 75.50)">6</text>
	<text transform="matrix(1 0 0 1 30.50 70.50)">7</text>
	<text transform="matrix(1 0 0 1 51.50 75.50)">8</text>
	<text transform="matrix(1 0 0 1 73.50 68.50)">9</text>
</g>
</svg>
