<svg width="109" height="109" viewBox="0 0 109 109">
<g id="kvg:StrokePaths_0600f">
<g id="kvg:0600f">
	<g id="kvg:0600f-g1">
		<path id="kvg:0600f-s1" d="M16.72,34.5c0.02,4.44-1.94,14.55-3.69,18"/>
		<path id="kvg:0600f-s2" d="M30.77,29.33c2.04,2.32,5.28,9.53,5.79,13.13"/>
		<path id="kvg:0600f-s3" d="M22.87,13.25c1.09,0.5,1.74,2.25,1.96,3.25c0.22,1,0,73.75-0.22,80"/>
	</g>
	<g id="kvg:0600f-g2">
		<path id="kvg:0600f-s4" d="M43.21,32.72c0.93,1.09,1.39,1.97,1.62,3.28c0.23,1.31,2.16,19.03,2.39,20.56"/>
		<path id="kvg:0600f-s5" d="M45.36,34.77c3.15-0.44,32.45-3.59,36.71-4.25c4.27-0.66,5.01,0.88,4.64,2.87c-0.37,1.99-2.78,17.44-3.15,19.86"/>
		<g id="kvg:0600f-g3">
			<path id="kvg:0600f-s6" d="M35.77,56.92c0.93,0.4,3.31,0.66,4.33,0.56c14.02-1.35,28.73-3.05,51.27-4.58c1.29-0.09,3.12,0.16,6,0.85"/>
			<path id="kvg:0600f-s7" d="M63.55,12.5c0,2.05,0.65,2.5,0.67,5c0.55,52.33-1.48,64.25-28.55,79"/>
			<path id="kvg:0600f-s8" d="M64.35,56.19C70.9,67.22,82.44,83,90.9,90.89c2.46,2.29,3,2.89,4.01,3.12"/>
		</g>
	</g>
</g>
</g>
<g id="kvg:StrokeNumbers_0600f">
	<text transform="matrix(1 0 0 1 11.50 31.50)">1</text>
	<text transform="matrix(1 0 0 1 29.50 26.50)">2</text>
	<text transform="matrix(1 0 0 1 14.50 12.50)">3</text>
	<text transform="matrix(1 0 0 1 39.00 48.90)">4</text>
	<text transform="matrix(1 0 0 1 46.50 31.50)">5</text>
	<text transform="matrix(1 0 0 1 33.25 53.50)">6</text>
	<text transform="matrix(1 0 0 1 55.50 13.50)">7</text>
	<text transform="matrix(1 0 0 1 72.50 63.50)">8</text>
</g>
</svg>
