<svg width="109" height="109" viewBox="0 0 109 109">
<g id="kvg:StrokePaths_06015">
<g id="kvg:06015">
	<g id="kvg:06015-g1">
		<path id="kvg:06015-s1" d="M18.22,35c0.04,4.31-3,14.14-5.69,17.5"/>
		<path id="kvg:06015-s2" d="M32.77,31.33c2.4,2.58,6.19,10.62,6.79,14.63"/>
		<path id="kvg:06015-s3" d="M24.87,12.75c1.09,0.5,1.74,2.25,1.96,3.25c0.22,1,0,73.75-0.22,80"/>
	</g>
	<g id="kvg:06015-g2">
		<g id="kvg:06015-g3">
			<path id="kvg:06015-s4" d="M68.35,13.25c0.15,1,0.3,2.24,0,2.83C65.5,21.75,62,26.75,55.44,33.96"/>
		</g>
		<g id="kvg:06015-g4">
			<path id="kvg:06015-s5" d="M49.3,34.24c0.65,1.46,1.32,3.89,1.32,5.83c0,1.94,1.31,42.79,1.31,54.43"/>
			<path id="kvg:06015-s6" d="M51.01,37.1c3.71-0.24,33.29-3.6,36.67-3.99c3.07-0.36,3.52,1.6,3.51,4.66c-0.01,5.23-1.14,38.6-1.84,54.63"/>
			<path id="kvg:06015-s7" d="M51.52,62.56c7.77-0.73,33.08-2.98,38.75-2.98"/>
			<path id="kvg:06015-s8" d="M52.82,92.7c9.3-0.79,26.4-2.64,36.32-3"/>
		</g>
	</g>
</g>
</g>
<g id="kvg:StrokeNumbers_06015">
	<text transform="matrix(1 0 0 1 13.50 32.50)">1</text>
	<text transform="matrix(1 0 0 1 30.50 27.50)">2</text>
	<text transform="matrix(1 0 0 1 15.50 12.48)">3</text>
	<text transform="matrix(1 0 0 1 60.50 12.50)">4</text>
	<text transform="matrix(1 0 0 1 42.50 44.50)">5</text>
	<text transform="matrix(1 0 0 1 64.50 32.50)">6</text>
	<text transform="matrix(1 0 0 1 55.50 58.50)">7</text>
	<text transform="matrix(1 0 0 1 56.50 88.50)">8</text>
</g>
</svg>
