<svg width="109" height="109" viewBox="0 0 109 109">
<g id="kvg:StrokePaths_06027">
<g id="kvg:06027">
	<g id="kvg:06027-g1">
		<path id="kvg:06027-s1" d="M16,38.75c0,6.43-3.55,15.41-4.48,17.25"/>
		<path id="kvg:06027-s2" d="M30.52,30.83c3.72,2.19,9.61,8.98,10.54,12.38"/>
		<path id="kvg:06027-s3" d="M25.62,14.75c0.94,0.94,1.71,2.75,1.71,4c0,0.85,0.05,65.88,0.05,69.62c0,5.04-0.01,5.5-0.01,7.38"/>
	</g>
	<g id="kvg:06027-g2">
		<path id="kvg:06027-s4" d="M54.01,28.14c0.04,0.7,0.22,1.85-0.08,2.83C51.75,38.12,47.5,49.12,40.75,58"/>
		<path id="kvg:06027-s5" d="M53.63,42.17c1.37,0.21,2.66,0.21,3.6,0.13c6-0.49,21.82-2.31,29.4-3.13c1.84-0.2,3.65-0.42,5.5-0.28"/>
		<path id="kvg:06027-s6" d="M67.56,13.63c1.22,1.22,2.26,3.37,2.26,5.48c0,1.06,0,60.26,0,70.27"/>
		<path id="kvg:06027-s7" d="M50.88,63.53c2,0.22,3.83,0.3,5.87,0.1c7.62-0.75,20.74-1.54,27.35-2.05c1.99-0.15,4.02-0.2,5.77,0.29"/>
		<path id="kvg:06027-s8" d="M38.88,90.72c2.93,0.51,5.06,0.6,8.01,0.41c11.74-0.76,35.24-1.76,45.08-1.81c2.54-0.02,5.29,0.18,7.29,0.63"/>
	</g>
</g>
</g>
<g id="kvg:StrokeNumbers_06027">
	<text transform="matrix(1 0 0 1 11.25 34.63)">1</text>
	<text transform="matrix(1 0 0 1 32.50 28.50)">2</text>
	<text transform="matrix(1 0 0 1 16.50 14.50)">3</text>
	<text transform="matrix(1 0 0 1 45.75 25.50)">4</text>
	<text transform="matrix(1 0 0 1 57.75 39.50)">5</text>
	<text transform="matrix(1 0 0 1 58.50 15.50)">6</text>
	<text transform="matrix(1 0 0 1 44.25 64.50)">7</text>
	<text transform="matrix(1 0 0 1 38.50 87.50)">8</text>
</g>
</svg>
