<svg width="109" height="109" viewBox="0 0 109 109">
<g id="kvg:StrokePaths_06021">
<g id="kvg:06021">
	<g id="kvg:06021-g1">
		<path id="kvg:06021-s1" d="M17.47,37.75c0,6.25-3.92,15.47-4.94,17.25"/>
		<path id="kvg:06021-s2" d="M34.27,32.08c2.57,2.45,6.65,10.07,7.29,13.88"/>
		<path id="kvg:06021-s3" d="M25.37,14.75c1.09,0.5,1.74,2.25,1.96,3.25c0.22,1,0,74.25-0.22,80.5"/>
	</g>
	<g id="kvg:06021-g2">
		<g id="kvg:06021-g3">
			<path id="kvg:06021-s4" d="M66.19,14.17c0.79,1.75,0.38,3.44-0.47,5.2C60.2,30.74,57,38.52,51.16,46.91c-2.48,3.56-0.73,4.62,2.34,3.95c12-2.61,18.25-4.36,35.67-7.7"/>
			<path id="kvg:06021-s5" d="M78.42,30.58c5.59,4.04,14.44,16.6,15.83,22.88"/>
		</g>
		<g id="kvg:06021-g4">
			<path id="kvg:06021-s6" d="M50.12,67.21c0.42,0.42,0.85,0.76,1.04,1.28c1.46,4.11,3.21,20.46,4.21,27.85"/>
			<path id="kvg:06021-s7" d="M52.09,69.93c13.91-1.68,27.53-3.35,34.58-4.17c2.41-0.28,3.83,0.74,3.51,3.11c-0.95,6.97-3.15,14.31-4.77,21.53"/>
			<path id="kvg:06021-s8" d="M55.49,93.24C65.75,92.5,74.75,92.5,87.8,91.7"/>
		</g>
	</g>
</g>
</g>
<g id="kvg:StrokeNumbers_06021">
	<text transform="matrix(1 0 0 1 12.50 36.50)">1</text>
	<text transform="matrix(1 0 0 1 36.50 31.50)">2</text>
	<text transform="matrix(1 0 0 1 17.25 14.48)">3</text>
	<text transform="matrix(1 0 0 1 58.50 14.50)">4</text>
	<text transform="matrix(1 0 0 1 76.50 26.50)">5</text>
	<text transform="matrix(1 0 0 1 44.50 77.50)">6</text>
	<text transform="matrix(1 0 0 1 55.25 66.50)">7</text>
	<text transform="matrix(1 0 0 1 59.75 89.35)">8</text>
</g>
</svg>
