<svg width="109" height="109" viewBox="0 0 109 109">
<g id="kvg:StrokePaths_06042">
<g id="kvg:06042">
	<g id="kvg:06042-g1">
		<path id="kvg:06042-s1" d="M17.22,37c0.03,4.31-2.47,14.14-4.69,17.5"/>
		<path id="kvg:06042-s2" d="M32.77,25.83c2.75,1.96,7.1,8.08,7.79,11.13"/>
		<path id="kvg:06042-s3" d="M24.87,11.75c1.09,0.5,1.74,2.25,1.96,3.25c0.22,1,0,77.75-0.22,84"/>
	</g>
	<g id="kvg:06042-g2">
		<g id="kvg:06042-g3">
			<g id="kvg:06042-g4">
				<path id="kvg:06042-s4" d="M57.24,11.5c0.05,0.8,0.11,2.08-0.1,3.23c-1.23,6.81-8.26,21.75-17.89,30.9"/>
			</g>
			<path id="kvg:06042-s5" d="M54.69,28.75c0.86,0.75,2.06,1,3.43,0.5c1.37-0.5,27.93-3.25,31.35-3.5c3.43-0.25,4.61,1,4.1,6.25c-0.51,5.25-3.13,44.72-8.96,59.75c-3.11,8-6.61,3.5-9.98-0.75"/>
		</g>
		<g id="kvg:06042-g5">
			<path id="kvg:06042-s6" d="M49.29,43.94c0.71,0.56,1.51,2.18,1.51,3.22c0,1.04,0.92,29.29,1,30.34"/>
			<path id="kvg:06042-s7" d="M50.22,45.57c1.43-0.13,16.48-2.88,17.71-3.33c2.07-0.74,3.32,1.01,3.2,2.72c-0.1,1.57-2.34,31.23-2.34,32.01"/>
			<path id="kvg:06042-s8" d="M52.47,59.23c1.94,0,15.05-1.81,17.24-1.81"/>
			<path id="kvg:06042-s9" d="M52.38,75.06c3.95-0.56,10.91-1.06,15.82-1.54"/>
		</g>
	</g>
</g>
</g>
<g id="kvg:StrokeNumbers_06042">
	<text transform="matrix(1 0 0 1 11.50 34.50)">1</text>
	<text transform="matrix(1 0 0 1 31.50 23.50)">2</text>
	<text transform="matrix(1 0 0 1 16.50 11.50)">3</text>
	<text transform="matrix(1 0 0 1 48.50 11.50)">4</text>
	<text transform="matrix(1 0 0 1 60.50 25.50)">5</text>
	<text transform="matrix(1 0 0 1 42.50 51.50)">6</text>
	<text transform="matrix(1 0 0 1 51.50 42.50)">7</text>
	<text transform="matrix(1 0 0 1 55.50 55.50)">8</text>
	<text transform="matrix(1 0 0 1 56.50 70.50)">9</text>
</g>
</svg>
