<svg width="109" height="109" viewBox="0 0 109 109">
<g id="kvg:StrokePaths_06064">
<g id="kvg:06064">
	<g id="kvg:06064-g1">
		<path id="kvg:06064-s1" d="M15.72,33.75c0.02,4.38-1.94,14.35-3.69,17.75"/>
		<path id="kvg:06064-s2" d="M29.27,32.33c2.22,2.23,5.74,9.17,6.29,12.63"/>
		<path id="kvg:06064-s3" d="M21.37,12.25c1.09,0.5,1.74,2.25,1.96,3.25c0.22,1,0,74.75-0.22,81"/>
	</g>
	<g id="kvg:06064-g2">
		<path id="kvg:06064-s4" d="M67.42,14.58c0.05,0.5,0.21,1.35-0.1,2.02c-2.2,4.78-8.46,13.54-17.15,19.3"/>
		<g id="kvg:06064-g3">
			<path id="kvg:06064-s5" d="M41.48,34.95c0.75,0.55,1.25,1.8,1.37,2.51c0.92,5.6,2.8,38.27,3.43,48.33"/>
			<path id="kvg:06064-s6" d="M43.69,37.47c9.77-1.16,40.73-3.65,44.27-3.69c3.04-0.03,4.54,0.72,4.38,3.04c-0.22,3.25-4.92,42.96-6.05,47.34"/>
			<path id="kvg:06064-s7" d="M57.21,37.9c0.23,0.53,1.03,1.47,1.06,2.14c0.48,10.62,0.96,35.78,1.5,45.27"/>
			<path id="kvg:06064-s8" d="M72.86,36.88c0.02,0.46,1.03,2.09,1.03,2.87c0.02,8.8-1.99,33.69-2.17,44.17"/>
			<path id="kvg:06064-s9" d="M32.88,86.46c1.09,0.38,3.08,0.44,4.16,0.38c11.29-0.63,38.25-2.15,59.04-2.25c1.81-0.01,2.89,0.18,3.8,0.37"/>
		</g>
	</g>
</g>
</g>
<g id="kvg:StrokeNumbers_06064">
	<text transform="matrix(1 0 0 1 10.50 33.50)">1</text>
	<text transform="matrix(1 0 0 1 27.50 29.50)">2</text>
	<text transform="matrix(1 0 0 1 12.50 11.50)">3</text>
	<text transform="matrix(1 0 0 1 59.50 13.50)">4</text>
	<text transform="matrix(1 0 0 1 36.50 52.50)">5</text>
	<text transform="matrix(1 0 0 1 44.50 34.50)">6</text>
	<text transform="matrix(1 0 0 1 51.00 46.50)">7</text>
	<text transform="matrix(1 0 0 1 66.50 45.50)">8</text>
	<text transform="matrix(1 0 0 1 31.50 82.50)">9</text>
</g>
</svg>
