<svg width="109" height="109" viewBox="0 0 109 109">
<g id="kvg:StrokePaths_06068">
<g id="kvg:06068">
	<g id="kvg:06068-g1">
		<path id="kvg:06068-s1" d="M15.75,38.25c0,6.61-2.97,16.36-3.75,18.25"/>
		<path id="kvg:06068-s2" d="M30.02,33.83c2.93,1.74,7.56,7.17,8.29,9.88"/>
		<path id="kvg:06068-s3" d="M24.37,16.25c1,1,1.21,2.25,1.21,4c0,4.28,0.04,52.46,0.04,69.12c0,3.39,0,5.48-0.01,5.62"/>
	</g>
	<g id="kvg:06068-g2">
		<path id="kvg:06068-s4" d="M47.21,18.87c1.04,0.88,3.1,1.12,5.31,0.86c5.01-0.61,14.04-1.76,18.5-2.3c3.65-0.45,5.21,0.07,4.95,3.96c-0.34,5-1.12,14.2-1.96,19.9c-0.31,2.12-0.6,3.79-0.81,4.61"/>
		<path id="kvg:06068-s5" d="M50.26,33.17c5.15-0.56,16.99-2.29,24.04-2.73"/>
		<path id="kvg:06068-s6" d="M49.95,46.3c7.07-0.9,13.93-1.8,22.43-2.55"/>
		<path id="kvg:06068-s7" d="M47.95,19.73c0.91,0.91,1.1,2.08,1.1,3.26c0,7.26-0.02,61.38-0.02,64.26c0,4.5,1.85,2.21,3.27,1.11c2.75-2.14,9.45-7.11,13.21-9.36"/>
		<path id="kvg:06068-s8" d="M81.88,46c0.23,1.45-0.07,2.36-1.03,3.43c-4.1,4.57-6.22,7.19-12.44,11.51"/>
		<path id="kvg:06068-s9" d="M55.26,53.51c3.9,0,19.93,18.31,28.51,26.96c3.22,3.25,6.6,6.53,11.22,8.6"/>
	</g>
</g>
</g>
<g id="kvg:StrokeNumbers_06068">
	<text transform="matrix(1 0 0 1 10.50 38.50)">1</text>
	<text transform="matrix(1 0 0 1 30.50 31.50)">2</text>
	<text transform="matrix(1 0 0 1 13.50 15.13)">3</text>
	<text transform="matrix(1 0 0 1 51.75 16.50)">4</text>
	<text transform="matrix(1 0 0 1 54.75 29.50)">5</text>
	<text transform="matrix(1 0 0 1 54.75 42.50)">6</text>
	<text transform="matrix(1 0 0 1 41.25 27.13)">7</text>
	<text transform="matrix(1 0 0 1 81.50 42.50)">8</text>
	<text transform="matrix(1 0 0 1 56.25 63.13)">9</text>
</g>
</svg>
