<svg width="109" height="109" viewBox="0 0 109 109">
<g id="kvg:StrokePaths_06077">
<g id="kvg:06077">
	<g id="kvg:06077-g1">
		<g id="kvg:06077-g2">
			<path id="kvg:06077-s1" d="M35.4,14.36c0.23,1.49-0.06,3.45-0.79,4.73c-4.64,8.16-10.53,15.82-21.17,25.75"/>
			<path id="kvg:06077-s2" d="M27.91,32.85c0.09,0.6,0.57,1.69,0.62,2.55c0.45,8-0.44,23.11-0.44,30.91"/>
		</g>
		<g id="kvg:06077-g3">
			<path id="kvg:06077-s3" d="M40.56,28.77c0.55,0.21,2.93,0.78,4.4,0.63c10.62-1.12,26.2-3.24,38.9-3.67c1.48-0.05,2.74-0.21,3.66,0"/>
			<path id="kvg:06077-s4" d="M60.44,12c0.84,0.33,1.35,1.51,1.52,2.17c0.17,0.67,0,47.64-0.17,51.83"/>
			<path id="kvg:06077-s5" d="M61.86,27.68c-4.42,9.39-13.77,22.14-22.96,27.45"/>
			<path id="kvg:06077-s6" d="M62.13,27.51C68,34,79.75,45.75,88.42,52.99c1.75,1.46,3.02,1.98,4.64,2.37"/>
		</g>
	</g>
	<g id="kvg:06077-g4">
		<path id="kvg:06077-s7" d="M24.14,80.07c0.39,2.28-3.92,12.36-7.06,16.17"/>
		<path id="kvg:06077-s8" d="M35.58,73.25c6.17,13.66,15.92,25.51,39.7,25.68c11.47,0.08,12.22-3.64,2.65-9.86"/>
		<path id="kvg:06077-s9" d="M55.91,73.25c2.17,5.25,5.32,10.5,7.63,2.46"/>
		<path id="kvg:06077-s10" d="M82.38,72.23c4.63,2.07,8.09,3.96,11.85,10.36"/>
	</g>
</g>
</g>
<g id="kvg:StrokeNumbers_06077">
	<text transform="matrix(1 0 0 1 27.50 13.50)">1</text>
	<text transform="matrix(1 0 0 1 21.50 46.50)">2</text>
	<text transform="matrix(1 0 0 1 38.50 26.50)">3</text>
	<text transform="matrix(1 0 0 1 51.50 12.50)">4</text>
	<text transform="matrix(1 0 0 1 47.44 38.83)">5</text>
	<text transform="matrix(1 0 0 1 75.50 36.50)">6</text>
	<text transform="matrix(1 0 0 1 18.50 79.50)">7</text>
	<text transform="matrix(1 0 0 1 31.50 82.50)">8</text>
	<text transform="matrix(1 0 0 1 48.50 77.50)">9</text>
	<text transform="matrix(1 0 0 1 71.50 76.50)">10</text>
</g>
</svg>
