<svg width="109" height="109" viewBox="0 0 109 109">
<g id="kvg:StrokePaths_06070">
<g id="kvg:06070">
	<g id="kvg:06070-g1">
		<path id="kvg:06070-s1" d="M17.72,39.75c0,6.61-2.97,16.61-3.94,18.5"/>
		<path id="kvg:06070-s2" d="M31.02,35.58c2.66,1.57,6.88,6.69,7.54,9.13"/>
		<path id="kvg:06070-s3" d="M26.12,15.75c0.94,0.94,1.21,2.23,1.21,3.25c0,4.77,0.02,48.37,0.03,68c0,4.54,0,7.8,0,9"/>
	</g>
	<g id="kvg:06070-g2">
		<g id="kvg:06070-g3">
			<g id="kvg:06070-g4">
				<path id="kvg:06070-s4" d="M62.42,13c0,1.38-0.21,2.79-0.62,4.2C58.92,27,53.12,41.75,40.82,56.93"/>
				<path id="kvg:06070-s5" d="M62.58,17.58c4.47,5.92,15.55,19.48,22.72,27.63c2.98,3.51,6.28,6.29,10.38,8.36"/>
			</g>
			<g id="kvg:06070-g5">
				<path id="kvg:06070-s6" d="M52.55,50.89c1.57,0.27,3.14,0.32,4.72,0.12c4.36-0.51,8.68-1.24,13.87-1.97c1.75-0.2,3.49-0.16,5.22,0.11"/>
			</g>
		</g>
		<g id="kvg:06070-g6">
			<path id="kvg:06070-s7" d="M48.09,66.28c0.76,0.76,1.3,2.21,1.42,2.97c1.17,7.31,2.27,12.97,3.19,18.76c0.33,2.05,0.63,4.12,0.91,6.28"/>
			<path id="kvg:06070-s8" d="M49.85,67.51c10.13-1.42,21.73-2.29,27.89-3.01c3.01-0.35,4.98,0.62,4.38,3.99c-1.1,6.27-1.87,11.43-4.21,20.34"/>
			<path id="kvg:06070-s9" d="M53.84,92.12c6.29-0.62,12.81-1.29,20.54-1.83c1.85-0.13,3.71-0.25,5.55-0.37"/>
		</g>
	</g>
</g>
</g>
<g id="kvg:StrokeNumbers_06070">
	<text transform="matrix(1 0 0 1 12.50 39.63)">1</text>
	<text transform="matrix(1 0 0 1 32.50 33.50)">2</text>
	<text transform="matrix(1 0 0 1 16.50 15.50)">3</text>
	<text transform="matrix(1 0 0 1 54.50 14.50)">4</text>
	<text transform="matrix(1 0 0 1 68.50 21.50)">5</text>
	<text transform="matrix(1 0 0 1 55.25 48.50)">6</text>
	<text transform="matrix(1 0 0 1 41.50 73.50)">7</text>
	<text transform="matrix(1 0 0 1 51.50 64.50)">8</text>
	<text transform="matrix(1 0 0 1 56.50 88.50)">9</text>
</g>
</svg>
