<svg width="109" height="109" viewBox="0 0 109 109">
<g id="kvg:StrokePaths_0608b">
<g id="kvg:0608b">
	<g id="kvg:0608b-g1">
		<path id="kvg:0608b-s1" d="M17.22,34.5c0.03,4.31-2.47,14.14-4.69,17.5"/>
		<path id="kvg:0608b-s2" d="M32.27,31.83c2.57,2.23,6.65,9.17,7.29,12.63"/>
		<path id="kvg:0608b-s3" d="M23.87,12.25c1.09,0.5,1.74,2.25,1.96,3.25c0.22,1,0,73.75-0.22,80"/>
	</g>
	<g id="kvg:0608b-g2">
		<g id="kvg:0608b-g3">
			<g id="kvg:0608b-g4">
				<path id="kvg:0608b-s4" d="M65.11,11c0.57,0.47,1.5,2.27,1.5,3.2c0,3.68-0.02,9.28-0.08,11.92"/>
				<path id="kvg:0608b-s5" d="M41.76,28.04c0.91,0.06,2.63,0.38,3.52,0.35c7.42-0.32,35.86-4.03,45.58-4.22c1.5-0.03,2.27,0.03,3.39,0.44"/>
			</g>
			<g id="kvg:0608b-g5">
				<path id="kvg:0608b-s6" d="M80.06,27.74c0.44,1.26,0.66,2.55-0.24,4.01C71.29,45.65,56.49,58.44,38.71,66"/>
				<path id="kvg:0608b-s7" d="M54.04,30.32C64,42.25,75.75,51.5,90.57,59.27c2.35,1.23,3.86,1.42,5.79,1.55"/>
			</g>
		</g>
		<g id="kvg:0608b-g6">
			<path id="kvg:0608b-s8" d="M49.14,70.27c0.37,0.46,0.75,0.84,0.91,1.42c1.29,4.55,2.83,16.1,3.71,24.28"/>
			<path id="kvg:0608b-s9" d="M50.27,71.83c9.09-1.91,28.02-3.44,32.71-4.06c2.03-0.27,3.24,1.87,3,3.26c-1.01,5.73-2.57,12.22-4.45,20.93"/>
			<path id="kvg:0608b-s10" d="M54.13,93.95c7.37-0.45,21.12-1.7,30.1-1.78"/>
		</g>
	</g>
</g>
</g>
<g id="kvg:StrokeNumbers_0608b">
	<text transform="matrix(1 0 0 1 11.50 34.50)">1</text>
	<text transform="matrix(1 0 0 1 30.50 29.50)">2</text>
	<text transform="matrix(1 0 0 1 15.44 12.98)">3</text>
	<text transform="matrix(1 0 0 1 56.50 11.16)">4</text>
	<text transform="matrix(1 0 0 1 39.50 24.58)">5</text>
	<text transform="matrix(1 0 0 1 70.50 34.01)">6</text>
	<text transform="matrix(1 0 0 1 48.50 38.50)">7</text>
	<text transform="matrix(1 0 0 1 42.50 76.50)">8</text>
	<text transform="matrix(1 0 0 1 53.50 67.50)">9</text>
	<text transform="matrix(1 0 0 1 56.50 90.50)">10</text>
</g>
</svg>
