<svg width="109" height="109" viewBox="0 0 109 109">
<g id="kvg:StrokePaths_0609b">
<g id="kvg:0609b">
	<g id="kvg:0609b-g1">
		<path id="kvg:0609b-s1" d="M15.22,36c0.02,4.31-1.94,14.14-3.69,17.5"/>
		<path id="kvg:0609b-s2" d="M31.27,31.58c2.57,1.83,6.65,7.53,7.29,10.38"/>
		<path id="kvg:0609b-s3" d="M22.87,14.25c1.09,0.5,1.74,2.25,1.96,3.25c0.22,1,0,73.75-0.22,80"/>
	</g>
	<g id="kvg:0609b-g2">
		<g id="kvg:0609b-g3">
			<g id="kvg:0609b-g4">
				<path id="kvg:0609b-s4" d="M60.41,12.25c0.44,0.42,0.41,2.03,0.15,2.58c-3.24,6.83-9.3,12.42-13.74,18.57c-1.43,1.98-1.88,2.05,0.88,1.52c8.56-1.66,26.19-6.03,35.6-7.91"/>
				<path id="kvg:0609b-s5" d="M75.77,19.76c4.6,2.49,11.88,10.25,13.03,14.12"/>
			</g>
			<g id="kvg:0609b-g5">
				<g id="kvg:0609b-g6">
					<g id="kvg:0609b-g7">
						<path id="kvg:0609b-s6" d="M55.8,37.36c0.04,0.41,0.2,1.1-0.08,1.66c-1.89,3.75-7.34,10.94-14.77,15.9"/>
					</g>
					<g id="kvg:0609b-g8">
						<path id="kvg:0609b-s7" d="M69.98,32.8c0.43,0.5,0.77,1.1,0.79,1.87c0.11,3.46-0.31,6.82-0.31,9.18c0,5.5,5.14,4.87,10.21,4.87c5.34,0,8.66-0.67,9.61-2.04"/>
					</g>
				</g>
			</g>
		</g>
		<g id="kvg:0609b-g9">
			<path id="kvg:0609b-s8" d="M60.59,52.25c0.06,0.64-0.25,2.29-0.69,3.14C56.76,61.42,52,71.25,39.04,79.6"/>
			<path id="kvg:0609b-s9" d="M58.75,63.56c0.5,0.44,2.83,0.5,3.55,0.41c2.37-0.29,12.71-1.86,16.09-2.75c2.32-0.61,3.15,0.77,2.39,2.35C75.25,75,57.5,91.75,40.67,97"/>
			<path id="kvg:0609b-s10" d="M50.81,70.93c4.41,0.73,28.44,19.07,36.57,23c2.16,1.04,3.87,1.63,5.95,1.96"/>
		</g>
	</g>
</g>
</g>
<g id="kvg:StrokeNumbers_0609b">
	<text transform="matrix(1 0 0 1 9.50 35.13)">1</text>
	<text transform="matrix(1 0 0 1 29.50 28.50)">2</text>
	<text transform="matrix(1 0 0 1 14.50 14.98)">3</text>
	<text transform="matrix(1 0 0 1 52.44 11.50)">4</text>
	<text transform="matrix(1 0 0 1 71.50 16.50)">5</text>
	<text transform="matrix(1 0 0 1 43.50 46.50)">6</text>
	<text transform="matrix(1 0 0 1 63.50 41.50)">7</text>
	<text transform="matrix(1 0 0 1 52.50 55.50)">8</text>
	<text transform="matrix(1 0 0 1 64.50 60.50)">9</text>
	<text transform="matrix(1 0 0 1 58.50 73.50)">10</text>
</g>
</svg>
