<svg width="109" height="109" viewBox="0 0 109 109">
<g id="kvg:StrokePaths_060bc">
<g id="kvg:060bc">
	<g id="kvg:060bc-g1">
		<path id="kvg:060bc-s1" d="M16,34.25c0,6.61-3.17,16.36-4,18.25"/>
		<path id="kvg:060bc-s2" d="M33.27,32.08c2.75,2.01,7.11,8.26,7.79,11.38"/>
		<path id="kvg:060bc-s3" d="M25.12,13.75c1.06,1.06,1.21,2.5,1.21,4.25c0,0.86,0.12,53,0.12,73.75c0,3.97-0.07,6.25-0.07,7.38"/>
	</g>
	<g id="kvg:060bc-g2">
		<g id="kvg:060bc-g3">
			<path id="kvg:060bc-s4" d="M65.06,13.38c1.03,1.03,1.01,2.24,1.01,3.37c0,0.67,0,12.25,0,16.63"/>
			<path id="kvg:060bc-s5" d="M67.5,22.5c3.25-0.38,10.67-1.61,16.5-2.52c2.09-0.33,3.01-0.15,4.25-0.23"/>
		</g>
		<g id="kvg:060bc-g4">
			<g id="kvg:060bc-g5">
				<path id="kvg:060bc-s6" d="M47.16,35.17c0.96,0.96,1.35,1.79,1.57,3.36c0.34,2.44,1.5,13.22,2.1,19.21c0.23,2.24,0.38,3.8,0.38,4.01"/>
				<path id="kvg:060bc-s7" d="M49.36,37.11c5.2-0.85,26.85-3.86,34.89-4.35c3.43-0.21,5.5,0.97,4.62,4.61c-0.85,3.49-2.23,10.6-3.6,16.45c-0.36,1.54-0.72,2.99-1.07,4.26"/>
				<path id="kvg:060bc-s8" d="M51.14,47.81c8.61-1.06,28.61-2.93,35-3.22"/>
				<path id="kvg:060bc-s9" d="M52.13,58.86c10.49-0.99,23.99-2.24,31.66-2.33"/>
			</g>
			<g id="kvg:060bc-g6">
				<path id="kvg:060bc-s10" d="M36.88,75.71c3.25,0.66,6.53,0.59,9.51,0.2c12.61-1.66,35.01-3.75,46.23-4.29c2.66-0.13,5.66-0.02,8.25,0.58"/>
				<path id="kvg:060bc-s11" d="M66.98,61.25c1.07,1.07,1.22,2.5,1.22,3.99c0,0.89-0.02,17.39-0.02,27.63c0,2.4-0.04,4.42-0.06,5.76"/>
			</g>
		</g>
	</g>
</g>
</g>
<g id="kvg:StrokeNumbers_060bc">
	<text transform="matrix(1 0 0 1 10.50 33.50)">1</text>
	<text transform="matrix(1 0 0 1 30.50 29.50)">2</text>
	<text transform="matrix(1 0 0 1 15.50 13.63)">3</text>
	<text transform="matrix(1 0 0 1 55.50 13.50)">4</text>
	<text transform="matrix(1 0 0 1 70.50 18.13)">5</text>
	<text transform="matrix(1 0 0 1 42.75 50.50)">6</text>
	<text transform="matrix(1 0 0 1 50.25 33.13)">7</text>
	<text transform="matrix(1 0 0 1 54.50 44.50)">8</text>
	<text transform="matrix(1 0 0 1 55.50 55.48)">9</text>
	<text transform="matrix(1 0 0 1 35.50 72.50)">10</text>
	<text transform="matrix(1 0 0 1 57.50 67.63)">11</text>
</g>
</svg>
