<svg width="109" height="109" viewBox="0 0 109 109">
<g id="kvg:StrokePaths_060b8">
<g id="kvg:060b8">
	<g id="kvg:060b8-g1">
		<path id="kvg:060b8-s1" d="M15.22,36c0.03,4.31-2.47,14.14-4.69,17.5"/>
		<path id="kvg:060b8-s2" d="M30.02,33.08c2.31,2.01,5.97,8.26,6.54,11.38"/>
		<path id="kvg:060b8-s3" d="M21.87,14.25c1.09,0.5,1.74,2.25,1.96,3.25c0.22,1,0,73.75-0.22,80"/>
	</g>
	<g id="kvg:060b8-g2">
		<g id="kvg:060b8-g3">
			<g id="kvg:060b8-g4">
				<path id="kvg:060b8-s4" d="M80.34,11.25c0.1,0.27,0.21,0.69-0.2,1.06c-2.41,2.25-14.23,6.65-33.16,9.67"/>
			</g>
			<g id="kvg:060b8-g5">
				<path id="kvg:060b8-s5" d="M37.49,30.21c0.76,0.14,2.79,0.62,4.8,0.43c9.98-0.97,34.1-2.67,47.99-3.39c2.01-0.1,2.53-0.14,3.79,0"/>
				<path id="kvg:060b8-s6" d="M63.6,20.78c0.55,0.27,0.88,1.21,0.99,1.75c0.11,0.54,0,24.61-0.11,27.97"/>
				<path id="kvg:060b8-s7" d="M63.59,29.16c-5.56,7.92-16.52,19.24-27.43,24.16"/>
				<path id="kvg:060b8-s8" d="M64.83,29.52c4.12,2.94,22.95,16.82,27.43,19.71c1.52,0.98,2.82,1.4,4.33,1.68"/>
			</g>
		</g>
		<g id="kvg:060b8-g6">
			<path id="kvg:060b8-s9" d="M46.09,55.05c1.41,0.7,2.99,1.07,4.55,0.87c1.9-0.24,27-2.92,28.81-2.92c1.81,0,2.78,1.16,0.96,2.48c-1.81,1.32-12.64,7.92-17.24,10.31"/>
			<path id="kvg:060b8-s10" d="M61.7,65.04c5.55,5.71,8.93,16.17,5.29,28.1c-2.24,7.36-5.74,4.61-8.59,0.6"/>
			<path id="kvg:060b8-s11" d="M34.95,74.94c1.06,0.54,3.8,0.73,5.7,0.6c6.66-0.47,42.98-3.99,51.03-3.51c1.9,0.11,3.59,0.18,4.86,0.73"/>
		</g>
	</g>
</g>
</g>
<g id="kvg:StrokeNumbers_060b8">
	<text transform="matrix(1 0 0 1 9.25 35.50)">1</text>
	<text transform="matrix(1 0 0 1 27.50 29.50)">2</text>
	<text transform="matrix(1 0 0 1 13.25 13.50)">3</text>
	<text transform="matrix(1 0 0 1 70.50 8.50)">4</text>
	<text transform="matrix(1 0 0 1 34.50 26.50)">5</text>
	<text transform="matrix(1 0 0 1 56.25 26.50)">6</text>
	<text transform="matrix(1 0 0 1 50.50 37.50)">7</text>
	<text transform="matrix(1 0 0 1 77.50 35.50)">8</text>
	<text transform="matrix(1 0 0 1 50.50 52.50)">9</text>
	<text transform="matrix(1 0 0 1 51.50 68.50)">10</text>
	<text transform="matrix(1 0 0 1 32.50 70.50)">11</text>
</g>
</svg>
