<svg width="109" height="109" viewBox="0 0 109 109">
<g id="kvg:StrokePaths_060da">
<g id="kvg:060da">
	<g id="kvg:060da-g1">
		<path id="kvg:060da-s1" d="M15.7,39.75c0,5.7-2.9,14.12-3.65,15.75"/>
		<path id="kvg:060da-s2" d="M30.02,33.83c2.49,2.32,6.42,10.03,7.04,13.63"/>
		<path id="kvg:060da-s3" d="M23.62,13.5c1,1,1.21,2.12,1.21,3.5c0,0.83,0.02,48.19,0.03,69.88c0,5.14,0,8.83,0,10.12"/>
	</g>
	<g id="kvg:060da-g2">
		<g id="kvg:060da-g3">
			<g id="kvg:060da-g4">
				<g id="kvg:060da-g5">
					<path id="kvg:060da-s4" d="M58.65,13.25c-0.13,1.03-0.13,2.13-0.6,3.05c-3.8,7.45-7.92,14.07-14.45,21.53"/>
				</g>
				<path id="kvg:060da-s5" d="M55.35,27.31c2.21,0.37,4.42,0.4,6.64,0.09c6.35-0.87,20.12-2.86,25.27-3.4c4.64-0.48,5.73,1.4,5.01,5.76c-0.8,4.83-3.38,19.52-8.27,28.81c-2.32,4.42-4.54,8.01-8.84,4.11"/>
			</g>
			<g id="kvg:060da-g6">
				<path id="kvg:060da-s6" d="M61.9,30.55c0.06,0.95-0.13,1.82-0.55,2.62c-3.63,7.81-7.87,14.07-15.69,20.2"/>
			</g>
			<g id="kvg:060da-g7">
				<path id="kvg:060da-s7" d="M77.74,29.13c0.08,0.88,0.05,1.8-0.4,3.01c-2.96,7.98-11.09,23.23-25.67,33.61"/>
			</g>
		</g>
		<g id="kvg:060da-g8">
			<path id="kvg:060da-s8" d="M41.51,81.05c0.23,2.18-2.32,11.08-4.18,14.73"/>
			<path id="kvg:060da-s9" d="M50.55,75.58c5.17,11.22,13.35,20.96,33.29,21.1c9.62,0.07,10.25-2.99,2.22-8.1"/>
			<path id="kvg:060da-s10" d="M63.92,73.5c2.33,6.25,4.45,7.5,6.07,1.91"/>
			<path id="kvg:060da-s11" d="M83.45,71.48c5.17,2.89,10.17,7.02,12.28,10.95"/>
		</g>
	</g>
</g>
</g>
<g id="kvg:StrokeNumbers_060da">
	<text transform="matrix(1 0 0 1 9.50 38.63)">1</text>
	<text transform="matrix(1 0 0 1 31.25 31.50)">2</text>
	<text transform="matrix(1 0 0 1 13.50 13.50)">3</text>
	<text transform="matrix(1 0 0 1 50.50 12.50)">4</text>
	<text transform="matrix(1 0 0 1 61.50 24.50)">5</text>
	<text transform="matrix(1 0 0 1 52.50 36.50)">6</text>
	<text transform="matrix(1 0 0 1 68.50 36.50)">7</text>
	<text transform="matrix(1 0 0 1 35.50 82.60)">8</text>
	<text transform="matrix(1 0 0 1 46.50 85.50)">9</text>
	<text transform="matrix(1 0 0 1 54.25 76.45)">10</text>
	<text transform="matrix(1 0 0 1 75.00 76.50)">11</text>
</g>
</svg>
