<svg width="109" height="109" viewBox="0 0 109 109">
<g id="kvg:StrokePaths_060fb">
<g id="kvg:060fb">
	<g id="kvg:060fb-g1">
		<path id="kvg:060fb-s1" d="M16.22,37c0.03,4.31-2.47,14.14-4.69,17.5"/>
		<path id="kvg:060fb-s2" d="M30.77,32.58c1.69,2.27,4.37,9.35,4.79,12.88"/>
		<path id="kvg:060fb-s3" d="M22.37,14.75c1.09,0.5,1.74,2.25,1.96,3.25c0.22,1,0,70.75-0.22,77"/>
	</g>
	<g id="kvg:060fb-g2">
		<g id="kvg:060fb-g3">
			<g id="kvg:060fb-g4">
				<path id="kvg:060fb-s4" d="M42.83,17.93c0.3,1.25,0.74,2.17,0.74,3.83c0,1.66-0.1,50.72,0,52.38"/>
				<path id="kvg:060fb-s5" d="M44.07,19.94c1.7-0.21,14.66-2.86,16.21-3.11c1.29-0.21,2.31,1.16,2.2,2.7c-0.14,1.95-0.6,52.54-0.6,53.78"/>
				<path id="kvg:060fb-s6" d="M44.04,36.35c3.52-0.63,12.67-1.81,17.14-2.33"/>
				<path id="kvg:060fb-s7" d="M44.18,52.62c5.18-0.83,11.55-1.52,16.8-1.95"/>
				<path id="kvg:060fb-s8" d="M44.12,71.69c5.38-0.69,12.1-1.63,17.3-1.99"/>
			</g>
			<g id="kvg:060fb-g5">
				<path id="kvg:060fb-s9" d="M47.55,79.04c0.41,1.38,0.77,1.73,0,2.77c-3.46,4.67-9.56,10.52-14.51,14.12"/>
				<path id="kvg:060fb-s10" d="M58.32,79.79c3.27,3.84,7.13,10.81,8.02,14.17"/>
			</g>
		</g>
		<g id="kvg:060fb-g6">
			<path id="kvg:060fb-s11" d="M75.53,24.1c0.94,0.99,1.6,2.15,1.68,5.42c0.38,15.72-0.02,38.45-0.02,43.81"/>
			<path id="kvg:060fb-s12" d="M91.35,14.33c0.94,0.99,1.68,2.15,1.68,5.42c0,16-0.25,64.76-0.25,70.12c0,7.33-3.84,4.9-8.33,0.27"/>
		</g>
	</g>
</g>
</g>
<g id="kvg:StrokeNumbers_060fb">
	<text transform="matrix(1 0 0 1 11.50 33.50)">1</text>
	<text transform="matrix(1 0 0 1 28.50 29.50)">2</text>
	<text transform="matrix(1 0 0 1 14.25 14.05)">3</text>
	<text transform="matrix(1 0 0 1 36.25 25.50)">4</text>
	<text transform="matrix(1 0 0 1 45.50 16.50)">5</text>
	<text transform="matrix(1 0 0 1 47.75 32.50)">6</text>
	<text transform="matrix(1 0 0 1 47.75 49.50)">7</text>
	<text transform="matrix(1 0 0 1 47.75 68.50)">8</text>
	<text transform="matrix(1 0 0 1 39.50 82.28)">9</text>
	<text transform="matrix(1 0 0 1 51.50 87.50)">10</text>
	<text transform="matrix(1 0 0 1 69.50 20.50)">11</text>
	<text transform="matrix(1 0 0 1 78.50 13.50)">12</text>
</g>
</svg>
