<svg width="109" height="109" viewBox="0 0 109 109">
<g id="kvg:StrokePaths_06106">
<g id="kvg:06106">
	<g id="kvg:06106-g1">
		<g id="kvg:06106-g2">
			<g id="kvg:06106-g3">
				<path id="kvg:06106-s1" d="M32.85,12.5c0.05,0.39,0.23,1.08-0.09,1.55c-2.26,3.35-8.19,9.17-16.48,14.84"/>
				<g id="kvg:06106-g4">
					<path id="kvg:06106-s2" d="M39.61,25.4c0.07,0.52,0.23,1.43-0.13,2.1c-2.88,5.42-11.46,12.76-23.21,20.11"/>
					<path id="kvg:06106-s3" d="M29.18,40.22c0.25,0.18,0.86,1.59,0.91,1.96c0.05,0.37,0,20.52-0.05,22.82"/>
				</g>
			</g>
		</g>
		<g id="kvg:06106-g5">
			<path id="kvg:06106-s4" d="M46.95,13.57c2.94,1.08,7.6,4.42,8.34,6.1"/>
			<path id="kvg:06106-s5" d="M46.92,30.42c2.91,1.06,7.52,4.37,8.25,6.03"/>
			<path id="kvg:06106-s6" d="M44.3,58.28c1.68,0.85,3.7,0.89,4.75-0.17c3.08-3.07,6.15-6.83,8.95-10.75"/>
		</g>
		<g id="kvg:06106-g6">
			<g id="kvg:06106-g7">
				<path id="kvg:06106-s7" d="M64.89,17.07c0.61,0.3,3.23,0.82,3.83,0.71c4.73-0.83,15.09-3.01,17.92-2.88c1.02,0.05,1.63,0.14,2.14,0.29"/>
				<path id="kvg:06106-s8" d="M61.86,30.91c1.39,0.34,2.87,0.7,4.06,0.67C69.5,31.5,87,29,92.69,28.6c1.98-0.14,3.17,0.08,4.16,0.17"/>
				<path id="kvg:06106-s9" d="M78.74,32.49c0.51,0.51,1.42,1.3,1.48,3.49c0.32,10.52-0.2,18.96-0.2,22.54c0,5.81-5.65-0.36-6.82-1.27"/>
			</g>
		</g>
	</g>
	<g id="kvg:06106-g8">
		<path id="kvg:06106-s10" d="M26.31,81.38c0.46,2.25-4.61,12.17-8.31,15.92"/>
		<path id="kvg:06106-s11" d="M35.5,73.82c6.51,12.99,16.81,24.27,41.93,24.43c12.12,0.08,12.91-3.47,2.8-9.38"/>
		<path id="kvg:06106-s12" d="M56.33,72.32c2.17,5.25,5.82,9.5,8.13,1.46"/>
		<path id="kvg:06106-s13" d="M81.8,70.3c5.21,2.07,9.12,3.96,13.35,10.36"/>
	</g>
</g>
</g>
<g id="kvg:StrokeNumbers_06106">
	<text transform="matrix(1 0 0 1 25.50 12.50)">1</text>
	<text transform="matrix(1 0 0 1 31.50 26.50)">2</text>
	<text transform="matrix(1 0 0 1 23.50 52.50)">3</text>
	<text transform="matrix(1 0 0 1 41.50 10.50)">4</text>
	<text transform="matrix(1 0 0 1 45.50 27.50)">5</text>
	<text transform="matrix(1 0 0 1 37.50 61.50)">6</text>
	<text transform="matrix(1 0 0 1 63.50 13.50)">7</text>
	<text transform="matrix(1 0 0 1 60.50 27.50)">8</text>
	<text transform="matrix(1 0 0 1 72.50 41.50)">9</text>
	<text transform="matrix(1 0 0 1 17.50 78.95)">10</text>
	<text transform="matrix(1 0 0 1 29.50 85.50)">11</text>
	<text transform="matrix(1 0 0 1 45.50 75.50)">12</text>
	<text transform="matrix(1 0 0 1 70.50 74.50)">13</text>
</g>
</svg>
