<svg width="109" height="109" viewBox="0 0 109 109">
<g id="kvg:StrokePaths_06101">
<g id="kvg:06101">
	<g id="kvg:06101-g1">
		<g id="kvg:06101-g2">
			<g id="kvg:06101-g3">
				<path id="kvg:06101-s1" d="M41.67,11.16c-0.05,0.71-0.64,1.58-1.27,2c-2.63,2.41-9.9,6.11-20.84,8.78"/>
			</g>
			<g id="kvg:06101-g4">
				<path id="kvg:06101-s2" d="M14.62,32.95c1.76,0.43,3.44,0.42,4.9,0.3c5.79-0.49,18.57-2.25,24.9-3.04c1.04-0.13,2.52-0.5,3.61-0.23"/>
				<path id="kvg:06101-s3" d="M35.33,19.16c0.69,0.69,1.03,1.84,1.03,3.14c0,0.46,0.02,23.77-0.03,35.44c-0.01,3.21-0.03,5.55-0.04,6.34"/>
				<path id="kvg:06101-s4" d="M35.39,33.38c0,1.24-1.26,3.38-2.17,4.64c-4.1,5.72-7.97,10.72-14.97,16.5"/>
				<path id="kvg:06101-s5" d="M39.14,38.61c3.74,2.11,6.91,6.32,8.93,9.02"/>
			</g>
		</g>
		<g id="kvg:06101-g5">
			<path id="kvg:06101-s6" d="M53.88,23.87c1.63,2.37,4,9.07,4.44,11.44"/>
			<path id="kvg:06101-s7" d="M87.26,20.23c-0.01,0.9-0.18,1.8-1.12,2.7c-2.52,2.44-8.4,7.32-13.43,10.2"/>
			<path id="kvg:06101-s8" d="M68.3,10.89c0.84,0.84,1.09,2.08,1.1,2.9c0.29,21.19-1.52,37.45-17.35,47.41"/>
			<path id="kvg:06101-s9" d="M68.7,36.35c5.8,7.4,11.05,13.03,16.62,17.98c2.5,2.23,4.69,3.8,7.69,5.1"/>
		</g>
	</g>
	<g id="kvg:06101-g6">
		<path id="kvg:06101-s10" d="M23.65,76.82c0.32,2.28-3.23,12.36-5.82,16.17"/>
		<path id="kvg:06101-s11" d="M35.58,74.75c6.99,12.06,18.03,22.53,44.97,22.68c12.99,0.07,13.84-3.47,3-8.96"/>
		<path id="kvg:06101-s12" d="M54.41,70.25c1.77,4.95,4.36,9.9,6.26,2.32"/>
		<path id="kvg:06101-s13" d="M77.13,67.23c5.5,1.77,9.63,3.38,14.1,8.86"/>
	</g>
</g>
</g>
<g id="kvg:StrokeNumbers_06101">
	<text transform="matrix(1 0 0 1 33.75 10.63)">1</text>
	<text transform="matrix(1 0 0 1 7.50 34.50)">2</text>
	<text transform="matrix(1 0 0 1 29.50 27.50)">3</text>
	<text transform="matrix(1 0 0 1 23.50 42.50)">4</text>
	<text transform="matrix(1 0 0 1 43.50 39.50)">5</text>
	<text transform="matrix(1 0 0 1 51.50 20.50)">6</text>
	<text transform="matrix(1 0 0 1 79.50 20.50)">7</text>
	<text transform="matrix(1 0 0 1 62.50 7.50)">8</text>
	<text transform="matrix(1 0 0 1 80.25 42.13)">9</text>
	<text transform="matrix(1 0 0 1 14.50 75.13)">10</text>
	<text transform="matrix(1 0 0 1 28.50 83.50)">11</text>
	<text transform="matrix(1 0 0 1 44.50 72.50)">12</text>
	<text transform="matrix(1 0 0 1 66.75 72.50)">13</text>
</g>
</svg>
