<svg width="109" height="109" viewBox="0 0 109 109">
<g id="kvg:StrokePaths_06115">
<g id="kvg:06115">
	<g id="kvg:06115-g1">
		<path id="kvg:06115-s1" d="M16.47,36.25C16.5,40.38,14.4,49.79,12.53,53"/>
		<path id="kvg:06115-s2" d="M31.77,32.83c1.87,1.96,4.83,8.08,5.29,11.13"/>
		<path id="kvg:06115-s3" d="M22.37,13.25c1.09,0.5,1.74,2.25,1.96,3.25c0.22,1,0,74.75-0.22,81"/>
	</g>
	<g id="kvg:06115-g2">
		<g id="kvg:06115-g3">
			<g id="kvg:06115-g4">
				<path id="kvg:06115-s4" d="M41.92,15.45c0.27,0.32,0.92,1.54,1.04,1.94c0.94,3.17,2.74,9.41,3.38,15.1"/>
				<path id="kvg:06115-s5" d="M43.61,17.6c7.67-1.85,15.44-3.22,16.77-3.4c1.16-0.15,1.86,0.9,1.7,1.8c-0.69,3.7-1.49,8.17-2.52,13.29"/>
				<path id="kvg:06115-s6" d="M47.07,30.73c3.74-0.47,9.49-0.78,14.62-1.51"/>
			</g>
			<g id="kvg:06115-g5">
				<path id="kvg:06115-s7" d="M69.42,15.06c0.32,0.32,0.64,0.59,0.78,0.99c1.09,3.17,1.7,8.33,2.45,14.03"/>
				<path id="kvg:06115-s8" d="M70.72,16.18c7.58-1.73,14.12-2.53,17.83-2.94c1.35-0.15,2.17,0.9,1.97,1.8c-0.8,3.7-1.62,6.22-2.81,11.34"/>
				<path id="kvg:06115-s9" d="M72.79,28.84c4.35-0.47,10.73-0.78,16.7-1.51"/>
			</g>
		</g>
		<g id="kvg:06115-g6">
			<g id="kvg:06115-g7">
				<g id="kvg:06115-g8">
					<path id="kvg:06115-s10" d="M49.54,40.07c0.79,0.42,2.25,0.42,3.05,0.42c7.16,0.01,23.66-1.99,28.86-2.14c1.33-0.04,2.12,0.2,2.79,0.41"/>
				</g>
				<g id="kvg:06115-g9">
					<path id="kvg:06115-s11" d="M39.83,52.95c1.41,0.4,4,0.49,5.4,0.4c14.09-0.92,30.35-2.79,45.84-3.34c2.34-0.08,3.76,0.19,4.93,0.39"/>
				</g>
			</g>
			<path id="kvg:06115-s12" d="M59.36,53.16c1,1.43,1.46,2.34,0.68,3.85c-0.62,1.21-4.73,8.84-5.13,9.43c-1.6,2.36-0.54,2.97,1.57,2.99c1.33,0.02,21.7-3.26,25.1-3.91c2.65-0.51,4.08,0.71,3.79,3.28C84.58,75.91,80.5,87,73.66,94.61c-3.72,4.13-7.62-1.21-8.5-2.46"/>
		</g>
	</g>
</g>
</g>
<g id="kvg:StrokeNumbers_06115">
	<text transform="matrix(1 0 0 1 11.50 34.50)">1</text>
	<text transform="matrix(1 0 0 1 29.50 29.50)">2</text>
	<text transform="matrix(1 0 0 1 13.50 13.50)">3</text>
	<text transform="matrix(1 0 0 1 36.50 23.50)">4</text>
	<text transform="matrix(1 0 0 1 45.50 13.33)">5</text>
	<text transform="matrix(1 0 0 1 49.50 27.50)">6</text>
	<text transform="matrix(1 0 0 1 65.50 23.50)">7</text>
	<text transform="matrix(1 0 0 1 71.50 12.80)">8</text>
	<text transform="matrix(1 0 0 1 75.50 25.72)">9</text>
	<text transform="matrix(1 0 0 1 39.50 41.50)">10</text>
	<text transform="matrix(1 0 0 1 39.50 50.50)">11</text>
	<text transform="matrix(1 0 0 1 46.50 63.50)">12</text>
</g>
</svg>
