<svg width="109" height="109" viewBox="0 0 109 109">
<g id="kvg:StrokePaths_0616b">
<g id="kvg:0616b">
	<g id="kvg:0616b-g1">
		<g id="kvg:0616b-g2">
			<path id="kvg:0616b-s1" d="M33.3,12.25c0.05,0.37,0.24,1.03-0.1,1.48c-2.36,3.2-9.47,10.93-16.4,14.19"/>
			<g id="kvg:0616b-g3">
				<path id="kvg:0616b-s2" d="M34.9,28.17c0.06,0.56,0.28,1.54-0.11,2.23c-2.75,4.81-10.33,14.45-20.04,21.32"/>
				<path id="kvg:0616b-s3" d="M28.67,41.49c0.35,0.17,1.03,1.12,1.1,1.47c0.07,0.35,0,23.36-0.07,25.54"/>
			</g>
		</g>
		<g id="kvg:0616b-g4">
			<g id="kvg:0616b-g5">
				<g id="kvg:0616b-g6">
					<path id="kvg:0616b-s4" d="M54.45,11.42c0,0.56,0.03,1-0.1,1.67c-0.66,3.48-6.95,15.07-12.34,20.21"/>
					<path id="kvg:0616b-s5" d="M53.7,21.62c2.68,1.24,6.11,4.55,7.42,7.68"/>
				</g>
				<g id="kvg:0616b-g7">
					<path id="kvg:0616b-s6" d="M79.22,10.26c0,0.53,0.03,0.95-0.1,1.59c-0.67,3.32-7.1,14.38-12.59,19.29"/>
					<path id="kvg:0616b-s7" d="M76.33,21.93c3.83,1.6,8.73,5.85,10.59,9.89"/>
				</g>
			</g>
			<g id="kvg:0616b-g8">
				<path id="kvg:0616b-s8" d="M62.38,37.4c0.38,0.31,1.26,1.69,1.26,2.32c0,4.26,0.34,15.03,0.27,18.93"/>
				<path id="kvg:0616b-s9" d="M85.46,43.89c-1.24,0-2.73,0.01-4.31,0.21c-7.45,0.92-15.95,2.04-17.16,2.04"/>
				<path id="kvg:0616b-s10" d="M49.95,40.32c0.07,0.53,0.5,1.36,0.34,2.13c-1.41,6.7-3.79,14.29-13.21,24.46"/>
				<path id="kvg:0616b-s11" d="M46.97,53.65c11.41,2.62,30.97,10.47,38.42,11.82c2.36,0.43,4.33,0.83,6.61,1"/>
			</g>
		</g>
	</g>
	<g id="kvg:0616b-g9">
		<path id="kvg:0616b-s12" d="M23.81,81.88c0.4,2.25-4.06,12.17-7.31,15.92"/>
		<path id="kvg:0616b-s13" d="M34.5,76.82c6.7,11.93,17.3,22.29,43.14,22.43c12.47,0.07,13.28-3.18,2.88-8.61"/>
		<path id="kvg:0616b-s14" d="M55.33,75.32c2.17,5.25,5.32,10.5,7.63,2.46"/>
		<path id="kvg:0616b-s15" d="M80.55,74.8c5.7,2.07,9.97,3.96,14.6,10.36"/>
	</g>
</g>
</g>
<g id="kvg:StrokeNumbers_0616b">
	<text transform="matrix(1 0 0 1 25.50 12.50)">1</text>
	<text transform="matrix(1 0 0 1 26.50 30.50)">2</text>
	<text transform="matrix(1 0 0 1 23.25 54.50)">3</text>
	<text transform="matrix(1 0 0 1 46.50 11.50)">4</text>
	<text transform="matrix(1 0 0 1 58.50 21.33)">5</text>
	<text transform="matrix(1 0 0 1 71.50 10.50)">6</text>
	<text transform="matrix(1 0 0 1 82.50 22.50)">7</text>
	<text transform="matrix(1 0 0 1 53.50 37.50)">8</text>
	<text transform="matrix(1 0 0 1 68.50 42.50)">9</text>
	<text transform="matrix(1 0 0 1 39.50 42.50)">10</text>
	<text transform="matrix(1 0 0 1 53.25 52.50)">11</text>
	<text transform="matrix(1 0 0 1 14.50 79.50)">12</text>
	<text transform="matrix(1 0 0 1 28.50 89.50)">13</text>
	<text transform="matrix(1 0 0 1 45.25 74.50)">14</text>
	<text transform="matrix(1 0 0 1 69.50 77.50)">15</text>
</g>
</svg>
