<svg width="109" height="109" viewBox="0 0 109 109">
<g id="kvg:StrokePaths_061ab">
<g id="kvg:061ab">
	<g id="kvg:061ab-g1">
		<path id="kvg:061ab-s1" d="M16.72,36.5c0.03,4.19-2.21,13.74-4.19,17"/>
		<path id="kvg:061ab-s2" d="M29.52,32.58c2.13,1.92,5.51,7.9,6.04,10.88"/>
		<path id="kvg:061ab-s3" d="M23.87,14.25c1.09,0.5,1.74,2.25,1.96,3.25c0.22,1,0,73.75-0.22,80"/>
	</g>
	<g id="kvg:061ab-g2">
		<g id="kvg:061ab-g3">
			<g id="kvg:061ab-g4">
				<path id="kvg:061ab-s4" d="M40.89,17.54c0.54,0.4,1.68,3.01,1.78,3.82c0.11,0.81-0.07,70.25-0.18,75.28"/>
				<path id="kvg:061ab-s5" d="M42.82,18.96c1.79-0.09,14.15-1.88,15.78-1.98c1.36-0.09,2.06,0.79,2.13,1.48c0.1,1.07-0.63,19.85-0.63,20.38"/>
				<path id="kvg:061ab-s6" d="M43.14,28.33c4.39-0.51,12.7-1.34,16.93-1.89"/>
				<path id="kvg:061ab-s7" d="M42.82,38.75c5.95-1,11.56-1.26,16.83-1.72"/>
			</g>
			<g id="kvg:061ab-g5">
				<path id="kvg:061ab-s8" d="M70.99,15.48c0.31,0.47,0.62,1.46,0.62,2.08c0,0.62-0.1,18.71,0,19.33"/>
				<path id="kvg:061ab-s9" d="M72.11,16.44c1.74-0.09,16.24-2.35,17.83-2.45c1.32-0.09,2.56,0.76,2.57,2.51c0.06,16.38-0.35,61.1-0.35,72.98c0,9.77-5.89,0.55-6.9-0.54"/>
				<path id="kvg:061ab-s10" d="M72.42,25.33c2.35,0,16.3-1.89,18.96-1.89"/>
				<path id="kvg:061ab-s11" d="M72.11,35.04c3.48,0,14.57-1.73,19.07-1.73"/>
			</g>
		</g>
		<g id="kvg:061ab-g6">
			<g id="kvg:061ab-g7">
				<path id="kvg:061ab-s12" d="M65.56,41.5c0.59,0.37,1.56,1.8,1.56,2.54c0,2.91-0.02,4.45-0.08,6.54"/>
				<path id="kvg:061ab-s13" d="M51,52.79c0.89,0.07,2.92,0.47,3.78,0.36C63.75,52,71.5,50.35,79.8,49.9c1.46-0.08,1.95-0.09,3.7-0.09"/>
			</g>
			<g id="kvg:061ab-g8">
				<path id="kvg:061ab-s14" d="M75.13,53.66c0.32,0.67,0.48,1.11,0.16,2.39C72.25,68,64.25,78.5,50.13,84"/>
				<path id="kvg:061ab-s15" d="M57.21,61.2c8.69,3.96,18.05,12.82,22.54,18.79"/>
			</g>
		</g>
	</g>
</g>
</g>
<g id="kvg:StrokeNumbers_061ab">
	<text transform="matrix(1 0 0 1 11.50 35.50)">1</text>
	<text transform="matrix(1 0 0 1 29.50 29.50)">2</text>
	<text transform="matrix(1 0 0 1 16.25 14.50)">3</text>
	<text transform="matrix(1 0 0 1 33.50 18.50)">4</text>
	<text transform="matrix(1 0 0 1 43.50 15.50)">5</text>
	<text transform="matrix(1 0 0 1 47.50 26.50)">6</text>
	<text transform="matrix(1 0 0 1 47.50 36.50)">7</text>
	<text transform="matrix(1 0 0 1 64.50 22.50)">8</text>
	<text transform="matrix(1 0 0 1 74.50 13.50)">9</text>
	<text transform="matrix(1 0 0 1 74.75 23.70)">10</text>
	<text transform="matrix(1 0 0 1 75.50 32.13)">11</text>
	<text transform="matrix(1 0 0 1 56.50 45.50)">12</text>
	<text transform="matrix(1 0 0 1 47.50 49.48)">13</text>
	<text transform="matrix(1 0 0 1 63.50 59.50)">14</text>
	<text transform="matrix(1 0 0 1 46.50 64.50)">15</text>
</g>
</svg>
