<svg width="109" height="109" viewBox="0 0 109 109">
<g id="kvg:StrokePaths_0620a">
<g id="kvg:0620a">
	<g id="kvg:0620a-g1">
		<g id="kvg:0620a-g2">
			<path id="kvg:0620a-s1" d="M26.01,36.39c0.74,1.11,1.46,2.42,1.42,4.33c-0.34,17.81-4.41,44.46-13.12,52.75"/>
		</g>
	</g>
	<g id="kvg:0620a-g3">
		<g id="kvg:0620a-g4">
			<g id="kvg:0620a-g5">
				<path id="kvg:0620a-s2" d="M26.75,37.2c2.75-0.2,5.33-0.66,6.82-0.96c8.68-1.74,33.68-5.99,47.11-7.23c2.52-0.23,4.05,0.26,5.31,0.53"/>
			</g>
			<path id="kvg:0620a-s3" d="M53.75,11c1.72,1.84,2.51,2.34,2.79,6.29C58.75,48.25,69,81,89.25,93.25c6.69,4.05,5.71,1.46,4.85-6.67"/>
		</g>
		<g id="kvg:0620a-g6">
			<path id="kvg:0620a-s4" d="M81.44,44.39c0.12,1.03,0.25,2.66-0.23,4.13c-2.84,8.71-16.33,29.49-38.65,41.19"/>
		</g>
		<g id="kvg:0620a-g7">
			<g id="kvg:0620a-g8">
				<path id="kvg:0620a-s5" d="M71.75,11.75c4.24,1.65,11.02,5.42,13,8.25"/>
			</g>
		</g>
	</g>
</g>
</g>
<g id="kvg:StrokeNumbers_0620a">
	<text transform="matrix(1 0 0 1 20.50 45.50)">1</text>
	<text transform="matrix(1 0 0 1 27.75 33.50)">2</text>
	<text transform="matrix(1 0 0 1 44.50 11.50)">3</text>
	<text transform="matrix(1 0 0 1 73.50 43.50)">4</text>
	<text transform="matrix(1 0 0 1 66.50 8.50)">5</text>
</g>
</svg>
