<svg width="109" height="109" viewBox="0 0 109 109">
<g id="kvg:StrokePaths_06208">
<g id="kvg:06208">
	<g id="kvg:06208-g1">
		<path id="kvg:06208-s1" d="M15.75,39.45c2.85,0.72,5.68,0.77,8.5,0.16c13.53-1.89,45.83-5.57,59.76-6.49c2.34-0.23,4.67-0.09,6.99,0.43"/>
		<path id="kvg:06208-s2" d="M45.5,11.75c2,1.75,2.58,3.49,3,7.25C52,50.5,64.25,80.25,88.75,92c7.86,3.77,6.75,0.75,5.75-7"/>
	</g>
	<g id="kvg:06208-g2">
		<path id="kvg:06208-s3" d="M77.68,42.89c0.34,2,0.09,3.87-0.8,5.58c-5.16,9.94-22.48,29.14-46.82,40.74"/>
	</g>
	<g id="kvg:06208-g3">
		<g id="kvg:06208-g4">
			<path id="kvg:06208-s4" d="M67.25,12.5c3.18,2,8.27,6.57,9.75,10"/>
		</g>
	</g>
</g>
</g>
<g id="kvg:StrokeNumbers_06208">
	<text transform="matrix(1 0 0 1 8.25 39.50)">1</text>
	<text transform="matrix(1 0 0 1 35.50 12.50)">2</text>
	<text transform="matrix(1 0 0 1 70.50 45.50)">3</text>
	<text transform="matrix(1 0 0 1 58.50 12.50)">4</text>
</g>
</svg>
