<svg width="109" height="109" viewBox="0 0 109 109">
<g id="kvg:StrokePaths_0620d">
<g id="kvg:0620d">
	<g id="kvg:0620d-g1">
		<g id="kvg:0620d-g2">
			<path id="kvg:0620d-s1" d="M25.76,35.64c0.99,0.99,1.2,2.85,1.15,4.86c-0.41,18.75-5.41,45.75-16.1,54.47"/>
		</g>
		<g id="kvg:0620d-g3">
			<g id="kvg:0620d-g4">
				<g id="kvg:0620d-g5">
					<path id="kvg:0620d-s2" d="M22.75,33.7c2.66,0.58,5.32,0.7,7.99,0.37c9.35-0.78,34.33-3.32,49.51-3.97c2.6-0.21,5.18-0.06,7.75,0.44"/>
				</g>
			</g>
		</g>
		<g id="kvg:0620d-g6">
			<g id="kvg:0620d-g7">
				<path id="kvg:0620d-s3" d="M37.75,54.75c2.75,1.5,7.75,8,10.25,14"/>
			</g>
		</g>
		<g id="kvg:0620d-g8">
			<g id="kvg:0620d-g9">
				<path id="kvg:0620d-s4" d="M53.75,11c1.72,1.84,2.29,3.34,2.54,7.29C58.38,51.25,69.5,80.75,89.75,93c6.69,4.05,5.71,2.71,4.85-5.42"/>
			</g>
			<g id="kvg:0620d-g10">
				<path id="kvg:0620d-s5" d="M82.21,42.14c0.29,1.23,0.12,2.94-0.46,4.5c-3.62,9.73-15.5,31.23-35.19,44.58"/>
			</g>
			<g id="kvg:0620d-g11">
				<g id="kvg:0620d-g12">
					<path id="kvg:0620d-s6" d="M73.25,11.5c3.1,2,8.05,6.57,9.5,10"/>
				</g>
			</g>
		</g>
	</g>
</g>
</g>
<g id="kvg:StrokeNumbers_0620d">
	<text transform="matrix(1 0 0 1 20.50 43.50)">1</text>
	<text transform="matrix(1 0 0 1 26.50 30.13)">2</text>
	<text transform="matrix(1 0 0 1 32.50 51.50)">3</text>
	<text transform="matrix(1 0 0 1 44.50 12.50)">4</text>
	<text transform="matrix(1 0 0 1 72.75 44.83)">5</text>
	<text transform="matrix(1 0 0 1 64.50 11.50)">6</text>
</g>
</svg>
