<svg width="109" height="109" viewBox="0 0 109 109">
<g id="kvg:StrokePaths_06238">
<g id="kvg:06238">
	<path id="kvg:06238-s1" d="M28.5,19.26c1.59,0.3,5.35,0.4,6.94,0.3c13.97-0.93,25.81-2.56,39.36-3.15c2.65-0.12,5.37,0.14,6.69,0.29"/>
	<path id="kvg:06238-s2" d="M30.85,36.13C32,36.5,33.73,36.87,36,36.65c10.62-1.03,31.64-3.23,39-3.9c1.99-0.18,4,1.25,3.25,4c-1.05,3.85-2.66,11.55-3.94,17.02"/>
	<path id="kvg:06238-s3" d="M35.5,57.25c6.5-0.38,23.02-1.64,35.5-2.12c2.15-0.08,4.03-0.13,5.5-0.13"/>
	<path id="kvg:06238-s4" d="M33.44,37.18c1.06,1.32,1.13,2.49,1.15,4.45C34.75,66.25,24.75,89,15.25,94.75"/>
</g>
</g>
<g id="kvg:StrokeNumbers_06238">
	<text transform="matrix(1 0 0 1 21.75 19.63)">1</text>
	<text transform="matrix(1 0 0 1 38.25 33.13)">2</text>
	<text transform="matrix(1 0 0 1 39.75 54.13)">3</text>
	<text transform="matrix(1 0 0 1 23.25 42.13)">4</text>
</g>
</svg>
