<svg width="109" height="109" viewBox="0 0 109 109">
<g id="kvg:StrokePaths_0623b">
<g id="kvg:0623b">
	<g id="kvg:0623b-g1">
		<path id="kvg:0623b-s1" d="M22.98,16.05c2.99,0.94,6.34,0.84,9.4,0.62c12.75-0.92,28.5-2.3,44.01-3.48c2.9-0.22,5.61-0.38,8.5,0.17"/>
		<path id="kvg:0623b-s2" d="M27.65,30.78c2.54,0.83,5.71,0.9,8.35,0.57c11.33-1.41,26.88-3.72,38.58-4.36c2.26-0.12,4.35,1.37,3.68,4.52c-0.88,4.11-1.38,6.11-2.34,10.08"/>
		<path id="kvg:0623b-s3" d="M32.62,46.84c1.27,0,25.25-2.46,40.88-4.11c2.4-0.25,4.52-0.2,6.18-0.2"/>
		<path id="kvg:0623b-s4" d="M30.41,32.25c0.98,0.98,1.24,2.28,1.18,4.4c-0.72,25.22-7.72,46.72-20.84,57.72"/>
	</g>
	<g id="kvg:0623b-g2">
		<path id="kvg:0623b-s5" d="M34.14,66.22c2.86,0.66,5.34,0.51,7.76,0.26c11.91-1.25,25.23-3.13,36.11-3.85c2.64-0.17,5.28-0.33,7.89,0.15"/>
		<path id="kvg:0623b-s6" d="M57.11,51.25c0.54,0.65,0.82,1.65,0.81,3.06c-0.26,24.35-13.77,37.45-35.17,44.93"/>
		<path id="kvg:0623b-s7" d="M58.51,65.38c6.62,8.25,15.24,18.25,24.86,25.93c2.64,2.11,5.17,3.59,8.13,5.19"/>
	</g>
</g>
</g>
<g id="kvg:StrokeNumbers_0623b">
	<text transform="matrix(1 0 0 1 24.50 13.25)">1</text>
	<text transform="matrix(1 0 0 1 29.25 28.30)">2</text>
	<text transform="matrix(1 0 0 1 36.50 43.23)">3</text>
	<text transform="matrix(1 0 0 1 23.25 41.25)">4</text>
	<text transform="matrix(1 0 0 1 34.25 62.88)">5</text>
	<text transform="matrix(1 0 0 1 48.50 54.25)">6</text>
	<text transform="matrix(1 0 0 1 69.25 74.25)">7</text>
</g>
</svg>
