<svg width="109" height="109" viewBox="0 0 109 109">
<g id="kvg:StrokePaths_0624e">
<g id="kvg:0624e">
	<g id="kvg:0624e-g1">
		<path id="kvg:0624e-s1" d="M13.5,35.47c2,0.78,2.21,0.92,4.84,0.7c6.83-0.59,18.74-2.47,30.11-3.39"/>
		<path id="kvg:0624e-s2" d="M31.33,14c0.5,0.95,1.73,2.58,1.82,5.72c0.42,15.1,0.25,65.28,0.25,70.42c0,14.78-6.56,3.66-8.05,2.07"/>
		<path id="kvg:0624e-s3" d="M12.5,67.38c2.76,1.84,4.53,1,7.29-0.58c1.63-0.93,19.56-12.17,26.46-16.63"/>
	</g>
	<g id="kvg:0624e-g2">
		<path id="kvg:0624e-s4" d="M60.49,14.37c0.83,0.92,1.69,2.72,1.73,4.65c0.17,8.6-0.45,60.04-0.45,65.89c0,10.77,3.11,12.11,17.9,12.11c11.97,0,13.48-4.16,13.48-11.09"/>
	</g>
</g>
</g>
<g id="kvg:StrokeNumbers_0624e">
	<text transform="matrix(1 0 0 1 7.50 35.50)">1</text>
	<text transform="matrix(1 0 0 1 22.50 13.30)">2</text>
	<text transform="matrix(1 0 0 1 4.50 70.50)">3</text>
	<text transform="matrix(1 0 0 1 51.50 14.50)">4</text>
</g>
</svg>
