<svg width="109" height="109" viewBox="0 0 109 109">
<g id="kvg:StrokePaths_0624b">
<g id="kvg:0624b">
	<path id="kvg:0624b-s1" d="M61.48,11.5c0.02,1-0.61,1.88-1.67,2.9c-3.27,3.15-13.69,8.23-28.57,11.85"/>
	<path id="kvg:0624b-s2" d="M26.38,42.92c1.8,0.46,3.61,0.67,5.68,0.38C46,41.38,58.4,39,71.37,37.75c1.92-0.19,4.62-0.38,7.25,0.04"/>
	<path id="kvg:0624b-s3" d="M13.27,62.87c2.71,0.63,4.86,0.6,7.22,0.38c22.63-2.12,46.13-5.62,67.7-7c2.01-0.13,4.83,0,7.46,0.37"/>
	<path id="kvg:0624b-s4" d="M48.88,23.55C60.38,31,62.73,63.66,57.83,89.87c-2.08,11.13-8.64,2.34-9.89,1.17"/>
</g>
</g>
<g id="kvg:StrokeNumbers_0624b">
	<text transform="matrix(1 0 0 1 53.50 11.50)">1</text>
	<text transform="matrix(1 0 0 1 17.50 45.50)">2</text>
	<text transform="matrix(1 0 0 1 5.50 66.50)">3</text>
	<text transform="matrix(1 0 0 1 44.50 32.50)">4</text>
</g>
</svg>
