<svg width="109" height="109" viewBox="0 0 109 109">
<g id="kvg:StrokePaths_0624c">
<g id="kvg:0624c">
	<path id="kvg:0624c-s1" d="M35.25,31.29c2.5,1.03,4.77,0.9,7.27,0.39c6.11-1.23,14.98-3.43,23.25-5.1c2.08-0.42,4.98-0.63,6.98-0.13"/>
	<path id="kvg:0624c-s2" d="M54.77,7.28c1.2,1.2,1.76,3.04,1.76,5.52c0,14.56-0.01,70.41-0.01,75.37c0,11.16-6.52,3.41-10.21,0"/>
	<path id="kvg:0624c-s3" d="M33.5,64.8c2.12,1.39,4.6,1.29,7.19-0.64c8.19-6.09,18.56-13.84,28.56-21.34"/>
</g>
</g>
<g id="kvg:StrokeNumbers_0624c">
	<text transform="matrix(1 0 0 1 27.25 30.70)">1</text>
	<text transform="matrix(1 0 0 1 48 8)">2</text>
	<text transform="matrix(1 0 0 1 25.25 64.70)">3</text>
</g>
</svg>
