<svg width="109" height="109" viewBox="0 0 109 109">
<g id="kvg:StrokePaths_06241">
<g id="kvg:06241">
	<g id="kvg:06241-g1">
		<path id="kvg:06241-s1" d="M84.13138,8.8056671 C 73.52138,13.905667 43.8626,16.898518 29.6126,18.398518"/>
		<path id="kvg:06241-s2" d="M 28.94,18.13268 c 0.05,1.36 -0.12,3.49 -0.1,5.45 C 29,48.20268 22.75,79.25 12.25,89.25"/>
		<path id="kvg:06241-s3" d="M 29.702908,31.38 C 40.102908,32.25 70.75,29 81.5,28.25 c 2,-0.14 4,1.75 3.25,4.5 -1.33,4.87 -2.25,6.5 -4,11.25"/>
		<path id="kvg:06241-s4" d="M 28.377138,47.25 C 36.627138,47.25 69.75,45 84.25,44.5"/>
	</g>
	<g id="kvg:06241-g2">
		<g id="kvg:06241-g3">
			<path id="kvg:06241-s5" d="M32.58,57.71c0.56,0.64,0.93,1.66,0.74,2.81c-0.19,1.15,2.19,34.55,2.19,36.47"/>
			<path id="kvg:06241-s6" d="M33.83,60.49c7.07-0.51,48.84-3.88,50.24-4.06c2.98-0.38,4.37,2.35,4.34,3.03c-0.15,3.28-2.7,30.02-3.56,32.83c-1.59,5.2-3.59,2.7-6.39-0.23"/>
		</g>
		<g id="kvg:06241-g4">
			<g id="kvg:06241-g5">
				<path id="kvg:06241-s7" d="M34.9,76.56c8.07-0.4,33.85-3.26,51.51-3.52"/>
			</g>
			<g id="kvg:06241-g6">
				<path id="kvg:06241-s8" d="M50.32,62c1.04,0.27,1.17,1.7,1.38,2.23c0.21,0.53,0,27.33-0.21,30.66"/>
			</g>
			<g id="kvg:06241-g7">
				<path id="kvg:06241-s9" d="M66.11,60.07c1.04,0.27,1.67,1.2,1.88,1.73c0.21,0.53,0,27.13-0.21,30.46"/>
			</g>
		</g>
	</g>
</g>
</g>
<g id="kvg:StrokeNumbers_06241">
	<text transform="matrix(1 0 0 1 83.25 17.48)">1</text>
	<text transform="matrix(1 0 0 1 21.87 21.5)">2</text>
	<text transform="matrix(1 0 0 1 33.09 29.25)">3</text>
	<text transform="matrix(1 0 0 1 33.5 43.5)">4</text>
	<text transform="matrix(1 0 0 1 27.50 73.50)">5</text>
	<text transform="matrix(1 0 0 1 36.50 56.50)">6</text>
	<text transform="matrix(1 0 0 1 38.25 73.18)">7</text>
	<text transform="matrix(1 0 0 1 43.50 68.50)">8</text>
	<text transform="matrix(1 0 0 1 59.50 67.03)">9</text>
</g>
</svg>
