<svg width="109" height="109" viewBox="0 0 109 109">
<g id="kvg:StrokePaths_0624d">
<g id="kvg:0624d">
	<g id="kvg:0624d-g1">
		<path id="kvg:0624d-s1" d="M 18.62,38.5 c 2.62,0.62 4.54,0.53 7.82,0.25 C 41.25,37.5 67.62,35 84.75,34 c 3.28,-0.19 5.86,0 8,0.5"/>
		<g id="kvg:0624d-g2">
			<path id="kvg:0624d-s2" d="M 60.77,13.58 c 1.39,1.39 2.26,2.99 2.26,6.02 0,15.4 -0.01,66.41 -0.01,71.37 0,8.78 -7.21,0.5 -8.71,-0.75"/>
		</g>
		<path id="kvg:0624d-s3" d="M 73.043742,46.367587 C 62.856133,57.87424 32.711367,80.494361 23.641472,85.467096"/>
	</g>
</g>
</g>
<g id="kvg:StrokeNumbers_0624d">
	<text transform="matrix(1 0 0 1 11.50 38.50)">1</text>
	<text transform="matrix(1 0 0 1 53.73 16.07)">2</text>
	<text transform="matrix(1 0 0 1 75.49 46.06)">3</text>
</g>
</svg>
