<svg width="109" height="109" viewBox="0 0 109 109">
<g id="kvg:StrokePaths_06268">
<g id="kvg:06268">
	<g id="kvg:06268-g1">
		<path id="kvg:06268-s1" d="M12.24,36.14c2.21,0.27,1.35,0.59,3.72,0.27c5.84-0.8,16.47-2.66,26.21-3.9"/>
		<path id="kvg:06268-s2" d="M27.27,14.5c0.48,0.92,1.67,2.49,1.76,5.52c0.4,14.55-0.26,58.94-0.26,63.9c0,14.25-6.32,3.53-7.77,2"/>
		<path id="kvg:06268-s3" d="M12,64.48c2.29,1.67,3.76,0.9,6.06-0.52c1.35-0.84,18.6-11.99,24.33-16.04"/>
	</g>
	<g id="kvg:06268-g2">
		<g id="kvg:06268-g3">
			<path id="kvg:06268-s4" d="M47.72,23.4c1.66,0.83,3.73,0.57,5.21,0.45C63.5,23,74.5,21.11,81.07,20.26c4.27-0.55,6.17,1.66,5.93,5.55c-0.63,10.25-6.25,46.44-14.87,62.91c-4.42,8.45-6.69,5.81-9.88,0.26"/>
			<g id="kvg:06268-g4">
				<g id="kvg:06268-g5">
					<path id="kvg:06268-s5" d="M66.93,26.33c0.09,1.42,0.12,3.68-0.17,5.73C63.84,52.13,55.94,72.48,37,90.36"/>
				</g>
			</g>
		</g>
		<g id="kvg:06268-g6">
			<path id="kvg:06268-s6" d="M49.5,42c1.47,0,3.57,0.44,5,2.25C63,55,78.75,75.25,89.62,82.6c2.34,1.58,3.82,2.83,5.88,3.4"/>
		</g>
	</g>
</g>
</g>
<g id="kvg:StrokeNumbers_06268">
	<text transform="matrix(1 0 0 1 6.50 36.50)">1</text>
	<text transform="matrix(1 0 0 1 17.50 15.30)">2</text>
	<text transform="matrix(1 0 0 1 5.00 65.98)">3</text>
	<text transform="matrix(1 0 0 1 45.50 20.50)">4</text>
	<text transform="matrix(1 0 0 1 58.50 33.50)">5</text>
	<text transform="matrix(1 0 0 1 46.50 39.50)">6</text>
</g>
</svg>
