<svg width="109" height="109" viewBox="0 0 109 109">
<g id="kvg:StrokePaths_06284">
<g id="kvg:06284">
	<g id="kvg:06284-g1">
		<path id="kvg:06284-s1" d="M14.5,34.92c2.61,0.31,4.63,0.39,7.4-0.02c5.08-0.75,12.62-2.33,19.09-3.22c1.07-0.15,2.39-0.42,3.68-0.42"/>
		<path id="kvg:06284-s2" d="M31.52,12.25c1.05,1.05,1.51,2.62,1.51,4.77c0,15.23-0.01,58.71-0.01,70.15c0,12.83-6.57,4.28-8.02,2.75"/>
		<path id="kvg:06284-s3" d="M15.24,68.26c1.21,1.01,2.76,0.82,4.01-0.26c7.25-6.25,8.5-7.25,19.25-16.83"/>
	</g>
	<g id="kvg:06284-g2">
		<g id="kvg:06284-g3">
			<path id="kvg:06284-s4" d="M67.21,11c0.77,0.77,1.26,2,1.26,3.58c0,10.12-0.01,42.2-0.01,45.65c0,9.77-5.46,2.04-6.96,1.17"/>
			<path id="kvg:06284-s5" d="M58.16,35.42c0.1,1.25-0.23,2.25-0.8,3.33c-3.4,6.5-9.33,15.94-16.94,22.93"/>
			<path id="kvg:06284-s6" d="M79.25,34.25c7.33,2.41,17.17,8.59,19,12.34"/>
		</g>
		<g id="kvg:06284-g4">
			<path id="kvg:06284-s7" d="M86.37,48.08c0.12,1.27-0.08,3.06-0.76,4.85c-6.24,16.44-24.88,37.85-45.11,47.82"/>
		</g>
	</g>
</g>
</g>
<g id="kvg:StrokeNumbers_06284">
	<text transform="matrix(1 0 0 1 8.25 36.13)">1</text>
	<text transform="matrix(1 0 0 1 22.50 13.63)">2</text>
	<text transform="matrix(1 0 0 1 7.50 72.50)">3</text>
	<text transform="matrix(1 0 0 1 57.75 11.50)">4</text>
	<text transform="matrix(1 0 0 1 51.50 31.50)">5</text>
	<text transform="matrix(1 0 0 1 75.50 31.50)">6</text>
	<text transform="matrix(1 0 0 1 78.75 48.50)">7</text>
</g>
</svg>
