<svg width="109" height="109" viewBox="0 0 109 109">
<g id="kvg:StrokePaths_06296">
<g id="kvg:06296">
	<g id="kvg:06296-g1">
		<path id="kvg:06296-s1" d="M12.5,34.89c2.51,0.27,2.53,0.59,5.21,0.27c6.62-0.8,17.66-2.66,28.7-3.9"/>
		<path id="kvg:06296-s2" d="M30.77,13.5c0.48,0.92,1.67,2.49,1.76,5.52c0.4,14.55,0.24,62.94,0.24,67.9c0,14.25-5.82,4.53-7.27,3"/>
		<path id="kvg:06296-s3" d="M15,62.8c1.72,1.65,2.19,2.12,4.57,0.88c1.91-1,17.58-9.21,25.68-14.01"/>
	</g>
	<g id="kvg:06296-g2">
		<g id="kvg:06296-g3">
			<path id="kvg:06296-s4" d="M56.25,22c3.44,1.41,8.89,5.8,9.75,8"/>
		</g>
		<g id="kvg:06296-g4">
			<path id="kvg:06296-s5" d="M54.25,42.75c3.62,1.5,9.34,6.17,10.25,8.5"/>
		</g>
		<path id="kvg:06296-s6" d="M47.75,68.25c0.65,0.25,2.4,0.93,4.13,0.75C59,68.25,84,63,94.24,63c1.74,0,2.18-0.25,3.26,0"/>
		<path id="kvg:06296-s7" d="M78.87,11.25c1.09,0.5,1.74,2.25,1.96,3.25c0.22,1,0,75.75-0.22,82"/>
	</g>
</g>
</g>
<g id="kvg:StrokeNumbers_06296">
	<text transform="matrix(1 0 0 1 6.50 35.50)">1</text>
	<text transform="matrix(1 0 0 1 21.75 14.80)">2</text>
	<text transform="matrix(1 0 0 1 8.50 69.23)">3</text>
	<text transform="matrix(1 0 0 1 51.50 19.40)">4</text>
	<text transform="matrix(1 0 0 1 50.50 40.50)">5</text>
	<text transform="matrix(1 0 0 1 45.50 65.50)">6</text>
	<text transform="matrix(1 0 0 1 70.50 12.50)">7</text>
</g>
</svg>
