<svg width="109" height="109" viewBox="0 0 109 109">
<g id="kvg:StrokePaths_0629c">
<g id="kvg:0629c">
	<g id="kvg:0629c-g1">
		<path id="kvg:0629c-s1" d="M10.75,37.42c1.99,0.24,3.85,0.45,5.89,0.17c4.67-0.64,11.73-2.04,18.36-3.07c1.21-0.19,2.37-0.27,3.66-0.27"/>
		<path id="kvg:0629c-s2" d="M27.27,14.75c1.05,1.05,1.51,2.62,1.51,5.02c0,15.23-0.01,54.21-0.01,65.65c0,11.58-4.82,3.78-6.27,2.25"/>
		<path id="kvg:0629c-s3" d="M11,68.68c1.1,1.1,2.62,0.82,4.5-0.43c5.01-3.34,12.75-9.75,24-17.83"/>
	</g>
	<g id="kvg:0629c-g2">
		<path id="kvg:0629c-s4" d="M45.13,36.46c2.03,0.6,4.9,0.47,7,0.09C63.25,34.5,71.88,32.88,82,31.67c2.17-0.26,4.53-0.15,6.63,0.22"/>
		<path id="kvg:0629c-s5" d="M60.97,15.64c0.53,0.86,0.67,1.55,0.61,3.04C60.88,36.5,55.5,69.38,36,87.5"/>
		<g id="kvg:0629c-g3">
			<path id="kvg:0629c-s6" d="M59.58,51.93c1.6,0.18,3.17,0.01,4.72-0.39c5.81-1.48,10.6-3.16,14.84-4.17c3.09-0.74,3.97,1.09,3.18,3.1C77.99,61.46,65.25,84,44,94.5"/>
			<path id="kvg:0629c-s7" d="M57,58.75c5.59,4.75,19.07,18.97,27.3,26.09c2.6,2.25,5.42,4.28,8.45,5.91"/>
		</g>
	</g>
</g>
</g>
<g id="kvg:StrokeNumbers_0629c">
	<text transform="matrix(1 0 0 1 4.50 38.50)">1</text>
	<text transform="matrix(1 0 0 1 18.75 15.50)">2</text>
	<text transform="matrix(1 0 0 1 3.50 73.50)">3</text>
	<text transform="matrix(1 0 0 1 43.50 33.13)">4</text>
	<text transform="matrix(1 0 0 1 50.50 15.50)">5</text>
	<text transform="matrix(1 0 0 1 62.25 48.13)">6</text>
	<text transform="matrix(1 0 0 1 63.50 62.50)">7</text>
</g>
</svg>
