<svg width="109" height="109" viewBox="0 0 109 109">
<g id="kvg:StrokePaths_06294">
<g id="kvg:06294">
	<g id="kvg:06294-g1">
		<path id="kvg:06294-s1" d="M12,37.39c2.32,0.27,1.42,0.59,3.9,0.27c6.13-0.8,17.29-2.66,27.51-3.9"/>
		<path id="kvg:06294-s2" d="M29.27,13.5c0.48,0.92,1.67,2.49,1.76,5.52c0.4,14.55,0.24,62.94,0.24,67.9c0,14.25-6.82,4.53-8.27,3"/>
		<path id="kvg:06294-s3" d="M11,65.16c2.49,1.35,4.09,0.74,6.58-0.43c1.47-0.69,20.44-10.77,26.67-14.06"/>
	</g>
	<g id="kvg:06294-g2">
		<g id="kvg:06294-g3">
			<path id="kvg:06294-s4" d="M45.47,20.61c1.25,0.6,3.53,0.74,4.79,0.6c11.95-1.42,28.31-2.33,42.03-3.42c2.08-0.16,3.33,0.28,4.37,0.58"/>
		</g>
		<g id="kvg:06294-g4">
			<path id="kvg:06294-s5" d="M72.06,22.91c0.08,0.95,0.41,2.53-0.17,3.81C68,35.25,56.75,52,41.87,63.17"/>
		</g>
		<g id="kvg:06294-g5">
			<path id="kvg:06294-s6" d="M67.75,41.5c2,1.25,2.64,3,2.64,5.12c0,4.63-0.16,33.38-0.16,49.88"/>
		</g>
		<path id="kvg:06294-s7" d="M79.39,42.75c5.73,3.21,14.8,13.2,16.24,18.2"/>
	</g>
</g>
</g>
<g id="kvg:StrokeNumbers_06294">
	<text transform="matrix(1 0 0 1 6.00 37.50)">1</text>
	<text transform="matrix(1 0 0 1 20.50 12.50)">2</text>
	<text transform="matrix(1 0 0 1 3.50 67.50)">3</text>
	<text transform="matrix(1 0 0 1 44.50 17.50)">4</text>
	<text transform="matrix(1 0 0 1 62.50 30.50)">5</text>
	<text transform="matrix(1 0 0 1 62.50 53.50)">6</text>
	<text transform="matrix(1 0 0 1 78.50 40.50)">7</text>
</g>
</svg>
