<svg width="109" height="109" viewBox="0 0 109 109">
<g id="kvg:StrokePaths_062bb">
<g id="kvg:062bb">
	<g id="kvg:062bb-g1">
		<path id="kvg:062bb-s1" d="M14.5,37.42c2.08,0.25,1.27,0.55,3.5,0.25c5.5-0.75,15.5-2.5,24.67-3.67"/>
		<path id="kvg:062bb-s2" d="M29.27,14c0.48,0.92,1.67,2.49,1.76,5.52c0.4,14.55,0.24,62.94,0.24,67.9c0,14.25-6.32,3.53-7.77,2"/>
		<path id="kvg:062bb-s3" d="M14.5,65.1c2.33,1.46,3.83,0.79,6.16-0.46c1.37-0.74,17.27-10.18,23.09-13.72"/>
	</g>
	<g id="kvg:062bb-g2">
		<g id="kvg:062bb-g3">
			<path id="kvg:062bb-s4" d="M50.25,32.76c1,0.99,1.31,2.08,1.48,2.88c1.36,6.55,2.43,23.18,3.22,35.25"/>
			<path id="kvg:062bb-s5" d="M51.69,34.78c15.06-2.31,29.51-3.8,37.56-4.44c2.96-0.24,4.47,1.66,4.31,3.42c-0.59,6.44-2.56,24.55-4.94,34.76"/>
			<path id="kvg:062bb-s6" d="M53.46,50.46c3.52-0.32,35.46-3.19,38.36-3.19"/>
			<path id="kvg:062bb-s7" d="M55.51,67.32c9.99-0.83,21.74-1.93,33.54-2.54"/>
		</g>
		<g id="kvg:062bb-g4">
			<path id="kvg:062bb-s8" d="M69.87,12.25c1.09,0.5,1.74,2.25,1.96,3.25c0.22,1-0.22,67.5-0.22,82"/>
		</g>
	</g>
</g>
</g>
<g id="kvg:StrokeNumbers_062bb">
	<text transform="matrix(1 0 0 1 8.50 37.50)">1</text>
	<text transform="matrix(1 0 0 1 20.50 13.50)">2</text>
	<text transform="matrix(1 0 0 1 7.50 66.50)">3</text>
	<text transform="matrix(1 0 0 1 44.50 40.50)">4</text>
	<text transform="matrix(1 0 0 1 53.50 31.50)">5</text>
	<text transform="matrix(1 0 0 1 57.50 46.75)">6</text>
	<text transform="matrix(1 0 0 1 58.50 64.50)">7</text>
	<text transform="matrix(1 0 0 1 60.50 13.50)">8</text>
</g>
</svg>
