<svg width="109" height="109" viewBox="0 0 109 109">
<g id="kvg:StrokePaths_062cf">
<g id="kvg:062cf">
	<g id="kvg:062cf-g1">
		<g id="kvg:062cf-g2">
			<path id="kvg:062cf-s1" d="M29.93,9.94c0.38,0.81,1.06,2.14,0.86,3.24c-0.97,5.42-6.25,18.78-10.48,24.85c-0.87,1.24,0.36,1.99,0.86,2.04c9.83,0.93,18.44,4.7,24.1,9.99"/>
			<path id="kvg:062cf-s2" d="M42.37,19.46c0.07,0.84,0.12,2.86-0.16,4.05C39.96,33.08,34,47,14.09,55.85"/>
			<path id="kvg:062cf-s3" d="M11.75,27.58c0.77,1.19,2.33,1.59,4.4,1.49c2.23-0.11,22.64-3.39,31.87-5.48"/>
		</g>
		<g id="kvg:062cf-g3">
			<path id="kvg:062cf-s4" d="M55.99,18.21c1.26,0.24,1.4,0.44,3.93,0.24c5.82-0.45,17.77-2.56,19.5-2.92c1.73-0.36,3.8,1.04,3.2,2.36C77.75,28.62,67,42.37,52.69,47.55"/>
			<path id="kvg:062cf-s5" d="M55.77,25.31c3.4,0.56,20.03,15.45,31.89,21.56c1.84,0.95,3.19,1.58,4.91,1.9"/>
		</g>
	</g>
	<g id="kvg:062cf-g4">
		<path id="kvg:062cf-s6" d="M65.97,46c0.1,0.33,0.21,0.85-0.19,1.33c-2.37,2.79-15.95,8.93-34.53,12.68"/>
		<path id="kvg:062cf-s7" d="M25.88,68.27c1.12,0.39,3.18,0.47,4.3,0.39c14.06-1.06,23.51-2.71,45.12-4.31c1.86-0.14,4.89-0.16,5.83,0.04"/>
		<path id="kvg:062cf-s8" d="M14.9,80.54c1.47,0.51,4.17,0.54,5.65,0.51c13.75-0.26,42.47-4.14,66.58-4.06c2.46,0.01,3.93,0.24,5.16,0.5"/>
		<path id="kvg:062cf-s9" d="M52.32,56.22c6.31,9.45,6.68,25.03,4.32,36.32c-2.12,10.18-5.2,5.15-9.57,1.07"/>
	</g>
</g>
</g>
<g id="kvg:StrokeNumbers_062cf">
	<text transform="matrix(1 0 0 1 23.50 9.50)">1</text>
	<text transform="matrix(1 0 0 1 38.50 14.50)">2</text>
	<text transform="matrix(1 0 0 1 4.50 27.50)">3</text>
	<text transform="matrix(1 0 0 1 54.50 15.50)">4</text>
	<text transform="matrix(1 0 0 1 52.50 33.50)">5</text>
	<text transform="matrix(1 0 0 1 70.50 47.25)">6</text>
	<text transform="matrix(1 0 0 1 18.25 69.50)">7</text>
	<text transform="matrix(1 0 0 1 7.25 81.50)">8</text>
	<text transform="matrix(1 0 0 1 47.50 63.50)">9</text>
</g>
</svg>
