<svg width="109" height="109" viewBox="0 0 109 109">
<g id="kvg:StrokePaths_062c9">
<g id="kvg:062c9">
	<g id="kvg:062c9-g1">
		<path id="kvg:062c9-s1" d="M12,37.92c2.08,0.25,1.27,0.55,3.5,0.25c5.5-0.75,15.5-2.5,24.67-3.67"/>
		<path id="kvg:062c9-s2" d="M26.77,14c0.48,0.92,1.76,2.49,1.76,5.52c0,15.23,0.24,56.46,0.24,67.9c0,14.25-6.32,3.53-7.77,2"/>
		<path id="kvg:062c9-s3" d="M11,65.52c1.25,1.48,3.24,2.35,6,0.98c1.63-0.81,15.25-10,23.25-15.58"/>
	</g>
	<g id="kvg:062c9-g2">
		<g id="kvg:062c9-g3">
			<path id="kvg:062c9-s4" d="M66.25,15.75c1,0.75,1.5,0.75,1.5,2.5s0,14.25,0,19"/>
			<path id="kvg:062c9-s5" d="M44.84,39.37c1.14,0.24,3.48,0.82,4.62,0.74c8.04-0.61,27.79-2.36,39.72-3.85c1.89-0.24,3.04,0.11,4,0.23"/>
		</g>
		<g id="kvg:062c9-g4">
			<path id="kvg:062c9-s6" d="M53.92,43.02c0.58,0.48,1.55,1.96,1.69,2.96c2.14,15.52,2.43,31.83,2.73,40.68"/>
			<path id="kvg:062c9-s7" d="M81.07,40.04c0.75,1.39,0.84,2.1,0.75,3.25c-0.6,7.89-4.07,30.72-6.14,42.97"/>
			<path id="kvg:062c9-s8" d="M38,88.84c1.19,0.36,2.58,0.5,3.76,0.36c12.93-1.54,37.61-2.41,52.59-3.14c1.98-0.1,3.17,0.17,4.16,0.35"/>
		</g>
	</g>
</g>
</g>
<g id="kvg:StrokeNumbers_062c9">
	<text transform="matrix(1 0 0 1 5.00 38.28)">1</text>
	<text transform="matrix(1 0 0 1 17.50 14.50)">2</text>
	<text transform="matrix(1 0 0 1 4.50 67.50)">3</text>
	<text transform="matrix(1 0 0 1 56.50 15.50)">4</text>
	<text transform="matrix(1 0 0 1 44.25 35.50)">5</text>
	<text transform="matrix(1 0 0 1 46.50 50.50)">6</text>
	<text transform="matrix(1 0 0 1 73.50 47.50)">7</text>
	<text transform="matrix(1 0 0 1 37.50 85.50)">8</text>
</g>
</svg>
