<svg width="109" height="109" viewBox="0 0 109 109">
<g id="kvg:StrokePaths_062ec">
<g id="kvg:062ec">
	<g id="kvg:062ec-g1">
		<path id="kvg:062ec-s1" d="M13.75,40.17c2.04,0.24,3.92,0.22,6-0.14c4.91-0.84,12.36-2.82,19.25-4.01c1.13-0.19,2.12-0.39,3.41-0.27"/>
		<path id="kvg:062ec-s2" d="M30.77,15.25c1.05,1.05,1.51,2.5,1.51,4.52c0,15.23-0.01,52.71-0.01,64.15c0,14.25-5.82,4.03-7.27,2.5"/>
		<path id="kvg:062ec-s3" d="M14.46,67.38c1.41,0.75,2.96,0.55,4.11-0.35c3.55-2.78,12.56-10.21,19.17-16.11"/>
	</g>
	<g id="kvg:062ec-g2">
		<g id="kvg:062ec-g3">
			<path id="kvg:062ec-s4" d="M81.25,16.5c-0.38,1.38-0.62,2-1.71,2.79C75.36,22.33,66.76,28.28,49.5,33"/>
			<path id="kvg:062ec-s5" d="M44.58,49.91c2.45,0.82,6.29,0.56,8.8,0.13c10.31-1.79,25.16-4.16,36-4.83c2.6-0.16,5.22-0.36,7.79,0.16"/>
			<path id="kvg:062ec-s6" d="M68.17,29.5c0.92,0.92,1.33,2,1.33,3.64c0,6.11-0.12,26.6-0.12,33.36"/>
		</g>
		<g id="kvg:062ec-g4">
			<path id="kvg:062ec-s7" d="M51.75,67.83c1.15,0.98,1.59,2.1,1.8,3.79c0.7,5.89,1.01,9.04,1.83,16.51c0.23,2.11,0.38,3.25,0.62,5.88"/>
			<path id="kvg:062ec-s8" d="M54.12,69.56c9.86-1.15,22.35-2.86,29.63-3.65c3.99-0.43,6.14,0.03,5.13,4.48c-1.25,5.48-1.87,9.35-3.09,16.85"/>
			<path id="kvg:062ec-s9" d="M56.76,90.82c6.29-0.52,16.35-1.35,25.73-2.17c1.78-0.15,3.38-0.28,5.39-0.21"/>
		</g>
	</g>
</g>
</g>
<g id="kvg:StrokeNumbers_062ec">
	<text transform="matrix(1 0 0 1 7.50 40.63)">1</text>
	<text transform="matrix(1 0 0 1 22.50 15.50)">2</text>
	<text transform="matrix(1 0 0 1 6.50 70.50)">3</text>
	<text transform="matrix(1 0 0 1 72.50 15.13)">4</text>
	<text transform="matrix(1 0 0 1 44.50 46.50)">5</text>
	<text transform="matrix(1 0 0 1 61.50 37.50)">6</text>
	<text transform="matrix(1 0 0 1 46.50 75.50)">7</text>
	<text transform="matrix(1 0 0 1 54.50 65.50)">8</text>
	<text transform="matrix(1 0 0 1 60.50 87.13)">9</text>
</g>
</svg>
