<svg width="109" height="109" viewBox="0 0 109 109">
<g id="kvg:StrokePaths_0632f">
<g id="kvg:0632f">
	<g id="kvg:0632f-g1">
		<path id="kvg:0632f-s1" d="M11.75,38.42c1.89,0.23,3.54,0.49,5.5,0.23c4.83-0.63,11.9-1.71,18.99-2.69c1.15-0.16,2.26-0.33,3.42-0.21"/>
		<path id="kvg:0632f-s2" d="M28.02,16.25c1.12,1.12,1.51,2.62,1.51,4.52c0,15.23-0.01,53.21-0.01,64.65c0,14.25-5.57,3.78-7.02,2.25"/>
		<path id="kvg:0632f-s3" d="M12.35,66.15c1.16,1.12,2.61,1.36,4.4,0.1c5.88-4.12,8.75-6.25,20-14.33"/>
	</g>
	<g id="kvg:0632f-g2">
		<g id="kvg:0632f-g3">
			<path id="kvg:0632f-s4" d="M44.96,23.58c2.79,0.42,5.74,0.24,8.41-0.07c8.47-1,18.47-2.67,24.39-3.41c2.56-0.32,4.84-0.41,7.35,0.23"/>
			<path id="kvg:0632f-s5" d="M47.68,24.66c0.77,0.77,0.96,1.71,0.92,4.2c-0.36,22.64-3.98,47.39-13.7,61.31"/>
		</g>
		<path id="kvg:0632f-s6" d="M54.66,37.49c1.96,0.39,4.03,0.36,5.95,0.12c5.25-0.66,11.88-1.67,17.02-2.26c1.79-0.21,3.25-0.22,4.99,0.2"/>
		<path id="kvg:0632f-s7" d="M50.48,51.53c2.4,0.47,4.82,0.27,7.03-0.05c7.06-1.01,19.24-3.05,25.61-3.48c2.26-0.15,4.85-0.24,7.07,0.3"/>
		<path id="kvg:0632f-s8" d="M57.43,53.7c1.18,1.19,1.42,3.05,1.42,5.1c0,12.06-0.1,27.4-0.1,29.44s1.82,2.59,3.95,1.06s7.25-6.57,10.09-8.1"/>
		<path id="kvg:0632f-s9" d="M84.93,56.08c0,0.67-0.28,1.64-0.69,2.23c-2.24,3.2-4.11,5.45-7.5,8.08"/>
		<path id="kvg:0632f-s10" d="M65.36,59.03c4.83,4.9,15.79,18.58,21.8,24.81c1.84,1.91,3.72,3.41,6.43,5.11"/>
	</g>
</g>
</g>
<g id="kvg:StrokeNumbers_0632f">
	<text transform="matrix(1 0 0 1 5.50 39.13)">1</text>
	<text transform="matrix(1 0 0 1 18.50 16.63)">2</text>
	<text transform="matrix(1 0 0 1 4.50 70.50)">3</text>
	<text transform="matrix(1 0 0 1 45.50 20.50)">4</text>
	<text transform="matrix(1 0 0 1 40.50 32.50)">5</text>
	<text transform="matrix(1 0 0 1 54.75 34.63)">6</text>
	<text transform="matrix(1 0 0 1 52.50 48.05)">7</text>
	<text transform="matrix(1 0 0 1 51.50 62.98)">8</text>
	<text transform="matrix(1 0 0 1 77.50 57.50)">9</text>
	<text transform="matrix(1 0 0 1 62.50 72.50)">10</text>
</g>
</svg>
