<svg width="109" height="109" viewBox="0 0 109 109">
<g id="kvg:StrokePaths_0635c">
<g id="kvg:0635c">
	<g id="kvg:0635c-g1">
		<path id="kvg:0635c-s1" d="M14,39.42c1.85,0.22,3.48,0.74,5.38,0.51c4.73-0.57,11.06-1.6,18.11-2.52c1.05-0.14,2.12-0.27,3.18-0.41"/>
		<path id="kvg:0635c-s2" d="M28.77,16c1.05,1.05,1.76,3.38,1.76,5.52c0,15.23-0.01,52.96-0.01,64.4c0,14.25-5.82,3.78-7.27,2.25"/>
		<path id="kvg:0635c-s3" d="M11.25,69.18c0.91,0.91,2.63,0.99,3.76,0.2C20.38,65.62,28,60,39.25,51.92"/>
	</g>
	<g id="kvg:0635c-g2">
		<g id="kvg:0635c-g3">
			<g id="kvg:0635c-g4">
				<path id="kvg:0635c-s4" d="M43.41,26.57c0.95,0.95,1.49,2.09,1.7,3.06c1.14,5.12,2.29,11.78,3.2,18.86c0.22,1.72,0.41,3.38,0.56,4.89"/>
				<path id="kvg:0635c-s5" d="M45.58,27.69c10.56-1.46,28.07-3.06,36.8-3.92c3.62-0.35,6.42,0.15,5.83,4.37c-0.55,3.97-2.26,12.24-3.39,17.88c-0.33,1.62-0.61,3.03-0.8,4.05"/>
				<path id="kvg:0635c-s6" d="M48.1,39.08c8.15-0.96,27.77-2.83,38.04-3.15"/>
				<path id="kvg:0635c-s7" d="M49.68,50.41c10.32-1.04,22.94-2.07,33.51-2.67"/>
			</g>
			<g id="kvg:0635c-g5">
				<path id="kvg:0635c-s8" d="M64.12,13c1,1,1.46,2.25,1.46,3.75c0,1.02,0.03,32.25,0.03,43"/>
			</g>
		</g>
		<g id="kvg:0635c-g6">
			<path id="kvg:0635c-s9" d="M49.65,62.78c1.35,0.26,2.27,0.39,4.98,0.01c2.44-0.35,18.31-2.93,22.75-3.67c3.51-0.58,4.83,0.57,2.85,3.77c-9.38,15.19-20.89,25.8-37.51,33.37"/>
			<path id="kvg:0635c-s10" d="M48.27,68.42c4.77,0.3,21.1,13.96,36.23,23.17c2.86,1.74,6.29,3.11,9.52,4.02"/>
		</g>
	</g>
</g>
</g>
<g id="kvg:StrokeNumbers_0635c">
	<text transform="matrix(1 0 0 1 7.50 40.50)">1</text>
	<text transform="matrix(1 0 0 1 20.25 16.63)">2</text>
	<text transform="matrix(1 0 0 1 4.50 73.50)">3</text>
	<text transform="matrix(1 0 0 1 37.50 33.50)">4</text>
	<text transform="matrix(1 0 0 1 47.50 24.50)">5</text>
	<text transform="matrix(1 0 0 1 51.75 35.50)">6</text>
	<text transform="matrix(1 0 0 1 51.75 47.50)">7</text>
	<text transform="matrix(1 0 0 1 53.50 13.50)">8</text>
	<text transform="matrix(1 0 0 1 41.25 63.13)">9</text>
	<text transform="matrix(1 0 0 1 59.25 72.13)">10</text>
</g>
</svg>
