<svg width="109" height="109" viewBox="0 0 109 109">
<g id="kvg:StrokePaths_06357">
<g id="kvg:06357">
	<g id="kvg:06357-g1">
		<path id="kvg:06357-s1" d="M12.5,36.3c2.01,0.31,1.23,0.69,3.38,0.31c5.3-0.94,14.95-3.12,23.79-4.58"/>
		<path id="kvg:06357-s2" d="M27.77,12c0.48,0.92,1.67,2.49,1.76,5.52c0.4,14.55,0.74,65.94,0.74,70.9c0,14.25-6.82,4.03-8.27,2.5"/>
		<path id="kvg:06357-s3" d="M11,65.18c1.87,0.83,4.05,1.36,5.82,0.28c4.61-2.83,11.3-6.92,20.93-12.79"/>
	</g>
	<g id="kvg:06357-g2">
		<g id="kvg:06357-g3">
			<g id="kvg:06357-g4">
				<path id="kvg:06357-s4" d="M68.32,12.5c0.98,0.42,1.58,1.94,1.78,2.81c0.2,0.87,0.35,22.59,0.19,28.05"/>
				<path id="kvg:06357-s5" d="M70.28,27.23c3.83-0.51,8.15-2.36,14.89-3.02c1.57-0.15,1.96-0.31,2.94-0.05"/>
			</g>
			<path id="kvg:06357-s6" d="M52.56,22.98c0.98,0.42,1.58,1.94,1.78,2.81c0.2,0.87,0.18,13.21,0.02,18.67"/>
			<path id="kvg:06357-s7" d="M43.3,45.25c0.74,0.21,2.72,0.7,4.69,0.59c10.62-0.58,30.01-3.09,43.23-4.15c1.97-0.16,5.41,0.37,6.53,0.57"/>
		</g>
		<g id="kvg:06357-g5">
			<g id="kvg:06357-g6">
				<path id="kvg:06357-s8" d="M69.36,45.5c0.08,0.24,1.14,1.24,1.14,2.75c0,8.75-0.23,15.72-0.23,18.19c0,8.06-4.53,2.31-6.17,0.31"/>
				<path id="kvg:06357-s9" d="M57.03,53.25c0.04,0.42,0.16,1.12-0.08,1.7c-1.74,4.23-9.11,12.4-15.09,16.3"/>
			</g>
			<g id="kvg:06357-g7">
				<path id="kvg:06357-s10" d="M 92.177034,52.288305 c 0.13,0.89 0.159068,3.012797 -1.193729,5.65839 -5.47,10.42 -31.379576,33.746102 -52.749576,40.746102"/>
			</g>
		</g>
	</g>
</g>
</g>
<g id="kvg:StrokeNumbers_06357">
	<text transform="matrix(1 0 0 1 5.00 36.81)">1</text>
	<text transform="matrix(1 0 0 1 19.50 11.50)">2</text>
	<text transform="matrix(1 0 0 1 3.50 67.50)">3</text>
	<text transform="matrix(1 0 0 1 59.00 12.50)">4</text>
	<text transform="matrix(1 0 0 1 75.25 23.50)">5</text>
	<text transform="matrix(1 0 0 1 43.75 22.76)">6</text>
	<text transform="matrix(1 0 0 1 39.50 42.93)">7</text>
	<text transform="matrix(1 0 0 1 63.25 52.00)">8</text>
	<text transform="matrix(1 0 0 1 51.00 55.03)">9</text>
	<text transform="matrix(1 0 0 1 79 56)">10</text>
</g>
</svg>
