<svg width="109" height="109" viewBox="0 0 109 109">
<g id="kvg:StrokePaths_06369">
<g id="kvg:06369">
	<g id="kvg:06369-g1">
		<path id="kvg:06369-s1" d="M10.5,37.18c2.2,0.23,1.34,0.51,3.69,0.23c5.79-0.7,16.33-2.32,25.98-3.4"/>
		<path id="kvg:06369-s2" d="M26.77,14.5c0.48,0.92,1.76,2.49,1.76,5.52c0,15.23,0.24,56.96,0.24,68.4c0,14.25-6.32,3.53-7.77,2"/>
		<path id="kvg:06369-s3" d="M11,65.1c0.82,0.97,2.12,1.54,3.92,0.64c1.06-0.53,19.4-11.54,23.91-14.07"/>
	</g>
	<g id="kvg:06369-g2">
		<g id="kvg:06369-g3">
			<path id="kvg:06369-s4" d="M44.43,17.24c0.86,0.31,3.34,0.36,4.2,0.31c9.94-0.59,22.5-1.7,36.24-3.51c1.42-0.19,3.2,0.15,3.91,0.3"/>
			<path id="kvg:06369-s5" d="M46.7,29.85c1.05,0.39,2.64,1.09,4.7,0.81c10.72-1.46,29.26-3.79,35.97-4.49c1.82-0.19,3.65,1.3,2.96,4.17c-1.21,5.08-1.62,6.86-2.49,9.71"/>
			<path id="kvg:06369-s6" d="M50.11,44.43c1.19,0,30.72-3.52,40.27-3.52"/>
			<path id="kvg:06369-s7" d="M49.51,30.75c0.04,1.5,0.27,3.85,0.28,6.01C49.9,63.92,45.75,84,36.47,94.25"/>
		</g>
		<g id="kvg:06369-g4">
			<path id="kvg:06369-s8" d="M51.84,61.84c0.78,0.41,2.86,0.9,4.52,0.72c11.21-1.24,24.25-3.18,34.32-3.78c1.73-0.1,3.12-0.05,4.68,0.27"/>
			<path id="kvg:06369-s9" d="M70.5,49.46c0.41,0.64,0.63,1.38,0.62,2.77c-0.2,23.99-10.13,36.65-26.47,44.02"/>
			<path id="kvg:06369-s10" d="M70.6,61.81c5.01,9.73,16.15,26.09,22.85,31.23c1.95,1.49,2.49,1.97,3.34,2.13"/>
		</g>
	</g>
</g>
</g>
<g id="kvg:StrokeNumbers_06369">
	<text transform="matrix(1 0 0 1 3.50 37.50)">1</text>
	<text transform="matrix(1 0 0 1 17.50 14.50)">2</text>
	<text transform="matrix(1 0 0 1 3.69 66.50)">3</text>
	<text transform="matrix(1 0 0 1 42.50 13.50)">4</text>
	<text transform="matrix(1 0 0 1 51.50 27.50)">5</text>
	<text transform="matrix(1 0 0 1 54.50 40.50)">6</text>
	<text transform="matrix(1 0 0 1 41.44 41.93)">7</text>
	<text transform="matrix(1 0 0 1 53.50 59.10)">8</text>
	<text transform="matrix(1 0 0 1 61.50 52.53)">9</text>
	<text transform="matrix(1 0 0 1 77.19 70.50)">10</text>
</g>
</svg>
