<svg width="109" height="109" viewBox="0 0 109 109">
<g id="kvg:StrokePaths_06376">
<g id="kvg:06376">
	<g id="kvg:06376-g1">
		<path id="kvg:06376-s1" d="M11.75,35.67c1.5,0.35,2.98,0.39,4.46,0.12c5.55-0.76,13.81-1.69,22.46-2.79"/>
		<path id="kvg:06376-s2" d="M25.27,12.5c0.48,0.92,1.76,2.49,1.76,5.52c0,15.23-0.01,59.46-0.01,70.9c0,14.25-6.07,4.53-7.52,3"/>
		<path id="kvg:06376-s3" d="M11.75,63.99c2.18,1.19,4.33,0.66,5.93-0.59c3.31-2.2,13.91-9.37,19.93-13.23"/>
	</g>
	<g id="kvg:06376-g2">
		<g id="kvg:06376-g3">
			<g id="kvg:06376-g4">
				<path id="kvg:06376-s4" d="M82.46,12.5c0.04,0.84-0.54,1.77-1.74,2.57c-6.38,4.27-15.31,8.58-30.39,12.23"/>
			</g>
			<g id="kvg:06376-g5">
				<path id="kvg:06376-s5" d="M45.56,37.4c2.46,0.48,4.93,0.39,7.39,0.04c11.36-1.63,24.91-2.9,34.53-3.56c2.37-0.16,4.72-0.07,7.06,0.36"/>
			</g>
		</g>
		<path id="kvg:06376-s6" d="M41,55.71c2.67,0.41,5.33,0.42,8.01,0.16c13.33-1.29,26.65-2.22,41.36-3.02c2.66-0.15,5.31-0.14,7.96,0.23"/>
		<path id="kvg:06376-s7" d="M51.17,44.25c1.03,1.03,1.31,2.67,1.36,3.59c0.54,10.28,0.65,14.05,0.91,21.16"/>
		<path id="kvg:06376-s8" d="M85.19,40.75c0.79,0.86,0.9,2.14,0.77,3.75c-1.03,12.05-1.25,14.61-1.72,22.25"/>
		<g id="kvg:06376-g6">
			<path id="kvg:06376-s9" d="M45.12,75.62c2.3,0.29,4.6,0.41,6.9,0.25c11.01-0.77,26.18-1.63,35.92-2.34c2.36-0.17,4.72-0.02,7.08,0.26"/>
		</g>
		<g id="kvg:06376-g7">
			<g id="kvg:06376-g8">
				<g id="kvg:06376-g9">
					<path id="kvg:06376-s10" d="M67.75,25.25c0.86,0.86,0.97,2.71,0.97,4c0,10.06-0.06,57.72-0.06,63"/>
				</g>
			</g>
			<path id="kvg:06376-s11" d="M42.52,94.3c2.58,0.58,5.17,0.32,7.76,0.12c13.79-1.02,27.61-1.83,40.48-2.22c2.59-0.08,5.71,0.15,8.24,0.94"/>
		</g>
	</g>
</g>
</g>
<g id="kvg:StrokeNumbers_06376">
	<text transform="matrix(1 0 0 1 5.50 36.50)">1</text>
	<text transform="matrix(1 0 0 1 16.58 12.50)">2</text>
	<text transform="matrix(1 0 0 1 3.58 65.50)">3</text>
	<text transform="matrix(1 0 0 1 73.50 11.50)">4</text>
	<text transform="matrix(1 0 0 1 43.50 34.50)">5</text>
	<text transform="matrix(1 0 0 1 41.50 52.50)">6</text>
	<text transform="matrix(1 0 0 1 43.92 45.51)">7</text>
	<text transform="matrix(1 0 0 1 76.50 44.50)">8</text>
	<text transform="matrix(1 0 0 1 37.50 76.03)">9</text>
	<text transform="matrix(1 0 0 1 57.50 32.50)">10</text>
	<text transform="matrix(1 0 0 1 38.50 91.50)">11</text>
</g>
</svg>
