<svg width="109" height="109" viewBox="0 0 109 109">
<g id="kvg:StrokePaths_0637b">
<g id="kvg:0637b">
	<g id="kvg:0637b-g1">
		<path id="kvg:0637b-s1" d="M11.5,37.92c2.08,0.25,1.27,0.55,3.5,0.25c5.5-0.75,14.5-2,23.67-3.17"/>
		<path id="kvg:0637b-s2" d="M27.27,14c0.48,0.92,1.67,2.49,1.76,5.52c0.4,14.55,0.24,61.94,0.24,66.9c0,14.25-6.32,3.53-7.77,2"/>
		<path id="kvg:0637b-s3" d="M11,67.72c2.73,2.12,4.49,1.15,7.22-0.67c1.61-1.07,11.45-8.25,18.28-13.39"/>
	</g>
	<g id="kvg:0637b-g2">
		<g id="kvg:0637b-g3">
			<g id="kvg:0637b-g4">
				<path id="kvg:0637b-s4" d="M64.41,12.25c0.07,0.75,0.25,1.96-0.14,2.99c-2.71,7.22-10.75,18.94-23.94,28.65"/>
				<path id="kvg:0637b-s5" d="M64.24,15.35c4.15,4.79,22.01,20.45,26.58,23.96c1.55,1.19,3.54,1.7,5.09,2.04"/>
			</g>
			<g id="kvg:0637b-g5">
				<g id="kvg:0637b-g6">
					<path id="kvg:0637b-s6" d="M56.25,38.05c0.3,0.14,2.11,0.16,2.4,0.14c3.08-0.16,11.09-1.44,14.7-2.15c0.48-0.1,2.55,0.07,2.8,0.14"/>
				</g>
				<path id="kvg:0637b-s7" d="M48.59,49.65c0.78,0.37,1.21,0.31,3.11,0.27c8.31-0.17,21.39-2.71,26.62-3.66c3.1-0.57,4.37,1.21,2.34,3.76c-4.27,5.37-6.02,8.7-10.68,12.69"/>
			</g>
		</g>
		<g id="kvg:0637b-g7">
			<path id="kvg:0637b-s8" d="M44.66,77.33c0.32,2.23-3.17,12.1-5.7,15.83"/>
			<path id="kvg:0637b-s9" d="M53.57,71.76C58.5,83.25,65.65,95.13,82.92,96.1c7.08,0.4,8.08-1.6,2.17-6.24"/>
			<path id="kvg:0637b-s10" d="M67.43,72.24c1.82,5.01,4.57,7.51,5.43,2.59"/>
			<path id="kvg:0637b-s11" d="M86.06,69.41c4.82,2.06,8.44,3.94,12.35,10.32"/>
		</g>
	</g>
</g>
</g>
<g id="kvg:StrokeNumbers_0637b">
	<text transform="matrix(1 0 0 1 5.00 38.50)">1</text>
	<text transform="matrix(1 0 0 1 19.50 14.50)">2</text>
	<text transform="matrix(1 0 0 1 3.50 69.50)">3</text>
	<text transform="matrix(1 0 0 1 56.50 12.50)">4</text>
	<text transform="matrix(1 0 0 1 71.50 19.50)">5</text>
	<text transform="matrix(1 0 0 1 58.50 35.50)">6</text>
	<text transform="matrix(1 0 0 1 49.50 47.50)">7</text>
	<text transform="matrix(1 0 0 1 39.50 76.50)">8</text>
	<text transform="matrix(1 0 0 1 47.50 69.50)">9</text>
	<text transform="matrix(1 0 0 1 59.50 73.50)">10</text>
	<text transform="matrix(1 0 0 1 77.50 73.50)">11</text>
</g>
</svg>
