<svg width="109" height="109" viewBox="0 0 109 109">
<g id="kvg:StrokePaths_06389">
<g id="kvg:06389">
	<g id="kvg:06389-g1">
		<path id="kvg:06389-s1" d="M12.75,38.42c2.22,0.25,1.35,0.55,3.73,0.25c5.85-0.75,15.43-2.5,25.19-3.67"/>
		<path id="kvg:06389-s2" d="M27.27,14.5c0.48,0.92,1.76,2.49,1.76,5.52c0,15.23,0.24,56.46,0.24,67.9c0,14.25-6.32,3.53-7.77,2"/>
		<path id="kvg:06389-s3" d="M11.75,67.74c0.9,1.06,2.33,1.68,4.31,0.7c1.17-0.58,19.23-12.51,24.19-15.28"/>
	</g>
	<g id="kvg:06389-g2">
		<g id="kvg:06389-g3">
			<path id="kvg:06389-s4" d="M65.31,12.88c0.76,0.33,2.36,2.46,2.51,3.12c0.15,0.66,0.4,14.53,0.25,18.63"/>
			<path id="kvg:06389-s5" d="M68.25,23.5c2,0,12.67-1.36,18.5-2.27C88.83,20.9,89.75,21.08,91,21"/>
		</g>
		<g id="kvg:06389-g4">
			<g id="kvg:06389-g5">
				<path id="kvg:06389-s6" d="M50.16,36.17c0.65,1.17,1.03,1.54,1.24,3.11c0.57,4.28,3.07,19.63,3.1,23.22"/>
				<path id="kvg:06389-s7" d="M52.73,37.61c3.71-0.19,32.44-3.86,35.79-3.37c1.33,0.19,2.44,1.69,2.09,3.69C89.75,43,88,55,85.43,60.58"/>
				<path id="kvg:06389-s8" d="M53.48,48.31c6.33-0.43,29.11-2.72,34.78-2.72"/>
				<path id="kvg:06389-s9" d="M55.14,59.86c9.11-0.74,25.78-2.33,30.41-2.33"/>
			</g>
			<g id="kvg:06389-g6">
				<path id="kvg:06389-s10" d="M40.88,75.21c1.19,0.46,3.38,0.58,4.57,0.46c10.3-1.09,39.82-3.46,49.51-3.42c1.99,0.01,3.18,0.22,4.17,0.45"/>
				<path id="kvg:06389-s11" d="M67.73,61.75c0.44,0.54,1.38,4.03,1.47,5.1c0.09,1.08-0.06,25.43-0.15,32.15"/>
			</g>
		</g>
	</g>
</g>
</g>
<g id="kvg:StrokeNumbers_06389">
	<text transform="matrix(1 0 0 1 6.50 38.13)">1</text>
	<text transform="matrix(1 0 0 1 18.50 14.55)">2</text>
	<text transform="matrix(1 0 0 1 4.50 70.50)">3</text>
	<text transform="matrix(1 0 0 1 56.50 13.50)">4</text>
	<text transform="matrix(1 0 0 1 72.50 19.50)">5</text>
	<text transform="matrix(1 0 0 1 43.50 43.50)">6</text>
	<text transform="matrix(1 0 0 1 53.50 34.50)">7</text>
	<text transform="matrix(1 0 0 1 56.50 45.50)">8</text>
	<text transform="matrix(1 0 0 1 57.75 56.50)">9</text>
	<text transform="matrix(1 0 0 1 37.00 72.50)">10</text>
	<text transform="matrix(1 0 0 1 58.75 68.13)">11</text>
</g>
</svg>
