<svg width="109" height="109" viewBox="0 0 109 109">
<g id="kvg:StrokePaths_063a1">
<g id="kvg:063a1">
	<g id="kvg:063a1-g1">
		<path id="kvg:063a1-s1" d="M13.5,36.17c2.08,0.25,3.76,0.23,6,0c5.38-0.54,12-2.04,18.23-3.04c1.22-0.19,2.52-0.38,3.68-0.38"/>
		<path id="kvg:063a1-s2" d="M28.77,14c1.12,1.12,1.76,3.12,1.76,5.52c0,15.23-0.01,55.11-0.01,66.9c0,14.25-6.32,3.53-7.77,2"/>
		<path id="kvg:063a1-s3" d="M12.75,67c2.25,1.5,3.29,1.37,5.75-0.5c1.45-1.1,11.34-11.03,17.5-16.33"/>
	</g>
	<g id="kvg:063a1-g2">
		<g id="kvg:063a1-g3">
			<path id="kvg:063a1-s4" d="M75.84,13.43c-0.09,0.95-0.63,1.8-1.18,2.33C71.25,19,63,23.62,50.61,27.78"/>
			<path id="kvg:063a1-s5" d="M46.74,33.8c2.4,1.81,6.2,7.44,6.81,10.25"/>
			<path id="kvg:063a1-s6" d="M62.12,30.12c1.96,1.76,5.07,7.25,5.56,9.99"/>
			<path id="kvg:063a1-s7" d="M87.96,24.73c0.09,1.06-0.08,1.6-0.58,2.58c-1.78,3.46-5.79,8.94-10.76,13.07"/>
		</g>
		<g id="kvg:063a1-g4">
			<path id="kvg:063a1-s8" d="M45.38,58.98c2.37,0.27,4.78,0.26,7.24,0.02c6.96-0.67,21.73-2.23,32.5-2.82c1.85-0.1,4-0.19,5.91,0.12"/>
			<path id="kvg:063a1-s9" d="M65.99,46.11c0.89,0.89,1.43,2.27,1.43,3.86c0,2.92,0,27.39-0.06,39.53c-0.02,3.32-0.04,5.72-0.07,6.5"/>
			<path id="kvg:063a1-s10" d="M65.96,58.45c0,1.05-0.59,2.87-1.34,4.17c-5.26,9.12-15.99,20.01-25.66,25.72"/>
			<path id="kvg:063a1-s11" d="M67.38,59.81c3.85,4.46,15.47,16.62,21.14,21.67c1.92,1.71,3.99,3.57,6.28,4.76"/>
		</g>
	</g>
</g>
</g>
<g id="kvg:StrokeNumbers_063a1">
	<text transform="matrix(1 0 0 1 7.50 37.50)">1</text>
	<text transform="matrix(1 0 0 1 19.80 14.50)">2</text>
	<text transform="matrix(1 0 0 1 4.50 70.50)">3</text>
	<text transform="matrix(1 0 0 1 66.50 13.50)">4</text>
	<text transform="matrix(1 0 0 1 42.75 41.50)">5</text>
	<text transform="matrix(1 0 0 1 55.50 35.50)">6</text>
	<text transform="matrix(1 0 0 1 78.75 27.50)">7</text>
	<text transform="matrix(1 0 0 1 44.25 56.50)">8</text>
	<text transform="matrix(1 0 0 1 57.75 49.50)">9</text>
	<text transform="matrix(1 0 0 1 49.50 69.50)">10</text>
	<text transform="matrix(1 0 0 1 77.50 68.50)">11</text>
</g>
</svg>
