<svg width="109" height="109" viewBox="0 0 109 109">
<g id="kvg:StrokePaths_063aa">
<g id="kvg:063aa">
	<g id="kvg:063aa-g1">
		<path id="kvg:063aa-s1" d="M15.75,37.42c1.83,0.22,3.46,0.5,5.35,0.25c4.58-0.6,12.04-1.56,18.93-2.45c1.2-0.16,2.34-0.34,3.64-0.22"/>
		<path id="kvg:063aa-s2" d="M31.02,15c1.37,1.37,1.76,3.12,1.76,5.27c0,15.23-0.01,52.46-0.01,63.9c0,14.25-5.57,3.53-7.02,2"/>
		<path id="kvg:063aa-s3" d="M15.13,63.37c0.88,0.85,2.65,0.7,3.92-0.18c6.45-4.45,9.32-6.45,20.7-14.28"/>
	</g>
	<g id="kvg:063aa-g2">
		<g id="kvg:063aa-g3">
			<g id="kvg:063aa-g4">
				<g id="kvg:063aa-g5">
					<path id="kvg:063aa-s4" d="M48.62,32.06c1.88,0.56,4.76,0.22,6.53,0.05c8.23-0.81,22.18-2.53,29.58-3.15c1.77-0.15,4.59-0.38,6.29,0.15"/>
				</g>
				<g id="kvg:063aa-g6">
					<path id="kvg:063aa-s5" d="M57.77,18.38c0.93,0.93,1.49,2.29,1.55,3.33c0.55,9.17,0.93,17.42,1.43,27.85"/>
				</g>
				<g id="kvg:063aa-g7">
					<path id="kvg:063aa-s6" d="M79.1,14c1.01,1.01,1.15,2.5,1.05,4.08C79.78,24,78.88,38.5,78.19,48.26"/>
				</g>
			</g>
			<path id="kvg:063aa-s7" d="M44.22,51.55c2.04,0.94,5.24,0.63,7.4,0.41c11.54-1.15,26.38-2.74,38-3.24c2.62-0.11,6.12-0.11,8.66,0.6"/>
		</g>
		<g id="kvg:063aa-g8">
			<path id="kvg:063aa-s8" d="M54.84,60.64c0.82,0.82,0.97,1.99,0.97,3.31c0,0.84,0,16.65,0,26.06c0,1.94,0,3.59,0,4.75"/>
			<path id="kvg:063aa-s9" d="M56.21,61.67c1.8-0.1,16.24-1.64,22.67-2.29c3.67-0.37,5.36,0.61,5.36,3.74c0,4.69-0.11,15.75-0.11,24.37c0,3.51-0.01,6.04-0.01,6.25"/>
			<path id="kvg:063aa-s10" d="M56.85,75.11c7.64-0.56,18.65-1.86,26.32-2.05"/>
			<path id="kvg:063aa-s11" d="M56.96,91.41c6.08-0.54,17.16-1.41,26.2-1.8"/>
		</g>
	</g>
</g>
</g>
<g id="kvg:StrokeNumbers_063aa">
	<text transform="matrix(1 0 0 1 9.75 38.50)">1</text>
	<text transform="matrix(1 0 0 1 21.75 15.13)">2</text>
	<text transform="matrix(1 0 0 1 9.75 70.63)">3</text>
	<text transform="matrix(1 0 0 1 47.25 29.50)">4</text>
	<text transform="matrix(1 0 0 1 48.50 17.50)">5</text>
	<text transform="matrix(1 0 0 1 69.75 13.50)">6</text>
	<text transform="matrix(1 0 0 1 47.50 49.50)">7</text>
	<text transform="matrix(1 0 0 1 48.50 68.50)">8</text>
	<text transform="matrix(1 0 0 1 57.75 59.50)">9</text>
	<text transform="matrix(1 0 0 1 59.50 72.05)">10</text>
	<text transform="matrix(1 0 0 1 59.76 88.48)">11</text>
</g>
</svg>
