<svg width="109" height="109" viewBox="0 0 109 109">
<g id="kvg:StrokePaths_063c3">
<g id="kvg:063c3">
	<g id="kvg:063c3-g1">
		<path id="kvg:063c3-s1" d="M12,41.75C14.08,42,13.27,42.3,15.5,42c5.5-0.75,12-2,21.17-3.17"/>
		<path id="kvg:063c3-s2" d="M25.77,16.83c0.48,0.92,1.67,2.49,1.76,5.52c0.4,14.55,0.24,60.44,0.24,65.4c0,14.25-4.82,5.03-6.27,3.5"/>
		<path id="kvg:063c3-s3" d="M11.75,67.83c2.49,2.08,4.09,1.13,6.58-0.66C19.8,66.12,28.77,59.06,35,54"/>
	</g>
	<g id="kvg:063c3-g2">
		<g id="kvg:063c3-g3">
			<path id="kvg:063c3-s4" d="M47.41,15.17c3.42,1.99,8.84,8.2,9.69,11.3"/>
			<path id="kvg:063c3-s5" d="M80.82,13c0.15,0.66,0.13,1.95-0.15,2.42c-1.82,3.06-6.37,8.96-8.95,11.58"/>
			<path id="kvg:063c3-s6" d="M39.88,32.48c1.07,0.54,3.02,0.64,4.09,0.54c13.35-1.27,27.61-3.02,47.76-4.23c1.78-0.11,2.84,0.26,3.73,0.53"/>
		</g>
		<g id="kvg:063c3-g4">
			<g id="kvg:063c3-g5">
				<path id="kvg:063c3-s7" d="M43.73,45.71c0.36,0.68,0.6,1.86,0.71,2.54c0.12,0.68,0.29,44.58,0.12,46.09"/>
				<path id="kvg:063c3-s8" d="M45.15,46.89c1.43-0.17,14.53-2.55,15.59-2.74c1.91-0.34,2.62,1.71,2.38,2.74c-0.23,0.98-0.36,31.57-0.36,45.38c0,6.73-3.27,1.98-5.05,0.03"/>
				<path id="kvg:063c3-s9" d="M48.36,55.9c4.49,1.76,8.62,5.33,11.14,8.38"/>
				<path id="kvg:063c3-s10" d="M48.5,69.64c3.91,2.21,8.79,6.07,10.29,9.35"/>
			</g>
			<g id="kvg:063c3-g6">
				<path id="kvg:063c3-s11" d="M75.71,44.83c0.79,0.67,2.18,2.17,2.18,4.83c0,11.84-0.34,20.09-0.34,25.14"/>
				<path id="kvg:063c3-s12" d="M90.19,39c0.12,0.48,1.82,2.48,1.82,5.52c0,14.48-0.37,42.66-0.37,47.62c0,7.37-3.89,2.37-6.63-0.25"/>
			</g>
		</g>
	</g>
</g>
</g>
<g id="kvg:StrokeNumbers_063c3">
	<text transform="matrix(1 0 0 1 6.50 42.38)">1</text>
	<text transform="matrix(1 0 0 1 17.50 16.50)">2</text>
	<text transform="matrix(1 0 0 1 4.50 71.50)">3</text>
	<text transform="matrix(1 0 0 1 40.50 15.50)">4</text>
	<text transform="matrix(1 0 0 1 71.50 12.50)">5</text>
	<text transform="matrix(1 0 0 1 38.50 29.50)">6</text>
	<text transform="matrix(1 0 0 1 37.50 49.50)">7</text>
	<text transform="matrix(1 0 0 1 46.50 43.50)">8</text>
	<text transform="matrix(1 0 0 1 52.50 56.50)">9</text>
	<text transform="matrix(1 0 0 1 50.50 69.50)">10</text>
	<text transform="matrix(1 0 0 1 67.25 43.50)">11</text>
	<text transform="matrix(1 0 0 1 78.50 40.50)">12</text>
</g>
</svg>
