<svg width="109" height="109" viewBox="0 0 109 109">
<g id="kvg:StrokePaths_063d6">
<g id="kvg:063d6">
	<g id="kvg:063d6-g1">
		<path id="kvg:063d6-s1" d="M12.5,38.42c2.08,0.25,1.27,0.55,3.5,0.25c5.5-0.75,15.5-2.5,24.67-3.67"/>
		<path id="kvg:063d6-s2" d="M26.77,14.5c0.48,0.92,1.67,2.49,1.76,5.52c0.4,14.55,0.24,61.94,0.24,66.9c0,14.25-6.32,3.53-7.77,2"/>
		<path id="kvg:063d6-s3" d="M12.5,65.42c1.25,1.33,2.4,1.96,5.08,0.44c1.58-0.89,13.22-7.39,19.92-11.7"/>
	</g>
	<g id="kvg:063d6-g2">
		<g id="kvg:063d6-g3">
			<path id="kvg:063d6-s4" d="M50.73,15.77c0.45,0.31,0.92,0.56,1.12,0.94c1.58,3.03,2.38,11.92,3.46,17.36"/>
			<path id="kvg:063d6-s5" d="M52.49,18.36c9.29-1.58,23.8-3.83,29.12-4.22c1.94-0.15,2.61,1.36,2.33,2.22c-1.15,3.54-2.5,8.27-4.21,13.16"/>
			<path id="kvg:063d6-s6" d="M55.53,31.87c6.25-0.45,19.18-1.77,27.76-2.46"/>
		</g>
		<g id="kvg:063d6-g4">
			<path id="kvg:063d6-s7" d="M43.27,45.86c1.11,0.33,3.14,0.42,4.25,0.33c10.48-0.88,27.6-4.08,42.6-4.45c1.84-0.05,2.95,0.16,3.88,0.32"/>
			<path id="kvg:063d6-s8" d="M53.97,47.18c0.64,0.61,1.44,2.76,1.44,3.82c0,1.06-0.18,29.45-0.18,33.29"/>
			<path id="kvg:063d6-s9" d="M55.71,57.67c10.37-1.33,15.68-2.02,24.85-2.67"/>
			<path id="kvg:063d6-s10" d="M55.36,68.83c8.46-0.92,14.35-1.81,24.67-2.46"/>
			<path id="kvg:063d6-s11" d="M43.5,85.18c0.36,0.58,1.96,1.39,3.2,1.15c4.98-0.96,33.46-7.69,41.12-9.23"/>
			<path id="kvg:063d6-s12" d="M79.35,45.2c1.13,0.96,1.24,2.57,1.24,3.64s0.18,40.27,0.18,49"/>
		</g>
	</g>
</g>
</g>
<g id="kvg:StrokeNumbers_063d6">
	<text transform="matrix(1 0 0 1 6.50 38.50)">1</text>
	<text transform="matrix(1 0 0 1 17.50 15.30)">2</text>
	<text transform="matrix(1 0 0 1 4.50 68.50)">3</text>
	<text transform="matrix(1 0 0 1 45.25 25.50)">4</text>
	<text transform="matrix(1 0 0 1 54.50 14.50)">5</text>
	<text transform="matrix(1 0 0 1 59.50 28.50)">6</text>
	<text transform="matrix(1 0 0 1 37.50 46.50)">7</text>
	<text transform="matrix(1 0 0 1 47.50 56.50)">8</text>
	<text transform="matrix(1 0 0 1 59.50 53.78)">9</text>
	<text transform="matrix(1 0 0 1 59.50 65.45)">10</text>
	<text transform="matrix(1 0 0 1 40.50 80.50)">11</text>
	<text transform="matrix(1 0 0 1 70.50 51.50)">12</text>
</g>
</svg>
