<svg width="109" height="109" viewBox="0 0 109 109">
<g id="kvg:StrokePaths_063f4">
<g id="kvg:063f4">
	<g id="kvg:063f4-g1">
		<path id="kvg:063f4-s1" d="M13.25,39.42c1.94,0.23,3.76,0.48,5.75,0.18c4.67-0.71,11.8-2.01,18.77-2.99c0.88-0.12,1.73-0.1,2.65-0.1"/>
		<path id="kvg:063f4-s2" d="M29.02,16c0.93,0.93,1.51,2.5,1.51,4.52c0,15.23-0.01,52.96-0.01,64.4c0,14.25-6.32,3.53-7.77,2"/>
		<path id="kvg:063f4-s3" d="M13.57,67.22c0.97,0.63,2.27,0.58,3.46-0.37C21.25,63.5,25.5,60.25,36.75,51"/>
	</g>
	<g id="kvg:063f4-g2">
		<g id="kvg:063f4-g3">
			<path id="kvg:063f4-s4" d="M73.25,11.29c0,1.16-0.77,1.71-1.66,2.23c-3.73,2.19-11.65,6.18-22.44,8.9"/>
			<path id="kvg:063f4-s5" d="M44.27,28.4c2.48,1.66,6.4,6.84,7.02,9.43"/>
			<path id="kvg:063f4-s6" d="M60.12,24.25c2.15,1.63,5.55,6.71,6.09,9.25"/>
			<path id="kvg:063f4-s7" d="M86.03,19.39c0.08,0.9-0.04,1.78-0.47,2.57c-1.8,3.29-4.38,7.29-8.74,11.17"/>
		</g>
		<g id="kvg:063f4-g4">
			<path id="kvg:063f4-s8" d="M46.79,43.97c1.84,0.66,4.48,0.29,6.23-0.01c7.86-1.33,16.91-2.8,23.12-3.4c1.81-0.18,3.7-0.29,5.45,0.18"/>
			<g id="kvg:063f4-g5">
				<path id="kvg:063f4-s9" d="M40.86,58.03c2.19,0.84,4.64,0.56,6.89,0.27C61,56.59,73.7,54.36,85.38,53.4c2-0.16,3.8-0.05,5.75,0.4"/>
				<path id="kvg:063f4-s10" d="M60.06,46.04c0.21,0.76,0.45,1.58,0.25,2.95c-1.54,10.07-8.68,27.14-22.05,35.75"/>
				<g id="kvg:063f4-g6">
					<path id="kvg:063f4-s11" d="M57.55,67.42c1.25,0.15,2.72-0.25,3.94-0.5c4.64-0.94,9.9-2.28,13.65-3.21c2.71-0.68,3.53,1.84,2.61,3.58c-4.99,9.46-20.81,25.77-37.76,30.96"/>
					<path id="kvg:063f4-s12" d="M53.15,70.75c3.73,1.62,21.97,16.39,29.21,21.04c5.39,3.46,8.77,4.96,11.44,5.63"/>
				</g>
			</g>
		</g>
	</g>
</g>
</g>
<g id="kvg:StrokeNumbers_063f4">
	<text transform="matrix(1 0 0 1 6.75 40.63)">1</text>
	<text transform="matrix(1 0 0 1 20.50 17.50)">2</text>
	<text transform="matrix(1 0 0 1 5.50 71.50)">3</text>
	<text transform="matrix(1 0 0 1 64.50 9.50)">4</text>
	<text transform="matrix(1 0 0 1 37.50 29.50)">5</text>
	<text transform="matrix(1 0 0 1 53.50 30.50)">6</text>
	<text transform="matrix(1 0 0 1 77.50 22.50)">7</text>
	<text transform="matrix(1 0 0 1 43.50 42.13)">8</text>
	<text transform="matrix(1 0 0 1 41.50 56.50)">9</text>
	<text transform="matrix(1 0 0 1 49.50 52.63)">10</text>
	<text transform="matrix(1 0 0 1 61.50 63.50)">11</text>
	<text transform="matrix(1 0 0 1 51.75 81.50)">12</text>
</g>
</svg>
