<svg width="109" height="109" viewBox="0 0 109 109">
<g id="kvg:StrokePaths_0642c">
<g id="kvg:0642c">
	<g id="kvg:0642c-g1">
		<path id="kvg:0642c-s1" d="M11.75,38.67c1.8,0.22,3.02,0.32,4.87,0.06c4.68-0.66,10.45-1.62,16.15-3.07c0.91-0.23,1.89-0.03,2.89-0.15"/>
		<path id="kvg:0642c-s2" d="M24.77,16c0.93,0.93,1.26,2.25,1.26,4.52c0,15.23-0.01,53.71-0.01,65.15c0,14.25-5.32,4.28-6.77,2.75"/>
		<path id="kvg:0642c-s3" d="M11,64.93c1.54,1.54,2.56,1.65,4.25,0.32c5.25-4.12,7.88-6.12,19-14.83"/>
	</g>
	<g id="kvg:0642c-g2">
		<g id="kvg:0642c-g3">
			<path id="kvg:0642c-s4" d="M51.93,15.75c0.29,1.25,0.36,2.12-0.25,3.65c-0.94,2.36-2.31,5.48-5.13,10.6"/>
			<path id="kvg:0642c-s5" d="M40.23,31.01c1.06,1.06,1.43,2.46,1.49,3.92c0.9,21.95,0.28,44.45-9.06,56.62"/>
			<path id="kvg:0642c-s6" d="M42.22,32.96c2.54-0.5,8.58-1.98,12.17-2.72c3.25-0.67,4.37-0.03,4.37,3.17c0,2.09-0.01,52.48-0.01,55.47c0,8.97-4.94,2.16-5.52,1.56"/>
			<path id="kvg:0642c-s7" d="M48,40.24c1.75,1.64,3.37,4.39,4.41,7.14"/>
			<path id="kvg:0642c-s8" d="M48.56,60.44c1,1,1.12,2.39,1.12,3.59c0,3.38-0.02,7.53-0.03,11.73c0,1.67-0.01,3.42-0.01,5.27"/>
			<path id="kvg:0642c-s9" d="M33.71,60.97c0.85,0.84,1.99,0.99,2.96,0.63c5.33-1.98,22.37-8.34,25.44-9.53"/>
		</g>
		<g id="kvg:0642c-g4">
			<g id="kvg:0642c-g5">
				<g id="kvg:0642c-g6">
					<path id="kvg:0642c-s10" d="M70.19,19.39c0.77,0.77,1.09,1.91,1.06,2.78c-0.26,7.46-2.01,19.08-5.01,24.04"/>
				</g>
				<path id="kvg:0642c-s11" d="M72.16,21.24c3.34-0.74,7.42-1.95,9.69-2.53c1.87-0.48,2.66,0.44,2.48,2.39c-0.35,3.84-1.09,7.4-1.66,13.17c-0.66,6.73-0.12,8.9,5.73,8.9c5.82,0,6.85-1.46,6.85-7.85"/>
			</g>
			<g id="kvg:0642c-g7">
				<path id="kvg:0642c-s12" d="M66.96,55.18c1.67,0.32,3.31,0.34,5.28-0.12c4.02-0.94,11.56-3.28,12.92-3.78c2.1-0.78,3.91,0.97,3.32,2.95C82.33,74.66,75.5,84.25,63.79,94.98"/>
				<path id="kvg:0642c-s13" d="M67,61.12c2.53,0.71,12.75,16,21.8,27.57c1.73,2.22,3.56,4.27,5.93,5.81"/>
			</g>
		</g>
	</g>
</g>
</g>
<g id="kvg:StrokeNumbers_0642c">
	<text transform="matrix(1 0 0 1 5.50 39.13)">1</text>
	<text transform="matrix(1 0 0 1 16.50 15.50)">2</text>
	<text transform="matrix(1 0 0 1 3.50 69.50)">3</text>
	<text transform="matrix(1 0 0 1 44.75 15.13)">4</text>
	<text transform="matrix(1 0 0 1 35.25 43.50)">5</text>
	<text transform="matrix(1 0 0 1 41.25 28.63)">6</text>
	<text transform="matrix(1 0 0 1 49.50 39.50)">7</text>
	<text transform="matrix(1 0 0 1 43.50 69.50)">8</text>
	<text transform="matrix(1 0 0 1 31.50 70.50)">9</text>
	<text transform="matrix(1 0 0 1 60.75 25.63)">10</text>
	<text transform="matrix(1 0 0 1 72.50 17.50)">11</text>
	<text transform="matrix(1 0 0 1 68.50 51.13)">12</text>
	<text transform="matrix(1 0 0 1 72.75 64.50)">13</text>
</g>
</svg>
