<svg width="109" height="109" viewBox="0 0 109 109">
<g id="kvg:StrokePaths_064f6">
<g id="kvg:064f6">
	<g id="kvg:064f6-g1">
		<path id="kvg:064f6-s1" d="M12.5,36.42c2.08,0.25,1.27,0.55,3.5,0.25c5.5-0.75,12-2,21.17-3.17"/>
		<path id="kvg:064f6-s2" d="M25.75,13.25c0.48,0.91,1.74,2.46,1.74,5.47c0,15.09,0.24,55.94,0.24,67.27c0,14.12-6.27,3.5-7.69,1.98"/>
		<path id="kvg:064f6-s3" d="M12,63.73c0.72,0.85,1.85,1.34,3.43,0.56c0.93-0.46,16.35-10.41,20.3-12.63"/>
	</g>
	<g id="kvg:064f6-g2">
		<g id="kvg:064f6-g3">
			<g id="kvg:064f6-g4">
				<path id="kvg:064f6-s4" d="M50.03,14.51c0.02,0.5,0.05,1.29-0.04,2.01c-0.53,4.24-3.57,13.55-7.73,19.25"/>
				<path id="kvg:064f6-s5" d="M49.51,25.31c2.48,0,11.77-1.63,14.56-1.63"/>
				<path id="kvg:064f6-s6" d="M56.01,27.63c1.72,1.32,4.44,5.42,4.87,7.47"/>
			</g>
			<g id="kvg:064f6-g5">
				<path id="kvg:064f6-s7" d="M76.58,13.5c0.02,0.44,0.09,1.15-0.04,1.77c-1.03,4.64-3.87,11.27-7.63,16.98"/>
				<path id="kvg:064f6-s8" d="M76.41,23.36c3.17,0,16.1-2.35,19.66-2.35"/>
				<path id="kvg:064f6-s9" d="M86.29,26.27c0.01,0.2,0.03,0.51-0.03,0.8c-0.33,1.69-2.23,5.38-4.83,7.65"/>
			</g>
		</g>
		<g id="kvg:064f6-g6">
			<g id="kvg:064f6-g7">
				<path id="kvg:064f6-s10" d="M54.61,37.52c1.91,1.38,4.92,5.66,5.4,7.8"/>
				<path id="kvg:064f6-s11" d="M75.12,36.54c0.07,0.42,0.06,1.26-0.07,1.57c-0.89,1.98-3.13,5.81-4.4,7.51"/>
				<path id="kvg:064f6-s12" d="M42.59,49.62c1.25,0.37,3.55,0.44,4.8,0.37c15.68-0.87,21.27-3.61,44.94-4.44c2.08-0.07,3.34,0.18,4.38,0.36"/>
			</g>
			<g id="kvg:064f6-g8">
				<g id="kvg:064f6-g9">
					<path id="kvg:064f6-s13" d="M46.26,59.19c0.35,0.49,0.58,0.99,0.69,1.48c0.11,0.5,0.28,33.38,0.11,34.48"/>
					<path id="kvg:064f6-s14" d="M48.04,60.52c1.38-0.12,14.09-2.21,15.12-2.34c1.85-0.25,2.54,1.61,2.31,2.34c-0.22,0.71-0.35,22.04-0.35,32.04c0,5.19-3.15,1.89-5.09-0.14"/>
					<path id="kvg:064f6-s15" d="M47.65,70.53c4.73-0.74,13.25-1.93,17.4-2.3"/>
					<path id="kvg:064f6-s16" d="M47.6,80.2c3.69-0.37,12.55-1.48,16.82-1.73"/>
				</g>
				<g id="kvg:064f6-g10">
					<path id="kvg:064f6-s17" d="M75.57,60.7c0.06,0.27,0.85,1.4,0.91,3.11c0.29,8.2,0.36,17.97,0.19,20.76"/>
					<path id="kvg:064f6-s18" d="M88.47,56.88c0.06,0.31,0.91,1.6,0.91,3.55c0,9.54,0.19,27.48,0.19,30.67c0,7.77-2.55,3.81-6.28,0.98"/>
				</g>
			</g>
		</g>
	</g>
</g>
</g>
<g id="kvg:StrokeNumbers_064f6">
	<text transform="matrix(1 0 0 1 6.50 37.50)">1</text>
	<text transform="matrix(1 0 0 1 17.50 13.50)">2</text>
	<text transform="matrix(1 0 0 1 4.50 66.50)">3</text>
	<text transform="matrix(1 0 0 1 42.50 15.50)">4</text>
	<text transform="matrix(1 0 0 1 53.50 22.58)">5</text>
	<text transform="matrix(1 0 0 1 49.50 33.50)">6</text>
	<text transform="matrix(1 0 0 1 69.50 13.50)">7</text>
	<text transform="matrix(1 0 0 1 80.50 20.50)">8</text>
	<text transform="matrix(1 0 0 1 77.50 31.50)">9</text>
	<text transform="matrix(1 0 0 1 44.75 40.50)">10</text>
	<text transform="matrix(1 0 0 1 65.50 41.50)">11</text>
	<text transform="matrix(1 0 0 1 40.50 46.50)">12</text>
	<text transform="matrix(1 0 0 1 33.75 67.23)">13</text>
	<text transform="matrix(1 0 0 1 46.75 57.50)">14</text>
	<text transform="matrix(1 0 0 1 50.50 67.50)">15</text>
	<text transform="matrix(1 0 0 1 50.50 77.50)">16</text>
	<text transform="matrix(1 0 0 1 68.75 58.50)">17</text>
	<text transform="matrix(1 0 0 1 77.50 57.10)">18</text>
</g>
</svg>
