<svg width="109" height="109" viewBox="0 0 109 109">
<g id="kvg:StrokePaths_06538">
<g id="kvg:06538">
	<g id="kvg:06538-g1">
		<path id="kvg:06538-s1" d="M35.25,14c0.24,2.17-0.07,5.01-0.85,6.87c-4.97,11.86-11.27,22.99-22.66,37.42"/>
		<path id="kvg:06538-s2" d="M25.53,42c0.47,1,1.19,1.94,1.25,3.23c0.58,12.48-1.02,43.27-0.53,50.52"/>
	</g>
	<g id="kvg:06538-g2">
		<path id="kvg:06538-s3" d="M38.27,33.83c0.98,0.92,1.67,1.99,1.76,5.02C40.42,53.41,40,81.54,40,86.5"/>
	</g>
	<g id="kvg:06538-g3">
		<g id="kvg:06538-g4">
			<path id="kvg:06538-s4" d="M63.34,13.64c0.04,0.96,0.26,2.54-0.08,3.87C61.1,26,55.23,45.25,47.75,57"/>
			<path id="kvg:06538-s5" d="M62.22,34.17c0.03-0.17,1.71,0.5,2.31,0.46c6.28-0.52,17.02-2.38,26.6-3.22c1.08-0.09,1.74-0.02,2.02,0.08"/>
		</g>
		<g id="kvg:06538-g5">
			<g id="kvg:06538-g6">
				<path id="kvg:06538-s6" d="M79.79,37.43c0.56,1.39,0.86,2.38,0.28,4.92C74.79,65.4,62.75,86,45.37,94"/>
			</g>
			<path id="kvg:06538-s7" d="M55.75,46.26c6,10.49,22.98,34.99,33.52,43.43c2.03,1.62,3.32,1.89,4.98,2.07"/>
		</g>
	</g>
</g>
</g>
<g id="kvg:StrokeNumbers_06538">
	<text transform="matrix(1 0 0 1 27.50 14.30)">1</text>
	<text transform="matrix(1 0 0 1 19.50 57.50)">2</text>
	<text transform="matrix(1 0 0 1 33.50 42.50)">3</text>
	<text transform="matrix(1 0 0 1 55.50 14.40)">4</text>
	<text transform="matrix(1 0 0 1 65.50 31.33)">5</text>
	<text transform="matrix(1 0 0 1 72.50 44.50)">6</text>
	<text transform="matrix(1 0 0 1 58.50 47.50)">7</text>
</g>
</svg>
