<svg width="109" height="109" viewBox="0 0 109 109">
<g id="kvg:StrokePaths_06536">
<g id="kvg:06536">
	<g id="kvg:06536-g1">
		<g id="kvg:06536-g2">
			<path id="kvg:06536-s1" d="M32.87,15.75c1.09,0.5,1.74,2.25,1.96,3.25c0.22,1,0,72.75-0.22,79"/>
		</g>
		<path id="kvg:06536-s2" d="M15.5,32.5c1.5,1.75,1.39,2.5,1.39,5c0,11.82-0.45,27.69-0.45,29.69s1.65,3.14,3.74,1.64s11.5-7.34,14.28-8.84"/>
	</g>
	<g id="kvg:06536-g3">
		<g id="kvg:06536-g4">
			<path id="kvg:06536-s3" d="M61.34,13.14c0.04,0.84,0.26,2.22-0.08,3.38C59.1,23.93,53.23,40.74,45.75,51"/>
			<path id="kvg:06536-s4" d="M57.22,36.67c0.03-0.17,1.71,0.5,2.31,0.46c6.28-0.52,19.02-3.38,28.6-4.22c1.08-0.09,1.74-0.02,2.02,0.08"/>
		</g>
		<g id="kvg:06536-g5">
			<g id="kvg:06536-g6">
				<path id="kvg:06536-s5" d="M76.82,42.93c0.53,1.3,0.82,2.22,0.27,4.59c-5.06,21.53-16.58,40.76-33.21,48.23"/>
			</g>
			<path id="kvg:06536-s6" d="M52.25,53.76c3.5,0.49,24.47,29.65,35.7,37.16c2.16,1.45,4.54,3.18,6.31,3.34"/>
		</g>
	</g>
</g>
</g>
<g id="kvg:StrokeNumbers_06536">
	<text transform="matrix(1 0 0 1 23.25 16.63)">1</text>
	<text transform="matrix(1 0 0 1 8.25 42.13)">2</text>
	<text transform="matrix(1 0 0 1 51.75 15.13)">3</text>
	<text transform="matrix(1 0 0 1 63.75 31.63)">4</text>
	<text transform="matrix(1 0 0 1 68.25 48.13)">5</text>
	<text transform="matrix(1 0 0 1 50.25 63.13)">6</text>
</g>
</svg>
