<svg width="109" height="109" viewBox="0 0 109 109">
<g id="kvg:StrokePaths_06534">
<g id="kvg:06534">
	<g id="kvg:06534-g1">
		<g id="kvg:06534-g2">
			<path id="kvg:06534-s1" d="M52.28,10.88c0.48,0.31,1.5,2.32,1.6,2.93c0.1,0.62-0.06,25.7-0.16,29.57"/>
			<path id="kvg:06534-s2" d="M54,26.75c2.75-0.25,24.25-3,25.75-3s3.52,0,4.75,0.25"/>
		</g>
		<g id="kvg:06534-g3">
			<path id="kvg:06534-s3" d="M33.5,45.23c2,0.38,2.25,0.96,6.25,0.38s29.25-4.06,32-4.64s4.88,2.18,3.75,4.22C62.25,69,40.5,89.75,16,97.5"/>
			<path id="kvg:06534-s4" d="M34.5,52.7c5.27,1.03,31.04,28.63,49.4,39.94c2.86,1.76,4.94,2.93,7.6,3.52"/>
		</g>
	</g>
</g>
</g>
<g id="kvg:StrokeNumbers_06534">
	<text transform="matrix(1 0 0 1 42.50 11.50)">1</text>
	<text transform="matrix(1 0 0 1 58.50 22.50)">2</text>
	<text transform="matrix(1 0 0 1 30.50 42.50)">3</text>
	<text transform="matrix(1 0 0 1 30.50 61.55)">4</text>
</g>
</svg>
