<svg width="109" height="109" viewBox="0 0 109 109">
<g id="kvg:StrokePaths_06556">
<g id="kvg:06556">
	<g id="kvg:06556-g1">
		<g id="kvg:06556-g2">
			<path id="kvg:06556-s1" d="M18.82,24.04c0.86,0.34,2.45,0.39,3.31,0.34C28.75,24,39.75,23,47.79,22.02c1.43-0.17,2.3,0.16,3.02,0.33"/>
			<path id="kvg:06556-s2" d="M33.03,12c0.11,0.26,1.56,1.34,1.56,2.98c0,10.56-0.32,8.15-0.32,22.12"/>
			<path id="kvg:06556-s3" d="M14.41,38.18c1.34,0.48,3.79,0.45,5.13,0.48c5.21,0.09,23.21-1.91,29.12-2.1c2.23-0.07,3.57,0.23,4.68,0.47"/>
		</g>
		<g id="kvg:06556-g3">
			<g id="kvg:06556-g4">
				<g id="kvg:06556-g5">
					<path id="kvg:06556-s4" d="M32.8,41.75c0.67,0.42,1.78,2.06,1.78,2.9c0,3.1-0.21,4.84-0.09,7.47"/>
					<path id="kvg:06556-s5" d="M14,52.94c0.9,0.27,2.79,0.36,3.62,0.38c7.13,0.17,23.63-2.08,31.46-2.98c1.4-0.16,2.12,0.03,3.17,0.49"/>
				</g>
				<g id="kvg:06556-g6">
					<path id="kvg:06556-s6" d="M33.29,59.83c4.21,2.42,10.21,4.67,14.89,5.87c0.79,0.2,1.57,1.04,1.44,2.66c-0.35,4.28-8.65,21.77-11.66,25.25c-3.26,3.77-5.44-0.15-6.41-0.65"/>
					<path id="kvg:06556-s7" d="M33.52,55.39c0.3,1,0.24,2.13-0.12,3.25c-2.49,7.77-9.69,23.46-20.87,30.81"/>
				</g>
			</g>
		</g>
	</g>
	<g id="kvg:06556-g7">
		<g id="kvg:06556-g8">
			<g id="kvg:06556-g9">
				<path id="kvg:06556-s8" d="M69.09,12.64c0.04,0.97,0.1,2.54-0.08,3.91c-1.26,9.45-4.26,29.2-14.49,39.93"/>
				<path id="kvg:06556-s9" d="M67.58,35.38c0.03-0.18,1.54,0.52,2.09,0.47c5.67-0.54,12.36-3.46,21.01-4.33c0.97-0.1,1.57-0.02,1.82,0.09"/>
			</g>
			<g id="kvg:06556-g10">
				<g id="kvg:06556-g11">
					<path id="kvg:06556-s10" d="M82.45,38.24c0.5,1.44,0.78,2.46,0.25,5.09c-4.77,23.84-15.64,45.15-31.33,53.42"/>
				</g>
				<path id="kvg:06556-s11" d="M60.74,47.87c5.65,10.97,21.64,36.58,31.57,45.39c1.91,1.7,3.13,1.98,4.69,2.16"/>
			</g>
		</g>
	</g>
</g>
</g>
<g id="kvg:StrokeNumbers_06556">
	<text transform="matrix(1 0 0 1 12.50 23.50)">1</text>
	<text transform="matrix(1 0 0 1 23.50 12.50)">2</text>
	<text transform="matrix(1 0 0 1 7.50 38.50)">3</text>
	<text transform="matrix(1 0 0 1 26.50 47.90)">4</text>
	<text transform="matrix(1 0 0 1 6.50 52.50)">5</text>
	<text transform="matrix(1 0 0 1 39.50 60.50)">6</text>
	<text transform="matrix(1 0 0 1 24.50 62.50)">7</text>
	<text transform="matrix(1 0 0 1 59.75 11.85)">8</text>
	<text transform="matrix(1 0 0 1 71.50 32.50)">9</text>
	<text transform="matrix(1 0 0 1 72.50 44.50)">10</text>
	<text transform="matrix(1 0 0 1 64.50 53.50)">11</text>
</g>
</svg>
