<svg width="109" height="109" viewBox="0 0 109 109">
<g id="kvg:StrokePaths_0659b">
<g id="kvg:0659b">
	<g id="kvg:0659b-g1">
		<g id="kvg:0659b-g2">
			<path id="kvg:0659b-s1" d="M27.73,11.5c0.04,0.49,0.09,1.26-0.08,1.96c-1,4.14-5.9,11.79-13.65,19.29"/>
			<path id="kvg:0659b-s2" d="M25.89,19.5c2,0,13.61-1.75,17.32-2.75c2.16-0.58,3.29,1.14,2,2.75C41,24.75,36.71,30.25,33.55,36"/>
		</g>
		<g id="kvg:0659b-g3">
			<path id="kvg:0659b-s3" d="M18.42,37c0.74,0.76,1.47,2.89,1.48,3.69c0.02,1.95-0.53,24.23-0.67,25.94c-0.92,10.97-3,21.07-9.22,27.88"/>
			<path id="kvg:0659b-s4" d="M21.07,38.7c2.5-0.21,21.42-3.73,23.28-3.96c3.33-0.42,4.58,2.71,4.16,3.96c-0.4,1.2-0.62,35.05-0.62,51.93c0,12.12-4.39,3.37-6.68,1.62"/>
			<path id="kvg:0659b-s5" d="M32.42,38.37c0.05,0.24,0.68,1.25,0.73,2.77C33.38,48.42,33,65.52,33,68"/>
			<path id="kvg:0659b-s6" d="M20.07,53.85C30.5,52.5,37.5,51.75,47.7,50.5"/>
			<path id="kvg:0659b-s7" d="M20.07,69.75c6.68-0.5,17.43-1.75,27.19-2.5"/>
		</g>
	</g>
	<g id="kvg:0659b-g4">
		<g id="kvg:0659b-g5">
			<path id="kvg:0659b-s8" d="M62.5,27.5c2.82,1.59,7.29,6.53,8,9"/>
		</g>
		<g id="kvg:0659b-g6">
			<path id="kvg:0659b-s9" d="M57.5,44.25c3,1.68,7.75,6.89,8.5,9.5"/>
		</g>
		<path id="kvg:0659b-s10" d="M55.25,65.75c0.65,0.25,2.4,0.93,4.13,0.75c7.12-0.75,25.62-4,35.85-4c1.74,0,2.18-0.25,3.26,0"/>
		<path id="kvg:0659b-s11" d="M79.37,12.75c1.09,0.5,1.74,2.25,1.96,3.25c0.22,1,0,76.75-0.22,83"/>
	</g>
</g>
</g>
<g id="kvg:StrokeNumbers_0659b">
	<text transform="matrix(1 0 0 1 20.50 10.50)">1</text>
	<text transform="matrix(1 0 0 1 32.50 15.50)">2</text>
	<text transform="matrix(1 0 0 1 13.25 46.48)">3</text>
	<text transform="matrix(1 0 0 1 22.50 35.50)">4</text>
	<text transform="matrix(1 0 0 1 36.50 45.20)">5</text>
	<text transform="matrix(1 0 0 1 23.50 50.38)">6</text>
	<text transform="matrix(1 0 0 1 23.75 66.50)">7</text>
	<text transform="matrix(1 0 0 1 57.50 25.50)">8</text>
	<text transform="matrix(1 0 0 1 54.50 41.50)">9</text>
	<text transform="matrix(1 0 0 1 52.50 62.50)">10</text>
	<text transform="matrix(1 0 0 1 68.50 11.50)">11</text>
</g>
</svg>
