<svg width="109" height="109" viewBox="0 0 109 109">
<g id="kvg:StrokePaths_065a5">
<g id="kvg:065a5">
	<g id="kvg:065a5-g1">
		<g id="kvg:065a5-g2">
			<path id="kvg:065a5-s1" d="M59.76,11.75c-0.39,1.25-1.14,2.17-1.87,2.68C49.5,20.25,41.88,23.5,28,28.75"/>
		</g>
		<path id="kvg:065a5-s2" d="M23.18,28.63c1.16,1.16,1.46,2.88,1.52,4.9C25.5,61.5,22.5,78,13.06,87.36"/>
		<path id="kvg:065a5-s3" d="M28.25,41.69c4,0.31,6.76,0.14,9.74-0.23c11.47-1.42,32.93-3.79,44-4.65c2.87-0.22,6.15-0.24,9,0.29"/>
		<path id="kvg:065a5-s4" d="M57.62,41.8c1.04,1.04,1.32,2.7,1.32,5.01c0,4.97,0.07,29.65-0.01,44.94c-0.02,3.76-0.03,6.98-0.03,9.25"/>
	</g>
	<g id="kvg:065a5-g3">
		<path id="kvg:065a5-s5" d="M46.52,61.33c12.36,1.92,28.73,9.17,32.54,14.13"/>
	</g>
</g>
</g>
<g id="kvg:StrokeNumbers_065a5">
	<text transform="matrix(1 0 0 1 50.25 10.63)">1</text>
	<text transform="matrix(1 0 0 1 15.75 37.63)">2</text>
	<text transform="matrix(1 0 0 1 32.25 38.50)">3</text>
	<text transform="matrix(1 0 0 1 50.25 50.50)">4</text>
	<text transform="matrix(1 0 0 1 37.50 62.50)">5</text>
</g>
</svg>
