<svg width="109" height="109" viewBox="0 0 109 109">
<g id="kvg:StrokePaths_065c6">
<g id="kvg:065c6">
	<g id="kvg:065c6-g1">
		<g id="kvg:065c6-g2">
			<path id="kvg:065c6-s1" d="M 29.64,14.25 c 0.65,0.61 1.73,2.96 1.73,4.16 0,4.45 -0.21,9.38 -0.09,13.15"/>
			<path id="kvg:065c6-s2" d="M 11.75,33.44 c 0.94,0.04 4.22,0.29 5.14,0.23 7.39,-0.48 21.25,-3.32 26.55,-3.76 1.54,-0.13 2.36,-0.15 4.06,-0.15"/>
		</g>
		<g id="kvg:065c6-g3">
			<path id="kvg:065c6-s3" d="M 29.17,46.5 c 3.33,1 6.58,2.75 10.46,4.11 1.91,0.67 2.53,1.71 2.42,4.36 -0.29,7 -7.67,31.41 -12.12,35.85 -3.18,3.18 -6.49,-2.24 -7.29,-3.07"/>
			<path id="kvg:065c6-s4" d="M 29.77,36.25 c 0.05,1.01 0.14,2.6 -0.11,4.04 C 27.81,50.96 22.07,68.01 9.89,79"/>
		</g>
	</g>
	<g id="kvg:065c6-g4">
		<path id="kvg:065c6-s5" d="M 60.03,13.25 c 0.15,1.51 -0.04,3.49 -0.53,4.78 -3.13,8.25 -7.09,15.22 -14.25,25.26"/>
		<path id="kvg:065c6-s6" d="M 56.25,27.89 c 1.02,0.11 3,0.59 4.79,0.48 8.35,-0.51 21.39,-3.47 26.92,-3.98 1.56,-0.14 3,0.18 3.79,0.37"/>
		<g id="kvg:065c6-g5">
			<g id="kvg:065c6-g6">
				<path id="kvg:065c6-s7" d="M 47.25,45.62 c 1.05,0.07 3.43,0.42 4.46,0.37 9.94,-0.42 30.97,-4.02 42.15,-4.22 1.73,-0.03 2.61,0.03 3.9,0.48"/>
			</g>
			<g id="kvg:065c6-g7">
				<path id="kvg:065c6-s8" d="M 52.22,57.78 c 0.44,0.3 1.36,2.68 1.44,3.29 0.58,4.43 1.94,23.01 1.86,26.82"/>
				<path id="kvg:065c6-s9" d="M 53.55,59.62 c 3.2,-0.22 33.11,-3.89 35.49,-4.14 2.21,-0.23 3.36,1.72 3.31,3.14 C 92,68.5 90.5,77.5 88.52,84.51 c -1.8,6.39 -4.99,0.05 -6.05,-1.04"/>
				<path id="kvg:065c6-s10" d="M 69.91,31.808016 c 0.44,0.3 1.36,2.28 1.44,2.89 0.09,0.61 0.24,59.301984 0.24,65.441984"/>
			</g>
		</g>
	</g>
</g>
</g>
<g id="kvg:StrokeNumbers_065c6">
	<text transform="matrix(1 0 0 1 21.50 14.50)">1</text>
	<text transform="matrix(1 0 0 1 4.50 33.50)">2</text>
	<text transform="matrix(1 0 0 1 33.50 45.50)">3</text>
	<text transform="matrix(1 0 0 1 21.50 42.50)">4</text>
	<text transform="matrix(1 0 0 1 50.44 13.50)">5</text>
	<text transform="matrix(1 0 0 1 62.50 25.50)">6</text>
	<text transform="matrix(1 0 0 1 52.50 42.50)">7</text>
	<text transform="matrix(1 0 0 1 46.44 64.50)">8</text>
	<text transform="matrix(1 0 0 1 53.50 55.50)">9</text>
	<text transform="matrix(1 0 0 1 72.43 35.49)">10</text>
</g>
</svg>
