<svg width="109" height="109" viewBox="0 0 109 109">
<g id="kvg:StrokePaths_065c1">
<g id="kvg:065c1">
	<g id="kvg:065c1-g1">
		<g id="kvg:065c1-g2">
			<g id="kvg:065c1-g3">
				<path id="kvg:065c1-s1" d="M52.75,9.5c0.6,0.61,1.51,1.97,1.51,3.53c0,2.47,0,1.52,0,8.22"/>
				<path id="kvg:065c1-s2" d="M25.5,22.7c1.16,0.33,2.53,0.38,3.68,0.33c6.57-0.28,42.07-3.03,51.99-3.27c1.94-0.05,3.1,0.16,4.07,0.32"/>
			</g>
			<g id="kvg:065c1-g4">
				<path id="kvg:065c1-s3" d="M35.75,25c3.62,4.37,5.92,9.62,6.25,12.5"/>
				<path id="kvg:065c1-s4" d="M69.96,24c0.29,1.25,0.54,2.28,0.31,2.62C68,30,64.12,36.43,62.5,38.5"/>
			</g>
		</g>
		<g id="kvg:065c1-g5">
			<path id="kvg:065c1-s5" d="M22.27,39.57C22.08,43.02,17.6,52.06,16,54.11"/>
			<path id="kvg:065c1-s6" d="M22.71,41.9c9.54-0.9,44.04-4.15,62.6-4.53c11.35-0.23,3.58,5.41-0.65,8.95"/>
		</g>
	</g>
	<g id="kvg:065c1-g6">
		<g id="kvg:065c1-g7">
			<path id="kvg:065c1-s7" d="M51.9,44.77c0.9,0.49,2.38,2.36,2.38,3.32c0,3.55-0.28,5.69-0.12,8.7"/>
			<path id="kvg:065c1-s8" d="M22.97,59.01c1.14,0.08,3.73,0.55,4.84,0.44c8.93-0.92,41.86-3.91,53.99-4.55c1.87-0.1,2.83,0.04,4.23,0.56"/>
		</g>
		<g id="kvg:065c1-g8">
			<path id="kvg:065c1-s9" d="M48.96,67.9c5.04,1.35,16.63,0.74,20.31,0.38c2.39-0.23,3.05,1.06,2.92,2.7c-0.35,4.34-8.6,22.09-11.59,25.62c-3.24,3.82-5.41-0.15-6.37-0.66"/>
			<path id="kvg:065c1-s10" d="M50.14,61.03c0.49,0.99,0.4,2.11-0.19,3.22c-4.04,7.69-15.71,23.22-33.84,30.49"/>
		</g>
	</g>
</g>
</g>
<g id="kvg:StrokeNumbers_065c1">
	<text transform="matrix(1 0 0 1 44.50 10.50)">1</text>
	<text transform="matrix(1 0 0 1 17.50 23.50)">2</text>
	<text transform="matrix(1 0 0 1 30.50 32.98)">3</text>
	<text transform="matrix(1 0 0 1 61.50 30.50)">4</text>
	<text transform="matrix(1 0 0 1 15.50 40.50)">5</text>
	<text transform="matrix(1 0 0 1 24.50 38.50)">6</text>
	<text transform="matrix(1 0 0 1 45.44 48.68)">7</text>
	<text transform="matrix(1 0 0 1 23.50 56.50)">8</text>
	<text transform="matrix(1 0 0 1 55.50 66.50)">9</text>
	<text transform="matrix(1 0 0 1 37.50 67.50)">10</text>
</g>
</svg>
