<svg width="109" height="109" viewBox="0 0 109 109">
<g id="kvg:StrokePaths_0663f">
<g id="kvg:0663f">
	<g id="kvg:0663f-g1">
		<path id="kvg:0663f-s1" d="M14.27,24.69c0.39,0.78,0.78,1.18,0.78,2.22c0,1.04-0.13,42.29,0,43.34"/>
		<path id="kvg:0663f-s2" d="M15.69,25.82c2.2-0.13,12.91-1.67,14.92-1.83c1.67-0.13,2.74,1.45,2.61,2.22c-0.26,1.57-0.52,42.73-0.52,43.51"/>
		<path id="kvg:0663f-s3" d="M16.08,45.98c2.97,0,12.36-1.31,15.72-1.31"/>
		<path id="kvg:0663f-s4" d="M15.94,67.31c6.06-0.56,8.31-0.56,15.85-1.04"/>
	</g>
	<g id="kvg:0663f-g2">
		<g id="kvg:0663f-g3">
			<path id="kvg:0663f-s5" d="M66.96,10.07c0.55,0.38,1.73,2.88,1.84,3.65c0.11,0.77,0.06,7.11-0.05,11.92"/>
			<g id="kvg:0663f-g4">
				<path id="kvg:0663f-s6" d="M42.54,27.27c1.25,0.27,3.55,0.34,4.79,0.27c14.77-0.84,33.91-2.92,45.08-3.02c2.08-0.02,3.33,0.13,4.37,0.27"/>
				<path id="kvg:0663f-s7" d="M47.21,27.75c0.04,1.69,0.08,2.17-0.09,4.59C46,48,45.5,80.25,32.5,96.63"/>
			</g>
		</g>
		<g id="kvg:0663f-g5">
			<path id="kvg:0663f-s8" d="M69.84,42.62c0.48,1.1,0.47,4.34,0.02,5.67c-4.53,13.2-9.14,23.88-17.72,38.19c-1.8,3-1,4.7,1.57,3.95c8.23-2.38,23.98-4.44,36.47-8.12"/>
			<path id="kvg:0663f-s9" d="M82.53,69.26c4.52,4.49,11.66,18.46,12.79,25.45"/>
		</g>
	</g>
</g>
</g>
<g id="kvg:StrokeNumbers_0663f">
	<text transform="matrix(1 0 0 1 8.25 31.63)">1</text>
	<text transform="matrix(1 0 0 1 17.50 22.50)">2</text>
	<text transform="matrix(1 0 0 1 19.50 42.50)">3</text>
	<text transform="matrix(1 0 0 1 19.50 64.50)">4</text>
	<text transform="matrix(1 0 0 1 56.50 10.50)">5</text>
	<text transform="matrix(1 0 0 1 42.50 24.50)">6</text>
	<text transform="matrix(1 0 0 1 39.50 36.50)">7</text>
	<text transform="matrix(1 0 0 1 62.50 43.50)">8</text>
	<text transform="matrix(1 0 0 1 83.50 66.50)">9</text>
</g>
</svg>
