<svg width="109" height="109" viewBox="0 0 109 109">
<g id="kvg:StrokePaths_0665e">
<g id="kvg:0665e">
	<g id="kvg:0665e-g1">
		<path id="kvg:0665e-s1" d="M13.27,21.94c0.38,0.78,0.76,1.68,0.76,2.72c0,1.04-0.13,51.29,0,52.34"/>
		<path id="kvg:0665e-s2" d="M14.66,24.57C19.6,23.5,27.4,22,31.17,21.24c1.6-0.32,2.55,1.44,2.55,2.22c0,4.04-0.5,43.29-0.5,50.51"/>
		<path id="kvg:0665e-s3" d="M14.06,47.23c6.51-0.73,13.59-1.73,19.25-2.31"/>
		<path id="kvg:0665e-s4" d="M14.42,73.06c5.91-0.56,11.28-1.56,18.4-2.04"/>
	</g>
	<g id="kvg:0665e-g2">
		<g id="kvg:0665e-g3">
			<g id="kvg:0665e-g4">
				<path id="kvg:0665e-s5" d="M83.02,10.18c0.27,1.12-0.34,1.76-1.4,2.52c-9.02,6.45-21.91,14.09-37.55,18.49"/>
			</g>
			<path id="kvg:0665e-s6" d="M49.99,14.22C62,16.25,76.25,22.25,84.86,29.76"/>
		</g>
		<g id="kvg:0665e-g5">
			<path id="kvg:0665e-s7" d="M64.86,29.67c0.08,1.11-0.14,2.95-0.69,4.47C60,45.73,52.35,61.69,35.94,76.9"/>
			<path id="kvg:0665e-s8" d="M39.79,41.18c1.59,0.45,4.5,0.51,6.09,0.45c13.85-0.59,31-3.29,49.25-3.69c2.65-0.06,4.24,0.21,5.56,0.44"/>
			<g id="kvg:0665e-g6">
				<path id="kvg:0665e-s9" d="M52.21,61.1c0.42,0.3,1.31,2.21,1.4,2.8c0.27,1.91,2.42,23.43,2.36,25.94"/>
				<path id="kvg:0665e-s10" d="M52.98,61.79c2.64-0.21,33.38-3.82,35.35-3.95c2.31-0.15,3.73,1.41,3.73,3.95c0,9.09-0.56,12.96-2.04,20.15c-1.62,7.89-5.7,1.55-6.58,0.51"/>
				<path id="kvg:0665e-s11" d="M69.78,44.5c0.42,0.3,1.31,2.21,1.4,2.8c0.08,0.59-0.05,49.51-0.14,53.2"/>
			</g>
		</g>
	</g>
</g>
</g>
<g id="kvg:StrokeNumbers_0665e">
	<text transform="matrix(1 0 0 1 7.50 29.50)">1</text>
	<text transform="matrix(1 0 0 1 17.50 20.50)">2</text>
	<text transform="matrix(1 0 0 1 17.50 43.48)">3</text>
	<text transform="matrix(1 0 0 1 17.50 69.50)">4</text>
	<text transform="matrix(1 0 0 1 72.50 9.33)">5</text>
	<text transform="matrix(1 0 0 1 41.50 15.50)">6</text>
	<text transform="matrix(1 0 0 1 56.50 34.50)">7</text>
	<text transform="matrix(1 0 0 1 39.50 38.50)">8</text>
	<text transform="matrix(1 0 0 1 46.50 74.50)">9</text>
	<text transform="matrix(1 0 0 1 58.50 57.50)">10</text>
	<text transform="matrix(1 0 0 1 62.50 50.50)">11</text>
</g>
</svg>
