<svg width="109" height="109" viewBox="0 0 109 109">
<g id="kvg:StrokePaths_06662">
<g id="kvg:06662">
	<g id="kvg:06662-g1">
		<g id="kvg:06662-g2">
			<path id="kvg:06662-s1" d="M15,27.66c2.22,0.14,1.33,0.14,3.73,0.14c4.54,0,18.66-1.82,28.43-2.9"/>
			<path id="kvg:06662-s2" d="M31.16,11.33c0.46,0.73,1.59,1.97,1.67,4.37c0.38,11.53-0.24,39.09-0.24,43.02c0,10.13-5.89,1.98-7.32,0.99"/>
			<path id="kvg:06662-s3" d="M13.5,45.93c1.49,0.73,2.48,1.11,4.71,0.36c1.74-0.58,18.13-7.31,25.29-10.48"/>
		</g>
		<g id="kvg:06662-g3">
			<path id="kvg:06662-s4" d="M80.19,11.22c0.06,0.33,0.22,0.94-0.12,1.31c-4.25,4.59-10.51,8.8-21.57,12.51"/>
			<path id="kvg:06662-s5" d="M55.89,24.37c0.64,1.17,0.98,1.94,0.98,3.22c0,19.25-2.09,29.36-9.36,35.43"/>
			<path id="kvg:06662-s6" d="M59.75,33.94c0.42,0.14,2.83,0.21,3.95,0.06c6.16-0.86,19.88-2.58,26.32-3.54c1.11-0.16,3.07-0.14,3.78,0"/>
			<path id="kvg:06662-s7" d="M75.81,34.88c0.91,0.43,1.45,1.94,1.63,2.81c0.18,0.86,0,19.91-0.18,25.31"/>
		</g>
	</g>
	<g id="kvg:06662-g4">
		<path id="kvg:06662-s8" d="M34,70.84c0.36,0.48,0.72,0.87,0.88,1.47c1.24,4.72,2.71,18.23,3.56,26.7"/>
		<path id="kvg:06662-s9" d="M35.91,73.01C48.5,72,65.18,70.36,72.74,69.74c2.76-0.23,4.21,1.27,4.03,2.67C75.92,78.8,74.5,90.5,72.94,98.4"/>
		<path id="kvg:06662-s10" d="M37.32,85c9.37-0.74,24.7-2.33,36.73-2.84"/>
		<path id="kvg:06662-s11" d="M38.77,97.14c8.88-0.7,21.43-0.99,33.62-2.07"/>
	</g>
</g>
</g>
<g id="kvg:StrokeNumbers_06662">
	<text transform="matrix(1 0 0 1 9.50 27.50)">1</text>
	<text transform="matrix(1 0 0 1 22.50 11.50)">2</text>
	<text transform="matrix(1 0 0 1 5.50 47.48)">3</text>
	<text transform="matrix(1 0 0 1 71.50 10.50)">4</text>
	<text transform="matrix(1 0 0 1 48.50 30.50)">5</text>
	<text transform="matrix(1 0 0 1 60.50 31.50)">6</text>
	<text transform="matrix(1 0 0 1 69.50 43.18)">7</text>
	<text transform="matrix(1 0 0 1 26.50 77.50)">8</text>
	<text transform="matrix(1 0 0 1 38.50 69.50)">9</text>
	<text transform="matrix(1 0 0 1 39.50 81.50)">10</text>
	<text transform="matrix(1 0 0 1 41.50 93.88)">11</text>
</g>
</svg>
