<svg width="109" height="109" viewBox="0 0 109 109">
<g id="kvg:StrokePaths_06664">
<g id="kvg:06664">
	<g id="kvg:06664-g1">
		<path id="kvg:06664-s1" d="M14.77,23.44c0.38,0.78,0.76,1.68,0.76,2.72c0,1.04-0.13,57.29,0,58.34"/>
		<path id="kvg:06664-s2" d="M16.16,25.57c4.94-1.07,13.25-2.07,17.01-2.83c1.6-0.32,2.55,1.44,2.55,2.22c0,4.04-0.5,50.79-0.5,58.01"/>
		<path id="kvg:06664-s3" d="M15.56,52.23c6.51-0.73,14.09-1.73,19.75-2.31"/>
		<path id="kvg:06664-s4" d="M15.92,81.56c5.91-0.56,11.78-1.06,18.9-1.54"/>
	</g>
	<g id="kvg:06664-g2">
		<g id="kvg:06664-g3">
			<g id="kvg:06664-g4">
				<path id="kvg:06664-s5" d="M49.54,17.42c1,0.24,2.83,0.12,3.84,0.14c6.95,0.09,13.87-1.4,33.06-2.16c1.67-0.07,2.68,0.03,3.51,0.14"/>
			</g>
			<path id="kvg:06664-s6" d="M65.35,19.75c0.34,0.21,1.4,1.95,1.27,2.45c-1.23,4.85-9.6,28.65-10.89,31.71"/>
			<path id="kvg:06664-s7" d="M48.43,34.71c0.79,0.4,2.88,0.54,3.53,0.46c7.3-0.92,23.3-2.67,29.81-3.4c1.5-0.17,3.21,1.23,3.21,2.93c0,2.91-2.27,11.67-3.48,18.05"/>
			<g id="kvg:06664-g5">
				<path id="kvg:06664-s8" d="M42.83,54.75c1.43,0.3,4.96,0.11,6.4,0.1c10.15-0.05,15.09-1.11,42.57-3.15c2.38-0.18,4.73-0.02,5.92,0.11"/>
			</g>
		</g>
		<g id="kvg:06664-g6">
			<path id="kvg:06664-s9" d="M49,67.88c0.3,0.45,0.61,0.82,0.74,1.37c1.04,4.41,2.79,21.57,3.51,29.49"/>
			<path id="kvg:06664-s10" d="M50.36,69.79C60.75,69,79,67.08,84.84,66.52c2.14-0.21,3.42,1.22,3.11,2.43c-1.27,5-2.25,16.04-4.13,22.96"/>
			<path id="kvg:06664-s11" d="M53.2,95.74C60.07,95.11,76,94,85.96,93.53"/>
		</g>
	</g>
</g>
</g>
<g id="kvg:StrokeNumbers_06664">
	<text transform="matrix(1 0 0 1 8.50 31.63)">1</text>
	<text transform="matrix(1 0 0 1 17.50 21.50)">2</text>
	<text transform="matrix(1 0 0 1 19.50 47.50)">3</text>
	<text transform="matrix(1 0 0 1 20.50 77.50)">4</text>
	<text transform="matrix(1 0 0 1 45.50 14.50)">5</text>
	<text transform="matrix(1 0 0 1 57.50 26.50)">6</text>
	<text transform="matrix(1 0 0 1 41.50 35.50)">7</text>
	<text transform="matrix(1 0 0 1 40.50 51.50)">8</text>
	<text transform="matrix(1 0 0 1 42 75)">9</text>
	<text transform="matrix(1 0 0 1 53.00 65.45)">10</text>
	<text transform="matrix(1 0 0 1 57.25 92)">11</text>
</g>
</svg>
