<svg width="109" height="109" viewBox="0 0 109 109">
<g id="kvg:StrokePaths_0666e">
<g id="kvg:0666e">
	<g id="kvg:0666e-g1">
		<g id="kvg:0666e-g2">
			<g id="kvg:0666e-g3">
				<path id="kvg:0666e-s1" d="M35.88,13.5c2.99,1.57,7.73,6.45,8.48,8.89"/>
				<path id="kvg:0666e-s2" d="M68.78,12.26c0.13,0.71,0,1.36-0.39,1.94c-1.11,2.43-2.05,4.77-5.98,9.4"/>
			</g>
			<g id="kvg:0666e-g4">
				<path id="kvg:0666e-s3" d="M25.25,28.65c2.88,0.73,5.4,0.35,7.88,0.13c10.44-0.93,34.61-3.21,44.75-3.8c2.41-0.14,4.76-0.04,7.12,0.53"/>
			</g>
		</g>
		<g id="kvg:0666e-g5">
			<path id="kvg:0666e-s4" d="M44.12,31.25c0.94,0.94,0.96,2.48,0.96,3.5c0,8.25,0.03,11,0.03,19.75"/>
			<path id="kvg:0666e-s5" d="M62.87,29.25c0.94,0.94,1.24,2.23,1.21,3.25c-0.2,7.38-0.7,12.5-1.22,20.75"/>
			<path id="kvg:0666e-s6" d="M23.62,39.12c2.73,1.94,7.05,8,7.73,11.02"/>
			<path id="kvg:0666e-s7" d="M82.78,34.26c0.08,0.78,0.06,1.57-0.34,2.23c-1.93,3.13-4.31,6.38-8.53,10.61"/>
			<path id="kvg:0666e-s8" d="M13.75,56.95c2.82,1.01,6.58,1,9.5,0.7c15.08-1.59,44.45-3.96,61.5-4.69c3.45-0.15,7.12,0.12,10.5,0.84"/>
		</g>
	</g>
	<g id="kvg:0666e-g6">
		<path id="kvg:0666e-s9" d="M34.77,65.9c0.98,0.98,0.97,1.97,0.97,3.48c0,3.22,0,15.89,0,24.37c0,1.7,0,3.24,0,4.49"/>
		<path id="kvg:0666e-s10" d="M36.54,68.47c2.49-0.18,25.49-2.89,31.45-3.54c2.68-0.29,4.48,0.62,4.48,3.44C72.46,72.5,72.42,84.22,72.39,91c-0.01,2.94-0.02,4.94-0.02,5"/>
		<path id="kvg:0666e-s11" d="M37.03,81.25c5.6-0.62,30.23-3.1,34.42-3.21"/>
		<path id="kvg:0666e-s12" d="M36.86,95.56c7.55-0.71,23.89-2.06,34.33-2.73"/>
	</g>
</g>
</g>
<g id="kvg:StrokeNumbers_0666e">
	<text transform="matrix(1 0 0 1 29.25 12.13)">1</text>
	<text transform="matrix(1 0 0 1 59.50 11.50)">2</text>
	<text transform="matrix(1 0 0 1 17.50 28.50)">3</text>
	<text transform="matrix(1 0 0 1 36.75 37.50)">4</text>
	<text transform="matrix(1 0 0 1 56.25 35.50)">5</text>
	<text transform="matrix(1 0 0 1 16.50 40.50)">6</text>
	<text transform="matrix(1 0 0 1 75.50 34.50)">7</text>
	<text transform="matrix(1 0 0 1 5.25 58.63)">8</text>
	<text transform="matrix(1 0 0 1 27.75 73.63)">9</text>
	<text transform="matrix(1 0 0 1 38.25 66.13)">10</text>
	<text transform="matrix(1 0 0 1 41.25 78.05)">11</text>
	<text transform="matrix(1 0 0 1 41.25 91.48)">12</text>
</g>
</svg>
