<svg width="109" height="109" viewBox="0 0 109 109">
<g id="kvg:StrokePaths_066bc">
<g id="kvg:066bc">
	<g id="kvg:066bc-g1">
		<g id="kvg:066bc-g2">
			<g id="kvg:066bc-g3">
				<path id="kvg:066bc-s1" d="M33.58,10.75c0.37,0.26,1.16,1.97,1.23,2.5c0.08,0.53-0.05,10.11-0.12,13.4"/>
				<path id="kvg:066bc-s2" d="M24.89,15.87c0.03,0.31,0.06,0.79-0.06,1.23c-0.75,2.6-5.08,8.3-11.01,11.79"/>
				<path id="kvg:066bc-s3" d="M45.33,13.24c2.99,1.7,7.72,7,8.47,9.65"/>
			</g>
			<g id="kvg:066bc-g4">
				<path id="kvg:066bc-s4" d="M19.31,27.38c0.39,0.3,1.22,2.23,1.3,2.83c0.08,0.6-0.05,19.57-0.13,23.29"/>
				<path id="kvg:066bc-s5" d="M20.46,28.6c2.4-0.21,24.99-2.85,26.78-2.98c2.1-0.15,2.53,1.53,2.48,2.89c-0.27,8.37,0.21,13.83-0.6,20.57c-0.59,4.89-3.66,1.17-4.67-0.5"/>
			</g>
			<g id="kvg:066bc-g5">
				<path id="kvg:066bc-s6" d="M34.62,30.32c0.03,0.16,0.37,0.83,0.39,1.83c0.13,4.84-0.08,18.16-0.08,19.81"/>
				<path id="kvg:066bc-s7" d="M28.9,34.02c0.02,0.27,0.03,0.68-0.03,1.06c-0.36,2.25-2.41,7.17-5.23,10.19"/>
				<path id="kvg:066bc-s8" d="M40.69,34.21c1.27,1.42,3.28,5.82,3.6,8.02"/>
			</g>
		</g>
		<g id="kvg:066bc-g6">
			<g id="kvg:066bc-g7">
				<path id="kvg:066bc-s9" d="M67.18,10.75c0.03,0.52,0.16,1.36-0.06,2.08c-1.6,5.23-5.2,14.1-10.73,20.42"/>
				<path id="kvg:066bc-s10" d="M66.96,21.95c0.9,0.26,2.56,0,3.04-0.04c5.01-0.42,12.8-3.13,20.45-3.8c0.86-0.08,1.39-0.02,1.61,0.07"/>
			</g>
			<g id="kvg:066bc-g8">
				<g id="kvg:066bc-g9">
					<path id="kvg:066bc-s11" d="M81.55,23.86c0.43,0.72,0.28,1.91-0.37,3.14C74.48,39.64,69.5,47.16,55.21,54.97"/>
				</g>
				<path id="kvg:066bc-s12" d="M61.16,27.3c7.18,6.18,19.88,17.64,29.47,23.5c1.77,1.08,3.63,1.8,5.12,1.9"/>
			</g>
		</g>
	</g>
	<g id="kvg:066bc-g10">
		<path id="kvg:066bc-s13" d="M31.99,63.01c0.33,0.6,0.98,1.99,1.03,2.76c0.48,7.73,1.93,21.72,2.87,33.2"/>
		<path id="kvg:066bc-s14" d="M34.06,64.87c11.7-1.22,31.27-2.78,40-3.83c3.21-0.39,4.85,1.34,4.69,3.03c-0.6,6.17-2.1,22.99-3.56,33.28"/>
		<path id="kvg:066bc-s15" d="M34.74,79.81c3.81-0.49,38.3-2.99,41.46-3.15"/>
		<path id="kvg:066bc-s16" d="M36.49,96.81c8.43-0.42,27.06-1.67,38.7-2.42"/>
	</g>
</g>
</g>
<g id="kvg:StrokeNumbers_066bc">
	<text transform="matrix(1 0 0 1 26.50 10.50)">1</text>
	<text transform="matrix(1 0 0 1 16.50 14.50)">2</text>
	<text transform="matrix(1 0 0 1 41.50 10.50)">3</text>
	<text transform="matrix(1 0 0 1 13.50 37.50)">4</text>
	<text transform="matrix(1 0 0 1 26.50 24.50)">5</text>
	<text transform="matrix(1 0 0 1 28.50 46.50)">6</text>
	<text transform="matrix(1 0 0 1 23.25 35.18)">7</text>
	<text transform="matrix(1 0 0 1 42.25 34.50)">8</text>
	<text transform="matrix(1 0 0 1 58.50 11.03)">9</text>
	<text transform="matrix(1 0 0 1 71.50 18.50)">10</text>
	<text transform="matrix(1 0 0 1 71.50 28.50)">11</text>
	<text transform="matrix(1 0 0 1 58.25 37.50)">12</text>
	<text transform="matrix(1 0 0 1 22.25 71.50)">13</text>
	<text transform="matrix(1 0 0 1 35.50 61.50)">14</text>
	<text transform="matrix(1 0 0 1 38.50 76.50)">15</text>
	<text transform="matrix(1 0 0 1 39.50 93.50)">16</text>
</g>
</svg>
