<svg width="109" height="109" viewBox="0 0 109 109">
<g id="kvg:StrokePaths_066dd">
<g id="kvg:066dd">
	<g id="kvg:066dd-g1">
		<path id="kvg:066dd-s1" d="M12.27,24.94c0.39,0.78,0.78,1.68,0.78,2.72c0,1.04-0.13,44.29,0,45.34"/>
		<path id="kvg:066dd-s2" d="M13.69,26.57c5.06-1.07,13.06-2.57,16.92-3.33c1.64-0.32,2.61,1.44,2.61,2.22c0,4.04-0.52,38.79-0.52,46.01"/>
		<path id="kvg:066dd-s3" d="M13.08,47.23C19.75,46.5,27,45.5,32.8,44.92"/>
		<path id="kvg:066dd-s4" d="M13.44,70.06C19.5,69.5,25,68.5,32.29,68.02"/>
	</g>
	<g id="kvg:066dd-g2">
		<g id="kvg:066dd-g3">
			<path id="kvg:066dd-s5" d="M45.55,15.06c0.42,0.52,0.85,0.77,0.85,1.46c0,0.69,3.5,18.41,3.5,18.75c0,0.34,0.14,0.82,0.28,1.5"/>
			<path id="kvg:066dd-s6" d="M47.95,16.09c4.74-0.76,31.8-3.5,33.99-3.6c1.82-0.09,2.99,2.36,2.85,2.87c-0.29,1.03-3.93,17.21-3.93,17.73"/>
			<path id="kvg:066dd-s7" d="M48.37,24.92c4.53-0.63,30.78-2.79,34.44-2.79"/>
			<path id="kvg:066dd-s8" d="M51.17,34.37c9.09-1.13,21.32-2.3,29.54-2.61"/>
		</g>
		<g id="kvg:066dd-g4">
			<g id="kvg:066dd-g5">
				<g id="kvg:066dd-g6">
					<path id="kvg:066dd-s9" d="M43.95,47.44c0.78,0.33,2.21,0.49,2.98,0.33c3.14-0.64,30.92-4.28,38.29-4.28c1.3,0,2.07,0.16,2.72,0.32"/>
					<path id="kvg:066dd-s10" d="M53.78,40.43c0.76,0.42,1.31,1.88,1.37,2.73c0.35,4.34,0.6,9.09,1.35,14.1"/>
					<path id="kvg:066dd-s11" d="M74.89,36.76c0.76,0.42,1.46,1.88,1.38,2.73c-0.54,5.2-2.64,10.74-3.39,15.3"/>
					<path id="kvg:066dd-s12" d="M38.75,58.7c1.1,0.47,3.13,0.6,4.23,0.47c7.22-0.87,39.08-3.81,48.31-4.23c1.84-0.08,2.94,0.23,3.87,0.46"/>
				</g>
				<g id="kvg:066dd-g7">
					<path id="kvg:066dd-s13" d="M53.94,60.67c0.06,0.5,0.13,1.29-0.13,2.01c-1.56,4.24-11.8,12.43-22.74,19.24"/>
					<path id="kvg:066dd-s14" d="M71.48,58.51c3.8,3.02,15.17,13.46,19.57,15.93c1.39,0.79,3.3,1.65,6.15,2.2"/>
				</g>
			</g>
			<g id="kvg:066dd-g8">
				<path id="kvg:066dd-s15" d="M64.26,64.09c0.06,0.32,0.78,1.67,0.84,3.69c0.27,9.74-0.17,21.52-0.17,24.84c0,7.75-4.79,1-5.78,0.17"/>
				<path id="kvg:066dd-s16" d="M52.12,71.55c1.69,0.97,4.38,3.99,4.8,5.5"/>
				<path id="kvg:066dd-s17" d="M43.72,91.75c1.09,1.01,2,1.44,3.09,0.58c0.64-0.51,5.82-5.04,8.55-7.48"/>
				<path id="kvg:066dd-s18" d="M77.2,71.13c0.03,0.2,0.06,0.52-0.05,0.8c-0.66,1.7-4.43,5.42-9.59,7.71"/>
				<path id="kvg:066dd-s19" d="M67.9,81.84c4.76,1.35,15.15,8.59,16.61,12"/>
			</g>
		</g>
	</g>
</g>
</g>
<g id="kvg:StrokeNumbers_066dd">
	<text transform="matrix(1 0 0 1 6.25 32.50)">1</text>
	<text transform="matrix(1 0 0 1 15.50 22.50)">2</text>
	<text transform="matrix(1 0 0 1 17.50 43.50)">3</text>
	<text transform="matrix(1 0 0 1 17.50 66.50)">4</text>
	<text transform="matrix(1 0 0 1 39.50 23.33)">5</text>
	<text transform="matrix(1 0 0 1 49.50 12.50)">6</text>
	<text transform="matrix(1 0 0 1 53.50 22.50)">7</text>
	<text transform="matrix(1 0 0 1 53.50 32.50)">8</text>
	<text transform="matrix(1 0 0 1 37.50 46.50)">9</text>
	<text transform="matrix(1 0 0 1 43.50 42.50)">10</text>
	<text transform="matrix(1 0 0 1 66.50 40.50)">11</text>
	<text transform="matrix(1 0 0 1 36.50 56.80)">12</text>
	<text transform="matrix(1 0 0 1 40.50 67.98)">13</text>
	<text transform="matrix(1 0 0 1 79.25 64.50)">14</text>
	<text transform="matrix(1 0 0 1 55.50 69.50)">15</text>
	<text transform="matrix(1 0 0 1 45.50 78.50)">16</text>
	<text transform="matrix(1 0 0 1 41.50 87.50)">17</text>
	<text transform="matrix(1 0 0 1 68.50 69.60)">18</text>
	<text transform="matrix(1 0 0 1 75.50 84.50)">19</text>
</g>
</svg>
