<svg width="109" height="109" viewBox="0 0 109 109">
<g id="kvg:StrokePaths_066f4">
<g id="kvg:066f4">
	<g id="kvg:066f4-g1">
		<path id="kvg:066f4-s1" d="M30,17.64c3.38,0.61,6.26,0.39,8.89-0.02c9.49-1.49,23.09-3.15,31.87-3.79c2.75-0.2,5.78-0.23,8.49,0.43"/>
	</g>
	<g id="kvg:066f4-g2">
		<path id="kvg:066f4-s2" d="M27.52,31.32c0.83,0.83,1.36,1.68,1.52,2.71c0.59,3.72,2.46,15.04,3.62,21.98c0.42,2.5,0.71,4.23,0.71,4.35"/>
		<path id="kvg:066f4-s3" d="M29.85,33.18c4.61-0.83,37.22-4.81,46.41-5.75c3.68-0.37,6.99,0.74,5.96,5.27c-1.02,4.49-3.06,12.18-5.53,19.52c-0.52,1.54-1.05,3.07-1.6,4.55"/>
		<path id="kvg:066f4-s4" d="M32.23,45.93c12.4-1.8,32.65-4.05,46.67-4.73"/>
		<path id="kvg:066f4-s5" d="M34.25,57.66c13-1.66,26-2.66,40.88-3.75"/>
	</g>
	<g id="kvg:066f4-g3">
		<g id="kvg:066f4-g4">
			<path id="kvg:066f4-s6" d="M56,18c0.94,0.94,1.05,2.25,1.05,4.43C57,62.62,56.12,81.62,19,96.54"/>
		</g>
		<path id="kvg:066f4-s7" d="M28,66.5c6.62,0,33,15.25,48.64,21.96c4,1.72,7.86,2.8,12.11,3.79"/>
	</g>
</g>
</g>
<g id="kvg:StrokeNumbers_066f4">
	<text transform="matrix(1 0 0 1 22.50 18.50)">1</text>
	<text transform="matrix(1 0 0 1 21.50 38.50)">2</text>
	<text transform="matrix(1 0 0 1 30.75 29.50)">3</text>
	<text transform="matrix(1 0 0 1 36.57 42.05)">4</text>
	<text transform="matrix(1 0 0 1 36.75 54.50)">5</text>
	<text transform="matrix(1 0 0 1 49.50 25.50)">6</text>
	<text transform="matrix(1 0 0 1 21.75 68.50)">7</text>
</g>
</svg>
