<svg width="109" height="109" viewBox="0 0 109 109">
<g id="kvg:StrokePaths_066f2">
<g id="kvg:066f2">
	<g id="kvg:066f2-g1">
		<path id="kvg:066f2-s1" d="M17.27,40.03c1.16,1.16,1.63,2.27,1.8,3.82c0.35,3.16,2.4,28.1,3.46,41.43c0.06,0.73,0.46,5.87,0.54,6.96"/>
		<path id="kvg:066f2-s2" d="M19.94,42.98c22.12-2.87,47.03-5.31,63.95-6.64c3.6-0.28,7.63,1.09,7.17,5.31c-0.8,7.23-3,26.09-4.99,39.38c-0.12,0.81-1.01,6.35-1.31,7.98"/>
	</g>
	<g id="kvg:066f2-g2">
		<g id="kvg:066f2-g3">
			<path id="kvg:066f2-s3" d="M39.87,21c0.94,0.94,1.42,2.5,1.46,4C42,48.62,42.5,73.12,42.75,86.5"/>
		</g>
		<g id="kvg:066f2-g4">
			<path id="kvg:066f2-s4" d="M66.87,16.5c1.38,1.38,1.59,2.5,1.46,4.25c-2.33,30.38-2.83,42.88-4.58,64"/>
		</g>
		<g id="kvg:066f2-g5">
			<g id="kvg:066f2-g6">
				<path id="kvg:066f2-s5" d="M21.96,64.76C40.38,62.5,63.5,60.12,88,58.75"/>
			</g>
		</g>
	</g>
	<g id="kvg:066f2-g7">
		<path id="kvg:066f2-s6" d="M24.02,88.8c8.14-0.76,45.85-3.55,60.23-4.05"/>
	</g>
</g>
</g>
<g id="kvg:StrokeNumbers_066f2">
	<text transform="matrix(1 0 0 1 12.50 50.50)">1</text>
	<text transform="matrix(1 0 0 1 22.50 39.50)">2</text>
	<text transform="matrix(1 0 0 1 30.75 21.50)">3</text>
	<text transform="matrix(1 0 0 1 56.50 16.50)">4</text>
	<text transform="matrix(1 0 0 1 25.50 61.50)">5</text>
	<text transform="matrix(1 0 0 1 26.50 85.50)">6</text>
</g>
</svg>
