<svg width="109" height="109" viewBox="0 0 109 109">
<g id="kvg:StrokePaths_066fc">
<g id="kvg:066fc">
	<g id="kvg:066fc-g1">
		<path id="kvg:066fc-s1" d="M32.49,12.65c0.29,0.37,0.3,0.62,0.46,1.08c1.32,3.8,4.06,12.89,4.87,19.98"/>
		<path id="kvg:066fc-s2" d="M33.85,13.16c10.2-0.96,30.2-2.08,37.81-2.88c2.8-0.3,4.23,0.75,4.09,1.79c-0.53,3.83-2.83,13.76-4.11,20.16"/>
		<path id="kvg:066fc-s3" d="M36.76,22.98c3.32-0.37,34.53-2.61,37.27-2.77"/>
		<path id="kvg:066fc-s4" d="M38.35,32.67c7.35-0.41,23.16-1.61,33.3-2.27"/>
	</g>
	<g id="kvg:066fc-g2">
		<g id="kvg:066fc-g3">
			<path id="kvg:066fc-s5" d="M20.62,40.94c0.36,0.28,0.73,0.51,0.89,0.87c1.26,2.78,3.26,9.95,4.12,14.94"/>
			<path id="kvg:066fc-s6" d="M22.38,42.33c7.98-1.09,60.84-3.98,65.09-4.34c1.55-0.13,3.65,0.94,3.24,2.5c-0.87,3.26-3,8.86-5.31,13.51"/>
			<path id="kvg:066fc-s7" d="M44.06,40.78c0.24,1.85,0.95,10.88,1.19,12.96"/>
			<path id="kvg:066fc-s8" d="M66.48,39.62c-0.24,3.01-0.98,9.38-1.45,12.73"/>
			<path id="kvg:066fc-s9" d="M26.78,55.24c4.98-0.41,52.34-2.98,59.19-3.61"/>
		</g>
		<g id="kvg:066fc-g4">
			<path id="kvg:066fc-s10" d="M30.76,65.01c1.84,0.3,2.07,0.76,5.75,0.3c3.68-0.46,31.13-3.4,33.66-3.86c2.53-0.46,4.33,1.79,2.45,3.84C57.42,81.89,40,92.75,17.52,99"/>
			<path id="kvg:066fc-s11" d="M37.35,71.41c4.85,0.66,28.52,18.3,45.4,25.53c2.63,1.12,4.54,1.88,6.99,2.25"/>
		</g>
	</g>
</g>
</g>
<g id="kvg:StrokeNumbers_066fc">
	<text transform="matrix(1 0 0 1 25.25 19.63)">1</text>
	<text transform="matrix(1 0 0 1 35.50 10.50)">2</text>
	<text transform="matrix(1 0 0 1 41.50 20.50)">3</text>
	<text transform="matrix(1 0 0 1 41.33 30.50)">4</text>
	<text transform="matrix(1 0 0 1 15.25 48.50)">5</text>
	<text transform="matrix(1 0 0 1 23.50 39.50)">6</text>
	<text transform="matrix(1 0 0 1 37.50 49.18)">7</text>
	<text transform="matrix(1 0 0 1 58.25 47.10)">8</text>
	<text transform="matrix(1 0 0 1 28.50 52.50)">9</text>
	<text transform="matrix(1 0 0 1 33.25 62.50)">10</text>
	<text transform="matrix(1 0 0 1 29.50 77.50)">11</text>
</g>
</svg>
