<svg width="109" height="109" viewBox="0 0 109 109">
<g id="kvg:StrokePaths_06728">
<g id="kvg:06728">
	<path id="kvg:06728-s1" d="M19.5,39.86c2.45,0.57,5.23,0.8,8.04,0.57C40.75,39.38,63,36.5,79.78,36.15c2.8-0.06,4.54,0.1,7.34,0.5"/>
	<path id="kvg:06728-s2" d="M51.75,10.5c1.19,1.19,2,3,2,5c0,8.65,0,55.15-0.14,74.75c-0.03,4.19-0.07,7.15-0.11,8.25"/>
	<path id="kvg:06728-s3" d="M50.75,39.5c0,1.12-0.61,2.44-1.42,3.95C41.75,57.5,26.7,73.93,15.75,80.25"/>
	<path id="kvg:06728-s4" d="M54.5,39c4.62,6,23,25.75,31.76,34.61c2.27,2.29,4.61,4.39,7.49,5.64"/>
</g>
</g>
<g id="kvg:StrokeNumbers_06728">
	<text transform="matrix(1 0 0 1 12.50 41.50)">1</text>
	<text transform="matrix(1 0 0 1 42.50 11.50)">2</text>
	<text transform="matrix(1 0 0 1 37.50 50.50)">3</text>
	<text transform="matrix(1 0 0 1 66.50 49.50)">4</text>
</g>
</svg>
