<svg width="109" height="109" viewBox="0 0 109 109">
<g id="kvg:StrokePaths_0672b">
<g id="kvg:0672b">
	<path id="kvg:0672b-s1" d="M17.75,31.2c3.38,0.8,6.46,0.85,9.52,0.51c13.98-1.58,41.74-4.25,55.23-5c3.05-0.17,6-0.3,9,0.34"/>
	<g id="kvg:0672b-g1">
		<path id="kvg:0672b-s2" d="M27.12,51.75c2.07,0.62,4.13,0.66,7.07,0.25c12.56-1.75,26.81-3.38,40.73-4.25c2.96-0.19,5.1,0,6.96,0.25"/>
		<path id="kvg:0672b-s3" d="M52.5,10.75c1.25,1.25,2.25,3,2.25,4.75c0,0.87,0,53.95,0,75.62c0,4.12,0,7.1,0,8.38"/>
		<g id="kvg:0672b-g2">
			<path id="kvg:0672b-s4" d="M53.25,50.5c0,1.75-0.72,2.84-1.43,3.92C43.77,66.75,27.21,82.41,13.75,89"/>
		</g>
		<path id="kvg:0672b-s5" d="M55.62,51.88c4.35,5.37,20.9,21.25,28.87,28.51c2.47,2.25,4.68,4.01,7.76,5.37"/>
	</g>
</g>
</g>
<g id="kvg:StrokeNumbers_0672b">
	<text transform="matrix(1 0 0 1 10.50 32.50)">1</text>
	<text transform="matrix(1 0 0 1 19.50 53.50)">2</text>
	<text transform="matrix(1 0 0 1 43.50 11.50)">3</text>
	<text transform="matrix(1 0 0 1 37.50 62.91)">4</text>
	<text transform="matrix(1 0 0 1 66.50 59.50)">5</text>
</g>
</svg>
