<svg width="109" height="109" viewBox="0 0 109 109">
<g id="kvg:StrokePaths_0673a">
<g id="kvg:0673a">
	<g id="kvg:0673a-g1">
		<path id="kvg:0673a-s1" d="M12.03,37.72c1.85,0.41,3.89,0.4,5.14,0.36c5.46-0.2,17.7-1.87,23.61-2.98c1.85-0.35,3.23-0.47,4.74-0.23"/>
		<path id="kvg:0673a-s2" d="M30.86,14.5c1.13,1.13,1.54,2.88,1.54,4.92c0,6.18,0.02,50.73-0.04,69.83c-0.01,2.78-0.01,5.01-0.01,6.5"/>
		<path id="kvg:0673a-s3" d="M31.44,38.28c0,1.72-0.44,4.3-0.93,5.47c-5.38,13-10.13,20.75-17.15,30.34"/>
		<path id="kvg:0673a-s4" d="M34.97,49.4c2.73,1.43,7.22,6.08,9.53,8.85"/>
	</g>
	<g id="kvg:0673a-g2">
		<g id="kvg:0673a-g3">
			<path id="kvg:0673a-s5" d="M54,25.51c1.06,1.06,1.39,2.74,1.38,4.52C55.25,58.5,55,76,41,92.65"/>
		</g>
		<path id="kvg:0673a-s6" d="M56.15,27.94c7.22-1.44,11.89-2.37,16.17-3.1c4.93-0.84,5.62,1.19,5.09,4.83c-2.29,15.83-3.46,35.46-3.46,51.83c0,5.5,1.8,7.94,11.33,7.94c10.22,0,10.99-1.94,10.99-9.38"/>
	</g>
</g>
</g>
<g id="kvg:StrokeNumbers_0673a">
	<text transform="matrix(1 0 0 1 5.50 39.50)">1</text>
	<text transform="matrix(1 0 0 1 21.50 15.50)">2</text>
	<text transform="matrix(1 0 0 1 21.50 49.50)">3</text>
	<text transform="matrix(1 0 0 1 37.50 48.50)">4</text>
	<text transform="matrix(1 0 0 1 47.50 34.50)">5</text>
	<text transform="matrix(1 0 0 1 57.50 24.50)">6</text>
</g>
</svg>
