<svg width="109" height="109" viewBox="0 0 109 109">
<g id="kvg:StrokePaths_06741">
<g id="kvg:06741">
	<g id="kvg:06741-g1">
		<path id="kvg:06741-s1" d="M11.28,38.52c0.36,0.29,2.5,0.49,3.47,0.37c4.13-0.48,20.03-1.43,26.66-2.87c0.96-0.21,2.25-0.29,2.86,0"/>
		<path id="kvg:06741-s2" d="M27.86,15.5c0.91,0.47,1.86,3.49,2.04,4.42c0.18,0.93-0.12,70.75-0.3,76.58"/>
		<path id="kvg:06741-s3" d="M29.94,39.28c-5.82,16.02-9.06,22.79-18.08,36.81"/>
		<path id="kvg:06741-s4" d="M32.97,46.65c2.74,2.03,8.85,6.45,11.16,10.39"/>
	</g>
	<g id="kvg:06741-g2">
		<path id="kvg:06741-s5" d="M65.63,41.5C60.94,59.51,50.75,84,39,95.17"/>
		<path id="kvg:06741-s6" d="M56.36,16.75c1.31,0,3.25,1.94,3.62,3.64C68.5,60,76.25,73.25,90.22,89.89c1.37,1.63,3.63,3.3,4.78,3.86"/>
	</g>
</g>
</g>
<g id="kvg:StrokeNumbers_06741">
	<text transform="matrix(1 0 0 1 5.85 39.50)">1</text>
	<text transform="matrix(1 0 0 1 18.50 15.50)">2</text>
	<text transform="matrix(1 0 0 1 18.50 49.50)">3</text>
	<text transform="matrix(1 0 0 1 35.50 46.50)">4</text>
	<text transform="matrix(1 0 0 1 56.50 47.50)">5</text>
	<text transform="matrix(1 0 0 1 48.50 16.50)">6</text>
</g>
</svg>
