<svg width="109" height="109" viewBox="0 0 109 109">
<g id="kvg:StrokePaths_06750">
<g id="kvg:06750">
	<g id="kvg:06750-g1">
		<path id="kvg:06750-s1" d="M13.78,34.47c2.22,0.53,4.65,0.26,6.35,0.05c6.15-0.75,18.88-2.61,25.39-3.65c1.09-0.17,2.56-0.24,3.24,0"/>
		<path id="kvg:06750-s2" d="M34.02,13.5c1.18,1.18,1.86,2.75,1.86,4.92c0,0.82-0.08,52-0.1,72.33c0,3.46-0.01,6.01-0.01,7.25"/>
		<path id="kvg:06750-s3" d="M34.75,34.38c0,1.62-0.72,3.77-1.13,4.87c-4.87,13-9.99,23.25-20.1,33.59"/>
		<path id="kvg:06750-s4" d="M38.5,44.38c3.13,2.12,8.29,9.01,10.93,13.12"/>
	</g>
	<g id="kvg:06750-g2">
		<g id="kvg:06750-g3">
			<path id="kvg:06750-s5" d="M52.75,35.75c2.5,0.25,4.25,0.26,6.5,0.01c8.45-0.93,22.25-3.01,32.32-4.26c2.21-0.27,3.54-0.25,4.93,0"/>
			<g id="kvg:06750-g4">
				<path id="kvg:06750-s6" d="M78.02,12.83c1.01,1.01,1.51,2.54,1.51,4.27c0,14.56-0.01,66.41-0.01,71.37c0,14.53-6.39,5.66-8.71,3.25"/>
			</g>
			<path id="kvg:06750-s7" d="M81.75,42c0,1.5-0.6,2.98-1.5,4c-8,9-19.37,21.56-35.25,31"/>
		</g>
	</g>
</g>
</g>
<g id="kvg:StrokeNumbers_06750">
	<text transform="matrix(1 0 0 1 7.50 36.13)">1</text>
	<text transform="matrix(1 0 0 1 23.50 13.63)">2</text>
	<text transform="matrix(1 0 0 1 24.50 45.13)">3</text>
	<text transform="matrix(1 0 0 1 40.99 44.91)">4</text>
	<text transform="matrix(1 0 0 1 53.50 33.50)">5</text>
	<text transform="matrix(1 0 0 1 68.25 13.63)">6</text>
	<text transform="matrix(1 0 0 1 69.75 48.13)">7</text>
</g>
</svg>
