<svg width="109" height="109" viewBox="0 0 109 109">
<g id="kvg:StrokePaths_06763">
<g id="kvg:06763">
	<g id="kvg:06763-g1">
		<path id="kvg:06763-s1" d="M12.78,39.72c0.35,0.24,2.39,0.41,3.31,0.31c3.94-0.41,18.12-2.21,24.45-3.41c0.92-0.17,2.15-0.24,2.73,0"/>
		<path id="kvg:06763-s2" d="M27.36,17.5c0.91,0.47,2.54,2.5,2.54,4.42c0,0.95-0.12,67.25-0.3,73.08"/>
		<path id="kvg:06763-s3" d="M29.44,43.28c-5.34,14.93-8.31,21.24-16.58,34.31"/>
		<path id="kvg:06763-s4" d="M33.22,47.9c2.73,1.55,7.22,6.59,9.53,9.6"/>
	</g>
	<g id="kvg:06763-g2">
		<path id="kvg:06763-s5" d="M68.24,19.5c0.76,0.47,2.51,2.5,2.51,4.49c0,10.76,0.25,55.26,0.25,63.18"/>
		<path id="kvg:06763-s6" d="M50.99,51.21c0.76,0.47,1.63,2.98,1.51,3.94c-0.5,4.23-2,21.6-3.5,31.88c-0.31,2.15,0.63,3.41,2.5,2.97c9.5-2.24,33-4.14,42.5-4.4"/>
		<path id="kvg:06763-s7" d="M92.74,48.63c0.76,0.48,1.51,3.53,1.51,4.49c0,7.38-0.25,21.12-0.25,34.84"/>
	</g>
</g>
</g>
<g id="kvg:StrokeNumbers_06763">
	<text transform="matrix(1 0 0 1 5.85 40.50)">1</text>
	<text transform="matrix(1 0 0 1 19.50 17.50)">2</text>
	<text transform="matrix(1 0 0 1 20.50 49.50)">3</text>
	<text transform="matrix(1 0 0 1 35.50 47.50)">4</text>
	<text transform="matrix(1 0 0 1 59.25 19.50)">5</text>
	<text transform="matrix(1 0 0 1 46.50 47.50)">6</text>
	<text transform="matrix(1 0 0 1 85.50 47.50)">7</text>
</g>
</svg>
