<svg width="109" height="109" viewBox="0 0 109 109">
<g id="kvg:StrokePaths_0676d">
<g id="kvg:0676d">
	<g id="kvg:0676d-g1">
		<path id="kvg:0676d-s1" d="M14.28,40.47c3.03,0.49,5.28,0.45,8.24-0.14c4.5-0.72,11.39-1.87,15.88-2.68c1.51-0.46,3.05-0.39,4.61-0.28"/>
		<path id="kvg:0676d-s2" d="M30.46,16.58c0.88,0.88,1.29,2.75,1.29,3.92c0,0.74,0.12,40.98,0.1,61.88c0,5.77-0.01,10.06-0.01,11.62"/>
		<path id="kvg:0676d-s3" d="M30.69,40.53c0,1.72-0.83,4.33-1.35,5.53c-5.14,11.7-9.46,18.81-17.73,28.78"/>
		<path id="kvg:0676d-s4" d="M34.47,50.9c2.3,1.28,5.47,5.66,7.41,8.14"/>
	</g>
	<g id="kvg:0676d-g2">
		<g id="kvg:0676d-g3">
			<path id="kvg:0676d-s5" d="M67.18,14c1.1,1.1,1.65,2.75,1.65,4.41c0,4.45-0.08,7.27-0.08,11.21"/>
			<path id="kvg:0676d-s6" d="M47.52,32.89c3.23,0.61,5.68,0.41,8.61-0.03c9.69-1.45,19.38-2.73,31.13-3.71c2.71-0.22,5.37-0.53,7.93,0.02"/>
		</g>
		<g id="kvg:0676d-g4">
			<g id="kvg:0676d-g5">
				<path id="kvg:0676d-s7" d="M57.69,44.75c0.91,0.91,1.25,2.25,1.33,3.93C60,71.62,55.5,84.88,43.5,93"/>
			</g>
			<path id="kvg:0676d-s8" d="M60.38,47c4.21-0.93,8.29-2.06,12.6-3.22c4.32-1.17,5.58-0.78,5.52,4.52C78.38,58.5,78.3,75.43,78.29,81c-0.04,12.25,4.51,11.53,9.29,11.53c6.92,0,8.06-2.28,8.06-9.12"/>
		</g>
	</g>
</g>
</g>
<g id="kvg:StrokeNumbers_0676d">
	<text transform="matrix(1 0 0 1 7.50 41.85)">1</text>
	<text transform="matrix(1 0 0 1 20.50 16.85)">2</text>
	<text transform="matrix(1 0 0 1 20.50 50.50)">3</text>
	<text transform="matrix(1 0 0 1 35.50 49.85)">4</text>
	<text transform="matrix(1 0 0 1 58.50 14.50)">5</text>
	<text transform="matrix(1 0 0 1 45.50 29.50)">6</text>
	<text transform="matrix(1 0 0 1 50.50 51.50)">7</text>
	<text transform="matrix(1 0 0 1 61.25 43.50)">8</text>
</g>
</svg>
