<svg width="109" height="109" viewBox="0 0 109 109">
<g id="kvg:StrokePaths_0677f">
<g id="kvg:0677f">
	<g id="kvg:0677f-g1">
		<path id="kvg:0677f-s1" d="M11.53,38.26c1.72,0.49,3.91,0.24,5.25,0.07c5.16-0.66,14.47-2.08,20.64-2.98c0.96-0.14,2.21-0.22,3.35,0"/>
		<path id="kvg:0677f-s2" d="M27.11,16.75c1.76,1,2.54,3,2.54,4.92c0,1,0.14,46.05,0.03,64.45c-0.02,3.26-0.05,5.68-0.08,6.87"/>
		<path id="kvg:0677f-s3" d="M28.69,38.53c0,1.34,0.03,2.33-0.55,3.6C22.79,53.74,18,61.5,10.86,70.59"/>
		<path id="kvg:0677f-s4" d="M31.47,45.9c2.37,1.59,7.28,7.76,9.28,10.85"/>
	</g>
	<g id="kvg:0677f-g2">
		<g id="kvg:0677f-g3">
			<path id="kvg:0677f-s5" d="M47.36,24.88c1.77,0.25,3.65,0.17,4.92,0.02c9.6-1.15,21.47-3.28,29.76-4.24c2.12-0.25,3.42-0.04,4.49,0.19"/>
			<path id="kvg:0677f-s6" d="M49.43,25.31c1.13,1.13,1.43,2.82,1.43,4.46C50.85,54.75,49,75,37.31,88.36"/>
		</g>
		<g id="kvg:0677f-g4">
			<path id="kvg:0677f-s7" d="M53.39,44.21c1.33,0.36,3.49,0.39,6.15-0.14c2.66-0.54,16.22-4.07,19.35-4.98c2.72-0.79,3.87,1.03,2.99,3.94C74.77,66.51,66.25,81.75,48,92.25"/>
			<path id="kvg:0677f-s8" d="M56.12,55.25c3.57,0.91,19.82,23.41,32.24,33.42c1.93,1.56,3.34,2.6,5.14,3.12"/>
		</g>
	</g>
</g>
</g>
<g id="kvg:StrokeNumbers_0677f">
	<text transform="matrix(1 0 0 1 3.75 37.63)">1</text>
	<text transform="matrix(1 0 0 1 18.75 18.13)">2</text>
	<text transform="matrix(1 0 0 1 17.25 48.13)">3</text>
	<text transform="matrix(1 0 0 1 35.25 46.63)">4</text>
	<text transform="matrix(1 0 0 1 51.75 21.13)">5</text>
	<text transform="matrix(1 0 0 1 42.75 34.63)">6</text>
	<text transform="matrix(1 0 0 1 56.25 42.47)">7</text>
	<text transform="matrix(1 0 0 1 59.25 55.63)">8</text>
</g>
</svg>
