<svg width="109" height="109" viewBox="0 0 109 109">
<g id="kvg:StrokePaths_0677c">
<g id="kvg:0677c">
	<g id="kvg:0677c-g1">
		<path id="kvg:0677c-s1" d="M13.78,37.72c0.35,0.24,2.39,0.41,3.31,0.31c3.94-0.41,18.62-1.71,24.95-2.91c0.92-0.17,2.15-0.24,2.73,0"/>
		<path id="kvg:0677c-s2" d="M29.36,15c0.91,0.47,2.04,2.5,2.04,4.92c0,0.95-0.12,70.75-0.3,76.58"/>
		<path id="kvg:0677c-s3" d="M30.94,41.28C25.44,56,22.38,62.21,13.86,75.09"/>
		<path id="kvg:0677c-s4" d="M34.47,47.9c2.23,1.77,5.9,6.42,7.78,9.85"/>
	</g>
	<g id="kvg:0677c-g2">
		<g id="kvg:0677c-g3">
			<path id="kvg:0677c-s5" d="M49.51,16.09c1.27,1.05,3.99,1.68,5.43,1.42c2.85-0.52,25.58-3.74,28.58-4.26c3-0.52,4.1,2.27,2.24,3.92C82,20.5,72.5,29.25,68.09,32.56"/>
			<path id="kvg:0677c-s6" d="M60,26.75c2.89,1.47,10.39,7.14,11.75,11"/>
		</g>
		<g id="kvg:0677c-g4">
			<path id="kvg:0677c-s7" d="M44.67,44.61c0.98,0.65,2.84,1.88,6.84,1.17c4-0.71,33.03-4.35,36.27-4.51C98,40.75,91,47.75,85.46,52.75"/>
			<g id="kvg:0677c-g5">
				<path id="kvg:0677c-s8" d="M67.76,46.75c1.62,1.02,2.82,2.38,2.82,4.41c0,2.04-0.29,34.35-0.31,38.09c-0.03,8.25-5.08,1.68-7.5-0.02"/>
			</g>
		</g>
	</g>
</g>
</g>
<g id="kvg:StrokeNumbers_0677c">
	<text transform="matrix(1 0 0 1 7.50 38.50)">1</text>
	<text transform="matrix(1 0 0 1 20.50 15.50)">2</text>
	<text transform="matrix(1 0 0 1 20.50 48.50)">3</text>
	<text transform="matrix(1 0 0 1 35.50 47.50)">4</text>
	<text transform="matrix(1 0 0 1 46.50 12.50)">5</text>
	<text transform="matrix(1 0 0 1 51.50 30.50)">6</text>
	<text transform="matrix(1 0 0 1 46.50 42.50)">7</text>
	<text transform="matrix(1 0 0 1 61.25 55.10)">8</text>
</g>
</svg>
