<svg width="109" height="109" viewBox="0 0 109 109">
<g id="kvg:StrokePaths_0677e">
<g id="kvg:0677e">
	<g id="kvg:0677e-g1">
		<path id="kvg:0677e-s1" d="M12.28,43c1.97,0.25,4.92,0.12,6.5-0.09c6.04-0.82,17.17-3.08,23.01-4.44c0.91-0.21,2.4-0.23,2.98,0"/>
		<path id="kvg:0677e-s2" d="M31.61,15c1.32,1.32,1.79,3.12,1.79,4.52c0,0.79-0.04,50.83-0.05,68.98c0,2.98,0,5.1,0,6"/>
		<path id="kvg:0677e-s3" d="M32.44,41.66c0,1.09-0.47,2.56-0.93,3.42c-5.94,10.93-9.9,16.34-19.65,26.72"/>
		<path id="kvg:0677e-s4" d="M36.25,51.25c2.72,1.35,7.2,5.73,9.5,8.35"/>
	</g>
	<g id="kvg:0677e-g2">
		<g id="kvg:0677e-g3">
			<path id="kvg:0677e-s5" d="M57.37,28.25c0.19,0.59,0,1.76-0.25,2.46c-1.79,5.08-4.62,11.66-10.37,17.54"/>
			<path id="kvg:0677e-s6" d="M67,23.88c6.88,0.75,14,15.88,20.69,20.89c2.33,1.74,3.81,2.61,5.81,3.53"/>
		</g>
		<g id="kvg:0677e-g4">
			<path id="kvg:0677e-s7" d="M66.22,55.83c0.28,0.92,0.12,2.28-0.26,3C60.73,68.58,57,74.5,48.6,84.71c-1.89,2.3-0.92,4.41,1.99,3.57c9.16-2.65,22.16-6.4,32.77-9.2"/>
			<path id="kvg:0677e-s8" d="M78.27,70.95c4.37,3.64,9.86,13.05,11.89,20.12"/>
		</g>
	</g>
</g>
</g>
<g id="kvg:StrokeNumbers_0677e">
	<text transform="matrix(1 0 0 1 4.99 44.50)">1</text>
	<text transform="matrix(1 0 0 1 21.49 16.56)">2</text>
	<text transform="matrix(1 0 0 1 18.75 54.13)">3</text>
	<text transform="matrix(1 0 0 1 38.25 49.63)">4</text>
	<text transform="matrix(1 0 0 1 48.50 29.50)">5</text>
	<text transform="matrix(1 0 0 1 60.50 23.50)">6</text>
	<text transform="matrix(1 0 0 1 58.99 55.50)">7</text>
	<text transform="matrix(1 0 0 1 76.50 67.63)">8</text>
</g>
</svg>
