<svg width="109" height="109" viewBox="0 0 109 109">
<g id="kvg:StrokePaths_06795">
<g id="kvg:06795">
	<g id="kvg:06795-g1">
		<path id="kvg:06795-s1" d="M12.78,40.72c0.35,0.24,2.39,0.41,3.31,0.31c3.94-0.41,17.62-2.71,23.95-3.91c0.92-0.17,1.15-0.24,1.73,0"/>
		<path id="kvg:06795-s2" d="M28.86,15c0.91,0.47,2.04,3,2.04,4.92c0,0.95-0.12,70.75-0.3,76.58"/>
		<path id="kvg:06795-s3" d="M30.44,41.28c-5.9,14.39-9.69,21.97-18.83,34.56"/>
		<path id="kvg:06795-s4" d="M33.97,49.9c2.51,1.75,7.04,7.75,9.16,11.14"/>
	</g>
	<g id="kvg:06795-g2">
		<g id="kvg:06795-g3">
			<path id="kvg:06795-s5" d="M49.41,30.13c0,3.93-2,14.74-2.91,17.37"/>
			<path id="kvg:06795-s6" d="M49.74,35.14c11.69-2.49,28-4.48,36.36-5.31c11.22-1.11,3.55,6.73-0.42,9.79"/>
		</g>
		<g id="kvg:06795-g4">
			<g id="kvg:06795-g5">
				<path id="kvg:06795-s7" d="M68.15,12.5c0.89,1.77,1.12,2.32,1.15,5.06c0.18,22.95-0.91,61.04-28.38,77.11"/>
			</g>
			<g id="kvg:06795-g6">
				<path id="kvg:06795-s8" d="M71.99,50.87c0.74,1.19,1.33,2.59,1.38,4.43c0.2,8.19-0.03,18.14-0.03,23.7c0,13,2.9,14.53,11.67,14.53c10.75,0,11.89-5.78,11.89-12.62"/>
			</g>
		</g>
	</g>
</g>
</g>
<g id="kvg:StrokeNumbers_06795">
	<text transform="matrix(1 0 0 1 6.50 41.85)">1</text>
	<text transform="matrix(1 0 0 1 19.50 15.50)">2</text>
	<text transform="matrix(1 0 0 1 19.50 50.50)">3</text>
	<text transform="matrix(1 0 0 1 35.50 48.50)">4</text>
	<text transform="matrix(1 0 0 1 42.50 30.50)">5</text>
	<text transform="matrix(1 0 0 1 53.50 30.50)">6</text>
	<text transform="matrix(1 0 0 1 59.50 11.18)">7</text>
	<text transform="matrix(1 0 0 1 77.50 55.50)">8</text>
</g>
</svg>
