<svg width="109" height="109" viewBox="0 0 109 109">
<g id="kvg:StrokePaths_067da">
<g id="kvg:067da">
	<g id="kvg:067da-g1">
		<path id="kvg:067da-s1" d="M12.53,38.22c2.35,0.91,4.85,0.65,6.5,0.46c5.27-0.61,14.76-1.93,20.52-2.91c1.65-0.28,3.54-0.51,5.22-0.15"/>
		<path id="kvg:067da-s2" d="M30.36,15.25c1.13,1.13,1.54,2.5,1.54,4.92c0,0.8-0.02,45.26-0.02,65.95c0,3.93,0,7,0,8.75"/>
		<path id="kvg:067da-s3" d="M31.44,39.28c0,1.09-0.56,3.21-1.07,4.46c-4.99,12.42-8.71,18.05-17.01,30.09"/>
		<path id="kvg:067da-s4" d="M35.12,48.62c2.21,1.63,6.76,7.96,8.62,11.12"/>
	</g>
	<g id="kvg:067da-g2">
		<g id="kvg:067da-g3">
			<path id="kvg:067da-s5" d="M50.55,45.8c1.08,1.08,1.33,2.2,1.47,3.71c0.69,7.21,1.95,21.82,2.93,34.87c0.2,2.63,0.38,5.19,0.55,7.62"/>
			<path id="kvg:067da-s6" d="M52.73,48.6c15.15-2.22,29.77-3.72,39.17-4.31c2.96-0.19,4.45,2.18,4.29,4.48c-0.47,6.76-2.6,22.48-4.51,34.09c-0.47,2.87-0.93,5.49-1.35,7.67"/>
		</g>
		<g id="kvg:067da-g4">
			<path id="kvg:067da-s7" d="M71.06,13.82c1.06,1.06,1.46,2.43,1.46,4.57c0,14.93-0.02,65.09-0.02,68.98"/>
		</g>
		<g id="kvg:067da-g5">
			<path id="kvg:067da-s8" d="M55.01,68.05c3.5-0.42,25.61-2.8,38.13-3.36"/>
			<path id="kvg:067da-s9" d="M56.32,89.57c8.85-0.61,23.17-1.62,33.85-1.85"/>
		</g>
	</g>
</g>
</g>
<g id="kvg:StrokeNumbers_067da">
	<text transform="matrix(1 0 0 1 6.25 39.25)">1</text>
	<text transform="matrix(1 0 0 1 20.33 16.25)">2</text>
	<text transform="matrix(1 0 0 1 20.25 49.23)">3</text>
	<text transform="matrix(1 0 0 1 36.25 47.25)">4</text>
	<text transform="matrix(1 0 0 1 43.25 51.25)">5</text>
	<text transform="matrix(1 0 0 1 54.25 45.25)">6</text>
	<text transform="matrix(1 0 0 1 62.33 12.93)">7</text>
	<text transform="matrix(1 0 0 1 58.25 64.25)">8</text>
	<text transform="matrix(1 0 0 1 59.25 86.25)">9</text>
</g>
</svg>
