<svg width="109" height="109" viewBox="0 0 109 109">
<g id="kvg:StrokePaths_067d8">
<g id="kvg:067d8">
	<g id="kvg:067d8-g1">
		<path id="kvg:067d8-s1" d="M12.28,38.25c0.39,0.23,2.68,0.38,3.71,0.29c4.43-0.38,19.22-2.07,26.33-3.2c1.03-0.16,1.29-0.23,1.94,0"/>
		<path id="kvg:067d8-s2" d="M29.36,13.5c0.91,0.47,2.54,2,2.54,4.92c0,0.95-0.12,70.25-0.3,76.08"/>
		<path id="kvg:067d8-s3" d="M31.44,39.78c-6.15,15.26-9.57,21.7-19.08,35.06"/>
		<path id="kvg:067d8-s4" d="M34.47,48.65c2.68,1.55,6.4,6.88,8.66,9.89"/>
	</g>
	<g id="kvg:067d8-g2">
		<path id="kvg:067d8-s5" d="M45.93,29.2c0.92,0.35,2.97,0.45,3.89,0.35c11.53-1.24,28.52-4.31,42.34-4.51c1.54-0.02,2.46,0.17,3.22,0.35"/>
		<path id="kvg:067d8-s6" d="M62.99,31.43c0.06,1.06,0.13,2.74-0.12,4.26c-1.48,8.99-9.98,28.73-21.62,40.81"/>
		<g id="kvg:067d8-g3">
			<path id="kvg:067d8-s7" d="M55.63,61.99c0.62,0.76,1.03,1.63,1.12,2.47c0.62,6.12,1.86,16.7,2.73,28.29"/>
			<path id="kvg:067d8-s8" d="M56.88,63.03c6.92-1.23,27.79-3.85,32.52-4.04c1.95-0.08,3.18,1.83,2.84,3.6c-1.2,6.1-3.54,14.73-4.54,25.16"/>
			<path id="kvg:067d8-s9" d="M59.34,90.62c5.54-0.62,23.21-2.19,30.28-2.37"/>
		</g>
	</g>
</g>
</g>
<g id="kvg:StrokeNumbers_067d8">
	<text transform="matrix(1 0 0 1 5.85 39.50)">1</text>
	<text transform="matrix(1 0 0 1 20.50 14.50)">2</text>
	<text transform="matrix(1 0 0 1 20.50 48.50)">3</text>
	<text transform="matrix(1 0 0 1 36.54 47.50)">4</text>
	<text transform="matrix(1 0 0 1 44.50 25.50)">5</text>
	<text transform="matrix(1 0 0 1 54.50 39.50)">6</text>
	<text transform="matrix(1 0 0 1 50.50 76.50)">7</text>
	<text transform="matrix(1 0 0 1 62.50 58.50)">8</text>
	<text transform="matrix(1 0 0 1 63.50 86.50)">9</text>
</g>
</svg>
