<svg width="109" height="109" viewBox="0 0 109 109">
<g id="kvg:StrokePaths_06803">
<g id="kvg:06803">
	<g id="kvg:06803-g1">
		<path id="kvg:06803-s1" d="M14.78,38.36c0.38,0.26,2.62,0.45,3.63,0.34c4.32-0.45,18.77-2.42,25.72-3.74c1.01-0.19,1.26-0.26,1.89,0"/>
		<path id="kvg:06803-s2" d="M31.86,13.5c0.91,0.47,2.54,1.75,2.54,4.42c0,0.95-0.12,70.25-0.3,76.08"/>
		<path id="kvg:06803-s3" d="M33.94,40.28C27.23,54.23,23.5,60.13,13.11,72.34"/>
		<path id="kvg:06803-s4" d="M37.47,48.4c2.45,1.32,6.28,5.6,7.91,8.89"/>
	</g>
	<g id="kvg:06803-g2">
		<g id="kvg:06803-g3">
			<path id="kvg:06803-s5" d="M81.04,14.5c0.07,0.48,0.27,1.4-0.14,1.94c-5.09,6.83-12.63,13.09-25.9,18.6"/>
			<path id="kvg:06803-s6" d="M53.39,31.53c1.11,0.72,1.42,3.33,1.42,5.19c0,15.28-3.07,35.79-12.01,50.75"/>
		</g>
		<g id="kvg:06803-g4">
			<g id="kvg:06803-g5">
				<path id="kvg:06803-s7" d="M56.91,46.4c1.08,0.39,3.05,0.47,4.13,0.39c7.17-0.54,26.02-3.29,34.39-3.5c1.8-0.05,2.87,0.19,3.77,0.38"/>
			</g>
			<path id="kvg:06803-s8" d="M72.77,55.84c4.73,1.66,11.48,4.66,16.02,5.34c2.35,0.35,3.43,1.32,2.88,3.06C88.25,75,82.87,86.1,77.93,92.72c-4.64,6.21-5.33,0.18-6.29-0.4"/>
			<path id="kvg:06803-s9" d="M73.02,48.71c0.06,0.94,0.12,2.43-0.12,3.78C71.5,60.46,65,80.5,52.49,88.67"/>
		</g>
	</g>
</g>
</g>
<g id="kvg:StrokeNumbers_06803">
	<text transform="matrix(1 0 0 1 7.50 38.50)">1</text>
	<text transform="matrix(1 0 0 1 24.50 12.50)">2</text>
	<text transform="matrix(1 0 0 1 23.50 46.50)">3</text>
	<text transform="matrix(1 0 0 1 39.50 47.50)">4</text>
	<text transform="matrix(1 0 0 1 72.50 14.50)">5</text>
	<text transform="matrix(1 0 0 1 47.50 41.50)">6</text>
	<text transform="matrix(1 0 0 1 60.50 42.50)">7</text>
	<text transform="matrix(1 0 0 1 79.50 55.10)">8</text>
	<text transform="matrix(1 0 0 1 64.50 55.50)">9</text>
</g>
</svg>
