<svg width="109" height="109" viewBox="0 0 109 109">
<g id="kvg:StrokePaths_0683d">
<g id="kvg:0683d">
	<g id="kvg:0683d-g1">
		<g id="kvg:0683d-g2">
			<path id="kvg:0683d-s1" d="M23.38,27.38c1.83,0.49,3.91,0.28,5.77,0.12c6.7-0.57,15.46-2.16,21.3-2.68c1.62-0.14,2.62-0.12,3.43,0.01"/>
			<path id="kvg:0683d-s2" d="M39.82,12.37c0.91,0.91,1.47,2.76,1.47,4.26c0,3.75-0.04,15.87-0.04,23.25"/>
		</g>
		<g id="kvg:0683d-g3">
			<g id="kvg:0683d-g4">
				<path id="kvg:0683d-s3" d="M15.88,42.73c3.35,1.2,8.18,0.73,11.62,0.24C48.21,40,69.7,37.18,85,36.24c3.11-0.19,6.07-0.33,9.13,0.33"/>
			</g>
		</g>
	</g>
	<g id="kvg:0683d-g5">
		<path id="kvg:0683d-s4" d="M19.53,61.71c0.41,0.24,2.84,0.37,3.93,0.31c6.04-0.28,19.53-3.21,27.06-4.41c1.09-0.17,2.56-0.24,3.24,0"/>
		<path id="kvg:0683d-s5" d="M38.77,48.5c1.12,1.12,1.36,2.62,1.36,4.17c0,4.16,0,27.29,0,39.08c0,3.31,0,5.71,0,6.5"/>
		<path id="kvg:0683d-s6" d="M39.33,61.53c0,1.47-1.26,3.93-2.19,5.25c-6.33,8.9-11.09,13.59-21.87,22.56"/>
		<path id="kvg:0683d-s7" d="M43.62,68c3.03,1.9,8,8.07,10.56,11.75"/>
	</g>
	<g id="kvg:0683d-g6">
		<g id="kvg:0683d-g7">
			<path id="kvg:0683d-s8" d="M60.25,11.75c1.43,1.81,1.89,3.57,2.28,7.47c3.09,31.03,9.09,57.03,27.81,74.72c4.97,4.7,4.83,0.78,4.11-7.26"/>
		</g>
		<g id="kvg:0683d-g8">
			<path id="kvg:0683d-s9" d="M82.98,47.89c0.08,1,0.01,2.34-0.4,3.75c-2.63,9.07-11.26,27.99-26.02,39.32"/>
		</g>
		<g id="kvg:0683d-g9">
			<g id="kvg:0683d-g10">
				<path id="kvg:0683d-s10" d="M74.5,13.25c3.42,2.25,8.9,7.39,10.5,11.25"/>
			</g>
		</g>
	</g>
</g>
</g>
<g id="kvg:StrokeNumbers_0683d">
	<text transform="matrix(1 0 0 1 17.25 28.63)">1</text>
	<text transform="matrix(1 0 0 1 29.50 12.13)">2</text>
	<text transform="matrix(1 0 0 1 8.25 44.50)">3</text>
	<text transform="matrix(1 0 0 1 12.50 62.50)">4</text>
	<text transform="matrix(1 0 0 1 30.75 51.50)">5</text>
	<text transform="matrix(1 0 0 1 25.50 72.50)">6</text>
	<text transform="matrix(1 0 0 1 47.50 68.50)">7</text>
	<text transform="matrix(1 0 0 1 50.50 12.50)">8</text>
	<text transform="matrix(1 0 0 1 75.50 46.63)">9</text>
	<text transform="matrix(1 0 0 1 70.50 10.63)">10</text>
</g>
</svg>
