<svg width="109" height="109" viewBox="0 0 109 109">
<g id="kvg:StrokePaths_06867">
<g id="kvg:06867">
	<g id="kvg:06867-g1">
		<path id="kvg:06867-s1" d="M9.28,39.22c0.35,0.24,2.39,0.41,3.31,0.31c3.94-0.41,17.62-2.21,23.95-3.41c0.92-0.17,1.15-0.24,1.73,0"/>
		<path id="kvg:06867-s2" d="M24.36,14c0.91,0.47,2.54,2.5,2.54,5.42c0,0.95-0.12,70.75-0.3,76.58"/>
		<path id="kvg:06867-s3" d="M26.44,40.78c-5.65,15.37-8.07,21.06-16.58,35.31"/>
		<path id="kvg:06867-s4" d="M28.22,47.9c3.53,2.35,7.28,5.35,9.41,9.64"/>
	</g>
	<g id="kvg:06867-g2">
		<g id="kvg:06867-g3">
			<path id="kvg:06867-s5" d="M65.01,13.5c0.09,1.03,0.46,1.88-0.18,3.21c-3.76,7.88-10.9,20.57-23.59,31.35"/>
			<path id="kvg:06867-s6" d="M64.72,17.31C71,24.5,86.74,38.88,92.09,43.2c1.5,1.21,3.24,1.92,4.66,2.3"/>
		</g>
		<g id="kvg:06867-g4">
			<g id="kvg:06867-g5">
				<path id="kvg:06867-s7" d="M51.6,48.72c0.55,0.2,2.35,0.27,2.89,0.2c4.59-0.53,15.77-2.84,22.25-2.83c0.91,0,2.25,0.1,2.71,0.2"/>
				<path id="kvg:06867-s8" d="M41.75,66.36c0.91,0.25,2.57,0.27,3.47,0.25C51,66.5,76.25,63,89.72,62.57c1.51-0.05,2.42,0.12,3.17,0.25"/>
			</g>
			<g id="kvg:06867-g6">
				<path id="kvg:06867-s9" d="M62.33,67.57c0.32,0.88-0.09,2.63-0.76,3.68c-4.92,7.85-6.72,10.47-13.11,17.65c-1.86,2.09-1.32,4.11,1.76,3.7c6.48-0.84,24.04-4.9,34.59-6.86"/>
				<path id="kvg:06867-s10" d="M75.5,74c5.21,3.62,13.45,14.87,14.75,20.5"/>
			</g>
		</g>
	</g>
</g>
</g>
<g id="kvg:StrokeNumbers_06867">
	<text transform="matrix(1 0 0 1 3.50 40.50)">1</text>
	<text transform="matrix(1 0 0 1 15.50 13.50)">2</text>
	<text transform="matrix(1 0 0 1 17.71 47.50)">3</text>
	<text transform="matrix(1 0 0 1 31.50 47.50)">4</text>
	<text transform="matrix(1 0 0 1 57.50 14.50)">5</text>
	<text transform="matrix(1 0 0 1 71.50 20.50)">6</text>
	<text transform="matrix(1 0 0 1 54.50 45.50)">7</text>
	<text transform="matrix(1 0 0 1 41.50 63.50)">8</text>
	<text transform="matrix(1 0 0 1 51.50 74.50)">9</text>
	<text transform="matrix(1 0 0 1 78.50 74.50)">10</text>
</g>
</svg>
