<svg width="109" height="109" viewBox="0 0 109 109">
<g id="kvg:StrokePaths_06897">
<g id="kvg:06897">
	<g id="kvg:06897-g1">
		<path id="kvg:06897-s1" d="M12.53,39.22c2.2,0.37,4.41,0.42,6.63,0.14c4.32-0.61,12.47-1.86,18.02-2.55c1.47-0.18,3.12-0.29,4.59-0.19"/>
		<path id="kvg:06897-s2" d="M28.11,15.5c0.88,0.88,1.29,2.62,1.29,4.42c0,0.77-0.02,45.7-0.02,65.83c0,4.58,0,7.9,0,9.12"/>
		<path id="kvg:06897-s3" d="M28.94,40.28c-0.31,2.34-1.46,5.52-2.14,7.11c-4.69,10.93-8.21,16.96-16.19,27.95"/>
		<path id="kvg:06897-s4" d="M32.97,47.9c2.37,1.32,6.03,5.73,7.66,8.64"/>
	</g>
	<g id="kvg:06897-g2">
		<path id="kvg:06897-s5" d="M47.09,21.35c3.35,0.58,6.6-0.05,10.03-0.44C65,20,74.64,18.32,81.86,17.65c3.01-0.28,6.14-0.4,8.7-0.05"/>
		<g id="kvg:06897-g3">
			<path id="kvg:06897-s6" d="M48.44,34.4c0.83,0.83,1.1,1.64,1.23,2.61c0.37,2.61,1.41,10.54,2.21,16.74c0.43,3.3,0.79,6.12,0.96,7.38"/>
			<path id="kvg:06897-s7" d="M50.5,35.58c4.49-0.59,25.35-3.12,33.75-4.11c4.79-0.56,7,1.41,6.3,5.79c-0.64,4-1.4,7.96-2.64,14.34c-0.42,2.15-0.89,4.57-1.43,7.37"/>
			<path id="kvg:06897-s8" d="M52.18,47.24c10.69-1.61,28.82-3.36,36.06-3.69"/>
			<path id="kvg:06897-s9" d="M54.42,58.88c9.6-1.09,18.71-1.88,31.8-2.69"/>
		</g>
		<g id="kvg:06897-g4">
			<g id="kvg:06897-g5">
				<path id="kvg:06897-s10" d="M68.97,21.75c1.08,1.08,1.17,2.59,1.14,4.63c-0.61,39.37-1.36,54.99-27.83,69.16"/>
			</g>
			<path id="kvg:06897-s11" d="M51.99,66.51c6.04,1.18,21.5,14.93,31.08,22.15c3.4,2.66,6.79,4.5,11.15,5.52"/>
		</g>
	</g>
</g>
</g>
<g id="kvg:StrokeNumbers_06897">
	<text transform="matrix(1 0 0 1 5.85 41.85)">1</text>
	<text transform="matrix(1 0 0 1 18.50 15.50)">2</text>
	<text transform="matrix(1 0 0 1 18.50 51.50)">3</text>
	<text transform="matrix(1 0 0 1 35.50 46.50)">4</text>
	<text transform="matrix(1 0 0 1 46.50 18.50)">5</text>
	<text transform="matrix(1 0 0 1 43.50 45.25)">6</text>
	<text transform="matrix(1 0 0 1 52.25 32.50)">7</text>
	<text transform="matrix(1 0 0 1 55.25 44.50)">8</text>
	<text transform="matrix(1 0 0 1 56.50 55.50)">9</text>
	<text transform="matrix(1 0 0 1 59.50 29.50)">10</text>
	<text transform="matrix(1 0 0 1 41.5 70.50)">11</text>
</g>
</svg>
