<svg width="109" height="109" viewBox="0 0 109 109">
<g id="kvg:StrokePaths_068a0">
<g id="kvg:068a0">
	<g id="kvg:068a0-g1">
		<path id="kvg:068a0-s1" d="M12.78,37.47c0.36,0.22,2.51,0.38,3.47,0.29c4.14-0.37,19.01-2.52,25.66-3.63c0.96-0.16,2.26-0.22,2.86,0"/>
		<path id="kvg:068a0-s2" d="M28.86,14.5c0.91,0.47,2.54,2.25,2.54,4.42c0,0.95-0.12,70.75-0.3,76.58"/>
		<path id="kvg:068a0-s3" d="M30.94,39.28c-5.1,15.04-7.94,21.4-15.83,34.56"/>
		<path id="kvg:068a0-s4" d="M33.97,47.4c2.37,1.59,7.28,5.76,9.28,8.85"/>
	</g>
	<g id="kvg:068a0-g2">
		<g id="kvg:068a0-g3">
			<path id="kvg:068a0-s5" d="M49.77,19.62c0.38,0.46,0.76,0.83,0.93,1.4c1.3,4.44,2.84,16.64,3.72,24.58"/>
			<path id="kvg:068a0-s6" d="M52.12,22.2C62,21,81.3,19.14,86.07,18.64c1.75-0.18,2.79,2.37,2.53,3.71c-1.04,5.52-2.23,9.78-4.46,17.72"/>
			<path id="kvg:068a0-s7" d="M54.8,42.7c5.6-0.56,24.47-1.38,31.58-1.9"/>
		</g>
		<g id="kvg:068a0-g4">
			<g id="kvg:068a0-g5">
				<path id="kvg:068a0-s8" d="M69.2,44.55c0.94,1.63,0.36,3.09-0.64,4.81C65.75,54.25,62.75,60,59.1,64.83"/>
			</g>
			<g id="kvg:068a0-g6">
				<path id="kvg:068a0-s9" d="M49.84,64.06c0.45,0.55,0.91,1.01,1.11,1.67c1.55,5.26,2.4,18.39,3.45,27.75"/>
				<path id="kvg:068a0-s10" d="M52.64,67.5c11.03-1.54,30.11-3.21,35.8-3.62c2.08-0.15,3.33,2.89,3.02,4.44c-1.25,6.44-2.18,8.88-4.58,20.21"/>
				<path id="kvg:068a0-s11" d="M54.84,91.32c6.68-0.45,26.13-1.51,34.62-1.86"/>
			</g>
		</g>
	</g>
</g>
</g>
<g id="kvg:StrokeNumbers_068a0">
	<text transform="matrix(1 0 0 1 6.50 38.50)">1</text>
	<text transform="matrix(1 0 0 1 20.50 14.50)">2</text>
	<text transform="matrix(1 0 0 1 21.50 47.50)">3</text>
	<text transform="matrix(1 0 0 1 36.54 46.85)">4</text>
	<text transform="matrix(1 0 0 1 42.50 26.50)">5</text>
	<text transform="matrix(1 0 0 1 54.50 18.50)">6</text>
	<text transform="matrix(1 0 0 1 58.50 39.50)">7</text>
	<text transform="matrix(1 0 0 1 59.25 51.50)">8</text>
	<text transform="matrix(1 0 0 1 44.50 73.50)">9</text>
	<text transform="matrix(1 0 0 1 51.50 63.50)">10</text>
	<text transform="matrix(1 0 0 1 57.50 87.50)">11</text>
</g>
</svg>
