<svg width="109" height="109" viewBox="0 0 109 109">
<g id="kvg:StrokePaths_068b9">
<g id="kvg:068b9">
	<g id="kvg:068b9-g1">
		<path id="kvg:068b9-s1" d="M11.78,37.95c0.36,0.16,2.52,0.27,3.49,0.21c4.16-0.27,17-2.15,23.68-2.96c0.97-0.12,1.21-0.16,1.82,0"/>
		<path id="kvg:068b9-s2" d="M27.36,14c0.91,0.47,2.04,1.75,2.04,4.42c0,0.95-0.12,72.75-0.3,78.58"/>
		<path id="kvg:068b9-s3" d="M28.94,39.28c-5.18,14.49-8.06,20.62-16.08,33.31"/>
		<path id="kvg:068b9-s4" d="M32.47,47.4c2.6,1.52,6.21,6.7,8.41,9.64"/>
	</g>
	<g id="kvg:068b9-g2">
		<g id="kvg:068b9-g3">
			<g id="kvg:068b9-g4">
				<path id="kvg:068b9-s5" d="M81.57,14c-0.57,1-1.14,2.07-1.65,2.44c-7.18,5.11-12.73,7.74-27.08,12.77"/>
				<path id="kvg:068b9-s6" d="M49.92,27.75c0.99,1.74,1.75,3.4,1.86,5.28c0.43,6.98,0.72,26.46,1.27,34.95"/>
				<path id="kvg:068b9-s7" d="M52.38,42.63c8.8-1.18,24.88-2.83,35.57-4.32c1.6-0.22,4.39-0.19,5.4,0"/>
				<path id="kvg:068b9-s8" d="M79.41,42.31c0.26,1.18,0.56,2.44,0.39,3.8c-0.48,3.95-1.33,9.96-2.7,19.88"/>
			</g>
			<g id="kvg:068b9-g5">
				<path id="kvg:068b9-s9" d="M38.31,68.46c1.5,0.29,4.27,0.36,5.76,0.29c11.3-0.51,34.36-3.2,50.37-3.73c2.5-0.08,4.01,0.14,5.26,0.29"/>
			</g>
		</g>
		<g id="kvg:068b9-g6">
			<g id="kvg:068b9-g7">
				<path id="kvg:068b9-s10" d="M57.45,75.34c0.05,0.5,0.18,1.46-0.09,2.03c-3.46,7.13-8.56,13.67-17.57,19.42"/>
			</g>
			<g id="kvg:068b9-g8">
				<path id="kvg:068b9-s11" d="M74.44,73.68c6.34,3.51,16.37,14.42,17.96,19.88"/>
			</g>
		</g>
	</g>
</g>
</g>
<g id="kvg:StrokeNumbers_068b9">
	<text transform="matrix(1 0 0 1 5.50 37.50)">1</text>
	<text transform="matrix(1 0 0 1 18.50 13.50)">2</text>
	<text transform="matrix(1 0 0 1 18.50 48.50)">3</text>
	<text transform="matrix(1 0 0 1 33.50 46.40)">4</text>
	<text transform="matrix(1 0 0 1 72.50 12.50)">5</text>
	<text transform="matrix(1 0 0 1 44.50 35.50)">6</text>
	<text transform="matrix(1 0 0 1 57.50 38.50)">7</text>
	<text transform="matrix(1 0 0 1 70.50 50.50)">8</text>
	<text transform="matrix(1 0 0 1 41.25 65.50)">9</text>
	<text transform="matrix(1 0 0 1 46.50 78.95)">10</text>
	<text transform="matrix(1 0 0 1 66.50 77.50)">11</text>
</g>
</svg>
