<svg width="109" height="109" viewBox="0 0 109 109">
<g id="kvg:StrokePaths_068c4">
<g id="kvg:068c4">
	<g id="kvg:068c4-g1">
		<g id="kvg:068c4-g2">
			<g id="kvg:068c4-g3">
				<path id="kvg:068c4-s1" d="M53.5,9.25c1.06,1.06,1.54,2,1.54,3.59C55.05,14.75,55,17,55,18"/>
				<path id="kvg:068c4-s2" d="M22.74,21.44c3.15,0.23,5.86,0.13,9.01-0.18c10.94-1.08,32.99-3.38,46.37-4.28c3.02-0.2,6.75-0.23,10.13,0.53"/>
			</g>
			<g id="kvg:068c4-g4">
				<path id="kvg:068c4-s3" d="M49.43,21c0.45,0.75,0.32,1.88-0.47,2.66c-2.56,2.52-5.2,4.59-10.98,9c-1.8,1.37-1.08,3.31,0.93,2.77C49,32.75,60,30.5,69.5,28.6"/>
				<path id="kvg:068c4-s4" d="M63.25,23.5c4.49,1.85,11.59,7.59,12.72,10.47"/>
			</g>
			<g id="kvg:068c4-g5">
				<g id="kvg:068c4-g6">
					<g id="kvg:068c4-g7">
						<g id="kvg:068c4-g8">
							<g id="kvg:068c4-g9">
								<path id="kvg:068c4-s5" d="M15.5,49.7c1.43,0.54,4.06,0.8,5.47,0.54c5.78-1.05,50.69-5.49,67.78-5.73c2.38-0.03,3.81,0.26,5,0.53"/>
							</g>
						</g>
						<g id="kvg:068c4-g10">
							<g id="kvg:068c4-g11">
								<g id="kvg:068c4-g12">
									<path id="kvg:068c4-s6" d="M34.1,41.19c0.73,0.73,1.14,1.94,1.14,3.02c0,3.8,0.01,7.8-0.05,11.79c-0.03,1.83,0,3.85-0.06,5.5"/>
								</g>
							</g>
						</g>
						<g id="kvg:068c4-g13">
							<g id="kvg:068c4-g14">
								<g id="kvg:068c4-g15">
									<path id="kvg:068c4-s7" d="M52.59,37.94c0.79,0.8,1.39,2.06,1.39,3.02c0,0.8-0.11,10.77-0.11,16.16"/>
								</g>
							</g>
						</g>
					</g>
					<g id="kvg:068c4-g16">
						<path id="kvg:068c4-s8" d="M72.84,38c0.66,1,0.78,2.74,0.64,3.52c-0.73,4.1-1.73,7.73-2.93,13.93"/>
					</g>
				</g>
				<g id="kvg:068c4-g17">
					<path id="kvg:068c4-s9" d="M36.11,59.64c4.04-0.46,21.82-2.1,31.39-2.71c2.53-0.16,4.46-0.23,5.34-0.16"/>
				</g>
			</g>
		</g>
	</g>
	<g id="kvg:068c4-g18">
		<path id="kvg:068c4-s10" d="M23.5,71.86c3.38,0.51,5.97,0.31,8.99,0.01c10.95-1.07,30.39-3.12,46-4.21c3.02-0.21,5.77-0.36,8.76,0.24"/>
		<path id="kvg:068c4-s11" d="M53.53,61.25c0.98,0.98,1.19,2.25,1.19,3.5c0,6.35-0.05,18.73-0.07,27.88c0,2.19-0.01,4.19-0.01,5.88"/>
		<path id="kvg:068c4-s12" d="M50.25,70.5c0,1.12-0.98,2.68-2.26,3.99c-7.48,7.67-20.6,16.89-31.24,20.76"/>
		<path id="kvg:068c4-s13" d="M55.75,70.25c3.63,2.27,15.39,11.51,23.66,16.78c2.01,1.28,6.21,3.6,9.09,4.72"/>
	</g>
</g>
</g>
<g id="kvg:StrokeNumbers_068c4">
	<text transform="matrix(1 0 0 1 45.50 9.50)">1</text>
	<text transform="matrix(1 0 0 1 15.50 21.50)">2</text>
	<text transform="matrix(1 0 0 1 33.75 30.48)">3</text>
	<text transform="matrix(1 0 0 1 56.25 27.50)">4</text>
	<text transform="matrix(1 0 0 1 8.50 50.50)">5</text>
	<text transform="matrix(1 0 0 1 26.25 43.63)">6</text>
	<text transform="matrix(1 0 0 1 43.50 42.50)">7</text>
	<text transform="matrix(1 0 0 1 64.50 40.50)">8</text>
	<text transform="matrix(1 0 0 1 38.50 56.50)">9</text>
	<text transform="matrix(1 0 0 1 12.50 73.63)">10</text>
	<text transform="matrix(1 0 0 1 43.50 67.63)">11</text>
	<text transform="matrix(1 0 0 1 29.25 81.50)">12</text>
	<text transform="matrix(1 0 0 1 72.50 79.50)">13</text>
</g>
</svg>
