<svg width="109" height="109" viewBox="0 0 109 109">
<g id="kvg:StrokePaths_0697e">
<g id="kvg:0697e">
	<g id="kvg:0697e-g1">
		<path id="kvg:0697e-s1" d="M11.28,37.72c0.35,0.24,2.39,0.41,3.31,0.31c3.94-0.41,18.12-1.71,24.45-2.91c0.92-0.17,2.15-0.24,2.73,0"/>
		<path id="kvg:0697e-s2" d="M25.86,14c0.91,0.47,2.54,2.5,2.54,4.92c0,0.95-0.12,69.25-0.3,75.08"/>
		<path id="kvg:0697e-s3" d="M28.44,39.78c-5.25,14.49-9.2,20.62-17.33,33.31"/>
		<path id="kvg:0697e-s4" d="M31.22,47.65c2.59,1.55,6.85,6.59,9.03,9.6"/>
	</g>
	<g id="kvg:0697e-g2">
		<g id="kvg:0697e-g3">
			<g id="kvg:0697e-g4">
				<path id="kvg:0697e-s5" d="M66.01,11c0.31,0.46,0.36,1.04,0.29,1.47c-0.44,2.51-4.22,8.73-7.66,12.34"/>
			</g>
			<g id="kvg:0697e-g5">
				<path id="kvg:0697e-s6" d="M50.09,25.6c0.55,0.59,1.11,0.86,1.11,1.68c0,0.82,2.95,20.52,3.18,24.55"/>
				<path id="kvg:0697e-s7" d="M51.53,27.5c3.13-0.27,28.41-4.17,31.26-4.44c2.38-0.23,3.87,0.89,3.43,3.27c-0.23,1.29-1.98,12.75-4.16,22.18"/>
				<path id="kvg:0697e-s8" d="M53.14,38.02c3.6-0.19,25.5-3.05,30.94-3.34"/>
				<path id="kvg:0697e-s9" d="M54.44,49.81c9.47-1.05,19.59-2.53,27.7-2.96"/>
			</g>
		</g>
		<g id="kvg:0697e-g6">
			<path id="kvg:0697e-s10" d="M67.72,51.67c0.06,0.44,0.87,2.29,0.93,5.09c0.3,13.41-0.19,32.84-0.19,37.41c0,5.59-3.71,3.59-7.04-0.68"/>
			<path id="kvg:0697e-s11" d="M41.6,66.43c1.38,0.19,2.98,0.74,4.36,0.37c1.38-0.37,8.66-2.36,10.95-3.1c2.29-0.74,3.06,1.02,2.44,2.72C56.5,74.25,48.75,85,37.5,91.5"/>
			<path id="kvg:0697e-s12" d="M88.01,57c0.06,0.32,0.11,0.87-0.12,1.28c-2.11,3.94-6.83,9.16-10.64,11.22"/>
			<path id="kvg:0697e-s13" d="M69,61.25c5.94,9.07,15.9,21.32,22.54,26.55c1.4,1.1,2.73,1.66,4.02,2.03"/>
		</g>
	</g>
</g>
</g>
<g id="kvg:StrokeNumbers_0697e">
	<text transform="matrix(1 0 0 1 5.85 38.50)">1</text>
	<text transform="matrix(1 0 0 1 18.50 14.50)">2</text>
	<text transform="matrix(1 0 0 1 18.50 47.50)">3</text>
	<text transform="matrix(1 0 0 1 33.50 47.50)">4</text>
	<text transform="matrix(1 0 0 1 57.50 11.50)">5</text>
	<text transform="matrix(1 0 0 1 43.75 32.50)">6</text>
	<text transform="matrix(1 0 0 1 53.50 24.50)">7</text>
	<text transform="matrix(1 0 0 1 56.50 34.50)">8</text>
	<text transform="matrix(1 0 0 1 57.50 46.50)">9</text>
	<text transform="matrix(1 0 0 1 57.75 58.50)">10</text>
	<text transform="matrix(1 0 0 1 41.50 63.50)">11</text>
	<text transform="matrix(1 0 0 1 77.50 56.50)">12</text>
	<text transform="matrix(1 0 0 1 72.50 63.50)">13</text>
</g>
</svg>
