<svg width="109" height="109" viewBox="0 0 109 109">
<g id="kvg:StrokePaths_0698e">
<g id="kvg:0698e">
	<g id="kvg:0698e-g1">
		<path id="kvg:0698e-s1" d="M12.29,39.02c1.94,0.33,3.88,0.41,5.84,0.22c4.69-0.75,14.28-2.05,20.26-3.07c1.61-0.3,3.24-0.49,4.88-0.56"/>
		<path id="kvg:0698e-s2" d="M30.13,15.25c1,1.12,1.59,3,1.59,5.48c0,4.17-0.06,46.85-0.07,66.02c0,3.89,0,6.82,0.01,8.25"/>
		<path id="kvg:0698e-s3" d="M31.25,38.38c-0.12,1.89-0.91,5.78-1.58,7.4c-4.82,11.72-8.39,18.11-16.56,29.82"/>
		<path id="kvg:0698e-s4" d="M35.09,46.08c2.41,1.61,5.91,6.67,7.79,10.27"/>
	</g>
	<g id="kvg:0698e-g2">
		<g id="kvg:0698e-g3">
			<path id="kvg:0698e-s5" d="M43.44,18.4c3.07,0.23,6.13,0.14,9.17-0.26c8.11-0.84,19.08-1.85,30.13-2.73c2.95-0.32,5.9-0.28,8.87,0.1"/>
			<g id="kvg:0698e-g4">
				<path id="kvg:0698e-s6" d="M64,19.62c0.06,1.07-0.22,2-0.84,2.78c-1.43,2.09-2.1,3.31-3.04,4.6"/>
				<g id="kvg:0698e-g5">
					<path id="kvg:0698e-s7" d="M51.39,28.77c0.86,0.98,0.99,1.86,0.93,3.22c-0.03,0.64-0.05,11.2-0.03,19.51c0.01,2.74,0.02,5.19,0.03,6.86"/>
					<path id="kvg:0698e-s8" d="M53.12,29.78c2.72-0.11,22.56-2.28,25.04-2.41c2.07-0.11,3.52,0.83,3.52,3.38c0,0.82,0.01,10.07,0.01,18.87c0,2.36,0,4.69,0,6.81"/>
					<path id="kvg:0698e-s9" d="M53.08,38.55c7.17-0.8,22.42-2.3,27.94-2.66"/>
					<path id="kvg:0698e-s10" d="M53.3,46.93c8.58-0.8,19.08-2.05,27.4-2.59"/>
					<path id="kvg:0698e-s11" d="M53.38,55.5C60.5,55,72.75,54,80.6,53.44"/>
				</g>
			</g>
		</g>
		<g id="kvg:0698e-g6">
			<path id="kvg:0698e-s12" d="M59.08,58.13c0.14,1.29-0.01,2.53-0.59,3.67C55.62,67.38,50.62,75,41.97,81.3"/>
			<path id="kvg:0698e-s13" d="M59.79,65.73c1.37,0,2.73-0.1,4.09-0.3c3.61-0.45,8.25-1.18,12.86-2.53c2.92-0.85,3.06,2.08,2.29,3.55C74.84,74.52,57.96,90.25,39.5,96"/>
			<path id="kvg:0698e-s14" d="M54.4,71.31c4.6,3.26,20.66,13.41,30.25,18.63c3.19,1.99,6.64,3.35,10.34,4.09"/>
		</g>
	</g>
</g>
</g>
<g id="kvg:StrokeNumbers_0698e">
	<text transform="matrix(1 0 0 1 5.50 38.50)">1</text>
	<text transform="matrix(1 0 0 1 21.50 14.50)">2</text>
	<text transform="matrix(1 0 0 1 21.50 48.50)">3</text>
	<text transform="matrix(1 0 0 1 36.54 45.50)">4</text>
	<text transform="matrix(1 0 0 1 41.50 15.50)">5</text>
	<text transform="matrix(1 0 0 1 56.50 24.50)">6</text>
	<text transform="matrix(1 0 0 1 45.50 34.50)">7</text>
	<text transform="matrix(1 0 0 1 52.50 27.50)">8</text>
	<text transform="matrix(1 0 0 1 56.50 36.53)">9</text>
	<text transform="matrix(1 0 0 1 56.50 44.50)">10</text>
	<text transform="matrix(1 0 0 1 56.50 53.50)">11</text>
	<text transform="matrix(1 0 0 1 46.50 66.50)">12</text>
	<text transform="matrix(1 0 0 1 63.50 62.23)">13</text>
	<text transform="matrix(1 0 0 1 59.75 73.15)">14</text>
</g>
</svg>
