<svg width="109" height="109" viewBox="0 0 109 109">
<g id="kvg:StrokePaths_069ae">
<g id="kvg:069ae">
	<g id="kvg:069ae-g1">
		<g id="kvg:069ae-g2">
			<path id="kvg:069ae-s1" d="M20.5,18.68c2.76,1.94,5.52,7.18,5.75,10.31"/>
			<path id="kvg:069ae-s2" d="M47.23,14.37c0.63,0.45,0.34,1.61-0.24,2.31c-0.57,0.7-5.88,5.64-8.74,7.28"/>
			<path id="kvg:069ae-s3" d="M35.36,12.25c0.89,0.76,0.89,2.69,0.89,3.18C36.25,29,31.75,37,25,42"/>
			<path id="kvg:069ae-s4" d="M37.97,29.39c4.09,1.71,9.25,7.11,10.33,9.52"/>
		</g>
		<g id="kvg:069ae-g3">
			<path id="kvg:069ae-s5" d="M54,15.43c2.76,2.7,4.97,7.04,5.25,10.06"/>
			<path id="kvg:069ae-s6" d="M81.23,13.87c0.02,1.13-0.12,2.15-0.74,2.81c-1.24,1.32-6.38,4.64-9.24,6.28"/>
			<path id="kvg:069ae-s7" d="M67.84,10.75c0.91,0.69,0.91,1.54,0.91,1.99C68.75,25.25,64,34.5,57.25,38"/>
			<path id="kvg:069ae-s8" d="M69.97,27.64c4.29,1.75,9.7,7.3,10.83,9.77"/>
		</g>
		<g id="kvg:069ae-g4">
			<path id="kvg:069ae-s9" d="M19.66,45.69c-0.14,3.93-3.48,14.22-4.66,16.56"/>
			<path id="kvg:069ae-s10" d="M19.72,49c6.78-0.75,48.25-5.81,65.97-6.25c10.06-0.25,3.81,5.75-0.69,9.5"/>
		</g>
	</g>
	<g id="kvg:069ae-g5">
		<path id="kvg:069ae-s11" d="M26,63.2c1.47,0.48,3.13,0.63,4.82,0.48c8.59-0.78,33.51-3.5,46.49-4.42c1.67-0.12,2.72,0.08,4.4,0.42"/>
		<path id="kvg:069ae-s12" d="M53,50.25c0.87,0.35,1.57,2.05,1.57,2.77c0,7.33,0,42.61-0.17,46.98"/>
		<path id="kvg:069ae-s13" d="M54.35,62.31c-6.32,9.5-19.85,21.94-36.4,29.39"/>
		<path id="kvg:069ae-s14" d="M54.77,64.63C59.3,68,80.6,84.91,85.53,88.23c1.67,1.12,3.1,1.6,4.77,1.93"/>
	</g>
</g>
</g>
<g id="kvg:StrokeNumbers_069ae">
	<text transform="matrix(1 0 0 1 13.75 18.50)">1</text>
	<text transform="matrix(1 0 0 1 42.50 10.50)">2</text>
	<text transform="matrix(1 0 0 1 27.50 12.50)">3</text>
	<text transform="matrix(1 0 0 1 43.50 30.50)">4</text>
	<text transform="matrix(1 0 0 1 52.50 12.50)">5</text>
	<text transform="matrix(1 0 0 1 77.50 9.50)">6</text>
	<text transform="matrix(1 0 0 1 61.50 10.50)">7</text>
	<text transform="matrix(1 0 0 1 78.75 26.60)">8</text>
	<text transform="matrix(1 0 0 1 13.50 46.50)">9</text>
	<text transform="matrix(1 0 0 1 30.50 44.50)">10</text>
	<text transform="matrix(1 0 0 1 23.50 60.50)">11</text>
	<text transform="matrix(1 0 0 1 41.50 54.50)">12</text>
	<text transform="matrix(1 0 0 1 36.50 71.23)">13</text>
	<text transform="matrix(1 0 0 1 64.75 70.50)">14</text>
</g>
</svg>
