<svg width="109" height="109" viewBox="0 0 109 109">
<g id="kvg:StrokePaths_06b20">
<g id="kvg:06b20">
	<g id="kvg:06b20-g1">
		<path id="kvg:06b20-s1" d="M40.75,14.62c0.05,0.85,0.11,1.94-0.11,3.17C39.31,25,31.94,40.57,21.5,50.25"/>
		<path id="kvg:06b20-s2" d="M36.97,34.99c1.28,0.36,3.69,0.65,5.62,0.36c7.41-1.1,26.66-5.1,32.96-6.04c7.61-1.14,4.94,4.44-5.06,13.44"/>
	</g>
	<g id="kvg:06b20-g2">
		<path id="kvg:06b20-s3" d="M51.37,45.88c0.35,1.52,0.31,2.66,0.06,4.33C49.85,60.57,38.06,82.1,17.5,94"/>
		<path id="kvg:06b20-s4" d="M51.5,58.75c5.62,5.75,20.25,19.88,30.76,28.73c2.5,2.1,5.36,4.15,8.61,4.9"/>
	</g>
</g>
</g>
<g id="kvg:StrokeNumbers_06b20">
	<text transform="matrix(1 0 0 1 32.50 16.50)">1</text>
	<text transform="matrix(1 0 0 1 42.50 32.50)">2</text>
	<text transform="matrix(1 0 0 1 42.50 47.98)">3</text>
	<text transform="matrix(1 0 0 1 56.50 59.50)">4</text>
</g>
</svg>
