<svg width="109" height="109" viewBox="0 0 109 109">
<g id="kvg:StrokePaths_06b3a">
<g id="kvg:06b3a">
	<g id="kvg:06b3a-g1">
		<g id="kvg:06b3a-g2">
			<g id="kvg:06b3a-g3">
				<g id="kvg:06b3a-g4">
					<g id="kvg:06b3a-g5">
						<path id="kvg:06b3a-s1" d="M12.34,33.34c1.78,0.41,3.76,0.32,5.66,0.07c7.07-0.93,21.96-3.3,30.1-4.2c1.76-0.2,3.52-0.2,5.45,0.05"/>
						<path id="kvg:06b3a-s2" d="M22.16,19.28c0.84,0.84,1.13,2.22,1.13,3.61c0,0.97-0.04,40.97-0.04,47.73"/>
					</g>
					<path id="kvg:06b3a-s3" d="M40.7,14.25c0.9,0.9,1.38,2.12,1.38,3.61C42.08,24.25,42,60.9,42,68"/>
				</g>
				<path id="kvg:06b3a-s4" d="M24.34,45.62c4.29-0.62,13.94-1.89,16.59-2.13"/>
				<g id="kvg:06b3a-g6">
					<path id="kvg:06b3a-s5" d="M24.41,58.02c3.96-0.52,12.88-1.9,16.59-2.38"/>
				</g>
			</g>
			<path id="kvg:06b3a-s6" d="M9.38,73.43c2.34,0.12,4.59,0.03,6.89-0.36c8.97-1.52,23.04-3.64,32.6-4.69c1.94-0.21,4.51-0.4,6.39,0.19"/>
		</g>
		<g id="kvg:06b3a-g7">
			<path id="kvg:06b3a-s7" d="M25.48,79.21c0.11,0.97-0.08,1.88-0.55,2.74c-1.55,3.33-5.91,8.54-12.18,13.05"/>
			<path id="kvg:06b3a-s8" d="M38.75,77.38c3.09,2.01,7.98,8.25,8.75,11.38"/>
		</g>
	</g>
	<g id="kvg:06b3a-g8">
		<g id="kvg:06b3a-g9">
			<path id="kvg:06b3a-s9" d="M66.68,16.75c0.04,0.83,0.04,2.18-0.33,3.31C63.62,28.38,59.62,40.88,52,51.75"/>
			<path id="kvg:06b3a-s10" d="M62.35,39.49c1.9,0.39,3.55,0.25,5.18-0.09c4.16-0.87,16.12-4,17.49-4.34c6.35-1.56,5.48,1.69-1.27,10.19"/>
		</g>
		<g id="kvg:06b3a-g10">
			<path id="kvg:06b3a-s11" d="M67.71,48c0.79,1.38,0.9,3.14,0.63,4.77c-1.72,10.61-7.09,31.73-21.09,42.98"/>
			<path id="kvg:06b3a-s12" d="M67,61.5c3.75,5.38,12.62,17.12,20.24,25.89c2.15,2.47,4.89,4.98,8.01,7.11"/>
		</g>
	</g>
</g>
</g>
<g id="kvg:StrokeNumbers_06b3a">
	<text transform="matrix(1 0 0 1 6.50 34.50)">1</text>
	<text transform="matrix(1 0 0 1 11.50 19.63)">2</text>
	<text transform="matrix(1 0 0 1 30.75 15.50)">3</text>
	<text transform="matrix(1 0 0 1 28.32 41.50)">4</text>
	<text transform="matrix(1 0 0 1 28.50 54.50)">5</text>
	<text transform="matrix(1 0 0 1 5.50 70.50)">6</text>
	<text transform="matrix(1 0 0 1 17.25 83.91)">7</text>
	<text transform="matrix(1 0 0 1 33.75 84.13)">8</text>
	<text transform="matrix(1 0 0 1 57.50 15.13)">9</text>
	<text transform="matrix(1 0 0 1 69.75 34.55)">10</text>
	<text transform="matrix(1 0 0 1 57.75 55.48)">11</text>
	<text transform="matrix(1 0 0 1 74.50 67.63)">12</text>
</g>
</svg>
