<svg width="109" height="109" viewBox="0 0 109 109">
<g id="kvg:StrokePaths_06b39">
<g id="kvg:06b39">
	<g id="kvg:06b39-g1">
		<g id="kvg:06b39-g2">
			<path id="kvg:06b39-s1" d="M12.96,24.77c1.34,0.25,2.84,0.61,3.73,0.57c8.07-0.34,18.62-0.98,30.19-2.07c1.1-0.1,3.09-0.05,4.33-0.05"/>
			<path id="kvg:06b39-s2" d="M32.47,13c0.25,0.42,0.4,0.92,0.38,1.83C32.58,27.46,24.08,41.26,16.64,44"/>
			<path id="kvg:06b39-s3" d="M30.73,28.5c5.6,2,11.97,7.25,14.71,12.5"/>
		</g>
		<g id="kvg:06b39-g3">
			<g id="kvg:06b39-g4">
				<g id="kvg:06b39-g5">
					<path id="kvg:06b39-s4" d="M9,50.42c0.94,0.58,2.67,0.72,3.61,0.58c5.62-0.83,28.55-3.27,36.34-4.04c1.57-0.15,2.51,0.28,3.3,0.57"/>
				</g>
			</g>
			<g id="kvg:06b39-g6">
				<path id="kvg:06b39-s5" d="M15.26,59.58c0.27,0.38,0.55,0.7,0.67,1.18c0.95,3.81,2.09,11.67,2.74,18.51"/>
				<path id="kvg:06b39-s6" d="M16.97,60.86c6.53-1.11,12.87-2.22,16.08-2.72c1.17-0.19,1.88,1.08,1.71,2.16c-0.7,4.45-1.45,8.17-2.48,14.33"/>
				<path id="kvg:06b39-s7" d="M18.8,77.09C24,76.5,27.25,76,34.45,75.67"/>
			</g>
			<g id="kvg:06b39-g7">
				<g id="kvg:06b39-g8">
					<path id="kvg:06b39-s8" d="M42.37,49.47c0.06,0.53,1.09,2.75,1.15,6.1c0.26,16.08-0.17,29.27-0.17,34.75c0,9.39-6.02,1.16-7-0.22"/>
				</g>
			</g>
		</g>
	</g>
	<g id="kvg:06b39-g9">
		<g id="kvg:06b39-g10">
			<path id="kvg:06b39-s9" d="M67.75,14.5c0.04,0.86,0.08,2.22-0.08,3.45C66.72,25.24,61.8,41.22,54.39,51"/>
			<path id="kvg:06b39-s10" d="M63.22,36.99c0.91,0.36,2.62,0.87,4.01,0.61C70.5,37,86.42,33.45,88,33.25c8-1,0.5,8.5-2.5,12.5"/>
		</g>
		<g id="kvg:06b39-g11">
			<path id="kvg:06b39-s11" d="M70.11,45.5c0.06,1.18,0.13,3.03-0.11,4.73C67.69,66.7,63.23,83.72,50.5,95.5"/>
			<path id="kvg:06b39-s12" d="M68.92,59c3.45,8.03,15.92,26.93,21.59,33.57c1.2,1.4,2.1,2.23,3.24,2.68"/>
		</g>
	</g>
</g>
</g>
<g id="kvg:StrokeNumbers_06b39">
	<text transform="matrix(1 0 0 1 5.50 24.50)">1</text>
	<text transform="matrix(1 0 0 1 23.50 12.50)">2</text>
	<text transform="matrix(1 0 0 1 43.50 32.98)">3</text>
	<text transform="matrix(1 0 0 1 1.50 50.50)">4</text>
	<text transform="matrix(1 0 0 1 8.50 65.50)">5</text>
	<text transform="matrix(1 0 0 1 19.50 58.50)">6</text>
	<text transform="matrix(1 0 0 1 21.50 74.50)">7</text>
	<text transform="matrix(1 0 0 1 36.50 56.50)">8</text>
	<text transform="matrix(1 0 0 1 59.25 13.53)">9</text>
	<text transform="matrix(1 0 0 1 68.50 33.50)">10</text>
	<text transform="matrix(1 0 0 1 59.50 51.50)">11</text>
	<text transform="matrix(1 0 0 1 73.50 64.50)">12</text>
</g>
</svg>
