<svg width="109" height="109" viewBox="0 0 109 109">
<g id="kvg:StrokePaths_06b47">
<g id="kvg:06b47">
	<g id="kvg:06b47-g1">
		<g id="kvg:06b47-g2">
			<path id="kvg:06b47-s1" d="M16.87,15.32c0.27,0.45,0.27,0.76,0.42,1.32c1.2,4.63,2.5,16.74,3.24,25.38"/>
			<path id="kvg:06b47-s2" d="M17.73,17.27c8.23-0.99,22.54-2.39,30.16-3.04c2.27-0.19,3.22,1.75,3.1,2.83c-0.42,3.96-2.64,16.95-3.67,23.57"/>
			<path id="kvg:06b47-s3" d="M19.45,28.24c4.72-0.35,27.52-2.37,29.91-2.47"/>
			<path id="kvg:06b47-s4" d="M20.59,39.3c8.4-0.45,18.65-1.38,27.08-1.58"/>
		</g>
		<g id="kvg:06b47-g3">
			<g id="kvg:06b47-g4">
				<g id="kvg:06b47-g5">
					<path id="kvg:06b47-s5" d="M25.89,42.48c0.05,0.57,0.23,1.5-0.1,2.27C23.35,50.56,17.8,59.07,8.5,66.5"/>
				</g>
				<path id="kvg:06b47-s6" d="M22.08,52.65c0.73,0.5,1.76,0.67,2.93,0.33c1.17-0.33,20.34-1.09,23.26-1.49c1.81-0.25,3.08,1.32,2.77,4.84c-1.07,12.16-2.11,24.89-6.79,36.26c-1.81,4.4-3.4,4.15-5.32-0.83"/>
			</g>
			<g id="kvg:06b47-g6">
				<path id="kvg:06b47-s7" d="M31.71,58.12c0.26,0.3-0.04,1.86-0.22,2.44C29.67,66.28,27.87,71.11,21.37,78"/>
				<path id="kvg:06b47-s8" d="M29.75,66.54c3.42,1.5,7.78,5.48,9.44,9.25"/>
			</g>
			<path id="kvg:06b47-s9" d="M16.31,63.51c0.65,0.46,1.04,2.07,1.17,2.99c0.12,0.83-0.96,6.72-0.96,14.87c0,1.88,0.56,2.76,2.31,2.36C24.25,82.5,29,82,37.03,81.87c1.59-0.03,2.85,0.38,3.63,0.38"/>
		</g>
	</g>
	<g id="kvg:06b47-g7">
		<g id="kvg:06b47-g8">
			<path id="kvg:06b47-s10" d="M69.75,14c0.04,0.78,0.08,2.01-0.08,3.12C68.72,23.71,63.3,38.16,55.89,47"/>
			<path id="kvg:06b47-s11" d="M67.72,32.93c0.79,0.25,2.29,0.66,3.49,0.43c1.45-0.27,18.33-3.49,19.71-3.63C97.87,29.02,91,37,88.31,39.5"/>
		</g>
		<g id="kvg:06b47-g9">
			<path id="kvg:06b47-s12" d="M71.11,41c0.05,1.26,0.05,3.22-0.11,5.04C69.5,63.25,66.5,82,51.75,94.25"/>
			<path id="kvg:06b47-s13" d="M70.67,57c3.59,8.14,16.56,27.3,22.46,34.03c1.25,1.42,2.19,2.26,3.37,2.72"/>
		</g>
	</g>
</g>
</g>
<g id="kvg:StrokeNumbers_06b47">
	<text transform="matrix(1 0 0 1 10.75 21.50)">1</text>
	<text transform="matrix(1 0 0 1 20.75 13.50)">2</text>
	<text transform="matrix(1 0 0 1 23.50 24.50)">3</text>
	<text transform="matrix(1 0 0 1 24.50 35.40)">4</text>
	<text transform="matrix(1 0 0 1 15.50 50.50)">5</text>
	<text transform="matrix(1 0 0 1 30.50 49.50)">6</text>
	<text transform="matrix(1 0 0 1 24.50 62.50)">7</text>
	<text transform="matrix(1 0 0 1 36.50 67.10)">8</text>
	<text transform="matrix(1 0 0 1 10.50 73.50)">9</text>
	<text transform="matrix(1 0 0 1 57.50 14.50)">10</text>
	<text transform="matrix(1 0 0 1 72.50 29.50)">11</text>
	<text transform="matrix(1 0 0 1 60.50 48.50)">12</text>
	<text transform="matrix(1 0 0 1 75.50 63.50)">13</text>
</g>
</svg>
