<svg width="109" height="109" viewBox="0 0 109 109">
<g id="kvg:StrokePaths_06b6a">
<g id="kvg:06b6a">
	<g id="kvg:06b6a-g1">
		<g id="kvg:06b6a-g2">
			<g id="kvg:06b6a-g3">
				<path id="kvg:06b6a-s1" d="M17.31,18.6c1.57,0.49,4.45,0.64,6.02,0.49c11.46-1.09,45.86-3.76,63.11-4.65c2.61-0.13,4.18,0.23,5.49,0.48"/>
			</g>
			<g id="kvg:06b6a-g4">
				<path id="kvg:06b6a-s2" d="M54.96,19.05c0.12,0.69-0.03,2.42-0.73,3.26C49.5,28,35,39,14.02,48.23"/>
			</g>
			<g id="kvg:06b6a-g5">
				<path id="kvg:06b6a-s3" d="M52.79,27.03c0.98,0.45,1.56,2.02,1.76,2.92c0.2,0.9,0,20-0.2,25.61"/>
			</g>
			<path id="kvg:06b6a-s4" d="M65.97,30.26c9.75,2.79,21.77,9.53,27.63,15.79"/>
		</g>
		<g id="kvg:06b6a-g6">
			<g id="kvg:06b6a-g7">
				<path id="kvg:06b6a-s5" d="M24.88,63.2c1.19,0.32,3.38,0.37,4.57,0.32c11.95-0.48,38.27-3.51,55.01-3.69c1.99-0.02,3.18,0.15,4.17,0.31"/>
			</g>
		</g>
	</g>
	<g id="kvg:06b6a-g8">
		<g id="kvg:06b6a-g9">
			<g id="kvg:06b6a-g10">
				<path id="kvg:06b6a-s6" d="M53.71,63.5c0.09,0.23,1.17,1.19,1.26,2.65c0.4,6.98-0.26,25.25-0.26,27.63"/>
				<path id="kvg:06b6a-s7" d="M56.38,75.86c0.43,0.14,1.24,0.21,1.67,0.14c1.76-0.27,13.46-2,20.56-2.59c0.72-0.06,1.16,0.07,1.52,0.13"/>
			</g>
			<path id="kvg:06b6a-s8" d="M32.95,73.02c0.1,0.17,1.4,0.86,1.5,1.92c0.48,5.06-0.31,18.31-0.31,20.03"/>
			<path id="kvg:06b6a-s9" d="M14.25,95.26c1.59,0.28,5.01,0.7,6.52,0.63c6.18-0.28,40.14-2.87,69.4-2.91c2.55,0,4.76,0.42,6.08,0.85"/>
		</g>
	</g>
</g>
</g>
<g id="kvg:StrokeNumbers_06b6a">
	<text transform="matrix(1 0 0 1 10.50 19.50)">1</text>
	<text transform="matrix(1 0 0 1 39.50 26.55)">2</text>
	<text transform="matrix(1 0 0 1 46.50 40.48)">3</text>
	<text transform="matrix(1 0 0 1 67.50 27.50)">4</text>
	<text transform="matrix(1 0 0 1 17.50 64.50)">5</text>
	<text transform="matrix(1 0 0 1 47.25 71.50)">6</text>
	<text transform="matrix(1 0 0 1 59.50 72.50)">7</text>
	<text transform="matrix(1 0 0 1 23.50 74.50)">8</text>
	<text transform="matrix(1 0 0 1 6.25 94.50)">9</text>
</g>
</svg>
