<svg width="109" height="109" viewBox="0 0 109 109">
<g id="kvg:StrokePaths_06b63">
<g id="kvg:06b63">
	<g id="kvg:06b63-g1">
		<path id="kvg:06b63-s1" d="M26.75,23.79c3.12,0.63,6.35,0.5,9.5,0.22c11.81-1.03,25.77-2.56,39.75-3.29c2.84-0.15,5.56-0.03,8.38,0.31"/>
	</g>
	<g id="kvg:06b63-g2">
		<g id="kvg:06b63-g3">
			<path id="kvg:06b63-s2" d="M52.96,25.62c1.4,1.4,2.01,2.88,2.01,5.54c0,11.55-0.01,56.3-0.01,57.34"/>
			<path id="kvg:06b63-s3" d="M56.36,53.48c7.14-0.48,15.52-1.36,21.92-1.84c1.59-0.12,2.47-0.02,3.6,0.16"/>
		</g>
		<path id="kvg:06b63-s4" d="M27.54,56.37c1.17,1.17,2.05,2.62,2.15,5.21c0.43,10.8,0.43,20.3,0.62,27.92"/>
		<path id="kvg:06b63-s5" d="M14.25,90.04C18,91,21.38,91.23,25,91c14-0.88,39.23-2.07,58.63-2.39c3.36-0.06,6.77,0.32,10,1.37"/>
	</g>
</g>
</g>
<g id="kvg:StrokeNumbers_06b63">
	<text transform="matrix(1 0 0 1 19.50 24.50)">1</text>
	<text transform="matrix(1 0 0 1 47.50 36.13)">2</text>
	<text transform="matrix(1 0 0 1 59.50 50.50)">3</text>
	<text transform="matrix(1 0 0 1 17.50 56.50)">4</text>
	<text transform="matrix(1 0 0 1 7.50 89.50)">5</text>
</g>
</svg>
