<svg width="109" height="109" viewBox="0 0 109 109">
<g id="kvg:StrokePaths_06b79">
<g id="kvg:06b79">
	<g id="kvg:06b79-g1">
		<path id="kvg:06b79-s1" d="M13.75,23.2c1.52,0.54,4.31,0.72,5.82,0.54c12.68-1.49,55.93-4.99,70.11-5.23c2.53-0.04,4.05,0.26,5.31,0.53"/>
	</g>
	<g id="kvg:06b79-g2">
		<path id="kvg:06b79-s2" d="M50.4,23.64c0.3,0.7,0.6,2.85,0.08,4.19C47,37,37.23,53.89,22.06,64.97"/>
		<path id="kvg:06b79-s3" d="M49.6,39.02c0.41,0.05,2.62,0,3.78-0.15c3.79-0.47,14.37-1.87,20.85-2.69c3.82-0.48,4.46,2.35,3.52,5.06C72.55,56.13,46.66,91.33,23.5,99"/>
		<path id="kvg:06b79-s4" d="M39.52,55.33c5.31,2.58,13.72,10.62,15.04,14.63"/>
	</g>
</g>
</g>
<g id="kvg:StrokeNumbers_06b79">
	<text transform="matrix(1 0 0 1 6.50 22.50)">1</text>
	<text transform="matrix(1 0 0 1 41.50 30.50)">2</text>
	<text transform="matrix(1 0 0 1 55.50 34.63)">3</text>
	<text transform="matrix(1 0 0 1 43.50 55.63)">4</text>
</g>
</svg>
