<svg width="109" height="109" viewBox="0 0 109 109">
<g id="kvg:StrokePaths_06bb1">
<g id="kvg:06bb1">
	<g id="kvg:06bb1-g1">
		<g id="kvg:06bb1-g2">
			<path id="kvg:06bb1-s1" d="M11.75,17.97c1.25,0.28,2.79,0.56,3.8,0.52C21,18.25,32,16.75,38.28,16.01c1.64-0.19,2.64,0.25,3.47,0.5"/>
		</g>
		<g id="kvg:06bb1-g3">
			<path id="kvg:06bb1-s2" d="M22.34,21.39c0.13,0.67,0.53,2.72,0.25,4.01c-1.85,8.69-5.61,21.41-12.17,32.01"/>
			<path id="kvg:06bb1-s3" d="M21.64,35.5c0.86,0.75,2.39,0.5,3.14,0.36c2.47-0.45,4.98-1.11,8.93-2.55c2.38-0.87,3.41,1.23,2.79,3.81C33.11,51.26,25.75,77.5,11.61,91"/>
			<path id="kvg:06bb1-s4" d="M17.46,51.23c2.85,1.92,7.35,7.91,8.06,10.91"/>
		</g>
	</g>
	<g id="kvg:06bb1-g4">
		<g id="kvg:06bb1-g5">
			<path id="kvg:06bb1-s5" d="M41.11,26.28c0.95,0.21,2.7,0.76,3.65,0.71c6.66-0.31,14.89-1.33,21.14-1.8c1.58-0.12,2.54,0.1,3.33,0.21"/>
			<path id="kvg:06bb1-s6" d="M53.32,13.12c0.09,0.29,1.31,1.52,1.31,3.39c0,5,0.1,19.25,0.1,24.36"/>
			<g id="kvg:06bb1-g6">
				<g id="kvg:06bb1-g7">
					<path id="kvg:06bb1-s7" d="M38.38,41.49c1.17,0.3,3.31,0.39,4.47,0.3c9.9-0.71,36.17-3.11,49.09-3.51c1.94-0.06,3.11,0.15,4.08,0.3"/>
				</g>
			</g>
		</g>
		<g id="kvg:06bb1-g8">
			<g id="kvg:06bb1-g9">
				<g id="kvg:06bb1-g10">
					<path id="kvg:06bb1-s8" d="M48.34,47.91c0.49,0.29,0.79,1.3,0.89,1.88c0.1,0.58,0,33.82-0.1,37.43"/>
					<path id="kvg:06bb1-s9" d="M57.89,45.75c0.49,0.29,0.79,1.3,0.89,1.88c0.1,0.58,0,32.9-0.1,36.51"/>
					<path id="kvg:06bb1-s10" d="M35.35,55.99c0.43,0.22,1.21,0.22,1.63,0.22c3.47-0.01,11.75-1.67,12.21-1.67"/>
					<path id="kvg:06bb1-s11" d="M34.46,65.48c0.43,0.22,1.21,0.22,1.63,0.22c3.47-0.01,12.03-2.46,12.48-2.46"/>
				</g>
				<g id="kvg:06bb1-g11">
					<path id="kvg:06bb1-s12" d="M34.28,75.96c0.43,0.22,1.21,0.22,1.63,0.22c3.47-0.01,12.21-3.04,12.66-3.04"/>
					<path id="kvg:06bb1-s13" d="M58.97,52.9c0.57,0,8.26-1.09,10.85-1.45c0.71-0.1,1.14,0.11,1.49,0.21"/>
					<path id="kvg:06bb1-s14" d="M59.86,63.52c0.57,0,7.98-1.59,10.58-1.95c0.71-0.1,1.14,0.1,1.49,0.21"/>
					<path id="kvg:06bb1-s15" d="M58.97,72.5c0.57,0,9.94-1.09,12.53-1.45c0.71-0.1,1.14,0.11,1.49,0.21"/>
				</g>
			</g>
			<g id="kvg:06bb1-g12">
				<path id="kvg:06bb1-s16" d="M33.83,91.29c0.94,0.9,3.22,0.55,3.94,0.29c10.2-3.77,20.59-7.27,30.19-10.75"/>
			</g>
		</g>
		<g id="kvg:06bb1-g13">
			<g id="kvg:06bb1-g14">
				<path id="kvg:06bb1-s17" d="M73.55,11c1.07,1.73,1.97,2.21,2.07,5.95c0.87,30.3,4.12,59.55,16.62,75.83c3.47,4.52,5.1,0.74,4.57-6.94"/>
			</g>
			<g id="kvg:06bb1-g15">
				<path id="kvg:06bb1-s18" d="M92.76,47.39c0.09,1.15,0.42,3.02-0.19,4.61C87.75,64.75,78,83.75,59.35,96.72"/>
			</g>
			<g id="kvg:06bb1-g16">
				<g id="kvg:06bb1-g17">
					<path id="kvg:06bb1-s19" d="M83.4,19c2.77,2.3,7.19,7.56,8.48,11.5"/>
				</g>
			</g>
		</g>
	</g>
</g>
</g>
<g id="kvg:StrokeNumbers_06bb1">
	<text transform="matrix(1 0 0 1 5.50 18.50)">1</text>
	<text transform="matrix(1 0 0 1 14.50 28.85)">2</text>
	<text transform="matrix(1 0 0 1 26.50 31.50)">3</text>
	<text transform="matrix(1 0 0 1 19.50 49.50)">4</text>
	<text transform="matrix(1 0 0 1 42.50 23.50)">5</text>
	<text transform="matrix(1 0 0 1 43.50 12.50)">6</text>
	<text transform="matrix(1 0 0 1 41.50 38.50)">7</text>
	<text transform="matrix(1 0 0 1 42.50 49.77)">8</text>
	<text transform="matrix(1 0 0 1 52.50 48.50)">9</text>
	<text transform="matrix(1 0 0 1 35.50 53.50)">10</text>
	<text transform="matrix(1 0 0 1 33.50 62.50)">11</text>
	<text transform="matrix(1 0 0 1 29.50 73.50)">12</text>
	<text transform="matrix(1 0 0 1 62.00 49.50)">13</text>
	<text transform="matrix(1 0 0 1 62.50 60.50)">14</text>
	<text transform="matrix(1 0 0 1 62.50 69.75)">15</text>
	<text transform="matrix(1 0 0 1 21.50 92.50)">16</text>
	<text transform="matrix(1 0 0 1 63.50 10.50)">17</text>
	<text transform="matrix(1 0 0 1 81.50 48.35)">18</text>
	<text transform="matrix(1 0 0 1 80.50 16.50)">19</text>
</g>
</svg>
