<svg width="109" height="109" viewBox="0 0 109 109">
<g id="kvg:StrokePaths_06bcb">
<g id="kvg:06bcb">
	<path id="kvg:06bcb-s1" d="M35.3,18.98c1.1,1.06,1.65,4.6,1.36,7.38c-1.41,13.14-6.41,37.89-9.21,48.52c-1.03,3.89,0.48,4.92,2.57,4.92c14.23-0.04,36.73,2.71,52.48,9.48"/>
	<path id="kvg:06bcb-s2" d="M38.15,21.27c9.6-1.02,31.36-4.63,36.44-5.02c3.91-0.29,6.42,2.07,6.1,5.7C79,41.5,74,74.75,66.25,93c-3.34,7.86-9.5,1.75-11,0"/>
	<path id="kvg:06bcb-s3" d="M55.46,22.82c0.51,1.17,1.41,3.79,1.28,5.27C55.75,39.25,53,62,48.07,80.71"/>
	<path id="kvg:06bcb-s4" d="M15.13,50.83c1.13,0.65,3.2,0.72,4.34,0.65c11.77-0.75,49.04-2.96,70.71-3.13c1.89-0.01,3.02,0.31,3.96,0.64"/>
</g>
</g>
<g id="kvg:StrokeNumbers_06bcb">
	<text transform="matrix(1 0 0 1 29.50 28.63)">1</text>
	<text transform="matrix(1 0 0 1 39.50 17.50)">2</text>
	<text transform="matrix(1 0 0 1 48.50 30.50)">3</text>
	<text transform="matrix(1 0 0 1 7.75 51.50)">4</text>
</g>
</svg>
