<svg width="109" height="109" viewBox="0 0 109 109">
<g id="kvg:StrokePaths_06c0f">
<g id="kvg:06c0f">
	<path id="kvg:06c0f-s1" d="M66.12,12.62c0,0.88-0.35,1.83-0.96,2.31C58,20.62,46.88,26.25,27,32.75"/>
	<path id="kvg:06c0f-s2" d="M23.5,30c1.19,1.19,1.5,3,1.5,5.25c0,6-0.75,40.88-0.75,48.5c0,3.5,0.25,4.5,3.5,2S39.5,77,41.5,75.5"/>
	<path id="kvg:06c0f-s3" d="M27.88,51.13c2.5,0.62,5.64,0.41,8.01-0.01c10.74-1.87,26.47-4.84,37.72-5.69c2.53-0.19,5.19-0.44,7.67,0.22"/>
	<path id="kvg:06c0f-s4" d="M46.5,28.5c1,1.12,2,2.87,2.47,4.47C54.26,50.81,67.02,81.53,86.75,93c8.75,5.09,6.5-4,6.5-7"/>
</g>
</g>
<g id="kvg:StrokeNumbers_06c0f">
	<text transform="matrix(1 0 0 1 57.50 11.50)">1</text>
	<text transform="matrix(1 0 0 1 16.50 41.50)">2</text>
	<text transform="matrix(1 0 0 1 30.50 48.50)">3</text>
	<text transform="matrix(1 0 0 1 53.50 34.63)">4</text>
</g>
</svg>
