<svg width="109" height="109" viewBox="0 0 109 109">
<g id="kvg:StrokePaths_06c11">
<g id="kvg:06c11">
	<path id="kvg:06c11-s1" d="M21.89,17.96c1.98,0.92,4.61,1.29,7.49,0.96c12.78-1.48,33.28-3.93,41.51-4.66c4.36-0.39,6.23,1.61,5.37,4.65c-1.32,4.67-2.62,8.33-4.01,11.59"/>
	<g id="kvg:06c11-g1">
		<path id="kvg:06c11-s2" d="M25.35,36.27c9.44-0.95,33.85-3.79,45.27-4.92c1.98-0.2,4.5-0.61,6.13-0.35"/>
		<path id="kvg:06c11-s3" d="M23,18.75c0.69,0.69,1.25,2.12,1.25,3.25c0,2.25-0.25,62.75-0.25,66.25s0.25,4.5,3.5,2S38.75,80,40.75,78.5"/>
		<g id="kvg:06c11-g2">
			<path id="kvg:06c11-s4" d="M27.73,55.8c1.65-0.21,3.64-0.46,5.88-0.75c13.44-1.7,33.41-4.24,46.41-6.28c1.85-0.29,3.99-0.53,5.77-0.12"/>
		</g>
		<path id="kvg:06c11-s5" d="M52.75,36.25c1.12,1.12,2.13,3.39,2.39,5.15c3.48,23.48,14.11,41.98,32.94,52.02c8.09,4.32,6.17-1.92,5.95-6.36"/>
	</g>
</g>
</g>
<g id="kvg:StrokeNumbers_06c11">
	<text transform="matrix(1 0 0 1 26.25 16.50)">1</text>
	<text transform="matrix(1 0 0 1 29.62 32.22)">2</text>
	<text transform="matrix(1 0 0 1 16.50 25.50)">3</text>
	<text transform="matrix(1 0 0 1 29.50 51.50)">4</text>
	<text transform="matrix(1 0 0 1 46.50 43.63)">5</text>
</g>
</svg>
