<svg width="109" height="109" viewBox="0 0 109 109">
<g id="kvg:StrokePaths_06c14">
<g id="kvg:06c14">
	<path id="kvg:06c14-s1" d="M39.17,8.69c0.33,1.81,0.15,4.16-0.65,5.42C36.3,17.6,26,34,18.25,41"/>
	<path id="kvg:06c14-s2" d="M38.5,23.25c0.97-0.09,3.07-0.2,4.28-0.34c8.54-0.97,22.45-3.04,32.73-3.74c1.04-0.07,3.04-0.13,3.99-0.17"/>
	<path id="kvg:06c14-s3" d="M38,36.5c0.93,0.03,2.04,0.02,3.28-0.1c7.22-0.65,20.19-2.8,27.47-3.62c1.34-0.15,3.53-0.25,4.5-0.29"/>
	<path id="kvg:06c14-s4" d="M27.5,51.73c1.15,0.45,3.4,0.71,5,0.52c12.93-1.58,31.49-3.9,42.35-5.26c2.98-0.37,3.18,1.05,2.7,2.81C72.25,69,80,86,91.21,95.16c7.7,6.29,7.29,1.59,6.04-7.25"/>
</g>
</g>
<g id="kvg:StrokeNumbers_06c14">
	<text transform="matrix(1 0 0 1 30.50 9.50)">1</text>
	<text transform="matrix(1 0 0 1 44.50 19.13)">2</text>
	<text transform="matrix(1 0 0 1 38.25 33.13)">3</text>
	<text transform="matrix(1 0 0 1 27.75 49.40)">4</text>
</g>
</svg>
