<svg width="109" height="109" viewBox="0 0 109 109">
<g id="kvg:StrokePaths_06c23">
<g id="kvg:06c23">
	<g id="kvg:06c23-g1">
		<path id="kvg:06c23-s1" d="M35.69,10.69c0.29,1.72-0.01,2.37-0.55,3.63c-1.89,4.43-10.74,20.31-17.39,26.93"/>
		<path id="kvg:06c23-s2" d="M36,20.25c1.75,0.25,3.22,0.42,4.49,0.36c8.96-0.4,23.54-2.25,34.32-2.54C75.9,18.04,78,18.02,79,18"/>
		<path id="kvg:06c23-s3" d="M34.5,31.51c1,0.02,2.19,0.01,3.51-0.06c7.73-0.41,21.62-2.25,29.42-2.77c1.44-0.09,3.78-0.16,4.82-0.18"/>
		<path id="kvg:06c23-s4" d="M24,42.73c1.15,0.45,3.39,0.61,5,0.52c13.25-0.75,36.49-2.9,47.35-4.26c2.98-0.37,3.18,1.05,2.7,2.81C73.75,61,79,84.5,90.21,93.66c7.7,6.29,7.29,1.59,6.04-7.25"/>
	</g>
	<g id="kvg:06c23-g2">
		<path id="kvg:06c23-s5" d="M27.49,51.78c2.84,1.77,7.12,6.77,7.83,9.52"/>
		<path id="kvg:06c23-s6" d="M62.72,49.25c0.02,0.32,0.04,0.81-0.04,1.27c-0.46,2.67-3.09,8.52-6.69,12.11"/>
		<path id="kvg:06c23-s7" d="M22.37,66.77c0.56,0.15,2.04,0.4,3.52,0.45c4.08,0.15,36.92-3.91,43.41-3.61c1.48,0.07,1.85-0.15,2.78,0"/>
		<path id="kvg:06c23-s8" d="M45.39,49.25c0.89,0.3,1.42,1.35,1.59,1.96c0.18,0.6,0,42.78-0.18,46.54"/>
		<path id="kvg:06c23-s9" d="M44.39,66.06c-4.16,9.08-14.28,21.83-23.64,27.07"/>
		<path id="kvg:06c23-s10" d="M49.51,72.96c7.02,2.64,15.28,10.27,19,16.91"/>
	</g>
</g>
</g>
<g id="kvg:StrokeNumbers_06c23">
	<text transform="matrix(1 0 0 1 27.50 11.50)">1</text>
	<text transform="matrix(1 0 0 1 40.50 17.50)">2</text>
	<text transform="matrix(1 0 0 1 35.50 28.50)">3</text>
	<text transform="matrix(1 0 0 1 26.50 40.50)">4</text>
	<text transform="matrix(1 0 0 1 21.50 54.83)">5</text>
	<text transform="matrix(1 0 0 1 54.50 50.76)">6</text>
	<text transform="matrix(1 0 0 1 16.50 67.50)">7</text>
	<text transform="matrix(1 0 0 1 37.50 52.60)">8</text>
	<text transform="matrix(1 0 0 1 31.50 76.53)">9</text>
	<text transform="matrix(1 0 0 1 55.50 74.50)">10</text>
</g>
</svg>
