<svg width="109" height="109" viewBox="0 0 109 109">
<g id="kvg:StrokePaths_06c3a">
<g id="kvg:06c3a">
	<path id="kvg:06c3a-s1" d="M52.02,6.08c1.33,1.33,1.51,2.67,1.51,4.77c0,18.15-0.01,78.66-0.01,83.62c0,10.53-7.21,1.5-8.71,0.25"/>
	<path id="kvg:06c3a-s2" d="M17.25,26.38c5.65,2.58,14.59,10.61,16,14.62"/>
	<path id="kvg:06c3a-s3" d="M10.5,75.35c1.75,1.15,3.5,0.85,5.41-0.6c1.13-0.85,13.44-11.42,18.21-15.51"/>
	<path id="kvg:06c3a-s4" d="M87.75,23c-0.37,1.38-0.76,2.34-1.64,3.32c-3.86,4.3-10.44,9.61-20.8,15.9"/>
	<path id="kvg:06c3a-s5" d="M66.38,56.75C77.5,62,92.12,73.38,95.88,80.38"/>
</g>
</g>
<g id="kvg:StrokeNumbers_06c3a">
	<text transform="matrix(1 0 0 1 41.25 8.50)">1</text>
	<text transform="matrix(1 0 0 1 9.38 23.43)">2</text>
	<text transform="matrix(1 0 0 1 2.50 72.48)">3</text>
	<text transform="matrix(1 0 0 1 79 25)">4</text>
	<text transform="matrix(1 0 0 1 64.50 53.33)">5</text>
</g>
</svg>
