<svg width="109" height="109" viewBox="0 0 109 109">
<g id="kvg:StrokePaths_06c37">
<g id="kvg:06c37">
	<g id="kvg:06c37-g1">
		<path id="kvg:06c37-s1" d="M52.02,14.83c1.33,1.33,2.01,3.04,2.01,5.27c0,14.56-0.23,63.41-0.26,68.37c-0.03,7.77-5.89,1.66-8.02-0.47"/>
	</g>
	<g id="kvg:06c37-g2">
		<path id="kvg:06c37-s2" d="M24.14,25.46c4.21,1.54,10.87,6.35,11.92,8.76"/>
	</g>
	<g id="kvg:06c37-g3">
		<path id="kvg:06c37-s3" d="M16.5,52.5c1.75,0.62,3.2,0.8,4.75,0.5c3.25-0.62,11.84-4.25,14.34-5.25s4.55,0.77,3.75,3C36.75,58,29.12,71.38,19.25,80"/>
		<path id="kvg:06c37-s4" d="M81,24.88c0.16,1.1-0.23,2.47-0.97,3.25C74,34.5,66.62,40,56.75,45.5"/>
		<path id="kvg:06c37-s5" d="M56.75,46C65.5,55.78,77,69.33,85.83,76.93c2.35,2.02,4.54,3.94,7.42,5.07"/>
	</g>
</g>
</g>
<g id="kvg:StrokeNumbers_06c37">
	<text transform="matrix(1 0 0 1 43.50 14.50)">1</text>
	<text transform="matrix(1 0 0 1 15.75 27.44)">2</text>
	<text transform="matrix(1 0 0 1 8.50 53.50)">3</text>
	<text transform="matrix(1 0 0 1 71.50 22.63)">4</text>
	<text transform="matrix(1 0 0 1 66.75 52.50)">5</text>
</g>
</svg>
