<svg width="109" height="109" viewBox="0 0 109 109">
<g id="kvg:StrokePaths_06c4e">
<g id="kvg:06c4e">
	<g id="kvg:06c4e-g1">
		<path id="kvg:06c4e-s1" d="M20.13,18.25c4.45,1.47,11.5,6.05,12.62,8.34"/>
		<path id="kvg:06c4e-s2" d="M16,41.75c4.06,1.37,10.48,5.62,11.5,7.75"/>
		<path id="kvg:06c4e-s3" d="M16.75,88.68c2.25,0.82,4.21-0.1,5.27-1.76c3.09-4.84,5.67-9.25,8.48-15.42"/>
	</g>
	<g id="kvg:06c4e-g2">
		<g id="kvg:06c4e-g3">
			<g id="kvg:06c4e-g4">
				<path id="kvg:06c4e-s4" d="M51.87,19.89c0.54,2.02,1.3,3.61,1.3,6.13c0,23.06,0.73,54.26-16.42,69.23"/>
			</g>
			<path id="kvg:06c4e-s5" d="M52.96,22.32c2.86-0.72,17.56-3.61,19.85-4.33c2.29-0.72,4.77,0.72,4.2,4.35c-0.57,3.62-0.85,52.84-0.91,55.49c-0.19,8.69-1.18,14.55,10.23,14.73s10.45-2.9,10.45-10.39"/>
		</g>
		<g id="kvg:06c4e-g5">
			<path id="kvg:06c4e-s6" d="M59.45,45.26c5.06,4.09,7.95,8.44,9.52,12.28"/>
		</g>
	</g>
</g>
</g>
<g id="kvg:StrokeNumbers_06c4e">
	<text transform="matrix(1 0 0 1 13.50 18.50)">1</text>
	<text transform="matrix(1 0 0 1 8.50 42.50)">2</text>
	<text transform="matrix(1 0 0 1 8.50 90.50)">3</text>
	<text transform="matrix(1 0 0 1 45.25 28.40)">4</text>
	<text transform="matrix(1 0 0 1 55.50 18.50)">5</text>
	<text transform="matrix(1 0 0 1 57.50 42.50)">6</text>
</g>
</svg>
