<svg width="109" height="109" viewBox="0 0 109 109">
<g id="kvg:StrokePaths_06c50">
<g id="kvg:06c50">
	<g id="kvg:06c50-g1">
		<path id="kvg:06c50-s1" d="M21.38,16.5c4.45,1.69,11.5,6.96,12.62,9.59"/>
		<path id="kvg:06c50-s2" d="M14.88,40.25c4.37,1.37,11.28,5.62,12.38,7.75"/>
		<path id="kvg:06c50-s3" d="M15.62,86.61c2.12,0.77,3.37-0.17,4.48-1.75c3.23-4.6,6.46-10.23,9.39-16.1"/>
	</g>
	<g id="kvg:06c50-g2">
		<path id="kvg:06c50-s4" d="M65.24,18.39c0.26,0.71,0.01,2.13-0.49,3.49C61.5,30.75,53,46.25,39.31,59.47"/>
		<path id="kvg:06c50-s5" d="M65.75,28.5c1.62,0.75,3,0.75,4.78,0.58c4.39-0.43,10.84-1.33,19.31-3.58c4.3-1.14,5.75,1.43,4.41,4.53c-8.5,19.6-27.13,49.6-61.25,64.22"/>
		<path id="kvg:06c50-s6" d="M53.52,48.33c6.23,3.29,13.23,9.42,16.29,14.63"/>
	</g>
</g>
</g>
<g id="kvg:StrokeNumbers_06c50">
	<text transform="matrix(1 0 0 1 14.25 17.25)">1</text>
	<text transform="matrix(1 0 0 1 7.25 41.25)">2</text>
	<text transform="matrix(1 0 0 1 8.25 91.25)">3</text>
	<text transform="matrix(1 0 0 1 55.25 18.25)">4</text>
	<text transform="matrix(1 0 0 1 71.25 26.25)">5</text>
	<text transform="matrix(1 0 0 1 58.25 49.25)">6</text>
</g>
</svg>
