<svg width="109" height="109" viewBox="0 0 109 109">
<g id="kvg:StrokePaths_06c57">
<g id="kvg:06c57">
	<g id="kvg:06c57-g1">
		<path id="kvg:06c57-s1" d="M22,14c5.03,1.65,11.5,5.5,14.25,9.34"/>
		<path id="kvg:06c57-s2" d="M14.88,38.12c4.54,1.61,11.74,6.62,12.88,9.12"/>
		<path id="kvg:06c57-s3" d="M16.91,88.2c1.18,0.49,2.38,0.22,3.09-0.99c2.75-4.7,7.5-13.95,10-19.95"/>
	</g>
	<g id="kvg:06c57-g2">
		<path id="kvg:06c57-s4" d="M45.17,20.87c2.58,0.76,5.48,0.28,7.58,0.01c7.04-0.91,20.1-2.54,28.51-3.41c2.37-0.24,5.49-0.22,7.11,0.11"/>
		<g id="kvg:06c57-g3">
			<path id="kvg:06c57-s5" d="M38.38,46.53c2.66,0.94,6.27,0.57,9,0.29c11.84-1.24,30-3.25,42.74-3.86c2.62-0.13,5.17-0.23,7.76,0.32"/>
			<path id="kvg:06c57-s6" d="M65.56,22.88c1.03,1.03,1.79,2.62,1.79,4.58c0,3.47-0.06,43.64-0.08,60.91c0,3.88-0.01,6.61-0.01,7.5"/>
		</g>
	</g>
</g>
</g>
<g id="kvg:StrokeNumbers_06c57">
	<text transform="matrix(1 0 0 1 15.75 14.50)">1</text>
	<text transform="matrix(1 0 0 1 7.50 38.50)">2</text>
	<text transform="matrix(1 0 0 1 8.50 90.50)">3</text>
	<text transform="matrix(1 0 0 1 43.50 17.50)">4</text>
	<text transform="matrix(1 0 0 1 36.50 43.55)">5</text>
	<text transform="matrix(1 0 0 1 58.50 30.50)">6</text>
</g>
</svg>
