<svg width="109" height="109" viewBox="0 0 109 109">
<g id="kvg:StrokePaths_06c55">
<g id="kvg:06c55">
	<g id="kvg:06c55-g1">
		<path id="kvg:06c55-s1" d="M19.13,17.5c4.63,1.69,11.96,6.96,13.12,9.59"/>
		<path id="kvg:06c55-s2" d="M15,44.25c4.24,1.63,10.94,6.71,12,9.25"/>
		<path id="kvg:06c55-s3" d="M14.75,90.23c1.71,1.27,3.78,1.32,4.86-0.25C22.75,85.42,30.39,72.83,33.25,67"/>
	</g>
	<g id="kvg:06c55-g2">
		<path id="kvg:06c55-s4" d="M64.74,15.5c0.76,0.47,2.36,3.55,2.51,4.49S67.15,83.76,67,89.68"/>
		<path id="kvg:06c55-s5" d="M43.99,49.71c0.76,0.47,1.63,2.48,1.51,3.44C45,57.38,44.5,78,44,90.53c-0.09,2.17,0.65,3.5,2.5,2.97c6-1.74,36-4.64,45.5-4.9"/>
		<path id="kvg:06c55-s6" d="M91.24,48.13c0.76,0.48,1.51,3.53,1.51,4.49c0,7.38-0.25,25.12-0.25,39.84"/>
	</g>
</g>
</g>
<g id="kvg:StrokeNumbers_06c55">
	<text transform="matrix(1 0 0 1 12.50 17.50)">1</text>
	<text transform="matrix(1 0 0 1 7.25 44.50)">2</text>
	<text transform="matrix(1 0 0 1 6.50 92.50)">3</text>
	<text transform="matrix(1 0 0 1 58.50 12.40)">4</text>
	<text transform="matrix(1 0 0 1 39.50 45.50)">5</text>
	<text transform="matrix(1 0 0 1 81.50 46.25)">6</text>
</g>
</svg>
