<svg width="109" height="109" viewBox="0 0 109 109">
<g id="kvg:StrokePaths_06c68">
<g id="kvg:06c68">
	<g id="kvg:06c68-g1">
		<path id="kvg:06c68-s1" d="M22.63,16.25c4.45,1.91,11.5,7.87,12.62,10.84"/>
		<path id="kvg:06c68-s2" d="M16,43.25c4.24,1.72,10.94,7.07,12,9.75"/>
		<path id="kvg:06c68-s3" d="M16.75,89.79c1.84,1.2,4.05,1.25,5.2-0.23c3.37-4.3,9.73-14.57,12.8-20.06"/>
	</g>
	<g id="kvg:06c68-g2">
		<path id="kvg:06c68-s4" d="M50.77,18.73c0.46,1.74,0.91,2.64,0.91,4.89c0,2.24-0.15,66.86,0,69.13"/>
		<path id="kvg:06c68-s5" d="M51.44,21.23c2.58,0.06,29.62-2.99,31.97-3.01c1.96-0.02,3.21,2.03,3.06,3.67c-0.31,3.32-0.6,68.39-0.6,70.07"/>
		<path id="kvg:06c68-s6" d="M51.89,54.15C57.5,54,79.25,52.5,85.81,52.39"/>
		<path id="kvg:06c68-s7" d="M51.73,88.58c7.1-0.26,25.22-1.83,34.06-1.68"/>
	</g>
</g>
</g>
<g id="kvg:StrokeNumbers_06c68">
	<text transform="matrix(1 0 0 1 15.50 16.50)">1</text>
	<text transform="matrix(1 0 0 1 7.25 42.55)">2</text>
	<text transform="matrix(1 0 0 1 8.50 91.50)">3</text>
	<text transform="matrix(1 0 0 1 44.50 27.50)">4</text>
	<text transform="matrix(1 0 0 1 53.50 17.50)">5</text>
	<text transform="matrix(1 0 0 1 56.50 50.50)">6</text>
	<text transform="matrix(1 0 0 1 56.50 85.50)">7</text>
</g>
</svg>
