<svg width="109" height="109" viewBox="0 0 109 109">
<g id="kvg:StrokePaths_06c73">
<g id="kvg:06c73">
	<g id="kvg:06c73-g1">
		<path id="kvg:06c73-s1" d="M19.38,16.75c4.9,1.65,12.64,6.78,13.87,9.34"/>
		<path id="kvg:06c73-s2" d="M14.75,44.25c4.68,1.63,12.08,6.71,13.25,9.25"/>
		<path id="kvg:06c73-s3" d="M15.25,89.75c1.78,1.25,3.91,1.3,5.03-0.24C23.54,85,31.79,71,34.75,65.25"/>
	</g>
	<g id="kvg:06c73-g2">
		<g id="kvg:06c73-g3">
			<path id="kvg:06c73-s4" d="M45.54,21.42c1.27,0.39,3.61,0.53,4.86,0.39c11.94-1.36,25.61-3.06,36.14-3.78c2.1-0.14,3.38,0.19,4.43,0.38"/>
			<path id="kvg:06c73-s5" d="M48.75,21.92c0.45,1.81,0.48,4.31,0.42,6.71C48.54,52.79,50.5,74,36.72,93.53"/>
		</g>
		<g id="kvg:06c73-g4">
			<path id="kvg:06c73-s6" d="M50.3,42.76c1.7,0.24,3.5,0.21,6.27-0.12C62,42,77,40.5,81.77,40.01c1.96-0.2,4.24,1.61,3.56,3.72c-8.03,24.92-18.69,44.94-37.6,53.79"/>
			<path id="kvg:06c73-s7" d="M54.19,45.03c3.06,7.22,16.56,31.22,34.91,47.31c2.24,1.96,3.57,3.57,5.49,4.28"/>
		</g>
	</g>
</g>
</g>
<g id="kvg:StrokeNumbers_06c73">
	<text transform="matrix(1 0 0 1 12.50 16.50)">1</text>
	<text transform="matrix(1 0 0 1 7.50 44.55)">2</text>
	<text transform="matrix(1 0 0 1 6.50 93.50)">3</text>
	<text transform="matrix(1 0 0 1 46.50 18.50)">4</text>
	<text transform="matrix(1 0 0 1 41.50 30.50)">5</text>
	<text transform="matrix(1 0 0 1 54.50 39.50)">6</text>
	<text transform="matrix(1 0 0 1 60.50 52.50)">7</text>
</g>
</svg>
