<svg width="109" height="109" viewBox="0 0 109 109">
<g id="kvg:StrokePaths_06c82">
<g id="kvg:06c82">
	<g id="kvg:06c82-g1">
		<path id="kvg:06c82-s1" d="M21.63,18c4.28,1.43,11.05,5.87,12.12,8.09"/>
		<path id="kvg:06c82-s2" d="M16.75,42.75C21.07,44.29,27.92,49.1,29,51.5"/>
		<path id="kvg:06c82-s3" d="M16.25,89.73c1.71,1.27,3.78,1.32,4.86-0.25c3.14-4.57,9.79-17.16,12.64-22.99"/>
	</g>
	<g id="kvg:06c82-g2">
		<path id="kvg:06c82-s4" d="M81.02,12.75c-0.02,1-0.16,1.57-0.66,1.97c-6.89,5.36-15.19,8.92-29.72,13.53"/>
		<path id="kvg:06c82-s5" d="M47.2,26.37c1.44,1.94,1.42,3.78,1.42,5.9c0,17.76,1.13,43.49-12.31,58.89"/>
		<path id="kvg:06c82-s6" d="M49.01,43.68c0.56,0.12,2.75,0.07,4.24,0.07c7.75,0,26.5-2.5,35.72-3.1c1.49-0.1,4.09-0.12,5.02,0"/>
		<path id="kvg:06c82-s7" d="M74.21,44.8c0.92,0.6,1.47,2.69,1.65,3.89c0.18,1.2,0,44.84-0.18,52.31"/>
	</g>
</g>
</g>
<g id="kvg:StrokeNumbers_06c82">
	<text transform="matrix(1 0 0 1 13.25 16.63)">1</text>
	<text transform="matrix(1 0 0 1 8.25 41.55)">2</text>
	<text transform="matrix(1 0 0 1 8.25 91.48)">3</text>
	<text transform="matrix(1 0 0 1 70.25 12.40)">4</text>
	<text transform="matrix(1 0 0 1 39.25 36.33)">5</text>
	<text transform="matrix(1 0 0 1 57.25 37.25)">6</text>
	<text transform="matrix(1 0 0 1 67.25 55.18)">7</text>
</g>
</svg>
