<svg width="109" height="109" viewBox="0 0 109 109">
<g id="kvg:StrokePaths_06c81">
<g id="kvg:06c81">
	<g id="kvg:06c81-g1">
		<path id="kvg:06c81-s1" d="M17.88,18.25c4.01,1.65,10.36,6.78,11.37,9.34"/>
		<path id="kvg:06c81-s2" d="M12.5,42.75c4.24,1.63,10.94,6.71,12,9.25"/>
		<path id="kvg:06c81-s3" d="M11.75,86.23c1.71,1.27,3.78,1.32,4.86-0.25c3.14-4.57,9.29-16.66,12.14-22.49"/>
	</g>
	<g id="kvg:06c81-g2">
		<path id="kvg:06c81-s4" d="M39.06,53.95c0.2,3.52-1.98,16.08-3.56,21.95"/>
		<path id="kvg:06c81-s5" d="M44.27,32.8c1.73,0.7,2.91,4.02,3.36,5.96C54,66.5,61.2,81.46,84.75,87c12.75,3,14.25,0.75,9-8.75"/>
		<path id="kvg:06c81-s6" d="M59.84,30.75c3.41,11.5,8.73,14.14,9.72,7.1"/>
		<path id="kvg:06c81-s7" d="M84.65,35.95c4.82,3.13,8.43,5.97,12.35,15.64"/>
	</g>
</g>
</g>
<g id="kvg:StrokeNumbers_06c81">
	<text transform="matrix(1 0 0 1 11.50 18.50)">1</text>
	<text transform="matrix(1 0 0 1 4.50 42.50)">2</text>
	<text transform="matrix(1 0 0 1 4.50 89.50)">3</text>
	<text transform="matrix(1 0 0 1 31.50 51.50)">4</text>
	<text transform="matrix(1 0 0 1 37.50 33.50)">5</text>
	<text transform="matrix(1 0 0 1 52.50 30.50)">6</text>
	<text transform="matrix(1 0 0 1 78.50 35.50)">7</text>
</g>
</svg>
