<svg width="109" height="109" viewBox="0 0 109 109">
<g id="kvg:StrokePaths_06c92">
<g id="kvg:06c92">
	<g id="kvg:06c92-g1">
		<path id="kvg:06c92-s1" d="M22.13,17c4.45,1.78,11.5,7.32,12.62,10.09"/>
		<path id="kvg:06c92-s2" d="M16,42.75c4.24,1.63,10.94,6.71,12,9.25"/>
		<path id="kvg:06c92-s3" d="M14.25,87.73c1.71,1.27,3.78,1.32,4.86-0.25c3.14-4.57,8.29-14.16,11.14-19.99"/>
	</g>
	<g id="kvg:06c92-g2">
		<g id="kvg:06c92-g3">
			<path id="kvg:06c92-s4" d="M57.29,12c0.05,0.85,0.1,2.2-0.09,3.42c-1.14,7.21-7.45,22.33-16.67,32.71"/>
			<path id="kvg:06c92-s5" d="M58.28,23.44c0.54,0.37,2.3,0.49,3.17,0.25c0.87-0.25,15.71-2.32,17.87-2.44c2.17-0.12,3.86,0.74,3.34,3.29C81.5,30.25,78.25,40,72.91,46.71c-2.97,3.74-4.94,1.23-6.57-1.1"/>
		</g>
		<g id="kvg:06c92-g4">
			<path id="kvg:06c92-s6" d="M46.24,57.85c1.26,0.65,2.12,0.91,5.28,0.71c4.7-0.3,21.25-3.17,23.39-3.6c2.14-0.43,3.62,1.54,2.92,3.14C69.5,77,56.25,92.75,35.5,97.75"/>
			<path id="kvg:06c92-s7" d="M42.24,64.28c4.21,0.79,24.78,22.1,39.43,30.82c2.28,1.36,3.95,2.27,6.07,2.72"/>
		</g>
	</g>
</g>
</g>
<g id="kvg:StrokeNumbers_06c92">
	<text transform="matrix(1 0 0 1 15.50 17.50)">1</text>
	<text transform="matrix(1 0 0 1 8.50 43.50)">2</text>
	<text transform="matrix(1 0 0 1 6.25 90.50)">3</text>
	<text transform="matrix(1 0 0 1 49.50 12.50)">4</text>
	<text transform="matrix(1 0 0 1 62.50 20.50)">5</text>
	<text transform="matrix(1 0 0 1 38.50 58.50)">6</text>
	<text transform="matrix(1 0 0 1 37.50 71.50)">7</text>
</g>
</svg>
