<svg width="109" height="109" viewBox="0 0 109 109">
<g id="kvg:StrokePaths_06c99">
<g id="kvg:06c99">
	<g id="kvg:06c99-g1">
		<path id="kvg:06c99-s1" d="M24.38,17.5c4.45,1.65,11.5,6.78,12.62,9.34"/>
		<path id="kvg:06c99-s2" d="M16.75,41.25c4.68,1.23,12.08,5.08,13.25,7"/>
		<path id="kvg:06c99-s3" d="M16.25,89.2c1.91,0.73,3.09,0.08,4.18-1.7c3.2-5.18,6.4-11.52,9.32-18.13"/>
	</g>
	<g id="kvg:06c99-g2">
		<g id="kvg:06c99-g3">
			<path id="kvg:06c99-s4" d="M65.71,13.25c0.83,0.83,1.01,2.12,1.01,3.83c0,10.12-0.01,39.7-0.01,43.15c0,9.77-6.71,2.04-8.21,1.17"/>
			<path id="kvg:06c99-s5" d="M52.43,33.92c0.07,1.22,0.08,2.29-0.38,3.43c-2.18,5.4-6.76,14.23-11.64,20.83"/>
			<path id="kvg:06c99-s6" d="M78.5,34.25c6.37,3.09,14,10.25,16.5,15.84"/>
		</g>
		<g id="kvg:06c99-g4">
			<path id="kvg:06c99-s7" d="M84.37,50.33c0.12,1.17-0.13,2.54-0.75,4.2c-5.15,13.68-24.74,36.03-44.86,45.22"/>
		</g>
	</g>
</g>
</g>
<g id="kvg:StrokeNumbers_06c99">
	<text transform="matrix(1 0 0 1 18.25 17.25)">1</text>
	<text transform="matrix(1 0 0 1 9.25 41.25)">2</text>
	<text transform="matrix(1 0 0 1 8.25 94.25)">3</text>
	<text transform="matrix(1 0 0 1 56.25 12.15)">4</text>
	<text transform="matrix(1 0 0 1 44.25 33.25)">5</text>
	<text transform="matrix(1 0 0 1 74.25 31.25)">6</text>
	<text transform="matrix(1 0 0 1 76.25 50.25)">7</text>
</g>
</svg>
