<svg width="109" height="109" viewBox="0 0 109 109">
<g id="kvg:StrokePaths_06cab">
<g id="kvg:06cab">
	<g id="kvg:06cab-g1">
		<path id="kvg:06cab-s1" d="M21.38,15.5c3.84,1.52,9.91,6.23,10.87,8.59"/>
		<path id="kvg:06cab-s2" d="M13.5,39.5c4.06,1.41,10.48,5.8,11.5,8"/>
		<path id="kvg:06cab-s3" d="M11.75,92.21c1.78,1.31,3.91,0.36,5.03-1.25c3.25-4.7,6.51-9.45,9.47-15.45"/>
	</g>
	<g id="kvg:06cab-g2">
		<path id="kvg:06cab-s4" d="M37.43,32.12c1.13,0.52,3.2,0.62,4.34,0.52c5.72-0.47,40.56-4.1,47.22-4.32c1.89-0.06,3.02,0.25,3.96,0.51"/>
		<g id="kvg:06cab-g3">
			<path id="kvg:06cab-s5" d="M43.92,50.77c0.66,0.31,2.44,0.53,4.19,0.31c10.64-1.34,27-3.53,36.47-4.16c1.76-0.12,2.2-0.31,3.3,0"/>
			<path id="kvg:06cab-s6" d="M62.3,12.5c1.2,0.48,2.15,2.12,2.15,3.11c0,7.14-0.24,74.39-0.24,82.39"/>
			<path id="kvg:06cab-s7" d="M63.66,50.8c-5.41,11.87-19.47,28.68-30.72,35.4"/>
			<path id="kvg:06cab-s8" d="M64.84,50.06c4.02,4.46,21.63,25.57,26,29.96c1.48,1.49,2.75,2.12,4.23,2.55"/>
		</g>
	</g>
</g>
</g>
<g id="kvg:StrokeNumbers_06cab">
	<text transform="matrix(1 0 0 1 15.25 15.50)">1</text>
	<text transform="matrix(1 0 0 1 6.50 39.50)">2</text>
	<text transform="matrix(1 0 0 1 5.25 92.48)">3</text>
	<text transform="matrix(1 0 0 1 36.50 29.50)">4</text>
	<text transform="matrix(1 0 0 1 36.50 51.50)">5</text>
	<text transform="matrix(1 0 0 1 53.50 12.25)">6</text>
	<text transform="matrix(1 0 0 1 51.50 60.18)">7</text>
	<text transform="matrix(1 0 0 1 76.50 59.10)">8</text>
</g>
</svg>
