<svg width="109" height="109" viewBox="0 0 109 109">
<g id="kvg:StrokePaths_06cbd">
<g id="kvg:06cbd">
	<g id="kvg:06cbd-g1">
		<path id="kvg:06cbd-s1" d="M20.63,17.5c4.45,1.78,11.5,6.82,12.62,9.59"/>
		<path id="kvg:06cbd-s2" d="M15.25,42.75c4.32,1.9,11.17,7.8,12.25,10.75"/>
		<path id="kvg:06cbd-s3" d="M14.75,88.73c1.71,1.27,3.78,1.32,4.86-0.25c3.14-4.57,9.79-16.66,12.64-22.49"/>
	</g>
	<g id="kvg:06cbd-g2">
		<g id="kvg:06cbd-g3">
			<path id="kvg:06cbd-s4" d="M33.71,39.42c0.94,0.34,3.46,1.2,5.97,1.01c14.36-1.07,36.19-3.19,50.96-3.19c2.52,0,4.14,0.16,5.71,0.5"/>
			<path id="kvg:06cbd-s5" d="M60.85,11.5c1.57,0.72,2.82,3.2,2.82,4.67c0,25.09-0.31,39.02-0.31,49.78"/>
		</g>
		<g id="kvg:06cbd-g4">
			<path id="kvg:06cbd-s6" d="M42.75,65.91c0.33,0.92,0.71,1.56,0.82,2.27c0.82,5.12,2.63,18.88,3.78,28.58"/>
			<path id="kvg:06cbd-s7" d="M43.91,67.82c10.84-1.07,32.16-2.46,38.41-2.62c2.58-0.06,3.98,1.38,3.75,2.86c-0.85,5.61-2.02,16.56-3.41,24"/>
			<path id="kvg:06cbd-s8" d="M47.34,93.62c7.58-0.41,29.51-1.25,38.61-1.78"/>
		</g>
	</g>
</g>
</g>
<g id="kvg:StrokeNumbers_06cbd">
	<text transform="matrix(1 0 0 1 12.50 17.50)">1</text>
	<text transform="matrix(1 0 0 1 8.25 43.50)">2</text>
	<text transform="matrix(1 0 0 1 6.50 93.50)">3</text>
	<text transform="matrix(1 0 0 1 34.50 36.50)">4</text>
	<text transform="matrix(1 0 0 1 51.50 11.50)">5</text>
	<text transform="matrix(1 0 0 1 36.25 74.50)">6</text>
	<text transform="matrix(1 0 0 1 46.50 63.50)">7</text>
	<text transform="matrix(1 0 0 1 51.25 89.50)">8</text>
</g>
</svg>
