<svg width="109" height="109" viewBox="0 0 109 109">
<g id="kvg:StrokePaths_06cb1">
<g id="kvg:06cb1">
	<g id="kvg:06cb1-g1">
		<path id="kvg:06cb1-s1" d="M17.88,17c4.54,1.6,11.73,6.6,12.87,9.09"/>
		<path id="kvg:06cb1-s2" d="M15,40.75c4.24,1.81,10.94,7.44,12,10.25"/>
		<path id="kvg:06cb1-s3" d="M13.25,87.73c1.71,1.27,3.78,1.32,4.86-0.25c3.14-4.57,10.79-18.16,13.64-23.99"/>
	</g>
	<g id="kvg:06cb1-g2">
		<g id="kvg:06cb1-g3">
			<path id="kvg:06cb1-s4" d="M61.81,12.49c1,0.43,2.42,2.52,2.4,3.75c-0.07,3.88-0.07,7.49-0.08,11.02"/>
			<g id="kvg:06cb1-g4">
				<path id="kvg:06cb1-s5" d="M41.29,27.93c0,4.25-2.55,13.02-4.02,15.86"/>
				<path id="kvg:06cb1-s6" d="M41.31,30.21c14.6-2.28,42.5-4.47,48.69-4.24c8.17,0.31-1.09,8.2-3.12,10.01"/>
			</g>
		</g>
		<g id="kvg:06cb1-g5">
			<path id="kvg:06cb1-s7" d="M85.09,48.75c0.21,0.38-0.17,1.98-0.69,2.57c-3.42,3.78-15.14,13.69-26.19,17.56"/>
			<path id="kvg:06cb1-s8" d="M52.72,41.16c0.81,1.1,0.87,1.83,1.14,3.3c0.27,1.47-0.11,32.5-0.11,37.09c0,11.81,2,14.46,20.82,14.46C93,96.01,94.78,95,94.78,81.15"/>
		</g>
	</g>
</g>
</g>
<g id="kvg:StrokeNumbers_06cb1">
	<text transform="matrix(1 0 0 1 11.50 17.63)">1</text>
	<text transform="matrix(1 0 0 1 8.25 41.55)">2</text>
	<text transform="matrix(1 0 0 1 5.50 89.50)">3</text>
	<text transform="matrix(1 0 0 1 54.25 13.50)">4</text>
	<text transform="matrix(1 0 0 1 35.50 27.50)">5</text>
	<text transform="matrix(1 0 0 1 44.50 26.50)">6</text>
	<text transform="matrix(1 0 0 1 77.50 48.18)">7</text>
	<text transform="matrix(1 0 0 1 44.25 44.50)">8</text>
</g>
</svg>
