<svg width="109" height="109" viewBox="0 0 109 109">
<g id="kvg:StrokePaths_06cbe">
<g id="kvg:06cbe">
	<g id="kvg:06cbe-g1">
		<path id="kvg:06cbe-s1" d="M20.13,16.25c4.28,1.65,11.05,6.78,12.12,9.34"/>
		<path id="kvg:06cbe-s2" d="M15.75,42.5c4.15,1.76,10.71,7.26,11.75,10"/>
		<path id="kvg:06cbe-s3" d="M12.75,88.34c1.81,1.12,3.98,1.17,5.12-0.22C21.18,84.09,28.99,73.65,32,68.5"/>
	</g>
	<g id="kvg:06cbe-g2">
		<g id="kvg:06cbe-g3">
			<path id="kvg:06cbe-s4" d="M61.81,13.63c0.76,0.46,2.36,3.45,2.51,4.37c0.15,0.92-0.25,34.08-0.25,47.59"/>
			<path id="kvg:06cbe-s5" d="M64.25,39.27c9.91-0.77,21.92-1.81,23.29-1.81c1.38,0,3.85,0,4.96,0.26"/>
		</g>
		<g id="kvg:06cbe-g4">
			<path id="kvg:06cbe-s6" d="M44.41,65.92c0.46,0.55,0.94,1.02,1.14,1.71c1.61,5.49,3.53,19.15,4.63,29.02"/>
			<path id="kvg:06cbe-s7" d="M45.46,67.91c12.29-1.16,33.75-1.71,39.6-2.49c2.14-0.28,3.42,2.86,3.12,4.54c-1.27,6.92-2.85,13.08-4.6,21.86"/>
			<path id="kvg:06cbe-s8" d="M50.14,93.42c8.74-0.49,24.75-1.01,36.23-1.35"/>
		</g>
	</g>
</g>
</g>
<g id="kvg:StrokeNumbers_06cbe">
	<text transform="matrix(1 0 0 1 12.75 15.50)">1</text>
	<text transform="matrix(1 0 0 1 7.50 42.55)">2</text>
	<text transform="matrix(1 0 0 1 5.50 91.50)">3</text>
	<text transform="matrix(1 0 0 1 52.50 14.50)">4</text>
	<text transform="matrix(1 0 0 1 68.50 34.50)">5</text>
	<text transform="matrix(1 0 0 1 38.50 74.50)">6</text>
	<text transform="matrix(1 0 0 1 48.50 64.50)">7</text>
	<text transform="matrix(1 0 0 1 53.50 89.50)">8</text>
</g>
</svg>
