<svg width="109" height="109" viewBox="0 0 109 109">
<g id="kvg:StrokePaths_06cf3">
<g id="kvg:06cf3">
	<g id="kvg:06cf3-g1">
		<path id="kvg:06cf3-s1" d="M19.88,21.75c3.75,1.16,9.68,4.78,10.62,6.59"/>
		<path id="kvg:06cf3-s2" d="M15.75,44.5c4.06,1.15,10.48,4.72,11.5,6.5"/>
		<path id="kvg:06cf3-s3" d="M16,91.21c2,0.42,3.31-0.14,4.25-1.75c2.75-4.7,5-9.95,7.5-15.95"/>
	</g>
	<g id="kvg:06cf3-g2">
		<g id="kvg:06cf3-g3">
			<path id="kvg:06cf3-s4" d="M54.25,13.5c4.83,2.47,8.69,5.86,10.14,9.25"/>
		</g>
		<g id="kvg:06cf3-g4">
			<path id="kvg:06cf3-s5" d="M44.69,35.25c1.19,0.41,2.78,0.62,4.63,0.31c3.43-0.56,7.89-2.14,12.15-2.64c1.75-0.21,3.78,1.08,3.78,4.33c0,15.75-0.48,47.72-0.49,52.27c-0.01,7.98-6.01,1.98-8.47-0.08"/>
			<path id="kvg:06cf3-s6" d="M34.25,57.21c1.27,0.23,2.7,0.21,4.03-0.05c4.6-0.91,9.14-2.1,11.25-3c2.12-0.91,3.94,0.73,3.18,2.72c-4.1,10.72-10.92,21.44-19.19,27.75"/>
			<path id="kvg:06cf3-s7" d="M84.73,39.85c0.02,1.03-0.33,2.13-0.96,2.86c-3.64,4.2-10.51,9.32-16.16,11.43"/>
			<path id="kvg:06cf3-s8" d="M66.75,54.62c5.68,7.75,14.79,17.92,21.77,23.62c2.11,1.72,3.59,3.26,6.61,4.13"/>
		</g>
	</g>
</g>
</g>
<g id="kvg:StrokeNumbers_06cf3">
	<text transform="matrix(1 0 0 1 11.25 22.63)">1</text>
	<text transform="matrix(1 0 0 1 8.25 45.13)">2</text>
	<text transform="matrix(1 0 0 1 8.25 97.63)">3</text>
	<text transform="matrix(1 0 0 1 46.50 13.50)">4</text>
	<text transform="matrix(1 0 0 1 36.75 35.50)">5</text>
	<text transform="matrix(1 0 0 1 32.50 54.13)">6</text>
	<text transform="matrix(1 0 0 1 77.50 38.50)">7</text>
	<text transform="matrix(1 0 0 1 75.50 59.50)">8</text>
</g>
</svg>
