<svg width="109" height="109" viewBox="0 0 109 109">
<g id="kvg:StrokePaths_06d0b">
<g id="kvg:06d0b">
	<g id="kvg:06d0b-g1">
		<path id="kvg:06d0b-s1" d="M20.47,16.1c4.27,1.65,10.89,6.3,11.84,8.45"/>
		<path id="kvg:06d0b-s2" d="M14.75,38.62c4.55,1.68,11.64,6.24,12.69,8.29"/>
		<path id="kvg:06d0b-s3" d="M12,90.11c1.27,0.32,2.51,0.04,3.35-1c3.92-4.86,11.37-15.58,15.04-21.9"/>
	</g>
	<g id="kvg:06d0b-g2">
		<path id="kvg:06d0b-s4" d="M47.88,14.25c2.78,1.94,7.19,7.96,7.89,10.97"/>
		<path id="kvg:06d0b-s5" d="M83.37,11.75c0.04,0.44,0.17,1.17-0.08,1.78c-1.64,3.97-4.83,8.6-10.59,14.04"/>
		<path id="kvg:06d0b-s6" d="M43.07,32.89c2.31,0.49,5.31,0.2,7.39,0.01c8.75-0.8,23.4-2.48,31.83-3.06c2.42-0.17,5.21-0.57,7.57,0.17"/>
		<path id="kvg:06d0b-s7" d="M48.28,50.89c2.59,0.49,5.06,0.35,7.1,0.24c7.46-0.44,16.67-1.75,23.87-2.56c2.14-0.24,4.38-0.64,6.52-0.3"/>
		<path id="kvg:06d0b-s8" d="M38,72.45c2.5,0.55,5.3,0.53,7.74,0.19c10.76-1.51,30.31-3.45,42.64-4.38c2.43-0.18,5.71-0.1,8.12,0.25"/>
		<path id="kvg:06d0b-s9" d="M65.26,34.25c0.93,0.93,1.46,2.23,1.46,3.25c0,2.83-0.12,37.06-0.17,53.5c-0.01,3.86-0.02,6.74-0.02,8"/>
	</g>
</g>
</g>
<g id="kvg:StrokeNumbers_06d0b">
	<text transform="matrix(1 0 0 1 14.25 15.13)">1</text>
	<text transform="matrix(1 0 0 1 8.25 40.63)">2</text>
	<text transform="matrix(1 0 0 1 3.75 96.13)">3</text>
	<text transform="matrix(1 0 0 1 41.25 12.13)">4</text>
	<text transform="matrix(1 0 0 1 75.75 9.13)">5</text>
	<text transform="matrix(1 0 0 1 39.75 28.63)">6</text>
	<text transform="matrix(1 0 0 1 42.75 49.97)">7</text>
	<text transform="matrix(1 0 0 1 41.25 69.77)">8</text>
	<text transform="matrix(1 0 0 1 59.25 43.63)">9</text>
</g>
</svg>
