<svg width="109" height="109" viewBox="0 0 109 109">
<g id="kvg:StrokePaths_06d3b">
<g id="kvg:06d3b">
	<g id="kvg:06d3b-g1">
		<path id="kvg:06d3b-s1" d="M21.88,18.5c3.75,1.43,9.69,5.87,10.62,8.09"/>
		<path id="kvg:06d3b-s2" d="M15.38,45.62c4.37,1.34,11.28,5.53,12.38,7.62"/>
		<path id="kvg:06d3b-s3" d="M16,88.02c3.12,0.36,4.3-0.37,5.45-2.3c3.37-5.64,5.73-10.52,8.8-17.71"/>
	</g>
	<g id="kvg:06d3b-g2">
		<g id="kvg:06d3b-g3">
			<path id="kvg:06d3b-s4" d="M78.25,15.25c-0.25,1.38-0.85,2.48-2.43,3.36c-6.57,3.64-15.33,7.53-33.29,11.38"/>
			<path id="kvg:06d3b-s5" d="M36.63,48.9c1.91,0.39,5.51,0.31,7.4,0.14c12.84-1.16,30.34-3.29,44.4-3.78c3.18-0.11,5.1,0.18,6.69,0.38"/>
			<path id="kvg:06d3b-s6" d="M63.54,27.31c0.62,0.43,2.07,1.69,2.07,4.09c0,1.34,0.2,24.94,0.11,34.61"/>
		</g>
		<g id="kvg:06d3b-g4">
			<path id="kvg:06d3b-s7" d="M46.53,66.86c1.2,1.02,1.32,1.28,1.61,2.91c0.95,5.39,1.69,14.7,2.37,22.46c0.12,1.38,0.23,2.73,0.31,4.03"/>
			<path id="kvg:06d3b-s8" d="M48.75,68.3c12.12-0.92,29.02-2.18,35.67-2.75c2.64-0.22,3.83,1.2,3.27,3.34c-1.25,4.75-3.75,14.54-4.98,21.36"/>
			<path id="kvg:06d3b-s9" d="M51.81,93.3c7.69-0.3,16.69-1.05,27.2-1.78c1.9-0.13,3.73-0.15,5.46-0.18"/>
		</g>
	</g>
</g>
</g>
<g id="kvg:StrokeNumbers_06d3b">
	<text transform="matrix(1 0 0 1 12.75 19.63)">1</text>
	<text transform="matrix(1 0 0 1 6.75 46.63)">2</text>
	<text transform="matrix(1 0 0 1 8.25 96.13)">3</text>
	<text transform="matrix(1 0 0 1 81.75 12.13)">4</text>
	<text transform="matrix(1 0 0 1 33.75 45.13)">5</text>
	<text transform="matrix(1 0 0 1 56.25 37.63)">6</text>
	<text transform="matrix(1 0 0 1 39.75 76.63)">7</text>
	<text transform="matrix(1 0 0 1 48.75 64.63)">8</text>
	<text transform="matrix(1 0 0 1 54.75 90.13)">9</text>
</g>
</svg>
