<svg width="109" height="109" viewBox="0 0 109 109">
<g id="kvg:StrokePaths_06d6a">
<g id="kvg:06d6a">
	<g id="kvg:06d6a-g1">
		<path id="kvg:06d6a-s1" d="M21.88,18.5c4.37,1.47,11.27,6.05,12.37,8.34"/>
		<path id="kvg:06d6a-s2" d="M17,41.5c4.06,0.97,10.48,3.99,11.5,5.5"/>
		<path id="kvg:06d6a-s3" d="M17.25,89c1.82,0.4,2.93,0.08,3.98-1.51c3.04-4.62,8.51-14.83,11.27-20.73"/>
	</g>
	<g id="kvg:06d6a-g2">
		<path id="kvg:06d6a-s4" d="M61.47,14.25c1.14,1.14,1.42,2.25,1.42,3.85c0,1.18-0.01,5.25-0.01,8.14"/>
		<g id="kvg:06d6a-g3">
			<path id="kvg:06d6a-s5" d="M45.78,28.01c2.22,1.24,4.44,1.06,6.54,0.75c6.18-0.91,17.43-2.23,22.44-2.75c3.04-0.31,5.3-0.24,5.02,3.37c-0.33,4.35-1.25,12.74-2.17,18.49c-0.29,1.85-0.62,3-1.12,5.55"/>
			<path id="kvg:06d6a-s6" d="M50.09,41.63c7.28-0.88,20.41-2.5,27.4-2.92"/>
			<path id="kvg:06d6a-s7" d="M49.7,55.28c7.92-1,17.57-2.44,26.17-3.41"/>
			<path id="kvg:06d6a-s8" d="M47.53,29.51c0.92,0.92,1.18,2.07,1.18,3.15c0,7.84,0.02,48.34,0.02,56.88c0,2.37,1.28,3.84,3.8,1.91C57.36,87.73,59,86.38,64,82.07"/>
			<path id="kvg:06d6a-s9" d="M85.68,52.92c0,1.33-0.48,2.39-1.51,3.35c-2.68,2.49-7.43,6.61-11.4,9"/>
			<path id="kvg:06d6a-s10" d="M57.72,58.72c2.9,0.36,19.31,16.45,27.5,23.69c2.93,2.59,5.93,4.8,9.45,6.51"/>
		</g>
	</g>
</g>
</g>
<g id="kvg:StrokeNumbers_06d6a">
	<text transform="matrix(1 0 0 1 16.25 19.25)">1</text>
	<text transform="matrix(1 0 0 1 10.25 41.80)">2</text>
	<text transform="matrix(1 0 0 1 9.25 92.25)">3</text>
	<text transform="matrix(1 0 0 1 52.25 13.25)">4</text>
	<text transform="matrix(1 0 0 1 49.25 26.25)">5</text>
	<text transform="matrix(1 0 0 1 53.00 38.73)">6</text>
	<text transform="matrix(1 0 0 1 53.00 52.16)">7</text>
	<text transform="matrix(1 0 0 1 40.25 37.25)">8</text>
	<text transform="matrix(1 0 0 1 86.25 50.88)">9</text>
	<text transform="matrix(1 0 0 1 53.25 69.25)">10</text>
</g>
</svg>
