<svg width="109" height="109" viewBox="0 0 109 109">
<g id="kvg:StrokePaths_06d6e">
<g id="kvg:06d6e">
	<g id="kvg:06d6e-g1">
		<path id="kvg:06d6e-s1" d="M22.12,17.88c3.93,1.45,10.14,5.96,11.12,8.22"/>
		<path id="kvg:06d6e-s2" d="M16,40.12c4.15,1.26,10.71,5.17,11.75,7.12"/>
		<path id="kvg:06d6e-s3" d="M12.72,88.81c1.4,0.19,2.25-0.04,3.14-1.32C19,82.92,24.12,73.75,27.75,67.5"/>
	</g>
	<g id="kvg:06d6e-g2">
		<g id="kvg:06d6e-g3">
			<path id="kvg:06d6e-s4" d="M73.52,12.04c-0.4,1.21-1.18,1.7-1.9,2.08c-5.12,2.64-10.74,4.76-22.51,7.86"/>
			<path id="kvg:06d6e-s5" d="M44.02,29.99c2.84,1.73,6.59,6.64,7.3,9.34"/>
			<path id="kvg:06d6e-s6" d="M59.19,25.76c2.36,1.74,5.36,6.64,5.95,9.34"/>
			<path id="kvg:06d6e-s7" d="M87.02,21.09c0.12,0.91-0.3,1.76-0.76,2.55c-2.38,3.36-5.86,7.47-12.07,12.69"/>
		</g>
		<g id="kvg:06d6e-g4">
			<path id="kvg:06d6e-s8" d="M45.73,46.87c2.47,0.62,5.05,0.6,7.55,0.14c7.32-1.36,19.85-3.88,27.28-5.26c1.78-0.33,2.82,1.48,0.86,2.84c-3.29,2.28-13.13,9.24-17.72,12.07"/>
			<path id="kvg:06d6e-s9" d="M62.97,56.91c8.66,9.59,10.25,25.98,7.46,33.41c-2.32,6.19-7.26,8.14-12.14,1.69"/>
			<path id="kvg:06d6e-s10" d="M36.5,69.89c2.5,0.73,5.83,0.61,8.12,0.24c11.75-1.88,32.5-4.3,44.12-5.21c3.01-0.24,6.6-0.08,9.5,0.84"/>
		</g>
	</g>
</g>
</g>
<g id="kvg:StrokeNumbers_06d6e">
	<text transform="matrix(1 0 0 1 15.75 18.13)">1</text>
	<text transform="matrix(1 0 0 1 8.50 41.50)">2</text>
	<text transform="matrix(1 0 0 1 4.50 92.98)">3</text>
	<text transform="matrix(1 0 0 1 63.50 11.50)">4</text>
	<text transform="matrix(1 0 0 1 36.50 33.50)">5</text>
	<text transform="matrix(1 0 0 1 51.50 29.50)">6</text>
	<text transform="matrix(1 0 0 1 78.25 23.50)">7</text>
	<text transform="matrix(1 0 0 1 38.25 47.50)">8</text>
	<text transform="matrix(1 0 0 1 56.25 61.50)">9</text>
	<text transform="matrix(1 0 0 1 34.50 67.50)">10</text>
</g>
</svg>
