<svg width="109" height="109" viewBox="0 0 109 109">
<g id="kvg:StrokePaths_06d79">
<g id="kvg:06d79">
	<g id="kvg:06d79-g1">
		<path id="kvg:06d79-s1" d="M17.38,15.5c4.72,1.78,12.19,7.32,13.37,10.09"/>
		<path id="kvg:06d79-s2" d="M14,41.75c4.24,1.63,10.94,6.71,12,9.25"/>
		<path id="kvg:06d79-s3" d="M13.25,89.23c1.71,1.27,3.78,1.32,4.86-0.25c3.14-4.57,9.29-16.16,12.14-21.99"/>
	</g>
	<g id="kvg:06d79-g2">
		<g id="kvg:06d79-g3">
			<path id="kvg:06d79-s4" d="M37.75,31.15c1.29,0.44,3.65,0.49,4.94,0.44c9.06-0.34,39.58-3.02,47.54-2.52c2.14,0.14,3.44,0.21,4.52,0.43"/>
		</g>
		<g id="kvg:06d79-g4">
			<g id="kvg:06d79-g5">
				<path id="kvg:06d79-s5" d="M49.51,40.74c0,0.6,0.05,1.1-0.09,1.8c-1.31,6.52-5.21,14.63-10.95,21.83"/>
				<path id="kvg:06d79-s6" d="M47.64,53.71c2.93,1.5,6.68,5.5,8.11,9.29"/>
			</g>
			<g id="kvg:06d79-g6">
				<path id="kvg:06d79-s7" d="M82.77,38.74c0,0.54,0.08,1.01-0.08,1.62c-1.38,5.28-5.3,14.69-9.97,20.02"/>
				<path id="kvg:06d79-s8" d="M80.89,50.71c5.01,2.86,8.86,6.44,11.86,10.79"/>
			</g>
		</g>
		<g id="kvg:06d79-g7">
			<path id="kvg:06d79-s9" d="M63.25,12.25c0.48,1.17,1.25,2.52,1.25,5.04c0,46.84-2.99,62.71-31.24,80.21"/>
			<path id="kvg:06d79-s10" d="M63.5,53c6.01,12.1,19.23,33.57,27.38,40.53c2.28,1.95,2.89,2.51,3.87,2.72"/>
		</g>
	</g>
</g>
</g>
<g id="kvg:StrokeNumbers_06d79">
	<text transform="matrix(1 0 0 1 10.94 16.63)">1</text>
	<text transform="matrix(1 0 0 1 5.94 42.06)">2</text>
	<text transform="matrix(1 0 0 1 5.50 92.50)">3</text>
	<text transform="matrix(1 0 0 1 35.50 27.50)">4</text>
	<text transform="matrix(1 0 0 1 40.50 42.50)">5</text>
	<text transform="matrix(1 0 0 1 51.50 54.50)">6</text>
	<text transform="matrix(1 0 0 1 74.50 39.50)">7</text>
	<text transform="matrix(1 0 0 1 86.50 51.50)">8</text>
	<text transform="matrix(1 0 0 1 53.50 11.50)">9</text>
	<text transform="matrix(1 0 0 1 74.50 69.46)">10</text>
</g>
</svg>
