<svg width="109" height="109" viewBox="0 0 109 109">
<g id="kvg:StrokePaths_06d99">
<g id="kvg:06d99">
	<g id="kvg:06d99-g1">
		<path id="kvg:06d99-s1" d="M18.63,14.75c3.92,1.56,10.13,6.41,11.12,8.84"/>
		<path id="kvg:06d99-s2" d="M10.25,37.5c5.29,1.28,13.68,5.26,15,7.25"/>
		<path id="kvg:06d99-s3" d="M11.6,90.11c1.43,0.59,2.65,0.12,3.51-1.12c3.14-4.57,6.54-10.91,9.39-16.74"/>
	</g>
	<g id="kvg:06d99-g2">
		<g id="kvg:06d99-g3">
			<path id="kvg:06d99-s4" d="M39.43,18.49c2.57,0.39,5.81,0.28,8.2,0.03c9.43-1,20.27-2.15,31.02-3.42c2.83-0.33,5.54-0.36,8.37,0.25"/>
			<path id="kvg:06d99-s5" d="M41.2,30.85c2.39,0.89,4.7,0.8,7.15,0.49c9.98-1.28,24.68-3.18,31.8-3.98c3.62-0.41,5.39,0.97,4.49,4.8c-1.06,4.49-1.47,6.45-2.3,9.14"/>
			<path id="kvg:06d99-s6" d="M45.36,45.18c1.02,0,22.18-2.09,34.4-2.83c2.02-0.12,3.77-0.19,5.12-0.19"/>
			<path id="kvg:06d99-s7" d="M43.69,32c0.85,0.85,1.17,2.24,1.1,4.19C43.88,61.5,38.88,77.62,27.72,90"/>
		</g>
		<g id="kvg:06d99-g4">
			<path id="kvg:06d99-s8" d="M47.84,62.79c2.41,0.46,4.62,0.41,6.66,0.18c9.33-1.08,19.9-2.68,28.51-3.22c2.46-0.16,4.45,0.12,6.85,0.62"/>
			<path id="kvg:06d99-s9" d="M66.22,49.21c0.44,0.63,0.66,1.36,0.65,2.72c-0.21,23.6-10.2,35.56-27.47,42.81"/>
			<path id="kvg:06d99-s10" d="M67.35,62.56C73.38,71,79.62,80.75,87.67,88.59c1.94,1.89,3.96,3.55,6.36,4.83"/>
		</g>
	</g>
</g>
</g>
<g id="kvg:StrokeNumbers_06d99">
	<text transform="matrix(1 0 0 1 12.25 15.25)">1</text>
	<text transform="matrix(1 0 0 1 3.50 38.80)">2</text>
	<text transform="matrix(1 0 0 1 3.50 94.23)">3</text>
	<text transform="matrix(1 0 0 1 38.25 16.25)">4</text>
	<text transform="matrix(1 0 0 1 43.25 29.25)">5</text>
	<text transform="matrix(1 0 0 1 50.00 42.25)">6</text>
	<text transform="matrix(1 0 0 1 37.25 40.25)">7</text>
	<text transform="matrix(1 0 0 1 47.25 59.88)">8</text>
	<text transform="matrix(1 0 0 1 57.50 53.25)">9</text>
	<text transform="matrix(1 0 0 1 75.25 71.25)">10</text>
</g>
</svg>
