<svg width="109" height="109" viewBox="0 0 109 109">
<g id="kvg:StrokePaths_06dcc">
<g id="kvg:06dcc">
	<g id="kvg:06dcc-g1">
		<path id="kvg:06dcc-s1" d="M17.13,15.75c4.63,1.74,11.96,7.14,13.12,9.84"/>
		<path id="kvg:06dcc-s2" d="M14,42.5c4.41,1.59,11.4,6.53,12.5,9"/>
		<path id="kvg:06dcc-s3" d="M15.75,89.71c1.5,1.31,3.31,1.36,4.25-0.25C22.75,84.75,28.5,73,31,67"/>
	</g>
	<g id="kvg:06dcc-g2">
		<g id="kvg:06dcc-g3">
			<path id="kvg:06dcc-s4" d="M63.04,12.62c0.21,0.4,2.33,2.07,2.33,4.59c0,11.46-0.18,21.86-0.18,25.99"/>
			<path id="kvg:06dcc-s5" d="M53.12,22.02c0.05,0.42,0.1,1.07-0.09,1.67c-1.09,3.52-7.37,11.26-15.95,15.99"/>
			<path id="kvg:06dcc-s6" d="M77.3,20.6c6.08,2.68,15.72,11.03,17.24,15.2"/>
		</g>
		<g id="kvg:06dcc-g4">
			<g id="kvg:06dcc-g5">
				<path id="kvg:06dcc-s7" d="M42.55,43.35c0.97,0.77,1.7,2.58,1.78,4.01c0.35,6.26-0.62,39.29-0.43,48.53"/>
				<path id="kvg:06dcc-s8" d="M44.17,45.84c16.83-1.48,29.28-3.09,42.09-4.24c2.76-0.25,4.83,1.74,4.77,4.04c-0.21,8.22-0.16,28.5-0.16,42.11c0,9.75-5.19,5.41-8.28,0.79"/>
			</g>
			<g id="kvg:06dcc-g6">
				<path id="kvg:06dcc-s9" d="M56.31,57.33c0.24,0.22,0.51,0.39,0.58,0.68c0.68,2.52,2.11,18.05,2.79,21.76"/>
				<path id="kvg:06dcc-s10" d="M57.79,58.81c4.38-0.54,11.36-2.28,15.43-2.54c1.77-0.11,3.05,1.12,2.82,2.71c-0.79,5.27-1.34,7.47-2.97,16.78"/>
				<path id="kvg:06dcc-s11" d="M60.18,77.46c5.67-0.73,10.28-0.89,14.78-1.39"/>
			</g>
		</g>
	</g>
</g>
</g>
<g id="kvg:StrokeNumbers_06dcc">
	<text transform="matrix(1 0 0 1 10.50 16.50)">1</text>
	<text transform="matrix(1 0 0 1 6.50 42.50)">2</text>
	<text transform="matrix(1 0 0 1 8.25 92.50)">3</text>
	<text transform="matrix(1 0 0 1 57.50 9.50)">4</text>
	<text transform="matrix(1 0 0 1 44.75 21.50)">5</text>
	<text transform="matrix(1 0 0 1 74.50 17.50)">6</text>
	<text transform="matrix(1 0 0 1 36.50 52.43)">7</text>
	<text transform="matrix(1 0 0 1 46.75 42.60)">8</text>
	<text transform="matrix(1 0 0 1 49.50 64.50)">9</text>
	<text transform="matrix(1 0 0 1 57.50 55.50)">10</text>
	<text transform="matrix(1 0 0 1 61.50 73.50)">11</text>
</g>
</svg>
