<svg width="109" height="109" viewBox="0 0 109 109">
<g id="kvg:StrokePaths_06dde">
<g id="kvg:06dde">
	<g id="kvg:06dde-g1">
		<path id="kvg:06dde-s1" d="M14.38,15c4.9,1.69,12.64,6.96,13.87,9.59"/>
		<path id="kvg:06dde-s2" d="M11.25,42c4.85,1.68,12.54,6.89,13.75,9.5"/>
		<path id="kvg:06dde-s3" d="M10.25,90.23c1.71,1.27,3.78,1.32,4.86-0.25c3.14-4.57,7.79-13.16,10.64-18.99"/>
	</g>
	<g id="kvg:06dde-g2">
		<g id="kvg:06dde-g3">
			<path id="kvg:06dde-s4" d="M30.49,37.62c0.31,0.1,2.14,0.17,2.96,0.13c3.53-0.16,17.11-1.32,22.78-1.81c0.82-0.07,1.92-0.1,2.44,0"/>
			<path id="kvg:06dde-s5" d="M45.98,15.75c0.69,0.45,2.31,1.25,2.31,4.27c0,0.91-0.09,71.85-0.23,77.48"/>
			<path id="kvg:06dde-s6" d="M48.13,41.16c-6.05,15.29-9.41,21.75-18.77,35.13"/>
			<path id="kvg:06dde-s7" d="M51.93,50.58c1.94,1.82,5.12,7.74,6.75,11.27"/>
		</g>
		<g id="kvg:06dde-g4">
			<g id="kvg:06dde-g5">
				<path id="kvg:06dde-s8" d="M70.12,19.05c0.18,0.84-0.01,1.82-0.26,2.82c-1.77,7.3-5.11,18.14-10.48,25.21"/>
				<path id="kvg:06dde-s9" d="M73.67,12.18c4.46,0.58,13.58,26.87,19.24,32.83c2.19,2.3,2.97,3.54,5.09,4.28"/>
			</g>
			<g id="kvg:06dde-g6">
				<path id="kvg:06dde-s10" d="M76.34,49.58c0.48,0.8,0.38,2.7-0.01,3.66c-5.29,12.99-10.54,21.7-18.07,34.64c-1.83,3.15-1.26,5.01,1.76,4.08c11.23-3.46,19.48-5.46,31.17-8.25"/>
				<path id="kvg:06dde-s11" d="M80.65,68.2c5.44,4.77,13.43,18.95,14.79,26.37"/>
			</g>
		</g>
	</g>
</g>
</g>
<g id="kvg:StrokeNumbers_06dde">
	<text transform="matrix(1 0 0 1 8.50 15.50)">1</text>
	<text transform="matrix(1 0 0 1 4.25 42.50)">2</text>
	<text transform="matrix(1 0 0 1 3.50 91.50)">3</text>
	<text transform="matrix(1 0 0 1 27.50 34.50)">4</text>
	<text transform="matrix(1 0 0 1 37.50 14.50)">5</text>
	<text transform="matrix(1 0 0 1 38.50 47.50)">6</text>
	<text transform="matrix(1 0 0 1 52.50 48.50)">7</text>
	<text transform="matrix(1 0 0 1 61.50 19.50)">8</text>
	<text transform="matrix(1 0 0 1 71.50 8.50)">9</text>
	<text transform="matrix(1 0 0 1 65.50 49.50)">10</text>
	<text transform="matrix(1 0 0 1 80.50 66.50)">11</text>
</g>
</svg>
