<svg width="109" height="109" viewBox="0 0 109 109">
<g id="kvg:StrokePaths_06dea">
<g id="kvg:06dea">
	<g id="kvg:06dea-g1">
		<path id="kvg:06dea-s1" d="M17.63,15.5c4.45,1.6,11.5,6.6,12.62,9.09"/>
		<path id="kvg:06dea-s2" d="M13.5,41.75c4.24,1.81,10.94,6.94,12,9.75"/>
		<path id="kvg:06dea-s3" d="M15.25,89.73c1.71,1.27,3.78,1.32,4.86-0.25c3.14-4.57,6.29-10.16,9.14-15.99"/>
	</g>
	<g id="kvg:06dea-g2">
		<g id="kvg:06dea-g3">
			<path id="kvg:06dea-s4" d="M62.57,10.65c0.08,0.86,0.36,2.31-0.15,3.48C58.75,22.5,51.5,36.95,36.74,47.88"/>
			<path id="kvg:06dea-s5" d="M62.37,16.88c5.49,4.42,23.09,21.38,27.73,25.05c1.57,1.24,3.59,1.78,5.17,2.13"/>
		</g>
		<g id="kvg:06dea-g4">
			<g id="kvg:06dea-g5">
				<path id="kvg:06dea-s6" d="M50.16,44.35c0.99,0.31,2.81,0.4,3.8,0.31c6.32-0.54,13.9-1.47,20.99-1.77c1.65-0.07,2.64,0.15,3.47,0.3"/>
			</g>
			<g id="kvg:06dea-g6">
				<g id="kvg:06dea-g7">
					<path id="kvg:06dea-s7" d="M42.32,55.05c0.53,0.67,1.17,1.73,1.26,2.94c0.49,6.55-0.27,31.44,0.4,38.09"/>
					<path id="kvg:06dea-s8" d="M44.14,58.58c6.67-0.54,39.12-3.97,40.43-4.15c2.81-0.4,3.83,2.81,3.86,4.15c0.15,7.14-0.46,18.43-0.46,31.17c0,8.41-2.17,4.66-5.74,1.72"/>
				</g>
				<g id="kvg:06dea-g8">
					<g id="kvg:06dea-g9">
						<path id="kvg:06dea-s9" d="M44.66,74.69C50,74.23,81,71.25,88.29,71.56"/>
					</g>
					<g id="kvg:06dea-g10">
						<path id="kvg:06dea-s10" d="M56.28,59.67c0.78,0.84,1.33,1.32,1.39,4.1c0.32,13.35-0.02,25.78-0.02,30.33"/>
					</g>
					<g id="kvg:06dea-g11">
						<path id="kvg:06dea-s11" d="M69.59,58.5c0.78,0.84,1.33,1.32,1.39,4.1c0.32,13.35-0.02,26.4-0.02,30.95"/>
					</g>
				</g>
			</g>
		</g>
	</g>
</g>
</g>
<g id="kvg:StrokeNumbers_06dea">
	<text transform="matrix(1 0 0 1 9.75 15.88)">1</text>
	<text transform="matrix(1 0 0 1 6.25 41.55)">2</text>
	<text transform="matrix(1 0 0 1 9.50 97.23)">3</text>
	<text transform="matrix(1 0 0 1 54.50 11.50)">4</text>
	<text transform="matrix(1 0 0 1 69.50 20.50)">5</text>
	<text transform="matrix(1 0 0 1 53.50 41.50)">6</text>
	<text transform="matrix(1 0 0 1 36.50 65.50)">7</text>
	<text transform="matrix(1 0 0 1 46.50 54.85)">8</text>
	<text transform="matrix(1 0 0 1 47.50 70.78)">9</text>
	<text transform="matrix(1 0 0 1 60.00 65.50)">10</text>
	<text transform="matrix(1 0 0 1 73.50 64.50)">11</text>
</g>
</svg>
