<svg width="109" height="109" viewBox="0 0 109 109">
<g id="kvg:StrokePaths_06e19">
<g id="kvg:06e19">
	<g id="kvg:06e19-g1">
		<path id="kvg:06e19-s1" d="M21.13,15.75c3.92,1.56,10.13,6.41,11.12,8.84"/>
		<path id="kvg:06e19-s2" d="M14.5,40.5c4.41,1.68,11.4,6.89,12.5,9.5"/>
		<path id="kvg:06e19-s3" d="M14.75,85.73c1.71,1.27,3.78,1.32,4.86-0.25c3.14-4.57,6.29-12.66,9.14-18.49"/>
	</g>
	<g id="kvg:06e19-g2">
		<g id="kvg:06e19-g3">
			<g id="kvg:06e19-g4">
				<path id="kvg:06e19-s4" d="M57.1,11.5c0.06,0.56,0.29,1.54-0.11,2.24C54.46,18.2,47,29.03,38,36.25"/>
				<path id="kvg:06e19-s5" d="M55.3,18.76c3.86,0,15.53-1.18,19.95-2.51c2.5-0.75,4.25,1.25,2.6,3.05c-3.65,3.99-6.35,7.95-12.35,16.2"/>
			</g>
			<g id="kvg:06e19-g5">
				<path id="kvg:06e19-s6" d="M44.75,36.25c0.66,0.86,1.38,1.98,1.58,3.42c1.2,8.94,0.83,13.63,1.92,25.33"/>
				<path id="kvg:06e19-s7" d="M46.39,37.65c11.61-1.4,32.07-3.23,38.75-3.42c2.77-0.08,3.79,2.16,3.6,3.94C88.5,40.5,86,55.5,84.48,63.39"/>
			</g>
			<g id="kvg:06e19-g6">
				<g id="kvg:06e19-g7">
					<path id="kvg:06e19-s8" d="M59.35,39.75c0.04,0.4,0.62,1.01,0.59,1.59c-0.25,5.12-2.31,9.89-7.67,13.91"/>
				</g>
				<g id="kvg:06e19-g8">
					<path id="kvg:06e19-s9" d="M68.27,38.21c0.57,1.07,1.05,2.34,1.05,3.99c0,2.23-0.17,3.92-0.17,5.51c0,4.33,1.93,6.11,5.62,6.11c3.34,0,5.79,0,7.21-1.4"/>
				</g>
			</g>
		</g>
		<g id="kvg:06e19-g9">
			<path id="kvg:06e19-s10" d="M36.59,71.83c2.16,0.42,3.87,0.37,5.08,0.32C51.75,71.75,80.5,70,92.22,69.61c1.56-0.05,4.28,0.14,5.91,0.76"/>
			<path id="kvg:06e19-s11" d="M64.9,57.42c0.3,1.19,0.39,1.65,0.29,2.78C63.5,80.75,57,90.75,35.62,97"/>
			<path id="kvg:06e19-s12" d="M65.2,70.89c5.86,5.88,19.55,20.33,25.4,24.26c1.99,1.34,2.69,1.54,3.59,1.67"/>
		</g>
	</g>
</g>
</g>
<g id="kvg:StrokeNumbers_06e19">
	<text transform="matrix(1 0 0 1 13.50 16.50)">1</text>
	<text transform="matrix(1 0 0 1 7.25 40.50)">2</text>
	<text transform="matrix(1 0 0 1 7.50 88.50)">3</text>
	<text transform="matrix(1 0 0 1 48.50 12.50)">4</text>
	<text transform="matrix(1 0 0 1 63.00 14.92)">5</text>
	<text transform="matrix(1 0 0 1 39.50 45.35)">6</text>
	<text transform="matrix(1 0 0 1 50.50 33.50)">7</text>
	<text transform="matrix(1 0 0 1 52.25 45.95)">8</text>
	<text transform="matrix(1 0 0 1 63.50 49.50)">9</text>
	<text transform="matrix(1 0 0 1 32.50 68.50)">10</text>
	<text transform="matrix(1 0 0 1 54.50 62.50)">11</text>
	<text transform="matrix(1 0 0 1 77.50 81.50)">12</text>
</g>
</svg>
