<svg width="109" height="109" viewBox="0 0 109 109">
<g id="kvg:StrokePaths_06e82">
<g id="kvg:06e82">
	<g id="kvg:06e82-g1">
		<path id="kvg:06e82-s1" d="M16.88,19.25c3.66,1.34,9.45,5.51,10.37,7.59"/>
		<path id="kvg:06e82-s2" d="M12.5,44c4.77,1.81,12.31,7.44,13.5,10.25"/>
		<path id="kvg:06e82-s3" d="M14.25,88.96c1.5,1.31,3.31,1.36,4.25-0.25c2.75-4.7,7.5-15.45,10-21.45"/>
	</g>
	<g id="kvg:06e82-g2">
		<g id="kvg:06e82-g3">
			<g id="kvg:06e82-g4">
				<path id="kvg:06e82-s4" d="M35.05,27.54c0.74,0.39,3.32,0.63,4.06,0.57c6.22-0.53,19.61-2.42,26.27-2.79c1.23-0.07,3.2,0.18,3.82,0.38"/>
			</g>
			<g id="kvg:06e82-g5">
				<path id="kvg:06e82-s5" d="M36.48,39.19c0.24,0.36,0.48,0.66,0.59,1.1c0.83,3.54,3.29,12.16,3.86,18.53"/>
				<path id="kvg:06e82-s6" d="M37.97,41.12c7.18-1.54,25.73-2.97,28.54-3.33c1.75-0.22,2.85,2.3,2.39,4.35c-1.24,5.5-1.54,6.93-2.52,11.14"/>
				<path id="kvg:06e82-s7" d="M41.04,56.23c8.62-0.89,20.36-1.76,26.84-2.43"/>
			</g>
			<g id="kvg:06e82-g6">
				<path id="kvg:06e82-s8" d="M51.63,11c1.07,0.5,1.71,2.23,1.93,3.22c0.21,0.99,0,76.58-0.21,82.78"/>
				<path id="kvg:06e82-s9" d="M53.26,55.86C49.21,65.5,38.69,79.14,30.27,84.6"/>
				<path id="kvg:06e82-s10" d="M56.21,66.88c6.12,2.82,11.05,8.37,14.14,14"/>
			</g>
		</g>
		<g id="kvg:06e82-g7">
			<path id="kvg:06e82-s11" d="M78.16,28.14c0.81,0.87,1.38,1.89,1.44,4.77c0.33,13.85-0.02,31.43-0.02,36.15"/>
			<path id="kvg:06e82-s12" d="M93.5,13.32c0.86,0.91,1.47,1.97,1.54,4.97c0.35,14.41-0.23,67.45-0.23,72.36c0,13.01-6.32,1.49-7.64,0.25"/>
		</g>
	</g>
</g>
</g>
<g id="kvg:StrokeNumbers_06e82">
	<text transform="matrix(1 0 0 1 9.50 18.50)">1</text>
	<text transform="matrix(1 0 0 1 4.50 44.50)">2</text>
	<text transform="matrix(1 0 0 1 6.50 92.48)">3</text>
	<text transform="matrix(1 0 0 1 34.50 24.50)">4</text>
	<text transform="matrix(1 0 0 1 31.25 49.08)">5</text>
	<text transform="matrix(1 0 0 1 41.00 37.00)">6</text>
	<text transform="matrix(1 0 0 1 43.50 53.50)">7</text>
	<text transform="matrix(1 0 0 1 42.50 11.50)">8</text>
	<text transform="matrix(1 0 0 1 40.50 67.50)">9</text>
	<text transform="matrix(1 0 0 1 57.50 65.50)">10</text>
	<text transform="matrix(1 0 0 1 72.50 24.38)">11</text>
	<text transform="matrix(1 0 0 1 82 11)">12</text>
</g>
</svg>
