<svg width="109" height="109" viewBox="0 0 109 109">
<g id="kvg:StrokePaths_06eb2">
<g id="kvg:06eb2">
	<g id="kvg:06eb2-g1">
		<path id="kvg:06eb2-s1" d="M19.88,15.75c4.19,1.56,10.82,6.41,11.87,8.84"/>
		<path id="kvg:06eb2-s2" d="M15,39.5c4.41,1.85,11.4,7.62,12.5,10.5"/>
		<path id="kvg:06eb2-s3" d="M16.25,89.73c1.71,1.27,3.78,1.32,4.86-0.25c3.14-4.57,9.79-16.66,12.64-22.49"/>
	</g>
	<g id="kvg:06eb2-g2">
		<g id="kvg:06eb2-g3">
			<g id="kvg:06eb2-g4">
				<path id="kvg:06eb2-s4" d="M64.13,11.75c1.04,0.48,1.66,2.17,1.87,3.14s0,40.35-0.21,46.39"/>
				<path id="kvg:06eb2-s5" d="M55.87,17.53c0.04,0.29-0.21,1.4-0.45,1.71c-3.21,4.09-5.7,7.17-13.01,10.43"/>
				<path id="kvg:06eb2-s6" d="M40.11,27.68c0.92,0.73,1.29,2.36,1.52,3.86c0.83,5.47,2.41,16.12,3.25,23.52"/>
				<path id="kvg:06eb2-s7" d="M42.73,39.27c3.82-0.33,12.53-2.13,13.44-2.13c0.91,0,2.18,0,2.91,0"/>
				<path id="kvg:06eb2-s8" d="M44.98,53.02c3.47-0.33,11.38-1.63,12.2-1.63s1.98,0,2.64,0"/>
				<path id="kvg:06eb2-s9" d="M72.98,22.93c0.83,0.16,1.49,0.49,2.64,0.49s11.54-1.98,12.86-2.14s2.41,0.82,2.31,1.81c-0.99,9.56-2.72,28.07-2.88,28.73"/>
				<path id="kvg:06eb2-s10" d="M72.89,34.99c0.83,0.16,1.49,0.49,2.64,0.49s12.54-1.33,13.86-1.5"/>
			</g>
			<g id="kvg:06eb2-g5">
				<path id="kvg:06eb2-s11" d="M72.39,48.99c0.83,0.16,1.49,0.49,2.64,0.49s11.54-0.83,12.86-1"/>
			</g>
		</g>
		<g id="kvg:06eb2-g6">
			<path id="kvg:06eb2-s12" d="M47.89,64.41c1.66,0.27,1.89,0.88,5.19,0.27c5.19-0.96,27.7-3.47,29.99-3.89c2.28-0.41,3.27,2.61,2.28,3.98C73.52,81.38,56.62,92.28,37.93,99"/>
			<path id="kvg:06eb2-s13" d="M51.72,71.3c5.85,0.14,22.93,16.11,36.49,22.48c2.11,0.99,3.65,1.65,5.62,1.98"/>
		</g>
	</g>
</g>
</g>
<g id="kvg:StrokeNumbers_06eb2">
	<text transform="matrix(1 0 0 1 11.75 16.13)">1</text>
	<text transform="matrix(1 0 0 1 7.75 41.55)">2</text>
	<text transform="matrix(1 0 0 1 8.25 94.23)">3</text>
	<text transform="matrix(1 0 0 1 58.50 8.50)">4</text>
	<text transform="matrix(1 0 0 1 47.50 17.50)">5</text>
	<text transform="matrix(1 0 0 1 34.50 36.50)">6</text>
	<text transform="matrix(1 0 0 1 48.50 35.50)">7</text>
	<text transform="matrix(1 0 0 1 48.50 49.50)">8</text>
	<text transform="matrix(1 0 0 1 72.50 20.50)">9</text>
	<text transform="matrix(1 0 0 1 70.50 32.20)">10</text>
	<text transform="matrix(1 0 0 1 70.50 46.38)">11</text>
	<text transform="matrix(1 0 0 1 37.75 64.50)">12</text>
	<text transform="matrix(1 0 0 1 42.50 75.50)">13</text>
</g>
</svg>
