<svg width="109" height="109" viewBox="0 0 109 109">
<g id="kvg:StrokePaths_06ecb">
<g id="kvg:06ecb">
	<g id="kvg:06ecb-g1">
		<path id="kvg:06ecb-s1" d="M22.01,18c3.97,1.38,10.25,5.69,11.24,7.84"/>
		<path id="kvg:06ecb-s2" d="M14.88,41.25c4.02,1.32,10.37,5.44,11.38,7.5"/>
		<path id="kvg:06ecb-s3" d="M14.25,87.86c1.25,0.65,2.54,0.41,3.28-0.95c2.74-4.98,5.48-11.06,7.97-17.41"/>
	</g>
	<g id="kvg:06ecb-g2">
		<g id="kvg:06ecb-g3">
			<g id="kvg:06ecb-g4">
				<g id="kvg:06ecb-g5">
					<path id="kvg:06ecb-s4" d="M50.32,19.61c2.73,2.12,7.05,8.7,7.74,11.99"/>
				</g>
			</g>
			<path id="kvg:06ecb-s5" d="M82.11,17.39c0.14,0.7-0.16,1.83-0.39,2.34c-1.97,4.4-5.27,9.84-7.6,12.65"/>
			<path id="kvg:06ecb-s6" d="M37.38,38.68c2.87,0.44,5.81,0.4,8.49,0.19c11.66-0.91,23.62-2.46,42.77-3.41c2.82-0.14,5.55-0.09,8.33,0.51"/>
		</g>
		<g id="kvg:06ecb-g6">
			<g id="kvg:06ecb-g7">
				<g id="kvg:06ecb-g8">
					<path id="kvg:06ecb-s7" d="M50.27,46.6c0.23,0.92,0.3,2.11-0.12,3.1c-1.93,4.57-5.64,10.34-8.99,15.42c-0.66,1.01-1.16,1.88,0,2.29c2.89,1.01,6.2,2.7,8.31,4.38"/>
					<path id="kvg:06ecb-s8" d="M60.77,55.66c0.48,1.34,0.1,2.84-0.83,4.19c-5.73,8.36-13.31,17.52-22.78,28.46c-1.09,1.26-0.4,2.44,0.9,2.08c8.95-2.46,13.08-3.64,20.83-5.92"/>
					<path id="kvg:06ecb-s9" d="M55.85,77.19c2.68,2.77,6.92,11.4,7.59,15.71"/>
				</g>
			</g>
			<g id="kvg:06ecb-g9">
				<g id="kvg:06ecb-g10">
					<path id="kvg:06ecb-s10" d="M80.57,45.76c0.25,1.03,0.34,2.01-0.12,3.17c-2.32,5.81-5.97,11.62-9.06,16.1c-1.01,1.46-0.38,2.21,0.75,2.58c2.68,0.88,4.99,2,8.63,3.73"/>
					<path id="kvg:06ecb-s11" d="M90.39,54.96c0.3,1.13,0.15,3.42-0.28,4.08C84.76,67.35,80.18,74,72.48,84.21c-1.43,1.89-1.57,3.62,1.62,2.56c6.56-2.19,9.53-3.26,17.02-5.51"/>
					<path id="kvg:06ecb-s12" d="M88.79,75.1c2.36,2.73,6.08,11.21,6.67,15.46"/>
				</g>
			</g>
		</g>
	</g>
</g>
</g>
<g id="kvg:StrokeNumbers_06ecb">
	<text transform="matrix(1 0 0 1 15.50 19.50)">1</text>
	<text transform="matrix(1 0 0 1 8.25 42.50)">2</text>
	<text transform="matrix(1 0 0 1 6.50 89.50)">3</text>
	<text transform="matrix(1 0 0 1 42.75 18.50)">4</text>
	<text transform="matrix(1 0 0 1 73.50 16.50)">5</text>
	<text transform="matrix(1 0 0 1 36.75 35.50)">6</text>
	<text transform="matrix(1 0 0 1 42.75 49.50)">7</text>
	<text transform="matrix(1 0 0 1 53.25 57.50)">8</text>
	<text transform="matrix(1 0 0 1 58.50 75.50)">9</text>
	<text transform="matrix(1 0 0 1 70.50 47.50)">10</text>
	<text transform="matrix(1 0 0 1 81.50 57.50)">11</text>
	<text transform="matrix(1 0 0 1 88.50 74.50)">12</text>
</g>
</svg>
