<svg width="109" height="109" viewBox="0 0 109 109">
<g id="kvg:StrokePaths_06efe">
<g id="kvg:06efe">
	<g id="kvg:06efe-g1">
		<path id="kvg:06efe-s1" d="M18.63,16c4.45,1.78,11.5,7.32,12.62,10.09"/>
		<path id="kvg:06efe-s2" d="M15,42.5c4.77,1.85,12.31,7.62,13.5,10.5"/>
		<path id="kvg:06efe-s3" d="M17.75,90.23c1.71,1.27,3.78,1.32,4.86-0.25c3.14-4.57,6.29-10.16,9.14-15.99"/>
	</g>
	<g id="kvg:06efe-g2">
		<g id="kvg:06efe-g3">
			<g id="kvg:06efe-g4">
				<g id="kvg:06efe-g5">
					<g id="kvg:06efe-g6">
						<path id="kvg:06efe-s4" d="M63.14,11.35c0.83,0.57,2.21,2.79,2.21,3.93c0,4.21-0.26,4.42-0.11,7.98"/>
						<path id="kvg:06efe-s5" d="M40.11,24.74c1.29,0.12,4.22,0.8,5.47,0.63c10.1-1.33,29.57-2.64,43.29-2.98c2.12-0.05,3.2,0.05,4.78,0.81"/>
					</g>
				</g>
			</g>
		</g>
		<g id="kvg:06efe-g7">
			<g id="kvg:06efe-g8">
				<g id="kvg:06efe-g9">
					<path id="kvg:06efe-s6" d="M54.69,29.39c0.04,0.32,0.09,0.83-0.08,1.28c-1,2.71-6.74,8.65-14.6,12.29"/>
				</g>
				<g id="kvg:06efe-g10">
					<path id="kvg:06efe-s7" d="M74.44,28.33c6.26,2.19,16.17,8.98,17.74,12.38"/>
				</g>
			</g>
			<g id="kvg:06efe-g11">
				<g id="kvg:06efe-g12">
					<path id="kvg:06efe-s8" d="M49.74,42.47c0.32,0.29,0.66,0.54,0.8,0.91c1.13,2.91,2.06,10.37,2.83,15.59"/>
					<path id="kvg:06efe-s9" d="M51.76,43.46c7.95-1.22,22.95-2.79,27.05-3.2c1.5-0.15,2.9,2.02,2.68,2.9c-0.89,3.66-1.57,5.54-3.05,11.67"/>
					<path id="kvg:06efe-s10" d="M54.1,57.11c4.81-0.46,20.1-1.35,26.21-1.82"/>
				</g>
			</g>
			<g id="kvg:06efe-g13">
				<path id="kvg:06efe-s11" d="M62.53,58.41c0.08,0.56-0.08,2.08-0.65,2.75C57.75,66,50,75,35.56,82.17"/>
				<path id="kvg:06efe-s12" d="M53.12,74.75c0.38,0.46,0.79,0.9,0.78,1.7c-0.02,10.04-0.75,15.88-0.75,17.58c0,1.7,1.93,2.17,3.1,0.89c1.18-1.27,13.26-10.07,14.83-11.34"/>
				<path id="kvg:06efe-s13" d="M85.2,62.39c0.03,0.27,0.3,1.3,0.13,1.65c-1.05,2.22-4.34,5.4-9.69,9.82"/>
				<path id="kvg:06efe-s14" d="M64.99,63.08c5.64,6.2,19.94,21.21,23.95,24.61c1.51,1.28,2.8,1.83,4.31,2.2"/>
			</g>
		</g>
	</g>
</g>
</g>
<g id="kvg:StrokeNumbers_06efe">
	<text transform="matrix(1 0 0 1 10.50 15.88)">1</text>
	<text transform="matrix(1 0 0 1 7.50 42.50)">2</text>
	<text transform="matrix(1 0 0 1 9.50 93.50)">3</text>
	<text transform="matrix(1 0 0 1 54.75 10.65)">4</text>
	<text transform="matrix(1 0 0 1 43.50 18.33)">5</text>
	<text transform="matrix(1 0 0 1 45.50 33.50)">6</text>
	<text transform="matrix(1 0 0 1 65.50 32.50)">7</text>
	<text transform="matrix(1 0 0 1 43.50 50.50)">8</text>
	<text transform="matrix(1 0 0 1 56.50 39.50)">9</text>
	<text transform="matrix(1 0 0 1 56.50 53.50)">10</text>
	<text transform="matrix(1 0 0 1 45.50 67.50)">11</text>
	<text transform="matrix(1 0 0 1 43.50 86.50)">12</text>
	<text transform="matrix(1 0 0 1 75.25 63.98)">13</text>
	<text transform="matrix(1 0 0 1 60.50 72.15)">14</text>
</g>
</svg>
