<svg width="109" height="109" viewBox="0 0 109 109">
<g id="kvg:StrokePaths_06f06">
<g id="kvg:06f06">
	<g id="kvg:06f06-g1">
		<path id="kvg:06f06-s1" d="M21.38,18.25c3.66,1.3,9.45,5.33,10.37,7.34"/>
		<path id="kvg:06f06-s2" d="M14.75,40.5c3.79,1.15,9.8,5.22,10.75,7"/>
		<path id="kvg:06f06-s3" d="M12.36,90.86c1.54,0.26,2.6-0.13,3.34-1.65c2.73-5.67,4.95-11.6,7.43-18.83"/>
	</g>
	<g id="kvg:06f06-g2">
		<g id="kvg:06f06-g3">
			<g id="kvg:06f06-g4">
				<path id="kvg:06f06-s4" d="M40.41,24.87c2.04,0.66,4.75,0.51,6.87,0.27c7.16-0.81,19.94-2.72,28.61-3.51c2.19-0.2,4.23-0.37,6.41,0.07"/>
				<path id="kvg:06f06-s5" d="M58.79,11.1c0.88,0.88,1.09,2.12,1.09,3.65c0,8.26-0.02,16.4,0.04,23c0.02,2.18,0.02,4.13-0.02,5.75"/>
				<path id="kvg:06f06-s6" d="M58.7,24.69c0,1.06-0.43,2.29-1.89,4.08C50.7,36.26,40.69,45.01,32.56,48.7"/>
				<path id="kvg:06f06-s7" d="M63.75,28.5c6.75,2.25,15,7.75,19.75,13"/>
			</g>
			<path id="kvg:06f06-s8" d="M58.45,42.75c0,1.12-0.34,2.15-0.92,3.02C53.25,52.25,44.62,61.62,27.96,71"/>
			<path id="kvg:06f06-s9" d="M59.49,44.49c4.12,3.35,17.94,12.31,26.13,17.14c2.91,1.72,6.09,3.16,9.17,4.54"/>
		</g>
		<g id="kvg:06f06-g5">
			<path id="kvg:06f06-s10" d="M60.55,58.08c0.87,0.87,1.03,2.42,1.03,4.03c0,11.96,0.04,24.42,0.04,28.49c0,9.64-4.42,2.23-5.65,1.21"/>
			<path id="kvg:06f06-s11" d="M44.81,66.14c2.64,1.13,6.82,4.64,7.48,6.39"/>
			<path id="kvg:06f06-s12" d="M37.32,87.31c1.14,0.66,2.18,0.83,3.38,0.1c0.86-0.52,7.78-5.16,11.42-7.66"/>
			<path id="kvg:06f06-s13" d="M78.33,64.43c0.08,0.76-0.11,1.45-0.54,2.09c-1.28,1.61-3.28,3.86-7.44,7.08"/>
			<path id="kvg:06f06-s14" d="M69.46,79.07c3.35,0.8,12.05,7.12,13.33,9.7"/>
		</g>
	</g>
</g>
</g>
<g id="kvg:StrokeNumbers_06f06">
	<text transform="matrix(1 0 0 1 12.50 18.13)">1</text>
	<text transform="matrix(1 0 0 1 6.75 40.50)">2</text>
	<text transform="matrix(1 0 0 1 3.50 93.50)">3</text>
	<text transform="matrix(1 0 0 1 38.25 22.50)">4</text>
	<text transform="matrix(1 0 0 1 49.50 11.50)">5</text>
	<text transform="matrix(1 0 0 1 44.50 35.50)">6</text>
	<text transform="matrix(1 0 0 1 75.50 31.50)">7</text>
	<text transform="matrix(1 0 0 1 47.50 49.50)">8</text>
	<text transform="matrix(1 0 0 1 67.50 47.50)">9</text>
	<text transform="matrix(1 0 0 1 50.50 64.50)">10</text>
	<text transform="matrix(1 0 0 1 37.50 73.63)">11</text>
	<text transform="matrix(1 0 0 1 27.50 91.50)">12</text>
	<text transform="matrix(1 0 0 1 68.50 65.50)">13</text>
	<text transform="matrix(1 0 0 1 76.50 80.50)">14</text>
</g>
</svg>
