<svg width="109" height="109" viewBox="0 0 109 109">
<g id="kvg:StrokePaths_06f32">
<g id="kvg:06f32">
	<g id="kvg:06f32-g1">
		<path id="kvg:06f32-s1" d="M15.88,18.5c4.19,1.78,10.82,7.32,11.87,10.09"/>
		<path id="kvg:06f32-s2" d="M12.25,42.25c4.32,1.9,11.17,7.8,12.25,10.75"/>
		<path id="kvg:06f32-s3" d="M10.75,88.23c1.71,1.27,3.78,1.32,4.86-0.25c3.14-4.57,6.79-11.66,9.64-17.49"/>
	</g>
	<g id="kvg:06f32-g2">
		<g id="kvg:06f32-g3">
			<path id="kvg:06f32-s4" d="M33.16,20.83c1.34,0.42,3.27,0.79,4.1,0.54c0.68-0.2,12.1-2.26,14-2.77c2.2-0.6,3.45,1.34,2.78,3.38c-0.67,2.04-2.95,11.49-3.4,14.47"/>
			<path id="kvg:06f32-s5" d="M38.75,38.75c1.75,0,9-1.5,10.25-1.5s2.5-0.5,3.5-0.5"/>
			<path id="kvg:06f32-s6" d="M37.7,36.87c0.39,0.96,0.3,2.87,0.05,4.38c-0.29,1.73-2.85,12.05-3.37,12.83c-1.13,1.67-0.1,3.56,2.44,3.05c4.44-0.88,8.9-1.53,11.87-2.18c2.07-0.45,2.57,1.7,2.42,3.42C50.33,67.21,48.5,82,43.16,90.76c-2.97,4.87-5.91,2.24-7.57-1.16"/>
		</g>
		<g id="kvg:06f32-g4">
			<path id="kvg:06f32-s7" d="M63.42,17.75c0.84,1.5,0.84,1.75,0.84,3.25s0.28,30,0.28,32.25"/>
			<path id="kvg:06f32-s8" d="M64.65,18.55c8.37-0.2,20.33-2.84,22.18-2.84c1.46,0,0.54,0,2.23,0"/>
			<path id="kvg:06f32-s9" d="M64.68,29.61c6.48-0.19,16.26-2.25,17.7-2.25c1.13,0,1.56-0.19,2.5,0"/>
			<path id="kvg:06f32-s10" d="M65.39,40.84c7.34-0.2,14.97-1.83,17.68-2.23c1.27-0.19,2.09-0.2,3.51-0.2"/>
			<path id="kvg:06f32-s11" d="M55.9,53.31c0.84,0.25,2.39,0.29,3.24,0.25c8.79-0.41,24.97-2.52,33.24-3.08c1.4-0.09,2.25,0.12,2.96,0.24"/>
			<path id="kvg:06f32-s12" d="M63.49,56.5c0.76,1.71,0.71,2.45,0.71,4.89c0,11.56-0.23,28.14-0.23,30.09c0,1.96,1.53,2.29,2.9,1.1c2.39-2.09,8.13-8.11,9.55-9.58"/>
			<path id="kvg:06f32-s13" d="M89.57,57.75c0.03,0.25,0.28,1.22,0.12,1.55c-0.98,2.08-4.05,5.06-9.06,9.2"/>
			<path id="kvg:06f32-s14" d="M70.16,60.25C74,61,88.68,85.97,93.91,89.69c1.25,0.89,2,1.29,3.34,1.81"/>
		</g>
	</g>
</g>
</g>
<g id="kvg:StrokeNumbers_06f32">
	<text transform="matrix(1 0 0 1 8.50 18.38)">1</text>
	<text transform="matrix(1 0 0 1 4.50 42.50)">2</text>
	<text transform="matrix(1 0 0 1 3.50 90.50)">3</text>
	<text transform="matrix(1 0 0 1 31.50 17.50)">4</text>
	<text transform="matrix(1 0 0 1 37.50 35.50)">5</text>
	<text transform="matrix(1 0 0 1 30.25 43.50)">6</text>
	<text transform="matrix(1 0 0 1 56.75 28.50)">7</text>
	<text transform="matrix(1 0 0 1 65.50 15.50)">8</text>
	<text transform="matrix(1 0 0 1 68.50 26.50)">9</text>
	<text transform="matrix(1 0 0 1 67.50 37.50)">10</text>
	<text transform="matrix(1 0 0 1 54.50 50.50)">11</text>
	<text transform="matrix(1 0 0 1 54.50 63.50)">12</text>
	<text transform="matrix(1 0 0 1 78.25 60.32)">13</text>
	<text transform="matrix(1 0 0 1 66.50 72.50)">14</text>
</g>
</svg>
