<svg width="109" height="109" viewBox="0 0 109 109">
<g id="kvg:StrokePaths_06fc6">
<g id="kvg:06fc6">
	<g id="kvg:06fc6-g1">
		<path id="kvg:06fc6-s1" d="M17.88,17c4.72,1.69,12.19,6.96,13.37,9.59"/>
		<path id="kvg:06fc6-s2" d="M15,43.25c4.77,1.63,12.31,6.71,13.5,9.25"/>
		<path id="kvg:06fc6-s3" d="M17.25,90.23c1.71,1.27,3.78,1.32,4.86-0.25c3.14-4.57,7.79-13.16,10.64-18.99"/>
	</g>
	<g id="kvg:06fc6-g2">
		<g id="kvg:06fc6-g3">
			<g id="kvg:06fc6-g4">
				<path id="kvg:06fc6-s4" d="M46.25,20.01c0.77,0.22,2.82,0.83,4.86,0.66c8.35-0.66,23.39-2.42,35.06-3.6c2.04-0.21,2.56-0.22,3.83,0"/>
				<path id="kvg:06fc6-s5" d="M65.19,9.25c0.75,0.35,1.33,1.54,1.36,2.25c0.21,6.25,1,14.43,0.85,18.75"/>
			</g>
			<g id="kvg:06fc6-g5">
				<g id="kvg:06fc6-g6">
					<path id="kvg:06fc6-s6" d="M40.16,37.45c1.43,0.3,3.1,0.36,4.53,0.3c13.16-0.55,31.3-2.5,46.13-3.81c2.38-0.21,3.82,0.14,5.01,0.29"/>
				</g>
				<g id="kvg:06fc6-g7">
					<path id="kvg:06fc6-s7" d="M54.48,27.43c0.95,1.02,1.33,1.32,1.35,1.95c0.17,6.37,0.76,11.37,1.03,13.49"/>
				</g>
				<g id="kvg:06fc6-g8">
					<path id="kvg:06fc6-s8" d="M80.28,25.63c0.23,0.83,0.41,1.43,0.27,2.48c-0.55,4.14-1.05,8.39-1.78,12.7"/>
				</g>
			</g>
		</g>
		<g id="kvg:06fc6-g9">
			<g id="kvg:06fc6-g10">
				<path id="kvg:06fc6-s9" d="M48.55,47.72c0.41,0.79,1,1.37,1,2.42c0,1.05,0.19,28.02-0.3,32.42"/>
				<path id="kvg:06fc6-s10" d="M50.23,49.53c2.31-0.13,31.89-3.22,34-3.37c1.75-0.13,3.19,1.09,3.19,3.16c0,2.33-0.52,30.16-0.52,30.92"/>
				<path id="kvg:06fc6-s11" d="M49.6,59.81c6-0.93,32.47-2.86,37.25-3.03"/>
				<path id="kvg:06fc6-s12" d="M49.79,69.47c6.51-0.56,28.94-2.33,37.09-2.77"/>
				<path id="kvg:06fc6-s13" d="M49.49,80.01c8.19-1.22,29.66-2.19,37.38-2.99"/>
			</g>
			<g id="kvg:06fc6-g11">
				<path id="kvg:06fc6-s14" d="M56.21,84.97c0.29,1.03,0,2.42-1,3.23c-3.02,2.45-9.33,7.48-15.37,10.38"/>
				<path id="kvg:06fc6-s15" d="M76.09,83.67c6.75,3.73,14.73,10.49,16.58,13.75"/>
			</g>
		</g>
	</g>
</g>
</g>
<g id="kvg:StrokeNumbers_06fc6">
	<text transform="matrix(1 0 0 1 11.50 18.50)">1</text>
	<text transform="matrix(1 0 0 1 7.50 44.50)">2</text>
	<text transform="matrix(1 0 0 1 9.50 92.50)">3</text>
	<text transform="matrix(1 0 0 1 38.50 20.50)">4</text>
	<text transform="matrix(1 0 0 1 56.50 10.50)">5</text>
	<text transform="matrix(1 0 0 1 32.50 37.50)">6</text>
	<text transform="matrix(1 0 0 1 45.50 30.50)">7</text>
	<text transform="matrix(1 0 0 1 71.50 29.10)">8</text>
	<text transform="matrix(1 0 0 1 41.50 54.50)">9</text>
	<text transform="matrix(1 0 0 1 60.25 45.50)">10</text>
	<text transform="matrix(1 0 0 1 54.50 56.50)">11</text>
	<text transform="matrix(1 0 0 1 54.50 66.50)">12</text>
	<text transform="matrix(1 0 0 1 54.50 76.50)">13</text>
	<text transform="matrix(1 0 0 1 41.50 89.50)">14</text>
	<text transform="matrix(1 0 0 1 68.50 90.50)">15</text>
</g>
</svg>
