<svg width="109" height="109" viewBox="0 0 109 109">
<g id="kvg:StrokePaths_0706b">
<g id="kvg:0706b">
	<path id="kvg:0706b-s1" d="M24.25,34c3.27,3.33,8.5,13,9.5,17.75"/>
	<path id="kvg:0706b-s2" d="M83,27.25c0.5,1.38,0.22,2.74-0.5,4.25c-2.38,5-7.5,12.12-12.75,17.25"/>
	<path id="kvg:0706b-s3" d="M52.5,14.25c1,1.25,1.5,3.12,1.5,5C54,69,39.62,80,21,91.5"/>
	<path id="kvg:0706b-s4" d="M52.75,50c12.49,14.06,25.01,28.42,33.62,36.13c2.7,2.42,4.9,4.02,8.38,4.87"/>
</g>
</g>
<g id="kvg:StrokeNumbers_0706b">
	<text transform="matrix(1 0 0 1 16.50 32.50)">1</text>
	<text transform="matrix(1 0 0 1 74.50 26.50)">2</text>
	<text transform="matrix(1 0 0 1 41.50 14.50)">3</text>
	<text transform="matrix(1 0 0 1 55.25 67.13)">4</text>
</g>
</svg>
