<svg width="109" height="109" viewBox="0 0 109 109">
<g id="kvg:StrokePaths_0707c">
<g id="kvg:0707c">
	<g id="kvg:0707c-g1">
		<path id="kvg:0707c-s1" d="M14.24,38.25c1.59,3.47,3.91,13.28,4.34,16.75"/>
		<path id="kvg:0707c-s2" d="M42.04,32c0.21,1.25,0.08,2.34-0.59,3.24c-0.67,0.9-6.6,6.92-9.98,9.01"/>
		<path id="kvg:0707c-s3" d="M28.25,16c0.76,0.75,1.02,2.25,1.03,3.5C29.5,71,25.75,79,13,91.75"/>
		<path id="kvg:0707c-s4" d="M30.5,65c4.45,2.87,10.08,11.94,11.25,16"/>
	</g>
	<g id="kvg:0707c-g2">
		<g id="kvg:0707c-g3">
			<g id="kvg:0707c-g4">
				<path id="kvg:0707c-s5" d="M65.02,15c0.05,0.77,0.1,1.98-0.09,3.09c-1.14,6.51-7.7,20.79-16.67,29.54"/>
			</g>
			<path id="kvg:0707c-s6" d="M58,37.37c0.85,0.67,3.48,0.68,4.89,0.45c6.61-1.07,21.58-4.6,24.97-4.82s5.16,1.75,4.9,6.5c-0.5,9.26-5.75,38.26-17.08,51.49c-2.84,3.32-6.18,0.52-8.92-2.12"/>
		</g>
		<g id="kvg:0707c-g5">
			<path id="kvg:0707c-s7" d="M53.02,59.9c1.22,0.35,2.23,0.55,3.45,0.5c3.64-0.15,8.49-1,10.98-1c1.87,0,2.25,0.1,3.87,0.5"/>
		</g>
	</g>
</g>
</g>
<g id="kvg:StrokeNumbers_0707c">
	<text transform="matrix(1 0 0 1 7.85 37.85)">1</text>
	<text transform="matrix(1 0 0 1 35.66 29.50)">2</text>
	<text transform="matrix(1 0 0 1 19.50 16.50)">3</text>
	<text transform="matrix(1 0 0 1 32.54 65.85)">4</text>
	<text transform="matrix(1 0 0 1 56.50 15.33)">5</text>
	<text transform="matrix(1 0 0 1 66.50 33.50)">6</text>
	<text transform="matrix(1 0 0 1 48.50 60.50)">7</text>
</g>
</svg>
