<svg width="109" height="109" viewBox="0 0 109 109">
<g id="kvg:StrokePaths_070af">
<g id="kvg:070af">
	<g id="kvg:070af-g1">
		<path id="kvg:070af-s1" d="M11.74,37.25c2.88,3.83,7.06,14.67,7.84,18.5"/>
		<path id="kvg:070af-s2" d="M41.06,30.25c0.73,0.87,1.06,2.03,0.4,3.38c-0.66,1.35-7.44,11.96-10.73,15.12"/>
		<path id="kvg:070af-s3" d="M26.75,14.25c0.76,0.79,1.52,1.84,1.53,3.15C28.5,71.55,24.5,82.33,12,96"/>
		<path id="kvg:070af-s4" d="M29.25,66.5c4.95,3.18,11.2,13.25,12.5,17.75"/>
	</g>
	<g id="kvg:070af-g2">
		<g id="kvg:070af-g3">
			<path id="kvg:070af-s5" d="M48.86,19.03c0.73,1.29,0.98,1.79,0.98,4.12c0,6.35,0.24,68.38,0.24,72.24"/>
			<path id="kvg:070af-s6" d="M50.13,21.5c6.96-0.97,36.28-4.71,37.81-4.86c6.37-0.66,6.07,2.46,5.84,7.03c-0.12,2.42,0.19,57.63,0.19,63.2c0,9.77-4.7,6.04-8.38,1.46"/>
		</g>
		<g id="kvg:070af-g4">
			<path id="kvg:070af-s7" d="M59.6,40.36c0.36,0.5,1.23,1.91,1.39,2.52c1.26,4.9,2.27,17.91,3.14,26.71"/>
			<path id="kvg:070af-s8" d="M61.36,42.32c8.14-1.32,14.01-2.77,18.27-3.47c1.56-0.26,2.49,1.52,2.27,3.03c-0.92,6.25-2.15,12.61-2.87,21.83"/>
			<path id="kvg:070af-s9" d="M64.3,65.78c5.2-0.53,12.95-1.53,16.29-1.39"/>
		</g>
	</g>
</g>
</g>
<g id="kvg:StrokeNumbers_070af">
	<text transform="matrix(1 0 0 1 5.50 37.85)">1</text>
	<text transform="matrix(1 0 0 1 33.50 27.50)">2</text>
	<text transform="matrix(1 0 0 1 17.50 14.50)">3</text>
	<text transform="matrix(1 0 0 1 32.54 66.50)">4</text>
	<text transform="matrix(1 0 0 1 42.25 26.33)">5</text>
	<text transform="matrix(1 0 0 1 53.50 17.50)">6</text>
	<text transform="matrix(1 0 0 1 53.50 47.50)">7</text>
	<text transform="matrix(1 0 0 1 63.50 38.50)">8</text>
	<text transform="matrix(1 0 0 1 68.50 62.50)">9</text>
</g>
</svg>
