<svg width="109" height="109" viewBox="0 0 109 109">
<g id="kvg:StrokePaths_070ba">
<g id="kvg:070ba">
	<g id="kvg:070ba-g1">
		<path id="kvg:070ba-s1" d="M32.77,17.58c3.19,2.05,8.24,8.44,9.04,11.63"/>
	</g>
	<g id="kvg:070ba-g2">
		<g id="kvg:070ba-g3">
			<path id="kvg:070ba-s2" d="M60.44,15.14c0.12,1.56-0.22,2.85-1,5C53.38,37,39.75,64.75,15.31,80.47"/>
		</g>
	</g>
	<path id="kvg:070ba-s3" d="M27.37,36.75c2.46,0.39,5,0.57,7.53,0.29c9.95-1.08,28.26-3.76,34.47-4.55c2.47-0.31,4.79-0.23,3.79,2.95c-0.65,2.07-2.06,6.21-3.42,10.06"/>
	<path id="kvg:070ba-s4" d="M45.77,49.34c9.08-0.91,23.91-2.76,28.12-3.24c2.28-0.26,3.61,0.6,2.76,2.95c-0.86,2.36-2.99,7.41-4.41,11.44"/>
	<g id="kvg:070ba-g4">
		<path id="kvg:070ba-s5" d="M39.25,63c1.25,0.75,2.95,0.75,5,0.5C48.38,63,79.82,60.02,88,59.36c4.75-0.39,5.92,0.95,4.84,5.57C91.25,71.69,87.45,82.49,82,92.25c-2.64,4.72-5.05,1.88-8-1.25"/>
	</g>
	<g id="kvg:070ba-g5">
		<path id="kvg:070ba-s6" d="M26.12,79.88c0.95,2,2.45,8.23,2.68,11.34"/>
		<path id="kvg:070ba-s7" d="M38.75,76.08c1.79,1.88,4.62,7.71,5.06,10.63"/>
		<path id="kvg:070ba-s8" d="M53,73.83c1.79,1.66,4.62,6.81,5.06,9.38"/>
		<path id="kvg:070ba-s9" d="M67.75,70.62c2.14,1.65,5.53,6.78,6.07,9.34"/>
	</g>
</g>
</g>
<g id="kvg:StrokeNumbers_070ba">
	<text transform="matrix(1 0 0 1 26.50 17.50)">1</text>
	<text transform="matrix(1 0 0 1 51.50 14.50)">2</text>
	<text transform="matrix(1 0 0 1 20.50 37.63)">3</text>
	<text transform="matrix(1 0 0 1 54.50 45.13)">4</text>
	<text transform="matrix(1 0 0 1 45.50 60.05)">5</text>
	<text transform="matrix(1 0 0 1 20.25 85.50)">6</text>
	<text transform="matrix(1 0 0 1 32.50 80.50)">7</text>
	<text transform="matrix(1 0 0 1 46.50 76.50)">8</text>
	<text transform="matrix(1 0 0 1 61.50 72.50)">9</text>
</g>
</svg>
