<svg width="109" height="109" viewBox="0 0 109 109">
<g id="kvg:StrokePaths_0716e">
<g id="kvg:0716e">
	<g id="kvg:0716e-g1">
		<g id="kvg:0716e-g2">
			<g id="kvg:0716e-g3">
				<path id="kvg:0716e-s1" d="M33.97,21.87c2.28,0.38,4.58,0.19,6.53,0.03c7.44-0.61,17.67-1.76,24.75-2.15c1.73-0.09,3.48-0.24,5.18,0.19"/>
				<path id="kvg:0716e-s2" d="M52.95,9.62c0.72,0.72,1.15,2.26,1.15,3.66c0,8.34-0.1,18.76-0.1,21.6"/>
				<path id="kvg:0716e-s3" d="M15.57,38.6c3.12,0.83,6.48,0.88,9.67,0.46c13.76-1.81,38.63-4.19,56.38-5.45c3.74-0.27,7.51-0.19,11.18,0.78"/>
			</g>
			<path id="kvg:0716e-s4" d="M80.49,13.67c0.17,1.09-0.05,2.66-1.08,4.12C65.38,37.62,49,47.88,17.97,61.23"/>
		</g>
		<g id="kvg:0716e-g4">
			<path id="kvg:0716e-s5" d="M41.41,51.13c0.43,0.64,0.86,1.46,0.86,2.31c0,0.51,0.01,11.56,0.01,19.94c0,1.85,0,3.53,0,4.89"/>
			<path id="kvg:0716e-s6" d="M42.98,50.99c5.49-0.64,21.11-2.26,26.9-2.79c3.16-0.29,4.84,0.41,4.83,3.8c-0.01,4.01-0.05,12.94-0.07,18.88c-0.01,2.72-0.02,4.8-0.02,5.5"/>
			<path id="kvg:0716e-s7" d="M43.66,62.75c5.59-0.62,24.34-2.12,30.24-2.28"/>
			<path id="kvg:0716e-s8" d="M43.51,75.36c6.67-0.46,21.82-1.93,30.13-2.32"/>
		</g>
	</g>
	<g id="kvg:0716e-g5">
		<path id="kvg:0716e-s9" d="M23.12,83.62c0,5.39-5.25,13.34-6.62,14.88"/>
		<path id="kvg:0716e-s10" d="M39.77,82.58c2.47,2.71,4.82,10.17,5.44,14.38"/>
		<path id="kvg:0716e-s11" d="M60.87,82.08c3.33,2.36,8.6,9.71,9.43,13.38"/>
		<path id="kvg:0716e-s12" d="M82,82.88c4.43,2.62,11.45,10.77,12.56,14.84"/>
	</g>
</g>
</g>
<g id="kvg:StrokeNumbers_0716e">
	<text transform="matrix(1 0 0 1 27.50 22.50)">1</text>
	<text transform="matrix(1 0 0 1 42.50 9.50)">2</text>
	<text transform="matrix(1 0 0 1 8.50 39.13)">3</text>
	<text transform="matrix(1 0 0 1 71.50 12.13)">4</text>
	<text transform="matrix(1 0 0 1 34.50 63.50)">5</text>
	<text transform="matrix(1 0 0 1 60.50 46.63)">6</text>
	<text transform="matrix(1 0 0 1 46.50 60.05)">7</text>
	<text transform="matrix(1 0 0 1 46.46 71.50)">8</text>
	<text transform="matrix(1 0 0 1 17.50 83.50)">9</text>
	<text transform="matrix(1 0 0 1 29.25 86.50)">10</text>
	<text transform="matrix(1 0 0 1 51.50 86.50)">11</text>
	<text transform="matrix(1 0 0 1 70.50 85.63)">12</text>
</g>
</svg>
