<svg width="109" height="109" viewBox="0 0 109 109">
<g id="kvg:StrokePaths_07164">
<g id="kvg:07164">
	<g id="kvg:07164-g1">
		<path id="kvg:07164-s1" d="M13.49,38c1.13,3.47,2.78,13.28,3.09,16.75"/>
		<path id="kvg:07164-s2" d="M38.16,31.25c0.63,0.7,0.92,1.62,0.35,2.7c-0.57,1.08-6.43,9.53-9.28,12.05"/>
		<path id="kvg:07164-s3" d="M25.44,15.25c0.67,0.71,1.34,1.67,1.34,2.86c0.19,49.02-3.32,58.77-14.28,71.14"/>
		<path id="kvg:07164-s4" d="M26.75,65c4.35,2.46,9.85,10.26,11,13.75"/>
	</g>
	<g id="kvg:07164-g2">
		<g id="kvg:07164-g3">
			<g id="kvg:07164-g4">
				<g id="kvg:07164-g5">
					<path id="kvg:07164-s5" d="M42.76,29.32c1.01,0.36,2.87,0.46,3.88,0.36c9.37-0.93,30.34-3.24,42.29-4.25c1.68-0.14,3.54,0.17,4.38,0.35"/>
					<path id="kvg:07164-s6" d="M54.41,17.09c0.72,0.33,1.25,1.49,1.3,2.17c0.29,3.98,1.04,25.48,1.36,33.03"/>
				</g>
				<path id="kvg:07164-s7" d="M78.39,14.26c0.73,0.33,1.16,1.5,1.31,2.17c0.14,0.67-0.5,29.41-0.65,33.59"/>
			</g>
			<path id="kvg:07164-s8" d="M56.66,39.27c2.83-0.33,19.81-2.01,21.81-2.01"/>
			<g id="kvg:07164-g6">
				<path id="kvg:07164-s9" d="M57.16,50.65c4.33-0.17,17.15-1.94,21.15-2.1"/>
			</g>
		</g>
		<g id="kvg:07164-g7">
			<path id="kvg:07164-s10" d="M43.26,65.94c1.61,0.58,3.45,0.76,5.3,0.58c9.44-0.94,26.35-2.73,40.62-3.84c1.84-0.14,2.99,0.1,4.84,0.51"/>
			<path id="kvg:07164-s11" d="M66.68,54.4c0.89,1.14,1.27,2.72,1.27,3.77c0,10.63-0.23,25.48-0.23,38.28"/>
			<path id="kvg:07164-s12" d="M66.93,65.61C60,76,51.75,84,37.84,91.32"/>
			<path id="kvg:07164-s13" d="M68.06,66.72c3.42,2.69,19.52,16.18,23.24,18.82c1.26,0.9,2.34,1.28,3.6,1.54"/>
		</g>
	</g>
</g>
</g>
<g id="kvg:StrokeNumbers_07164">
	<text transform="matrix(1 0 0 1 7.50 37.85)">1</text>
	<text transform="matrix(1 0 0 1 32.50 28.50)">2</text>
	<text transform="matrix(1 0 0 1 17.50 16.50)">3</text>
	<text transform="matrix(1 0 0 1 29.50 65.50)">4</text>
	<text transform="matrix(1 0 0 1 41.50 26.50)">5</text>
	<text transform="matrix(1 0 0 1 46.50 15.50)">6</text>
	<text transform="matrix(1 0 0 1 71.50 14.50)">7</text>
	<text transform="matrix(1 0 0 1 60.50 36.50)">8</text>
	<text transform="matrix(1 0 0 1 61.50 47.50)">9</text>
	<text transform="matrix(1 0 0 1 40.50 63.50)">10</text>
	<text transform="matrix(1 0 0 1 57.50 59.88)">11</text>
	<text transform="matrix(1 0 0 1 49.75 75.50)">12</text>
	<text transform="matrix(1 0 0 1 78.50 73.73)">13</text>
</g>
</svg>
