<svg width="109" height="109" viewBox="0 0 109 109">
<g id="kvg:StrokePaths_0718a">
<g id="kvg:0718a">
	<g id="kvg:0718a-g1">
		<g id="kvg:0718a-g2">
			<g id="kvg:0718a-g3">
				<path id="kvg:0718a-s1" d="M34.36,9.5c0.14,1.12-0.11,2.25-0.74,3.3c-3.43,5.71-8.07,11.74-12.07,16.86c-1.92,2.46-1.08,3.23,1.48,2.57c7.49-1.95,15.87-3.79,26.53-6.77"/>
				<path id="kvg:0718a-s2" d="M43.27,19.83c3.72,1.85,9.62,7.59,10.55,10.47"/>
			</g>
			<g id="kvg:0718a-g4">
				<path id="kvg:0718a-s3" d="M24.34,40.39c0.82,0.82,0.81,2.05,0.81,3.12c0,4.74-0.01,18.97-0.02,29.24c0,2.36-0.01,4.33-0.01,5.63"/>
				<path id="kvg:0718a-s4" d="M25.97,41.72c4.41-1.09,15.28-3.23,16.47-3.47c2.44-0.49,3.46,1.13,3.46,3.47c0,3.66,0.09,21.08,0.09,31.63c0,6.77-3.25,2.34-4.6,1.17"/>
				<path id="kvg:0718a-s5" d="M26.22,52.25c5.21-0.96,13.71-2.39,18.28-2.87"/>
				<path id="kvg:0718a-s6" d="M26.12,62.72c4.33-0.63,13.8-2.51,18.8-2.93"/>
			</g>
		</g>
		<g id="kvg:0718a-g5">
			<g id="kvg:0718a-g6">
				<path id="kvg:0718a-s7" d="M85.46,17.72c-0.34,1.16-1.01,2.16-1.99,2.67c-4.35,2.24-6.56,3.45-15.22,6.86"/>
				<path id="kvg:0718a-s8" d="M64.12,12.25c0.89,0.76,1.01,2,1.01,3.62c0,6.38,0.08,14.83,0.08,17.81c0,4.96,1.92,6.84,12.05,6.84c8.87,0,11.09-2.15,11.09-5.93"/>
			</g>
			<g id="kvg:0718a-g7">
				<path id="kvg:0718a-s9" d="M86.54,50.68c-0.29,1.07-1.04,1.82-1.83,2.34c-3.62,2.37-7.83,4.73-16.46,7.73"/>
				<path id="kvg:0718a-s10" d="M63.99,47.15c0.81,0.81,0.99,2.12,0.99,3.35c-0.01,4.88-0.07,12.28-0.07,16.19c0,4.43,2.16,6.31,13.31,6.31c10.29,0,12.01-2,12.01-5.65"/>
			</g>
		</g>
	</g>
	<g id="kvg:0718a-g8">
		<path id="kvg:0718a-s11" d="M21.25,85.5c0,5.25-5.35,13-6.75,14.5"/>
		<path id="kvg:0718a-s12" d="M38.52,84.33c3.49,2.47,6.81,9.28,7.69,13.13"/>
		<path id="kvg:0718a-s13" d="M60.12,83.75c3.15,2.33,8.14,9.59,8.93,13.22"/>
		<path id="kvg:0718a-s14" d="M81.5,82.5c4.34,2.55,11.22,10.5,12.31,14.47"/>
	</g>
</g>
</g>
<g id="kvg:StrokeNumbers_0718a">
	<text transform="matrix(1 0 0 1 28.25 9.25)">1</text>
	<text transform="matrix(1 0 0 1 43.25 16.80)">2</text>
	<text transform="matrix(1 0 0 1 16.50 46.73)">3</text>
	<text transform="matrix(1 0 0 1 30.50 35.65)">4</text>
	<text transform="matrix(1 0 0 1 30.50 49.08)">5</text>
	<text transform="matrix(1 0 0 1 30.50 59.00)">6</text>
	<text transform="matrix(1 0 0 1 78.25 17.25)">7</text>
	<text transform="matrix(1 0 0 1 59.25 8.25)">8</text>
	<text transform="matrix(1 0 0 1 75.50 50.20)">9</text>
	<text transform="matrix(1 0 0 1 56.25 45.25)">10</text>
	<text transform="matrix(1 0 0 1 13.25 84.13)">11</text>
	<text transform="matrix(1 0 0 1 28.25 85.05)">12</text>
	<text transform="matrix(1 0 0 1 50.25 85.25)">13</text>
	<text transform="matrix(1 0 0 1 71.25 84.25)">14</text>
</g>
</svg>
