<svg width="109" height="109" viewBox="0 0 109 109">
<g id="kvg:StrokePaths_071ac">
<g id="kvg:071ac">
	<g id="kvg:071ac-g1">
		<g id="kvg:071ac-g2">
			<g id="kvg:071ac-g3">
				<path id="kvg:071ac-s1" d="M19.82,20.99c0.86,0.27,2.45,0.3,3.31,0.27c6.62-0.3,14.62-1.09,22.66-1.86c1.43-0.14,2.3,0.13,3.02,0.26"/>
				<path id="kvg:071ac-s2" d="M33.03,11c0.11,0.2,1.56,1.06,1.56,2.35c0,8.32-0.32,7.2-0.32,18.21"/>
				<path id="kvg:071ac-s3" d="M15.91,33.12c1.34,0.38,3.79,0.41,5.13,0.38c4.21-0.12,20.71-2,26.62-2.16c2.23-0.06,3.57,0.18,4.68,0.37"/>
			</g>
			<g id="kvg:071ac-g4">
				<g id="kvg:071ac-g5">
					<g id="kvg:071ac-g6">
						<path id="kvg:071ac-s4" d="M32.8,35.14c0.67,0.33,1.78,1.62,1.78,2.29c0,2.45-0.21,3.82-0.09,5.88"/>
						<path id="kvg:071ac-s5" d="M16.5,44.75c0.9,0.22,2.79,0.29,3.62,0.3c7.13,0.14,20.63-1.64,28.46-2.34c1.4-0.13,2.12,0.03,3.17,0.39"/>
					</g>
					<g id="kvg:071ac-g7">
						<path id="kvg:071ac-s6" d="M33,50.17c3.5,2.08,6.25,2.33,10.92,2.36c0.67,0,1.31,0.68,1.2,1.75c-0.29,2.81-4.22,15.3-6.73,17.59c-2.72,2.48-4.9,0.13-5.85-1.43"/>
						<path id="kvg:071ac-s7" d="M32.58,47.68c0.22,0.7,0.14,1.48-0.09,2.28C30.75,56,26.5,66.5,16.79,71.5"/>
					</g>
				</g>
			</g>
		</g>
		<g id="kvg:071ac-g8">
			<g id="kvg:071ac-g9">
				<g id="kvg:071ac-g10">
					<path id="kvg:071ac-s8" d="M66.09,13.51c0.04,0.77,0.1,2-0.08,3.08C64.75,24.03,61,34.75,54.52,46.04"/>
					<path id="kvg:071ac-s9" d="M65.58,28.74c0.04-0.07,2.02,0.28,2.73,0.19c5.19-0.67,13.19-2.17,21.57-2.7c1.27-0.08,2.05-0.01,2.38,0.03"/>
				</g>
				<g id="kvg:071ac-g11">
					<g id="kvg:071ac-g12">
						<path id="kvg:071ac-s10" d="M80.54,31.17c0.42,0.97,0.83,1.71,0.21,3.42C76,47.5,67.25,62,54.87,70.5"/>
					</g>
					<path id="kvg:071ac-s11" d="M60.24,38.25C66.75,46.5,78.5,62,87.89,69.47c1.6,1.27,2.74,1.36,4.11,1.48"/>
				</g>
			</g>
		</g>
	</g>
	<g id="kvg:071ac-g13">
		<path id="kvg:071ac-s12" d="M23.94,81.75c0,5.7-6.34,14.12-8,15.75"/>
		<path id="kvg:071ac-s13" d="M39.96,80.58c3.61,3.23,7.03,12.11,7.94,17.13"/>
		<path id="kvg:071ac-s14" d="M61.57,79.83c3.07,3.02,7.92,12.43,8.68,17.13"/>
		<path id="kvg:071ac-s15" d="M81.46,79.58C85.88,82.47,92.89,91.47,94,95.97"/>
	</g>
</g>
</g>
<g id="kvg:StrokeNumbers_071ac">
	<text transform="matrix(1 0 0 1 13.50 21.50)">1</text>
	<text transform="matrix(1 0 0 1 23.50 10.50)">2</text>
	<text transform="matrix(1 0 0 1 8.50 33.50)">3</text>
	<text transform="matrix(1 0 0 1 27.25 41.40)">4</text>
	<text transform="matrix(1 0 0 1 9.50 44.50)">5</text>
	<text transform="matrix(1 0 0 1 39.50 50.50)">6</text>
	<text transform="matrix(1 0 0 1 24.50 55.50)">7</text>
	<text transform="matrix(1 0 0 1 56.50 13.50)">8</text>
	<text transform="matrix(1 0 0 1 70.50 24.50)">9</text>
	<text transform="matrix(1 0 0 1 69.50 37.50)">10</text>
	<text transform="matrix(1 0 0 1 57.50 51.50)">11</text>
	<text transform="matrix(1 0 0 1 14.50 82.50)">12</text>
	<text transform="matrix(1 0 0 1 30.50 85.50)">13</text>
	<text transform="matrix(1 0 0 1 51.50 84.50)">14</text>
	<text transform="matrix(1 0 0 1 71.25 83.50)">15</text>
</g>
</svg>
