<svg width="109" height="109" viewBox="0 0 109 109">
<g id="kvg:StrokePaths_071d5">
<g id="kvg:071d5">
	<g id="kvg:071d5-g1">
		<g id="kvg:071d5-g2">
			<g id="kvg:071d5-g3">
				<path id="kvg:071d5-s1" d="M21,25.77c2.66,0.64,5.3,0.75,8.02,0.44C44.7,24.39,65.93,23.16,78,22.4c3.27-0.33,6.52-0.2,9.75,0.38"/>
				<path id="kvg:071d5-s2" d="M41.75,14c1.04,0.9,1.41,2.1,1.5,3c0.36,3.61,0.8,9.07,1.24,14c0.17,1.87,0.34,3.66,0.51,5.25"/>
			</g>
			<path id="kvg:071d5-s3" d="M64.36,12.5c0.47,0.85,0.46,1.8,0.24,3.07C63.28,23.02,62.92,27.18,62,32.5"/>
		</g>
		<path id="kvg:071d5-s4" d="M46,35.25c1.84-0.17,8.5-0.9,13.08-1.36c2.26-0.23,4.01-0.39,4.42-0.39"/>
	</g>
	<g id="kvg:071d5-g4">
		<g id="kvg:071d5-g5">
			<path id="kvg:071d5-s5" d="M44.25,46.28c0.66,0.72,0.88,1.39,0.95,2.23c0.53,3.85,1.24,9.18,1.82,14.17c0.19,1.67,0.37,3.3,0.53,4.82"/>
			<path id="kvg:071d5-s6" d="M46.01,47.55c5.68-0.95,10.73-2.11,14.11-2.67c1.65-0.27,2.85,1.03,2.59,2.7c-0.7,4.38-1.51,11.13-2.52,16.78"/>
			<path id="kvg:071d5-s7" d="M48.69,66.25c2.78-0.39,5.98-0.57,10.41-1.03c0.89-0.09,1.82-0.2,2.82-0.31"/>
		</g>
		<g id="kvg:071d5-g6">
			<g id="kvg:071d5-g7">
				<path id="kvg:071d5-s8" d="M17.72,52.51c1.25,0.41,2.5,0.52,3.78,0.3c3.79-0.32,9.37-0.87,12.33-1.34"/>
				<path id="kvg:071d5-s9" d="M34.3,37.32c0.6,0.82,0.85,2.03,0.76,2.83c-0.04,0.38,0.04,14.85,0.09,24.15c0.02,4.08,0.04,7.16,0.04,7.62"/>
				<path id="kvg:071d5-s10" d="M18.85,72.47c2.04,0.92,3.58,0.35,5.13-0.71c2.58-1.49,11.04-6.17,14.9-8.55"/>
			</g>
			<g id="kvg:071d5-g8">
				<path id="kvg:071d5-s11" d="M88.78,40.65c-0.06,1.07-0.71,1.87-1.6,2.5c-3.28,2.33-7.78,6-12.79,7.17"/>
				<path id="kvg:071d5-s12" d="M71.15,34.75c0.76,0.83,1.03,1.78,1.03,2.83c0.04,10.93-0.1,23.49-0.1,25.62c-0.01,4.68,1.1,6.83,10.36,6.7c8.04-0.12,10.16-0.27,10.22-7.03"/>
			</g>
		</g>
		<g id="kvg:071d5-g9">
			<path id="kvg:071d5-s13" d="M25.75,81.25c0,5.34-5.06,13.22-6.25,14.75"/>
			<path id="kvg:071d5-s14" d="M42.77,79.58c3.27,2.48,6.37,9.28,7.19,13.13"/>
			<path id="kvg:071d5-s15" d="M62.12,78.58c3.24,2.27,8.37,9.35,9.18,12.88"/>
			<path id="kvg:071d5-s16" d="M82.77,79.08c4.16,2.63,10.75,10.8,11.79,14.88"/>
		</g>
	</g>
</g>
</g>
<g id="kvg:StrokeNumbers_071d5">
	<text transform="matrix(1 0 0 1 14.25 26.50)">1</text>
	<text transform="matrix(1 0 0 1 32.50 13.50)">2</text>
	<text transform="matrix(1 0 0 1 53.50 11.50)">3</text>
	<text transform="matrix(1 0 0 1 47.50 32.50)">4</text>
	<text transform="matrix(1 0 0 1 39.25 54.50)">5</text>
	<text transform="matrix(1 0 0 1 47.50 43.50)">6</text>
	<text transform="matrix(1 0 0 1 50.50 63.50)">7</text>
	<text transform="matrix(1 0 0 1 9.25 52.10)">8</text>
	<text transform="matrix(1 0 0 1 24.50 36.50)">9</text>
	<text transform="matrix(1 0 0 1 8.50 73.50)">10</text>
	<text transform="matrix(1 0 0 1 78.50 40.50)">11</text>
	<text transform="matrix(1 0 0 1 65.50 32.50)">12</text>
	<text transform="matrix(1 0 0 1 15.50 84.50)">13</text>
	<text transform="matrix(1 0 0 1 32.50 84.50)">14</text>
	<text transform="matrix(1 0 0 1 51.50 82.50)">15</text>
	<text transform="matrix(1 0 0 1 71.50 80.50)">16</text>
</g>
</svg>
