<svg width="109" height="109" viewBox="0 0 109 109">
<g id="kvg:StrokePaths_0723f">
<g id="kvg:0723f">
	<path id="kvg:0723f-s1" d="M66.96,8.29c1.29,1.46,2.11,3.96,2.11,5.68c0,16.51-0.04,81.46-0.04,87.08"/>
	<path id="kvg:0723f-s2" d="M37.24,13.43c1.57,0.73,2.17,1.58,2.3,3.99c0.2,3.61-0.85,18.91-1.33,22.7c-0.16,1.21,0.27,3.01,2.61,2.82c8.24-0.66,18.16-2.42,27.7-2.95"/>
	<path id="kvg:0723f-s3" d="M25.55,63.43c2.23,0.2,2.69,0.8,5.3,0.67c11.15-0.6,29.62-2.74,37.41-3.07"/>
	<path id="kvg:0723f-s4" d="M45.75,66.64c0.06,0.79,0.05,2.03-0.11,3.18C44.5,78,41.25,92,26.31,100.22"/>
</g>
</g>
<g id="kvg:StrokeNumbers_0723f">
	<text transform="matrix(1 0 0 1 58.50 8.50)">1</text>
	<text transform="matrix(1 0 0 1 27.50 13.50)">2</text>
	<text transform="matrix(1 0 0 1 18.50 63.50)">3</text>
	<text transform="matrix(1 0 0 1 37.50 73.50)">4</text>
</g>
</svg>
