<svg width="109" height="109" viewBox="0 0 109 109">
<g id="kvg:StrokePaths_0723b">
<g id="kvg:0723b">
	<g id="kvg:0723b-g1">
		<g id="kvg:0723b-g2">
			<path id="kvg:0723b-s1" d="M73.16,9.14c0.15,0.8,0.31,2.06-0.3,3.2c-3.62,6.75-24.39,21.56-52.81,30.62"/>
		</g>
		<path id="kvg:0723b-s2" d="M32.27,17.58C49.75,20,73,32.25,79.81,40.72"/>
	</g>
	<g id="kvg:0723b-g3">
		<g id="kvg:0723b-g4">
			<path id="kvg:0723b-s3" d="M67.54,42.43c0.8,1.4,0.51,3.84-0.1,5.46C58.75,71,40.79,89.12,17.5,99"/>
		</g>
		<path id="kvg:0723b-s4" d="M33.75,47c1.25,0.5,2.75,1.7,3.15,2.32c9.96,15.32,30,35.58,46.25,45.47c2.99,1.82,4.73,2.26,7.1,2.47"/>
	</g>
</g>
</g>
<g id="kvg:StrokeNumbers_0723b">
	<text transform="matrix(1 0 0 1 65.25 8.50)">1</text>
	<text transform="matrix(1 0 0 1 30.50 14.50)">2</text>
	<text transform="matrix(1 0 0 1 58.50 42.50)">3</text>
	<text transform="matrix(1 0 0 1 26.50 50.50)">4</text>
</g>
</svg>
