<svg width="109" height="109" viewBox="0 0 109 109">
<g id="kvg:StrokePaths_07282">
<g id="kvg:07282">
	<g id="kvg:07282-g1">
		<g id="kvg:07282-g2">
			<g id="kvg:07282-g3">
				<path id="kvg:07282-s1" d="M43.51,10.5c0.06,0.26,0.13,0.67-0.12,1.04c-1.47,2.19-9.88,7.01-21.39,9.96"/>
			</g>
			<g id="kvg:07282-g4">
				<path id="kvg:07282-s2" d="M13.62,32.35c0.37,0.21,1.36,0.55,2.35,0.62c2.72,0.21,25.6-3.11,32.41-4.14c0.99-0.15,1.24-0.21,1.86,0"/>
				<path id="kvg:07282-s3" d="M34.83,20.66c0.37,0.41,1.08,2.86,1.16,3.69c0.07,0.83,0,24.23-0.07,29.4"/>
				<path id="kvg:07282-s4" d="M33.43,31.47C30.25,38.75,25,46.5,15.25,51.75"/>
				<path id="kvg:07282-s5" d="M38.75,36.75c3.67,1.75,6.77,5.25,8.75,7.5"/>
			</g>
		</g>
		<g id="kvg:07282-g5">
			<g id="kvg:07282-g6">
				<g id="kvg:07282-g7">
					<path id="kvg:07282-s6" d="M65.89,11c0.03,0.51,0.06,1.33-0.06,2.06c-0.67,4.35-4.54,13.9-9.83,19.75"/>
				</g>
				<path id="kvg:07282-s7" d="M66.42,22.38c0.58,0.35,2.88,0.35,3.83,0.24c3-0.37,16.58-2.74,18.92-2.85c2.33-0.12,4.03,1.22,3.45,3.65c-1.87,7.84-5.6,17.97-9.17,25.62c-2.2,4.72-4.95,3.18-6.7,0.94"/>
			</g>
			<g id="kvg:07282-g8">
				<path id="kvg:07282-s8" d="M74.77,24.64c0.04,0.49,0.08,1.27-0.07,1.97c-0.88,4.15-5.95,13.27-12.89,18.85"/>
			</g>
		</g>
	</g>
	<g id="kvg:07282-g9">
		<path id="kvg:07282-s9" d="M42.54,53.36c0.04,0.47,0.08,1.21-0.08,1.88c-0.93,3.97-6.29,12.68-13.63,18.02"/>
		<path id="kvg:07282-s10" d="M40.55,64.7c0.9,0.3,2.56,0.36,3.46,0.3c11.07-0.82,20.76-1.92,30.7-2.96c1.49-0.16,2.41,0.14,3.16,0.29"/>
		<path id="kvg:07282-s11" d="M17.69,80.78c1.77,0.51,5.03,0.6,6.8,0.51C39.5,80.5,69,77.5,88.86,77.39c2.96-0.02,4.73,0.24,6.21,0.5"/>
		<path id="kvg:07282-s12" d="M54.38,49.38c0.73,0.35,2.27,2.61,2.41,3.3c0.15,0.7-0.09,44.46-0.24,48.81"/>
	</g>
</g>
</g>
<g id="kvg:StrokeNumbers_07282">
	<text transform="matrix(1 0 0 1 35.50 9.13)">1</text>
	<text transform="matrix(1 0 0 1 8.00 33.30)">2</text>
	<text transform="matrix(1 0 0 1 27.50 27.73)">3</text>
	<text transform="matrix(1 0 0 1 20.50 42.50)">4</text>
	<text transform="matrix(1 0 0 1 43.50 38.50)">5</text>
	<text transform="matrix(1 0 0 1 57.50 11.50)">6</text>
	<text transform="matrix(1 0 0 1 70.50 19.50)">7</text>
	<text transform="matrix(1 0 0 1 65.50 32.10)">8</text>
	<text transform="matrix(1 0 0 1 31.50 62.50)">9</text>
	<text transform="matrix(1 0 0 1 46.00 61.50)">10</text>
	<text transform="matrix(1 0 0 1 7.50 81.50)">11</text>
	<text transform="matrix(1 0 0 1 48.50 46.50)">12</text>
</g>
</svg>
