<svg width="109" height="109" viewBox="0 0 109 109">
<g id="kvg:StrokePaths_072af">
<g id="kvg:072af">
	<g id="kvg:072af-g1">
		<path id="kvg:072af-s1" d="M39.31,17.5c0.13,1.12-0.19,2.21-0.8,3.09c-5.08,7.33-11.26,12.79-22.76,20.7"/>
		<path id="kvg:072af-s2" d="M20.5,20.75c29.5,15,17.75,82.25,4.75,68.5"/>
		<path id="kvg:072af-s3" d="M34.32,46.75c0,1.12-0.22,2.29-0.61,2.92C28.62,57.88,23.75,64.12,14,72.04"/>
	</g>
	<g id="kvg:072af-g2">
		<path id="kvg:072af-s4" d="M51.5,26.75c1,0.25,3.25,0.5,5.25,0.25s23.04-4.01,25.5-4.5c3.12-0.62,5.28,1.29,4.75,4c-1.75,9-2.75,17.25-7.5,29.25c-3.3,8.33-6.38,1.75-7.5,0"/>
		<path id="kvg:072af-s5" d="M52.74,27.37c1.07,1.07,1.26,2.99,1.28,5.13c0.1,10.48,0.45,39.57,0.45,44.66c0,12.59,2.53,15.37,20,15.37c20.28,0,21.92-3.02,21.92-9.79"/>
	</g>
</g>
</g>
<g id="kvg:StrokeNumbers_072af">
	<text transform="matrix(1 0 0 1 32.50 17.50)">1</text>
	<text transform="matrix(1 0 0 1 13.50 21.50)">2</text>
	<text transform="matrix(1 0 0 1 26.50 47.50)">3</text>
	<text transform="matrix(1 0 0 1 51.50 23.50)">4</text>
	<text transform="matrix(1 0 0 1 46.50 35.50)">5</text>
</g>
</svg>
