<svg width="109" height="109" viewBox="0 0 109 109">
<g id="kvg:StrokePaths_072ac">
<g id="kvg:072ac">
	<g id="kvg:072ac-g1">
		<path id="kvg:072ac-s1" d="M18.38,46.36c2.37,0.64,5.38,0.73,7.74,0.47c14.39-1.58,36.51-4.46,51.25-5.75c2.51-0.22,6-0.33,7.89,0.42"/>
		<path id="kvg:072ac-s2" d="M50.25,15.75c1,1.08,1.61,2.16,1.74,4.32C53.75,48.25,46.5,79.75,17,92.25"/>
		<path id="kvg:072ac-s3" d="M51.5,45c8.29,11.97,23.78,31.58,35.16,41.85c2.37,2.14,4.59,4.15,8.09,5.4"/>
	</g>
	<g id="kvg:072ac-g2">
		<path id="kvg:072ac-s4" d="M67.33,20.25c6.9,3.89,8.78,6.85,10.92,10.5"/>
	</g>
</g>
</g>
<g id="kvg:StrokeNumbers_072ac">
	<text transform="matrix(1 0 0 1 11.50 47.50)">1</text>
	<text transform="matrix(1 0 0 1 39.75 15.50)">2</text>
	<text transform="matrix(1 0 0 1 62.50 55.63)">3</text>
	<text transform="matrix(1 0 0 1 60.50 19.50)">4</text>
</g>
</svg>
