<svg width="109" height="109" viewBox="0 0 109 109">
<g id="kvg:StrokePaths_072c6">
<g id="kvg:072c6">
	<g id="kvg:072c6-g1">
		<path id="kvg:072c6-s1" d="M39.29,15c0.07,0.59,0.32,1.73-0.14,2.37c-5.94,8.13-11.97,13.88-26.4,22.67"/>
		<path id="kvg:072c6-s2" d="M15.64,18.5c29.6,21.12,21.77,84.45,8.65,71.93"/>
		<path id="kvg:072c6-s3" d="M29.83,44c0.05,0.63,0.23,1.83-0.1,2.51c-4.27,8.62-8.61,14.71-18.98,24.03"/>
	</g>
	<g id="kvg:072c6-g2">
		<g id="kvg:072c6-g3">
			<path id="kvg:072c6-s4" d="M46.06,37.88c0.48,0.26,1.42,1.36,1.57,2.04c1.09,4.89,2.37,17.58,3.45,26.83"/>
			<path id="kvg:072c6-s5" d="M47.45,39.53c15.05-1.78,36.68-4.42,45.38-4.8c3.39-0.15,4.07,2.43,3.65,3.92c-1.44,5.1-2.23,12.1-4.42,22.02"/>
			<path id="kvg:072c6-s6" d="M51.22,64.21c9.75-1.32,29.28-2.46,42.62-3.12"/>
		</g>
		<g id="kvg:072c6-g4">
			<path id="kvg:072c6-s7" d="M69.76,11.25c1.1,0.45,1.76,2.02,1.98,2.91c0.22,0.9,0,78.74-0.22,84.34"/>
		</g>
	</g>
</g>
</g>
<g id="kvg:StrokeNumbers_072c6">
	<text transform="matrix(1 0 0 1 31.50 14.63)">1</text>
	<text transform="matrix(1 0 0 1 9.50 20.50)">2</text>
	<text transform="matrix(1 0 0 1 21.50 46.50)">3</text>
	<text transform="matrix(1 0 0 1 40.50 46.50)">4</text>
	<text transform="matrix(1 0 0 1 49.50 35.50)">5</text>
	<text transform="matrix(1 0 0 1 55.50 60.50)">6</text>
	<text transform="matrix(1 0 0 1 61.50 11.50)">7</text>
</g>
</svg>
