<svg width="109" height="109" viewBox="0 0 109 109">
<g id="kvg:StrokePaths_072c2">
<g id="kvg:072c2">
	<g id="kvg:072c2-g1">
		<path id="kvg:072c2-s1" d="M38.8,18.25c0.14,1.17-0.69,2.17-1.32,3.04C31.89,28.93,26.36,34.56,12.75,43"/>
		<path id="kvg:072c2-s2" d="M19,20c23.5,19.75,18.75,79,8,67"/>
		<path id="kvg:072c2-s3" d="M30.83,44.25c0.09,1.1,0.16,2.04-0.35,3.05c-4.25,8.52-8.67,14.67-18.98,23.99"/>
	</g>
	<g id="kvg:072c2-g2">
		<path id="kvg:072c2-s4" d="M48.4,26.88c2.23,0.49,5.09,0.11,6.98-0.15c6.25-0.85,19.07-2.82,27.01-3.55c2.03-0.19,4.2-0.51,6.16,0.25"/>
		<path id="kvg:072c2-s5" d="M66.4,28.5c1.43,1.43,1.67,2.83,1.67,4.75c0,13.41-0.02,28.75-0.02,50.25"/>
		<path id="kvg:072c2-s6" d="M49.96,54.53c2.29,0.59,4.9,0.34,6.32,0.18c6.96-0.8,17.14-1.92,24.86-2.71c2.05-0.21,4.33-0.64,6.34,0.01"/>
		<path id="kvg:072c2-s7" d="M42,85.52c2.55,0.7,5.27,0.89,7.87,0.65c11.5-1.05,22.5-2.17,37.75-2.51c2.53-0.05,5.5,0.33,7.88,1.01"/>
	</g>
</g>
</g>
<g id="kvg:StrokeNumbers_072c2">
	<text transform="matrix(1 0 0 1 31.50 17.50)">1</text>
	<text transform="matrix(1 0 0 1 11.50 21.05)">2</text>
	<text transform="matrix(1 0 0 1 23.25 46.63)">3</text>
	<text transform="matrix(1 0 0 1 47.50 23.50)">4</text>
	<text transform="matrix(1 0 0 1 59.50 37.63)">5</text>
	<text transform="matrix(1 0 0 1 42.50 55.50)">6</text>
	<text transform="matrix(1 0 0 1 42.50 82.50)">7</text>
</g>
</svg>
