<svg width="109" height="109" viewBox="0 0 109 109">
<g id="kvg:StrokePaths_072d2">
<g id="kvg:072d2">
	<g id="kvg:072d2-g1">
		<path id="kvg:072d2-s1" d="M35.06,14.75c0.06,0.68,0.29,1.99-0.13,2.72C29.66,26.82,24.3,32.93,11.5,43.04"/>
		<path id="kvg:072d2-s2" d="M15.5,18.25c28.25,23.5,17.46,85.03,5.75,72"/>
		<path id="kvg:072d2-s3" d="M27.85,45c0.04,0.61,0.17,1.78-0.08,2.44c-3.21,8.38-6.47,14.3-14.27,23.35"/>
	</g>
	<g id="kvg:072d2-g2">
		<g id="kvg:072d2-g3">
			<path id="kvg:072d2-s4" d="M44.82,28.87c1.26,0.94,2.44,1.18,4.05,1.05c5.13-0.42,36.99-3.64,40.21-4.16c3.22-0.53,3.78,2.29,3.14,3.91c-0.78,1.96-1.69,5.92-2.65,9.54c-0.28,1.06-0.57,2.1-0.86,3.05"/>
			<path id="kvg:072d2-s5" d="M50.5,45.75c3.1,0,33.34-3,35.55-3s3.43,0,5.2,0"/>
			<path id="kvg:072d2-s6" d="M49.26,43.95c0.5,0.87,0.31,2.74-0.31,4.11c-0.72,1.57-4.66,10.89-4.98,11.76c-0.32,0.87,0.13,3.63,2.57,2.61c1.84-0.77,41.2-4.93,48-5.77c1.61-0.2,3.7,1.34,3.42,3.88c-0.54,4.8-4.36,16.7-7.64,21.96c-3.35,5.35-4.25,1.41-6.09-2.44"/>
		</g>
		<g id="kvg:072d2-g4">
			<path id="kvg:072d2-s7" d="M58.53,14.87c0.9,1,1.56,1.51,1.64,4.32C62,80.75,52.5,87.25,39.95,97.45"/>
		</g>
		<g id="kvg:072d2-g5">
			<path id="kvg:072d2-s8" d="M73.67,10.5c1.06,0.49,1.7,2.19,1.91,3.17c0.21,0.97,0,78.74-0.21,84.83"/>
		</g>
	</g>
</g>
</g>
<g id="kvg:StrokeNumbers_072d2">
	<text transform="matrix(1 0 0 1 27.50 13.63)">1</text>
	<text transform="matrix(1 0 0 1 7.50 18.50)">2</text>
	<text transform="matrix(1 0 0 1 20.50 45.50)">3</text>
	<text transform="matrix(1 0 0 1 42.50 26.50)">4</text>
	<text transform="matrix(1 0 0 1 45.50 42.50)">5</text>
	<text transform="matrix(1 0 0 1 40.50 53.75)">6</text>
	<text transform="matrix(1 0 0 1 51.50 14.50)">7</text>
	<text transform="matrix(1 0 0 1 64.75 10.50)">8</text>
</g>
</svg>
