<svg width="109" height="109" viewBox="0 0 109 109">
<g id="kvg:StrokePaths_0732e">
<g id="kvg:0732e">
	<g id="kvg:0732e-g1">
		<g id="kvg:0732e-g2">
			<path id="kvg:0732e-s1" d="M11.21,33.01c2.54,0.61,4.58,0.28,7.02-0.01c7.51-0.89,19.61-2.34,26.5-3.06c1.67-0.17,3.55-0.37,5.21,0.01"/>
			<path id="kvg:0732e-s2" d="M29.25,17.17c0.86,0.86,1.1,1.96,1.1,3.22c0,5.75,0,15.91,0,23.05"/>
		</g>
		<g id="kvg:0732e-g3">
			<g id="kvg:0732e-g4">
				<path id="kvg:0732e-s3" d="M13.25,44.31c0.97,0.97,1.08,2.57,1.08,4.15c0,3.63-0.09,26.98-0.07,37.79c0.01,3.13,0.01,5.3,0.01,5.76"/>
				<path id="kvg:0732e-s4" d="M15.1,46.14c4.49-0.77,22.87-3.54,28.64-4.33c3.26-0.44,4.74,1.41,4.74,5.8c0,6.38-0.11,34.85-0.11,38.88c0,8.26-1.62,7.25-6.08,2.56"/>
			</g>
			<path id="kvg:0732e-s5" d="M22.12,48.12c1.73,1.5,4.47,6.16,4.9,8.49"/>
			<path id="kvg:0732e-s6" d="M37.52,45.39c0.01,0.25,0.02,0.65-0.02,1.01c-0.24,2.13-2.14,6.8-4.05,9.66"/>
			<g id="kvg:0732e-g5">
				<path id="kvg:0732e-s7" d="M19.35,59.61c2.03,0.39,3.33,0.35,4.42,0.2c3.96-0.53,9.25-1.56,13.35-2.24c1.29-0.21,2.9-0.48,4.09-0.06"/>
				<g id="kvg:0732e-g6">
					<path id="kvg:0732e-s8" d="M19.29,72.04c1.19,0.56,2.96,0.17,4.2,0.05c4.78-0.48,11.28-1.61,16.23-2.32c0.87-0.12,1.99-0.44,2.88-0.18"/>
					<path id="kvg:0732e-s9" d="M29.25,61.35c0.7,0.7,1.25,1.71,1.24,3.15c-0.02,3.92-0.05,13.47-0.09,20.5c-0.01,2.03-0.02,3.84-0.03,5.25"/>
				</g>
			</g>
		</g>
	</g>
	<g id="kvg:0732e-g7">
		<g id="kvg:0732e-g8">
			<path id="kvg:0732e-s10" d="M55.43,48.76c2.45,0.49,4.81,0.41,6.71,0.17c6.21-0.78,16.68-2.21,22.36-2.74c1.7-0.16,3.27-0.35,4.95,0.09"/>
			<path id="kvg:0732e-s11" d="M67.79,17.75c0.92,0.92,1.25,2.13,1.32,4.26c0.82,27.81-2.57,58.15-16.35,70.49"/>
			<path id="kvg:0732e-s12" d="M68.47,49.5c4.89,9.51,13.03,24.29,19.73,33.88c1.92,2.75,4.29,5.37,6.29,7.12"/>
		</g>
		<g id="kvg:0732e-g9">
			<path id="kvg:0732e-s13" d="M77.97,26c4.65,3.38,8.38,8.16,10.42,12.5"/>
		</g>
	</g>
</g>
</g>
<g id="kvg:StrokeNumbers_0732e">
	<text transform="matrix(1 0 0 1 5.25 33.13)">1</text>
	<text transform="matrix(1 0 0 1 18.75 18.13)">2</text>
	<text transform="matrix(1 0 0 1 6.50 51.50)">3</text>
	<text transform="matrix(1 0 0 1 16.50 43.50)">4</text>
	<text transform="matrix(1 0 0 1 26.25 51.50)">5</text>
	<text transform="matrix(1 0 0 1 40.50 51.50)">6</text>
	<text transform="matrix(1 0 0 1 17.50 57.50)">7</text>
	<text transform="matrix(1 0 0 1 17.50 70.50)">8</text>
	<text transform="matrix(1 0 0 1 23.50 67.50)">9</text>
	<text transform="matrix(1 0 0 1 52.50 46.50)">10</text>
	<text transform="matrix(1 0 0 1 55.50 16.50)">11</text>
	<text transform="matrix(1 0 0 1 74.50 57.50)">12</text>
	<text transform="matrix(1 0 0 1 75.50 23.50)">13</text>
</g>
</svg>
