<svg width="109" height="109" viewBox="0 0 109 109">
<g id="kvg:StrokePaths_07345">
<g id="kvg:07345">
	<g id="kvg:07345-g1">
		<path id="kvg:07345-s1" d="M35.07,16.75c0.06,1.15-0.28,2.13-0.9,3.05c-5.04,7.45-9.54,12.45-20.42,21.49"/>
		<path id="kvg:07345-s2" d="M16,19c27.25,22.25,17,82,6.5,69.5"/>
		<path id="kvg:07345-s3" d="M28.34,45.5c0.09,1.06-0.08,2.04-0.51,2.96c-3.67,8.56-8.33,15.92-16.58,23.58"/>
	</g>
	<g id="kvg:07345-g2">
		<g id="kvg:07345-g3">
			<g id="kvg:07345-g4">
				<path id="kvg:07345-s4" d="M53.89,17.89c0,0.98-0.27,1.76-0.67,2.56c-2.09,3.67-4.59,7.42-8.47,11.92"/>
			</g>
			<path id="kvg:07345-s5" d="M41.04,33.72c1.06,1.06,1.06,2.16,1.06,3.41c0,0.73-0.05,26.42-0.08,42c-0.01,5.28-0.02,9.4-0.02,11"/>
			<path id="kvg:07345-s6" d="M43.36,35.44c4.49-0.7,9.42-1.53,12.68-2.06c2.32-0.38,4.4-0.6,3.88,2.64c-0.55,3.4-1.35,7.72-2.21,14.03"/>
			<path id="kvg:07345-s7" d="M43.22,52.41c5.87-0.67,9.16-0.87,12.3-1.22c1.69-0.19,3.13-0.35,4.45-0.5"/>
			<path id="kvg:07345-s8" d="M43.17,68.01c6.07-0.82,11.08-1.63,14.48-2.24c3.11-0.56,3.76,0.88,3.21,3.5c-0.88,4.21-1.23,7.35-2.41,13.27"/>
			<path id="kvg:07345-s9" d="M43.13,85.43c3.35-0.51,13.28-1.63,17.54-2.14"/>
		</g>
		<g id="kvg:07345-g5">
			<path id="kvg:07345-s10" d="M63.16,20.2c2.22,0.45,4.45,0.46,6.69,0.02c5.89-0.81,15.75-2.05,21.64-2.58c2.19-0.32,4.36-0.27,6.51,0.15"/>
			<g id="kvg:07345-g6">
				<path id="kvg:07345-s11" d="M68.77,37.35c0.88,0.88,0.91,1.78,0.91,3.08c0,2.78-0.03,16.26-0.05,25.07c-0.01,3.28-0.01,5.99-0.01,7.38"/>
				<path id="kvg:07345-s12" d="M70.74,38.55c6.66-1.12,12.05-1.96,19.14-3.24c2.66-0.48,4.89,0.01,4.89,3.49c0,6.37-0.02,16.95-0.02,25.33c0,12.83-3.62,6-5.16,4.39"/>
				<path id="kvg:07345-s13" d="M79.77,22.17c0.97,0.97,1.17,1.96,1.17,3.21c0,0.59-0.04,37.88-0.06,58.38c-0.01,6.74-0.01,11.67-0.01,12.88"/>
			</g>
		</g>
	</g>
</g>
</g>
<g id="kvg:StrokeNumbers_07345">
	<text transform="matrix(1 0 0 1 27.75 15.50)">1</text>
	<text transform="matrix(1 0 0 1 8.50 20.50)">2</text>
	<text transform="matrix(1 0 0 1 20.50 46.50)">3</text>
	<text transform="matrix(1 0 0 1 44.50 16.40)">4</text>
	<text transform="matrix(1 0 0 1 34.50 40.50)">5</text>
	<text transform="matrix(1 0 0 1 51.75 31.50)">6</text>
	<text transform="matrix(1 0 0 1 46.50 49.50)">7</text>
	<text transform="matrix(1 0 0 1 46.50 64.50)">8</text>
	<text transform="matrix(1 0 0 1 46.50 81.50)">9</text>
	<text transform="matrix(1 0 0 1 62.25 17.50)">10</text>
	<text transform="matrix(1 0 0 1 60.75 47.50)">11</text>
	<text transform="matrix(1 0 0 1 69.50 35.50)">12</text>
	<text transform="matrix(1 0 0 1 71.50 27.50)">13</text>
</g>
</svg>
