<svg width="109" height="109" viewBox="0 0 109 109">
<g id="kvg:StrokePaths_07389">
<g id="kvg:07389">
	<g id="kvg:07389-g1">
		<path id="kvg:07389-s1" d="M28.5,23.09c2.95,0.98,5.91,0.53,8.9,0.08c10.77-1.63,21.21-3.33,34.11-4.7c2.78-0.3,5.28-0.62,7.99,0.27"/>
		<path id="kvg:07389-s2" d="M52,24.6c1,1.21,2,2.4,2,4.41c0,5.38,0.25,50.24,0.25,57.94"/>
		<path id="kvg:07389-s3" d="M28.25,56.12c2.87,0.9,5.86,0.52,8.78,0.16c9.8-1.18,23.9-3.6,33.1-4.57c2.62-0.28,5.52-0.7,8.11,0.01"/>
		<path id="kvg:07389-s4" d="M16,90.01c3.95,1.17,7.96,0.72,11.99,0.37c21.05-1.84,37.97-4.1,56.63-4.43c3.9-0.07,8.1-0.22,11.88,0.96"/>
	</g>
	<g id="kvg:07389-g2">
		<path id="kvg:07389-s5" d="M72,64c5.43,2.74,10.09,8.57,11.25,12"/>
	</g>
</g>
</g>
<g id="kvg:StrokeNumbers_07389">
	<text transform="matrix(1 0 0 1 21.50 24.43)">1</text>
	<text transform="matrix(1 0 0 1 45.50 34.63)">2</text>
	<text transform="matrix(1 0 0 1 20.50 57.13)">3</text>
	<text transform="matrix(1 0 0 1 7.50 90.43)">4</text>
	<text transform="matrix(1 0 0 1 64.50 64.50)">5</text>
</g>
</svg>
