<svg width="109" height="109" viewBox="0 0 109 109">
<g id="kvg:StrokePaths_073c0">
<g id="kvg:073c0">
	<g id="kvg:073c0-g1">
		<path id="kvg:073c0-s1" d="M11.75,26.25c0.69,0.37,4.46,0.45,5.16,0.34c3.27-0.5,16.55-2.09,24.4-2.64c1.07-0.07,3.05-0.26,3.94,0.04"/>
		<path id="kvg:073c0-s2" d="M27.57,28.52c0.87,0.88,1.48,2.78,1.48,3.48c0,5.95,0.52,44.62,0.35,48.57"/>
		<path id="kvg:073c0-s3" d="M13,53.19c0.58,0.22,4.64,0.25,5.23,0.2c3.39-0.28,15.89-1.94,20.58-2.25c0.72-0.05,3.35-0.09,4.43,0.1"/>
		<path id="kvg:073c0-s4" d="M12.25,87.75c1.25,0.75,2.65,0.97,4.5,0C22,85,33.5,78.5,41.5,73.75"/>
	</g>
	<g id="kvg:073c0-g2">
		<g id="kvg:073c0-g3">
			<path id="kvg:073c0-s5" d="M70.9,13c0.51,0.84,0.69,1.9,0.46,2.59c-1.67,5.08-6.85,14.6-12.42,20.38"/>
		</g>
		<g id="kvg:073c0-g4">
			<path id="kvg:073c0-s6" d="M51.3,36.76c0.65,1.14,1.3,3.03,1.3,4.55c0,1.51,0.8,47.6,0.8,56.69"/>
			<path id="kvg:073c0-s7" d="M52.99,39c3.67-0.19,32.39-3.07,35.72-3.39c2.12-0.21,3.48,1.24,3.48,3.63c-0.01,4.08,0.37,45.12-0.32,57.62"/>
			<path id="kvg:073c0-s8" d="M53.49,64.97c7.68-0.57,32.69-3.11,38.29-3.11"/>
			<path id="kvg:073c0-s9" d="M54.27,92.53c9.19-0.61,27.08-2.06,36.89-2.34"/>
		</g>
	</g>
</g>
</g>
<g id="kvg:StrokeNumbers_073c0">
	<text transform="matrix(1 0 0 1 5.50 26.50)">1</text>
	<text transform="matrix(1 0 0 1 21.50 36.50)">2</text>
	<text transform="matrix(1 0 0 1 5.50 53.50)">3</text>
	<text transform="matrix(1 0 0 1 4.54 86.50)">4</text>
	<text transform="matrix(1 0 0 1 61.50 12.50)">5</text>
	<text transform="matrix(1 0 0 1 45.25 45.50)">6</text>
	<text transform="matrix(1 0 0 1 68.50 34.50)">7</text>
	<text transform="matrix(1 0 0 1 57.50 61.50)">8</text>
	<text transform="matrix(1 0 0 1 57.50 89.50)">9</text>
</g>
</svg>
