<svg width="109" height="109" viewBox="0 0 109 109">
<g id="kvg:StrokePaths_073e0">
<g id="kvg:073e0">
	<g id="kvg:073e0-g1">
		<path id="kvg:073e0-s1" d="M10.65,28.02c1.98,0.48,4.11,0.32,5.48,0.17c3.89-0.42,10.69-1.58,16.27-2.58c1.18-0.21,2.74-0.62,3.9-0.13"/>
		<path id="kvg:073e0-s2" d="M22.59,30.08c0.92,0.92,1.38,1.92,1.38,3.15c0,5.39-0.1,28.38-0.1,39.02"/>
		<path id="kvg:073e0-s3" d="M10.98,50.35c1.23,0.87,4.32,0.29,5.62,0.1c4.63-0.68,9.85-1.59,14.54-2.62c1.22-0.27,2.48-0.46,3.86-0.28"/>
		<path id="kvg:073e0-s4" d="M11.5,77.65c0.88,0.6,1.93,0.97,3.51,0.11C21,74.5,26.12,71.62,34.34,66.84"/>
	</g>
	<g id="kvg:073e0-g2">
		<path id="kvg:073e0-s5" d="M50.53,22.49c0.05,0.96,0.07,1.88-0.26,2.8c-2.02,5.58-4.39,11.83-9.89,18.96"/>
		<g id="kvg:073e0-g3">
			<path id="kvg:073e0-s6" d="M50.51,33.8c1.36,0.08,3.1-0.04,4.48-0.2c5.96-0.69,15.54-3.01,22.39-3.99c1.56-0.22,3.37-0.23,4.9,0.13"/>
			<g id="kvg:073e0-g4">
				<path id="kvg:073e0-s7" d="M40.18,52.22c2.56,0.62,5,0.36,7.58,0.13c8.21-0.74,23.87-2.4,33.99-3.21c2.66-0.21,5.16-0.37,7.81,0.01"/>
				<path id="kvg:073e0-s8" d="M62.43,12c1.16,1.16,1.4,2.62,1.4,3.98c0,0.73-0.03,54.37-0.04,74.27c0,4.12,0,6.8,0,7.25"/>
				<path id="kvg:073e0-s9" d="M61.54,52.26c0,1.49-0.69,3.34-1.4,4.57C53.95,67.48,41.95,79.97,32.1,85.58"/>
				<path id="kvg:073e0-s10" d="M65.53,52.53c5.21,5.64,15.44,17.21,21.96,23.48c1.69,1.62,3.76,3.49,6.16,4.81"/>
			</g>
		</g>
	</g>
</g>
</g>
<g id="kvg:StrokeNumbers_073e0">
	<text transform="matrix(1 0 0 1 5.25 28.63)">1</text>
	<text transform="matrix(1 0 0 1 16.50 38.50)">2</text>
	<text transform="matrix(1 0 0 1 3.75 51.13)">3</text>
	<text transform="matrix(1 0 0 1 3.75 81.50)">4</text>
	<text transform="matrix(1 0 0 1 41.50 24.50)">5</text>
	<text transform="matrix(1 0 0 1 54.75 30.50)">6</text>
	<text transform="matrix(1 0 0 1 43.50 49.48)">7</text>
	<text transform="matrix(1 0 0 1 53.25 13.50)">8</text>
	<text transform="matrix(1 0 0 1 49.50 61.50)">9</text>
	<text transform="matrix(1 0 0 1 75.50 61.63)">10</text>
</g>
</svg>
