<svg width="109" height="109" viewBox="0 0 109 109">
<g id="kvg:StrokePaths_074e2">
<g id="kvg:074e2">
	<g id="kvg:074e2-g1">
		<g id="kvg:074e2-g2">
			<g id="kvg:074e2-g3">
				<path id="kvg:074e2-s1" d="M12.96,18.95c0.6,0.36,1.68,0.34,2.29,0.36c5.5,0.19,24.36-3.6,28.04-3.18c0.99,0.11,1.59,0.17,2.09,0.35"/>
				<path id="kvg:074e2-s2" d="M10.63,30.48c0.24,0.25,0.49,0.45,0.59,0.76c0.84,2.44,2.26,9.17,2.83,13.55"/>
				<path id="kvg:074e2-s3" d="M12.13,31.32c5.92-1.02,31.28-3.91,34.33-4.26c1.12-0.13,1.79,1.27,1.63,2.02c-0.66,3.07-1.71,8.42-3.13,12.85"/>
				<path id="kvg:074e2-s4" d="M22.13,21.61c0.69,0.47,1.15,2.12,1.24,3.08c0.27,2.84,0.9,11.49,1.54,18.12"/>
				<path id="kvg:074e2-s5" d="M34.91,19.79c0.69,0.47,1.04,2.6,0.72,4.73c-0.57,3.81-0.88,8.72-1.86,17.15"/>
				<path id="kvg:074e2-s6" d="M14.56,44.32c3.85-0.48,22.69-2.57,29.98-2.93"/>
			</g>
		</g>
		<g id="kvg:074e2-g4">
			<g id="kvg:074e2-g5">
				<path id="kvg:074e2-s7" d="M15.44,53.26c0.62,0.33,1.76,0.38,2.38,0.33c4.17-0.33,17.75-2.81,22.31-2.89c1.04-0.02,1.66,0.16,2.18,0.32"/>
				<path id="kvg:074e2-s8" d="M9.11,63.3c0.88,0.47,2.48,0.54,3.35,0.47c6.49-0.57,22.63-3.39,32.11-3.99c1.46-0.09,2.33,0.22,3.06,0.46"/>
			</g>
			<g id="kvg:074e2-g6">
				<path id="kvg:074e2-s9" d="M29.47,64.11c0.09,0.45,1.27,2.33,1.27,5.16c0,6.71-0.01,17.04-0.01,21.68c0,6.39-4.6,2.37-6.48,0.27"/>
				<path id="kvg:074e2-s10" d="M19.66,72.02c0.03,0.47,0.19,1.26-0.05,1.9C18,78.25,14.76,83.94,8.13,89.78"/>
				<path id="kvg:074e2-s11" d="M37.8,71.42c2.56,1.81,6.73,7.22,7.37,10.03"/>
			</g>
		</g>
	</g>
	<g id="kvg:074e2-g7">
		<g id="kvg:074e2-g8">
			<path id="kvg:074e2-s12" d="M84.36,12.5c0.06,0.33-0.09,1.38-0.46,1.75c-4.61,4.61-11.08,8.41-23.08,12.13"/>
		</g>
		<path id="kvg:074e2-s13" d="M56.17,27.28c0.4,0.8,1.01,2.19,1.11,4.46c1.08,23.59-0.71,51.23-13.72,62.47"/>
		<g id="kvg:074e2-g9">
			<path id="kvg:074e2-s14" d="M68.58,32.26c0.87,0.62,1.56,2.75,1.56,4.01c0,6.44-0.17,37.59-0.17,48.05"/>
			<path id="kvg:074e2-s15" d="M58.09,88.43c0.62,0.54,1.82,1.58,3.12,1c6.85-3.1,12.02-5.89,19.34-9.33"/>
			<path id="kvg:074e2-s16" d="M77.22,74.18c2.74,2.49,7.08,10.24,7.77,14.12"/>
		</g>
		<path id="kvg:074e2-s17" d="M78.62,26.67c0.19,0,0.81,0.6,1.03,1.8C82,41.58,85.92,69.43,94.07,85.77c1.24,2.48,2.55,4.02,3.43,4.83"/>
	</g>
</g>
</g>
<g id="kvg:StrokeNumbers_074e2">
	<text transform="matrix(1 0 0 1 6.50 20.50)">1</text>
	<text transform="matrix(1 0 0 1 4.50 37.50)">2</text>
	<text transform="matrix(1 0 0 1 13.25 28.50)">3</text>
	<text transform="matrix(1 0 0 1 26.50 25.50)">4</text>
	<text transform="matrix(1 0 0 1 38.50 24.50)">5</text>
	<text transform="matrix(1 0 0 1 16.50 41.50)">6</text>
	<text transform="matrix(1 0 0 1 9.25 54.50)">7</text>
	<text transform="matrix(1 0 0 1 3.25 64.50)">8</text>
	<text transform="matrix(1 0 0 1 23.50 70.50)">9</text>
	<text transform="matrix(1 0 0 1 8.50 73.50)">10</text>
	<text transform="matrix(1 0 0 1 40.50 70.50)">11</text>
	<text transform="matrix(1 0 0 1 69.25 11.80)">12</text>
	<text transform="matrix(1 0 0 1 48.50 40.50)">13</text>
	<text transform="matrix(1 0 0 1 59.50 36.65)">14</text>
	<text transform="matrix(1 0 0 1 55.50 84.08)">15</text>
	<text transform="matrix(1 0 0 1 73.50 71.50)">16</text>
	<text transform="matrix(1 0 0 1 81.25 30.43)">17</text>
</g>
</svg>
