<svg width="109" height="109" viewBox="0 0 109 109">
<g id="kvg:StrokePaths_0753c">
<g id="kvg:0753c">
	<g id="kvg:0753c-g1">
		<path id="kvg:0753c-s1" d="M27.44,15.42c0.37,0.54,0.37,0.9,0.57,1.57c1.63,5.48,3.09,19.17,4.05,29.27"/>
		<path id="kvg:0753c-s2" d="M29.16,16.25c12.92-0.55,35.07-1.48,44.71-2.02c3.54-0.2,5.35,1.39,5.16,2.86c-0.71,5.38-2.54,18.8-3.26,27.23"/>
		<path id="kvg:0753c-s3" d="M52.43,17.59c0.32,0.66,0.96,1.16,0.95,2.12c-0.05,6.36,0.23,21.17,0.23,23.48"/>
		<path id="kvg:0753c-s4" d="M31.47,30.31c4.21-0.27,41.18-1.86,44.66-1.86"/>
		<path id="kvg:0753c-s5" d="M32.74,44.83c9.3,0,30.3-1.22,43.14-1.37"/>
	</g>
	<g id="kvg:0753c-g2">
		<g id="kvg:0753c-g3">
			<path id="kvg:0753c-s6" d="M13,59.13c1.57,0.38,4.44,0.48,6.01,0.38c16.04-1,51.97-4.01,71.26-4.5c2.61-0.07,4.18,0.18,5.48,0.37"/>
		</g>
		<g id="kvg:0753c-g4">
			<path id="kvg:0753c-s7" d="M53.27,60.33c0.08,0.48,1.17,2.51,1.25,5.56c0.4,14.66-0.25,21.55-0.25,26.55c0,11.31-8.46,0.51-9.96-0.75"/>
		</g>
	</g>
</g>
</g>
<g id="kvg:StrokeNumbers_0753c">
	<text transform="matrix(1 0 0 1 20 23)">1</text>
	<text transform="matrix(1 0 0 1 31 13)">2</text>
	<text transform="matrix(1 0 0 1 56 24)">3</text>
	<text transform="matrix(1 0 0 1 33 28)">4</text>
	<text transform="matrix(1 0 0 1 35 42)">5</text>
	<text transform="matrix(1 0 0 1 13 56)">6</text>
	<text transform="matrix(1 0 0 1 44.25 68.18)">7</text>
</g>
</svg>
