<svg width="109" height="109" viewBox="0 0 109 109">
<g id="kvg:StrokePaths_07531">
<g id="kvg:07531">
	<g id="kvg:07531-g1">
		<path id="kvg:07531-s1" d="M20,45.96c1.21,1.21,2,3.28,2.21,4.8c1.36,10.12,2.42,24.91,3.46,38.87c0.14,1.9,0.28,3.78,0.42,5.63"/>
		<path id="kvg:07531-s2" d="M23.02,48.58c20.48-2.71,45.95-4.96,58.66-5.84c4.67-0.33,6.98,2.3,6.79,4.73c-0.69,8.83-2.84,24.78-5.48,38.07c-0.54,2.72-1.22,5.17-1.82,7.26"/>
	</g>
	<g id="kvg:07531-g2">
		<path id="kvg:07531-s3" d="M51.74,13.32c1.47,1.47,2.51,3.18,2.51,5.68c0,15.3,0.23,66.95,0.23,70.94"/>
	</g>
	<g id="kvg:07531-g3">
		<path id="kvg:07531-s4" d="M25.3,68.36c19.57-1.86,42.57-3.48,60.34-4.08"/>
		<path id="kvg:07531-s5" d="M26.98,91.89c14.02-0.64,35.4-2.52,54.09-3.02"/>
	</g>
</g>
</g>
<g id="kvg:StrokeNumbers_07531">
	<text transform="matrix(1 0 0 1 14.50 55.63)">1</text>
	<text transform="matrix(1 0 0 1 25.50 44.50)">2</text>
	<text transform="matrix(1 0 0 1 42.50 14.50)">3</text>
	<text transform="matrix(1 0 0 1 29.50 64.50)">4</text>
	<text transform="matrix(1 0 0 1 30.50 88.22)">5</text>
</g>
</svg>
