<svg width="109" height="109" viewBox="0 0 109 109">
<g id="kvg:StrokePaths_07544">
<g id="kvg:07544">
	<g id="kvg:07544-g1">
		<path id="kvg:07544-s1" d="M16.93,21.58c6.48,7.26,13.42,19.96,14.34,23.59"/>
		<path id="kvg:07544-s2" d="M43.78,15.67c3.08,4.92,10.49,17.82,11.72,25.81"/>
		<path id="kvg:07544-s3" d="M88.81,15.08c0.81,1.22,0.78,3.36-0.28,4.88C85,25,73.75,41,68.34,46.92"/>
	</g>
	<g id="kvg:07544-g2">
		<path id="kvg:07544-s4" d="M22.26,54.8c0.43,0.71,1.43,2.69,1.66,3.57c1.89,7.24,4.09,25.3,5.2,38.63"/>
		<path id="kvg:07544-s5" d="M23.76,56.4c17.24-1.65,46.25-3.96,57.46-4.67c4.12-0.26,5.71,2.84,5.49,4.77c-0.82,7.1-2.96,25.74-5.79,38.45"/>
		<path id="kvg:07544-s6" d="M52.96,56.69c0.79,0.81,1.45,2.31,1.45,3.8c0,8.39,0.27,28.92,0.27,31.97"/>
		<path id="kvg:07544-s7" d="M26.94,74.96C31.83,74.61,80.79,71,84.83,71"/>
		<path id="kvg:07544-s8" d="M28.91,94.12c10.81,0,37.71-2.62,52.63-2.81"/>
	</g>
</g>
</g>
<g id="kvg:StrokeNumbers_07544">
	<text transform="matrix(1 0 0 1 9.50 21.50)">1</text>
	<text transform="matrix(1 0 0 1 36.50 15.50)">2</text>
	<text transform="matrix(1 0 0 1 79.50 15.50)">3</text>
	<text transform="matrix(1 0 0 1 16.50 62.50)">4</text>
	<text transform="matrix(1 0 0 1 25.50 52.50)">5</text>
	<text transform="matrix(1 0 0 1 46.50 63.50)">6</text>
	<text transform="matrix(1 0 0 1 31.50 71.50)">7</text>
	<text transform="matrix(1 0 0 1 32.50 90.50)">8</text>
</g>
</svg>
