<svg width="109" height="109" viewBox="0 0 109 109">
<g id="kvg:StrokePaths_0755a">
<g id="kvg:0755a">
	<g id="kvg:0755a-g1">
		<g id="kvg:0755a-g2">
			<path id="kvg:0755a-s1" d="M54.22,8.25c-0.12,1.12-0.18,2.21-0.58,2.73c-5.41,7.05-12.57,12.65-19.9,17.74c-2.32,1.61-2.32,3.97,1.07,3.61c7.13-0.75,29.44-5.34,41.49-7.18"/>
			<path id="kvg:0755a-s2" d="M66.93,16.88c4.9,2.57,12.65,10.59,13.87,14.59"/>
		</g>
		<g id="kvg:0755a-g3">
			<path id="kvg:0755a-s3" d="M12.38,46.04c1.46,0.4,5.34,0.88,8.44,0.7c20.93-1.2,48.41-3.61,67.2-4.19c3.23-0.1,5.83-0.05,8.74,0.26"/>
			<path id="kvg:0755a-s4" d="M51.98,32.25c0.02,1.25,0.39,2.8,0.01,3.98C48.5,47.25,28.5,67.25,9.5,74.25"/>
			<path id="kvg:0755a-s5" d="M62.5,44c6.83,6,22.75,21.29,29.57,25.3c2.32,1.37,3.12,1.57,4.18,1.7"/>
		</g>
	</g>
	<g id="kvg:0755a-g4">
		<path id="kvg:0755a-s6" d="M28.61,66.71c0.35,0.56,0.86,1.93,1.04,2.62c1.55,5.65,3.45,19.77,4.37,30.18"/>
		<path id="kvg:0755a-s7" d="M30.75,68.56c14.25-1.31,35.98-2.53,45.19-3.08c3.38-0.2,4.6,2.43,4.42,3.95c-0.68,5.55-3.12,19.82-5.12,29.08"/>
		<path id="kvg:0755a-s8" d="M53.92,68.4c-0.02,0.43-0.04,1.19-0.04,2.19c-0.04,6.55,0.22,23.38,0.22,25.76"/>
		<path id="kvg:0755a-s9" d="M32.45,83.06c4.02-0.27,42.82-2.42,46.14-2.42"/>
		<path id="kvg:0755a-s10" d="M34.16,97.53c8.88,0,28.93-1.76,41.19-1.91"/>
	</g>
</g>
</g>
<g id="kvg:StrokeNumbers_0755a">
	<text transform="matrix(1 0 0 1 46.50 7.13)">1</text>
	<text transform="matrix(1 0 0 1 66.50 14.50)">2</text>
	<text transform="matrix(1 0 0 1 5.50 46.50)">3</text>
	<text transform="matrix(1 0 0 1 43.50 39.50)">4</text>
	<text transform="matrix(1 0 0 1 75.50 53.50)">5</text>
	<text transform="matrix(1 0 0 1 23.50 77.50)">6</text>
	<text transform="matrix(1 0 0 1 39.50 64.50)">7</text>
	<text transform="matrix(1 0 0 1 46.50 75.50)">8</text>
	<text transform="matrix(1 0 0 1 36.50 79.50)">9</text>
	<text transform="matrix(1 0 0 1 36.50 94.50)">10</text>
</g>
</svg>
