<svg width="109" height="109" viewBox="0 0 109 109">
<g id="kvg:StrokePaths_07594">
<g id="kvg:07594">
	<g id="kvg:07594-g1">
		<path id="kvg:07594-s1" d="M54.88,10.38c0.71,0.36,2.23,2.72,2.37,3.44c0.14,0.73,0.07,4.39-0.07,8.92"/>
		<path id="kvg:07594-s2" d="M24.38,24.64c1.73,0.39,4.89,0.45,6.61,0.39c17.95-0.65,38.12-3.24,54.1-3.74c2.87-0.09,4.6,0.19,6.04,0.38"/>
		<path id="kvg:07594-s3" d="M31.99,25.5c0,1.18,0,2.35-0.01,3.5c-0.27,32.91-4.43,51.74-17.42,65.72"/>
		<path id="kvg:07594-s4" d="M14.75,38c2.74,1.63,7.07,6.71,7.75,9.25"/>
		<path id="kvg:07594-s5" d="M11.17,66.01c1.46,0.72,1.91,0.51,3.2-0.37c5.2-3.55,8.2-5.82,12.13-8.89"/>
	</g>
	<g id="kvg:07594-g2">
		<g id="kvg:07594-g3">
			<path id="kvg:07594-s6" d="M38.75,44.08c1.76,0.56,5,0.75,6.76,0.56c9.48-0.99,31-2.49,41.07-3.48c2.92-0.29,4.7,0.27,6.17,0.55"/>
		</g>
		<g id="kvg:07594-g4">
			<path id="kvg:07594-s7" d="M65.52,45.49c0.73,0.92,1.75,2.5,1.75,5.56c0,21.45-0.25,35.05-0.25,40.05c0,10.15-6.06,2.43-7.46,1.25"/>
		</g>
	</g>
</g>
</g>
<g id="kvg:StrokeNumbers_07594">
	<text transform="matrix(1 0 0 1 47.50 10.50)">1</text>
	<text transform="matrix(1 0 0 1 27.50 21.50)">2</text>
	<text transform="matrix(1 0 0 1 24.50 35.85)">3</text>
	<text transform="matrix(1 0 0 1 6.50 37.50)">4</text>
	<text transform="matrix(1 0 0 1 3.50 66.50)">5</text>
	<text transform="matrix(1 0 0 1 37.50 41.50)">6</text>
	<text transform="matrix(1 0 0 1 58.25 53.50)">7</text>
</g>
</svg>
