<svg width="109" height="109" viewBox="0 0 109 109">
<g id="kvg:StrokePaths_075be">
<g id="kvg:075be">
	<g id="kvg:075be-g1">
		<path id="kvg:075be-s1" d="M57.81,11.38c0.97,0.97,1.51,2.37,1.51,3.9c0,0.79,0.08,3.65-0.07,8.46"/>
		<path id="kvg:075be-s2" d="M28.63,26.23c2.91,1.04,6.39,0.6,9.39,0.31c14.86-1.42,30.65-2.99,43.37-3.82c2.91-0.19,5.63-0.27,8.49,0.35"/>
		<path id="kvg:075be-s3" d="M30.74,27.25c0.88,0.88,1,2.19,0.99,3.5c-0.11,33.09-1.75,51.26-14.68,64.21"/>
		<path id="kvg:075be-s4" d="M13.62,38.12c3.4,1.83,8.77,7.53,9.62,10.38"/>
		<path id="kvg:075be-s5" d="M12.42,71.22c1.08,0.4,2.07,0.55,3.46-0.39C21.5,67,24.75,64.55,29,61.25"/>
	</g>
	<g id="kvg:075be-g2">
		<path id="kvg:075be-s6" d="M51.47,34c0.07,1.16-0.01,2.26-0.27,3.39c-1.28,5.56-5.32,14.49-11.24,20.73"/>
		<g id="kvg:075be-g3">
			<path id="kvg:075be-s7" d="M52.37,45.15c1.34,0.09,4.42-0.38,5.35-0.55c3.47-0.63,12.1-2.02,18.04-3.15c1.54-0.29,3.36-0.58,4.97-0.31"/>
			<g id="kvg:075be-g4">
				<path id="kvg:075be-s8" d="M36.64,64.88c2.85,0.96,5.95,0.56,8.87,0.28c13.9-1.31,30.27-3.1,39.98-3.75c2.73-0.18,5.42-0.22,8.11,0.37"/>
				<path id="kvg:075be-s9" d="M63.48,47.33c0.28,0.78,0.57,1.51,0.56,3.03c-0.18,26.27-9.19,38.97-24.02,47.04"/>
				<path id="kvg:075be-s10" d="M64.96,65.59C72,75,78.88,83.75,85.88,91.25c2.27,2.42,5.24,4.75,8.1,6.28"/>
			</g>
		</g>
	</g>
</g>
</g>
<g id="kvg:StrokeNumbers_075be">
	<text transform="matrix(1 0 0 1 49.50 11.50)">1</text>
	<text transform="matrix(1 0 0 1 29.50 23.50)">2</text>
	<text transform="matrix(1 0 0 1 24.50 35.50)">3</text>
	<text transform="matrix(1 0 0 1 6.50 37.50)">4</text>
	<text transform="matrix(1 0 0 1 5.25 75.50)">5</text>
	<text transform="matrix(1 0 0 1 43.50 36.50)">6</text>
	<text transform="matrix(1 0 0 1 56.50 42.13)">7</text>
	<text transform="matrix(1 0 0 1 44.25 61.63)">8</text>
	<text transform="matrix(1 0 0 1 56.50 53.50)">9</text>
	<text transform="matrix(1 0 0 1 73.50 73.50)">10</text>
</g>
</svg>
