<svg width="109" height="109" viewBox="0 0 109 109">
<g id="kvg:StrokePaths_075ca">
<g id="kvg:075ca">
	<g id="kvg:075ca-g1">
		<path id="kvg:075ca-s1" d="M55.41,13.13c0.7,0.36,2.18,2.66,2.32,3.37c0.14,0.71,0.07,3.8-0.07,8.24"/>
		<path id="kvg:075ca-s2" d="M28.13,25.73c1.52,0.54,4.3,0.63,5.82,0.54c15.8-0.91,37.55-1.52,51.61-2.23c2.53-0.13,4.05,0.26,5.31,0.53"/>
		<path id="kvg:075ca-s3" d="M30.99,27c0,1.1,0,2.18-0.01,3.25c-0.24,33.26-4.38,49.18-16.67,62.72"/>
		<path id="kvg:075ca-s4" d="M14.25,36.75c2.91,2.12,7.52,8.71,8.25,12"/>
		<path id="kvg:075ca-s5" d="M10.67,64.98c1.63,0.76,2.13,0.54,3.56-0.38c5.79-3.74,7.63-4.62,12.01-7.85"/>
	</g>
	<g id="kvg:075ca-g2">
		<g id="kvg:075ca-g3">
			<path id="kvg:075ca-s6" d="M59.43,31.5c0.07,0.7,0.25,1.84-0.14,2.81c-2.43,6.02-11.54,17.94-24.04,26.85"/>
			<path id="kvg:075ca-s7" d="M59.19,34.94c5.08,4.12,22.1,18.22,26.69,21.35c1.56,1.06,3.56,1.52,5.12,1.82"/>
		</g>
		<g id="kvg:075ca-g4">
			<path id="kvg:075ca-s8" d="M45.38,60.57c0.81,0.36,3.43,0.56,4.25,0.52C56.75,60.75,65.5,59,72.89,58.4c1.24-0.1,2.38,0.07,3.4,0.37"/>
			<path id="kvg:075ca-s9" d="M59.62,60.72c0.71,0.86,0.71,1.38,0.71,2.07c0,4.83,0.36,24.61,0.18,29.44"/>
			<path id="kvg:075ca-s10" d="M44,76.31c0.77,0.45,3.31,0.28,4.1,0.2c8.2-0.79,16.02-1.5,25.65-2.31c0.96-0.08,3.08-0.18,4.51,0.21"/>
			<path id="kvg:075ca-s11" d="M33.82,93.55c2.26,0.45,4.76,0.61,6.05,0.5c18.16-1.55,25.76-1.8,45.17-2.34c2.09-0.06,4.59,0.37,5.63,0.71"/>
		</g>
	</g>
</g>
</g>
<g id="kvg:StrokeNumbers_075ca">
	<text transform="matrix(1 0 0 1 47.50 13.50)">1</text>
	<text transform="matrix(1 0 0 1 30.50 22.50)">2</text>
	<text transform="matrix(1 0 0 1 23.71 34.50)">3</text>
	<text transform="matrix(1 0 0 1 7.50 37.50)">4</text>
	<text transform="matrix(1 0 0 1 3.72 67.50)">5</text>
	<text transform="matrix(1 0 0 1 51.50 34.50)">6</text>
	<text transform="matrix(1 0 0 1 66.50 38.50)">7</text>
	<text transform="matrix(1 0 0 1 48.50 58.50)">8</text>
	<text transform="matrix(1 0 0 1 52.25 70.50)">9</text>
	<text transform="matrix(1 0 0 1 33.25 77.50)">10</text>
	<text transform="matrix(1 0 0 1 31.50 90.88)">11</text>
</g>
</svg>
