<svg width="109" height="109" viewBox="0 0 109 109">
<g id="kvg:StrokePaths_07676">
<g id="kvg:07676">
	<g id="kvg:07676-g1">
		<path id="kvg:07676-s1" d="M22.5,32c1.5,0.75,2.07,0.61,4.5,0.25c6.31-0.93,8.75-1.75,15.49-2.94C46.48,28.6,47.28,29.95,46,34c-3,9.5-21.25,37.25-35.5,42.25"/>
		<path id="kvg:07676-s2" d="M19.02,43.33c3.9,2.1,10.07,8.62,11.04,11.88"/>
	</g>
	<g id="kvg:07676-g2">
		<path id="kvg:07676-s3" d="M75.78,24.64c0.03,0.3,0.06,0.78-0.05,1.21c-0.65,2.56-4.35,8.17-9.42,11.61"/>
		<path id="kvg:07676-s4" d="M53.25,26.25c2.5,0.25,30.34,38.44,36.27,45.12c2.01,2.27,3.73,3.24,5.73,3.88"/>
		<path id="kvg:07676-s5" d="M86.27,36.89c0.03,0.28,0.06,0.73-0.06,1.14c-0.75,2.41-5.04,7.7-10.9,10.93"/>
	</g>
</g>
</g>
<g id="kvg:StrokeNumbers_07676">
	<text transform="matrix(1 0 0 1 21.50 28.50)">1</text>
	<text transform="matrix(1 0 0 1 11.50 43.50)">2</text>
	<text transform="matrix(1 0 0 1 67.50 23.50)">3</text>
	<text transform="matrix(1 0 0 1 52.50 23.40)">4</text>
	<text transform="matrix(1 0 0 1 88.50 35.33)">5</text>
</g>
</svg>
