<svg width="109" height="109" viewBox="0 0 109 109">
<g id="kvg:StrokePaths_0767d">
<g id="kvg:0767d">
	<g id="kvg:0767d-g1">
		<path id="kvg:0767d-s1" d="M55,13c0.38,1.5,0,3.25-0.57,4.29C51.32,22.93,46,31.12,36.81,40.22"/>
	</g>
	<g id="kvg:0767d-g2">
		<path id="kvg:0767d-s2" d="M25.5,40.47c1.14,1.14,1.63,2.81,1.63,4.63c0,1.55,0.95,32.47,1.32,47.14c0.06,2.58,0.13,4.66,0.18,6"/>
		<path id="kvg:0767d-s3" d="M28.27,43.98c13.98-1.73,39.08-4.47,49.67-5.48c5.19-0.5,7.37,0.76,7.06,5.38c-0.62,9.12-2.09,30.3-3.29,46.88c-0.17,2.42-0.33,4.65-0.46,6.57"/>
		<path id="kvg:0767d-s4" d="M29.13,67.44C42.25,66,72.38,63.62,82.57,63.4"/>
		<path id="kvg:0767d-s5" d="M29.69,94.49C43,93.75,66.62,92,80.19,91.41"/>
	</g>
</g>
</g>
<g id="kvg:StrokeNumbers_0767d">
	<text transform="matrix(1 0 0 1 46.50 13.50)">1</text>
	<text transform="matrix(1 0 0 1 17.50 48.13)">2</text>
	<text transform="matrix(1 0 0 1 29.50 40.50)">3</text>
	<text transform="matrix(1 0 0 1 32.50 63.00)">4</text>
	<text transform="matrix(1 0 0 1 32.50 91.50)">5</text>
</g>
</svg>
