<svg width="109" height="109" viewBox="0 0 109 109">
<g id="kvg:StrokePaths_07699">
<g id="kvg:07699">
	<g id="kvg:07699-g1">
		<g id="kvg:07699-g2">
			<path id="kvg:07699-s1" d="M15.51,28.39c0.47,0.2,3.25,0.34,4.5,0.26c5.36-0.34,19.76-1.69,28.37-2.7c1.25-0.15,2.92-0.2,3.71,0"/>
			<path id="kvg:07699-s2" d="M35.41,13.5c0.84,0.27,1.84,1.78,1.84,3.02c0,3.32-0.11,40.23-0.28,43.55"/>
			<path id="kvg:07699-s3" d="M36.83,27.98c-5.8,10.96-10.6,17.12-22.22,26"/>
			<path id="kvg:07699-s4" d="M39.92,35.14c2.74,1.18,7.24,5,9.54,7.29"/>
		</g>
		<g id="kvg:07699-g3">
			<path id="kvg:07699-s5" d="M83.07,12.5c0.06,0.21,0.25,0.61-0.12,0.84c-5.04,3.06-11.48,5.38-22.1,8.02"/>
			<path id="kvg:07699-s6" d="M59.19,20.29c1.17,1.1,1.15,2.15,1.15,3.35c0,17.35-4.09,28.1-11.2,32.07"/>
			<path id="kvg:07699-s7" d="M60.34,33.84c0.41,0.11,2.46-0.09,3.53-0.22c5.93-0.7,20.39-2.31,28.86-3.47c1.06-0.15,2.96-0.11,3.64,0"/>
			<path id="kvg:07699-s8" d="M77.05,34.13c0.88,0.35,1.4,1.58,1.57,2.29s0,18.18-0.17,22.58"/>
		</g>
	</g>
	<g id="kvg:07699-g4">
		<g id="kvg:07699-g5">
			<path id="kvg:07699-s9" d="M56.59,57.5c0.29,0.33,0.39,0.74,0.26,1.01c-0.94,1.98-3.87,5.68-7.02,7.93"/>
		</g>
		<g id="kvg:07699-g6">
			<path id="kvg:07699-s10" d="M32.83,67.47c0.68,0.7,1.2,2.15,1.37,3.07c0.5,2.75,2.45,19.41,3.17,26.97"/>
			<path id="kvg:07699-s11" d="M34.61,69.12C38.47,69,75.52,65.4,79.03,65.2c2.23-0.13,3.64,1.81,3.64,3.28c-0.01,2.52-2.36,18.57-4.19,26.75"/>
			<path id="kvg:07699-s12" d="M36.03,81.71c8.1-0.35,39.33-3.73,45.24-3.73"/>
			<path id="kvg:07699-s13" d="M37.78,95.21c9.69-0.38,30.51-2.31,40.84-2.49"/>
		</g>
	</g>
</g>
</g>
<g id="kvg:StrokeNumbers_07699">
	<text transform="matrix(1 0 0 1 9.50 28.50)">1</text>
	<text transform="matrix(1 0 0 1 26.50 12.50)">2</text>
	<text transform="matrix(1 0 0 1 24.50 37.50)">3</text>
	<text transform="matrix(1 0 0 1 44.50 35.50)">4</text>
	<text transform="matrix(1 0 0 1 74.50 11.33)">5</text>
	<text transform="matrix(1 0 0 1 53.75 28.25)">6</text>
	<text transform="matrix(1 0 0 1 64.50 30.50)">7</text>
	<text transform="matrix(1 0 0 1 71.50 41.50)">8</text>
	<text transform="matrix(1 0 0 1 47.75 62.50)">9</text>
	<text transform="matrix(1 0 0 1 22.75 73.95)">10</text>
	<text transform="matrix(1 0 0 1 38.50 66.50)">11</text>
	<text transform="matrix(1 0 0 1 39.50 78.50)">12</text>
	<text transform="matrix(1 0 0 1 40.50 91.50)">13</text>
</g>
</svg>
