<svg width="109" height="109" viewBox="0 0 109 109">
<g id="kvg:StrokePaths_076ae">
<g id="kvg:076ae">
	<path id="kvg:076ae-s1" d="M22.41,32.87c1.3,1.3,1.71,2.72,1.7,5.07C24,64.5,22,80.88,11.87,92.63"/>
	<path id="kvg:076ae-s2" d="M25.14,35.26C45.12,32,66.62,29.62,75.7,29.09c12.11-0.72,5.93,5.29,0.8,10.28"/>
	<path id="kvg:076ae-s3" d="M51.87,13.75c1.06,1.06,1.46,2.5,1.46,3.75c0,1.02-0.08,23-0.08,33.25"/>
	<path id="kvg:076ae-s4" d="M36,53.94c2.02,0.49,4.11,0.19,6.13-0.17c5.68-1,21.7-4.05,23.58-4.54c3.29-0.86,4.96,0.72,3.12,4.31C59.12,72.5,43.38,85.99,25,95.17"/>
	<path id="kvg:076ae-s5" d="M36.23,62.9c4.67,0.76,26.56,20.08,43.46,29.57c3.08,1.73,6.32,3.56,9.84,4.21"/>
</g>
</g>
<g id="kvg:StrokeNumbers_076ae">
	<text transform="matrix(1 0 0 1 17.50 41.50)">1</text>
	<text transform="matrix(1 0 0 1 25.50 31.63)">2</text>
	<text transform="matrix(1 0 0 1 41.50 14.50)">3</text>
	<text transform="matrix(1 0 0 1 36.50 51.13)">4</text>
	<text transform="matrix(1 0 0 1 30.50 64.63)">5</text>
</g>
</svg>
