<svg width="109" height="109" viewBox="0 0 109 109">
<g id="kvg:StrokePaths_076d2">
<g id="kvg:076d2">
	<g id="kvg:076d2-g1">
		<g id="kvg:076d2-g2">
			<g id="kvg:076d2-g3">
				<path id="kvg:076d2-s1" d="M52.61,10.25c0.1,0.85,0.5,2.26-0.21,3.4c-4.87,7.92-15.49,22.65-36.26,32.54"/>
				<path id="kvg:076d2-s2" d="M52.25,14.36c5.71,5.54,30.29,23.63,36.59,27.69c2.14,1.38,4.88,1.97,7.01,2.36"/>
			</g>
			<g id="kvg:076d2-g4">
				<path id="kvg:076d2-s3" d="M37.64,39.52c0.66,0.16,3.74,0.25,4.4,0.16c6.96-0.93,14.21-1.93,22.83-2.33c1.1-0.05,2.69,0.08,3.25,0.16"/>
			</g>
		</g>
		<g id="kvg:076d2-g5">
			<path id="kvg:076d2-s4" d="M32.45,48.11c0.52,0.39,1.13,1.31,1.27,1.82c1.73,6.62,2.48,10.08,3.64,15.6"/>
			<path id="kvg:076d2-s5" d="M33.91,50.08c14.84-1.83,32.84-2.95,38.86-3.45c2.2-0.18,3.53,1.59,3.21,2.67c-1.3,4.47-1.59,5.34-4.27,11.6"/>
			<path id="kvg:076d2-s6" d="M37.23,63.75c8.13-0.44,27.31-2.38,37.68-2.8"/>
		</g>
	</g>
	<g id="kvg:076d2-g6">
		<path id="kvg:076d2-s7" d="M30.33,72.76c0.64,1,1.47,2.25,1.6,3.1c1.08,6.75,1.53,12.47,2.26,19.39"/>
		<path id="kvg:076d2-s8" d="M31.93,75.49c13.07-0.99,44.33-3.26,46.2-3.62s3.76,1.15,3.32,3.14s-2.36,13.18-3.31,18.62"/>
		<path id="kvg:076d2-s9" d="M47.64,76.1c0.27,0.64,0.54,1.18,0.65,1.98C49.2,84.35,49,89,48.95,94.43"/>
		<path id="kvg:076d2-s10" d="M61.83,74.36c0.42,0.64,0.85,1.57,0.79,2.41c-0.12,6.48-0.03,9.73-0.03,17.2"/>
		<path id="kvg:076d2-s11" d="M15.67,95.75c1.73,0.62,4.91,0.72,6.64,0.62c18.02-1.03,43.21-2.86,66.46-2.5c2.89,0.04,4.62,0.29,6.06,0.6"/>
	</g>
</g>
</g>
<g id="kvg:StrokeNumbers_076d2">
	<text transform="matrix(1 0 0 1 45.50 11.50)">1</text>
	<text transform="matrix(1 0 0 1 59.50 17.50)">2</text>
	<text transform="matrix(1 0 0 1 43.50 35.50)">3</text>
	<text transform="matrix(1 0 0 1 26.50 54.50)">4</text>
	<text transform="matrix(1 0 0 1 36.50 46.50)">5</text>
	<text transform="matrix(1 0 0 1 40.50 60.50)">6</text>
	<text transform="matrix(1 0 0 1 23.25 79.50)">7</text>
	<text transform="matrix(1 0 0 1 34.50 72.50)">8</text>
	<text transform="matrix(1 0 0 1 41.50 82.50)">9</text>
	<text transform="matrix(1 0 0 1 52.50 81.50)">10</text>
	<text transform="matrix(1 0 0 1 13.50 92.50)">11</text>
</g>
</svg>
