<svg width="109" height="109" viewBox="0 0 109 109">
<g id="kvg:StrokePaths_076fe">
<g id="kvg:076fe">
	<g id="kvg:076fe-g1">
		<g id="kvg:076fe-g2">
			<path id="kvg:076fe-s1" d="M68.99,13.25c-0.24,1.38-1.29,2.16-2.42,2.77c-8.14,4.39-17.35,8.11-35.07,11.78"/>
		</g>
		<path id="kvg:076fe-s2" d="M26.52,26.5c1.12,1.12,1.36,2.6,1.36,4.94c0,21.41,0.24,47.56-16.82,63.78"/>
	</g>
	<g id="kvg:076fe-g3">
		<path id="kvg:076fe-s3" d="M31.14,40.08c2.86,0.55,5.39,0.45,7.87,0.11c11.9-1.62,33.56-4.25,45.12-4.97c2.68-0.17,5.34-0.31,7.99,0.26"/>
		<path id="kvg:076fe-s4" d="M56.56,26.63c1.03,1.03,1.19,2.24,1.25,3.55c0.04,0.97-0.58,14.71-0.7,20.7"/>
	</g>
	<g id="kvg:076fe-g4">
		<path id="kvg:076fe-s5" d="M40.52,52.16c0.85,0.85,1.35,2.16,1.35,3.42c0,0.98,0.03,24.2-0.07,34.66c-0.03,2.99-0.05,4.96-0.05,5.1"/>
		<path id="kvg:076fe-s6" d="M42.7,53.4c5.43-0.52,26.68-2.96,29.52-3.15c2.36-0.16,4.03,0.76,4.03,3.56c0,1.21,0.05,25.24-0.02,34.95c-0.02,2.38-0.04,3.93-0.08,4.12"/>
		<path id="kvg:076fe-s7" d="M42.98,65.62c7.52-0.62,27.13-2.76,32.13-2.76"/>
		<path id="kvg:076fe-s8" d="M42.99,77.89c9.64-0.64,23.26-2.14,32.01-2.4"/>
		<path id="kvg:076fe-s9" d="M42.97,91.38c7.28-0.38,24.09-1.42,32.1-1.42"/>
	</g>
</g>
</g>
<g id="kvg:StrokeNumbers_076fe">
	<text transform="matrix(1 0 0 1 58.50 12.13)">1</text>
	<text transform="matrix(1 0 0 1 19.50 34.50)">2</text>
	<text transform="matrix(1 0 0 1 33.50 37.50)">3</text>
	<text transform="matrix(1 0 0 1 48.50 32.50)">4</text>
	<text transform="matrix(1 0 0 1 34.50 60.50)">5</text>
	<text transform="matrix(1 0 0 1 44.25 50.50)">6</text>
	<text transform="matrix(1 0 0 1 47.25 62.50)">7</text>
	<text transform="matrix(1 0 0 1 47.21 74.98)">8</text>
	<text transform="matrix(1 0 0 1 47.21 88.40)">9</text>
</g>
</svg>
