<svg width="109" height="109" viewBox="0 0 109 109">
<g id="kvg:StrokePaths_077bf">
<g id="kvg:077bf">
	<g id="kvg:077bf-g1">
		<g id="kvg:077bf-g2">
			<path id="kvg:077bf-s1" d="M25,13.03c0.37,0.69,0.91,1.21,0.91,2.14c0,0.93-0.25,27.48-0.25,27.95"/>
			<path id="kvg:077bf-s2" d="M25.79,13.93c2.1-0.12,18.84-1.8,20.75-1.94c1.59-0.12,2.85,0.65,2.72,1.5c-0.17,1.09-0.37,24.97-0.37,29.17"/>
			<path id="kvg:077bf-s3" d="M26.49,23.67c4.14-0.16,18.77-1.47,22.14-1.47"/>
			<path id="kvg:077bf-s4" d="M26.67,32.5c5.56-0.39,16.32-1.39,21.72-1.39"/>
			<path id="kvg:077bf-s5" d="M26.1,41.04c4.78-0.2,17.16-1.04,22.56-1.04"/>
		</g>
		<g id="kvg:077bf-g3">
			<path id="kvg:077bf-s6" d="M61.5,12.53c0.36,0.69,0.88,1.21,0.88,2.14c0,0.93-0.24,27.48-0.24,27.95"/>
			<path id="kvg:077bf-s7" d="M62.27,13.43c2.04-0.12,18.25-1.8,20.11-1.94c1.55-0.12,2.76,0.65,2.63,1.5c-0.17,1.09-0.36,24.97-0.36,29.17"/>
			<path id="kvg:077bf-s8" d="M62.95,22.67c4.01-0.16,18.19-1.47,21.46-1.47"/>
			<path id="kvg:077bf-s9" d="M63.11,32c5.39-0.39,15.82-1.39,21.05-1.39"/>
			<path id="kvg:077bf-s10" d="M62.57,40.54c4.63-0.2,16.63-1.04,21.87-1.04"/>
		</g>
	</g>
	<g id="kvg:077bf-g4">
		<g id="kvg:077bf-g5">
			<path id="kvg:077bf-s11" d="M37.13,45.75c0.23,1.29-0.06,2.99-0.81,4.09C31.6,56.9,25.6,62.88,14.75,71.47"/>
			<path id="kvg:077bf-s12" d="M28.78,59.9c0.92,0.6,1.63,1.92,1.69,2.85c0.55,8.29-0.75,30.19-0.29,34.5"/>
		</g>
		<path id="kvg:077bf-s13" d="M59.8,46.25c0.06,0.58-0.02,1.35-0.21,1.85c-1.24,3.19-2.82,5.66-5.66,9.55"/>
		<path id="kvg:077bf-s14" d="M30.21,59.08c10.69-0.78,51.36-2.55,55.95-2.98"/>
		<path id="kvg:077bf-s15" d="M55.02,59c0.52,0.31,0.93,0.73,0.93,1.25c0,5.38,0.06,24.63-0.26,33.1"/>
		<path id="kvg:077bf-s16" d="M31.64,70.28c10.09-0.65,46.57-2.03,50.9-2.38"/>
		<path id="kvg:077bf-s17" d="M30.41,81.7c10.64-0.54,47.98-1.65,52.55-1.95"/>
		<path id="kvg:077bf-s18" d="M30.41,95.15c10.69-0.78,55.25-2.77,59.84-3.2"/>
	</g>
</g>
</g>
<g id="kvg:StrokeNumbers_077bf">
	<text transform="matrix(1 0 0 1 18.50 19.50)">1</text>
	<text transform="matrix(1 0 0 1 28.50 10.50)">2</text>
	<text transform="matrix(1 0 0 1 30.49 21.50)">3</text>
	<text transform="matrix(1 0 0 1 30.32 30.50)">4</text>
	<text transform="matrix(1 0 0 1 30.50 38.50)">5</text>
	<text transform="matrix(1 0 0 1 54.50 19.50)">6</text>
	<text transform="matrix(1 0 0 1 65.50 9.50)">7</text>
	<text transform="matrix(1 0 0 1 66.50 20.50)">8</text>
	<text transform="matrix(1 0 0 1 66.50 29.50)">9</text>
	<text transform="matrix(1 0 0 1 66.50 38.45)">10</text>
	<text transform="matrix(1 0 0 1 27.50 49.38)">11</text>
	<text transform="matrix(1 0 0 1 20.25 75.30)">12</text>
	<text transform="matrix(1 0 0 1 48.25 49.50)">13</text>
	<text transform="matrix(1 0 0 1 39.50 55.50)">14</text>
	<text transform="matrix(1 0 0 1 45.50 66.50)">15</text>
	<text transform="matrix(1 0 0 1 34.50 67.00)">16</text>
	<text transform="matrix(1 0 0 1 34.50 79.50)">17</text>
	<text transform="matrix(1 0 0 1 34.50 91.50)">18</text>
</g>
</svg>
