<svg width="109" height="109" viewBox="0 0 109 109">
<g id="kvg:StrokePaths_077cd">
<g id="kvg:077cd">
	<g id="kvg:077cd-g1">
		<g id="kvg:077cd-g2">
			<g id="kvg:077cd-g3">
				<path id="kvg:077cd-s1" d="M24.49,11.05c0.34,0.48,0.85,1.34,0.85,1.98c0,0.64,1.27,19.07,1.27,19.39"/>
				<path id="kvg:077cd-s2" d="M25.23,11.68c1.95-0.08,18.47-1.25,20.25-1.35c1.48-0.08,2.64,0.45,2.52,1.04c-0.16,0.75-0.34,17.33-0.34,20.24"/>
				<path id="kvg:077cd-s3" d="M26.38,18.44c3.84-0.11,17.92-1.02,21.04-1.02"/>
				<path id="kvg:077cd-s4" d="M27.04,24.57c5.16-0.27,15.14-0.96,20.15-0.96"/>
				<path id="kvg:077cd-s5" d="M27.01,30.49c4.43-0.14,15.42-0.72,20.43-0.72"/>
			</g>
			<g id="kvg:077cd-g4">
				<path id="kvg:077cd-s6" d="M58.85,10.2c0.33,0.48,0.32,1.34,0.32,1.98c0,0.64,1.78,19.07,1.78,19.39"/>
				<path id="kvg:077cd-s7" d="M59.56,11.33C61.45,11.25,78,9.58,79.72,9.48c1.43-0.08,2.56,0.45,2.44,1.04c-0.15,0.76-0.33,17.33-0.33,20.24"/>
				<path id="kvg:077cd-s8" d="M60.69,17.75c3.72-0.11,17.88-1.52,20.91-1.52"/>
				<path id="kvg:077cd-s9" d="M60.85,23.72c5-0.27,15.67-1.46,20.53-1.46"/>
				<path id="kvg:077cd-s10" d="M61.34,30.15c4.3-0.14,15.43-1.22,20.29-1.22"/>
			</g>
		</g>
		<g id="kvg:077cd-g5">
			<g id="kvg:077cd-g6">
				<g id="kvg:077cd-g7">
					<path id="kvg:077cd-s11" d="M36.75,32.01c0.21,1.09-0.06,2.51-0.75,3.44c-4.39,5.93-9.96,10.95-20.02,18.17"/>
					<path id="kvg:077cd-s12" d="M29.99,42.08c0.51,0.92,0.51,1.33,0.57,1.98c0.51,5.75-0.27,20.94-0.27,25.44"/>
				</g>
				<path id="kvg:077cd-s13" d="M55.26,31.61c0.04,0.41-0.01,0.94-0.15,1.29c-0.88,2.22-2,3.93-4.02,6.63"/>
				<path id="kvg:077cd-s14" d="M30.82,42.01c9.92-0.54,46.15-2.27,50.4-2.57"/>
				<path id="kvg:077cd-s15" d="M53.34,42.96c0.48,0.21,0.86,0.5,0.86,0.87c0,3.73,0.05,16.09-0.24,21.97"/>
				<path id="kvg:077cd-s16" d="M31.64,50.28c9.36-0.45,42.2-2.41,46.22-2.65"/>
				<path id="kvg:077cd-s17" d="M30.51,58.21c9.87-0.38,43.51-2.15,47.75-2.35"/>
				<path id="kvg:077cd-s18" d="M30.51,67.54c9.92-0.54,49.75-2.42,54.01-2.72"/>
			</g>
		</g>
	</g>
	<g id="kvg:077cd-g8">
		<g id="kvg:077cd-g9">
			<path id="kvg:077cd-s19" d="M29,75.79c2,0.19,2.25,0.48,6.25,0.19c4-0.29,30.75-3.26,33.5-3.55S72,74.48,71,75.53c-11.75,12.38-32.5,21.3-55,25.97"/>
			<path id="kvg:077cd-s20" d="M35.75,79.04c4.65,0.48,27.36,13.34,43.55,18.6c2.52,0.82,4.36,1.37,6.7,1.64"/>
		</g>
	</g>
</g>
</g>
<g id="kvg:StrokeNumbers_077cd">
	<text transform="matrix(1 0 0 1 18.75 18.13)">1</text>
	<text transform="matrix(1 0 0 1 30.25 9.05)">2</text>
	<text transform="matrix(1 0 0 1 30.25 17.48)">3</text>
	<text transform="matrix(1 0 0 1 30.25 22.40)">4</text>
	<text transform="matrix(1 0 0 1 30.25 29.83)">5</text>
	<text transform="matrix(1 0 0 1 52.75 16.50)">6</text>
	<text transform="matrix(1 0 0 1 62.75 8.68)">7</text>
	<text transform="matrix(1 0 0 1 63.50 16.50)">8</text>
	<text transform="matrix(1 0 0 1 63.50 22.50)">9</text>
	<text transform="matrix(1 0 0 1 62.50 28.95)">10</text>
	<text transform="matrix(1 0 0 1 22.75 39.13)">11</text>
	<text transform="matrix(1 0 0 1 21.25 58.05)">12</text>
	<text transform="matrix(1 0 0 1 50.50 27.98)">13</text>
	<text transform="matrix(1 0 0 1 40.25 39.15)">14</text>
	<text transform="matrix(1 0 0 1 58.75 46.83)">15</text>
	<text transform="matrix(1 0 0 1 35.24 48.00)">16</text>
	<text transform="matrix(1 0 0 1 35.28 56.43)">17</text>
	<text transform="matrix(1 0 0 1 35.25 65.10)">18</text>
	<text transform="matrix(1 0 0 1 17.75 78.53)">19</text>
	<text transform="matrix(1 0 0 1 31.50 87.20)">20</text>
</g>
</svg>
