<svg width="109" height="109" viewBox="0 0 109 109">
<g id="kvg:StrokePaths_077db">
<g id="kvg:077db">
	<g id="kvg:077db-g1">
		<g id="kvg:077db-g2">
			<path id="kvg:077db-s1" d="M29.48,15.91c2.63,0.87,5.12,0.72,7.78,0.36c7.63-1.02,28.14-4.06,31.25-4.52c3.58-0.53,4.56,2.25,2.42,4c-3.67,3-13.85,13.82-16.11,15.96"/>
			<path id="kvg:077db-s2" d="M43.38,27c2.98,1.31,10.69,6.33,12.09,9.75"/>
		</g>
		<g id="kvg:077db-g3">
			<path id="kvg:077db-s3" d="M16.92,44.83c3.76,1.25,6.95,0.69,10.73-0.08c17.73-3.63,37.85-7.38,56.68-7.42c8.44-0.02-0.08,8.17-3.33,10.25"/>
			<g id="kvg:077db-g4">
				<path id="kvg:077db-s4" d="M55.19,42.98c6.06,2.88,8.84,29.04,2.7,50.21c-2.64,9.09-7.89,2.3-10.14,0.46"/>
			</g>
		</g>
	</g>
	<g id="kvg:077db-g5">
		<path id="kvg:077db-s5" d="M53.39,41.43c0.11,0.92-0.06,1.96-0.73,3.21C47.62,54,35.75,70,12.89,80.15"/>
	</g>
</g>
</g>
<g id="kvg:StrokeNumbers_077db">
	<text transform="matrix(1 0 0 1 23.50 16.50)">1</text>
	<text transform="matrix(1 0 0 1 35.50 28.50)">2</text>
	<text transform="matrix(1 0 0 1 17.25 41.50)">3</text>
	<text transform="matrix(1 0 0 1 62.50 49.50)">4</text>
	<text transform="matrix(1 0 0 1 40.50 53.50)">5</text>
</g>
</svg>
