<svg width="109" height="109" viewBox="0 0 109 109">
<g id="kvg:StrokePaths_0793e">
<g id="kvg:0793e">
	<g id="kvg:0793e-g1">
		<path id="kvg:0793e-s1" d="M29.5,15.25c3.41,2.06,6.75,4.75,10,8.75"/>
		<path id="kvg:0793e-s2" d="M15.5,39c2,0.75,3.05,0.8,5.55,0.17c6.2-1.55,15.6-4.05,17.7-4.67c2.5-0.75,4.46,1.23,3,3.5c-4.75,7.38-13.88,18.62-25,28.75"/>
		<path id="kvg:0793e-s3" d="M30.82,55.37C32,56.5,32.21,58,32.21,59.94c0,8.57-0.15,21.05-0.3,29.06c-0.06,3.28-0.12,5.81-0.12,7"/>
		<path id="kvg:0793e-s4" d="M36.25,54.5c3.67,2.41,7.6,6.03,10.75,10.25"/>
	</g>
	<g id="kvg:0793e-g2">
		<path id="kvg:0793e-s5" d="M52.13,52.03c1.49,0.39,4.23,0.31,5.71,0.14c7.92-0.91,19.17-2.04,28.02-2.68c2.48-0.18,3.97-0.07,5.22,0.13"/>
		<path id="kvg:0793e-s6" d="M69.31,17.87c1.23,1.23,1.81,3.13,1.81,5.13c0,14.25,0.13,62.57,0.13,63.07"/>
		<path id="kvg:0793e-s7" d="M42.25,88.97c1.92,0.55,5.44,0.76,7.36,0.55c12.39-1.39,28.51-3.64,41.04-4.03c3.2-0.1,6.09,0.14,7.72,0.79"/>
	</g>
</g>
</g>
<g id="kvg:StrokeNumbers_0793e">
	<text transform="matrix(1 0 0 1 21.75 13.63)">1</text>
	<text transform="matrix(1 0 0 1 8.50 40.50)">2</text>
	<text transform="matrix(1 0 0 1 24.75 68.50)">3</text>
	<text transform="matrix(1 0 0 1 38.50 53.50)">4</text>
	<text transform="matrix(1 0 0 1 50.50 48.13)">5</text>
	<text transform="matrix(1 0 0 1 59.50 17.50)">6</text>
	<text transform="matrix(1 0 0 1 40.50 85.63)">7</text>
</g>
</svg>
