<svg width="109" height="109" viewBox="0 0 109 109">
<g id="kvg:StrokePaths_0793b">
<g id="kvg:0793b">
	<path id="kvg:0793b-s1" d="M45,7.5c5.8,2.21,12.03,5.51,17,9.38"/>
	<path id="kvg:0793b-s2" d="M29,33.22c3.12,1.53,5.62,1.58,8.81,0.98c7.72-1.47,24.61-5.65,27.91-6.52c3.86-1.01,5.65,1.54,3.41,4.61C59.75,45.12,42.5,63,24.91,74.62"/>
	<path id="kvg:0793b-s3" d="M53.42,53.37c0.92,0.92,1.02,2.27,1.02,4.14c0,7.13-0.04,24.19-0.06,34.37c-0.01,3.38-0.01,6-0.01,7.25"/>
	<path id="kvg:0793b-s4" d="M57.5,53.75C73,61.62,80.62,68,84.88,75.62"/>
</g>
</g>
<g id="kvg:StrokeNumbers_0793b">
	<text transform="matrix(1 0 0 1 37.38 8.25)">1</text>
	<text transform="matrix(1 0 0 1 20.00 31.43)">2</text>
	<text transform="matrix(1 0 0 1 47.38 67.73)">3</text>
	<text transform="matrix(1 0 0 1 62.25 52.25)">4</text>
</g>
</svg>
