<svg width="109" height="109" viewBox="0 0 109 109">
<g id="kvg:StrokePaths_07980">
<g id="kvg:07980">
	<g id="kvg:07980-g1">
		<g id="kvg:07980-g2">
			<path id="kvg:07980-s1" d="M51.57,8.25c0.98,0.53,2.58,2.56,2.58,3.61c0,3.86-0.31,3.13-0.13,6.4"/>
			<path id="kvg:07980-s2" d="M19.83,20.19c1.73,0.34,3.26,0.72,5.25,0.48c11.86-1.43,47.16-3.18,60.99-3.88c2.03-0.1,3.07,0.04,4.59,0.61"/>
		</g>
		<g id="kvg:07980-g3">
			<g id="kvg:07980-g4">
				<path id="kvg:07980-s3" d="M29.2,27.78c0.68,0.63,1.25,1.8,1.42,2.59C32,36.5,33,41.25,35.31,52.5"/>
				<path id="kvg:07980-s4" d="M31.54,28.79c13.09-1.11,38.69-3.29,46.89-3.29c1.87,0,2.59,1.05,2.38,2.31c-1.02,5.98-1.88,13.64-3.92,21.72"/>
			</g>
			<g id="kvg:07980-g5">
				<path id="kvg:07980-s5" d="M44.45,34.21c0.29,0.17,0.58,0.3,0.71,0.51c0.99,1.64,2.19,5.73,3.04,8.67"/>
				<path id="kvg:07980-s6" d="M46.23,34.9c5.86-0.85,14.35-1.8,17.71-2.01c1.23-0.08,1.96,0.47,1.79,0.93c-0.73,1.91-1.58,4.22-2.66,6.86"/>
				<path id="kvg:07980-s7" d="M48.37,42.24c4.25-0.42,10.52-0.94,15.93-1.32"/>
			</g>
			<g id="kvg:07980-g6">
				<path id="kvg:07980-s8" d="M35.95,50.25c11.3-0.75,29.5-1.81,41.45-2.4"/>
			</g>
		</g>
	</g>
	<g id="kvg:07980-g7">
		<g id="kvg:07980-g8">
			<path id="kvg:07980-s9" d="M34.85,60.19c0.99,0.37,2.8,0.48,3.78,0.37c6.29-0.65,28.63-2.52,35.29-2.62c1.65-0.03,2.63,0.18,3.45,0.37"/>
			<path id="kvg:07980-s10" d="M19.08,72.78c1.64,0.59,4.65,0.7,6.29,0.59c12.38-0.86,42.03-3.53,62.01-3.56c2.73,0,4.38,0.28,5.74,0.57"/>
		</g>
		<g id="kvg:07980-g9">
			<path id="kvg:07980-s11" d="M54.86,73.97c0.07,0.37,1.42,1.92,1.42,4.27c0,4.51-0.25,13.05-0.25,16.89c0,8.15-3.5,2.93-6.74,0.19"/>
			<path id="kvg:07980-s12" d="M35.48,83.05c0.05,0.39,0.1,1.01-0.1,1.57c-1.21,3.3-9.96,9.76-19.45,14.2"/>
			<path id="kvg:07980-s13" d="M69.4,82.06c6.67,2.45,17.57,9.79,19.24,13.59"/>
		</g>
	</g>
</g>
</g>
<g id="kvg:StrokeNumbers_07980">
	<text transform="matrix(1 0 0 1 44.50 9.50)">1</text>
	<text transform="matrix(1 0 0 1 12.50 20.50)">2</text>
	<text transform="matrix(1 0 0 1 23.75 36.50)">3</text>
	<text transform="matrix(1 0 0 1 35.75 26.50)">4</text>
	<text transform="matrix(1 0 0 1 40.50 40.33)">5</text>
	<text transform="matrix(1 0 0 1 47.50 33.50)">6</text>
	<text transform="matrix(1 0 0 1 50.50 40.50)">7</text>
	<text transform="matrix(1 0 0 1 38.50 47.50)">8</text>
	<text transform="matrix(1 0 0 1 28.50 61.50)">9</text>
	<text transform="matrix(1 0 0 1 16.50 70.95)">10</text>
	<text transform="matrix(1 0 0 1 45.50 81.88)">11</text>
	<text transform="matrix(1 0 0 1 24.50 84.50)">12</text>
	<text transform="matrix(1 0 0 1 61.50 88.50)">13</text>
</g>
</svg>
