<svg width="109" height="109" viewBox="0 0 109 109">
<g id="kvg:StrokePaths_079b8">
<g id="kvg:079b8">
	<g id="kvg:079b8-g1">
		<path id="kvg:079b8-s1" d="M18.38,28.5c1.5,1.5,1.73,3.25,1.73,5.8c0,6.2,0,48.07,0,58.45"/>
		<path id="kvg:079b8-s2" d="M20.72,31.66c10.15-1.16,45.78-4.16,63.3-5.85c3.73-0.36,5.92,1.94,5.92,4.58c0,8.23-1.07,45.48-2.18,59.64c-0.84,10.7-6.01,3.22-8.6,0.17"/>
	</g>
	<path id="kvg:079b8-s3" d="M53.94,5.75c0.97,0.97,1.45,2.38,1.45,4.24c0,8.76-0.01,46.18-0.01,48.88"/>
	<path id="kvg:079b8-s4" d="M36.5,61.1c0.88,1.9,1.84,1.98,4.41,1.58c5.09-0.8,19.71-3.42,28.96-5.17"/>
	<path id="kvg:079b8-s5" d="M60.62,46.38c5.8,3.81,14.98,15.68,16.43,21.61"/>
</g>
</g>
<g id="kvg:StrokeNumbers_079b8">
	<text transform="matrix(1 0 0 1 10.50 36.00)">1</text>
	<text transform="matrix(1 0 0 1 25.50 25.93)">2</text>
	<text transform="matrix(1 0 0 1 47.12 13.48)">3</text>
	<text transform="matrix(1 0 0 1 33.50 56.03)">4</text>
	<text transform="matrix(1 0 0 1 64.38 45.83)">5</text>
</g>
</svg>
