<svg width="109" height="109" viewBox="0 0 109 109">
<g id="kvg:StrokePaths_079df">
<g id="kvg:079df">
	<g id="kvg:079df-g1">
		<g id="kvg:079df-g2">
			<path id="kvg:079df-s1" d="M40.25,15.75c-0.13,0.88-0.45,1.9-1.33,2.55c-4.04,2.95-10.54,6.95-22.17,11.45"/>
		</g>
		<g id="kvg:079df-g3">
			<path id="kvg:079df-s2" d="M12.87,42.58c2.13,0.67,4.49,0.51,6.14,0.34c5.59-0.55,17.84-2.04,24.04-2.9c1.13-0.16,2.71-0.28,4.19-0.09"/>
			<path id="kvg:079df-s3" d="M32.08,26.66c1.13,1.13,1.41,2.34,1.41,4.19c0,4.25,0,37.59-0.03,54.4c-0.01,4.58-0.02,7.89-0.04,9"/>
			<path id="kvg:079df-s4" d="M32.68,42.97c0,1.78-0.91,4.4-1.87,6.43C25.88,59.87,18.7,70.91,9.5,79"/>
			<path id="kvg:079df-s5" d="M36.75,52.25c3.56,2.04,6.58,6.12,8.5,8.75"/>
		</g>
	</g>
	<g id="kvg:079df-g4">
		<g id="kvg:079df-g5">
			<path id="kvg:079df-s6" d="M54.52,24.98c1,1,1.41,2.14,1.41,3.65c0,0.98,0.43,57.8,0.35,59.92"/>
			<path id="kvg:079df-s7" d="M56.81,26.81c6.06-0.81,22.2-2.82,23.86-2.99c2.98-0.29,4.49,1.17,4.49,4.71c0,3.83-0.03,40.33-0.03,57.15"/>
			<path id="kvg:079df-s8" d="M57.14,46.6c7.62-0.95,20.08-2.31,26.78-2.6"/>
			<path id="kvg:079df-s9" d="M57.59,65.95c5.95-0.34,19.22-1.92,26.1-1.96"/>
		</g>
		<g id="kvg:079df-g6">
			<path id="kvg:079df-s10" d="M43.04,89.34c2.96,0.53,5.97,0.59,8.71,0.41c11.47-0.75,28.29-2.4,39.75-2.7c2.71-0.07,5.46,0.05,8.13,0.59"/>
		</g>
	</g>
</g>
</g>
<g id="kvg:StrokeNumbers_079df">
	<text transform="matrix(1 0 0 1 32.25 13.63)">1</text>
	<text transform="matrix(1 0 0 1 5.25 43.55)">2</text>
	<text transform="matrix(1 0 0 1 26.25 36.13)">3</text>
	<text transform="matrix(1 0 0 1 20.25 54.13)">4</text>
	<text transform="matrix(1 0 0 1 39.75 52.63)">5</text>
	<text transform="matrix(1 0 0 1 48.50 35.50)">6</text>
	<text transform="matrix(1 0 0 1 57.75 23.50)">7</text>
	<text transform="matrix(1 0 0 1 60.75 43.55)">8</text>
	<text transform="matrix(1 0 0 1 60.75 62.50)">9</text>
	<text transform="matrix(1 0 0 1 40.50 86.50)">10</text>
</g>
</svg>
