<svg width="109" height="109" viewBox="0 0 109 109">
<g id="kvg:StrokePaths_07a74">
<g id="kvg:07a74">
	<g id="kvg:07a74-g1">
		<path id="kvg:07a74-s1" d="M50.97,15.25c1.08,1.08,1.62,2.75,1.62,4.39c0,3.36-0.09,5.86-0.09,8.92"/>
		<g id="kvg:07a74-g2">
			<path id="kvg:07a74-s2" d="M20.75,29.62c0,4.61-2.92,17.3-4.25,20.38"/>
			<path id="kvg:07a74-s3" d="M21,33.75C40.38,31,67.62,27.25,83.75,27c12.75-0.2,3.25,7,0.5,9.25"/>
		</g>
	</g>
	<g id="kvg:07a74-g3">
		<path id="kvg:07a74-s4" d="M39.72,56.24c0.28,1.26,0,2.66-0.68,3.84C34,68.75,23,83,16,89.47"/>
		<path id="kvg:07a74-s5" d="M52,44.5c9.25,1.25,12.25,20,30.87,40.12c3.2,3.46,4.88,5.12,8.13,7.12"/>
	</g>
</g>
</g>
<g id="kvg:StrokeNumbers_07a74">
	<text transform="matrix(1 0 0 1 41.50 16.50)">1</text>
	<text transform="matrix(1 0 0 1 12.75 36.13)">2</text>
	<text transform="matrix(1 0 0 1 24.50 30.50)">3</text>
	<text transform="matrix(1 0 0 1 30.50 52.50)">4</text>
	<text transform="matrix(1 0 0 1 45.50 43.50)">5</text>
</g>
</svg>
