<svg width="109" height="109" viewBox="0 0 109 109">
<g id="kvg:StrokePaths_07a81">
<g id="kvg:07a81">
	<g id="kvg:07a81-g1">
		<g id="kvg:07a81-g2">
			<path id="kvg:07a81-s1" d="M52.29,12.75c1.04,1.04,1.45,2.12,1.45,3.45c0,3.09-0.08,3.77-0.08,6.58"/>
			<g id="kvg:07a81-g3">
				<path id="kvg:07a81-s2" d="M20.62,24.38c0,4.23-2.2,15.86-3.2,18.68"/>
				<path id="kvg:07a81-s3" d="M21.57,27.61c16.18-2.36,43.06-5.11,61.29-5.58c14.41-0.37,4.39,6.72,0.99,8.73"/>
			</g>
		</g>
		<g id="kvg:07a81-g4">
			<path id="kvg:07a81-s4" d="M38.51,35.51c0.09,0.52-0.07,1.37-0.43,2.09C34.86,44.05,31,50.38,22.5,55.62"/>
			<path id="kvg:07a81-s5" d="M60.26,31.98c0.94,0.94,1.18,1.91,1.24,3.09c0.25,5.25,0,2.43,0,5.93c0,4.75,1,6.25,10.5,6.25c7.25,0,11-0.25,12.25-1.75"/>
		</g>
	</g>
	<g id="kvg:07a81-g5">
		<path id="kvg:07a81-s6" d="M25.23,67.43c3.14,0.69,6.06,0.41,8.62,0.13c13.28-1.48,29.6-3.33,41.65-4.14c2.76-0.19,5.48-0.35,8.21,0.22"/>
		<path id="kvg:07a81-s7" d="M50.97,49.28c0.51,0.68,0.78,1.46,0.76,2.93C51.38,76.88,40.62,89.5,19.5,99"/>
		<path id="kvg:07a81-s8" d="M52.29,67.33c7.61,7.06,19.56,18.06,27.96,24.18c2.62,1.91,5.39,3.58,8.25,5.11"/>
	</g>
</g>
</g>
<g id="kvg:StrokeNumbers_07a81">
	<text transform="matrix(1 0 0 1 44.25 12.50)">1</text>
	<text transform="matrix(1 0 0 1 13.50 27.50)">2</text>
	<text transform="matrix(1 0 0 1 23.50 23.50)">3</text>
	<text transform="matrix(1 0 0 1 30.50 36.13)">4</text>
	<text transform="matrix(1 0 0 1 51.75 33.50)">5</text>
	<text transform="matrix(1 0 0 1 17.50 69.50)">6</text>
	<text transform="matrix(1 0 0 1 42.50 50.50)">7</text>
	<text transform="matrix(1 0 0 1 63.50 74.50)">8</text>
</g>
</svg>
