<svg width="109" height="109" viewBox="0 0 109 109">
<g id="kvg:StrokePaths_07aba">
<g id="kvg:07aba">
	<g id="kvg:07aba-g1">
		<g id="kvg:07aba-g2">
			<path id="kvg:07aba-s1" d="M52.98,9c0.89,0.89,1.4,2.48,1.38,3.45c-0.07,3.05-0.07,3.49-0.08,6.27"/>
			<g id="kvg:07aba-g3">
				<path id="kvg:07aba-s2" d="M19.27,19.51c-0.02,3.87-1.77,11.12-3.52,14.24"/>
				<path id="kvg:07aba-s3" d="M19.87,22.74c22.63-2.37,47.76-4.12,67.34-4.88c12.08-0.47,2.56,6.41-0.45,8.3"/>
			</g>
		</g>
		<g id="kvg:07aba-g4">
			<path id="kvg:07aba-s4" d="M43.71,24c0,1-0.59,2.11-1.45,2.85C37.5,31,32.9,34.66,25.98,37.67"/>
			<path id="kvg:07aba-s5" d="M62.84,20.87c0.62,0.98,0.86,2.02,0.75,3.13c-0.01,1.66-0.04,3.71-0.04,5.37c0,4.73,5.86,4.19,10.64,4.19c5.05,0,9.37-0.61,10.08-0.95"/>
		</g>
	</g>
	<g id="kvg:07aba-g5">
		<g id="kvg:07aba-g6">
			<path id="kvg:07aba-s6" d="M19.15,52.29c1.8,0.21,3.59,0.18,5.37-0.1c4.88-0.6,8.89-1.14,15.25-2.08c1.78-0.26,3.53-0.73,5.34-0.5"/>
			<g id="kvg:07aba-g7">
				<path id="kvg:07aba-s7" d="M12.64,67.14c2.39,0.23,4.76,0.17,7.11-0.22c7.75-1.29,16.3-2.25,24.62-3.12c1.7-0.18,3.41-0.12,5.11,0.06"/>
				<path id="kvg:07aba-s8" d="M30.85,41.12c0.77,0.77,1.12,1.9,1.17,3.55C32.93,74.38,29.25,86,14.28,96.23"/>
				<path id="kvg:07aba-s9" d="M33.48,75.1c5.61,3.71,10.33,8.85,12.91,13.91"/>
			</g>
		</g>
		<g id="kvg:07aba-g8">
			<g id="kvg:07aba-g9">
				<path id="kvg:07aba-s10" d="M56.15,41.52c0.78,0.78,1.05,2.07,1.05,3.53c0,3.38,0.04,18.18,0.06,26.8c0.01,3.47,0.01,5.94,0.01,6.26"/>
				<path id="kvg:07aba-s11" d="M57.92,43.38c2.43-0.14,21.75-2.66,23.96-2.82c2.47,0.45,3.08,1.53,3.08,3.39c0,4.43-0.02,17.8-0.03,26.06c-0.01,3.82-0.01,6.55-0.01,6.78"/>
				<path id="kvg:07aba-s12" d="M58.7,53.41c4.91-0.45,21.57-1.72,25.47-1.72"/>
				<path id="kvg:07aba-s13" d="M58.9,64.48c6.22-0.28,18.67-1.7,24.74-2.14"/>
				<path id="kvg:07aba-s14" d="M59.02,76.35c6.79-0.21,17.8-1.02,24.48-1.39"/>
			</g>
			<g id="kvg:07aba-g10">
				<path id="kvg:07aba-s15" d="M62.82,80.33c0.07,1.29-0.19,2.48-0.79,3.57c-2.24,4.56-8.41,12.23-18.95,17.11"/>
				<path id="kvg:07aba-s16" d="M72.7,78.26c0.55,0.86,0.98,1.87,1.01,3.19c0.09,3.55-0.16,4.42-0.16,8.58c0,6.8-0.06,8.97,10.2,8.97c11.23,0,11.55-1.5,11.55-6.58"/>
			</g>
		</g>
	</g>
</g>
</g>
<g id="kvg:StrokeNumbers_07aba">
	<text transform="matrix(1 0 0 1 44.50 8.50)">1</text>
	<text transform="matrix(1 0 0 1 12.50 21.50)">2</text>
	<text transform="matrix(1 0 0 1 22.50 19.50)">3</text>
	<text transform="matrix(1 0 0 1 31.50 29.50)">4</text>
	<text transform="matrix(1 0 0 1 56.50 28.50)">5</text>
	<text transform="matrix(1 0 0 1 11.50 52.50)">6</text>
	<text transform="matrix(1 0 0 1 5.50 66.50)">7</text>
	<text transform="matrix(1 0 0 1 23.50 46.50)">8</text>
	<text transform="matrix(1 0 0 1 38.50 76.50)">9</text>
	<text transform="matrix(1 0 0 1 46.50 48.50)">10</text>
	<text transform="matrix(1 0 0 1 60.25 40.50)">11</text>
	<text transform="matrix(1 0 0 1 60.25 50.80)">12</text>
	<text transform="matrix(1 0 0 1 60.25 61.73)">13</text>
	<text transform="matrix(1 0 0 1 60.25 74.15)">14</text>
	<text transform="matrix(1 0 0 1 51.75 86.58)">15</text>
	<text transform="matrix(1 0 0 1 63.75 92.00)">16</text>
</g>
</svg>
