<svg width="109" height="109" viewBox="0 0 109 109">
<g id="kvg:StrokePaths_07acd">
<g id="kvg:07acd">
	<g id="kvg:07acd-g1">
		<g id="kvg:07acd-g2">
			<path id="kvg:07acd-s1" d="M26.46,14.5c1.04,1.01,1.57,2.37,1.57,3.42c0,2.39,0,9.91,0,16.4"/>
			<path id="kvg:07acd-s2" d="M10,35.25c1.16,0.32,2.53,0.37,3.68,0.32c6.57-0.28,19.57-1.57,28.49-2.22c1.93-0.14,3.1,0.15,4.07,0.32"/>
		</g>
		<g id="kvg:07acd-g3">
			<path id="kvg:07acd-s3" d="M14,46.45c5.83,11.04,8.47,22.33,9,29.6"/>
			<path id="kvg:07acd-s4" d="M40.22,42.26c1.21,1.36,0.68,4.21,0.42,5.3C37.98,58.76,32.38,76.72,30,82.53"/>
			<path id="kvg:07acd-s5" d="M12,91.32c0.95,1.2,3.06,1.18,4,0.7C26.31,86.81,34.75,82,43.9,77.71"/>
		</g>
	</g>
	<g id="kvg:07acd-g4">
		<path id="kvg:07acd-s6" d="M48,48.61c1.75,0.57,3.74,0.75,5.75,0.57c10.25-0.93,24.5-1.68,40-2.78c2-0.14,3.25,0.1,5.25,0.5"/>
		<path id="kvg:07acd-s7" d="M70.75,14.25C72,14.75,73,16.47,73,17.5c0,10.5,0,74.75-0.25,81"/>
	</g>
</g>
</g>
<g id="kvg:StrokeNumbers_07acd">
	<text transform="matrix(1 0 0 1 16.85 14.50)">1</text>
	<text transform="matrix(1 0 0 1 2.66 35.50)">2</text>
	<text transform="matrix(1 0 0 1 6.50 47.50)">3</text>
	<text transform="matrix(1 0 0 1 31.50 44.50)">4</text>
	<text transform="matrix(1 0 0 1 3.50 93.50)">5</text>
	<text transform="matrix(1 0 0 1 46.50 45.50)">6</text>
	<text transform="matrix(1 0 0 1 63.50 14.18)">7</text>
</g>
</svg>
