<svg width="109" height="109" viewBox="0 0 109 109">
<g id="kvg:StrokePaths_07b49">
<g id="kvg:07b49">
	<g id="kvg:07b49-g1">
		<g id="kvg:07b49-g2">
			<path id="kvg:07b49-s1" d="M31.75,11.25c0.08,1.09-0.02,1.81-0.46,2.82C29.36,18.45,24.34,26.08,18.25,31"/>
			<path id="kvg:07b49-s2" d="M29.23,22.04c2.94,0,11.09-1.69,16.52-2.28c1.42-0.16,2.62-0.13,3.75,0"/>
			<path id="kvg:07b49-s3" d="M37.14,23.96c1.74,1.45,4.48,7.5,4.92,9.76"/>
		</g>
		<g id="kvg:07b49-g3">
			<path id="kvg:07b49-s4" d="M65.99,10c0.03,0.37,0.14,0.97-0.06,1.49c-1.5,3.9-4.16,8.22-9.67,13.01"/>
			<path id="kvg:07b49-s5" d="M64.98,19.66c6.02-0.03,14.27-1.16,19.9-2.11c1.56-0.26,2.87-0.17,4,0.04"/>
			<path id="kvg:07b49-s6" d="M72.5,21.75c0.09,0.61-0.01,1.43-0.32,1.95c-1.23,2.89-3.19,5.51-5.68,8.05"/>
		</g>
	</g>
	<g id="kvg:07b49-g4">
		<g id="kvg:07b49-g5">
			<path id="kvg:07b49-s7" d="M29.11,43.3c3.02,0.58,5.08,0.27,7.5-0.03c8.3-1.05,26.12-3.19,36.02-3.78c2.17-0.13,4.36-0.27,6.51,0.11"/>
			<path id="kvg:07b49-s8" d="M52.4,29.87c0.87,0.87,1.22,2.13,1.22,3.29c0,7.84-0.11,18.87-0.11,20.93"/>
			<path id="kvg:07b49-s9" d="M16.88,57.94c2.75,0.43,5.94,0.33,8.87,0.03C44.31,56.1,67,53.62,83.12,52.83c3.16-0.16,6.36,0.07,9.5,0.55"/>
		</g>
		<g id="kvg:07b49-g6">
			<path id="kvg:07b49-s10" d="M24.5,71.57c2.75,0.43,6.47,0.32,9.37,0.09c12.62-0.97,35.73-3.39,47.13-4c2.54-0.14,5.06-0.21,7.58,0.25"/>
			<path id="kvg:07b49-s11" d="M65.97,56.89c0.88,0.88,1.59,2.23,1.59,3.55c0,10.03-0.14,30.11-0.14,33.53c0,8.4-5.54,1.65-7.82-0.33"/>
			<path id="kvg:07b49-s12" d="M41.61,76.66c2.33,1.51,6.03,6.23,6.61,8.59"/>
		</g>
	</g>
</g>
</g>
<g id="kvg:StrokeNumbers_07b49">
	<text transform="matrix(1 0 0 1 24.50 11.50)">1</text>
	<text transform="matrix(1 0 0 1 37.50 17.50)">2</text>
	<text transform="matrix(1 0 0 1 31.50 30.50)">3</text>
	<text transform="matrix(1 0 0 1 58.50 10.50)">4</text>
	<text transform="matrix(1 0 0 1 70.50 15.50)">5</text>
	<text transform="matrix(1 0 0 1 63.75 27.50)">6</text>
	<text transform="matrix(1 0 0 1 22.50 44.50)">7</text>
	<text transform="matrix(1 0 0 1 47.50 26.50)">8</text>
	<text transform="matrix(1 0 0 1 8.25 58.63)">9</text>
	<text transform="matrix(1 0 0 1 13.50 72.50)">10</text>
	<text transform="matrix(1 0 0 1 57.50 64.63)">11</text>
	<text transform="matrix(1 0 0 1 31.50 80.50)">12</text>
</g>
</svg>
