<svg width="109" height="109" viewBox="0 0 109 109">
<g id="kvg:StrokePaths_07bad">
<g id="kvg:07bad">
	<g id="kvg:07bad-g1">
		<g id="kvg:07bad-g2">
			<path id="kvg:07bad-s1" d="M27,12c0.1,0.87,0.02,1.72-0.22,2.54c-2.03,4.71-5.5,10.93-11.78,17.21"/>
			<path id="kvg:07bad-s2" d="M27.73,20.29c1.14,0.16,2.27,0.18,3.4,0.05c3.73-0.32,9.42-1.25,13.62-1.72c1.66-0.21,3.32-0.25,5-0.12"/>
			<path id="kvg:07bad-s3" d="M35.52,22.83c1.96,1.35,5.05,5.54,5.54,7.63"/>
		</g>
		<g id="kvg:07bad-g3">
			<path id="kvg:07bad-s4" d="M62.24,9.5c0,0.88-0.25,1.78-0.66,2.59c-1.64,4.13-5.2,9.3-10.08,14.16"/>
			<path id="kvg:07bad-s5" d="M61.98,18.16c1.56,0.13,3.11,0.12,4.65-0.04c5.3-0.5,13.39-1.74,19.11-2.35c1.95-0.22,3.91-0.28,5.88-0.18"/>
			<path id="kvg:07bad-s6" d="M72.52,20.75c0,0.75-0.27,1.24-0.64,1.75c-1.51,2.12-2.88,4-6.88,7"/>
		</g>
	</g>
	<g id="kvg:07bad-g4">
		<g id="kvg:07bad-g5">
			<path id="kvg:07bad-s7" d="M34.86,33.36c2.94,1.64,7.34,6.24,8.08,8.8"/>
			<path id="kvg:07bad-s8" d="M71.51,31.75c0.04,0.77-0.39,1.45-0.82,2.04c-1.45,2.24-3.7,5.21-6.38,7.39"/>
			<path id="kvg:07bad-s9" d="M15.88,46.89c2.67,0.46,5.34,0.55,8.01,0.28c17.2-1.68,35.82-3.54,59.61-4.55c3.41-0.17,6.81-0.01,10.21,0.48"/>
		</g>
		<g id="kvg:07bad-g6">
			<g id="kvg:07bad-g7">
				<path id="kvg:07bad-s10" d="M24.61,55.02c0.75,0.75,0.89,1.86,0.89,3.02c0,0.48,0,22.17,0,33.46c0,3.06,0,5.35,0,6.25"/>
				<path id="kvg:07bad-s11" d="M26.89,56.11c1.54-0.13,13.77-2.02,17.88-2.63c3.55-0.53,4.1,1.27,4.1,4.39c0,6.62-0.08,26.6-0.08,36.87c0,7.01-4.29,2.26-6.78-0.17"/>
				<path id="kvg:07bad-s12" d="M 31.759167,65.03 c 2.63,1.08 9.525,7.85625 10.185,9.53625"/>
				<path id="kvg:07bad-s13" d="M 31.759167,77.860208 c 2.63,1.08 9.525,7.85625 10.185,9.53625"/>
			</g>
			<g id="kvg:07bad-g8">
				<path id="kvg:07bad-s14" d="M64.96,55.11c0.71,0.71,0.96,2.14,0.96,3.57c0,6.61,0,13.88,0,19.45c0,2.93,0,5.39,0,7.04"/>
				<path id="kvg:07bad-s15" d="M81.94,49.66c0.89,0.89,1.21,2.47,1.21,4.12c0,11.73,0,34.01,0,37.93c0,9.55-3.4,5.3-8.38,1.82"/>
			</g>
		</g>
	</g>
</g>
</g>
<g id="kvg:StrokeNumbers_07bad">
	<text transform="matrix(1 0 0 1 20.25 12.50)">1</text>
	<text transform="matrix(1 0 0 1 31.50 17.50)">2</text>
	<text transform="matrix(1 0 0 1 30.50 28.50)">3</text>
	<text transform="matrix(1 0 0 1 53.50 9.50)">4</text>
	<text transform="matrix(1 0 0 1 66.50 14.50)">5</text>
	<text transform="matrix(1 0 0 1 62.50 25.50)">6</text>
	<text transform="matrix(1 0 0 1 28.50 36.50)">7</text>
	<text transform="matrix(1 0 0 1 61.50 36.50)">8</text>
	<text transform="matrix(1 0 0 1 8.25 47.50)">9</text>
	<text transform="matrix(1 0 0 1 15.25 62.50)">10</text>
	<text transform="matrix(1 0 0 1 28.50 53.50)">11</text>
	<text transform="matrix(1 0 0 1 29.50 63.30)">12</text>
	<text transform="matrix(1 0 0 1 29.50 76.50)">13</text>
	<text transform="matrix(1 0 0 1 54.50 55.50)">14</text>
	<text transform="matrix(1 0 0 1 70.50 52.50)">15</text>
</g>
</svg>
