<svg width="109" height="109" viewBox="0 0 109 109">
<g id="kvg:StrokePaths_07bcb">
<g id="kvg:07bcb">
	<g id="kvg:07bcb-g1">
		<g id="kvg:07bcb-g2">
			<path id="kvg:07bcb-s1" d="M28.24,9c0.04,0.6,0.09,1.55-0.09,2.41c-1.04,5.08-7,16.25-15.16,23.09"/>
			<path id="kvg:07bcb-s2" d="M26.25,21.7c4.41,0,18.55-2.15,23.5-2.15"/>
			<path id="kvg:07bcb-s3" d="M34.75,23.25c2.74,1.76,7.07,7.26,7.75,10"/>
		</g>
		<g id="kvg:07bcb-g3">
			<path id="kvg:07bcb-s4" d="M62.48,9c0.03,0.49,0.15,1.29-0.07,1.99c-1.64,5.2-6.16,12.62-12.16,19.01"/>
			<path id="kvg:07bcb-s5" d="M60.73,19.64c5.68,0,26.52-3.79,32.9-3.79"/>
			<path id="kvg:07bcb-s6" d="M77.25,21.25c0.03,0.24,0.07,0.61-0.06,0.95c-0.79,2-5.28,6.37-11.43,9.05"/>
		</g>
	</g>
	<g id="kvg:07bcb-g4">
		<g id="kvg:07bcb-g5">
			<path id="kvg:07bcb-s7" d="M20.39,39.24c1.53,0.25,4.33,0.26,5.85,0.19c15.87-0.69,40.96-2.75,58.36-3.01c2.54-0.04,4.07,0.07,5.34,0.19"/>
		</g>
		<g id="kvg:07bcb-g6">
			<g id="kvg:07bcb-g7">
				<path id="kvg:07bcb-s8" d="M32.5,50.44c1.22,0.32,3.46,0.44,4.69,0.39c7.81-0.34,37.64-2.39,45.19-1.9c2.03,0.13,3.26,0.21,4.28,0.37"/>
			</g>
			<g id="kvg:07bcb-g8">
				<g id="kvg:07bcb-g9">
					<path id="kvg:07bcb-s9" d="M41.4,56.93c0,0.48,0.06,0.88-0.09,1.43c-1.41,5.18-5.63,11.63-11.82,17.36"/>
					<path id="kvg:07bcb-s10" d="M40.79,66.68c2.46,1.21,5.6,4.43,6.79,7.48"/>
				</g>
				<g id="kvg:07bcb-g10">
					<path id="kvg:07bcb-s11" d="M77.75,54.75c0,0.4,0.07,0.74-0.07,1.2c-1.16,3.91-4.48,10.86-8.43,14.8"/>
					<path id="kvg:07bcb-s12" d="M77,64.25c3.31,2.62,5.85,5.91,7.83,9.89"/>
				</g>
			</g>
			<g id="kvg:07bcb-g11">
				<path id="kvg:07bcb-s13" d="M56.75,41.5c0.38,0.69,1.1,1.48,1,2.96c-1.75,25.54-9,38.29-25,47.04"/>
				<path id="kvg:07bcb-s14" d="M55.25,63c5.34,6.85,17.08,19.02,24.31,22.96c2.03,1.1,2.57,1.42,3.44,1.54"/>
			</g>
		</g>
		<g id="kvg:07bcb-g12">
			<path id="kvg:07bcb-s15" d="M24.14,41.7c0,3.09,0,50.7,0,53.6c0,2.2,1,3.28,2.75,3.09C30.45,98,67.25,95,86.49,94.99c3.25,0,6.01,0.19,8.01,0.58"/>
		</g>
	</g>
</g>
</g>
<g id="kvg:StrokeNumbers_07bcb">
	<text transform="matrix(1 0 0 1 19.50 9.50)">1</text>
	<text transform="matrix(1 0 0 1 34.50 17.50)">2</text>
	<text transform="matrix(1 0 0 1 29.50 30.50)">3</text>
	<text transform="matrix(1 0 0 1 53.50 10.50)">4</text>
	<text transform="matrix(1 0 0 1 68.50 15.85)">5</text>
	<text transform="matrix(1 0 0 1 64.50 27.85)">6</text>
	<text transform="matrix(1 0 0 1 23.25 36.50)">7</text>
	<text transform="matrix(1 0 0 1 32.50 48.10)">8</text>
	<text transform="matrix(1 0 0 1 32.50 61.50)">9</text>
	<text transform="matrix(1 0 0 1 43.50 66.95)">10</text>
	<text transform="matrix(1 0 0 1 68.50 57.50)">11</text>
	<text transform="matrix(1 0 0 1 81.50 64.50)">12</text>
	<text transform="matrix(1 0 0 1 46.50 46.50)">13</text>
	<text transform="matrix(1 0 0 1 60.50 66.50)">14</text>
	<text transform="matrix(1 0 0 1 13.25 48.50)">15</text>
</g>
</svg>
