<svg width="109" height="109" viewBox="0 0 109 109">
<g id="kvg:StrokePaths_07bdd">
<g id="kvg:07bdd">
	<g id="kvg:07bdd-g1">
		<g id="kvg:07bdd-g2">
			<path id="kvg:07bdd-s1" d="M30.99,9c0.05,0.51,0.1,1.32-0.1,2.06C29.73,15.4,23.09,24.92,14,30.75"/>
			<path id="kvg:07bdd-s2" d="M27.73,20.27c4.22,0,19.28-2.99,24.02-2.99"/>
			<path id="kvg:07bdd-s3" d="M32,20.75c1.85,1.77,4.79,7.26,5.25,10"/>
		</g>
		<g id="kvg:07bdd-g3">
			<path id="kvg:07bdd-s4" d="M62.74,9c0.03,0.41,0.13,1.06-0.06,1.63C61.28,14.9,57.39,21,52.25,26.25"/>
			<path id="kvg:07bdd-s5" d="M60.98,17.7c4.97,0,25.19-3.23,30.77-3.23"/>
			<path id="kvg:07bdd-s6" d="M77.02,18.5c0.03,0.2,0.05,0.52-0.05,0.8c-0.63,1.7-4.26,5.42-9.21,7.7"/>
		</g>
	</g>
	<g id="kvg:07bdd-g4">
		<g id="kvg:07bdd-g5">
			<g id="kvg:07bdd-g6">
				<path id="kvg:07bdd-s7" d="M25.02,39.46c1.36,0.3,3.87,0.41,5.22,0.24c5.52-0.71,35.81-3.2,49.28-3.88c2.27-0.12,3.63,0.09,4.77,0.24"/>
			</g>
			<path id="kvg:07bdd-s8" d="M43.01,32.24c0.74,0.76,1.38,1.01,1.38,2.6c0,0.56-0.15,11.89-0.35,19.81"/>
			<path id="kvg:07bdd-s9" d="M64.01,30.63c1.07,0.3,1.98,2.42,1.97,2.99c-0.14,4.55-0.48,11.32-0.78,19.29"/>
			<g id="kvg:07bdd-g7">
				<g id="kvg:07bdd-g8">
					<path id="kvg:07bdd-s10" d="M28.79,47.63c1.45,0.37,4.13,0.45,5.58,0.34c11.45-0.93,25.9-2.55,40.33-3.22c2.43-0.11,3.89,0.15,5.1,0.33"/>
				</g>
				<g id="kvg:07bdd-g9">
					<g id="kvg:07bdd-g10">
						<path id="kvg:07bdd-s11" d="M15.03,55.94c1.94,0.47,5.52,0.57,7.46,0.42c12.42-1.01,42.52-2.82,66.2-3.91c3.24-0.15,5.19,0.19,6.81,0.41"/>
					</g>
				</g>
			</g>
		</g>
		<g id="kvg:07bdd-g11">
			<g id="kvg:07bdd-g12">
				<g id="kvg:07bdd-g13">
					<path id="kvg:07bdd-s12" d="M33.24,62.55c0.29,0.63,0.91,2.06,0.82,3.19c-0.1,1.13,0.1,32.8,0.1,34.69"/>
					<path id="kvg:07bdd-s13" d="M33.89,63.84c5.9-0.47,39.06-2.98,40.23-3.14c2.48-0.36,4.05,1.6,4.04,2.19c-0.12,3.66-0.47,29.37-0.47,32.1c0,7.3-5.43,1.25-7.43-0.19"/>
				</g>
				<g id="kvg:07bdd-g14">
					<path id="kvg:07bdd-s14" d="M52.88,55c0.08,0.19,1.13,0.97,1.13,2.16c0,7.66,0.09,15.52,0.09,25.65"/>
					<path id="kvg:07bdd-s15" d="M 21.293333,73.83 c 11.22,-0.48 57.734584,-2.43 69.874584,-2.77"/>
					<path id="kvg:07bdd-s16" d="M17.88,84.59c1.44,0.26,4.07,0.3,5.51,0.24c17.76-0.84,49.44-3.39,65.33-3.83c2.39-0.07,3.83,0.1,5.02,0.23"/>
				</g>
			</g>
		</g>
	</g>
</g>
</g>
<g id="kvg:StrokeNumbers_07bdd">
	<text transform="matrix(1 0 0 1 23.50 9.50)">1</text>
	<text transform="matrix(1 0 0 1 35 16.5)">2</text>
	<text transform="matrix(1 0 0 1 26.50 29.50)">3</text>
	<text transform="matrix(1 0 0 1 54.50 9.50)">4</text>
	<text transform="matrix(1 0 0 1 65 14.50)">5</text>
	<text transform="matrix(1 0 0 1 79 23.6)">6</text>
	<text transform="matrix(1 0 0 1 18.50 39.50)">7</text>
	<text transform="matrix(1 0 0 1 40.25 29.50)">8</text>
	<text transform="matrix(1 0 0 1 55.50 31.03)">9</text>
	<text transform="matrix(1 0 0 1 17.50 49.50)">10</text>
	<text transform="matrix(1 0 0 1 5 57.50)">11</text>
	<text transform="matrix(1 0 0 1 22.50 68.80)">12</text>
	<text transform="matrix(1 0 0 1 36 61.50)">13</text>
	<text transform="matrix(1 0 0 1 56 60.50)">14</text>
	<text transform="matrix(1 0 0 1 10 77.7)">15</text>
	<text transform="matrix(1 0 0 1 6.1 89)">16</text>
</g>
</svg>
