<svg width="109" height="109" viewBox="0 0 109 109">
<g id="kvg:StrokePaths_07c23">
<g id="kvg:07c23">
	<g id="kvg:07c23-g1">
		<g id="kvg:07c23-g2">
			<path id="kvg:07c23-s1" d="M29.5,9c0.04,0.49,0.08,1.26-0.08,1.96C28.5,15.1,23.22,24.19,16,29.75"/>
			<path id="kvg:07c23-s2" d="M28.75,19.07c4.31,0,18.16-2.14,23-2.14"/>
			<path id="kvg:07c23-s3" d="M35.27,20.83c1.6,1.17,4.14,4.81,4.54,6.63"/>
		</g>
		<g id="kvg:07c23-g3">
			<path id="kvg:07c23-s4" d="M61.25,8.25c0.02,0.37,0.1,0.95-0.05,1.47c-1.14,3.84-4.29,9.32-8.46,14.03"/>
			<path id="kvg:07c23-s5" d="M60.98,17.16c4.73,0,24.08-3.07,29.4-3.07"/>
			<path id="kvg:07c23-s6" d="M75.74,18c0.03,0.19,0.06,0.5-0.05,0.78c-0.63,1.65-4.24,5.26-9.19,7.47"/>
		</g>
	</g>
	<g id="kvg:07c23-g4">
		<g id="kvg:07c23-g5">
			<g id="kvg:07c23-g6">
				<g id="kvg:07c23-g7">
					<path id="kvg:07c23-s7" d="M29.75,34.57c0.31,0.13,0.92,0.44,1.02,0.77c0.7,2.38,1.55,6.09,2.54,10.59"/>
					<path id="kvg:07c23-s8" d="M31.88,35.18c10.97-0.4,36.36-3.5,44.3-3.44c1.83,0.01,2.63,1.34,2.29,2.88c-0.33,1.47-0.97,2.69-3.02,5.98"/>
					<path id="kvg:07c23-s9" d="M33.38,44.8c8.97-0.55,31.99-2.73,44.54-3.25"/>
				</g>
				<g id="kvg:07c23-g8">
					<path id="kvg:07c23-s10" d="M52.4,27c0.88,0.37,1.59,1.63,1.59,2.39c0,7.01,0,15.96-0.18,20.56"/>
				</g>
			</g>
			<path id="kvg:07c23-s11" d="M14.52,52.49c1.52,0.48,4.32,0.65,5.83,0.51c12.97-1.2,50.57-4.18,69.31-4.48c2.54-0.04,4.06,0.25,5.32,0.49"/>
		</g>
		<g id="kvg:07c23-g9">
			<g id="kvg:07c23-g10">
				<path id="kvg:07c23-s12" d="M33.42,57.93c0.39,0.71,0.67,2.66,0.67,3.6c0,0.95,0.04,28.02,0.04,28.49"/>
				<path id="kvg:07c23-s13" d="M35.33,59.14c7.92-0.64,33.48-2.52,36.97-2.66c2.9-0.12,3.93,0.96,3.93,3.45c0,4.32-0.84,26.5-0.84,27.21"/>
				<path id="kvg:07c23-s14" d="M34.75,67.92c7.03-0.45,32.76-2.2,38.96-2.2"/>
				<path id="kvg:07c23-s15" d="M34.5,77.44c7.7,0,30.82-2.35,40.79-2.35"/>
				<path id="kvg:07c23-s16" d="M36.06,86.73c7.19,0,28.85-1.92,38.15-1.92"/>
			</g>
			<g id="kvg:07c23-g11">
				<path id="kvg:07c23-s17" d="M42.14,91.49c-0.14,1.01,0.09,1.62-1,2.26c-3.33,1.96-11.51,6.2-18.14,8.5"/>
				<path id="kvg:07c23-s18" d="M64.55,90.27c8.42,2.98,18.36,8.38,20.66,10.98"/>
			</g>
		</g>
	</g>
</g>
</g>
<g id="kvg:StrokeNumbers_07c23">
	<text transform="matrix(1 0 0 1 21.50 10.50)">1</text>
	<text transform="matrix(1 0 0 1 33 15.50)">2</text>
	<text transform="matrix(1 0 0 1 30.50 26.50)">3</text>
	<text transform="matrix(1 0 0 1 52.50 9.50)">4</text>
	<text transform="matrix(1 0 0 1 64 13.50)">5</text>
	<text transform="matrix(1 0 0 1 78 22.5)">6</text>
	<text transform="matrix(1 0 0 1 21.50 38.50)">7</text>
	<text transform="matrix(1 0 0 1 33.50 32.50)">8</text>
	<text transform="matrix(1 0 0 1 36.50 42.50)">9</text>
	<text transform="matrix(1 0 0 1 42.50 31.50)">10</text>
	<text transform="matrix(1 0 0 1 4.25 53.38)">11</text>
	<text transform="matrix(1 0 0 1 22.25 63.50)">12</text>
	<text transform="matrix(1 0 0 1 37.25 57.73)">13</text>
	<text transform="matrix(1 0 0 1 38.50 65.15)">14</text>
	<text transform="matrix(1 0 0 1 38.66 74.08)">15</text>
	<text transform="matrix(1 0 0 1 38.54 84.50)">16</text>
	<text transform="matrix(1 0 0 1 25.50 96.93)">17</text>
	<text transform="matrix(1 0 0 1 54.50 96.50)">18</text>
</g>
</svg>
