<svg width="109" height="109" viewBox="0 0 109 109">
<g id="kvg:StrokePaths_07cde">
<g id="kvg:07cde">
	<g id="kvg:07cde-g1">
		<path id="kvg:07cde-s1" d="M32.54,11.07c2.61,1.4,6.56,5.37,7.21,7.55"/>
		<path id="kvg:07cde-s2" d="M75.7,10.11c0.03,0.21,0.06,0.54-0.06,0.84c-0.71,1.78-4.76,5.68-10.3,8.07"/>
		<path id="kvg:07cde-s3" d="M20.19,24.63c0.77,0.26,2.83,0.68,4.88,0.77c5.65,0.26,50.42-3.4,60.13-3.67c2.05-0.06,2.57,0.24,3.85,0.5"/>
		<path id="kvg:07cde-s4" d="M52.66,10c1.06,0.42,1.69,1.9,1.9,2.75c0.21,0.84,0,18.97-0.21,24.25"/>
		<path id="kvg:07cde-s5" d="M51.16,24.02c-6.03,6.62-20.67,15.92-34.23,19.74"/>
		<path id="kvg:07cde-s6" d="M57.17,23.79c4.7,1.93,25.33,11.07,30.45,12.97c1.73,0.64,3.22,0.92,4.95,1.1"/>
	</g>
	<g id="kvg:07cde-g2">
		<g id="kvg:07cde-g3">
			<path id="kvg:07cde-s7" d="M31.6,42.55c0.34,0.34,0.34,0.57,0.52,0.99C33.62,47,34.88,54.63,35.75,61"/>
			<path id="kvg:07cde-s8" d="M33.14,43.72c13.61-1.22,34-2.91,42.85-3.24c3.25-0.12,3.09,1.82,2.9,2.77c-1.13,5.5-2.13,10.75-3.69,15.39"/>
			<path id="kvg:07cde-s9" d="M53.03,42.62c0.52,0.45,1.33,1.26,1.33,2.39c0,4.52-0.24,8.4-0.24,13.41"/>
			<path id="kvg:07cde-s10" d="M35.25,51.26c3.86-0.17,37.78-2.14,40.97-2.14"/>
			<path id="kvg:07cde-s11" d="M36.42,59.46c10.59-0.88,30.65-1.52,38.83-1.83"/>
		</g>
		<g id="kvg:07cde-g4">
			<g id="kvg:07cde-g5">
				<path id="kvg:07cde-s12" d="M30.35,71.3c1.01,0.2,2.86,0.3,3.86,0.2c4.07-0.4,34.33-2.7,43.9-2.7c1.68,0,2.68,0.1,3.52,0.2"/>
				<path id="kvg:07cde-s13" d="M42.47,64.38c0.71,0.2,1.21,0.9,1.27,1.31C44.5,71,45,75.25,45.99,81.73"/>
				<path id="kvg:07cde-s14" d="M64.49,61.28c0.76,0.72,1.48,2.22,1.44,2.78C65.35,71.6,64,76.5,63.11,80.27"/>
				<path id="kvg:07cde-s15" d="M19.23,82.76c1.5,0.3,4.26,0.38,5.75,0.3c9.81-0.54,51.75-2.7,64.29-2.96c2.5-0.05,4,0.14,5.25,0.29"/>
			</g>
			<g id="kvg:07cde-g6">
				<path id="kvg:07cde-s16" d="M44.16,88.34c0.05,0.29,0.11,0.74-0.1,1.14c-1.24,2.42-9.4,7.08-18.12,10.96"/>
				<path id="kvg:07cde-s17" d="M66.09,87.08c6.03,2.32,15.57,9.53,17.08,13.14"/>
			</g>
		</g>
	</g>
</g>
</g>
<g id="kvg:StrokeNumbers_07cde">
	<text transform="matrix(1 0 0 1 25.62 11.12)">1</text>
	<text transform="matrix(1 0 0 1 67.00 9.25)">2</text>
	<text transform="matrix(1 0 0 1 13.12 24.50)">3</text>
	<text transform="matrix(1 0 0 1 45.50 9.50)">4</text>
	<text transform="matrix(1 0 0 1 31.25 33.33)">5</text>
	<text transform="matrix(1 0 0 1 79.50 31.50)">6</text>
	<text transform="matrix(1 0 0 1 25.25 52.18)">7</text>
	<text transform="matrix(1 0 0 1 42.25 40.10)">8</text>
	<text transform="matrix(1 0 0 1 58.50 47.50)">9</text>
	<text transform="matrix(1 0 0 1 38.50 49.50)">10</text>
	<text transform="matrix(1 0 0 1 39.50 57.50)">11</text>
	<text transform="matrix(1 0 0 1 19.50 72.50)">12</text>
	<text transform="matrix(1 0 0 1 32.50 67.50)">13</text>
	<text transform="matrix(1 0 0 1 54.50 65.50)">14</text>
	<text transform="matrix(1 0 0 1 8.50 83.50)">15</text>
	<text transform="matrix(1 0 0 1 30.50 92.50)">16</text>
	<text transform="matrix(1 0 0 1 56.50 92.50)">17</text>
</g>
</svg>
