<svg width="109" height="109" viewBox="0 0 109 109">
<g id="kvg:StrokePaths_07cfa">
<g id="kvg:07cfa">
	<g id="kvg:07cfa-g1">
		<path id="kvg:07cfa-s1" d="M30.97,12.25c0.41,1.31,0.59,2.3-0.2,3.72C27.25,22.25,20.88,30,16.82,33.06c-0.83,0.63-0.81,3.03,0,3.28c4.27,1.31,10.25,3.5,13.91,5.9"/>
		<path id="kvg:07cfa-s2" d="M45.09,21.94c0.34,0.63,0.45,2.68,0,3.35c-6.68,9.82-16.64,23.5-25.81,32.46c-2.1,2.05,0.52,3.23,1.89,2.81c5.74-1.75,17.65-4.87,25.02-6.54"/>
		<path id="kvg:07cfa-s3" d="M41.25,47c2.91,2.52,7.52,10.34,8.25,14.25"/>
		<path id="kvg:07cfa-s4" d="M32.72,60.76c0.07,0.29,0.91,1.48,0.98,3.28c0.31,8.64-0.2,30.27-0.2,33.21"/>
		<path id="kvg:07cfa-s5" d="M23.76,71.5c0.2,1.09,0.17,3.23-0.2,4.01c-2.4,5.08-8.41,14.88-11.81,19.24"/>
		<path id="kvg:07cfa-s6" d="M41.5,69.25c4.38,3.67,7.73,12.18,8.75,15.5"/>
	</g>
	<g id="kvg:07cfa-g2">
		<path id="kvg:07cfa-s7" d="M61.49,13.87c0.83,0.92,1.68,2.72,1.71,4.64c0.17,8.58-0.45,59.86-0.45,65.69c0,10.74,3.09,12.08,17.76,12.08c11.87,0,13.38-2.65,13.38-9.56"/>
	</g>
</g>
</g>
<g id="kvg:StrokeNumbers_07cfa">
	<text transform="matrix(1 0 0 1 24.50 12.50)">1</text>
	<text transform="matrix(1 0 0 1 37.50 20.55)">2</text>
	<text transform="matrix(1 0 0 1 41.50 44.50)">3</text>
	<text transform="matrix(1 0 0 1 26.25 68.40)">4</text>
	<text transform="matrix(1 0 0 1 15.50 72.50)">5</text>
	<text transform="matrix(1 0 0 1 38.50 67.50)">6</text>
	<text transform="matrix(1 0 0 1 53.50 13.50)">7</text>
</g>
</svg>
