<svg width="109" height="109" viewBox="0 0 109 109">
<g id="kvg:StrokePaths_07d06">
<g id="kvg:07d06">
	<g id="kvg:07d06-g1">
		<path id="kvg:07d06-s1" d="M27.4,11.92c0.36,1.42,0.38,2.47-0.18,4.01c-2.46,6.81-7.46,14.56-12.28,20.01c-0.67,0.75-0.72,3.27,0,3.54c3.81,1.42,9.64,3.28,12.91,5.88"/>
		<path id="kvg:07d06-s2" d="M40.3,23.68c0.3,0.58,0.37,2.46,0,3.09c-5.8,9.73-15.49,24.18-23.48,32.44c-1.83,1.89,0.46,2.98,1.65,2.59c5-1.61,16.87-4.49,23.29-6.03"/>
		<path id="kvg:07d06-s3" d="M36.63,46.63c2.78,2.8,7.18,11.5,7.87,15.85"/>
		<path id="kvg:07d06-s4" d="M29.14,61.87c0.07,0.36,0.91,1.85,0.98,4.09c0.31,10.79-0.2,28.79-0.2,32.46"/>
		<path id="kvg:07d06-s5" d="M20.85,72.1c0.16,0.94,0.13,2.79-0.16,3.47c-1.87,4.39-6.55,12.85-9.2,16.62"/>
		<path id="kvg:07d06-s6" d="M37.68,70.29c3.87,3.77,6.84,12.52,7.74,15.94"/>
	</g>
	<g id="kvg:07d06-g2">
		<g id="kvg:07d06-g3">
			<g id="kvg:07d06-g4">
				<path id="kvg:07d06-s7" d="M51.25,19.94c1.02,0.29,2.88,0.27,3.89,0.29c5.41,0.11,23.64-2.34,33.3-2.34c1.69,0,2.71,0.14,3.56,0.28"/>
			</g>
			<g id="kvg:07d06-g5">
				<path id="kvg:07d06-s8" d="M46.05,49.84c1.46,0.28,4.13,0.33,5.58,0.24c10.76-0.65,26.51-2.09,42.23-2.22c2.43-0.02,3.88,0.1,5.1,0.24"/>
			</g>
		</g>
		<g id="kvg:07d06-g6">
			<path id="kvg:07d06-s9" d="M71,22.85c0.74,0.92,1.61,3,1.69,6.06c0.35,14.66-0.22,58.55-0.22,63.54c0,10.56-7.63,0.2-8.61-0.75"/>
		</g>
	</g>
</g>
</g>
<g id="kvg:StrokeNumbers_07d06">
	<text transform="matrix(1 0 0 1 20.50 11.50)">1</text>
	<text transform="matrix(1 0 0 1 33.50 22.50)">2</text>
	<text transform="matrix(1 0 0 1 36.50 44.50)">3</text>
	<text transform="matrix(1 0 0 1 22.50 69.50)">4</text>
	<text transform="matrix(1 0 0 1 11.50 73.50)">5</text>
	<text transform="matrix(1 0 0 1 35.50 67.50)">6</text>
	<text transform="matrix(1 0 0 1 49.50 15.50)">7</text>
	<text transform="matrix(1 0 0 1 44.50 45.50)">8</text>
	<text transform="matrix(1 0 0 1 63.50 30.03)">9</text>
</g>
</svg>
