<svg width="109" height="109" viewBox="0 0 109 109">
<g id="kvg:StrokePaths_07d71">
<g id="kvg:07d71">
	<g id="kvg:07d71-g1">
		<path id="kvg:07d71-s1" d="M28.4,17c0.31,1.21,0.23,2.43-0.41,3.69c-3.11,6.18-6.98,12.65-10.07,17.04c-0.8,1.14-0.56,2.69,0,3.04c3.33,2.1,5.34,2.99,8.14,5.22"/>
		<path id="kvg:07d71-s2" d="M37.28,30.69c0.09,1.06-0.03,1.93-0.75,2.94c-5.94,8.34-12.78,17.12-20.38,24.98c-1.74,1.8,0.43,2.83,1.57,2.47c4.75-1.53,16.12-4.27,22.23-5.74"/>
		<path id="kvg:07d71-s3" d="M37.25,49.62c1.94,1.96,5.01,8.07,5.5,11.12"/>
		<path id="kvg:07d71-s4" d="M29.08,60.26c0.58,0.58,1.03,1.99,1.03,3.03c0,6.11,0.02,18.46-0.08,26.21c-0.04,3.21-0.08,5.64-0.08,6.5"/>
		<path id="kvg:07d71-s5" d="M21.23,70.5c0.15,0.96-0.15,2.34-0.4,3.04c-1.58,4.46-5.29,11.97-9.08,17.21"/>
		<path id="kvg:07d71-s6" d="M37.88,69.12c2.44,3.46,4.31,11.49,4.88,14.62"/>
	</g>
	<g id="kvg:07d71-g2">
		<g id="kvg:07d71-g3">
			<g id="kvg:07d71-g4">
				<path id="kvg:07d71-s7" d="M66.33,14.24c1.09,1.09,1.46,2.63,1.46,4.19c0,3.68-0.12,5.69-0.12,7.61"/>
				<path id="kvg:07d71-s8" d="M46.35,28.46c2.01,0.15,3.77,0.32,5.78,0.11c8.03-0.84,26.14-2.76,35.74-3.38c1.77-0.11,3.56-0.34,5.27,0.3"/>
			</g>
			<g id="kvg:07d71-g5">
				<g id="kvg:07d71-g6">
					<path id="kvg:07d71-s9" d="M65.84,30.54c0,0.96-0.24,1.82-0.6,2.34c-3.85,5.51-6.74,9.99-11.74,15.65c-1.68,1.9-1.66,3.28,1.15,2.68c9.72-2.08,16.68-3.65,26.26-5.67"/>
					<path id="kvg:07d71-s10" d="M76.52,38.69c3.41,2.3,8.81,9.47,9.66,13.05"/>
				</g>
			</g>
		</g>
		<g id="kvg:07d71-g7">
			<g id="kvg:07d71-g8">
				<g id="kvg:07d71-g9">
					<g id="kvg:07d71-g10">
						<path id="kvg:07d71-s11" d="M61.62,56.72c0.25,0.9,0.14,2.24-0.09,3.48c-1.9,9.8-5.65,22.68-17.4,33.02"/>
					</g>
					<g id="kvg:07d71-g11">
						<path id="kvg:07d71-s12" d="M71.89,52.42c0.91,0.91,1.59,2.83,1.59,4.26c0,10.08-0.07,19.1-0.07,25.08c0,10.74,1.34,12.4,11.51,12.4c9.58,0,10.5-1.16,10.5-9.81"/>
					</g>
				</g>
			</g>
		</g>
	</g>
</g>
</g>
<g id="kvg:StrokeNumbers_07d71">
	<text transform="matrix(1 0 0 1 21.75 16.13)">1</text>
	<text transform="matrix(1 0 0 1 30.25 29.13)">2</text>
	<text transform="matrix(1 0 0 1 36.50 47.50)">3</text>
	<text transform="matrix(1 0 0 1 23.25 68.50)">4</text>
	<text transform="matrix(1 0 0 1 12.75 73.50)">5</text>
	<text transform="matrix(1 0 0 1 35.00 65.83)">6</text>
	<text transform="matrix(1 0 0 1 58.50 15.50)">7</text>
	<text transform="matrix(1 0 0 1 44.50 25.55)">8</text>
	<text transform="matrix(1 0 0 1 55.50 37.50)">9</text>
	<text transform="matrix(1 0 0 1 73.50 36.50)">10</text>
	<text transform="matrix(1 0 0 1 51.50 61.50)">11</text>
	<text transform="matrix(1 0 0 1 76.50 60.50)">12</text>
</g>
</svg>
