<svg width="109" height="109" viewBox="0 0 109 109">
<g id="kvg:StrokePaths_07e92">
<g id="kvg:07e92">
	<g id="kvg:07e92-g1">
		<path id="kvg:07e92-s1" d="M25.77,13c0.33,1.32,0.34,2.29-0.17,3.73C23.38,23.06,20,29.5,14.13,35.86c-0.63,0.68-0.65,3.04,0,3.29c3.45,1.32,8.23,3.05,11.19,5.46"/>
		<path id="kvg:07e92-s2" d="M38.05,24.43c0.3,0.58,0.37,2.46,0,3.09c-5.8,9.73-15.99,21.68-23.98,29.94c-1.83,1.89,0.46,2.98,1.65,2.59c5-1.61,15.37-3.99,21.79-5.53"/>
		<path id="kvg:07e92-s3" d="M32.75,46.75c2.65,2.47,6.84,10.14,7.5,13.98"/>
		<path id="kvg:07e92-s4" d="M26.39,60.62c0.07,0.36,0.91,1.85,0.98,4.09c0.31,10.79-0.2,28.79-0.2,32.46"/>
		<path id="kvg:07e92-s5" d="M17.62,69.85c0.14,1.01,0.11,3.01-0.13,3.74C15.86,78.32,11.8,87.44,9.5,91.5"/>
		<path id="kvg:07e92-s6" d="M33,66.5c2.75,2.6,4.86,8.64,5.5,11"/>
	</g>
	<g id="kvg:07e92-g2">
		<g id="kvg:07e92-g3">
			<path id="kvg:07e92-s7" d="M46.4,15.6c1.14,0.39,3.23,0.45,4.37,0.39c13.05-0.73,25.37-2.67,40.24-2.82c1.9-0.02,3.04,0.19,3.99,0.38"/>
			<path id="kvg:07e92-s8" d="M51,16c0.05,1.83-0.03,4.73-0.09,7.36C50.5,41.25,49.75,75.25,35.5,93.25"/>
		</g>
		<g id="kvg:07e92-g4">
			<g id="kvg:07e92-g5">
				<g id="kvg:07e92-g6">
					<path id="kvg:07e92-s9" d="M57.46,24.42c0.25,0.29,0.55,1.14,0.69,1.5c1.11,3.01,2.16,10.94,2.85,16.56"/>
					<path id="kvg:07e92-s10" d="M58.16,25.43c8.41-0.69,22.97-2.18,29.24-2.76c2.31-0.21,3.48,1.34,3.37,2.43c-0.28,2.78-1.63,9.79-3.34,14.67"/>
					<path id="kvg:07e92-s11" d="M59.75,33.25c7.43-0.75,23-2.5,28.87-2.31"/>
					<path id="kvg:07e92-s12" d="M60.63,40.32c6.06-0.29,19.08-1.66,27.45-2.14"/>
					<path id="kvg:07e92-s13" d="M72.67,24.01c0.46,0.44,0.68,0.7,0.7,1.24c0.21,6.19,0.09,27.72,0.09,29.9"/>
					<path id="kvg:07e92-s14" d="M59.16,49.18c0.6,0.14,1.69,0.16,2.29,0.14c6.21-0.16,13.98-1.58,25.4-1.62c0.99,0,1.59,0.07,2.09,0.14"/>
					<path id="kvg:07e92-s15" d="M54.35,57.16c0.97,0.27,2.74,0.31,3.71,0.27c10.08-0.45,21.22-1.86,35.29-1.86c1.62,0,2.58,0.13,3.39,0.27"/>
				</g>
				<g id="kvg:07e92-g7">
					<path id="kvg:07e92-s16" d="M56.25,64.5c-0.59,3.83-3.45,8.29-4.22,9.25"/>
					<path id="kvg:07e92-s17" d="M64.04,63.75c2.14,1.25,3.87,3.87,4.71,6.62"/>
					<path id="kvg:07e92-s18" d="M77.73,61.53c2.25,1.45,5.52,5.66,5.52,8.22"/>
					<path id="kvg:07e92-s19" d="M90.5,61.5c2.67,1.51,6.89,6.22,7.56,8.58"/>
				</g>
			</g>
			<g id="kvg:07e92-g8">
				<path id="kvg:07e92-s20" d="M55.75,82.06c0.96,0.27,2.73,0.34,3.69,0.27c12.38-0.9,17.79-2.15,30.25-2.39c1.61-0.03,2.57,0.13,3.37,0.26"/>
				<path id="kvg:07e92-s21" d="M74.07,72.75c0.05,0.21,0.73,1.07,0.73,2.38c0,3.65-0.15,13.39-0.15,16.78"/>
				<path id="kvg:07e92-s22" d="M48.67,94.6c1.3,0.49,3.69,0.6,4.98,0.49c16.09-1.38,26.22-2.12,40.62-2.77c2.17-0.1,3.47,0.23,4.55,0.48"/>
			</g>
		</g>
	</g>
</g>
</g>
<g id="kvg:StrokeNumbers_07e92">
	<text transform="matrix(1 0 0 1 19.25 13.38)">1</text>
	<text transform="matrix(1 0 0 1 31.25 24.25)">2</text>
	<text transform="matrix(1 0 0 1 35.25 46.25)">3</text>
	<text transform="matrix(1 0 0 1 19.00 68.25)">4</text>
	<text transform="matrix(1 0 0 1 8.00 71.25)">5</text>
	<text transform="matrix(1 0 0 1 32.25 64.25)">6</text>
	<text transform="matrix(1 0 0 1 50.25 13.25)">7</text>
	<text transform="matrix(1 0 0 1 43.25 24.25)">8</text>
	<text transform="matrix(1 0 0 1 53.25 35.25)">9</text>
	<text transform="matrix(1 0 0 1 58.25 23.25)">10</text>
	<text transform="matrix(1 0 0 1 62.25 31.25)">11</text>
	<text transform="matrix(1 0 0 1 62.25 39.25)">12</text>
	<text transform="matrix(1 0 0 1 75.00 29.25)">13</text>
	<text transform="matrix(1 0 0 1 61.25 47.25)">14</text>
	<text transform="matrix(1 0 0 1 52.25 55.25)">15</text>
	<text transform="matrix(1 0 0 1 50.00 63.25)">16</text>
	<text transform="matrix(1 0 0 1 57.25 69.25)">17</text>
	<text transform="matrix(1 0 0 1 71.25 68.25)">18</text>
	<text transform="matrix(1 0 0 1 84.25 67.25)">19</text>
	<text transform="matrix(1 0 0 1 54.25 79.25)">20</text>
	<text transform="matrix(1 0 0 1 78.25 76.25)">21</text>
	<text transform="matrix(1 0 0 1 46.25 91.25)">22</text>
</g>
</svg>
