<svg width="109" height="109" viewBox="0 0 109 109">
<g id="kvg:StrokePaths_07f51">
<g id="kvg:07f51">
	<g id="kvg:07f51-g1">
		<path id="kvg:07f51-s1" d="M19.5,20.5c0.75,1.21,1.25,3.15,1,5.32s0.25,66.3,0.25,69.93"/>
		<path id="kvg:07f51-s2" d="M20.5,23c9.5-1,62.63-3.65,64.5-4c4-0.75,6,2.75,6,4c0,4.5-3.09,52.05-4.25,60c-2,13.75-5.75,5.25-8.75,2"/>
	</g>
	<g id="kvg:07f51-g2">
		<g id="kvg:07f51-g3">
			<path id="kvg:07f51-s3" d="M49,27.84c0.37,1.26,0.68,2.21,0.19,4.45C44.79,52.25,36.81,70.14,26,79"/>
		</g>
		<path id="kvg:07f51-s4" d="M29.75,40.5c8.17,6.53,17.16,18.95,21.49,28.81"/>
	</g>
	<g id="kvg:07f51-g4">
		<g id="kvg:07f51-g5">
			<path id="kvg:07f51-s5" d="M75.76,27.5c0.46,1.4,0.83,2.47,0.23,4.98C70.75,54.5,60.75,72.75,47.22,84.73"/>
		</g>
		<path id="kvg:07f51-s6" d="M55.75,41c8.65,6.75,18.17,19.57,22.75,29.75"/>
	</g>
</g>
</g>
<g id="kvg:StrokeNumbers_07f51">
	<text transform="matrix(1 0 0 1 10.00 24.88)">1</text>
	<text transform="matrix(1 0 0 1 22.00 18.38)">2</text>
	<text transform="matrix(1 0 0 1 41.00 32.88)">3</text>
	<text transform="matrix(1 0 0 1 26.00 49.38)">4</text>
	<text transform="matrix(1 0 0 1 67.50 31.38)">5</text>
	<text transform="matrix(1 0 0 1 53.00 51.25)">6</text>
</g>
</svg>
