<svg width="109" height="109" viewBox="0 0 109 109">
<g id="kvg:StrokePaths_07f67">
<g id="kvg:07f67">
	<g id="kvg:07f67-g1">
		<path id="kvg:07f67-s1" d="M20.42,14.5c0.34,0.3,0.69,0.54,0.84,0.91c1.19,2.93,3.18,12.07,3.99,17.34"/>
		<path id="kvg:07f67-s2" d="M22.72,16.49c6.24-0.81,61.17-3.9,64.02-4.26c1.04-0.13,3.45,1.42,3.17,2.95c-0.58,3.19-3.02,10.13-4.57,14.69"/>
		<path id="kvg:07f67-s3" d="M43.76,15.86c0.15,1.76,1.73,11.36,1.89,13.33"/>
		<path id="kvg:07f67-s4" d="M65.95,14.04c-0.19,2.92-1.66,12.04-2.04,13.84"/>
		<path id="kvg:07f67-s5" d="M26.36,30.6c3.19-0.29,53.44-2.27,57.81-2.72"/>
	</g>
	<g id="kvg:07f67-g2">
		<g id="kvg:07f67-g3">
			<path id="kvg:07f67-s6" d="M16,52.43c0.75,0.21,3,0.06,5,0c8.04-0.24,16.76-1.66,24.26-2.08c1.99-0.11,3.5-0.22,4.75-0.01"/>
			<path id="kvg:07f67-s7" d="M34.16,37.75c1.08,0.38,1.73,1.71,1.95,2.47c0.22,0.76,0,54.54-0.22,59.28"/>
			<path id="kvg:07f67-s8" d="M35.75,54C32.24,64.64,21.8,82.48,14.5,88.5"/>
			<path id="kvg:07f67-s9" d="M38,62c3.5,2,7.25,6,9.25,9.5"/>
		</g>
		<g id="kvg:07f67-g4">
			<path id="kvg:07f67-s10" d="M55.25,51.11c0.56,0.19,1.78,0.29,3.28,0.19c5.28-0.38,20.43-1.69,30.74-2.62c1.5-0.14,2.8-0.19,3.74,0"/>
			<path id="kvg:07f67-s11" d="M69.6,37c1.02,0.38,1.62,1.71,1.83,2.47c0.2,0.76,0,53.78-0.2,58.53"/>
			<path id="kvg:07f67-s12" d="M71,52c-3.89,12.22-15.5,27.5-25,35.5"/>
			<path id="kvg:07f67-s13" d="M72,51c5.92,12.04,15.4,27.5,20.21,32.25c1.37,1.35,2.14,2.29,3.29,2.75"/>
		</g>
	</g>
</g>
</g>
<g id="kvg:StrokeNumbers_07f67">
	<text transform="matrix(1 0 0 1 14.25 22.25)">1</text>
	<text transform="matrix(1 0 0 1 25.41 13.25)">2</text>
	<text transform="matrix(1 0 0 1 36.46 24.25)">3</text>
	<text transform="matrix(1 0 0 1 57.25 22.25)">4</text>
	<text transform="matrix(1 0 0 1 28.47 27.25)">5</text>
	<text transform="matrix(1 0 0 1 8.25 53.25)">6</text>
	<text transform="matrix(1 0 0 1 25.25 41.25)">7</text>
	<text transform="matrix(1 0 0 1 24.50 63.25)">8</text>
	<text transform="matrix(1 0 0 1 41.25 61.25)">9</text>
	<text transform="matrix(1 0 0 1 52.25 48.25)">10</text>
	<text transform="matrix(1 0 0 1 59.25 38.25)">11</text>
	<text transform="matrix(1 0 0 1 55.25 62.25)">12</text>
	<text transform="matrix(1 0 0 1 79.25 60.25)">13</text>
</g>
</svg>
