<svg width="109" height="109" viewBox="0 0 109 109">
<g id="kvg:StrokePaths_07f75">
<g id="kvg:07f75">
	<g id="kvg:07f75-g1">
		<path id="kvg:07f75-s1" d="M22.18,13.32c0.23,0.27,0.46,0.49,0.56,0.82c0.79,2.64,2.46,10.87,3,15.61"/>
		<path id="kvg:07f75-s2" d="M23.97,15.11c5.87-0.79,57.48-3.78,60.16-4.13c0.98-0.13,2.3,0.89,2.04,2.38c-0.55,3.1-1.89,8.85-3.35,13.27"/>
		<path id="kvg:07f75-s3" d="M43.01,14.11c0.15,1.76,1.23,9.86,1.39,11.83"/>
		<path id="kvg:07f75-s4" d="M64.04,12.54c-0.15,2.86-0.92,10.33-1.23,12.09"/>
		<path id="kvg:07f75-s5" d="M26.11,27.36C32,27,73.75,24.25,83.17,24.37"/>
	</g>
	<g id="kvg:07f75-g2">
		<path id="kvg:07f75-s6" d="M29.79,37.43c0.43,0.31,0.89,2.05,0.89,2.6c0,5.52-0.45,26.25-0.71,34.95"/>
		<path id="kvg:07f75-s7" d="M31.94,38.26c10.53-1.08,33.56-2.76,42.62-3.12c1.59-0.06,4.25,0.05,5.05,0.21"/>
		<path id="kvg:07f75-s8" d="M53.02,38.93c0.43,0.31,1.27,1.75,1.27,2.29c0,5.53,0.05,23.19-0.21,31.89"/>
		<path id="kvg:07f75-s9" d="M31.47,50.04c10.53-1.08,33.28-2.79,41.25-3.29c1.59-0.1,4.25,0.05,5.05,0.21"/>
		<path id="kvg:07f75-s10" d="M31.7,61.7c10.53-1.08,37.23-2.69,41.75-3.29c1.58-0.21,4.25,0.06,5.05,0.21"/>
		<path id="kvg:07f75-s11" d="M29.98,75.12c13.02-1.37,47.28-2.94,54.56-3.74C88,71,89.8,72.91,89.4,76.03c-1.15,8.97-2.9,14.22-6.65,18.72c-5.91,7.09-6.25,2-8.69-1.02"/>
		<g id="kvg:07f75-g3">
			<path id="kvg:07f75-s12" d="M20.76,81.67C19.25,87.5,18,92,14.84,96.73"/>
			<path id="kvg:07f75-s13" d="M33.27,82.21c2.52,2.18,4.91,8.18,5.54,11.57"/>
			<path id="kvg:07f75-s14" d="M49.45,79.28c2.15,2.1,5.56,8.65,6.1,11.92"/>
			<path id="kvg:07f75-s15" d="M65.4,77.78c1.99,1.52,5.14,6.25,5.64,8.62"/>
		</g>
	</g>
</g>
</g>
<g id="kvg:StrokeNumbers_07f75">
	<text transform="matrix(1 0 0 1 16.50 23.50)">1</text>
	<text transform="matrix(1 0 0 1 25.66 11.50)">2</text>
	<text transform="matrix(1 0 0 1 36.50 21.50)">3</text>
	<text transform="matrix(1 0 0 1 56.54 20.85)">4</text>
	<text transform="matrix(1 0 0 1 28.50 24.50)">5</text>
	<text transform="matrix(1 0 0 1 23.50 45.50)">6</text>
	<text transform="matrix(1 0 0 1 34.50 34.50)">7</text>
	<text transform="matrix(1 0 0 1 57.50 43.50)">8</text>
	<text transform="matrix(1 0 0 1 35.50 46.50)">9</text>
	<text transform="matrix(1 0 0 1 34.50 58.95)">10</text>
	<text transform="matrix(1 0 0 1 34.50 71.50)">11</text>
	<text transform="matrix(1 0 0 1 12.50 82.50)">12</text>
	<text transform="matrix(1 0 0 1 24.50 85.50)">13</text>
	<text transform="matrix(1 0 0 1 40.50 83.50)">14</text>
	<text transform="matrix(1 0 0 1 57.50 81.50)">15</text>
</g>
</svg>
