<svg width="109" height="109" viewBox="0 0 109 109">
<g id="kvg:StrokePaths_07f8a">
<g id="kvg:07f8a">
	<path id="kvg:07f8a-s1" d="M33.89,11.71c3.06,2.03,7.9,8.35,8.67,11.51"/>
	<path id="kvg:07f8a-s2" d="M69.9,10.64c0.03,0.38,0.12,1.25-0.06,1.79C68.5,16.25,65,21,59.78,25.95"/>
	<path id="kvg:07f8a-s3" d="M26.5,31.64c2.88,0.44,5.74,0.25,8.63,0.01c11-0.9,27.5-3.4,39.36-3.89c2.52-0.1,5.16-0.34,7.64,0.25"/>
	<path id="kvg:07f8a-s4" d="M28.25,49.64c2.38,0.61,4.96,0.67,7.14,0.34c11.36-1.73,26.36-3.23,36.74-3.73c2.43-0.12,5.23-0.07,7.62,0.51"/>
	<path id="kvg:07f8a-s5" d="M13.75,68.95c3.96,0.68,8.72,0.42,12.73,0.13c15.53-1.16,37.11-3.35,55.58-3.77c4.08-0.09,8.3-0.28,12.32,0.49"/>
	<path id="kvg:07f8a-s6" d="M52.75,32.75c1,1,1.5,2.5,1.5,3.5c0,0.89,0,41.12,0,58.12c0,2.72,0,4.85,0,6.12"/>
</g>
</g>
<g id="kvg:StrokeNumbers_07f8a">
	<text transform="matrix(1 0 0 1 27.75 12.13)">1</text>
	<text transform="matrix(1 0 0 1 60.75 10.63)">2</text>
	<text transform="matrix(1 0 0 1 18.75 31.50)">3</text>
	<text transform="matrix(1 0 0 1 20.25 50.50)">4</text>
	<text transform="matrix(1 0 0 1 6.75 69.50)">5</text>
	<text transform="matrix(1 0 0 1 45.50 40.63)">6</text>
</g>
</svg>
