<svg width="109" height="109" viewBox="0 0 109 109">
<g id="kvg:StrokePaths_07fbd">
<g id="kvg:07fbd">
	<g id="kvg:07fbd-g1">
		<path id="kvg:07fbd-s1" d="M18.5,25.25c1.75,0.75,3.75,0.75,6.32,0.34c5.22-0.84,14.87-2.97,16.46-3.1c3.58-0.29,4.48,0.39,4.48,3.55c0,3.6-0.17,48.23-0.17,60.15c0,9.08-7.72,1.06-8.61,0.32"/>
		<path id="kvg:07fbd-s2" d="M21.77,41.08c3.02,1.3,6.48,4.29,8.54,7.38"/>
		<path id="kvg:07fbd-s3" d="M17,72c2.12,0.62,3.25,0.25,4.75-1.25c0.88-0.88,7.5-7.75,11.25-12"/>
	</g>
	<g id="kvg:07fbd-g2">
		<path id="kvg:07fbd-s4" d="M56.75,22.25C58.5,22.88,60,23,62.57,22.59c5.22-0.84,18.89-3.55,20.46-3.85c2.47-0.48,4.48,1.27,4.48,3.55c0,3.85-0.17,51.73-0.17,63.65c0,8.58-7.72,1.06-8.61,0.32"/>
		<path id="kvg:07fbd-s5" d="M61.77,39.58c3.02,1.3,6.98,4.92,8.54,7.38"/>
		<path id="kvg:07fbd-s6" d="M56.75,71c1.88,0.5,3.25,0.25,4.75-1.25c1.51-1.51,8.7-9.55,12.25-13.75"/>
	</g>
</g>
</g>
<g id="kvg:StrokeNumbers_07fbd">
	<text transform="matrix(1 0 0 1 11.25 24.13)">1</text>
	<text transform="matrix(1 0 0 1 12.50 43.50)">2</text>
	<text transform="matrix(1 0 0 1 9.50 76.50)">3</text>
	<text transform="matrix(1 0 0 1 53.25 18.13)">4</text>
	<text transform="matrix(1 0 0 1 53.25 41.50)">5</text>
	<text transform="matrix(1 0 0 1 50.50 78.50)">6</text>
</g>
</svg>
