<svg width="109" height="109" viewBox="0 0 109 109">
<g id="kvg:StrokePaths_07ff0">
<g id="kvg:07ff0">
	<g id="kvg:07ff0-g1">
		<g id="kvg:07ff0-g2">
			<path id="kvg:07ff0-s1" d="M11.68,30.13c1.81,0.26,3.64,0.42,5.45,0.11c6.61-1.12,14.62-2.15,20.25-2.77c2.06-0.4,4.12-0.44,6.17-0.11"/>
			<path id="kvg:07ff0-s2" d="M25.95,13.88c0.9,0.9,1.17,1.99,1.17,2.74c0,0.48-0.12,20.5-0.12,24.51"/>
		</g>
		<g id="kvg:07ff0-g3">
			<g id="kvg:07ff0-g4">
				<path id="kvg:07ff0-s3" d="M13.52,42.91c0.48,1.07,0.71,1.61,1.26,2.86c0.79,1.79,2.09,12.61,2.87,17.26"/>
				<path id="kvg:07ff0-s4" d="M15.08,43.41c3.35-0.44,16.31-2.22,22.42-2.92c3.25-0.37,4.42,0.81,4.08,3.63c-0.45,3.75-1.6,10.9-2.87,16.97"/>
				<path id="kvg:07ff0-s5" d="M17.24,52.38c5.39-0.63,17.14-2.25,22.49-2.75"/>
				<path id="kvg:07ff0-s6" d="M18.7,61.56c6.8-0.81,14.18-1.69,19.23-2.14"/>
			</g>
			<g id="kvg:07ff0-g5">
				<path id="kvg:07ff0-s7" d="M10.49,77.32c2.21,0.49,4.42,0.45,6.62-0.11c6.35-0.92,14.71-2.32,20.51-2.88c1.8-0.3,3.59-0.26,5.38,0.14"/>
				<path id="kvg:07ff0-s8" d="M26.57,62.99c0.72,0.72,1.07,1.89,1.07,2.99c0,0.58-0.01,14.36-0.01,24.02c0,3.46,0,6.39,0,8"/>
			</g>
		</g>
	</g>
	<g id="kvg:07ff0-g6">
		<g id="kvg:07ff0-g7">
			<path id="kvg:07ff0-s9" d="M68.08,12.75c0,1.38-0.3,2.99-0.98,4.32c-3.98,7.8-9.61,19.18-21.03,29.18"/>
			<path id="kvg:07ff0-s10" d="M68.5,18.38c4.62,4.5,11.07,11.24,17.13,16.73c2.97,3.02,6.4,5.31,10.29,6.89"/>
		</g>
		<g id="kvg:07ff0-g8">
			<g id="kvg:07ff0-g9">
				<path id="kvg:07ff0-s11" d="M48.59,49.73c1.54,0.52,2.69,0.61,4.22,0.33c2.39-0.45,6.78-1.38,9.12-1.82c3.5-0.67,4.04,0.07,4.04,2.88c0,7.32-0.08,33.13-0.08,40.88c0,6.27-4.6,0.73-5.13,0.22"/>
				<path id="kvg:07ff0-s12" d="M 59.697393,52.392699 c 0.05,0.37 0.09,0.97 -0.08,1.51 -1.03,3.18 -4.677024,9.164233 -12.757024,13.434233"/>
				<path id="kvg:07ff0-s13" d="M 62.324418,66.257163 c 0.06,0.56 0.213465,1.468592 -0.11,2.24 -2.139371,5.102026 -6.05842,11.498512 -15.266886,17.532653"/>
			</g>
			<g id="kvg:07ff0-g10">
				<path id="kvg:07ff0-s14" d="M71.72,48.87c1.9,0.38,3.51,0.47,5.19,0.06c3.91-0.95,6.46-1.43,9.87-2.44c2.18-0.65,3.52,1.02,3.5,3.01c-0.05,7.27-0.04,34.9-0.04,42.37c0,5.84-4.7,0.89-5.24,0.39"/>
				<path id="kvg:07ff0-s15" d="M 84.180046,51.104187 c 0.03,0.37 0.07,0.97 -0.07,1.5 -0.84,3.17 -4.392791,9.124233 -10.972791,13.374233"/>
				<path id="kvg:07ff0-s16" d="M 86.734233,66.000093 c 0.05,0.52 0.1,1.33 -0.09,2.08 -0.911029,4.757163 -4.080257,9.084002 -13.234095,14.596839"/>
			</g>
		</g>
	</g>
</g>
</g>
<g id="kvg:StrokeNumbers_07ff0">
	<text transform="matrix(1 0 0 1 5.50 30.50)">1</text>
	<text transform="matrix(1 0 0 1 16.50 13.50)">2</text>
	<text transform="matrix(1 0 0 1 7.50 50.48)">3</text>
	<text transform="matrix(1 0 0 1 16.25 40.40)">4</text>
	<text transform="matrix(1 0 0 1 19.50 49.33)">5</text>
	<text transform="matrix(1 0 0 1 20.50 59.50)">6</text>
	<text transform="matrix(1 0 0 1 4.50 77.50)">7</text>
	<text transform="matrix(1 0 0 1 20.50 70.50)">8</text>
	<text transform="matrix(1 0 0 1 58.50 14.50)">9</text>
	<text transform="matrix(1 0 0 1 73.50 21.50)">10</text>
	<text transform="matrix(1 0 0 1 52.50 47)">11</text>
	<text transform="matrix(1 0 0 1 47 58)">12</text>
	<text transform="matrix(1 0 0 1 50.15 70.6)">13</text>
	<text transform="matrix(1 0 0 1 69.50 46.50)">14</text>
	<text transform="matrix(1 0 0 1 70.13 57.16)">15</text>
	<text transform="matrix(1 0 0 1 75 70.45)">16</text>
</g>
</svg>
