<svg width="109" height="109" viewBox="0 0 109 109">
<g id="kvg:StrokePaths_08018">
<g id="kvg:08018">
	<g id="kvg:08018-g1">
		<g id="kvg:08018-g2">
			<path id="kvg:08018-s1" d="M42.48,21.41c0.07,0.32,0.33,0.97-0.15,1.27c-8.07,5.09-16.3,9.42-26.58,12.08"/>
		</g>
		<g id="kvg:08018-g3">
			<path id="kvg:08018-s2" d="M12.97,42.61c0.51,0.34,3.94,0.94,4.46,0.91c5.31-0.39,16.08-1.58,24.5-2.95c0.84-0.14,2.36,0.16,2.79,0.33"/>
			<g id="kvg:08018-g4">
				<path id="kvg:08018-s3" d="M9.84,55.8c0.42,0.31,3.11,0.93,4.23,0.93c5.85,0.01,19.16-2.11,28.69-3.35c1.11-0.15,2.11,0.31,2.81,0.62"/>
				<path id="kvg:08018-s4" d="M30.01,15c0.65,0.45,1.17,3.35,1.17,4.3c0,3.62,0.22,70.55,0.09,76.2"/>
				<path id="kvg:08018-s5" d="M30.53,55.36c-3.67,9.95-13.16,25.03-20.79,30.66"/>
				<path id="kvg:08018-s6" d="M34.25,60.98c4.93,2.65,8.54,6.74,11.5,11.32"/>
			</g>
		</g>
	</g>
	<g id="kvg:08018-g5">
		<g id="kvg:08018-g6">
			<path id="kvg:08018-s7" d="M56.49,27.37c1.67,0.32,4.14,0.26,4.61,0.27c5.66,0.11,17.21-1.46,22.71-2.07c0.76-0.09,3.57-0.37,3.95-0.24"/>
			<path id="kvg:08018-s8" d="M50.5,48.54c0.84,0.29,3.95,0.33,4.79,0.29c7.46-0.33,27.13-3.14,37.47-2.94c1.4,0.03,3.29,0.14,3.99,0.28"/>
		</g>
		<g id="kvg:08018-g7">
			<path id="kvg:08018-s9" d="M69.54,50.5c0.3,1.26,0.38,2.91-0.24,4.43c-4.66,11.29-11.23,22.56-18.06,33.05c-1.86,2.85-0.82,4.18,2.1,3.6c6.13-1.21,20.58-5,34.41-8.08"/>
			<path id="kvg:08018-s10" d="M78.13,70.33c5.53,4.59,13.53,18.75,14.91,25.89"/>
		</g>
	</g>
</g>
</g>
<g id="kvg:StrokeNumbers_08018">
	<text transform="matrix(1 0 0 1 38.25 17.25)">1</text>
	<text transform="matrix(1 0 0 1 6.25 45.25)">2</text>
	<text transform="matrix(1 0 0 1 3.25 57.25)">3</text>
	<text transform="matrix(1 0 0 1 19.19 15.25)">4</text>
	<text transform="matrix(1 0 0 1 18.25 67.25)">5</text>
	<text transform="matrix(1 0 0 1 41.25 63.51)">6</text>
	<text transform="matrix(1 0 0 1 54.25 23.25)">7</text>
	<text transform="matrix(1 0 0 1 49.25 45.25)">8</text>
	<text transform="matrix(1 0 0 1 60.25 59.25)">9</text>
	<text transform="matrix(1 0 0 1 75.25 67.25)">10</text>
</g>
</svg>
