<svg width="109" height="109" viewBox="0 0 109 109">
<g id="kvg:StrokePaths_080da">
<g id="kvg:080da">
	<g id="kvg:080da-g1">
		<path id="kvg:080da-s1" d="M17.58,18.42c0.54,1.01,1.17,3.01,1.17,4c0,5.08,0.08,25.45-0.5,33.67c-0.83,11.69-1,23.17-8.83,38.56"/>
		<path id="kvg:080da-s2" d="M19.25,19.92c1.96-0.06,12.9-2.69,14.36-2.82c2.61-0.23,3.26,1.31,3.26,2.68c0,3.25-0.49,46.53-0.49,64.98c0,12.69-5.13,4.84-6.8,3.32"/>
		<path id="kvg:080da-s3" d="M20.58,40.08c4.11-0.14,11.87-1.23,15.49-1.24"/>
		<path id="kvg:080da-s4" d="M19.58,59.42c3.83-0.08,10.3-1.23,15.5-1.67"/>
	</g>
	<g id="kvg:080da-g2">
		<g id="kvg:080da-g3">
			<g id="kvg:080da-g4">
				<path id="kvg:080da-s5" d="M44.48,23.21c1,0.27,3.44,0.76,4.44,0.73c7.54-0.21,28.79-3.39,39.83-3.88c1.67-0.07,4.5,0.49,5.33,0.63"/>
			</g>
			<g id="kvg:080da-g5">
				<path id="kvg:080da-s6" d="M72.92,24.5c0.09,0.88,0.1,2.66-0.5,3.83c-4.17,8.17-16.42,24.92-30.33,34"/>
			</g>
			<g id="kvg:080da-g6">
				<path id="kvg:080da-s7" d="M66.42,43.08c0.72,0.4,1.52,1.71,1.67,2.5c0.14,0.79-0.02,32.56-0.17,37.5"/>
			</g>
			<path id="kvg:080da-s8" d="M74.52,40.73c6.77,3.33,15.11,11.41,19.18,18.9"/>
		</g>
		<g id="kvg:080da-g7">
			<path id="kvg:080da-s9" d="M43.08,88.42c1.17,0.35,4.01,0.73,5.18,0.67c10.28-0.58,29.23-2.33,43.86-2.17c1.95,0.02,3.87,0.08,5.54,0.67"/>
		</g>
	</g>
</g>
</g>
<g id="kvg:StrokeNumbers_080da">
	<text transform="matrix(1 0 0 1 11.25 26.25)">1</text>
	<text transform="matrix(1 0 0 1 20.25 16.25)">2</text>
	<text transform="matrix(1 0 0 1 22.25 37.25)">3</text>
	<text transform="matrix(1 0 0 1 22.25 56.25)">4</text>
	<text transform="matrix(1 0 0 1 44.25 20.25)">5</text>
	<text transform="matrix(1 0 0 1 63.25 32.25)">6</text>
	<text transform="matrix(1 0 0 1 60.25 57.25)">7</text>
	<text transform="matrix(1 0 0 1 76.25 39.25)">8</text>
	<text transform="matrix(1 0 0 1 42.25 85.25)">9</text>
</g>
</svg>
