<svg width="109" height="109" viewBox="0 0 109 109">
<g id="kvg:StrokePaths_081a9">
<g id="kvg:081a9">
	<g id="kvg:081a9-g1">
		<path id="kvg:081a9-s1" d="M17.92,17.58c1.08,0.67,1.16,2.2,1.33,3.17c0.17,0.97-0.33,27.92-0.87,36.05c-0.77,11.56-1.56,23.22-8.8,36.51"/>
		<path id="kvg:081a9-s2" d="M19.82,19.56c1.84-0.06,10.62-2.33,11.99-2.46c2.45-0.23,3.06,1.3,3.06,2.66c0,3.22-0.46,46.11-0.46,64.4c0,12.58-3.26,5.77-4.83,4.26"/>
		<path id="kvg:081a9-s3" d="M19.65,39.38c3.93-0.21,11.13-1.24,14.58-1.25"/>
		<path id="kvg:081a9-s4" d="M19.26,57.83c3.23-0.07,9.9-1.18,14.29-1.56"/>
	</g>
	<g id="kvg:081a9-g2">
		<g id="kvg:081a9-g3">
			<g id="kvg:081a9-g4">
				<path id="kvg:081a9-s5" d="M41.42,25.75c1.01,0.44,4.11,0.75,5.13,0.7c8.21-0.45,32.26-2.2,41.37-3.2c1.68-0.18,4.49,0.11,5.33,0.33"/>
			</g>
			<g id="kvg:081a9-g5">
				<path id="kvg:081a9-s6" d="M43.58,34.08c0.89,0.08,3.23,0.26,4.12,0.24c5.43-0.12,7.75-0.37,15.21-0.9c1.47-0.11,2.76-0.04,3.5,0"/>
				<path id="kvg:081a9-s7" d="M40.25,42.42c0.99,0.44,3.77,0.67,4.75,0.58c5.5-0.5,12.25-1,21.08-2.08c1.66-0.2,4.34-0.05,5.17,0.17"/>
			</g>
		</g>
		<g id="kvg:081a9-g6">
			<g id="kvg:081a9-g7">
				<path id="kvg:081a9-s8" d="M45.75,49.08c1,0.92,1.62,2.03,1.62,3.35s0.14,22.21-0.22,27.73"/>
				<path id="kvg:081a9-s9" d="M47.88,50.67c1.69-0.16,14.55-2.2,16.09-2.39c1.28-0.16,1.97,0.88,1.97,2.07c0,2.91-0.38,27-0.38,27.95"/>
				<path id="kvg:081a9-s10" d="M48.57,59.18c2.9-0.17,14.12-1.21,16.6-1.21"/>
				<path id="kvg:081a9-s11" d="M47.87,68.41c4.63-0.55,12.57-1.67,17.48-1.79"/>
				<path id="kvg:081a9-s12" d="M47.32,77.38c4.37-0.29,12.72-1.05,16.7-1.05"/>
			</g>
			<g id="kvg:081a9-g8">
				<path id="kvg:081a9-s13" d="M52.87,82.21c0.32,0.95-0.24,1.89-0.88,2.58c-1.93,2.1-6.99,6.57-10.85,9.05"/>
				<path id="kvg:081a9-s14" d="M60.16,81.18c3.95,3.05,8.63,8.57,9.71,11.24"/>
			</g>
		</g>
		<g id="kvg:081a9-g9">
			<g id="kvg:081a9-g10">
				<path id="kvg:081a9-s15" d="M71.25,11.42c1.25,1.33,2.56,1.83,2.72,5.5c1.32,29.48,4.89,56.57,18.94,71.5c3.92,4.17,4.33,1.08,4.33-5.32"/>
				<g id="kvg:081a9-g11">
					<path id="kvg:081a9-s16" d="M82.55,10.25c3.92,1.43,10.2,4.69,12.03,7.14"/>
				</g>
			</g>
		</g>
	</g>
</g>
</g>
<g id="kvg:StrokeNumbers_081a9">
	<text transform="matrix(1 0 0 1 9.25 23.25)">1</text>
	<text transform="matrix(1 0 0 1 20.25 15.30)">2</text>
	<text transform="matrix(1 0 0 1 23.25 35.25)">3</text>
	<text transform="matrix(1 0 0 1 23.25 54.25)">4</text>
	<text transform="matrix(1 0 0 1 40.25 23.25)">5</text>
	<text transform="matrix(1 0 0 1 38.25 33.25)">6</text>
	<text transform="matrix(1 0 0 1 39.25 40.25)">7</text>
	<text transform="matrix(1 0 0 1 39.25 56.25)">8</text>
	<text transform="matrix(1 0 0 1 47.25 49.53)">9</text>
	<text transform="matrix(1 0 0 1 48.50 57.20)">10</text>
	<text transform="matrix(1 0 0 1 49.25 66.25)">11</text>
	<text transform="matrix(1 0 0 1 49.25 75.55)">12</text>
	<text transform="matrix(1 0 0 1 38.25 88.25)">13</text>
	<text transform="matrix(1 0 0 1 55.25 92.25)">14</text>
	<text transform="matrix(1 0 0 1 60.25 13.25)">15</text>
	<text transform="matrix(1 0 0 1 77.25 8.25)">16</text>
</g>
</svg>
