<svg width="109" height="109" viewBox="0 0 109 109">
<g id="kvg:StrokePaths_081e3">
<g id="kvg:081e3">
	<path id="kvg:081e3-s1" d="M24.37,16.25c0.88,0.88,1.46,2.38,1.46,3.5c0,4.33-0.15,52.55-0.2,71.62c-0.01,3.52-0.01,6.05-0.01,7.12"/>
	<path id="kvg:081e3-s2" d="M26.57,18.49c6.78-0.7,35.22-2.63,53.05-3.78c2.69-0.17,6.21-0.49,8.88,0.08"/>
	<path id="kvg:081e3-s3" d="M54.12,18.5c1.13,1.13,1.46,2.73,1.46,3.75c0,4.75-0.08,10.12-0.08,16.5"/>
	<path id="kvg:081e3-s4" d="M27,42.5c18.38-1.75,39.32-3.24,51.25-4.5c4.83-0.51,6.25,1,5.25,5c-1.22,4.88-2.76,10.88-4,16.75"/>
	<path id="kvg:081e3-s5" d="M26.82,64.74C32.84,64.12,61.85,62,76,61.13c2.72-0.17,4.9-0.29,6.25-0.34"/>
	<path id="kvg:081e3-s6" d="M55.12,64.5c0.94,0.94,1.46,2.23,1.46,3.25c0,4-0.08,16.88-0.08,23"/>
	<path id="kvg:081e3-s7" d="M26.57,93.49c8.55-0.62,38.68-2.37,57.93-3.86c2.57-0.2,5.96-0.39,8.5,0.16"/>
</g>
</g>
<g id="kvg:StrokeNumbers_081e3">
	<text transform="matrix(1 0 0 1 18.49 25.63)">1</text>
	<text transform="matrix(1 0 0 1 29.50 14.50)">2</text>
	<text transform="matrix(1 0 0 1 47.50 26.98)">3</text>
	<text transform="matrix(1 0 0 1 30.32 38.50)">4</text>
	<text transform="matrix(1 0 0 1 30.50 61.50)">5</text>
	<text transform="matrix(1 0 0 1 48.75 73.63)">6</text>
	<text transform="matrix(1 0 0 1 30.42 89.50)">7</text>
</g>
</svg>
