<svg width="109" height="109" viewBox="0 0 109 109">
<g id="kvg:StrokePaths_0821f">
<g id="kvg:0821f">
	<path id="kvg:0821f-s1" d="M52.5,10.42c0.25,0.83,0,2.05-0.67,3.25C50,17,49,19.25,47,22"/>
	<path id="kvg:0821f-s2" d="M35.83,24.67c0.94,0.94,1.36,2.46,1.42,4.58c1,35.5-0.75,55.25-9.25,66.42"/>
	<path id="kvg:0821f-s3" d="M38,26.33c1.22-0.12,2.76-0.28,4.52-0.48c8.3-0.95,21.26-2.63,26.48-3.18c6.33-0.67,6,1.33,6,3.67s-0.67,61-0.67,64.33c0,9.33-9,2-10.33,1.33"/>
	<path id="kvg:0821f-s4" d="M51.67,35.75c1.58,1.25,5.67,8.33,6,10.67"/>
	<path id="kvg:0821f-s5" d="M52.92,58.67c1.08,1.08,1.5,2.67,1.5,4c0,1.84-0.02,8.37-0.03,13.08c0,1.89-0.01,3.48-0.01,4.38"/>
	<path id="kvg:0821f-s6" d="M12.92,58.58c4.43,0.89,8.04,0.66,12.48,0.09c16.73-2.17,44.1-4.8,60.35-5.84c3.67-0.24,7.74-0.14,11.34,0.75"/>
</g>
</g>
<g id="kvg:StrokeNumbers_0821f">
	<text transform="matrix(1 0 0 1 43.50 10.50)">1</text>
	<text transform="matrix(1 0 0 1 28.50 33.50)">2</text>
	<text transform="matrix(1 0 0 1 38.25 22.63)">3</text>
	<text transform="matrix(1 0 0 1 43.50 35.50)">4</text>
	<text transform="matrix(1 0 0 1 46.50 66.50)">5</text>
	<text transform="matrix(1 0 0 1 5.50 60.50)">6</text>
</g>
</svg>
