<svg width="109" height="109" viewBox="0 0 109 109">
<g id="kvg:StrokePaths_0822c">
<g id="kvg:0822c">
	<g id="kvg:0822c-g1">
		<path id="kvg:0822c-s1" d="M35.45,12c0.3,1.25,0.13,1.87-0.5,3.4c-0.96,2.35-1.83,4.73-5.71,10.09"/>
		<path id="kvg:0822c-s2" d="M21.65,25.81c1.02,1.02,1.18,2.43,1.25,4.1C24.5,68.75,20.5,85,14,95.72"/>
		<path id="kvg:0822c-s3" d="M23.75,28.73c5.25-1.23,13.23-2.64,18.01-3.41c3.62-0.58,5.21,0.58,5.19,4.92c-0.05,8.81-0.4,58.1-0.4,61.21c0,10.04-5.4,2-6.2,1.34"/>
		<path id="kvg:0822c-s4" d="M31.4,36.6c1.63,1.83,5.44,6.7,5.84,8.83"/>
		<path id="kvg:0822c-s5" d="M33.05,57.65c1,1.67,1.2,2.67,1.2,4.01c0,4.42,0.16,10.09,0.12,14.83c-0.01,1.51-0.02,2.92-0.02,4.18"/>
		<path id="kvg:0822c-s6" d="M12.75,59.96c1.02,1.02,1.86,1.15,3.25,0.83c1.39-0.32,31-12.05,35.25-13.73"/>
	</g>
	<g id="kvg:0822c-g2">
		<g id="kvg:0822c-g3">
			<g id="kvg:0822c-g4">
				<path id="kvg:0822c-s7" d="M60.85,18.63c0.95,0.95,1.17,2.28,1.16,3.33c-0.16,10.83-1.51,20.67-6.32,27.85"/>
			</g>
			<path id="kvg:0822c-s8" d="M62.94,20.54c4.94-0.79,10.56-2.04,13.54-2.64c2.45-0.49,3.24,0.45,3,2.48c-0.46,3.98-0.85,10.46-0.95,14.44c-0.14,6.26,1.99,8.99,8.33,8.99c7.63,0,8.83-2.31,8.83-8.94"/>
		</g>
		<g id="kvg:0822c-g5">
			<path id="kvg:0822c-s9" d="M58.92,56.07c1.16,0.36,3.27,0.22,5.63-0.14c2.83-0.43,15.07-3.97,16.67-4.5c2.04-0.68,3.42,1.11,2.68,2.97c-6.76,16.85-17.13,31.97-30.25,40.26"/>
			<path id="kvg:0822c-s10" d="M57.32,63.46c3.76,0.69,15.43,14.67,27.51,25.87c2.59,2.4,5.15,4.28,8.29,5.88"/>
		</g>
	</g>
</g>
</g>
<g id="kvg:StrokeNumbers_0822c">
	<text transform="matrix(1 0 0 1 28.50 12.13)">1</text>
	<text transform="matrix(1 0 0 1 15.50 34.50)">2</text>
	<text transform="matrix(1 0 0 1 23.50 25.50)">3</text>
	<text transform="matrix(1 0 0 1 34.50 36.50)">4</text>
	<text transform="matrix(1 0 0 1 27.50 65.50)">5</text>
	<text transform="matrix(1 0 0 1 5.25 64.63)">6</text>
	<text transform="matrix(1 0 0 1 54.75 27.13)">7</text>
	<text transform="matrix(1 0 0 1 64.50 17.50)">8</text>
	<text transform="matrix(1 0 0 1 59.50 53.50)">9</text>
	<text transform="matrix(1 0 0 1 62.50 65.50)">10</text>
</g>
</svg>
