<svg width="109" height="109" viewBox="0 0 109 109">
<g id="kvg:StrokePaths_08279">
<g id="kvg:08279">
	<path id="kvg:08279-s1" d="M13.88,53.73c3.75,1.52,8.45,1.32,13.13,0.86c16.12-1.59,39.17-3.48,54.37-4.13c4.77-0.2,9-0.09,13.75,0.87"/>
	<path id="kvg:08279-s2" d="M35.75,40.12c0.8,1,1.17,2.38,1.44,4c1.36,8.22,2.33,15.75,2.69,18.75"/>
	<path id="kvg:08279-s3" d="M73.51,38.25c0.34,1.09,0.18,2.13-0.2,3.46c-2.23,7.85-3.25,11.77-5.68,19.16"/>
</g>
</g>
<g id="kvg:StrokeNumbers_08279">
	<text transform="matrix(1 0 0 1 6.12 52.25)">1</text>
	<text transform="matrix(1 0 0 1 28.52 42.90)">2</text>
	<text transform="matrix(1 0 0 1 66.40 41.15)">3</text>
</g>
</svg>
