<svg width="109" height="109" viewBox="0 0 109 109">
<g id="kvg:StrokePaths_08299">
<g id="kvg:08299">
	<g id="kvg:08299-g1">
		<path id="kvg:08299-s1" d="M19.25,23.18c2.77,0.73,5.91,0.85,8.76,0.55c14.37-1.49,34.87-3.11,50.5-3.73c3.43-0.14,6.79,0.14,10.16,0.67"/>
		<path id="kvg:08299-s2" d="M35.44,12.2c1.18,1.18,1.63,2.44,1.75,3.37C38,21.62,39,29.62,39.66,34.25"/>
		<path id="kvg:08299-s3" d="M69.26,10.67c0.34,1.16,0.39,1.96,0.12,3.44c-1.28,7.14-2.25,12.27-3.6,18.61"/>
	</g>
	<g id="kvg:08299-g2">
		<path id="kvg:08299-s4" d="M29.03,48.19c3.2,0.5,6.27,0.31,9.47,0.01c8.7-0.81,21.89-2.4,30.99-3c3.24-0.21,6.69-0.56,9.89,0.11"/>
		<g id="kvg:08299-g3">
			<path id="kvg:08299-s5" d="M20.44,65.56c3.93,0.63,6.93,0.69,11.44,0.19c13.68-1.51,36.43-3.37,48.11-3.91c2.94-0.14,6.29-0.19,9.18,0.44"/>
			<path id="kvg:08299-s6" d="M53.35,33c0.58,1.02,0.79,1.97,0.8,3.95c0.24,36.47-6.77,49.18-33.58,62.8"/>
			<path id="kvg:08299-s7" d="M54.38,64.75c7.3,7.89,16.88,17.5,26.75,26c2.68,2.3,6.25,4.87,10.31,6.48"/>
		</g>
	</g>
</g>
</g>
<g id="kvg:StrokeNumbers_08299">
	<text transform="matrix(1 0 0 1 12.25 23.25)">1</text>
	<text transform="matrix(1 0 0 1 26.25 12.25)">2</text>
	<text transform="matrix(1 0 0 1 60.25 10.25)">3</text>
	<text transform="matrix(1 0 0 1 22.25 49.25)">4</text>
	<text transform="matrix(1 0 0 1 13.25 67.25)">5</text>
	<text transform="matrix(1 0 0 1 43.25 34.25)">6</text>
	<text transform="matrix(1 0 0 1 66.25 73.25)">7</text>
</g>
</svg>
