<svg width="109" height="109" viewBox="0 0 109 109">
<g id="kvg:StrokePaths_082a6">
<g id="kvg:082a6">
	<g id="kvg:082a6-g1">
		<path id="kvg:082a6-s1" d="M20,26.77c1.29,0.53,2.8,0.63,4.1,0.53C36,26.33,71,23.33,84.72,23.26c2.16-0.01,3.45,0.25,4.53,0.51"/>
		<path id="kvg:082a6-s2" d="M37.75,14c1.75,1.43,2.31,1.87,2.5,2.75C42,25,42.5,32,43,35"/>
		<path id="kvg:082a6-s3" d="M67.25,12.25c0.42,1.18,0.83,2.02,0.5,3.5c-1,4.5-2,10.5-3.5,16.75"/>
	</g>
	<g id="kvg:082a6-g2">
		<path id="kvg:082a6-s4" d="M82.25,35.5c0.1,0.17-1.29,0.94-1.74,1.03C66.95,39.12,48.59,41.71,30,43"/>
		<path id="kvg:082a6-s5" d="M29.5,40.5c0.25,1,0.52,1.92,0.38,4.03c-1.79,27.51-5.63,41.72-16.38,55.22"/>
		<path id="kvg:082a6-s6" d="M29.86,52.52c12.89-1.02,38.3-3.71,46.16-4.27c2.13-0.15,4.27,1.05,3.47,3.36c-1.42,4.09-1.94,7.47-3.81,14.4"/>
		<path id="kvg:082a6-s7" d="M26.75,69.75c8.75,0.25,38-2.75,52-3.75"/>
	</g>
</g>
</g>
<g id="kvg:StrokeNumbers_082a6">
	<text transform="matrix(1 0 0 1 13.50 27.50)">1</text>
	<text transform="matrix(1 0 0 1 28.50 14.50)">2</text>
	<text transform="matrix(1 0 0 1 57.50 11.50)">3</text>
	<text transform="matrix(1 0 0 1 74.50 34.50)">4</text>
	<text transform="matrix(1 0 0 1 23.50 43.50)">5</text>
	<text transform="matrix(1 0 0 1 32.50 49.50)">6</text>
	<text transform="matrix(1 0 0 1 32.50 66.50)">7</text>
</g>
</svg>
