<svg width="109" height="109" viewBox="0 0 109 109">
<g id="kvg:StrokePaths_082b9">
<g id="kvg:082b9">
	<g id="kvg:082b9-g1">
		<path id="kvg:082b9-s1" d="M19.75,28.74c3.62,0.73,6.69,0.31,9.75,0.05c13.23-1.13,37.51-3.26,51.75-3.88c3.55-0.16,7.27-0.52,10.75,0.34"/>
		<path id="kvg:082b9-s2" d="M39.25,17.97c1,1,1.56,2.12,1.75,3c1.75,8.25,2.75,15.25,3.25,18.25"/>
		<path id="kvg:082b9-s3" d="M68.3,15.47c0.56,1.25,0.52,2.26,0.22,3.75c-1.57,8-1.8,9.5-3.15,16.5"/>
	</g>
	<g id="kvg:082b9-g2">
		<path id="kvg:082b9-s4" d="M73.99,35.97c-0.36,1.38-1.5,2.21-2.55,2.65c-8.57,3.6-20.64,6.95-38.19,10.39"/>
		<path id="kvg:082b9-s5" d="M29.68,47.21c0.7,1.01,1.02,2.4,1.02,4.02c0,25.87-4.82,39.62-14.89,48.23"/>
		<path id="kvg:082b9-s6" d="M33.5,62.7c2.5,0.39,5.14-0.02,7.75-0.21c11.58-0.85,31.59-2.3,43.12-3.17c2.81-0.21,5.82-0.61,8.62-0.19"/>
		<path id="kvg:082b9-s7" d="M63.62,63.64c1.1,1.1,1.07,2.21,1.07,3.66c0,0.84-0.02,17.99-0.03,29.67c0,3.39,0,6.31,0,8.25"/>
	</g>
</g>
</g>
<g id="kvg:StrokeNumbers_082b9">
	<text transform="matrix(1 0 0 1 17.24 25.88)">1</text>
	<text transform="matrix(1 0 0 1 33.60 16.68)">2</text>
	<text transform="matrix(1 0 0 1 62.74 13.10)">3</text>
	<text transform="matrix(1 0 0 1 76.97 39.01)">4</text>
	<text transform="matrix(1 0 0 1 23.39 52.41)">5</text>
	<text transform="matrix(1 0 0 1 35.09 59.60)">6</text>
	<text transform="matrix(1 0 0 1 57.13 71.27)">7</text>
</g>
</svg>
