<svg width="109" height="109" viewBox="0 0 109 109">
<g id="kvg:StrokePaths_082dc">
<g id="kvg:082dc">
	<g id="kvg:082dc-g1">
		<path id="kvg:082dc-s1" d="M16.92,24.92c1.3,0.49,3.84,1.09,7.17,0.83C40,24.5,67.5,23,83.58,22.08c3.68-0.21,6.42,0.17,8.33,0.83"/>
		<path id="kvg:082dc-s2" d="M37.25,12.75c1.25,1,1.9,1.93,2,2.83c1,9.17,1.5,14.42,2,18.5"/>
		<path id="kvg:082dc-s3" d="M67.92,11.58c0.33,0.92,0.9,3,0.55,4.38c-1.22,4.78-2.47,9.28-4.39,16.12"/>
	</g>
	<g id="kvg:082dc-g2">
		<path id="kvg:082dc-s4" d="M32.75,39.25c1,1.75,1.17,3.05,1.17,4.83c0,1.78-0.08,52.27-0.08,53.17"/>
		<path id="kvg:082dc-s5" d="M34.42,41.25c3.83-0.22,35.34-2.57,38.83-2.83c2.91-0.22,4.54,1.14,4.3,2.78c-0.31,2.1-0.67,47.6-0.67,55.67"/>
		<path id="kvg:082dc-s6" d="M34.58,57.08c6.67-0.31,36.24-2.5,41.67-2.5"/>
		<path id="kvg:082dc-s7" d="M34.58,74.92c8.97-0.75,32.46-2.33,41.17-2.33"/>
		<path id="kvg:082dc-s8" d="M34.75,94.25c7.7-0.39,32.46-1.83,41.17-1.83"/>
	</g>
</g>
</g>
<g id="kvg:StrokeNumbers_082dc">
	<text transform="matrix(1 0 0 1 10.25 25.25)">1</text>
	<text transform="matrix(1 0 0 1 28.41 12.25)">2</text>
	<text transform="matrix(1 0 0 1 58.25 11.25)">3</text>
	<text transform="matrix(1 0 0 1 25.25 50.25)">4</text>
	<text transform="matrix(1 0 0 1 33.25 36.25)">5</text>
	<text transform="matrix(1 0 0 1 38.25 53.25)">6</text>
	<text transform="matrix(1 0 0 1 38.25 71.25)">7</text>
	<text transform="matrix(1 0 0 1 38.25 90.25)">8</text>
</g>
</svg>
