<svg width="109" height="109" viewBox="0 0 109 109">
<g id="kvg:StrokePaths_082e7">
<g id="kvg:082e7">
	<g id="kvg:082e7-g1">
		<path id="kvg:082e7-s1" d="M18,22.24c1.38,0.56,2.99,0.67,4.38,0.56c12.72-1.01,50.12-4.71,64.78-4.78c2.31-0.01,3.69,0.26,4.84,0.54"/>
		<path id="kvg:082e7-s2" d="M35.75,9.5c1.42,1.33,1.87,1.74,2.02,2.56C39.19,19.73,39.6,26.71,40,29.5"/>
		<path id="kvg:082e7-s3" d="M69.23,7.75c1.02,0.91,1.7,2.29,1.36,3.63c-1.02,4.09-1.7,10.9-3.18,16.12"/>
	</g>
	<g id="kvg:082e7-g2">
		<g id="kvg:082e7-g3">
			<path id="kvg:082e7-s4" d="M51.6,26.12c1.15,0.38,2.8,2.22,2.77,3.3c-0.08,3.41-0.08,6.72-0.09,9.82"/>
			<g id="kvg:082e7-g4">
				<path id="kvg:082e7-s5" d="M19.41,40.38c0,3.54-3.38,13.26-4.91,15.62"/>
				<path id="kvg:082e7-s6" d="M19.24,42.74c9.51-0.99,61.24-6.03,68.95-6.4c12.05-0.59,2.55,7.16-0.45,9.28"/>
			</g>
		</g>
		<g id="kvg:082e7-g5">
			<g id="kvg:082e7-g6">
				<path id="kvg:082e7-s7" d="M16.5,62.04c1.44,0.5,4.08,0.62,5.52,0.5c14.73-1.31,46.23-4.92,63.95-5.57c2.4-0.09,3.84,0.24,5.04,0.49"/>
			</g>
			<g id="kvg:082e7-g7">
				<path id="kvg:082e7-s8" d="M54.27,62.64c0.08,0.42,1.17,2.2,1.25,4.89c0.4,12.89-0.25,20.59-0.25,24.98c0,9.95-6.96,1.45-8.46,0.34"/>
			</g>
		</g>
	</g>
</g>
</g>
<g id="kvg:StrokeNumbers_082e7">
	<text transform="matrix(1 0 0 1 11.50 22.50)">1</text>
	<text transform="matrix(1 0 0 1 27.50 10.50)">2</text>
	<text transform="matrix(1 0 0 1 60.50 9.50)">3</text>
	<text transform="matrix(1 0 0 1 44.50 29.50)">4</text>
	<text transform="matrix(1 0 0 1 12.50 42.50)">5</text>
	<text transform="matrix(1 0 0 1 23.50 39.50)">6</text>
	<text transform="matrix(1 0 0 1 9.50 63.50)">7</text>
	<text transform="matrix(1 0 0 1 46.50 70.10)">8</text>
</g>
</svg>
