<svg width="109" height="109" viewBox="0 0 109 109">
<g id="kvg:StrokePaths_082f9">
<g id="kvg:082f9">
	<g id="kvg:082f9-g1">
		<path id="kvg:082f9-s1" d="M19.25,21.25c1.29,0.53,4.5,0.5,7.67,0.33c11.92-0.63,44.95-3.26,58.67-3.33c2.16-0.01,5.42,0.4,6.5,0.67"/>
		<path id="kvg:082f9-s2" d="M38.42,11.42c1.58,0.83,2.7,2.54,2.83,3.33c1.25,7.42,0.98,13.14,1.33,15.83"/>
		<path id="kvg:082f9-s3" d="M66.75,8.58c1.65,1.01,1.29,2.61,1,4.17c-0.83,4.5-2,10.33-3.92,16.67"/>
	</g>
	<g id="kvg:082f9-g2">
		<g id="kvg:082f9-g3">
			<path id="kvg:082f9-s4" d="M26.42,35.58c3.08,0.67,5.83,0.67,9.17,0.67c6.83,0,30.19-1.6,41.83-2.17c1.64-0.08,6.51-0.15,7.33,0"/>
		</g>
		<path id="kvg:082f9-s5" d="M39.94,44.35c0.05,0.38,0.11,0.99-0.1,1.54c-1.21,3.24-8.17,10.34-17.68,14.69"/>
		<path id="kvg:082f9-s6" d="M67.15,40.37c7,3.63,14.74,11.26,16.5,16.92"/>
		<g id="kvg:082f9-g4">
			<g id="kvg:082f9-g5">
				<path id="kvg:082f9-s7" d="M14.08,65.92c2.92,1.33,6.42,1.08,10,0.83c18.3-1.28,38.93-2.44,61.67-3.33C90,63.25,93,63.5,94.92,64.25"/>
				<path id="kvg:082f9-s8" d="M53.25,36.58c0.85,0.37,0.94,4.62,1.11,5.36c0.17,0.74-0.11,54.02-0.28,58.64"/>
			</g>
		</g>
	</g>
</g>
</g>
<g id="kvg:StrokeNumbers_082f9">
	<text transform="matrix(1 0 0 1 12.25 22.25)">1</text>
	<text transform="matrix(1 0 0 1 29.25 12.25)">2</text>
	<text transform="matrix(1 0 0 1 58.25 9.25)">3</text>
	<text transform="matrix(1 0 0 1 19.25 36.25)">4</text>
	<text transform="matrix(1 0 0 1 31.25 46.25)">5</text>
	<text transform="matrix(1 0 0 1 61.25 47.25)">6</text>
	<text transform="matrix(1 0 0 1 7.25 65.25)">7</text>
	<text transform="matrix(1 0 0 1 46.00 46.25)">8</text>
</g>
</svg>
