<svg width="109" height="109" viewBox="0 0 109 109">
<g id="kvg:StrokePaths_0832b">
<g id="kvg:0832b">
	<g id="kvg:0832b-g1">
		<path id="kvg:0832b-s1" d="M20.33,26.17c1.25,0.53,4.67,0.83,7.83,0.67C39.69,26.23,67,23.5,83,23.17c2.26-0.05,6.12,0.57,7.17,0.83"/>
		<path id="kvg:0832b-s2" d="M36,14c2.17,0.5,2.72,1.44,2.82,2.38c0.93,8.87,1.96,15.98,2.51,19.12"/>
		<path id="kvg:0832b-s3" d="M71.4,11.75c0.6,0.75,1.37,2.49,0.8,3.94c-1.73,4.43-2.38,11.32-4.87,16.98"/>
	</g>
	<g id="kvg:0832b-g2">
		<g id="kvg:0832b-g3">
			<path id="kvg:0832b-s4" d="M20.97,39.5c4.25,1.35,10.97,5.56,12.03,7.67"/>
			<path id="kvg:0832b-s5" d="M16.67,56.76c4,1.16,10.33,4.77,11.33,6.58"/>
			<path id="kvg:0832b-s6" d="M16.42,90.33c3.33,1.17,4.73-0.69,6.16-3.13c4.16-7.11,4.92-8.7,10.09-17.87"/>
		</g>
		<g id="kvg:0832b-g4">
			<g id="kvg:0832b-g5">
				<path id="kvg:0832b-s7" d="M63.71,37.94c0.91,0.42,1.8,1.56,1.8,3.66c0,3.08-0.19,8.05-0.02,10.66"/>
				<g id="kvg:0832b-g6">
					<path id="kvg:0832b-s8" d="M38.83,53.67c1.67,0.33,4.42,0.83,6.83,0.83c7.19,0,32.95-3.08,42-3.33c1.5-0.04,5.08-0.42,7,0"/>
				</g>
			</g>
			<g id="kvg:0832b-g7">
				<path id="kvg:0832b-s9" d="M45.5,55.67c0.81,0.78,0.64,4.74,0.64,5.82c0,9.6,0,18.7,0,22.33c0,4.04,0.51,8.56,9.55,9.15c9.8,0.64,26.11-0.13,28.32-0.21c3.84-0.14,6.19-0.95,8.15-1.45"/>
			</g>
		</g>
	</g>
</g>
</g>
<g id="kvg:StrokeNumbers_0832b">
	<text transform="matrix(1 0 0 1 12.50 26.50)">1</text>
	<text transform="matrix(1 0 0 1 27.50 11.85)">2</text>
	<text transform="matrix(1 0 0 1 62.50 11.50)">3</text>
	<text transform="matrix(1 0 0 1 12.50 39.50)">4</text>
	<text transform="matrix(1 0 0 1 8.25 57.33)">5</text>
	<text transform="matrix(1 0 0 1 8.50 99.50)">6</text>
	<text transform="matrix(1 0 0 1 54.50 38.18)">7</text>
	<text transform="matrix(1 0 0 1 40.25 49.50)">8</text>
	<text transform="matrix(1 0 0 1 38.50 64.50)">9</text>
</g>
</svg>
