<svg width="109" height="109" viewBox="0 0 109 109">
<g id="kvg:StrokePaths_0834f">
<g id="kvg:0834f">
	<g id="kvg:0834f-g1">
		<path id="kvg:0834f-s1" d="M19.25,27.27c3.28,0.53,6.52,0.49,9.73-0.13c15.74-2.33,37.12-4.7,52.71-5.76c2.88-0.2,5.73-0.14,8.56,0.4"/>
		<path id="kvg:0834f-s2" d="M34.75,11.25c0.88,0.88,1.56,2.12,1.75,3c1.75,8.25,3.25,15.25,3.75,18.25"/>
		<path id="kvg:0834f-s3" d="M69.75,10.25c0.7,1,0.64,2.03,0.25,3.5c-1.25,4.75-3.25,14-4.5,17.75"/>
	</g>
	<g id="kvg:0834f-g2">
		<g id="kvg:0834f-g3">
			<path id="kvg:0834f-s4" d="M35,39.21c0,1.96-0.57,3.45-1.35,4.91C28.63,53.46,23,62.9,11.5,74.26"/>
			<path id="kvg:0834f-s5" d="M27.28,57.71c0.78,0.78,1.02,1.75,1.02,2.89c0,7.58,0.04,21.09,0.07,30.49c0.01,3.7,0.02,6.76,0.02,8.57"/>
		</g>
		<g id="kvg:0834f-g4">
			<g id="kvg:0834f-g5">
				<path id="kvg:0834f-s6" d="M78.43,32.75c0,1.1-0.61,2.57-1.99,3.51c-7.36,5.02-16.35,10.09-32.09,14.49"/>
			</g>
			<g id="kvg:0834f-g6">
				<path id="kvg:0834f-s7" d="M37.2,68.33c2.89,0.53,5.79,0.55,8.69,0.04c12.04-1.64,30.08-3.79,42.07-4.28c2.71-0.23,5.41-0.13,8.09,0.31"/>
				<path id="kvg:0834f-s8" d="M63.54,45.63c0.85,0.85,1.39,2.18,1.39,2.96c0,4.15,0.07,36.95,0.07,42.82"/>
				<path id="kvg:0834f-s9" d="M41.08,94.01c2.37,0.35,4.75,0.41,7.13,0.18c12.28-1.02,26.32-2.28,38.35-2.53c2.2-0.12,4.4-0.03,6.59,0.28"/>
			</g>
		</g>
	</g>
</g>
</g>
<g id="kvg:StrokeNumbers_0834f">
	<text transform="matrix(1 0 0 1 12.50 28.85)">1</text>
	<text transform="matrix(1 0 0 1 25.16 11.85)">2</text>
	<text transform="matrix(1 0 0 1 60.50 10.50)">3</text>
	<text transform="matrix(1 0 0 1 25.50 39.50)">4</text>
	<text transform="matrix(1 0 0 1 21.25 73.50)">5</text>
	<text transform="matrix(1 0 0 1 70.50 33.50)">6</text>
	<text transform="matrix(1 0 0 1 35.50 65.50)">7</text>
	<text transform="matrix(1 0 0 1 57.25 55.10)">8</text>
	<text transform="matrix(1 0 0 1 41.25 90.50)">9</text>
</g>
</svg>
