<svg width="109" height="109" viewBox="0 0 109 109">
<g id="kvg:StrokePaths_08345">
<g id="kvg:08345">
	<g id="kvg:08345-g1">
		<path id="kvg:08345-s1" d="M20,24.27c1.29,0.53,2.8,0.63,4.1,0.53C36,23.83,72,21.33,85.72,21.26c2.16-0.01,3.45,0.25,4.53,0.51"/>
		<path id="kvg:08345-s2" d="M38.25,13.5c1.75,1.43,2.39,1.85,2.5,2.75c1,8.5,1.25,11.5,1.25,17.75"/>
		<path id="kvg:08345-s3" d="M67.75,12.25c0.42,1.18,0.78,2.01,0.5,3.5c-1.5,8-2.25,10.75-3.5,16.25"/>
	</g>
	<g id="kvg:08345-g2">
		<g id="kvg:08345-g3">
			<g id="kvg:08345-g4">
				<path id="kvg:08345-s4" d="M51.77,28.75c0.1,0.92,0.5,2.47-0.21,3.72C46.69,41.12,35.5,56,15.23,68.02"/>
				<path id="kvg:08345-s5" d="M52.87,31.39c5.55,5.89,29.46,25.14,35.59,29.45c2.08,1.46,4.74,2.09,6.82,2.51"/>
			</g>
			<g id="kvg:08345-g5">
				<path id="kvg:08345-s6" d="M36.84,59.52c0.64,0.19,3.61,0.21,4.25,0.19c6.65-0.21,17.48-1.61,26.98-1.65c1.06,0,2.61,0.09,3.14,0.18"/>
			</g>
		</g>
		<g id="kvg:08345-g6">
			<path id="kvg:08345-s7" d="M32.57,71.93c0.64,0.56,1.42,1.91,1.58,2.65c2.16,9.63,3.09,14.67,4.55,22.7"/>
			<path id="kvg:08345-s8" d="M34,73.75c16.5-1.5,30.76-2.25,38.28-2.98c2.75-0.27,4.4,1.59,4.01,3.16c-1.63,6.51-2.79,10.57-4.45,17.83"/>
			<path id="kvg:08345-s9" d="M38.53,94.68c10.15-0.63,22.6-1.5,35.55-2.11"/>
		</g>
	</g>
</g>
</g>
<g id="kvg:StrokeNumbers_08345">
	<text transform="matrix(1 0 0 1 12.50 24.50)">1</text>
	<text transform="matrix(1 0 0 1 30.50 13.50)">2</text>
	<text transform="matrix(1 0 0 1 58.50 11.50)">3</text>
	<text transform="matrix(1 0 0 1 36.50 42.50)">4</text>
	<text transform="matrix(1 0 0 1 67.50 41.33)">5</text>
	<text transform="matrix(1 0 0 1 42.50 56.25)">6</text>
	<text transform="matrix(1 0 0 1 26.50 80.50)">7</text>
	<text transform="matrix(1 0 0 1 37.50 70.50)">8</text>
	<text transform="matrix(1 0 0 1 43.50 91.50)">9</text>
</g>
</svg>
