<svg width="109" height="109" viewBox="0 0 109 109">
<g id="kvg:StrokePaths_0837c">
<g id="kvg:0837c">
	<g id="kvg:0837c-g1">
		<path id="kvg:0837c-s1" d="M15.67,23.17c1.29,0.53,3.83,1.08,7.17,0.83c11.91-0.89,46.28-3.09,60-3.17c2.16-0.01,7.42,0.57,8.5,0.83"/>
		<path id="kvg:0837c-s2" d="M34.33,12.33c1.67,0.42,2.99,1.63,3.17,2.5c1.64,8.12,2.37,14.55,2.83,17.5"/>
		<path id="kvg:0837c-s3" d="M68.5,10.5c1.06,0.92,1.52,2.64,1.17,4C68.6,18.66,67.54,25.02,66,30.33"/>
	</g>
	<g id="kvg:0837c-g2">
		<g id="kvg:0837c-g3">
			<path id="kvg:0837c-s4" d="M51.35,27.5c0.1,0.85,0.37,2.24-0.2,3.4c-3.57,7.21-16.04,20.86-35.9,32.56"/>
			<path id="kvg:0837c-s5" d="M51.41,30.61c5.62,5.34,29.82,22.79,36.02,26.7c2.1,1.33,4.8,1.9,6.9,2.27"/>
		</g>
		<g id="kvg:0837c-g4">
			<path id="kvg:0837c-s6" d="M35.83,53.17c0.63,0.23,2.92,0.58,4.71,0.44c6.1-0.47,18.27-1.97,23.96-2.28c1.63-0.09,5.52,0.36,6.17,0.5"/>
			<path id="kvg:0837c-s7" d="M24.17,68.17c1.11,0.35,4.08,0.76,7.17,0.67c11.17-0.33,33.92-2.83,45-3.33c2.68-0.12,7.24,0.82,8.17,1"/>
			<g id="kvg:0837c-g5">
				<path id="kvg:0837c-s8" d="M52.67,55c0.83,1,1.71,1.94,1.71,4.48c0,16.54-0.23,28.56-0.23,32.72c0,9.43-4.81,3.35-6.15,2.3"/>
				<path id="kvg:0837c-s9" d="M36.44,78.56c0.06,0.45,0.26,1.23-0.12,1.82c-2.81,4.35-10.03,10.83-21.48,17.44"/>
				<path id="kvg:0837c-s10" d="M68.29,78.07c6.72,2.71,17.36,11.16,19.04,15.38"/>
			</g>
		</g>
	</g>
</g>
</g>
<g id="kvg:StrokeNumbers_0837c">
	<text transform="matrix(1 0 0 1 9.50 23.50)">1</text>
	<text transform="matrix(1 0 0 1 26.50 11.85)">2</text>
	<text transform="matrix(1 0 0 1 59.50 11.50)">3</text>
	<text transform="matrix(1 0 0 1 35.50 41.50)">4</text>
	<text transform="matrix(1 0 0 1 68.50 39.50)">5</text>
	<text transform="matrix(1 0 0 1 44.50 49.50)">6</text>
	<text transform="matrix(1 0 0 1 16.50 70.50)">7</text>
	<text transform="matrix(1 0 0 1 44.50 62.50)">8</text>
	<text transform="matrix(1 0 0 1 27.50 80.50)">9</text>
	<text transform="matrix(1 0 0 1 69.50 76.50)">10</text>
</g>
</svg>
