<svg width="109" height="109" viewBox="0 0 109 109">
<g id="kvg:StrokePaths_0839a">
<g id="kvg:0839a">
	<g id="kvg:0839a-g1">
		<path id="kvg:0839a-s1" d="M17.83,24.56c1.29,0.37,5.17,1.19,8,0.95c11.88-1.04,41.28-4.36,55-4.67c3.67-0.08,7.75,0.38,8.83,0.57"/>
		<path id="kvg:0839a-s2" d="M34.67,11.67c1.83,0.58,3.46,2.14,3.61,3c1.42,7.99,1.82,14.26,2.23,17.17"/>
		<path id="kvg:0839a-s3" d="M66.17,9.5c1.12,1,1.87,2.19,1.5,3.67c-1.12,4.5-3.04,12.42-4.67,18.17"/>
	</g>
	<g id="kvg:0839a-g2">
		<g id="kvg:0839a-g3">
			<g id="kvg:0839a-g4">
				<path id="kvg:0839a-s4" d="M82.93,30c0.09,0.39,0.35,1.13-0.18,1.58c-6.62,5.54-14.91,10.13-32.16,14.6"/>
			</g>
			<g id="kvg:0839a-g5">
				<g id="kvg:0839a-g6">
					<path id="kvg:0839a-s5" d="M69.07,41.86c0.84,0.3,1.34,1.37,1.51,1.97c0.17,0.61,0,29.13-0.17,32.93"/>
					<path id="kvg:0839a-s6" d="M71.67,55.67c5.02-0.45,9.89-1.53,15.17-1.83c1.23-0.07,2.5,0,3.67,0.67"/>
				</g>
				<path id="kvg:0839a-s7" d="M52.5,55c0.76,0.24,2.6,1.75,2.6,3.8c0,0.51,0.25,14.48,0.33,15.41c0.08,0.92,1.28,2.46,4.23,2.96c8,1.33,16.64,0.92,27.17,0c1.92-0.17,3.96,0.05,4.83,0.17"/>
			</g>
		</g>
		<g id="kvg:0839a-g7">
			<path id="kvg:0839a-s8" d="M18.5,41.17c0.92,0.58,3.16,1.56,4.45,1.17c1.3-0.39,7.79-2.56,10.38-3.34c2.59-0.78,3.3,1.54,2.5,2.67c-1.48,2.08-7.88,14.68-10.48,19.35"/>
			<path id="kvg:0839a-s9" d="M24.83,61.83c3.17-0.73,10.33-2.98,12.5-3.17c2.17-0.18,3.42,0.27,2.83,3.5c-2.44,13.34-11.44,28.13-25.5,35.17"/>
			<path id="kvg:0839a-s10" d="M20.67,69.27c7.76-0.24,37.8,20.85,63.19,26.12c3.85,0.8,7.75,1.14,10.64,1.44"/>
		</g>
	</g>
</g>
</g>
<g id="kvg:StrokeNumbers_0839a">
	<text transform="matrix(1 0 0 1 11.44 24.50)">1</text>
	<text transform="matrix(1 0 0 1 25.44 11.50)">2</text>
	<text transform="matrix(1 0 0 1 57.44 9.98)">3</text>
	<text transform="matrix(1 0 0 1 72.50 30.50)">4</text>
	<text transform="matrix(1 0 0 1 62.50 51.50)">5</text>
	<text transform="matrix(1 0 0 1 78.44 50.50)">6</text>
	<text transform="matrix(1 0 0 1 44.50 55.50)">7</text>
	<text transform="matrix(1 0 0 1 11.44 40.60)">8</text>
	<text transform="matrix(1 0 0 1 18.50 61.50)">9</text>
	<text transform="matrix(1 0 0 1 10.44 71.50)">10</text>
</g>
</svg>
