<svg width="109" height="109" viewBox="0 0 109 109">
<g id="kvg:StrokePaths_08403">
<g id="kvg:08403">
	<g id="kvg:08403-g1">
		<path id="kvg:08403-s1" d="M20.5,23.77c1.29,0.53,2.8,0.63,4.1,0.53c11.9-0.96,46.9-4.96,60.62-5.03c2.16-0.01,3.45,0.25,4.53,0.51"/>
		<path id="kvg:08403-s2" d="M37.25,11.5c1.75,1.43,2.35,1.86,2.5,2.75c1,6,1.75,12.75,2.25,15.75"/>
		<path id="kvg:08403-s3" d="M67.75,10.25c1.12,1,1.87,2.52,1.5,4c-1.12,4.5-1.25,6.25-3,14.75"/>
	</g>
	<g id="kvg:08403-g2">
		<g id="kvg:08403-g3">
			<g id="kvg:08403-g4">
				<path id="kvg:08403-s4" d="M51.97,29c0.86,0.47,2.28,2.26,2.28,3.19c0,3.41-0.27,5.69-0.11,8.57"/>
				<path id="kvg:08403-s5" d="M22.95,43.47c1.22,0.09,4.01,0.59,5.2,0.47c9.6-0.99,43.68-5.06,55.86-5.32c2.01-0.04,3.04,0.04,4.54,0.6"/>
			</g>
			<g id="kvg:08403-g5">
				<g id="kvg:08403-g6">
					<path id="kvg:08403-s6" d="M39.75,47.99c0,0.52,0.04,0.93-0.12,1.55c-0.83,3.24-7.38,14.7-15.41,18.83"/>
					<path id="kvg:08403-s7" d="M38.39,52.71c4.29,1.66,9.77,6.09,11.86,10.29"/>
				</g>
				<g id="kvg:08403-g7">
					<path id="kvg:08403-s8" d="M69.25,43.99c0,0.46,0.03,0.83-0.09,1.38C68.5,48.25,63,58.5,56.97,62.13"/>
					<path id="kvg:08403-s9" d="M67.64,50.96c5.47,1.91,12.45,6.98,15.11,11.79"/>
				</g>
			</g>
		</g>
		<g id="kvg:08403-g8">
			<path id="kvg:08403-s10" d="M15.38,77.03c1.74,0.62,4.94,0.78,6.67,0.62c22.12-2.03,52.48-3.53,67.74-3.77c2.9-0.05,4.64,0.29,6.09,0.61"/>
			<path id="kvg:08403-s11" d="M53.08,67.25c0.38,0.44,1.18,3.28,1.25,4.16c0.08,0.88-0.05,22.12-0.12,27.59"/>
		</g>
	</g>
</g>
</g>
<g id="kvg:StrokeNumbers_08403">
	<text transform="matrix(1 0 0 1 14.50 24.50)">1</text>
	<text transform="matrix(1 0 0 1 28.66 11.85)">2</text>
	<text transform="matrix(1 0 0 1 59.71 10.50)">3</text>
	<text transform="matrix(1 0 0 1 44.50 33.50)">4</text>
	<text transform="matrix(1 0 0 1 16.25 43.33)">5</text>
	<text transform="matrix(1 0 0 1 31.50 52.50)">6</text>
	<text transform="matrix(1 0 0 1 45.50 54.50)">7</text>
	<text transform="matrix(1 0 0 1 60.50 49.10)">8</text>
	<text transform="matrix(1 0 0 1 74.50 51.03)">9</text>
	<text transform="matrix(1 0 0 1 4.25 77.50)">10</text>
	<text transform="matrix(1 0 0 1 42.25 70.88)">11</text>
</g>
</svg>
