<svg width="109" height="109" viewBox="0 0 109 109">
<g id="kvg:StrokePaths_08413">
<g id="kvg:08413">
	<g id="kvg:08413-g1">
		<path id="kvg:08413-s1" d="M21.17,22.5c1.28,0.39,4.08,0.65,7,0.5C42.5,22.25,71.08,19.88,84,19.83c2.13-0.01,5.94,0.64,7,0.83"/>
		<path id="kvg:08413-s2" d="M35.17,11.67c2.33,1,2.81,2.3,2.95,3.08c1.31,7.23,2.18,13.63,2.55,16.26"/>
		<path id="kvg:08413-s3" d="M69.5,10.5c0.75,1,0.92,2.67,0.5,4c-1.27,4.05-1.83,10.16-3.67,15.33"/>
	</g>
	<g id="kvg:08413-g2">
		<g id="kvg:08413-g3">
			<path id="kvg:08413-s4" d="M52.17,27c0.76,0.24,2.54,1.75,2.54,3.7c0,2.18-0.05,4.4-0.06,6.39"/>
			<g id="kvg:08413-g4">
				<path id="kvg:08413-s5" d="M23.04,39.01c0,3.94-3.76,14.78-5.46,17.41"/>
				<path id="kvg:08413-s6" d="M23.83,41.5c14.92-1.75,43.67-4.25,57.83-4.17c14.36,0.08,7,6.32,2,9.17"/>
			</g>
		</g>
		<g id="kvg:08413-g5">
			<g id="kvg:08413-g6">
				<path id="kvg:08413-s7" d="M36.33,49.5c1.17,1,1.42,2.37,1.42,3.06c0,4.44-0.04,39.14-0.11,40.62"/>
				<path id="kvg:08413-s8" d="M38,51.17c2.7-0.07,27-2.39,29-2.5c3.6-0.2,4.63,0.9,4.63,3.06c0,6.07-0.17,26.05-0.3,39.28"/>
				<path id="kvg:08413-s9" d="M38,65.83c8.38-0.65,25.9-2.2,33.26-2.4"/>
				<path id="kvg:08413-s10" d="M38.17,78.67c11.17-1.5,21.07-2.29,32-2.67"/>
			</g>
			<g id="kvg:08413-g7">
				<path id="kvg:08413-s11" d="M18.83,95.17c1.24,0.4,4.92,0.83,7.83,0.67c12.86-0.73,32.66-3.43,56.33-4c3.5-0.08,6.5,0.42,8,1.33"/>
			</g>
		</g>
	</g>
</g>
</g>
<g id="kvg:StrokeNumbers_08413">
	<text transform="matrix(1 0 0 1 14.50 22.50)">1</text>
	<text transform="matrix(1 0 0 1 27.50 12.50)">2</text>
	<text transform="matrix(1 0 0 1 60.50 9.50)">3</text>
	<text transform="matrix(1 0 0 1 44.50 30.50)">4</text>
	<text transform="matrix(1 0 0 1 15.50 39.50)">5</text>
	<text transform="matrix(1 0 0 1 26.50 37.50)">6</text>
	<text transform="matrix(1 0 0 1 27.50 56.50)">7</text>
	<text transform="matrix(1 0 0 1 41.50 47.50)">8</text>
	<text transform="matrix(1 0 0 1 42.50 62.50)">9</text>
	<text transform="matrix(1 0 0 1 42.50 74.50)">10</text>
	<text transform="matrix(1 0 0 1 14.50 91.50)">11</text>
</g>
</svg>
