<svg width="109" height="109" viewBox="0 0 109 109">
<g id="kvg:StrokePaths_08457">
<g id="kvg:08457">
	<g id="kvg:08457-g1">
		<path id="kvg:08457-s1" d="M22.11,24.07c2.64,0.43,5.23,0.42,7.39,0.15c13.37-1.71,31.87-4.09,47.12-5.47c2.75-0.25,5.56-0.34,8.26,0.32"/>
		<path id="kvg:08457-s2" d="M37.29,13.43c0.82,0.83,1.45,1.81,1.59,2.55c0.87,4.64,2.72,12.76,3.14,15.27"/>
		<path id="kvg:08457-s3" d="M68.71,8.5c0.34,1,0.52,2.25,0.15,3.48c-2.2,7.24-2.94,10.36-5.34,17.17"/>
	</g>
	<g id="kvg:08457-g2">
		<g id="kvg:08457-g3">
			<g id="kvg:08457-g4">
				<path id="kvg:08457-s4" d="M34.46,40.23c1.45,0.56,3.88,0.49,5.42,0.31c5.43-0.62,14.59-2.17,21.87-3.02c1.33-0.16,2.79-0.43,4.12-0.13"/>
				<path id="kvg:08457-s5" d="M51,28.87c0.76,0.76,1.24,1.86,1.24,3.52c0,3.73-0.11,14.12-0.11,18.86"/>
				<path id="kvg:08457-s6" d="M15.25,55.43c3.11,0.76,6.47,0.58,9.65,0.18c13.05-1.62,48.07-6.06,61.36-7.09c3.01-0.23,5.92-0.3,8.88,0.41"/>
			</g>
			<path id="kvg:08457-s7" d="M78.6,28.48c0.17,1.23-0.01,2.58-1.09,4.19C63.5,53.5,45.25,70.5,14.45,82.26"/>
		</g>
		<g id="kvg:08457-g5">
			<path id="kvg:08457-s8" d="M41.75,64.66c0.79,0.79,1.14,1.95,1.14,3.01c0,2.67,0,17.01,0,26.7c0,1.94,0,3.69,0,5.13"/>
			<path id="kvg:08457-s9" d="M43.63,65.8c2.51-0.13,28.41-2.97,30.7-3.13c1.91-0.13,3.04,1.16,3.04,2.71c0,2.95,0.08,17.5,0.08,27.12c0,2.83,0.03,4.75,0.03,4.94"/>
			<path id="kvg:08457-s10" d="M44.08,80.43c7.42-0.55,27.42-1.8,32.12-1.85"/>
			<path id="kvg:08457-s11" d="M44.17,96.77c6.92-0.57,23.39-1.35,32.02-1.83"/>
		</g>
	</g>
</g>
</g>
<g id="kvg:StrokeNumbers_08457">
	<text transform="matrix(1 0 0 1 15.50 25.63)">1</text>
	<text transform="matrix(1 0 0 1 28.50 14.50)">2</text>
	<text transform="matrix(1 0 0 1 60.50 9.50)">3</text>
	<text transform="matrix(1 0 0 1 27.50 40.63)">4</text>
	<text transform="matrix(1 0 0 1 44.50 36.50)">5</text>
	<text transform="matrix(1 0 0 1 8.50 57.50)">6</text>
	<text transform="matrix(1 0 0 1 70.50 29.50)">7</text>
	<text transform="matrix(1 0 0 1 35.25 82.63)">8</text>
	<text transform="matrix(1 0 0 1 63.75 61.63)">9</text>
	<text transform="matrix(1 0 0 1 47.24 77.50)">10</text>
	<text transform="matrix(1 0 0 1 47.50 93.50)">11</text>
</g>
</svg>
