<svg width="109" height="109" viewBox="0 0 109 109">
<g id="kvg:StrokePaths_08469">
<g id="kvg:08469">
	<g id="kvg:08469-g1">
		<path id="kvg:08469-s1" d="M15.17,23.83c3.33,0.67,7.13,0.57,8.43,0.46c11.9-0.96,46.9-4.46,60.62-4.53c2.16-0.01,5.37,0.14,6.45,0.41"/>
		<path id="kvg:08469-s2" d="M35.17,12.33c1.08,0.42,2.35,1.7,2.5,2.5c1.08,5.92,1.33,11.92,2.17,16.5"/>
		<path id="kvg:08469-s3" d="M67,11.5c1,1,1.2,2.36,0.83,3.83c-1.12,4.5-2.54,9.92-4.17,15.67"/>
	</g>
	<g id="kvg:08469-g2">
		<g id="kvg:08469-g3">
			<g id="kvg:08469-g4">
				<path id="kvg:08469-s4" d="M34.77,33.25c0.45,0.51,0.11,2.16-0.09,2.58c-1.47,3.09-5.56,7.9-10.5,11.42"/>
			</g>
			<g id="kvg:08469-g5">
				<path id="kvg:08469-s5" d="M17.67,47.5c1.5,1,1.5,1.71,1.5,3.19c0,1.48,0.48,35.59,0.79,42.89"/>
				<path id="kvg:08469-s6" d="M19.89,50.39c2.19-0.18,18.84-3.26,20.83-3.57c1.26-0.2,2.78,0.21,2.77,2.52c0,3.95-1.13,30.8-1.54,42.91"/>
				<path id="kvg:08469-s7" d="M21.17,68.33c4.45-0.39,17.75-1.5,21-1.5"/>
				<path id="kvg:08469-s8" d="M20.17,90.5c5.33-0.42,14.98-1.14,20.67-1.33"/>
			</g>
		</g>
		<g id="kvg:08469-g6">
			<g id="kvg:08469-g7">
				<path id="kvg:08469-s9" d="M55.17,40.17C67,38.5,79.98,36.69,86.17,36c2.26-0.25,3.69,1.99,3.5,3.5C89,44.83,87.83,56,86.33,63.33"/>
				<path id="kvg:08469-s10" d="M70.63,38.6c0.43,0.39,0.7,3.12,0.71,3.9c0.01,3.88,0,9.17-0.5,19.33"/>
			</g>
			<g id="kvg:08469-g8">
				<path id="kvg:08469-s11" d="M56.23,64.09c3.64-0.43,25.78-2.5,29.94-2.93"/>
				<path id="kvg:08469-s12" d="M53.17,38c1.83,1,2.15,3.16,2.18,4.96c0.14,8.02-0.26,30.2-0.26,35.62c0,18.54-0.63,19.76,19.58,19.76c23.69,0,19.75-8.66,19.93-12.09"/>
			</g>
		</g>
	</g>
</g>
</g>
<g id="kvg:StrokeNumbers_08469">
	<text transform="matrix(1 0 0 1 8.50 23.50)">1</text>
	<text transform="matrix(1 0 0 1 26.50 12.50)">2</text>
	<text transform="matrix(1 0 0 1 57.50 11.50)">3</text>
	<text transform="matrix(1 0 0 1 26.50 33.50)">4</text>
	<text transform="matrix(1 0 0 1 10.50 55.83)">5</text>
	<text transform="matrix(1 0 0 1 36.50 44.50)">6</text>
	<text transform="matrix(1 0 0 1 24.25 64.18)">7</text>
	<text transform="matrix(1 0 0 1 24.25 86.50)">8</text>
	<text transform="matrix(1 0 0 1 57.50 35.50)">9</text>
	<text transform="matrix(1 0 0 1 74.25 46.45)">10</text>
	<text transform="matrix(1 0 0 1 58.50 60.38)">11</text>
	<text transform="matrix(1 0 0 1 43.50 44.50)">12</text>
</g>
</svg>
