<svg width="109" height="109" viewBox="0 0 109 109">
<g id="kvg:StrokePaths_08482">
<g id="kvg:08482">
	<g id="kvg:08482-g1">
		<path id="kvg:08482-s1" d="M17.5,21.17c1.3,0.37,4.25,0.83,7.17,0.67c13.03-0.74,47.02-2.67,59.83-3c3.25-0.08,6,0.17,8,0.83"/>
		<path id="kvg:08482-s2" d="M36.17,10.83c2,0.83,2.72,2.29,2.83,3c1.1,6.66,1.69,13.24,2,15.67"/>
		<path id="kvg:08482-s3" d="M68.67,10.83c0.33,0.67,0.83,1.92,0.5,3.5c-1.07,5.1-1.64,6.97-3.25,11.67"/>
	</g>
	<g id="kvg:08482-g2">
		<g id="kvg:08482-g3">
			<g id="kvg:08482-g4">
				<path id="kvg:08482-s4" d="M52.17,24.33c1.16,0.5,1.99,1.88,1.99,3.15c0,2.02,0,0.5,0,6"/>
				<path id="kvg:08482-s5" d="M22.33,35.33C23.43,35.68,26.75,36,29.5,36c6.18,0,40.33-3.25,49.67-3.5c1.82-0.05,7.59-0.51,8.5-0.33"/>
			</g>
			<path id="kvg:08482-s6" d="M36.34,37.49c2.93,3.14,4.8,6.92,5.07,8.99"/>
			<path id="kvg:08482-s7" d="M71.56,35.82c0.19,0.93-0.27,2.03-0.41,2.26c-1.67,2.82-3.34,5.45-4.38,6.74"/>
			<g id="kvg:08482-g5">
				<path id="kvg:08482-s8" d="M19.83,48.77c-0.16,3.64-4.04,13.15-5.41,15.31"/>
				<path id="kvg:08482-s9" d="M19.89,51.07c3.49,0,47.3-4.32,64.86-4.32c11.94,0,7.75,4.75,2.25,8.42"/>
			</g>
		</g>
		<g id="kvg:08482-g6">
			<path id="kvg:08482-s10" d="M31.17,61.5c0.57,0.33,1.33,2.33,1.33,3c0,4.32,0.28,24.04,0.17,28.17"/>
			<path id="kvg:08482-s11" d="M32.83,64.5c3.69-0.23,41.25-3.85,44-4c3.23-0.17,3.95,1.97,3.83,3.5C80,72.5,79.25,78,77.5,87c-1.4,7.22-5.13,0.69-6.67-1.17"/>
			<path id="kvg:08482-s12" d="M52.83,50.83c0.7,0.3,1.78,1.67,1.78,3.64c0,0.61,0.03,41.49-0.11,45.19"/>
		</g>
	</g>
</g>
</g>
<g id="kvg:StrokeNumbers_08482">
	<text transform="matrix(1 0 0 1 10.50 21.50)">1</text>
	<text transform="matrix(1 0 0 1 27.50 11.50)">2</text>
	<text transform="matrix(1 0 0 1 59.50 11.50)">3</text>
	<text transform="matrix(1 0 0 1 45.50 29.50)">4</text>
	<text transform="matrix(1 0 0 1 15.50 36.50)">5</text>
	<text transform="matrix(1 0 0 1 31.50 44.50)">6</text>
	<text transform="matrix(1 0 0 1 61.50 42.50)">7</text>
	<text transform="matrix(1 0 0 1 12.50 50.50)">8</text>
	<text transform="matrix(1 0 0 1 22.50 47.50)">9</text>
	<text transform="matrix(1 0 0 1 20.50 69.50)">10</text>
	<text transform="matrix(1 0 0 1 33.50 60.50)">11</text>
	<text transform="matrix(1 0 0 1 44.50 57.50)">12</text>
</g>
</svg>
