<svg width="109" height="109" viewBox="0 0 109 109">
<g id="kvg:StrokePaths_0849c">
<g id="kvg:0849c">
	<g id="kvg:0849c-g1">
		<path id="kvg:0849c-s1" d="M21,24.27c1.29,0.53,2.8,0.63,4.1,0.53C37,23.83,72,20.33,85.72,20.26c2.16-0.01,3.45,0.25,4.53,0.51"/>
		<path id="kvg:0849c-s2" d="M38.25,13c1.75,1.43,2.31,1.87,2.5,2.75C42.5,24,42.5,30,43,33"/>
		<path id="kvg:0849c-s3" d="M68.75,10.75c1.12,1,1.87,2.52,1.5,4c-1.12,4.5-2.88,10.5-4.5,16.25"/>
	</g>
	<g id="kvg:0849c-g2">
		<g id="kvg:0849c-g3">
			<g id="kvg:0849c-g4">
				<path id="kvg:0849c-s4" d="M21.85,42.99c0.67,0.27,1.89,0.35,2.56,0.27c4.25-0.47,14.37-3.19,18.88-3.26c1.11-0.02,1.78,0.13,2.34,0.27"/>
				<path id="kvg:0849c-s5" d="M16.08,58.92c1.08,0.39,3.06,0.46,4.14,0.39c8.14-0.56,18.28-3.81,27.12-4.67c1.79-0.17,2.88,0.18,3.78,0.38"/>
			</g>
			<g id="kvg:0849c-g5">
				<path id="kvg:0849c-s6" d="M34.36,60.09c0.07,0.37,1.36,1.92,1.42,4.27c0.31,11.26,0.25,24.05,0.25,27.89c0,8.15-3.5,2.93-6.74,0.19"/>
				<path id="kvg:0849c-s7" d="M25,70.67c0.03,0.5,0.07,1.29-0.07,2.02c-0.81,4.25-6.65,12.55-13,18.25"/>
				<path id="kvg:0849c-s8" d="M43.9,69.93c2.51,2.22,6.61,8.89,7.24,12.34"/>
			</g>
		</g>
		<g id="kvg:0849c-g6">
			<g id="kvg:0849c-g7">
				<path id="kvg:0849c-s9" d="M63.35,39.49c0.67,0.27,1.89,0.35,2.56,0.27c4.25-0.47,13.37-2.19,17.88-2.26c1.11-0.02,1.78,0.13,2.34,0.27"/>
				<path id="kvg:0849c-s10" d="M57.08,56.92c1.08,0.39,3.06,0.46,4.14,0.39c8.14-0.56,21.28-2.56,29.12-3.17c1.79-0.14,2.88,0.18,3.78,0.38"/>
			</g>
			<g id="kvg:0849c-g8">
				<path id="kvg:0849c-s11" d="M74.36,58.59c0.07,0.37,1.36,1.92,1.42,4.27c0.31,11.26,0.25,27.05,0.25,30.89c0,8.15-3.5,2.93-6.74,0.19"/>
				<path id="kvg:0849c-s12" d="M64.5,68.67c0.03,0.51,0.06,1.33-0.06,2.07c-0.74,4.35-6.15,12.86-12,18.71"/>
				<path id="kvg:0849c-s13" d="M84.4,69.18c3.9,3.44,10.26,13.75,11.24,19.09"/>
			</g>
		</g>
	</g>
</g>
</g>
<g id="kvg:StrokeNumbers_0849c">
	<text transform="matrix(1 0 0 1 14.50 25.50)">1</text>
	<text transform="matrix(1 0 0 1 30.50 13.50)">2</text>
	<text transform="matrix(1 0 0 1 60.50 11.50)">3</text>
	<text transform="matrix(1 0 0 1 15.50 43.40)">4</text>
	<text transform="matrix(1 0 0 1 9.75 59.50)">5</text>
	<text transform="matrix(1 0 0 1 27.50 66.50)">6</text>
	<text transform="matrix(1 0 0 1 17.50 71.50)">7</text>
	<text transform="matrix(1 0 0 1 41.50 66.50)">8</text>
	<text transform="matrix(1 0 0 1 55.50 40.50)">9</text>
	<text transform="matrix(1 0 0 1 54.50 53.50)">10</text>
	<text transform="matrix(1 0 0 1 65.50 66.50)">11</text>
	<text transform="matrix(1 0 0 1 52.75 68.50)">12</text>
	<text transform="matrix(1 0 0 1 80.50 66.50)">13</text>
</g>
</svg>
