<svg width="109" height="109" viewBox="0 0 109 109">
<g id="kvg:StrokePaths_084d9">
<g id="kvg:084d9">
	<g id="kvg:084d9-g1">
		<path id="kvg:084d9-s1" d="M20.5,23.27c1.29,0.53,2.8,0.63,4.1,0.53c11.9-0.96,46.9-3.96,60.62-4.03c2.16-0.01,3.45,0.25,4.53,0.51"/>
		<path id="kvg:084d9-s2" d="M35.25,12.5c1.75,1.43,2.31,1.87,2.5,2.75C39.5,23.5,40,28,40.5,31"/>
		<path id="kvg:084d9-s3" d="M69.25,11.25c1.12,1,1.87,2.52,1.5,4c-1.12,4.5-1.88,9.5-3.5,15.25"/>
	</g>
	<g id="kvg:084d9-g2">
		<g id="kvg:084d9-g3">
			<path id="kvg:084d9-s4" d="M52.75,26.61c0.73,0.37,2.28,2.78,2.42,3.52c0.15,0.74,0.08,3.48-0.07,8.12"/>
			<g id="kvg:084d9-g4">
				<path id="kvg:084d9-s5" d="M24.23,40.15c1.46,0.52,4.15,0.61,5.61,0.52c15.22-0.87,36.66-2.67,54.06-3.59c2.43-0.13,3.9,0.25,5.12,0.51"/>
				<path id="kvg:084d9-s6" d="M27.95,41.32c0.05,1.32,0.1,3.4-0.1,5.29c-1.2,11.14-2.48,38.48-16.79,50.18"/>
			</g>
		</g>
		<g id="kvg:084d9-g5">
			<g id="kvg:084d9-g6">
				<g id="kvg:084d9-g7">
					<path id="kvg:084d9-s7" d="M43.88,46.8c0,0.53,0.06,0.97-0.09,1.59c-1.4,5.76-5.6,12.92-11.75,19.28"/>
					<path id="kvg:084d9-s8" d="M41.33,56.02c3.61,1.83,8.22,6.68,9.98,11.29"/>
				</g>
				<g id="kvg:084d9-g8">
					<path id="kvg:084d9-s9" d="M74.01,44.7c0,0.52,0.08,0.97-0.08,1.55c-1.47,5.07-5.67,14.11-10.67,19.23"/>
					<path id="kvg:084d9-s10" d="M73.24,52.97c5.76,3.49,10.18,7.87,13.62,13.16"/>
				</g>
			</g>
			<g id="kvg:084d9-g9">
				<path id="kvg:084d9-s11" d="M56.06,45.06c0.1,0.23,1.42,1.22,1.42,2.71c0,9.59,0.11,32.43,0.11,45.11"/>
				<path id="kvg:084d9-s12" d="M36.58,78.02c0.9,0.35,2.55,0.44,3.44,0.35c11.54-1.19,28.91-2.75,40.54-3.06c1.5-0.04,2.39,0.17,3.14,0.34"/>
				<path id="kvg:084d9-s13" d="M28.16,94.37c1.21,0.43,3.44,0.53,4.65,0.43c15.02-1.21,42.79-2.31,56.22-2.88c2.02-0.08,3.23,0.21,4.25,0.42"/>
			</g>
		</g>
	</g>
</g>
</g>
<g id="kvg:StrokeNumbers_084d9">
	<text transform="matrix(1 0 0 1 14.50 23.50)">1</text>
	<text transform="matrix(1 0 0 1 26.50 12.50)">2</text>
	<text transform="matrix(1 0 0 1 60.50 11.50)">3</text>
	<text transform="matrix(1 0 0 1 45.75 31.40)">4</text>
	<text transform="matrix(1 0 0 1 24.50 37.50)">5</text>
	<text transform="matrix(1 0 0 1 20.50 50.25)">6</text>
	<text transform="matrix(1 0 0 1 36.50 49.50)">7</text>
	<text transform="matrix(1 0 0 1 47.75 57.10)">8</text>
	<text transform="matrix(1 0 0 1 66.50 49.03)">9</text>
	<text transform="matrix(1 0 0 1 77.50 54.50)">10</text>
	<text transform="matrix(1 0 0 1 47.50 51.50)">11</text>
	<text transform="matrix(1 0 0 1 27.50 77.50)">12</text>
	<text transform="matrix(1 0 0 1 25.50 91.50)">13</text>
</g>
</svg>
