<svg width="109" height="109" viewBox="0 0 109 109">
<g id="kvg:StrokePaths_0852c">
<g id="kvg:0852c">
	<g id="kvg:0852c-g1">
		<path id="kvg:0852c-s1" d="M20,23.77c1.29,0.53,2.8,0.63,4.1,0.53C36,23.33,71,19.83,84.72,19.76c2.16-0.01,3.45,0.25,4.53,0.51"/>
		<path id="kvg:0852c-s2" d="M35.25,12.5c1.75,1.43,2.3,1.87,2.5,2.75C39,20.75,41,29.5,41.5,32.5"/>
		<path id="kvg:0852c-s3" d="M64.55,9.75c1.02,0.91,1.2,2.79,0.86,4.13c-1.02,4.09-1.7,10.9-3.18,16.12"/>
	</g>
	<g id="kvg:0852c-g2">
		<g id="kvg:0852c-g3">
			<path id="kvg:0852c-s4" d="M14.08,43.43c0.92,0.47,3.52,0.74,6.01,0.35c8.16-1.26,13.62-2.2,20.16-3.23c2.5-0.4,3.42,0.74,2,2.17C40.5,44.5,36.5,48.65,33,52.2"/>
			<g id="kvg:0852c-g4">
				<path id="kvg:0852c-s5" d="M28.5,53.17c0.97,0.35,1.75,1.57,1.75,2.3c0,5.15,0.25,26.72,0.25,33.89"/>
				<path id="kvg:0852c-s6" d="M30.76,66.5c6.37-0.53,1-0.27,10.61-1.33c1.54-0.17,1.95-0.18,2.92,0"/>
			</g>
			<g id="kvg:0852c-g5">
				<path id="kvg:0852c-s7" d="M16.77,65.98c0.98,0.72,1.55,1.57,1.76,3.96C19,75.4,19,90.92,19,94.84"/>
				<path id="kvg:0852c-s8" d="M12.75,95.03c0.54,0.18,2.68,1.53,3.5,1.19c5.25-2.17,18.25-8.7,26.25-12.46"/>
			</g>
		</g>
		<g id="kvg:0852c-g6">
			<g id="kvg:0852c-g7">
				<g id="kvg:0852c-g8">
					<path id="kvg:0852c-s9" d="M67.25,33.75c0.77,0.33,2.05,1.61,2.05,2.26c0,2.42-0.24,4.86-0.1,6.91"/>
					<path id="kvg:0852c-s10" d="M49.44,44.6c0.98,0.06,3.22,0.38,4.17,0.3c7.7-0.63,25.04-2.6,34.81-2.77c1.62-0.03,2.44,0.03,3.64,0.38"/>
				</g>
				<g id="kvg:0852c-g9">
					<path id="kvg:0852c-s11" d="M64.69,47.07c0.57,0.29-0.22,1.94-0.55,2.31c-4.18,4.67-4.46,6.81-9.88,11.38c-2.75,2.31-1.76,2.58,1.75,1.98c9.56-1.63,17-3.41,28.5-5.75"/>
					<path id="kvg:0852c-s12" d="M77.91,49.36c3.46,2.17,8.93,8.93,9.8,12.3"/>
				</g>
			</g>
			<g id="kvg:0852c-g10">
				<path id="kvg:0852c-s13" d="M55.52,69.51c0.23,0.47,0.42,1.7,0.41,2.66c-0.18,12.51-3.86,21.33-13.62,25.56"/>
				<path id="kvg:0852c-s14" d="M66.86,67.11c0.07,0.33,1.08,1.7,1.08,3.77c0,10.87-0.22,21.35-0.22,24.73"/>
				<path id="kvg:0852c-s15" d="M79.6,63.74c0.64,1.01,1.16,2.2,1.2,3.75c0.17,6.94-0.46,13.68-0.46,18.4c0,8.37,0.92,9.88,8.34,9.88c7.33,0,8.33-1.51,8.33-7.84"/>
			</g>
		</g>
	</g>
</g>
</g>
<g id="kvg:StrokeNumbers_0852c">
	<text transform="matrix(1 0 0 1 12.50 23.50)">1</text>
	<text transform="matrix(1 0 0 1 26.50 12.50)">2</text>
	<text transform="matrix(1 0 0 1 55.50 9.50)">3</text>
	<text transform="matrix(1 0 0 1 7.50 43.40)">4</text>
	<text transform="matrix(1 0 0 1 20.50 57.50)">5</text>
	<text transform="matrix(1 0 0 1 34.50 62.50)">6</text>
	<text transform="matrix(1 0 0 1 8.50 66.50)">7</text>
	<text transform="matrix(1 0 0 1 5.50 95.50)">8</text>
	<text transform="matrix(1 0 0 1 59.50 37.50)">9</text>
	<text transform="matrix(1 0 0 1 46.50 41.50)">10</text>
	<text transform="matrix(1 0 0 1 51.50 54.50)">11</text>
	<text transform="matrix(1 0 0 1 83.50 51.50)">12</text>
	<text transform="matrix(1 0 0 1 44.25 73.73)">13</text>
	<text transform="matrix(1 0 0 1 58.50 73.50)">14</text>
	<text transform="matrix(1 0 0 1 71.50 69.50)">15</text>
</g>
</svg>
