<svg width="109" height="109" viewBox="0 0 109 109">
<g id="kvg:StrokePaths_0855a">
<g id="kvg:0855a">
	<g id="kvg:0855a-g1">
		<path id="kvg:0855a-s1" d="M17.5,18.17c1.29,0.53,5.5,1.17,9.33,1C42,18.5,71,16,85.17,15.17c2.15-0.13,7.92-0.1,9,0.17"/>
		<path id="kvg:0855a-s2" d="M36.17,8.83c2,0.67,2.71,2.07,2.86,2.73c1.36,6.2,1.25,11.51,1.64,13.77"/>
		<path id="kvg:0855a-s3" d="M67.5,6.83c1.67,0.83,1.46,3.04,1.26,4.04c-0.76,3.88-1.03,7.03-2.43,10.8"/>
	</g>
	<g id="kvg:0855a-g2">
		<g id="kvg:0855a-g3">
			<g id="kvg:0855a-g4">
				<path id="kvg:0855a-s4" d="M37.67,29.17c0.19,0.18,1.39,1.6,1.47,1.83c0.66,1.78,1.24,4.82,1.69,8.01"/>
				<path id="kvg:0855a-s5" d="M39.17,30c9.02-0.81,22.17-2.3,27.33-2.5c1.89-0.07,2.77,1.33,2.67,1.83c-0.5,2.5-0.67,3-1.5,4.83"/>
				<path id="kvg:0855a-s6" d="M41.88,37.44c7.3-0.48,17.65-1.3,27.67-2.04"/>
			</g>
		</g>
		<g id="kvg:0855a-g5">
			<g id="kvg:0855a-g6">
				<g id="kvg:0855a-g7">
					<path id="kvg:0855a-s7" d="M21.67,45c1.08,0.75,1.43,0.92,1.72,1.94c0.58,2.03,1.56,5.42,1.95,9.06"/>
					<path id="kvg:0855a-s8" d="M23,46.5c7.6-1.13,18.98-2.71,23.33-3c1.59-0.1,2.38,1.09,2.24,1.73c-0.57,2.61-0.74,2.44-2.24,6.44"/>
					<path id="kvg:0855a-s9" d="M25.67,55c5.11-0.32,15.32-1.84,22.33-2.33"/>
				</g>
				<g id="kvg:0855a-g8">
					<path id="kvg:0855a-s10" d="M59.92,42.39c0.35,0.2,1.65,1.67,1.75,1.95c1,2.83,1,5.83,1.67,9.33"/>
					<path id="kvg:0855a-s11" d="M62.06,42.89c10.97-1.11,18.39-1.61,23.74-1.88c1.96-0.1,3.13,0.58,2.85,1.15c-1.16,2.36-1.48,4.01-2.48,7.34"/>
					<path id="kvg:0855a-s12" d="M64.41,52.33c6.24-0.41,15.36-1.2,23.92-1.83"/>
				</g>
			</g>
			<g id="kvg:0855a-g9">
				<g id="kvg:0855a-g10">
					<g id="kvg:0855a-g11">
						<path id="kvg:0855a-s13" d="M31.33,61.5c0.84,0.27,5.32,0.91,6.17,0.83c5.37-0.46,32.79-2.81,38-2.5c1.4,0.08,2.8,0.37,3.5,0.5"/>
					</g>
					<g id="kvg:0855a-g12">
						<path id="kvg:0855a-s14" d="M21.33,70.83c1.25,0.43,3.67,0.92,7.17,0.67c13.71-0.98,42.22-2.81,56-3.17c3.25-0.08,6.29,0.62,7.33,0.83"/>
					</g>
				</g>
				<path id="kvg:0855a-s15" d="M42.27,71.54c0.4,0.79,0.77,1.39-0.27,2.46c-0.83,0.85-2.63,3.57-3.17,3.98c-2.13,1.67-1.65,3.17,1.17,3.18c1.77,0.01,26.64-2.54,31.17-3c3.54-0.36,4.28,1.97,3.5,3.83c-2.17,5.17-6.31,12.17-11,15.5c-4.26,3.03-7.33-0.45-8.5-1.33"/>
			</g>
		</g>
	</g>
</g>
</g>
<g id="kvg:StrokeNumbers_0855a">
	<text transform="matrix(1 0 0 1 10.50 17.50)">1</text>
	<text transform="matrix(1 0 0 1 28.66 9.50)">2</text>
	<text transform="matrix(1 0 0 1 59.71 8.50)">3</text>
	<text transform="matrix(1 0 0 1 31.50 35.40)">4</text>
	<text transform="matrix(1 0 0 1 44.50 26.50)">5</text>
	<text transform="matrix(1 0 0 1 45.50 35.25)">6</text>
	<text transform="matrix(1 0 0 1 15.50 52.18)">7</text>
	<text transform="matrix(1 0 0 1 24.50 43.50)">8</text>
	<text transform="matrix(1 0 0 1 29.50 52.50)">9</text>
	<text transform="matrix(1 0 0 1 52.50 50.50)">10</text>
	<text transform="matrix(1 0 0 1 72.50 39.50)">11</text>
	<text transform="matrix(1 0 0 1 66.50 50.50)">12</text>
	<text transform="matrix(1 0 0 1 21.50 64.50)">13</text>
	<text transform="matrix(1 0 0 1 10.50 71.50)">14</text>
	<text transform="matrix(1 0 0 1 26.50 81.50)">15</text>
</g>
</svg>
