<svg width="109" height="109" viewBox="0 0 109 109">
<g id="kvg:StrokePaths_08613">
<g id="kvg:08613">
	<g id="kvg:08613-g1">
		<path id="kvg:08613-s1" d="M18,24.81c1.7,0.54,3.68,0.65,5.38,0.54c15.63-0.99,41.9-4.08,59.92-4.15c2.83-0.01,4.54,0.26,5.95,0.53"/>
		<path id="kvg:08613-s2" d="M38.8,12.75c1.57,1.28,2.21,2.66,2.24,3.46C41.25,22.75,41.5,28,41.5,31"/>
		<path id="kvg:08613-s3" d="M69.43,10.25c0.83,0.9,1.22,2.26,0.63,3.59c-1.82,4.03-3.83,10.76-6.32,15.91"/>
	</g>
	<g id="kvg:08613-g2">
		<g id="kvg:08613-g3">
			<g id="kvg:08613-g4">
				<path id="kvg:08613-s4" d="M36.51,34.5c0.06,0.34,0.12,0.88-0.12,1.37c-1.42,2.9-9.6,9.26-20.79,13.16"/>
			</g>
			<g id="kvg:08613-g5">
				<path id="kvg:08613-s5" d="M13.34,59.41c0.91,0.59,2.6,1.04,3.76,0.97c5.65-0.37,14.72-1.84,22.71-2.62c1.16-0.11,1.45-0.16,2.18,0"/>
				<path id="kvg:08613-s6" d="M29.53,45.85c0.46,0.5,0.73,2.28,0.82,3.29c0.09,1.01,0,44.29-0.09,50.61"/>
				<path id="kvg:08613-s7" d="M29.77,60.09c-2.94,9.72-7.86,21.7-14.52,29.65"/>
				<path id="kvg:08613-s8" d="M33.3,68.96c3.66,2.01,6.76,6.03,8.73,8.61"/>
			</g>
		</g>
		<g id="kvg:08613-g6">
			<g id="kvg:08613-g7">
				<path id="kvg:08613-s9" d="M60.41,34.5c0.04,0.51,0.08,1.31-0.07,2.03c-0.87,4.29-5.85,13.7-12.67,19.46"/>
				<path id="kvg:08613-s10" d="M61.79,40.45C66.75,40,71,39,75.33,37.71c1.59-0.48,2.5,2.1,1.81,3.07c-2.89,4.08-3.61,5.56-6.66,11.06"/>
			</g>
			<g id="kvg:08613-g8">
				<g id="kvg:08613-g9">
					<path id="kvg:08613-s11" d="M53.28,53.79c0.26,0.45,0.26,0.76,0.4,1.33c1.16,4.66,2.25,16.43,2.97,25.13"/>
					<path id="kvg:08613-s12" d="M54.48,54.42c8.98-1.17,24.36-2.17,31.06-3.15c2.46-0.36,3.72,0.92,3.6,2.2c-0.46,4.7-1.61,16.5-2.73,24.35"/>
					<path id="kvg:08613-s13" d="M71.65,53.14c0.32,6.06,0.16,19.29,0.16,23.33"/>
					<path id="kvg:08613-s14" d="M56.16,66.47c2.92-0.46,28.61-2.82,31.03-3.01"/>
					<path id="kvg:08613-s15" d="M57.12,77.98c6.46-0.5,20.37-1.59,29.29-2.41"/>
				</g>
				<g id="kvg:08613-g10">
					<path id="kvg:08613-s16" d="M53.91,88.18c0,4.28-3.1,10.6-3.91,11.82"/>
					<path id="kvg:08613-s17" d="M62.37,86.37c2.37,2.01,4.62,7.55,5.21,10.68"/>
					<path id="kvg:08613-s18" d="M74.65,86.1c2.29,1.81,5.92,7.43,6.5,10.24"/>
					<path id="kvg:08613-s19" d="M87.72,83.53c2.94,1.96,7.6,8.08,8.33,11.13"/>
				</g>
			</g>
		</g>
	</g>
</g>
</g>
<g id="kvg:StrokeNumbers_08613">
	<text transform="matrix(1 0 0 1 10.50 24.85)">1</text>
	<text transform="matrix(1 0 0 1 30.50 12.50)">2</text>
	<text transform="matrix(1 0 0 1 60.50 10.50)">3</text>
	<text transform="matrix(1 0 0 1 28.50 34.50)">4</text>
	<text transform="matrix(1 0 0 1 6.50 59.50)">5</text>
	<text transform="matrix(1 0 0 1 22.50 53.50)">6</text>
	<text transform="matrix(1 0 0 1 20.50 70.50)">7</text>
	<text transform="matrix(1 0 0 1 34.50 67.50)">8</text>
	<text transform="matrix(1 0 0 1 51.50 34.50)">9</text>
	<text transform="matrix(1 0 0 1 65.75 35.57)">10</text>
	<text transform="matrix(1 0 0 1 46.50 62.50)">11</text>
	<text transform="matrix(1 0 0 1 58.50 50.88)">12</text>
	<text transform="matrix(1 0 0 1 74.50 60.50)">13</text>
	<text transform="matrix(1 0 0 1 58.50 63.57)">14</text>
	<text transform="matrix(1 0 0 1 59.50 74.50)">15</text>
	<text transform="matrix(1 0 0 1 45.50 87.50)">16</text>
	<text transform="matrix(1 0 0 1 56.50 92.50)">17</text>
	<text transform="matrix(1 0 0 1 67.50 91.50)">18</text>
	<text transform="matrix(1 0 0 1 79.50 88.50)">19</text>
</g>
</svg>
