<svg width="109" height="109" viewBox="0 0 109 109">
<g id="kvg:StrokePaths_08679">
<g id="kvg:08679">
	<g id="kvg:08679-g1">
		<g id="kvg:08679-g2">
			<g id="kvg:08679-g3">
				<path id="kvg:08679-s1" d="M10.94,37.3c0.82,0.82,1.06,1.7,1.2,2.96c0.53,4.69,1.17,11.83,1.79,18.01c0.2,2.02,0.4,3.94,0.59,5.63"/>
				<path id="kvg:08679-s2" d="M13.25,39.45c6.6-0.92,18.66-2.65,25.13-3.25c3.2-0.29,5.36,0.72,4.71,4.19c-0.93,4.96-1.52,8.97-2.87,17.22"/>
				<path id="kvg:08679-s3" d="M15.29,61.04c6.86-0.77,14.88-1.44,21.09-1.93c2.25-0.18,4.26-0.33,5.9-0.45"/>
			</g>
			<g id="kvg:08679-g4">
				<path id="kvg:08679-s4" d="M25.17,16.75c1.35,1.35,1.51,2.62,1.51,4.97c0,4.78,0.05,47.78,0.05,61.16"/>
			</g>
		</g>
		<path id="kvg:08679-s5" d="M11.57,89.1c1.31,1.4,2.56,1.4,4.27,0.56c5.06-2.47,20.44-10.21,23.66-12.04"/>
		<path id="kvg:08679-s6" d="M36.25,69.75c2.93,2.5,7.57,10.26,8.31,14.14"/>
	</g>
	<g id="kvg:08679-g5">
		<path id="kvg:08679-s7" d="M50.75,30.47c2.38,0.91,5.26,0.82,7.5,0.71c7.03-0.35,20.84-1.81,28.63-2.48c2.32-0.2,4.62-0.5,6.87,0.31"/>
		<path id="kvg:08679-s8" d="M69.62,33c1.57,1.57,1.77,3.25,1.77,6.3c0,15.86-0.01,42.45-0.01,49.2"/>
		<path id="kvg:08679-s9" d="M42.5,90.55c2.76,0.95,5.65,0.76,8.49,0.5c14.61-1.32,25.68-2.01,39.13-2.46c3.06-0.1,6,0.06,8.88,1.21"/>
	</g>
</g>
</g>
<g id="kvg:StrokeNumbers_08679">
	<text transform="matrix(1 0 0 1 6.00 45.25)">1</text>
	<text transform="matrix(1 0 0 1 15.25 36.25)">2</text>
	<text transform="matrix(1 0 0 1 18.25 57.25)">3</text>
	<text transform="matrix(1 0 0 1 16.25 17.25)">4</text>
	<text transform="matrix(1 0 0 1 8.25 86.25)">5</text>
	<text transform="matrix(1 0 0 1 38.25 69.25)">6</text>
	<text transform="matrix(1 0 0 1 45.00 28.25)">7</text>
	<text transform="matrix(1 0 0 1 63.25 41.25)">8</text>
	<text transform="matrix(1 0 0 1 47.25 88.25)">9</text>
</g>
</svg>
