<svg width="109" height="109" viewBox="0 0 109 109">
<g id="kvg:StrokePaths_0867b">
<g id="kvg:0867b">
	<g id="kvg:0867b-g1">
		<g id="kvg:0867b-g2">
			<g id="kvg:0867b-g3">
				<path id="kvg:0867b-s1" d="M12.01,38.65c0.89,0.89,1.32,1.93,1.49,3.1c0.69,4.73,1.47,11.11,2.2,17.12c0.19,1.54,0.37,3.07,0.55,4.53"/>
				<path id="kvg:0867b-s2" d="M14.47,40.98c6.25-0.88,18.6-2.68,24.65-3.3c2.92-0.3,4.76,0.34,4.19,3.58c-0.82,4.65-1.66,8.19-2.93,15.96"/>
				<path id="kvg:0867b-s3" d="M17.26,61.43c4.84-0.64,13.12-1.82,20.24-2.74c1.87-0.24,3.65-0.46,5.28-0.65"/>
			</g>
			<g id="kvg:0867b-g4">
				<path id="kvg:0867b-s4" d="M26.17,18.25c1.23,1.23,1.51,2.88,1.51,4.47c0,4.78,0.05,45.53,0.05,58.91"/>
			</g>
		</g>
		<path id="kvg:0867b-s5" d="M12.82,88.27c1.35,1.35,2.72,1,4.19,0.24C22.43,85.69,39.02,77,41.62,75.38"/>
		<path id="kvg:0867b-s6" d="M37.75,67c3.2,3.03,8.26,12.44,9.06,17.14"/>
	</g>
	<g id="kvg:0867b-g5">
		<g id="kvg:0867b-g6">
			<path id="kvg:0867b-s7" d="M70.29,17.11C71.46,18.29,72,20,72,21.75c0,5,0,9.55,0,12.75"/>
			<g id="kvg:0867b-g7">
				<path id="kvg:0867b-s8" d="M51.13,37.71c1.99,0.79,4.65,0.66,6.99,0.29c9.09-1.42,24.09-3.54,31.91-4c1.81-0.11,4.46-0.12,6.08,0.34"/>
			</g>
		</g>
		<g id="kvg:0867b-g8">
			<path id="kvg:0867b-s9" d="M53.72,39c0.95,0.95,1.26,2.12,1.26,4.1c0,11.4,0,31.46,0,35.78c0,10.87,0.02,11.22,19.89,11.22c9.12,0,17,0.27,21.9-1.87"/>
		</g>
	</g>
</g>
</g>
<g id="kvg:StrokeNumbers_0867b">
	<text transform="matrix(1 0 0 1 6.50 47.88)">1</text>
	<text transform="matrix(1 0 0 1 16.50 37.50)">2</text>
	<text transform="matrix(1 0 0 1 18.50 58.98)">3</text>
	<text transform="matrix(1 0 0 1 15.50 17.50)">4</text>
	<text transform="matrix(1 0 0 1 11.50 84.58)">5</text>
	<text transform="matrix(1 0 0 1 40.50 67.50)">6</text>
	<text transform="matrix(1 0 0 1 61.50 17.50)">7</text>
	<text transform="matrix(1 0 0 1 51.50 34.85)">8</text>
	<text transform="matrix(1 0 0 1 47.50 49.03)">9</text>
</g>
</svg>
