<svg width="109" height="109" viewBox="0 0 109 109">
<g id="kvg:StrokePaths_0868c">
<g id="kvg:0868c">
	<g id="kvg:0868c-g1">
		<g id="kvg:0868c-g2">
			<g id="kvg:0868c-g3">
				<path id="kvg:0868c-s1" d="M12.76,37.4c0.46,0.51,1.02,1.4,1.12,2.06c0.87,5.79,1.87,13.29,3.12,21.93"/>
				<path id="kvg:0868c-s2" d="M14.72,39.35c6.76-0.94,21.05-3.21,25.94-3.57c1.91-0.14,2.79,1.33,2.55,2.75c-0.81,4.82-1.93,9.04-3.25,17.05"/>
				<path id="kvg:0868c-s3" d="M17.19,58.68c5.44-0.95,17.5-2.4,25.1-3.28"/>
			</g>
			<g id="kvg:0868c-g4">
				<path id="kvg:0868c-s4" d="M25.92,17.25c1.08,1,2.26,2.75,2.26,4.47c0,4.78-0.2,43.78-0.2,57.16"/>
			</g>
		</g>
		<path id="kvg:0868c-s5" d="M12.57,86.2c0.56,1.24,2.3,1.19,2.86,0.88C16,86.77,37.9,74.09,41.38,71.62"/>
		<path id="kvg:0868c-s6" d="M35.75,63.5c3.46,2.89,8.94,11.89,9.81,16.39"/>
	</g>
	<g id="kvg:0868c-g5">
		<g id="kvg:0868c-g6">
			<g id="kvg:0868c-g7">
				<path id="kvg:0868c-s7" d="M50.75,27.89c1.1,0.38,3.11,0.92,4.21,0.88c8.94-0.27,28.23-1.77,35.2-2.38c1.82-0.16,2.93,0.18,3.84,0.37"/>
			</g>
			<g id="kvg:0868c-g8">
				<g id="kvg:0868c-g9">
					<path id="kvg:0868c-s8" d="M52,46.74c1.35,0.43,3.81,1,5.16,0.93c8.34-0.42,22.34-1.99,30.88-2.68c2.23-0.18,3.59,0.2,4.71,0.42"/>
				</g>
				<g id="kvg:0868c-g10">
					<path id="kvg:0868c-s9" d="M48,67.51c1.26,0.44,3.55,0.48,4.82,0.44c10.23-0.31,32.31-2.03,40.29-2.73c2.08-0.18,3.35,0.21,4.4,0.43"/>
				</g>
			</g>
		</g>
		<g id="kvg:0868c-g11">
			<path id="kvg:0868c-s10" d="M69.87,12.25c1.09,0.5,1.74,2.25,1.96,3.25c0.22,1,0,77.25-0.22,83.5"/>
		</g>
	</g>
</g>
</g>
<g id="kvg:StrokeNumbers_0868c">
	<text transform="matrix(1 0 0 1 7.50 44.50)">1</text>
	<text transform="matrix(1 0 0 1 14.66 35.85)">2</text>
	<text transform="matrix(1 0 0 1 20.71 54.50)">3</text>
	<text transform="matrix(1 0 0 1 16.50 18.50)">4</text>
	<text transform="matrix(1 0 0 1 4.50 87.50)">5</text>
	<text transform="matrix(1 0 0 1 39.50 64.50)">6</text>
	<text transform="matrix(1 0 0 1 48.50 23.50)">7</text>
	<text transform="matrix(1 0 0 1 50.50 43.50)">8</text>
	<text transform="matrix(1 0 0 1 48.50 64.50)">9</text>
	<text transform="matrix(1 0 0 1 57.50 11.50)">10</text>
</g>
</svg>
