<svg width="109" height="109" viewBox="0 0 109 109">
<g id="kvg:StrokePaths_086a3">
<g id="kvg:086a3">
	<g id="kvg:086a3-g1">
		<g id="kvg:086a3-g2">
			<g id="kvg:086a3-g3">
				<path id="kvg:086a3-s1" d="M12.26,36.4c0.46,0.51,1.02,1.4,1.12,2.06c0.87,5.79,2.87,13.79,4.12,22.43"/>
				<path id="kvg:086a3-s2" d="M14.72,38.48c6.93-0.97,20.61-2.83,25.63-3.2c1.96-0.14,2.86,1.38,2.62,2.83c-0.83,4.98-1.98,9.84-3.33,18.12"/>
				<path id="kvg:086a3-s3" d="M17.26,58.43c7.99-0.68,14.49-1.18,24.26-2.39"/>
			</g>
			<g id="kvg:086a3-g4">
				<path id="kvg:086a3-s4" d="M25.42,16.75c1.08,1,2.26,2.75,2.26,4.47c0,4.78-0.2,43.78-0.2,57.16"/>
			</g>
		</g>
		<path id="kvg:086a3-s5" d="M11.57,84.77c0.6,1.16,2.46,1.11,3.06,0.82c0.6-0.29,24.04-11.65,27.76-13.97"/>
		<path id="kvg:086a3-s6" d="M36.5,63c3.02,2.63,7.8,10.81,8.56,14.89"/>
	</g>
	<g id="kvg:086a3-g5">
		<g id="kvg:086a3-g6">
			<path id="kvg:086a3-s7" d="M62.16,22.72c0.24,0.87-0.01,1.89-0.33,2.94c-2.28,7.6-6.57,18.88-13.48,26.24"/>
			<path id="kvg:086a3-s8" d="M70.06,15.5c4.69,1.75,14.83,25.37,21.02,31.12c2.39,2.22,3.24,3.42,5.56,4.13"/>
		</g>
		<g id="kvg:086a3-g7">
			<path id="kvg:086a3-s9" d="M66.02,54.77c0.49,0.66,0.31,2.21-0.01,3.04c-4.25,10.94-6.75,16.69-13.55,30.04c-1.47,2.88-0.71,3.71,2.32,2.73c8.44-2.76,20.73-6.08,30.68-8.52"/>
			<path id="kvg:086a3-s10" d="M78.11,70.68C82.5,74.62,89.45,86.88,90.54,93"/>
		</g>
	</g>
</g>
</g>
<g id="kvg:StrokeNumbers_086a3">
	<text transform="matrix(1 0 0 1 6.50 44.50)">1</text>
	<text transform="matrix(1 0 0 1 15.50 34.50)">2</text>
	<text transform="matrix(1 0 0 1 19.50 54.50)">3</text>
	<text transform="matrix(1 0 0 1 15.54 17.50)">4</text>
	<text transform="matrix(1 0 0 1 3.72 87.50)">5</text>
	<text transform="matrix(1 0 0 1 40.50 65.50)">6</text>
	<text transform="matrix(1 0 0 1 53.50 20.50)">7</text>
	<text transform="matrix(1 0 0 1 66.50 12.50)">8</text>
	<text transform="matrix(1 0 0 1 58.50 54.50)">9</text>
	<text transform="matrix(1 0 0 1 76.50 68.50)">10</text>
</g>
</svg>
