<svg width="109" height="109" viewBox="0 0 109 109">
<g id="kvg:StrokePaths_086a4">
<g id="kvg:086a4">
	<g id="kvg:086a4-g1">
		<g id="kvg:086a4-g2">
			<path id="kvg:086a4-s1" d="M26.85,19.14c2.13,0.35,2.39,0.86,6.64,0.35c4.25-0.52,34.31-6,37.24-6.52c2.92-0.52,5.15,1.96,3.99,3.79C60,40,38.17,55.76,14.25,64.21"/>
			<path id="kvg:086a4-s2" d="M49.7,21.38c2.42,1.27,6.26,5.23,6.87,7.21"/>
		</g>
		<g id="kvg:086a4-g3">
			<path id="kvg:086a4-s3" d="M32.28,19.77c5.87,1.03,34.56,28.65,55,39.96c3.18,1.76,5.5,2.93,8.47,3.52"/>
		</g>
		<g id="kvg:086a4-g4">
			<path id="kvg:086a4-s4" d="M25.45,33.63c3.39,1.85,8.77,7.59,9.62,10.46"/>
		</g>
	</g>
	<g id="kvg:086a4-g5">
		<g id="kvg:086a4-g6">
			<g id="kvg:086a4-g7">
				<path id="kvg:086a4-s5" d="M34.06,62.98c0.64,0.38,1.09,1.31,1.21,1.8c0.86,3.59,1.75,8.33,2.96,15.14"/>
				<path id="kvg:086a4-s6" d="M35.74,64.43c9.69-0.72,29.9-2.79,36.92-3.07c2.73-0.11,2.86,1.15,2.59,2.75c-0.63,3.71-1.51,5.86-3.4,11.99"/>
				<path id="kvg:086a4-s7" d="M38.59,78.47c7.8-0.72,24.09-1.84,35-2.51"/>
			</g>
			<g id="kvg:086a4-g8">
				<path id="kvg:086a4-s8" d="M52.84,50.22c0.78,0.27,1.25,1.23,1.4,1.78c0.16,0.55,0,35.72-0.16,39.15"/>
			</g>
		</g>
		<path id="kvg:086a4-s9" d="M27.78,95.04c1.01,0.72,3.12,1.12,4.13,0.94c1.01-0.18,37.86-7.94,44.13-9.38"/>
		<path id="kvg:086a4-s10" d="M70.85,82.34c4.62,2.6,11.92,10.69,13.07,14.74"/>
	</g>
</g>
</g>
<g id="kvg:StrokeNumbers_086a4">
	<text transform="matrix(1 0 0 1 20.50 19.50)">1</text>
	<text transform="matrix(1 0 0 1 56.50 23.50)">2</text>
	<text transform="matrix(1 0 0 1 31.50 29.50)">3</text>
	<text transform="matrix(1 0 0 1 20.50 40.50)">4</text>
	<text transform="matrix(1 0 0 1 27.50 69.50)">5</text>
	<text transform="matrix(1 0 0 1 38.50 60.50)">6</text>
	<text transform="matrix(1 0 0 1 40.50 75.50)">7</text>
	<text transform="matrix(1 0 0 1 45.50 56.50)">8</text>
	<text transform="matrix(1 0 0 1 18.50 93.50)">9</text>
	<text transform="matrix(1 0 0 1 75.50 83.50)">10</text>
</g>
</svg>
