<svg width="109" height="109" viewBox="0 0 109 109">
<g id="kvg:StrokePaths_086fb">
<g id="kvg:086fb">
	<g id="kvg:086fb-g1">
		<g id="kvg:086fb-g2">
			<g id="kvg:086fb-g3">
				<path id="kvg:086fb-s1" d="M12.22,36.4c0.43,0.51,0.95,1.4,1.05,2.06c0.81,5.79,1.75,13.29,2.92,21.93"/>
				<path id="kvg:086fb-s2" d="M14.05,38.48c6.49-0.97,20.22-3.83,24.91-4.2c1.83-0.14,2.68,1.38,2.45,2.83c-0.78,4.98-1.85,10.84-3.12,19.12"/>
				<path id="kvg:086fb-s3" d="M16.42,58.43c6.08-0.68,15.83-1.68,23.61-2.39"/>
			</g>
			<g id="kvg:086fb-g4">
				<path id="kvg:086fb-s4" d="M25.53,16.75c1.01,1,2.12,2.75,2.12,4.47c0,4.78-0.18,43.78-0.18,57.16"/>
			</g>
		</g>
		<path id="kvg:086fb-s5" d="M11.57,85.77c0.56,1.16,2.3,1.11,2.86,0.82c0.56-0.29,22.96-12.65,26.44-14.97"/>
		<path id="kvg:086fb-s6" d="M35.83,63.75c2.99,3.03,7.73,12.44,8.47,17.14"/>
	</g>
	<g id="kvg:086fb-g5">
		<g id="kvg:086fb-g6">
			<g id="kvg:086fb-g7">
				<path id="kvg:086fb-s7" d="M60.45,18.21c0.04,0.43,0.08,1.12-0.07,1.74c-0.92,3.68-4.88,10.08-11.93,16.69"/>
			</g>
			<g id="kvg:086fb-g8">
				<path id="kvg:086fb-s8" d="M69.73,13c2.15,0.23,17.94,18.21,20.49,20.57c1.06,0.98,1.96,1.4,3.02,1.68"/>
			</g>
		</g>
		<g id="kvg:086fb-g9">
			<g id="kvg:086fb-g10">
				<path id="kvg:086fb-s9" d="M53.28,39.74c0.34,0.64,0.73,1.08,0.85,1.58c0.84,3.62,1.37,13.44,1.56,21"/>
				<path id="kvg:086fb-s10" d="M54.24,41.7c6.02-1.24,23.17-2.35,27.46-3.21c1.47-0.29,2.82,1.5,2.54,3.31c-0.71,4.59-2.44,11.24-3.41,17.17"/>
				<path id="kvg:086fb-s11" d="M56.35,60.69c4.45-0.38,19.84-1.1,25.99-1.73"/>
			</g>
			<g id="kvg:086fb-g11">
				<g id="kvg:086fb-g12">
					<path id="kvg:086fb-s12" d="M62.06,64.46c0.06,0.74,0.12,1.92-0.11,2.98C60.56,73.74,55.25,89,41.82,96"/>
				</g>
				<path id="kvg:086fb-s13" d="M72.5,62.25c0.54,0.66,0.85,1.82,0.88,3.64c0.08,5-0.26,11.76-0.26,17.96c0,10.6,1.16,11.7,11.22,11.7c11.66,0,11.83-2.04,11.83-9"/>
			</g>
		</g>
	</g>
</g>
</g>
<g id="kvg:StrokeNumbers_086fb">
	<text transform="matrix(1 0 0 1 5.50 43.50)">1</text>
	<text transform="matrix(1 0 0 1 14.66 34.50)">2</text>
	<text transform="matrix(1 0 0 1 18.50 54.50)">3</text>
	<text transform="matrix(1 0 0 1 15.54 17.50)">4</text>
	<text transform="matrix(1 0 0 1 3.72 87.50)">5</text>
	<text transform="matrix(1 0 0 1 39.50 65.50)">6</text>
	<text transform="matrix(1 0 0 1 51.50 17.50)">7</text>
	<text transform="matrix(1 0 0 1 74.50 14.50)">8</text>
	<text transform="matrix(1 0 0 1 47.50 47.50)">9</text>
	<text transform="matrix(1 0 0 1 56.50 37.50)">10</text>
	<text transform="matrix(1 0 0 1 57.50 57.50)">11</text>
	<text transform="matrix(1 0 0 1 50.50 71.50)">12</text>
	<text transform="matrix(1 0 0 1 63.50 78.50)">13</text>
</g>
</svg>
