<svg width="109" height="109" viewBox="0 0 109 109">
<g id="kvg:StrokePaths_08864">
<g id="kvg:08864">
	<path id="kvg:08864-s1" d="M45.25,7.5C51,9.62,57.4,13.04,62.33,16.75"/>
	<path id="kvg:08864-s2" d="M29.21,33.05c1.92,1.46,6.38,1.42,8.66,0.96c7.34-1.5,26.11-5.91,29.1-6.62c3.52-0.83,5.17,1.3,3.17,3.85C58.44,46.22,42.61,63.13,25.38,74.5"/>
	<path id="kvg:08864-s3" d="M53.25,54.11c0.94,0.94,1.27,2.02,1.27,3.89c0,5.46,0.03,21.66,0.05,32.5c0.01,3.81,0.01,6.96,0.01,8.75"/>
	<path id="kvg:08864-s4" d="M82.32,45.64c-0.2,1.11-0.54,2.09-1.25,2.86c-2.15,2.32-8.27,7.01-12.57,9.75"/>
	<path id="kvg:08864-s5" d="M57.83,55.37c14.42,7.25,21.67,12.88,27.5,21.88"/>
</g>
</g>
<g id="kvg:StrokeNumbers_08864">
	<text transform="matrix(1 0 0 1 37.00 8.88)">1</text>
	<text transform="matrix(1 0 0 1 19.88 33.30)">2</text>
	<text transform="matrix(1 0 0 1 47.25 68.23)">3</text>
	<text transform="matrix(1 0 0 1 72.88 43.00)">4</text>
	<text transform="matrix(1 0 0 1 59.62 66.88)">5</text>
</g>
</svg>
