<svg width="109" height="109" viewBox="0 0 109 109">
<g id="kvg:StrokePaths_0886b">
<g id="kvg:0886b">
	<g id="kvg:0886b-g1">
		<path id="kvg:0886b-s1" d="M24.83,14c3.07,2.53,6.37,6.32,9,10.75"/>
		<path id="kvg:0886b-s2" d="M15.7,36.36c0.94,0.39,2.41,1.55,3.96,1.11c1.9-0.54,16.87-4.83,19.19-5.49c2.33-0.66,4.58,0.83,3.26,2.85C34.36,46.65,23.9,60.02,12.5,69"/>
		<path id="kvg:0886b-s3" d="M30.5,52.11c0.12,0.29,1.65,1.53,1.77,3.39c0.57,8.93,0.06,38.2,0.06,41.25"/>
		<path id="kvg:0886b-s4" d="M44.75,46.39c0.2,0.85,0.4,1.08,0,1.7c-1.2,1.87-4.9,6.45-7.3,8.66"/>
		<path id="kvg:0886b-s5" d="M35.33,57.25c3.16,3,6.54,7.5,9.25,12.75"/>
	</g>
	<g id="kvg:0886b-g2">
		<g id="kvg:0886b-g3">
			<path id="kvg:0886b-s6" d="M82.8,13.5c0.06,0.53,0.24,1.45-0.13,2.15c-2.46,4.58-10.92,13.6-22.95,19.76"/>
		</g>
		<g id="kvg:0886b-g4">
			<path id="kvg:0886b-s7" d="M87.99,33.86c0.09,0.76,0.33,2.08-0.18,3.06c-3.53,6.68-16.77,21.13-32.37,29.25"/>
		</g>
		<g id="kvg:0886b-g5">
			<path id="kvg:0886b-s8" d="M92.79,59.5c0.11,0.84-0.07,2.75-0.72,3.87C87.75,70.75,74,84.25,53.32,95"/>
		</g>
	</g>
</g>
</g>
<g id="kvg:StrokeNumbers_0886b">
	<text transform="matrix(1 0 0 1 17.50 13.50)">1</text>
	<text transform="matrix(1 0 0 1 8.25 36.50)">2</text>
	<text transform="matrix(1 0 0 1 25.50 66.50)">3</text>
	<text transform="matrix(1 0 0 1 44.50 43.40)">4</text>
	<text transform="matrix(1 0 0 1 35.50 71.50)">5</text>
	<text transform="matrix(1 0 0 1 74.50 14.50)">6</text>
	<text transform="matrix(1 0 0 1 79.50 35.68)">7</text>
	<text transform="matrix(1 0 0 1 84.50 60.60)">8</text>
</g>
</svg>
