<svg width="109" height="109" viewBox="0 0 109 109">
<g id="kvg:StrokePaths_08863">
<g id="kvg:08863">
	<g id="kvg:08863-g1">
		<path id="kvg:08863-s1" d="M52.11,13.25c1.38,1.38,1.98,2.88,1.98,4.66c0,2.34-0.15,8.59-0.15,11.15"/>
		<path id="kvg:08863-s2" d="M13.25,33.11c3.25,0.64,5.81,0.6,8.88,0.32c15.74-1.42,41.74-4.55,58.12-5.85c2.9-0.23,6.38-0.33,9.5,0.33"/>
	</g>
	<g id="kvg:08863-g2">
		<path id="kvg:08863-s3" d="M46.72,33.89c0,1.11-0.14,2.25-0.68,3.39C42.56,44.65,30,59,13.81,69.72"/>
		<path id="kvg:08863-s4" d="M37.5,53.75c0.88,0.88,1.25,2.12,1.25,3.5c0,11.82,0.18,31.19,0.18,33.19c0,2.81,1.01,3.02,3.31,1.05c4.38-3.74,13.64-11.39,15.47-12.76"/>
		<path id="kvg:08863-s5" d="M77,38.89c0.25,1.11-0.04,1.96-0.75,2.86c-3.5,4.38-8,8.25-18.19,15.22"/>
		<path id="kvg:08863-s6" d="M46.25,50.75c3.73,0.63,25.49,21.06,36.59,28.66c3.29,2.25,6.3,4.07,10.16,5.34"/>
	</g>
</g>
</g>
<g id="kvg:StrokeNumbers_08863">
	<text transform="matrix(1 0 0 1 46.18 12.24)">1</text>
	<text transform="matrix(1 0 0 1 11.58 30.93)">2</text>
	<text transform="matrix(1 0 0 1 37.16 40.68)">3</text>
	<text transform="matrix(1 0 0 1 31.52 65.25)">4</text>
	<text transform="matrix(1 0 0 1 79.15 41.44)">5</text>
	<text transform="matrix(1 0 0 1 48.04 49.37)">6</text>
</g>
</svg>
