<svg width="109" height="109" viewBox="0 0 109 109">
<g id="kvg:StrokePaths_088a2">
<g id="kvg:088a2">
	<g id="kvg:088a2-g1">
		<path id="kvg:088a2-s1" d="M24.53,15.62c3.69,2.09,7.64,5.22,10.8,8.88"/>
		<path id="kvg:088a2-s2" d="M15.2,35.36c1.18,0.64,3.14,0.96,4.71,0.61c3.22-0.72,15.62-4.08,17.94-4.74c2.33-0.66,4.16,1.39,2.76,3.35C32.12,46.38,24.5,57.25,12.5,67.75"/>
		<path id="kvg:088a2-s3" d="M30.25,50.86c0.82,0.82,1.27,1.77,1.27,3.64c0,4.3,0.03,24.9,0.05,35.75c0,3.36,0.01,5.78,0.01,6.5"/>
		<path id="kvg:088a2-s4" d="M43.5,46.64c0.2,0.85-0.1,1.83-0.5,2.45c-1.2,1.87-2.98,4.33-5.38,6.54"/>
		<path id="kvg:088a2-s5" d="M34.25,57.12c3.01,2.68,6.24,6.69,8.83,11.37"/>
	</g>
	<g id="kvg:088a2-g2">
		<path id="kvg:088a2-s6" d="M62.27,26.5c0.1,0.93-0.01,1.84-0.52,2.62c-2.63,4-6.13,9-12.59,13.38"/>
		<path id="kvg:088a2-s7" d="M80.79,24.58c5.01,2.32,12.94,9.53,14.19,13.13"/>
		<g id="kvg:088a2-g3">
			<path id="kvg:088a2-s8" d="M54.58,44.9c1.82,0.94,3.68,0.97,5.66,0.76c7.42-0.79,17-2.06,24.89-3.11c1.78-0.24,3.13-0.26,4.85,0.2"/>
		</g>
		<g id="kvg:088a2-g4">
			<g id="kvg:088a2-g5">
				<path id="kvg:088a2-s9" d="M48.5,61.25c2.01,0.84,4.3,0.65,6.41,0.4c10.65-1.24,25.59-2.43,36.1-3.25c2.1-0.16,4.16-0.02,6.25,0.23"/>
			</g>
			<path id="kvg:088a2-s10" d="M70.12,13.25c1.13,1.13,1.46,2.62,1.46,4c0,0.83,0.02,48.46,0.03,70.25c0,4.95,0,8.57,0,10"/>
		</g>
	</g>
</g>
</g>
<g id="kvg:StrokeNumbers_088a2">
	<text transform="matrix(1 0 0 1 17.50 15.50)">1</text>
	<text transform="matrix(1 0 0 1 7.50 36.50)">2</text>
	<text transform="matrix(1 0 0 1 24.50 65.50)">3</text>
	<text transform="matrix(1 0 0 1 41.50 43.50)">4</text>
	<text transform="matrix(1 0 0 1 34.50 69.50)">5</text>
	<text transform="matrix(1 0 0 1 53.25 25.50)">6</text>
	<text transform="matrix(1 0 0 1 76.50 21.50)">7</text>
	<text transform="matrix(1 0 0 1 59.50 42.15)">8</text>
	<text transform="matrix(1 0 0 1 46.50 58.50)">9</text>
	<text transform="matrix(1 0 0 1 58.50 11.50)">10</text>
</g>
</svg>
