<svg width="109" height="109" viewBox="0 0 109 109">
<g id="kvg:StrokePaths_0890a">
<g id="kvg:0890a">
	<g id="kvg:0890a-g1">
		<path id="kvg:0890a-s1" d="M21.58,13c2.82,2.76,5.84,6.91,8.25,11.75"/>
		<path id="kvg:0890a-s2" d="M12.7,35.86c0.94,0.39,3.36,1.33,4.96,1.11c3.34-0.47,16.37-4.33,18.69-4.99c2.33-0.66,4.08,0.83,2.76,2.85C31.36,46.65,24.25,58,12,69"/>
		<path id="kvg:0890a-s3" d="M27,53.11c0.12,0.29,1.65,1.53,1.77,3.39c0.57,8.93,0.06,37.2,0.06,40.25"/>
		<path id="kvg:0890a-s4" d="M40.31,47.89c0.15,0.79,0.29,1,0,1.58c-0.88,1.73-3.6,5.99-5.36,8.04"/>
		<path id="kvg:0890a-s5" d="M31.83,58.5c3.16,2.35,6.54,5.88,9.25,10"/>
	</g>
	<g id="kvg:0890a-g2">
		<g id="kvg:0890a-g3">
			<path id="kvg:0890a-s6" d="M46.3,15.73c1.18,0.51,3.35,0.56,4.54,0.51c12.32-0.58,27.65-1.68,38.48-2.26c1.97-0.11,3.16,0.24,4.15,0.5"/>
			<path id="kvg:0890a-s7" d="M49.98,31.38c1.52,0.37,2.32,0.78,3.77,0.65C65,31,82.25,29.5,90.83,29.25c1.47-0.04,3.7,0.32,2.89,3c-1.22,4-2.15,6-3.44,10.75"/>
			<path id="kvg:0890a-s8" d="M51.61,45.25c6.06,0,29.6-1.25,40.24-1.75"/>
			<path id="kvg:0890a-s9" d="M51.16,32.18c0.3,1.13,0.67,1.95,0.52,3.88C49.5,62.5,45.75,74.5,35.75,89"/>
		</g>
		<g id="kvg:0890a-g4">
			<g id="kvg:0890a-g5">
				<path id="kvg:0890a-s10" d="M51.93,58.21c0.41,0.64,1.18,2.16,1.05,3.31c-0.14,1.15,1.1,31.05,1.1,32.97"/>
				<path id="kvg:0890a-s11" d="M53.34,58.99c5.19-0.51,36.85-3.38,37.88-3.56c2.18-0.38,3.18,2.35,3.18,3.03c0,6.78-0.65,25.53-1.48,29.83c-1.27,6.58-3.82,2.43-5.46,0.77"/>
			</g>
			<g id="kvg:0890a-g6">
				<g id="kvg:0890a-g7">
					<path id="kvg:0890a-s12" d="M53.62,73.56c5.93-0.4,27.35-2.26,40.31-2.52"/>
				</g>
				<g id="kvg:0890a-g8">
					<path id="kvg:0890a-s13" d="M65.08,58.5c0.77,0.27,1.22,1.2,1.38,1.73c0.15,0.53,0,29.33-0.15,32.66"/>
				</g>
				<g id="kvg:0890a-g9">
					<path id="kvg:0890a-s14" d="M78.54,57.57c0.77,0.27,1.22,1.2,1.38,1.73c0.15,0.53,0,29.63-0.15,32.96"/>
				</g>
			</g>
		</g>
	</g>
</g>
</g>
<g id="kvg:StrokeNumbers_0890a">
	<text transform="matrix(1 0 0 1 14.50 11.50)">1</text>
	<text transform="matrix(1 0 0 1 4.75 36.50)">2</text>
	<text transform="matrix(1 0 0 1 21.75 68.50)">3</text>
	<text transform="matrix(1 0 0 1 39.50 45.50)">4</text>
	<text transform="matrix(1 0 0 1 32.75 72.50)">5</text>
	<text transform="matrix(1 0 0 1 43.50 12.50)">6</text>
	<text transform="matrix(1 0 0 1 54.50 29.50)">7</text>
	<text transform="matrix(1 0 0 1 55.50 42.50)">8</text>
	<text transform="matrix(1 0 0 1 43.50 35.50)">9</text>
	<text transform="matrix(1 0 0 1 44.50 80.50)">10</text>
	<text transform="matrix(1 0 0 1 53.50 55.50)">11</text>
	<text transform="matrix(1 0 0 1 56.50 70.55)">12</text>
	<text transform="matrix(1 0 0 1 69.50 65.73)">13</text>
	<text transform="matrix(1 0 0 1 82.50 64.65)">14</text>
</g>
</svg>
