<svg width="109" height="109" viewBox="0 0 109 109">
<g id="kvg:StrokePaths_0897e">
<g id="kvg:0897e">
	<g id="kvg:0897e-g1">
		<path id="kvg:0897e-s1" d="M22.64,23.13c1.15,0.47,3.27,0.6,4.42,0.47c7.35-0.81,44.01-5.32,51.13-4.77c1.92,0.15,3.08,0.22,4.04,0.46"/>
		<path id="kvg:0897e-s2" d="M17,44.74c0.5,0.84,1.02,1.54,1.24,2.6c1.74,8.35,3.33,31.4,4.52,46.41"/>
		<path id="kvg:0897e-s3" d="M18.13,46.08c12.3-1.63,63.49-5.72,69.83-6.27c2.32-0.2,3.48,1.98,3.38,3.2c-0.59,7.24-2.59,36.99-4.5,49.94"/>
		<path id="kvg:0897e-s4" d="M39.26,25.38c1.34,0.61,2.37,2.74,2.41,3.99C42,39.5,43.25,64.25,44.15,75.98"/>
		<path id="kvg:0897e-s5" d="M63.41,23.08c1.34,0.61,1.9,2.81,1.89,5.64C65.25,40,65.5,55.75,65,73.25"/>
		<path id="kvg:0897e-s6" d="M44.25,74.59c6.75-1.09,11.5-2.09,21.17-3.46"/>
	</g>
</g>
</g>
<g id="kvg:StrokeNumbers_0897e">
	<text transform="matrix(1 0 0 1 15.75 22.13)">1</text>
	<text transform="matrix(1 0 0 1 10.50 51.30)">2</text>
	<text transform="matrix(1 0 0 1 22.00 41.97)">3</text>
	<text transform="matrix(1 0 0 1 34.00 33.65)">4</text>
	<text transform="matrix(1 0 0 1 57.00 30.57)">5</text>
	<text transform="matrix(1 0 0 1 47.50 71.00)">6</text>
</g>
</svg>
