<svg width="109" height="109" viewBox="0 0 109 109">
<g id="kvg:StrokePaths_08a00">
<g id="kvg:08a00">
	<path id="kvg:08a00-s1" d="M48.38,11.25c4.38,2.5,8.88,7.75,10.38,11.5"/>
	<path id="kvg:08a00-s2" d="M14.88,33.98c2.52,0.54,6.91,0.76,9.42,0.54c22.95-2.02,40.82-4.02,59.99-4.73c4.2-0.16,6.73,0.26,8.83,0.53"/>
	<path id="kvg:08a00-s3" d="M38.63,46.65C40,47,41,47,42.45,46.88c7.06-0.6,18.6-2.27,22.81-2.6c1.86-0.15,3.36-0.15,4.74,0.22"/>
	<path id="kvg:08a00-s4" d="M37.88,61.4c1.5,0.23,2.75,0.35,4.16,0.23c7.68-0.67,20.23-2.28,24.8-2.85c2.16-0.27,3.66-0.15,5.17,0.22"/>
	<g id="kvg:08a00-g1">
		<path id="kvg:08a00-s5" d="M37,74.75c0.81,0.81,1.4,1.76,1.53,2.77c0.85,6.73,1.9,11.43,2.89,18.45c0.18,1.24,0.35,2.43,0.54,3.53"/>
		<path id="kvg:08a00-s6" d="M39.53,76.74c9.24-1.7,22.59-3.37,30.29-4.25c2.21-0.25,3.55,1.17,3.24,2.32c-0.69,2.52-3.74,12.7-4.94,16.98"/>
		<path id="kvg:08a00-s7" d="M42.2,95.16c6.19-0.53,16.55-1.39,25.32-2.22c1.33-0.13,2.73-0.12,3.95-0.12"/>
	</g>
</g>
</g>
<g id="kvg:StrokeNumbers_08a00">
	<text transform="matrix(1 0 0 1 41.25 12.13)">1</text>
	<text transform="matrix(1 0 0 1 6.75 36.13)">2</text>
	<text transform="matrix(1 0 0 1 30.75 46.63)">3</text>
	<text transform="matrix(1 0 0 1 29.25 63.13)">4</text>
	<text transform="matrix(1 0 0 1 30.50 82.63)">5</text>
	<text transform="matrix(1 0 0 1 39.50 73.63)">6</text>
	<text transform="matrix(1 0 0 1 44.50 91.63)">7</text>
</g>
</svg>
