<svg width="109" height="109" viewBox="0 0 109 109">
<g id="kvg:StrokePaths_08c4c">
<g id="kvg:08c4c">
	<g id="kvg:08c4c-g1">
		<g id="kvg:08c4c-g2">
			<path id="kvg:08c4c-s1" d="M10.63,23.89c1.87,0.11,1.79,0.42,4.2,0.25c7.03-0.5,10.92-0.55,20.53-1.53c0.86-0.09,2.49,0.11,2.92,0.22"/>
		</g>
		<g id="kvg:08c4c-g3">
			<g id="kvg:08c4c-g4">
				<path id="kvg:08c4c-s2" d="M12.02,36.28c0.31,0.34,0.7,1.36,0.76,1.81c0.42,3.24,1.57,9.43,2.51,15.89"/>
				<path id="kvg:08c4c-s3" d="M13.21,37.6c4.7-0.65,20.62-3.34,23.83-3.44c1.33-0.04,2.22,0.85,1.92,2.74c-0.54,3.39-1.69,6.47-3.31,12.95"/>
				<path id="kvg:08c4c-s4" d="M15.54,52.32c4.54-0.59,16.71-1.71,21.51-1.81"/>
			</g>
			<path id="kvg:08c4c-s5" d="M13.53,59.96c1.84,2.94,4.76,13.43,5.22,18"/>
			<path id="kvg:08c4c-s6" d="M34.36,56.66c0.02,0.42,0.54,2.09,0.46,2.69c-0.43,3.57-5.33,15.15-8.84,21.18"/>
			<path id="kvg:08c4c-s7" d="M11.36,88.11c1.05,1.12,2.1,0.57,3.72-0.11c6.91-2.9,14.13-5.86,23.58-9.45"/>
		</g>
	</g>
	<g id="kvg:08c4c-g5">
		<g id="kvg:08c4c-g6">
			<path id="kvg:08c4c-s8" d="M67.83,12.5c0.87,0.33,2.12,1.98,2.1,2.95c-0.06,3.05-0.06,7.25-0.07,10.02"/>
			<g id="kvg:08c4c-g7">
				<path id="kvg:08c4c-s9" d="M49.83,25.99c0,3.23-2.87,12.1-4.17,14.25"/>
				<path id="kvg:08c4c-s10" d="M49.69,28.6c6.3-0.77,37.38-3.67,42.5-3.82c9.81-0.28,0.35,7.59-1.64,9.24"/>
			</g>
		</g>
		<g id="kvg:08c4c-g8">
			<g id="kvg:08c4c-g9">
				<path id="kvg:08c4c-s11" d="M57.37,35.42c0.17,0.48,0.62,1.92,0.32,2.84c-2,6.29-7.99,16.41-16.05,25.17"/>
				<path id="kvg:08c4c-s12" d="M56.31,48.2c0.22,0.04,1.17,0,1.81-0.12c2.09-0.39,6.28-2.37,8.92-2.56c2.19-0.16,2.75,0.98,2.11,3.19C65.5,61.25,54.5,82.75,40,93"/>
				<path id="kvg:08c4c-s13" d="M49.09,60.1c2.5,1.66,6.46,6.85,7.08,9.43"/>
			</g>
			<g id="kvg:08c4c-g10">
				<path id="kvg:08c4c-s14" d="M72.99,44.21c0.52,0.12,2.54,0.54,3.6,0.32c3.66-0.78,13.39-2.2,14.79-2.63c2.1-0.64,3.47,1.12,3.38,3.68c-0.14,4.35-1.02,15.92-2.8,24.89c-1.39,7-5.47,4.28-6.7,1.36"/>
				<path id="kvg:08c4c-s15" d="M75.64,45.17c0.56,1.52,0.53,2.31,0.53,4.65c0,13.97,0.24,22.1,0.24,29.2c0,12.72,2.33,14.72,11.28,14.72c9.55,0,11.2-1.2,11.2-11.65"/>
			</g>
		</g>
	</g>
</g>
</g>
<g id="kvg:StrokeNumbers_08c4c">
	<text transform="matrix(1 0 0 1 4.50 24.50)">1</text>
	<text transform="matrix(1 0 0 1 5.50 42.50)">2</text>
	<text transform="matrix(1 0 0 1 15.50 34.50)">3</text>
	<text transform="matrix(1 0 0 1 18.50 49.50)">4</text>
	<text transform="matrix(1 0 0 1 6.50 62.50)">5</text>
	<text transform="matrix(1 0 0 1 26.50 59.50)">6</text>
	<text transform="matrix(1 0 0 1 3.50 87.50)">7</text>
	<text transform="matrix(1 0 0 1 59.50 13.50)">8</text>
	<text transform="matrix(1 0 0 1 43.25 27.50)">9</text>
	<text transform="matrix(1 0 0 1 51.50 25.50)">10</text>
	<text transform="matrix(1 0 0 1 48.50 42.50)">11</text>
	<text transform="matrix(1 0 0 1 60.50 43.50)">12</text>
	<text transform="matrix(1 0 0 1 51.50 60.50)">13</text>
	<text transform="matrix(1 0 0 1 72.50 41.50)">14</text>
	<text transform="matrix(1 0 0 1 66.50 66.50)">15</text>
</g>
</svg>
