<svg width="109" height="109" viewBox="0 0 109 109">
<g id="kvg:StrokePaths_08c55">
<g id="kvg:08c55">
	<path id="kvg:08c55-s1" d="M20.13,20.54c1.26,0.49,3.57,0.6,4.84,0.49C34,20.25,69,16.5,83.21,16.29c2.1-0.03,3.36,0.23,4.42,0.48"/>
	<path id="kvg:08c55-s2" d="M56.65,18.18c0.1,0.55,0.21,1.41-0.2,2.2c-2.37,4.63-15.96,14.8-34.57,21.03"/>
	<path id="kvg:08c55-s3" d="M46.25,31.5c10,5.5,19.89,36.22,12.08,58.33c-3.33,9.42-9.64,1.12-10.89,0.06"/>
	<path id="kvg:08c55-s4" d="M49.25,38.25c0.09,0.67,0.18,1.73-0.17,2.69c-2.12,5.67-14.29,18.1-30.94,25.72"/>
	<path id="kvg:08c55-s5" d="M53.75,52.75c0.1,0.85,0.21,2.19-0.2,3.41C51.19,63.34,37.6,79.1,19,88.75"/>
	<path id="kvg:08c55-s6" d="M80.54,31c0.06,0.45,0.12,1.17-0.11,1.82c-1.38,3.84-9.32,12.27-20.17,17.43"/>
	<path id="kvg:08c55-s7" d="M59.25,52c4.52,4.56,24.33,26.15,29.25,30.64c1.66,1.52,3.09,2.17,4.75,2.61"/>
</g>
</g>
<g id="kvg:StrokeNumbers_08c55">
	<text transform="matrix(1 0 0 1 12.75 20.50)">1</text>
	<text transform="matrix(1 0 0 1 38.50 29.50)">2</text>
	<text transform="matrix(1 0 0 1 54.50 36.13)">3</text>
	<text transform="matrix(1 0 0 1 41.50 42.50)">4</text>
	<text transform="matrix(1 0 0 1 45.50 58.50)">5</text>
	<text transform="matrix(1 0 0 1 83.50 30.13)">6</text>
	<text transform="matrix(1 0 0 1 69.50 58.50)">7</text>
</g>
</svg>
