<svg width="109" height="109" viewBox="0 0 109 109">
<g id="kvg:StrokePaths_08ca0">
<g id="kvg:08ca0">
	<g id="kvg:08ca0-g1">
		<path id="kvg:08ca0-s1" d="M43.01,11.75c0.06,0.53,0.21,1.4-0.11,2.13C40.62,19,30.38,30.5,19.62,37.25"/>
		<path id="kvg:08ca0-s2" d="M42.75,18.38c1.38,0.12,3.12,0.02,4.51-0.14c5.54-0.63,14.33-1.64,16.43-2.25c2.94-0.86,4.69,1.39,2.81,3.76c-4.17,5.28-8,9.75-12.75,16.5"/>
	</g>
	<g id="kvg:08ca0-g2">
		<g id="kvg:08ca0-g3">
			<path id="kvg:08ca0-s3" d="M33.18,37.47c0.67,0.95,1.4,2.4,1.4,3.67c0,1.03,0.04,25.75,0.05,35.24c0,2.17,0,3.54,0,3.65"/>
			<path id="kvg:08ca0-s4" d="M35.45,39.11c6.15-0.76,27.6-2.91,34.68-3.71c4.62-0.52,5.87,0.85,5.87,5.48c0,5.23-0.09,20.35-0.11,32.88c0,1.47,0,2.91,0,4.29"/>
			<path id="kvg:08ca0-s5" d="M35.63,51.71c10.62-1.08,27.37-2.46,39.22-3.07"/>
			<path id="kvg:08ca0-s6" d="M35.69,63.84c9.56-0.96,28.18-2.34,38.96-2.9"/>
			<path id="kvg:08ca0-s7" d="M35.92,77c9.83-0.75,29.21-2.39,38.96-2.39"/>
		</g>
		<g id="kvg:08ca0-g4">
			<path id="kvg:08ca0-s8" d="M41.76,82.62c0.37,1.5-0.33,2.79-1.45,3.71c-3.4,2.77-12.91,8.64-19.7,11.92"/>
			<path id="kvg:08ca0-s9" d="M67.25,82.88c6.37,4.12,13.9,11.59,15.64,15.2"/>
		</g>
	</g>
</g>
</g>
<g id="kvg:StrokeNumbers_08ca0">
	<text transform="matrix(1 0 0 1 35.25 12.13)">1</text>
	<text transform="matrix(1 0 0 1 50.25 15.13)">2</text>
	<text transform="matrix(1 0 0 1 27.50 47.24)">3</text>
	<text transform="matrix(1 0 0 1 38.25 35.50)">4</text>
	<text transform="matrix(1 0 0 1 39.64 49.63)">5</text>
	<text transform="matrix(1 0 0 1 39.50 61.63)">6</text>
	<text transform="matrix(1 0 0 1 39.55 74.50)">7</text>
	<text transform="matrix(1 0 0 1 29.50 88.50)">8</text>
	<text transform="matrix(1 0 0 1 58.50 84.50)">9</text>
</g>
</svg>
