<svg width="109" height="109" viewBox="0 0 109 109">
<g id="kvg:StrokePaths_08caf">
<g id="kvg:08caf">
	<g id="kvg:08caf-g1">
		<g id="kvg:08caf-g2">
			<path id="kvg:08caf-s1" d="M17.59,22.01c0.76,0.76,1.14,2.14,1.14,3.59c0,1.17,0.01,29.78,0.01,40.9c0,2.58,0,4.22,0,4.36"/>
			<path id="kvg:08caf-s2" d="M19.58,23.71C23,23,36.75,19.96,38.62,19.74c1.56-0.18,2.78,1.01,2.65,2.35c-0.15,1.53-0.12,25.19-0.11,41.53c0,1.86,0,3.62,0,5.25"/>
			<path id="kvg:08caf-s3" d="M19.8,38.49C24,37.88,36.38,36,40.2,35.55"/>
			<path id="kvg:08caf-s4" d="M19.46,52.05c5.16-0.67,14.16-1.92,20.5-2.42"/>
			<path id="kvg:08caf-s5" d="M19.99,67.4c4.88-0.53,14.51-2.03,19.74-2.42"/>
		</g>
		<g id="kvg:08caf-g3">
			<path id="kvg:08caf-s6" d="M23.99,76.12c0.29,1.46,0.04,2.63-0.53,3.69c-1.74,3.22-7.1,11.13-10.58,14.93"/>
			<path id="kvg:08caf-s7" d="M35.5,75.38c3.63,3.84,7.92,10.81,8.91,14.17"/>
		</g>
	</g>
	<g id="kvg:08caf-g4">
		<g id="kvg:08caf-g5">
			<path id="kvg:08caf-s8" d="M68.94,11.88c1.09,1.09,1.64,2.4,1.63,3.8c-0.05,4.43-0.05,8.69-0.05,12.72"/>
			<g id="kvg:08caf-g6">
				<path id="kvg:08caf-s9" d="M51.12,29.5c0,3.28-1.9,13.34-2.56,15.56"/>
				<path id="kvg:08caf-s10" d="M52.08,32.65C63,30,83.5,27,89.3,26.55c10.18-0.78,2.2,6.82,0.11,9.24"/>
			</g>
		</g>
		<g id="kvg:08caf-g7">
			<g id="kvg:08caf-g8">
				<path id="kvg:08caf-s11" d="M52.19,52.59c1.41,0.44,4.02,0.4,5.42,0.19C68.12,51.12,80,49,89.51,48.26c2.35-0.18,3.77-0.04,4.95,0.18"/>
			</g>
			<g id="kvg:08caf-g9">
				<path id="kvg:08caf-s12" d="M73.72,53.36c0.96,0.96,1.34,2.26,1.34,3.92c0,13.21,0.03,29.97,0.03,34.18c0,9.41-6.34,1.91-8.47-0.06"/>
			</g>
		</g>
	</g>
</g>
</g>
<g id="kvg:StrokeNumbers_08caf">
	<text transform="matrix(1 0 0 1 12.25 30.63)">1</text>
	<text transform="matrix(1 0 0 1 20.50 20.00)">2</text>
	<text transform="matrix(1 0 0 1 23.25 34.93)">3</text>
	<text transform="matrix(1 0 0 1 23.25 48.50)">4</text>
	<text transform="matrix(1 0 0 1 23.25 63.50)">5</text>
	<text transform="matrix(1 0 0 1 15.50 80.50)">6</text>
	<text transform="matrix(1 0 0 1 29.50 76.50)">7</text>
	<text transform="matrix(1 0 0 1 61.50 13.50)">8</text>
	<text transform="matrix(1 0 0 1 46.50 28.00)">9</text>
	<text transform="matrix(1 0 0 1 53.50 28.50)">10</text>
	<text transform="matrix(1 0 0 1 52.50 49.50)">11</text>
	<text transform="matrix(1 0 0 1 63.50 62.50)">12</text>
</g>
</svg>
