<svg width="109" height="109" viewBox="0 0 109 109">
<g id="kvg:StrokePaths_08cb6">
<g id="kvg:08cb6">
	<g id="kvg:08cb6-g1">
		<g id="kvg:08cb6-g2">
			<path id="kvg:08cb6-s1" d="M17.1,23.68c0.33,1.17,0.83,2.04,0.83,3.6c0,1.56-0.36,40.97-0.22,46.11"/>
			<path id="kvg:08cb6-s2" d="M18.48,25.17c1.9-0.19,16.38-2.19,18.11-2.42c1.44-0.19,2.58,1.09,2.46,2.53c-0.15,1.83-0.14,33.97-0.5,45.67"/>
			<path id="kvg:08cb6-s3" d="M17.95,42.12c5.96-0.62,17.51-2.16,20.56-2.16"/>
			<path id="kvg:08cb6-s4" d="M18.11,55.45c7.26-0.95,12.29-0.95,20.26-1.84"/>
			<path id="kvg:08cb6-s5" d="M17.6,70.48c3.77,0,15.96-1.34,20.85-1.34"/>
		</g>
		<g id="kvg:08cb6-g3">
			<path id="kvg:08cb6-s6" d="M22.86,77.73c0.33,1.38,0.66,1.76,0,2.76c-1.98,3.04-9.22,12.41-13.18,16"/>
			<path id="kvg:08cb6-s7" d="M32.33,75.45c3.36,4.02,7.32,11.31,8.24,14.83"/>
		</g>
	</g>
	<g id="kvg:08cb6-g4">
		<g id="kvg:08cb6-g5">
			<path id="kvg:08cb6-s8" d="M84.01,14c0.09,0.41-0.59,1.75-1.18,2.14C75.5,21,65.89,24.66,48.6,29.29"/>
		</g>
		<g id="kvg:08cb6-g6">
			<g id="kvg:08cb6-g7">
				<path id="kvg:08cb6-s9" d="M66.88,30.83c0.73,0.92,1.31,1.99,1.31,5.02c0,3.15-0.02,4.19-0.02,9.15"/>
			</g>
			<path id="kvg:08cb6-s10" d="M50.1,48.5c0.75,0.45,1.87,1,3.18,0.7c5.23-1.19,30.08-7.29,32.01-7.7c3.49-0.75,4.23,2,1.87,4.75c-10.21,11.85-24.01,24-39.31,34.5"/>
			<path id="kvg:08cb6-s11" d="M46,80.97c2.5-0.22,5.01,0.19,8.01,0.94c3,0.75,21.01,5.55,24.04,6.25c6.95,1.6,9.95,2.35,16.7,3.06"/>
		</g>
	</g>
</g>
</g>
<g id="kvg:StrokeNumbers_08cb6">
	<text transform="matrix(1 0 0 1 10.50 31.50)">1</text>
	<text transform="matrix(1 0 0 1 18.50 21.50)">2</text>
	<text transform="matrix(1 0 0 1 22.33 38.50)">3</text>
	<text transform="matrix(1 0 0 1 22.50 52.50)">4</text>
	<text transform="matrix(1 0 0 1 22.37 67.50)">5</text>
	<text transform="matrix(1 0 0 1 14.50 81.50)">6</text>
	<text transform="matrix(1 0 0 1 28.50 84.50)">7</text>
	<text transform="matrix(1 0 0 1 74.25 13.50)">8</text>
	<text transform="matrix(1 0 0 1 58.50 34.50)">9</text>
	<text transform="matrix(1 0 0 1 45.50 45.50)">10</text>
	<text transform="matrix(1 0 0 1 42.25 77.88)">11</text>
</g>
</svg>
