<svg width="109" height="109" viewBox="0 0 109 109">
<g id="kvg:StrokePaths_08d64">
<g id="kvg:08d64">
	<g id="kvg:08d64-g1">
		<path id="kvg:08d64-s1" d="M30.13,29.42c2.55,0.64,5.18,0.48,7.76,0.15c9.53-1.23,23.14-3.87,31.61-4.52c2.51-0.19,4.9-0.13,7.38,0.25"/>
		<path id="kvg:08d64-s2" d="M52.24,12.45c1.53,1.53,2.01,3.55,2.01,5.05c0,3.33,0.04,25.2,0,26.25"/>
		<path id="kvg:08d64-s3" d="M14.38,49.17c2.64,0.58,4.98,0.91,10.12,0.13c18.5-2.8,40.29-6,58.24-7.47c3.33-0.27,6.79-0.66,10.13-0.3"/>
	</g>
	<g id="kvg:08d64-g2">
		<path id="kvg:08d64-s4" d="M42.78,49.89c0.97,1.23,1.22,3.09,1.2,4.53c-0.22,15.82,0.15,26.07-8.72,37.82"/>
		<path id="kvg:08d64-s5" d="M61.02,46.83c1.39,1.39,2.01,2.92,2.01,5.02c0,13.52-0.06,30.44-0.06,35.4c0,12.25-3.71,5.75-6.71,2.75"/>
		<path id="kvg:08d64-s6" d="M28.53,63.89c0.35,1.23,0.25,2.31-0.02,3.18c-1.63,5.43-4.42,9.93-9.26,15.93"/>
		<path id="kvg:08d64-s7" d="M78.77,63.83c3.86,3.92,9.11,12.92,10.98,19.17"/>
	</g>
</g>
</g>
<g id="kvg:StrokeNumbers_08d64">
	<text transform="matrix(1 0 0 1 23.50 29.50)">1</text>
	<text transform="matrix(1 0 0 1 42.50 12.50)">2</text>
	<text transform="matrix(1 0 0 1 7.50 49.50)">3</text>
	<text transform="matrix(1 0 0 1 35.50 57.50)">4</text>
	<text transform="matrix(1 0 0 1 54.50 55.50)">5</text>
	<text transform="matrix(1 0 0 1 19.50 64.50)">6</text>
	<text transform="matrix(1 0 0 1 75.50 59.50)">7</text>
</g>
</svg>
