<svg width="109" height="109" viewBox="0 0 109 109">
<g id="kvg:StrokePaths_08e10">
<g id="kvg:08e10">
	<g id="kvg:08e10-g1">
		<g id="kvg:08e10-g2">
			<path id="kvg:08e10-s1" d="M12.78,18.71c0.44,0.33,0.89,0.6,1.08,1.02c1.52,3.27,2.77,15.9,3.81,21.77"/>
			<path id="kvg:08e10-s2" d="M14.61,20.4c9.7-1.68,18.08-4,22.88-4.41c1.75-0.15,2.81,0.89,2.56,1.77c-1.16,4.06-2.38,13.35-3.8,18"/>
			<path id="kvg:08e10-s3" d="M17.56,38.19c5.09-0.46,14.15-1.84,21.14-2.55"/>
		</g>
		<path id="kvg:08e10-s4" d="M26.87,39.24c1.09,0.5,1.96,2.23,1.96,3.25c0,5.51,0.28,35.01,0.28,45"/>
		<path id="kvg:08e10-s5" d="M29.38,58.24c3.37-0.49,8.37-1.74,11.85-2c1.74-0.13,2.18-0.25,3.26,0"/>
		<path id="kvg:08e10-s6" d="M14.87,60.49c1.09,0.5,1.74,2.25,1.96,3.25c0.22,1,0.42,18.01,0.42,29.76"/>
		<path id="kvg:08e10-s7" d="M12,94.07c0.34,0.8,2.87,1.85,3.7,1.4C23.91,91,33.94,84.5,43,79.49"/>
	</g>
	<g id="kvg:08e10-g3">
		<g id="kvg:08e10-g4">
			<g id="kvg:08e10-g5">
				<path id="kvg:08e10-s8" d="M48.22,25.22c0.87,0.66,2.99,0.83,3.85,0.66C60.75,24.25,76,21,83.8,18.95c1.42-0.37,2.83-0.18,3.56,0.15"/>
				<path id="kvg:08e10-s9" d="M58.81,11.5c1.32,0.76,1.92,1.86,2.2,3.5c2.3,13.74,11.19,27.66,27.31,32.79c5.17,1.65,5.09-0.28,3.78-5.7"/>
			</g>
			<g id="kvg:08e10-g6">
				<path id="kvg:08e10-s10" d="M80.43,25.7c-0.18,0.67-0.36,1.35-0.78,1.97C75.93,32.99,67,41.75,50.57,46.95"/>
			</g>
			<g id="kvg:08e10-g7">
				<g id="kvg:08e10-g8">
					<path id="kvg:08e10-s11" d="M69.92,10.93c2.6,1,6.77,3.29,7.99,5"/>
				</g>
			</g>
		</g>
		<g id="kvg:08e10-g9">
			<g id="kvg:08e10-g10">
				<path id="kvg:08e10-s12" d="M47.77,61.13c0.96,0.44,3.73,0.6,4.69,0.44c11.29-1.82,28.04-4.32,35.68-5.93c1.57-0.33,2.57-0.29,3.37-0.07"/>
				<path id="kvg:08e10-s13" d="M60.26,47.67c1.43,0.94,2.04,1.67,2.34,3.69c2.5,16.98,10.65,33.88,26.7,42.88c5.21,2.92,5.95,1.25,4.6-6.77"/>
			</g>
			<g id="kvg:08e10-g11">
				<path id="kvg:08e10-s14" d="M82.15,62.28c0.1,0.74-0.15,1.96-0.71,2.95c-3.69,6.52-16.36,20.55-36.39,28.9"/>
			</g>
			<g id="kvg:08e10-g12">
				<g id="kvg:08e10-g13">
					<path id="kvg:08e10-s15" d="M69.92,45.87c2.6,1.25,6.77,4.11,7.99,6.25"/>
				</g>
			</g>
		</g>
	</g>
</g>
</g>
<g id="kvg:StrokeNumbers_08e10">
	<text transform="matrix(1 0 0 1 8.50 27.50)">1</text>
	<text transform="matrix(1 0 0 1 16.50 16.50)">2</text>
	<text transform="matrix(1 0 0 1 21.50 34.50)">3</text>
	<text transform="matrix(1 0 0 1 21.50 47.50)">4</text>
	<text transform="matrix(1 0 0 1 32.50 54.50)">5</text>
	<text transform="matrix(1 0 0 1 6.50 60.50)">6</text>
	<text transform="matrix(1 0 0 1 4.50 95.50)">7</text>
	<text transform="matrix(1 0 0 1 46.25 22.10)">8</text>
	<text transform="matrix(1 0 0 1 50.25 11.50)">9</text>
	<text transform="matrix(1 0 0 1 83.50 28.50)">10</text>
	<text transform="matrix(1 0 0 1 65.50 8.88)">11</text>
	<text transform="matrix(1 0 0 1 46.50 58.73)">12</text>
	<text transform="matrix(1 0 0 1 52.25 52.50)">13</text>
	<text transform="matrix(1 0 0 1 86.50 64.50)">14</text>
	<text transform="matrix(1 0 0 1 67.50 54.50)">15</text>
</g>
</svg>
