<svg width="109" height="109" viewBox="0 0 109 109">
<g id="kvg:StrokePaths_08e35">
<g id="kvg:08e35">
	<g id="kvg:08e35-g1">
		<g id="kvg:08e35-g2">
			<path id="kvg:08e35-s1" d="M12.78,21.21c0.35,0.34,0.7,0.62,0.86,1.05c1.21,3.38,2.21,16.42,3.03,22.49"/>
			<path id="kvg:08e35-s2" d="M14.61,22.9c9.14-1.4,16.79-2.5,21.13-2.91c1.58-0.15,2.54,0.89,2.31,1.77c-1.04,4.06-2.55,11.99-3.93,18"/>
			<path id="kvg:08e35-s3" d="M16.56,42.69c5.09-0.46,13.15-1.34,20.14-2.05"/>
		</g>
		<path id="kvg:08e35-s4" d="M25.37,44.24c1.09,0.5,1.96,2.23,1.96,3.25c0,5.51,0.28,28.01,0.28,38"/>
		<path id="kvg:08e35-s5" d="M27.88,60.74c3.37-0.49,5.87-1.24,9.35-1.5c1.74-0.13,2.18-0.25,3.26,0"/>
		<path id="kvg:08e35-s6" d="M14.87,55.99c1.09,0.5,1.74,2.25,1.96,3.25c0.22,1,0.42,20.01,0.42,31.76"/>
		<path id="kvg:08e35-s7" d="M11.5,91.57c0.34,0.8,3.39,1.38,4.2,0.9C25,87,28.75,85,40,77.99"/>
	</g>
	<g id="kvg:08e35-g3">
		<g id="kvg:08e35-g4">
			<g id="kvg:08e35-g5">
				<path id="kvg:08e35-s8" d="M82.06,13.05c0.09,0.35-0.69,2.17-1.19,2.52c-3.81,2.73-13.48,7.1-30.35,10.46"/>
			</g>
			<g id="kvg:08e35-g6">
				<path id="kvg:08e35-s9" d="M44.42,35.24c1.34,0.36,3.82,0.55,5.15,0.43c10.26-0.93,30.58-3.43,41.48-4.11c2.24-0.14,3.58,0.23,4.7,0.42"/>
			</g>
		</g>
		<g id="kvg:08e35-g7">
			<path id="kvg:08e35-s10" d="M49.85,45.06c0.28,0.43,0.29,0.72,0.45,1.25c1.27,4.39,2.44,13.92,3.21,22.04"/>
			<path id="kvg:08e35-s11" d="M50.68,46.2c10-0.76,28.78-2.87,36.23-3.73c1.84-0.21,3.64,1.49,3.5,2.68c-0.53,4.36-1.9,13.6-3.88,20.48"/>
			<path id="kvg:08e35-s12" d="M52.64,55.46c3.26-0.32,31.86-2.49,34.55-2.57"/>
			<path id="kvg:08e35-s13" d="M53.66,66.65c10.63-1.4,21.94-1.69,31.88-2.11"/>
			<g id="kvg:08e35-g8">
				<g id="kvg:08e35-g9">
					<path id="kvg:08e35-s14" d="M67.65,22.86c0.94,0.54,1.5,2.33,1.68,3.34c0.18,1.02-0.23,58.95-0.44,65.26"/>
				</g>
			</g>
			<path id="kvg:08e35-s15" d="M50.77,79.13c0.86,0.35,2.45,0.46,3.32,0.42C64.75,79,76.1,77.5,86.26,76.79c1.44-0.1,2.31-0.28,3.03-0.1"/>
			<path id="kvg:08e35-s16" d="M42.48,92.87c1.42,0.5,4.04,0.69,5.46,0.61c16.87-0.97,26.75-2.72,45.22-2.92c2.38-0.02,3.8,0.32,4.99,0.58"/>
		</g>
	</g>
</g>
</g>
<g id="kvg:StrokeNumbers_08e35">
	<text transform="matrix(1 0 0 1 7.50 28.50)">1</text>
	<text transform="matrix(1 0 0 1 16.50 19.85)">2</text>
	<text transform="matrix(1 0 0 1 19.50 39.50)">3</text>
	<text transform="matrix(1 0 0 1 20.50 51.50)">4</text>
	<text transform="matrix(1 0 0 1 29.50 57.50)">5</text>
	<text transform="matrix(1 0 0 1 6.50 55.50)">6</text>
	<text transform="matrix(1 0 0 1 4.50 93.50)">7</text>
	<text transform="matrix(1 0 0 1 73.50 12.50)">8</text>
	<text transform="matrix(1 0 0 1 42.50 32.50)">9</text>
	<text transform="matrix(1 0 0 1 40.50 51.50)">10</text>
	<text transform="matrix(1 0 0 1 52.50 43.50)">11</text>
	<text transform="matrix(1 0 0 1 55.50 52.80)">12</text>
	<text transform="matrix(1 0 0 1 56.50 63.50)">13</text>
	<text transform="matrix(1 0 0 1 59.50 30.50)">14</text>
	<text transform="matrix(1 0 0 1 47.50 76.50)">15</text>
	<text transform="matrix(1 0 0 1 39.50 90.50)">16</text>
</g>
</svg>
