<svg width="109" height="109" viewBox="0 0 109 109">
<g id="kvg:StrokePaths_08e59">
<g id="kvg:08e59">
	<g id="kvg:08e59-g1">
		<g id="kvg:08e59-g2">
			<path id="kvg:08e59-s1" d="M25.01,24.71c0.03,0.94-0.03,2.43-0.06,3.79c-0.27,12.66-3.58,30.9-10.64,36.79"/>
		</g>
		<g id="kvg:08e59-g3">
			<g id="kvg:08e59-g4">
				<g id="kvg:08e59-g5">
					<path id="kvg:08e59-s2" d="M22.25,23.45c1.59,0.39,4.51,0.5,6.1,0.39c10.66-0.72,38.14-3.94,55.09-4.3c2.65-0.06,4.24,0.19,5.56,0.39"/>
				</g>
			</g>
		</g>
		<g id="kvg:08e59-g6">
			<g id="kvg:08e59-g7">
				<path id="kvg:08e59-s3" d="M38.5,26.5c0.57,0.21,1.89,1.57,1.89,2.45c0,0.43-0.07,7.29-0.19,9.86"/>
				<path id="kvg:08e59-s4" d="M40.66,31.96c1.6-0.08,9.88-1.98,10.75-1.98c0.87,0,2.05,0,2.77,0.08"/>
			</g>
			<g id="kvg:08e59-g8">
				<path id="kvg:08e59-s5" d="M28.9,39.47c0.52,0.11,2.46,0.47,2.98,0.46C36.5,39.82,47,38.07,52.05,37.1c0.84-0.16,2.7,0,3.8,0.46"/>
			</g>
		</g>
		<g id="kvg:08e59-g9">
			<path id="kvg:08e59-s6" d="M40.5,40.96c0.06,0.21,0.76,1.11,0.81,2.47c0.26,6.51-0.17,9.41-0.17,11.63c0,5.04-3.65-0.33-4.62-0.89"/>
			<path id="kvg:08e59-s7" d="M33.83,45.86c0.03,0.29,0.06,0.76-0.06,1.18c-0.69,2.48-4.62,7.94-10,11.27"/>
			<path id="kvg:08e59-s8" d="M47.2,44.54c2.39,1.33,6.18,5.46,6.78,7.53"/>
		</g>
		<g id="kvg:08e59-g10">
			<g id="kvg:08e59-g11">
				<path id="kvg:08e59-s9" d="M57.75,8.57c1.54,1.02,2.24,1.3,2.5,3.5c1.97,17.23,12.01,36.02,30.09,42.84c5.97,2.25,5.1,0.81,4.33-3.71"/>
			</g>
			<g id="kvg:08e59-g12">
				<path id="kvg:08e59-s10" d="M81.01,26.01c0.06,0.65,0.27,1.7-0.13,2.6c-3.43,7.69-9.66,18.34-22.57,25.61"/>
			</g>
			<g id="kvg:08e59-g13">
				<g id="kvg:08e59-g14">
					<path id="kvg:08e59-s11" d="M69.5,9.24c3.67,1.11,9.54,3.63,11.25,5.53"/>
				</g>
			</g>
		</g>
	</g>
	<g id="kvg:08e59-g15">
		<g id="kvg:08e59-g16">
			<path id="kvg:08e59-s12" d="M31.26,61.65c0.32,0.26,0.69,1,0.8,1.33c0.89,2.81,1.49,6.56,2.56,11.21"/>
			<path id="kvg:08e59-s13" d="M32.53,63.29c5.63-0.85,40.17-3.92,43.55-3.99c1.4-0.03,1.92,1.12,1.79,1.81c-0.49,2.51-1.22,4.72-2.18,8.04"/>
			<path id="kvg:08e59-s14" d="M34.38,72.54c3.96-0.23,34.87-2.97,43.07-3.27"/>
		</g>
		<path id="kvg:08e59-s15" d="M53.39,74.2c0.47,0.26,1.57,1.43,1.57,1.97c0,3.61,0.43,11.4,0.33,14.7"/>
		<path id="kvg:08e59-s16" d="M55.38,82.09C56.73,82.09,68.26,80.57,76.41,79.56C78.16,79.34,79.83,79.38,81.21,79.38"/>
		<path id="kvg:08e59-s17" d="M39.15,78.3c0.1,0.55,0.25,1.44-0.2,2.21c-4.13,7.17-7.25,12.25-17.36,19.32"/>
		<path id="kvg:08e59-s18" d="M36.17,85.62c3.9,0.12,24.83,7.94,45.43,13.45c2.71,0.72,6.37,0.55,9.06,0.74"/>
	</g>
</g>
</g>
<g id="kvg:StrokeNumbers_08e59">
	<text transform="matrix(1 0 0 1 18.50 31.82)">1</text>
	<text transform="matrix(1 0 0 1 22.50 20.82)">2</text>
	<text transform="matrix(1 0 0 1 33.50 30.82)">3</text>
	<text transform="matrix(1 0 0 1 43.50 28.82)">4</text>
	<text transform="matrix(1 0 0 1 28.25 36.82)">5</text>
	<text transform="matrix(1 0 0 1 35.50 46.82)">6</text>
	<text transform="matrix(1 0 0 1 28.50 48.00)">7</text>
	<text transform="matrix(1 0 0 1 50.50 44.82)">8</text>
	<text transform="matrix(1 0 0 1 53.25 7.85)">9</text>
	<text transform="matrix(1 0 0 1 70.25 29.77)">10</text>
	<text transform="matrix(1 0 0 1 66.25 6.70)">11</text>
	<text transform="matrix(1 0 0 1 23.50 68.82)">12</text>
	<text transform="matrix(1 0 0 1 43.50 59.82)">13</text>
	<text transform="matrix(1 0 0 1 37.50 69.47)">14</text>
	<text transform="matrix(1 0 0 1 45.25 79.82)">15</text>
	<text transform="matrix(1 0 0 1 58.50 78.82)">16</text>
	<text transform="matrix(1 0 0 1 28.50 83.25)">17</text>
	<text transform="matrix(1 0 0 1 42.50 85.82)">18</text>
</g>
</svg>
