<svg width="109" height="109" viewBox="0 0 109 109">
<g id="kvg:StrokePaths_08f9f">
<g id="kvg:08f9f">
	<g id="kvg:08f9f-g1">
		<g id="kvg:08f9f-g2">
			<path id="kvg:08f9f-s1" d="M17.09,19.23c1.29,0.52,3.8,0.99,5.17,0.88c7.4-0.58,19.54-2.25,22.51-2.46c1.47-0.1,2.81,1.33,2.5,2.85c-0.77,3.74-1.77,11.76-2.97,20.07"/>
			<path id="kvg:08f9f-s2" d="M22.29,42.44c3.71-0.17,14.96-0.94,24.52-1.67"/>
			<g id="kvg:08f9f-g3">
				<path id="kvg:08f9f-s3" d="M23.12,21.29c0,2.59-0.31,7.33-0.34,9.76c-0.22,17.52-4.9,39.78-15.23,51.01"/>
			</g>
		</g>
		<g id="kvg:08f9f-g4">
			<path id="kvg:08f9f-s4" d="M22.2,59.1c0.18,0.86,0.78,2.78,0.85,3.44c0.45,4.74,1.84,15.72,2.47,24.71"/>
			<path id="kvg:08f9f-s5" d="M23.11,60.48c5.03-0.95,19.54-2.62,22.98-2.77c1.42-0.06,1.95,2,1.76,3.41c-0.77,5.62-2.69,13.27-3.45,20.45"/>
			<path id="kvg:08f9f-s6" d="M25.78,84.2c4.16-0.4,15.85-1.41,20.85-1.92"/>
		</g>
	</g>
	<g id="kvg:08f9f-g5">
		<g id="kvg:08f9f-g6">
			<g id="kvg:08f9f-g7">
				<path id="kvg:08f9f-s7" d="M71.03,10c1.44,1.33,2.16,1.33,2.16,4.43c0,3.1,0,5.75,0,9.82"/>
				<path id="kvg:08f9f-s8" d="M54.55,25.24c1.18,0.33,2.57,0.38,3.75,0.33c6.68-0.29,23.16-2.11,33.26-2.35c1.97-0.05,3.16,0.16,4.14,0.33"/>
			</g>
			<g id="kvg:08f9f-g8">
				<path id="kvg:08f9f-s9" d="M59.96,32.35c3.61,5.4,5.25,10.92,5.58,14.48"/>
				<path id="kvg:08f9f-s10" d="M85.79,28.26c0.72,0.61,0.81,2.04,0.72,2.55c-0.58,3.46-5.45,13.34-6.9,15.99"/>
				<path id="kvg:08f9f-s11" d="M51.54,50.73c1.48,0.4,3.23,0.55,4.7,0.4c16.16-1.72,20.32-2.29,39.04-3.11c2.47-0.11,3.96,0.19,5.19,0.39"/>
			</g>
		</g>
		<g id="kvg:08f9f-g9">
			<path id="kvg:08f9f-s12" d="M55.38,68.32c1.11,0.4,3.16,0.5,4.27,0.4c14.15-1.29,19.23-1.74,32.35-2.57c1.85-0.12,2.97,0.19,3.9,0.39"/>
			<path id="kvg:08f9f-s13" d="M71.69,52.02c0.62,0.49,1.93,3.69,2.05,4.67c0.71,5.65-0.18,40.24-0.21,41.69"/>
		</g>
	</g>
</g>
</g>
<g id="kvg:StrokeNumbers_08f9f">
	<text transform="matrix(1 0 0 1 20.50 16.50)">1</text>
	<text transform="matrix(1 0 0 1 27.50 38.50)">2</text>
	<text transform="matrix(1 0 0 1 15.50 29.48)">3</text>
	<text transform="matrix(1 0 0 1 17.50 75.40)">4</text>
	<text transform="matrix(1 0 0 1 25.50 56.50)">5</text>
	<text transform="matrix(1 0 0 1 29.50 80.50)">6</text>
	<text transform="matrix(1 0 0 1 61.50 10.50)">7</text>
	<text transform="matrix(1 0 0 1 53.50 22.50)">8</text>
	<text transform="matrix(1 0 0 1 53.50 35.50)">9</text>
	<text transform="matrix(1 0 0 1 74.50 33.50)">10</text>
	<text transform="matrix(1 0 0 1 49.50 47.88)">11</text>
	<text transform="matrix(1 0 0 1 52.50 65.50)">12</text>
	<text transform="matrix(1 0 0 1 62.50 59.50)">13</text>
</g>
</svg>
