<svg width="109" height="109" viewBox="0 0 109 109">
<g id="kvg:StrokePaths_08f9c">
<g id="kvg:08f9c">
	<g id="kvg:08f9c-g1">
		<g id="kvg:08f9c-g2">
			<path id="kvg:08f9c-s1" d="M21.55,18.24c0.93,0.33,3.44,0.69,5.92,0.5c14.26-1.06,39.69-4.14,54.35-4.14c2.5,0,4.62,0.17,6.18,0.5"/>
			<path id="kvg:08f9c-s2" d="M51.15,7c1.43,0.66,2.58,2.93,2.58,4.28c0,3.72-0.29,12.47-0.29,14.83"/>
		</g>
		<g id="kvg:08f9c-g3">
			<path id="kvg:08f9c-s3" d="M32.04,26.89c0.25,0.8,0.5,1.37,0.63,1.97c0.83,3.89,2.08,8.14,2.4,10.89"/>
			<path id="kvg:08f9c-s4" d="M33.31,28.69c7.02-0.89,34.48-4.17,39.27-4.31c1.98-0.06,3.29,1.31,2.88,2.62c-0.71,2.26-2.46,5.51-3,7.68"/>
			<path id="kvg:08f9c-s5" d="M35.44,38.47c5.81-0.38,32.67-2.65,39.65-3.13"/>
		</g>
	</g>
	<g id="kvg:08f9c-g4">
		<g id="kvg:08f9c-g5">
			<g id="kvg:08f9c-g6">
				<path id="kvg:08f9c-s6" d="M51.54,38.09c1.5,0.99,2.25,0.99,2.25,3.31c0,2.32,0,3.3,0,6.34"/>
				<path id="kvg:08f9c-s7" d="M24.46,49.91c1.5,0.44,3.25,0.51,4.74,0.44c8.44-0.38,38.26-3.77,51.02-4.09c2.49-0.06,3.99,0.21,5.23,0.43"/>
			</g>
			<g id="kvg:08f9c-g7">
				<path id="kvg:08f9c-s8" d="M36.67,53.77c3.4,2.92,4.94,5.91,5.25,7.83"/>
				<path id="kvg:08f9c-s9" d="M68.88,50.79c0.13,0.79,0.15,1.6,0.03,1.9c-1.16,2.81-4.21,7.13-5.48,8.64"/>
				<path id="kvg:08f9c-s10" d="M16.47,65.83c2.07,0.54,4.49,0.73,6.55,0.54c14.72-1.37,48.5-3.89,63.94-4.2c3.45-0.07,5.52,0.26,7.24,0.53"/>
			</g>
		</g>
		<g id="kvg:08f9c-g8">
			<path id="kvg:08f9c-s11" d="M24.33,79.64c1.56,0.35,4.42,0.44,5.98,0.35c19.81-1.15,31.94-2.83,50.31-3.57c2.59-0.1,4.16,0.17,5.45,0.34"/>
			<path id="kvg:08f9c-s12" d="M52.25,65.6c0.44,0.3,1.37,2.26,1.46,2.87c0.51,3.46-0.12,32.18-0.15,33.08"/>
		</g>
	</g>
</g>
</g>
<g id="kvg:StrokeNumbers_08f9c">
	<text transform="matrix(1 0 0 1 15.25 17.50)">1</text>
	<text transform="matrix(1 0 0 1 42.50 7.50)">2</text>
	<text transform="matrix(1 0 0 1 25.50 34.50)">3</text>
	<text transform="matrix(1 0 0 1 35.50 25.50)">4</text>
	<text transform="matrix(1 0 0 1 39.50 35.50)">5</text>
	<text transform="matrix(1 0 0 1 46.50 44.50)">6</text>
	<text transform="matrix(1 0 0 1 18.50 50.50)">7</text>
	<text transform="matrix(1 0 0 1 31.50 58.50)">8</text>
	<text transform="matrix(1 0 0 1 60.50 55.50)">9</text>
	<text transform="matrix(1 0 0 1 5.50 66.50)">10</text>
	<text transform="matrix(1 0 0 1 15.50 81.38)">11</text>
	<text transform="matrix(1 0 0 1 43.25 72.50)">12</text>
</g>
</svg>
