<svg width="109" height="109" viewBox="0 0 109 109">
<g id="kvg:StrokePaths_08fc5">
<g id="kvg:08fc5">
	<g id="kvg:08fc5-g1">
		<g id="kvg:08fc5-g2">
			<path id="kvg:08fc5-s1" d="M44,22.07c2.25,0.77,4.32,0.67,6.6,0.23c11.53-2.18,15.65-3.43,21.67-4.49c4.21-0.74,5.31,0.04,4.4,4.32c-4.15,19.43-3.44,39.05,11.98,51.95c6.7,5.6,4.9,1.98,5.11-3.56"/>
		</g>
		<g id="kvg:08fc5-g3">
			<path id="kvg:08fc5-s2" d="M40.25,49.3c2.25,0.57,4.44,0.35,6.26,0.12C51.15,48.84,57,47.6,63.4,46.68c1.34-0.19,2.35-0.43,3.6-0.17"/>
			<path id="kvg:08fc5-s3" d="M53.56,32.5c0.91,0.91,1.12,2,1.12,3.5c0,6.53,0.04,26.17,0.05,36.5c0.01,3.4,0.01,5.79,0.01,6.38"/>
		</g>
	</g>
	<g id="kvg:08fc5-g4">
		<path id="kvg:08fc5-s4" d="M20.96,19.25c3.63,1.74,9.38,7.17,10.29,9.88"/>
		<path id="kvg:08fc5-s5" d="M13,50.75c2.25,1,4.27,0.33,5.25,0c4.5-1.5,8.56-3.1,10-3.75c2.5-1.12,4,0.38,2.75,2.75c-7.34,13.95-7.25,8.5,0.25,19.25c0.96,1.38,0.75,2.75-0.75,4s-5.5,5-9.25,7.75"/>
		<path id="kvg:08fc5-s6" d="M15.25,83.25c3-0.5,11.19-0.94,15.75-0.25c6.62,1,27.82,6.96,32.25,8.25c12,3.5,15.75,4.25,26,5"/>
	</g>
</g>
</g>
<g id="kvg:StrokeNumbers_08fc5">
	<text transform="matrix(1 0 0 1 41.50 19.50)">1</text>
	<text transform="matrix(1 0 0 1 39.75 46.55)">2</text>
	<text transform="matrix(1 0 0 1 44.25 34.63)">3</text>
	<text transform="matrix(1 0 0 1 12.50 18.50)">4</text>
	<text transform="matrix(1 0 0 1 5.50 50.50)">5</text>
	<text transform="matrix(1 0 0 1 8.25 83.98)">6</text>
</g>
</svg>
