<svg width="109" height="109" viewBox="0 0 109 109">
<g id="kvg:StrokePaths_08fd1">
<g id="kvg:08fd1">
	<g id="kvg:08fd1-g1">
		<path id="kvg:08fd1-s1" d="M77.75,13.25c-0.25,1.5-1.74,2.71-2.86,3.4C70.25,19.5,62.5,23,51.81,26.72"/>
		<path id="kvg:08fd1-s2" d="M48.54,25.5c0.96,1.25,1.45,2.93,1.45,4.56c0,18.44,0.14,31.94-9.18,44.15"/>
		<path id="kvg:08fd1-s3" d="M52.75,40.9c0.58,0.12,3.06,0.31,4.6,0.12C65.62,40,78.72,37.99,87.9,37.2c1.54-0.13,4.25-0.12,5.22,0"/>
		<path id="kvg:08fd1-s4" d="M72.87,41.75c1.19,1.19,1.71,2.38,1.71,3.75c0,2.08-0.07,22.38-0.09,35c0,1.75,0,3.36,0,4.75"/>
	</g>
	<g id="kvg:08fd1-g2">
		<path id="kvg:08fd1-s5" d="M20.96,19.25c3.63,1.74,9.38,7.17,10.29,9.88"/>
		<path id="kvg:08fd1-s6" d="M13.11,50.5c2.25,1,3.75,0.5,4.75,0.25S26.61,47.5,28.11,47c3-1,4.83,0.21,1.75,4.75c-6.11,9-5.86,9.25,0.25,15.5c3.04,3.11,1.64,4.5-0.75,6.5c-1.5,1.25-8.5,7.25-10,7.75"/>
		<path id="kvg:08fd1-s7" d="M15.25,83c3-0.5,9-1.75,13.5-0.75s30.07,7.71,34.5,9c12,3.5,21.25,4.5,30.25,2.75"/>
	</g>
</g>
</g>
<g id="kvg:StrokeNumbers_08fd1">
	<text transform="matrix(1 0 0 1 80.25 9.13)">1</text>
	<text transform="matrix(1 0 0 1 41.25 34.63)">2</text>
	<text transform="matrix(1 0 0 1 56.25 37.63)">3</text>
	<text transform="matrix(1 0 0 1 65.25 51.13)">4</text>
	<text transform="matrix(1 0 0 1 9.75 21.13)">5</text>
	<text transform="matrix(1 0 0 1 3.75 52.63)">6</text>
	<text transform="matrix(1 0 0 1 6.75 85.63)">7</text>
</g>
</svg>
