<svg width="109" height="109" viewBox="0 0 109 109">
<g id="kvg:StrokePaths_08fe9">
<g id="kvg:08fe9">
	<g id="kvg:08fe9-g1">
		<g id="kvg:08fe9-g2">
			<g id="kvg:08fe9-g3">
				<path id="kvg:08fe9-s1" d="M53.4,12.14c0.05,0.7,0.11,1.81-0.1,2.81c-1.25,5.92-8.42,18.92-18.24,26.87"/>
			</g>
			<path id="kvg:08fe9-s2" d="M52.43,27.34c2.07,0.16,3.43,0.55,4.81,0.46c8.3-0.58,17.76-2.05,27.11-2.63c2.3-0.14,3.7,0.17,4.85,0.35"/>
		</g>
		<g id="kvg:08fe9-g4">
			<path id="kvg:08fe9-s3" d="M66.7,30.21c0.07,0.38,1,1.99,1.08,4.41c0.34,11.63,0.36,37.49,0.36,41.46c0,8.99-6.17,1.2-7.46,0.2"/>
			<path id="kvg:08fe9-s4" d="M53.33,44.44c0.03,0.6,0.15,1.56-0.07,2.41c-1.51,5.9-5.55,16.21-12.02,23.03"/>
			<path id="kvg:08fe9-s5" d="M79.07,45.19c4.74,4.36,12.25,17.91,13.43,24.69"/>
		</g>
	</g>
	<g id="kvg:08fe9-g5">
		<path id="kvg:08fe9-s6" d="M18.96,19c3.9,1.61,10.07,6.63,11.04,9.13"/>
		<path id="kvg:08fe9-s7" d="M14,54.97c2.38,0.93,3.97,0.46,5.03,0.23c1.06-0.23,8.46-3.25,10.05-3.71s3.97,1.16,2.91,2.55c-1.06,1.39-5.23,6.73-6.03,7.89c-0.79,1.16-0.75,3.5,1.06,4.87c2.23,1.7,4.41,3.48,5.2,4.87c0.79,1.39,1.38,2.68-0.29,3.71C28.5,77.5,21.75,81.75,15.82,85"/>
		<path id="kvg:08fe9-s8" d="M12.75,85.3c3-0.41,9-1.45,13.5-0.62s30.07,6.37,34.5,7.44C72.75,95.02,82,95.84,91,94.4"/>
	</g>
</g>
</g>
<g id="kvg:StrokeNumbers_08fe9">
	<text transform="matrix(1 0 0 1 45.50 12.50)">1</text>
	<text transform="matrix(1 0 0 1 56.50 24.50)">2</text>
	<text transform="matrix(1 0 0 1 59.50 37.50)">3</text>
	<text transform="matrix(1 0 0 1 45.50 45.50)">4</text>
	<text transform="matrix(1 0 0 1 76.50 42.50)">5</text>
	<text transform="matrix(1 0 0 1 11.50 18.50)">6</text>
	<text transform="matrix(1 0 0 1 7.50 54.50)">7</text>
	<text transform="matrix(1 0 0 1 5.50 86.50)">8</text>
</g>
</svg>
