<svg width="109" height="109" viewBox="0 0 109 109">
<g id="kvg:StrokePaths_09003">
<g id="kvg:09003">
	<g id="kvg:09003-g1">
		<g id="kvg:09003-g2">
			<g id="kvg:09003-g3">
				<path id="kvg:09003-s1" d="M54.79,21.21c0.94,0.94,1.14,2.16,1.14,3.65c0,17.88,3.2,40.52-10.96,51.89"/>
			</g>
			<g id="kvg:09003-g4">
				<g id="kvg:09003-g5">
					<path id="kvg:09003-s2" d="M39.67,33.37c3.21,1.59,8.29,6.55,9.09,9.03"/>
				</g>
				<g id="kvg:09003-g6">
					<path id="kvg:09003-s3" d="M38.32,60.51c1.09,0.54,2.19,0.47,3.02-0.14c1.15-0.85,7.17-6.14,11.68-10.23"/>
				</g>
			</g>
		</g>
		<g id="kvg:09003-g7">
			<g id="kvg:09003-g8">
				<path id="kvg:09003-s4" d="M69.7,17.37c0.9,0.9,0.97,1.87,1,3.19c0.15,5.89-0.02,39.87-0.02,43.88c0,8.07,1.82,9.66,10.88,9.66c8.45,0,10.26-1.84,10.26-7.32"/>
			</g>
			<path id="kvg:09003-s5" d="M84.84,25.85c0.08,0.64-0.08,1.21-0.5,1.72c-1.58,1.55-5.1,4.69-10.47,7.44"/>
			<path id="kvg:09003-s6" d="M74.52,46.14C78.62,49,84,56.12,85.86,60.28"/>
		</g>
	</g>
	<g id="kvg:09003-g9">
		<path id="kvg:09003-s7" d="M17.5,23.12c4.06,1.32,10.48,5.42,11.5,7.47"/>
		<path id="kvg:09003-s8" d="M12,54c2.5,0.5,3.83,0.19,4.75-0.27c4-1.98,7.62-3.61,10.25-4.68c1.45-0.6,2.62,0.94,2,2.53c-5.5,14.17-5.75,8.42,2.25,17.74c1.02,1.19,1,2.28-0.5,3.43c-1.5,1.15-11.25,7-14,9.06"/>
		<path id="kvg:09003-s9" d="M13.75,83.19c4.25-0.94,9.41-0.78,14-0.69c6.12,0.12,30.07,6.6,34.5,7.79c12,3.22,20,3.96,29.75,3.53"/>
	</g>
</g>
</g>
<g id="kvg:StrokeNumbers_09003">
	<text transform="matrix(1 0 0 1 48.50 21.13)">1</text>
	<text transform="matrix(1 0 0 1 37.50 30.05)">2</text>
	<text transform="matrix(1 0 0 1 35.50 55.50)">3</text>
	<text transform="matrix(1 0 0 1 60.50 16.50)">4</text>
	<text transform="matrix(1 0 0 1 80.50 21.50)">5</text>
	<text transform="matrix(1 0 0 1 76.50 45.13)">6</text>
	<text transform="matrix(1 0 0 1 11.25 22.63)">7</text>
	<text transform="matrix(1 0 0 1 5.25 54.13)">8</text>
	<text transform="matrix(1 0 0 1 6.75 85.40)">9</text>
</g>
</svg>
