<svg width="109" height="109" viewBox="0 0 109 109">
<g id="kvg:StrokePaths_09011">
<g id="kvg:09011">
	<g id="kvg:09011-g1">
		<path id="kvg:09011-s1" d="M41.27,31.56c1.24,0.32,3.51,0.43,4.75,0.32c13.23-1.13,30.29-3.45,42.07-3.45c2.07,0,3.31,0.15,4.34,0.31"/>
		<g id="kvg:09011-g2">
			<path id="kvg:09011-s2" d="M64.01,10.08c0.06,0.41,0.82,2.14,0.88,4.74c0.28,12.51-0.18,60.75-0.18,65.01c0,7.34-4.03,2.18-6.09,0.21"/>
			<path id="kvg:09011-s3" d="M46.48,43.15c3.49,1.4,9.02,5.77,9.9,7.96"/>
			<path id="kvg:09011-s4" d="M40.5,73.12c1.75,0.38,3.03,0.41,4.4-0.86c4.6-4.27,8.2-7.95,13.54-13.41"/>
			<path id="kvg:09011-s5" d="M85.92,36.73c0.08,0.39,0.14,1.06-0.16,1.56C83,43.09,77.24,48.54,71.82,51.95"/>
			<path id="kvg:09011-s6" d="M72.3,59.07c6.45,3.18,14.95,10.43,19.24,16.37"/>
		</g>
		<g id="kvg:09011-g3">
			<path id="kvg:09011-s7" d="M75.08,10.83c4.16,1.49,10.76,6.14,11.8,8.46"/>
		</g>
	</g>
	<g id="kvg:09011-g4">
		<path id="kvg:09011-s8" d="M16.96,14.25c4.07,1.44,10.52,5.9,11.54,8.13"/>
		<path id="kvg:09011-s9" d="M13.21,33.5c4.25,1.52,10.98,6.26,12.04,8.63"/>
		<path id="kvg:09011-s10" d="M10.5,55.94c2.25,0.85,3.75,0.43,4.75,0.21c1-0.21,8.5-2.99,10-3.42c1.5-0.43,3.75,1.07,2.75,2.35s-4.5,7.19-5.25,8.26c-0.75,1.07-0.5,2.99,1,4.48s2.75,3.2,3.5,4.48C28,73.59,28,74.66,26.5,75.73c-1.5,1.07-9,7.04-10.5,7.47"/>
		<path id="kvg:09011-s11" d="M12.25,85.09c2.99-0.48,8.89-1.59,13.46-1.21c7.54,0.62,29.98,7.83,34.39,9.05c11.96,3.33,21.18,4.28,30.15,2.61"/>
	</g>
</g>
</g>
<g id="kvg:StrokeNumbers_09011">
	<text transform="matrix(1 0 0 1 35.25 31.50)">1</text>
	<text transform="matrix(1 0 0 1 55.25 10.50)">2</text>
	<text transform="matrix(1 0 0 1 39.25 43.50)">3</text>
	<text transform="matrix(1 0 0 1 37.50 68.50)">4</text>
	<text transform="matrix(1 0 0 1 76.50 38.50)">5</text>
	<text transform="matrix(1 0 0 1 70.50 68.50)">6</text>
	<text transform="matrix(1 0 0 1 72.50 8.50)">7</text>
	<text transform="matrix(1 0 0 1 9.50 14.50)">8</text>
	<text transform="matrix(1 0 0 1 5.25 33.50)">9</text>
	<text transform="matrix(1 0 0 1 0.25 56.50)">10</text>
	<text transform="matrix(1 0 0 1 2.50 85.50)">11</text>
</g>
</svg>
