<svg width="109" height="109" viewBox="0 0 109 109">
<g id="kvg:StrokePaths_09020">
<g id="kvg:09020">
	<g id="kvg:09020-g1">
		<g id="kvg:09020-g2">
			<path id="kvg:09020-s1" d="M50.95,21.59c0.06,1.27,0.01,2.33-0.4,3.55c-1.8,5.36-4.01,10.8-8.32,17.29"/>
			<path id="kvg:09020-s2" d="M51.55,32.24c1.45,0.14,2.94,0,4.07-0.13c7.05-0.82,16.44-3.22,23.39-4.4c1.87-0.32,3.74-0.58,5.4-0.21"/>
			<path id="kvg:09020-s3" d="M64.79,12.74c0.8,0.8,1.55,2.51,1.55,3.79c0,6.22-0.18,25.47-0.18,30.41"/>
			<path id="kvg:09020-s4" d="M39.38,50.25c2.13,0.76,5.18,0.64,7.38,0.31c12.12-1.81,29.73-4.1,40.5-5.1c2.59-0.24,5.06-0.45,7.62,0.09"/>
		</g>
		<g id="kvg:09020-g3">
			<path id="kvg:09020-s5" d="M49.21,59.72c0.79,0.79,1.5,2.12,1.61,2.57c0.93,3.83,1.92,9.82,2.67,15.67c0.16,1.27,0.32,2.5,0.47,3.64"/>
			<path id="kvg:09020-s6" d="M50.94,60.67c8.89-1.52,20.81-3.1,28.69-4.13c3.42-0.45,4.87,1.33,4.35,4.07c-0.77,4.05-1.62,7.94-2.81,13.4"/>
			<path id="kvg:09020-s7" d="M54.65,78.56c6.72-0.81,17.7-2.13,24.4-3.01c1.37-0.18,2.58-0.34,3.57-0.48"/>
		</g>
	</g>
	<g id="kvg:09020-g4">
		<path id="kvg:09020-s8" d="M21.21,19.25c3.63,1.74,9.38,7.17,10.29,9.88"/>
		<path id="kvg:09020-s9" d="M13,50.75c2.25,1,3.76,0.53,4.75,0.25c3.5-1,8.25-2.88,11-4c2.13-0.87,3.38,0.5,2.25,2.75c-7.25,14.51-7.75,9.5,0.25,19c1.08,1.28,0.75,2.75-0.75,4S21.5,81,20,81.5"/>
		<path id="kvg:09020-s10" d="M15.5,83.75c3-0.5,8.91-1.16,13.5-0.75c8.38,0.75,30.32,6.96,34.75,8.25c12,3.5,19.5,4.5,26.25,4.75"/>
	</g>
</g>
</g>
<g id="kvg:StrokeNumbers_09020">
	<text transform="matrix(1 0 0 1 44.50 22.63)">1</text>
	<text transform="matrix(1 0 0 1 56.25 28.55)">2</text>
	<text transform="matrix(1 0 0 1 55.50 12.50)">3</text>
	<text transform="matrix(1 0 0 1 46.50 47.50)">4</text>
	<text transform="matrix(1 0 0 1 42.50 66.50)">5</text>
	<text transform="matrix(1 0 0 1 52.50 57.50)">6</text>
	<text transform="matrix(1 0 0 1 57.50 75.50)">7</text>
	<text transform="matrix(1 0 0 1 12.50 19.63)">8</text>
	<text transform="matrix(1 0 0 1 5.25 51.05)">9</text>
	<text transform="matrix(1 0 0 1 5.50 84.50)">10</text>
</g>
</svg>
