<svg width="109" height="109" viewBox="0 0 109 109">
<g id="kvg:StrokePaths_090b1">
<g id="kvg:090b1">
	<g id="kvg:090b1-g1">
		<g id="kvg:090b1-g2">
			<path id="kvg:090b1-s1" d="M47.24,9c0.07,0.34,0.25,0.97-0.13,1.35c-4.73,4.74-11.72,9.08-24.04,12.9"/>
			<path id="kvg:090b1-s2" d="M18.37,22.63c1.38,0.87,1.94,2.67,1.98,5.26C20.5,39.25,20.25,66.5,20.52,77"/>
			<path id="kvg:090b1-s3" d="M20.28,39.81c6.32-1.08,22.09-3.13,29.76-4.49c1.14-0.2,3.15-0.17,3.87,0"/>
			<path id="kvg:090b1-s4" d="M42.14,36.8c0.43,0.58,0.8,2.57,0.78,3.75c-0.21,11.82-0.14,19.7-0.14,29.45"/>
		</g>
		<g id="kvg:090b1-g3">
			<path id="kvg:090b1-s5" d="M11.25,78.58c0.73,1.18,2.08,1.4,2.78,1.18C23,77,46.1,69.63,53.84,67.49"/>
		</g>
	</g>
	<g id="kvg:090b1-g4">
		<path id="kvg:090b1-s6" d="M64.67,17.56c0.85,0.09,2.36,0.7,3.45,0.49c4.71-0.91,17.92-2.94,20.4-3.85c3.05-1.12,6.11,1.12,4.75,3.73s-10.63,19.99-13,23.72"/>
		<path id="kvg:090b1-s7" d="M79.76,42.21C101.25,54.5,92.75,92,80.04,76.35"/>
		<path id="kvg:090b1-s8" d="M66.89,19.05c0.22,1.12,0,74.2-0.22,81.2"/>
	</g>
</g>
</g>
<g id="kvg:StrokeNumbers_090b1">
	<text transform="matrix(1 0 0 1 38.50 8.50)">1</text>
	<text transform="matrix(1 0 0 1 10.50 23.50)">2</text>
	<text transform="matrix(1 0 0 1 24.50 35.50)">3</text>
	<text transform="matrix(1 0 0 1 35.50 47.50)">4</text>
	<text transform="matrix(1 0 0 1 2.50 78.50)">5</text>
	<text transform="matrix(1 0 0 1 67.50 14.50)">6</text>
	<text transform="matrix(1 0 0 1 74.25 47.50)">7</text>
	<text transform="matrix(1 0 0 1 59.25 26.50)">8</text>
</g>
</svg>
