<svg width="109" height="109" viewBox="0 0 109 109">
<g id="kvg:StrokePaths_090ca">
<g id="kvg:090ca">
	<g id="kvg:090ca-g1">
		<g id="kvg:090ca-g2">
			<path id="kvg:090ca-s1" d="M37.99,12c1,1,1.28,2.25,1.28,4.04c0,3.77-0.03,6.96-0.03,9.84"/>
			<path id="kvg:090ca-s2" d="M17.84,29.16c1.84,0.18,3.3,0.26,5.17-0.02c10.24-1.52,20.38-2.66,26.48-3.45c1.61-0.21,4.26-0.32,5.88,0.12"/>
		</g>
		<g id="kvg:090ca-g3">
			<path id="kvg:090ca-s3" d="M28.99,37.01c0.25,0.61-0.15,1.85-0.87,2.76C25,43.75,21.15,47.68,16.27,51.1"/>
			<path id="kvg:090ca-s4" d="M47.42,32.86c4.57,3.81,8.35,8.21,10.63,12.83"/>
			<path id="kvg:090ca-s5" d="M48.21,46.86c0.44,0.9,0.34,2.24-0.39,3.86C41,65.75,29,79.5,14.02,87.62"/>
			<path id="kvg:090ca-s6" d="M26.13,56.1c8.26,2.67,19.52,13.29,26.54,23.95"/>
		</g>
	</g>
	<g id="kvg:090ca-g4">
		<path id="kvg:090ca-s7" d="M65.17,21.17c1.83,0.58,3.32,0.71,5.11,0.37c5.54-1.06,16.21-3.64,18.39-4.37c3-1,5.25,1.25,3.92,3.58c-1.33,2.33-8.5,15.67-10.83,19"/>
		<path id="kvg:090ca-s8" d="M81.5,40c20.5,10.75,17,38.25,2.23,29.16"/>
		<path id="kvg:090ca-s9" d="M66.58,22.25c1.08,1.09,1.3,2.22,1.32,4c0.07,10.23,0.07,44.62,0.07,64.13c0,3.15,0,5.92,0,8.12"/>
	</g>
</g>
</g>
<g id="kvg:StrokeNumbers_090ca">
	<text transform="matrix(1 0 0 1 28.50 11.50)">1</text>
	<text transform="matrix(1 0 0 1 10.50 29.50)">2</text>
	<text transform="matrix(1 0 0 1 20.50 38.50)">3</text>
	<text transform="matrix(1 0 0 1 39.75 35.50)">4</text>
	<text transform="matrix(1 0 0 1 39.75 46.50)">5</text>
	<text transform="matrix(1 0 0 1 18.75 58.50)">6</text>
	<text transform="matrix(1 0 0 1 69.75 18.13)">7</text>
	<text transform="matrix(1 0 0 1 75.75 39.13)">8</text>
	<text transform="matrix(1 0 0 1 60.75 31.63)">9</text>
</g>
</svg>
