<svg width="109" height="109" viewBox="0 0 109 109">
<g id="kvg:StrokePaths_090e2">
<g id="kvg:090e2">
	<g id="kvg:090e2-g1">
		<g id="kvg:090e2-g2">
			<path id="kvg:090e2-s1" d="M18.54,14.06c0.35,0.4,0.71,0.73,0.87,1.22c1.22,3.92,2.2,12.48,3.51,21.79"/>
			<path id="kvg:090e2-s2" d="M20.73,15.41c9.27-0.66,23.43-2.34,27.88-2.89c1.63-0.2,2.6,2.04,2.37,3.24c-0.96,4.94-2.14,6.62-3.77,16.32"/>
			<path id="kvg:090e2-s3" d="M23.27,34.48c5.22-0.63,19.44-1.66,26.07-2.29"/>
		</g>
		<g id="kvg:090e2-g3">
			<g id="kvg:090e2-g4">
				<g id="kvg:090e2-g5">
					<path id="kvg:090e2-s4" d="M49.2,39.25c0.08,0.26,0.31,0.75-0.16,1.04c-5.85,3.67-14.5,7.04-29.75,10"/>
				</g>
				<g id="kvg:090e2-g6">
					<path id="kvg:090e2-s5" d="M11.34,64.18c0.97,0.77,4.16,0.37,5.16,0.33c7.25-0.26,23.67-2.22,35.8-3.59c1.21-0.14,2.63-0.31,4.44,0.36"/>
					<path id="kvg:090e2-s6" d="M35.37,49.65c0.74,1.28,0.74,2.05,0.74,3.07c0,7.16,0.19,22.55,0,29.72"/>
					<path id="kvg:090e2-s7" d="M16,87.45c0.57,1.25,3.5,1.4,4.51,1.02c9.99-3.72,21.52-8.16,32.23-12.57"/>
				</g>
			</g>
		</g>
	</g>
	<g id="kvg:090e2-g7">
		<path id="kvg:090e2-s8" d="M64.17,17.08c0.88,0.09,2.43,0.6,3.57,0.49c5.76-0.57,18.43-2.46,21-3.37c3.16-1.13,5.31,1.63,3.91,4.26c-1.4,2.63-8.89,18.08-11.35,21.84"/>
		<path id="kvg:090e2-s9" d="M80.77,41.36c19.48,12.89,12.48,52.14-0.1,35.35"/>
		<path id="kvg:090e2-s10" d="M66.52,18.58c0.02,0.1,0.04,1.77,0.05,2.91c0.14,11.72-0.07,72.34-0.28,78.76"/>
	</g>
</g>
</g>
<g id="kvg:StrokeNumbers_090e2">
	<text transform="matrix(1 0 0 1 12.94 22.63)">1</text>
	<text transform="matrix(1 0 0 1 22.50 12.50)">2</text>
	<text transform="matrix(1 0 0 1 26.50 30.50)">3</text>
	<text transform="matrix(1 0 0 1 40.50 40.50)">4</text>
	<text transform="matrix(1 0 0 1 4.50 65.50)">5</text>
	<text transform="matrix(1 0 0 1 28.44 56.76)">6</text>
	<text transform="matrix(1 0 0 1 8.50 88.50)">7</text>
	<text transform="matrix(1 0 0 1 69.50 14.50)">8</text>
	<text transform="matrix(1 0 0 1 77.44 49.50)">9</text>
	<text transform="matrix(1 0 0 1 56.44 25.45)">10</text>
</g>
</svg>
