<svg width="109" height="109" viewBox="0 0 109 109">
<g id="kvg:StrokePaths_090e4">
<g id="kvg:090e4">
	<g id="kvg:090e4-g1">
		<g id="kvg:090e4-g2">
			<path id="kvg:090e4-s1" d="M37.21,10.48c0.06,0.58,0.2,1.52-0.12,2.32C34.75,18.75,26.75,27.25,16.4,35"/>
			<path id="kvg:090e4-s2" d="M41.08,16.83c6.21,3.22,13.78,9.37,15.91,12.67"/>
		</g>
		<g id="kvg:090e4-g3">
			<path id="kvg:090e4-s3" d="M39.6,30.75c0.08,0.83,0.38,2.22-0.16,3.33C34.95,43.43,24.76,56.87,11.17,66"/>
			<path id="kvg:090e4-s4" d="M40.21,37.33C48.17,42.35,55.17,48.58,59,55.17"/>
			<g id="kvg:090e4-g4">
				<path id="kvg:090e4-s5" d="M21.09,64.91c0.39,0.47,0.78,0.86,0.95,1.45c1.34,4.65,2.95,17.49,3.86,25.84"/>
				<path id="kvg:090e4-s6" d="M22.4,66.36C32.75,65,43.83,64.14,50.3,63.21c2.21-0.32,3.56,2.13,3.22,3.52c-1.61,6.65-2.81,11.61-4.29,19.77"/>
				<path id="kvg:090e4-s7" d="M25.94,89.34C35,88.25,40.75,87.75,51.82,87"/>
			</g>
		</g>
	</g>
	<g id="kvg:090e4-g5">
		<path id="kvg:090e4-s8" d="M66.67,17.56c0.85,0.09,2.36,0.7,3.45,0.49c4.71-0.91,17.92-2.94,20.4-3.85c3.05-1.12,6.11,1.12,4.75,3.73s-9.13,17.49-11.5,21.22"/>
		<path id="kvg:090e4-s9" d="M82.76,40.21C101.5,55.75,96,92,82.54,75.85"/>
		<path id="kvg:090e4-s10" d="M69.39,18.55c0.02,0.12,0.04,1.08,0.06,2.7c0.12,13.42-0.08,72.25-0.28,78.5"/>
	</g>
</g>
</g>
<g id="kvg:StrokeNumbers_090e4">
	<text transform="matrix(1 0 0 1 29.50 10.50)">1</text>
	<text transform="matrix(1 0 0 1 43.50 14.50)">2</text>
	<text transform="matrix(1 0 0 1 31.50 32.50)">3</text>
	<text transform="matrix(1 0 0 1 44.50 38.50)">4</text>
	<text transform="matrix(1 0 0 1 15.50 73.50)">5</text>
	<text transform="matrix(1 0 0 1 25.50 62.50)">6</text>
	<text transform="matrix(1 0 0 1 29.50 85.50)">7</text>
	<text transform="matrix(1 0 0 1 69.50 14.50)">8</text>
	<text transform="matrix(1 0 0 1 78.50 48.86)">9</text>
	<text transform="matrix(1 0 0 1 58.50 26.50)">10</text>
</g>
</svg>
