<svg width="109" height="109" viewBox="0 0 109 109">
<g id="kvg:StrokePaths_091c7">
<g id="kvg:091c7">
	<g id="kvg:091c7-g1">
		<path id="kvg:091c7-s1" d="M69.02,11.68c-0.4,1.07-1.02,1.57-2.29,2.38c-4.96,3.16-18.84,8.15-37,11.61"/>
		<path id="kvg:091c7-s2" d="M23.27,32.86c3.24,2.13,8.37,8.76,9.18,12.07"/>
		<path id="kvg:091c7-s3" d="M47.27,27.7c3.02,2.42,7.78,9.95,8.54,13.71"/>
		<path id="kvg:091c7-s4" d="M86.01,23.28c0.08,0.91-0.3,1.97-0.68,2.75c-2.22,4.62-7.74,12.05-14.95,17.95"/>
	</g>
	<g id="kvg:091c7-g2">
		<path id="kvg:091c7-s5" d="M19,59.25c3.11,1.2,7.13,0.69,10.38,0.51c10.76-0.61,35.24-1.66,49.75-2.28c3.22-0.14,6.47,0.14,9.62,0.77"/>
		<path id="kvg:091c7-s6" d="M52.94,46c1.09,1.09,1.41,2.25,1.41,3.95c0,3.09-0.06,27.49-0.09,40.92c-0.01,3.08-0.01,5.59-0.01,7.12"/>
		<path id="kvg:091c7-s7" d="M52.25,59.7c0,1.3-0.5,2.43-1.75,4.02c-7.22,9.24-21.89,20.94-34.25,26.93"/>
		<path id="kvg:091c7-s8" d="M55.5,60c4.84,5.13,17.32,16.16,24.72,22.51C83.12,85,86,86.75,89,88.25"/>
	</g>
</g>
</g>
<g id="kvg:StrokeNumbers_091c7">
	<text transform="matrix(1 0 0 1 60.25 10.25)">1</text>
	<text transform="matrix(1 0 0 1 15.25 35.25)">2</text>
	<text transform="matrix(1 0 0 1 40.25 32.25)">3</text>
	<text transform="matrix(1 0 0 1 77.25 24.25)">4</text>
	<text transform="matrix(1 0 0 1 11.25 61.38)">5</text>
	<text transform="matrix(1 0 0 1 43.25 47.25)">6</text>
	<text transform="matrix(1 0 0 1 38.00 70.30)">7</text>
	<text transform="matrix(1 0 0 1 69.25 70.38)">8</text>
</g>
</svg>
