<svg width="109" height="109" viewBox="0 0 109 109">
<g id="kvg:StrokePaths_0920e">
<g id="kvg:0920e">
	<g id="kvg:0920e-g1">
		<path id="kvg:0920e-s1" d="M33.75,15.74c0.1,1.37-0.03,2.71-0.56,3.95c-3.07,7.18-12.31,22.49-20.97,29.93"/>
		<path id="kvg:0920e-s2" d="M36,21.88c5.25,4,8.38,6.62,12,12.62"/>
		<path id="kvg:0920e-s3" d="M21.75,43.5c1.47,0.15,2.93,0.1,4.37-0.14c3.71-0.54,8.38-1.36,13.01-2.39c1.34-0.3,2.74-0.23,4.11-0.22"/>
		<path id="kvg:0920e-s4" d="M15.59,57.56c2.08,0.56,4.12,0.27,6.26,0.04c5.8-0.62,12.28-1.48,19.04-2.63c2.17-0.37,4.24-0.59,6.38-0.49"/>
		<path id="kvg:0920e-s5" d="M30.7,45.19c1.06,1.06,1.24,1.93,1.24,3.14c0,5.26,0.06,32.54,0.06,37.98"/>
		<path id="kvg:0920e-s6" d="M16.39,67.76c4.08,5.23,6.07,10.89,6.9,13.94"/>
		<path id="kvg:0920e-s7" d="M44.67,63.05c0.21,1.2-0.03,2.17-0.38,2.82c-1.54,2.89-2.68,4.73-6.37,10.16"/>
		<path id="kvg:0920e-s8" d="M13,91.58c1,0.92,2.79,1.09,4,0.68c1.4-0.48,12.64-3.76,27.25-9.5"/>
	</g>
	<g id="kvg:0920e-g2">
		<g id="kvg:0920e-g3">
			<g id="kvg:0920e-g4">
				<path id="kvg:0920e-s9" d="M66.25,15.25c0.26,1.37,0.14,2.68-0.36,3.92c-2.5,7.55-7.28,18.82-14.27,28.58"/>
			</g>
			<path id="kvg:0920e-s10" d="M63.16,33.73c1.9,0.59,3.8,0.62,5.71,0.1c5.56-1.11,16.58-2.9,20.89-3.42c4.57-0.56,5.69,1.38,5.33,5.37C94.65,40.69,91.01,78.43,85,93.41c-1.71,4.26-4.25-0.16-6.69-2.67"/>
		</g>
		<g id="kvg:0920e-g5">
			<path id="kvg:0920e-s11" d="M67.39,43.43c0,1.2-0.01,2.34-0.27,3.01c-2.95,7.49-8.3,17.8-12.17,24.24c-1.29,2.14-1.14,3.51,2.18,2.59c6.15-1.7,13.95-4.4,18.12-6.02"/>
			<path id="kvg:0920e-s12" d="M72.09,58.24c4.09,4.22,7.15,10.86,8.04,16.59"/>
		</g>
	</g>
</g>
</g>
<g id="kvg:StrokeNumbers_0920e">
	<text transform="matrix(1 0 0 1 26.50 15.13)">1</text>
	<text transform="matrix(1 0 0 1 40.50 22.50)">2</text>
	<text transform="matrix(1 0 0 1 27.50 39.50)">3</text>
	<text transform="matrix(1 0 0 1 8.50 59.50)">4</text>
	<text transform="matrix(1 0 0 1 23.50 52.50)">5</text>
	<text transform="matrix(1 0 0 1 8.50 69.50)">6</text>
	<text transform="matrix(1 0 0 1 37.50 64.50)">7</text>
	<text transform="matrix(1 0 0 1 4.50 92.60)">8</text>
	<text transform="matrix(1 0 0 1 57.50 14.50)">9</text>
	<text transform="matrix(1 0 0 1 67.50 30.50)">10</text>
	<text transform="matrix(1 0 0 1 57.50 46.50)">11</text>
	<text transform="matrix(1 0 0 1 71.50 56.50)">12</text>
</g>
</svg>
