<svg width="109" height="109" viewBox="0 0 109 109">
<g id="kvg:StrokePaths_09306">
<g id="kvg:09306">
	<g id="kvg:09306-g1">
		<path id="kvg:09306-s1" d="M30.75,15.49c0,0.78,0.05,1.4-0.15,2.33c-1.04,4.87-10.92,21.1-19.38,28.3"/>
		<path id="kvg:09306-s2" d="M31.39,20.96C36.22,22.75,42.4,27.5,44.75,32"/>
		<path id="kvg:09306-s3" d="M21.5,42c1.5,0,2.18,0.09,2.67,0.06C28.5,41.74,34,40.03,39.1,39.8c0.74-0.03,0.9-0.05,2.15-0.05"/>
		<path id="kvg:09306-s4" d="M14.59,56.81c0.59,0.33,2.56,0.48,3.17,0.43c5.49-0.49,16.99-2.49,24.28-3.67c0.74-0.12,2.38-0.13,3.49,0.15"/>
		<path id="kvg:09306-s5" d="M29.95,43.69c1.24,0.78,1.24,2.52,1.24,3.14c0,4.35-0.19,27.67-0.19,40.48"/>
		<path id="kvg:09306-s6" d="M16.14,68.26c3.63,4.85,5.41,10.11,6.15,12.94"/>
		<path id="kvg:09306-s7" d="M43.71,63.05c0.29,0.79,0.44,1.94,0.33,2.61c-0.29,1.71-2.6,4.84-5.87,9.87"/>
		<path id="kvg:09306-s8" d="M15,91.87c1.5,0.88,3.13,0.55,4.28,0.14c4.22-1.5,11.05-4.38,24.97-10"/>
	</g>
	<g id="kvg:09306-g2">
		<g id="kvg:09306-g3">
			<path id="kvg:09306-s9" d="M52.86,25.39c0.76,0.37,2.15,0.45,2.91,0.37c5.47-0.54,25.46-3.24,30.17-3.81c1.26-0.15,2.78-0.08,3.45-0.02"/>
			<path id="kvg:09306-s10" d="M67.15,12.38c0.61,0.25,1.91,1.87,2.03,2.37c0.12,0.5,0.28,22.55,0.34,30.52"/>
			<path id="kvg:09306-s11" d="M52.77,36.27c0.76,0.27,2.15,0.33,2.91,0.27c5.47-0.39,23.85-3.12,28.57-3.54c1.26-0.11,2.78-0.06,3.45-0.02"/>
			<path id="kvg:09306-s12" d="M47.63,47.7c1.18,0.3,3.35,0.35,4.54,0.3c8.53-0.42,30.09-3.5,38.84-4.18c1.96-0.15,4.43-0.26,6.25,0.46"/>
		</g>
		<g id="kvg:09306-g4">
			<path id="kvg:09306-s13" d="M55.9,54.97c0.6,0.6,1.19,2.66,1.19,3.29c0,4.75-0.31,22.75-0.31,37.48"/>
			<path id="kvg:09306-s14" d="M57.78,56.56c2.38-0.15,21.75-2.66,23.52-2.83c2.45-0.24,3.97,0.76,3.97,2.83c0,3.19-0.6,21.27-0.6,33.33c0,8.61-4.18,3.36-5.75,1.34"/>
			<path id="kvg:09306-s15" d="M70.78,56.53C70.78,62.5,71,68.65,71,73.5"/>
			<path id="kvg:09306-s16" d="M57.38,74.77c4.77,0,20.66-2.08,27.61-2.08"/>
		</g>
	</g>
</g>
</g>
<g id="kvg:StrokeNumbers_09306">
	<text transform="matrix(1 0 0 1 23.50 16.50)">1</text>
	<text transform="matrix(1 0 0 1 37.50 21.50)">2</text>
	<text transform="matrix(1 0 0 1 25.50 38.50)">3</text>
	<text transform="matrix(1 0 0 1 7.50 56.50)">4</text>
	<text transform="matrix(1 0 0 1 24.25 51.50)">5</text>
	<text transform="matrix(1 0 0 1 8.50 68.25)">6</text>
	<text transform="matrix(1 0 0 1 37.25 64.50)">7</text>
	<text transform="matrix(1 0 0 1 7.50 95.50)">8</text>
	<text transform="matrix(1 0 0 1 50.50 22.50)">9</text>
	<text transform="matrix(1 0 0 1 56.50 11.50)">10</text>
	<text transform="matrix(1 0 0 1 49.50 33.50)">11</text>
	<text transform="matrix(1 0 0 1 45.50 44.50)">12</text>
	<text transform="matrix(1 0 0 1 47.50 62.73)">13</text>
	<text transform="matrix(1 0 0 1 58.25 54.15)">14</text>
	<text transform="matrix(1 0 0 1 63.50 63.58)">15</text>
	<text transform="matrix(1 0 0 1 60.50 71.50)">16</text>
</g>
</svg>
