<svg width="109" height="109" viewBox="0 0 109 109">
<g id="kvg:StrokePaths_095dc">
<g id="kvg:095dc">
	<g id="kvg:095dc-g1">
		<g id="kvg:095dc-g2">
			<path id="kvg:095dc-s1" d="M18.39,15.29c0.73,0.46,1.28,2.98,1.43,3.9c0.15,0.93-0.09,73.14-0.24,78.94"/>
			<path id="kvg:095dc-s2" d="M19.52,17.58c2.44-0.1,19.27-2.66,21.49-2.78c1.85-0.1,2.81,0.91,2.9,1.71C44.05,17.74,43,29,42.02,36.52"/>
			<path id="kvg:095dc-s3" d="M20.45,26.89c5.99-0.59,16.62-1.62,22.38-2.26"/>
			<path id="kvg:095dc-s4" d="M20.02,36.48c8.11-1.15,14.39-1.53,21.56-2.06"/>
		</g>
		<g id="kvg:095dc-g3">
			<path id="kvg:095dc-s5" d="M64.44,14.01c0.44,0.55,0.88,1.74,0.88,2.48c0,0.74-0.29,20.31-0.29,20.67"/>
			<path id="kvg:095dc-s6" d="M66.05,15.16c2.49-0.11,19.71-2.79,21.99-2.92c1.9-0.11,2.98,1.15,2.97,1.8c-0.49,19.46-0.5,64.29-0.5,78.4c0,10.81-6.95,2.16-8.4,0.86"/>
			<path id="kvg:095dc-s7" d="M65.99,24.72c3.38,0,20.09-1.74,23.9-1.74"/>
			<path id="kvg:095dc-s8" d="M66.05,34.26c4.99,0,18.09-1.56,24.55-1.56"/>
		</g>
	</g>
	<g id="kvg:095dc-g4">
		<g id="kvg:095dc-g5">
			<path id="kvg:095dc-s9" d="M40.25,41.63c0.2,0.51,0.22,0.85-0.1,1.43c-1.34,2.45-5.07,6.97-7.22,8.65c-0.37,0.28-0.23,0.89,0.16,0.99c2.08,0.51,4.45,0.77,7.27,1.72"/>
			<path id="kvg:095dc-s10" d="M50.31,44.19c0.22,0.32,0.08,1.49-0.19,1.87c-3.23,4.6-11.4,13.39-16.76,18.57c-0.72,0.7-0.46,1.54,0.45,1.37c4.86-0.91,10.3-2.4,15.11-3.25"/>
			<path id="kvg:095dc-s11" d="M48.03,57.58c1.78,1.37,4.6,5.62,5.05,7.75"/>
		</g>
		<g id="kvg:095dc-g6">
			<path id="kvg:095dc-s12" d="M64.83,40.87c0.22,0.57,0.25,0.96-0.11,1.61c-1.51,2.76-4.12,7.28-6.56,9.17c-0.41,0.32-0.26,1,0.19,1.11c2.34,0.57,5.03,0.86,8.22,1.93"/>
			<path id="kvg:095dc-s13" d="M75.36,43.68c0.22,0.32,0.08,1.49-0.19,1.87c-3.23,4.6-10.9,13.2-16.26,18.38c-0.72,0.7-0.46,1.54,0.45,1.37c4.86-0.91,14.15-2.9,18.95-3.75"/>
			<path id="kvg:095dc-s14" d="M74.95,56.7c1.93,1.58,4.99,6.5,5.47,8.96"/>
		</g>
	</g>
	<g id="kvg:095dc-g7">
		<g id="kvg:095dc-g8">
			<path id="kvg:095dc-s15" d="M35.25,71.71c0.54,0.28,0.92,1.29,0.97,2.21c0.08,1.65-0.15,4.3-0.5,7.62c-0.07,0.65,0.45,1.09,1.59,0.83c3.66-0.83,8.23-1.45,9.73-1.52"/>
			<g id="kvg:095dc-g9">
				<path id="kvg:095dc-s16" d="M47.74,70.25c0.6,0.54,0.9,1.65,0.9,2.55c0,10.25-0.26,17.35-11.04,24.07"/>
			</g>
		</g>
		<g id="kvg:095dc-g10">
			<g id="kvg:095dc-g11">
				<path id="kvg:095dc-s17" d="M73.56,68.37c0.54,0.28,0.97,1.29,0.97,2.21c0,2.54,0.05,8.9,0.05,12.3"/>
			</g>
			<path id="kvg:095dc-s18" d="M62.43,80.12C64.22,80.12,72.42,79.52,74.76,79.37"/>
			<path id="kvg:095dc-s19" d="M61.06,70.34c0.54,0.28,0.92,1.29,0.97,2.21c0.08,1.65,0.05,21.03,0.05,25.48"/>
		</g>
	</g>
</g>
</g>
<g id="kvg:StrokeNumbers_095dc">
	<text transform="matrix(1 0 0 1 11.50 22.50)">1</text>
	<text transform="matrix(1 0 0 1 22.50 13.50)">2</text>
	<text transform="matrix(1 0 0 1 24.50 24.50)">3</text>
	<text transform="matrix(1 0 0 1 24.50 33.50)">4</text>
	<text transform="matrix(1 0 0 1 57.75 20.50)">5</text>
	<text transform="matrix(1 0 0 1 67.50 12.50)">6</text>
	<text transform="matrix(1 0 0 1 70.50 22.50)">7</text>
	<text transform="matrix(1 0 0 1 70.47 32.50)">8</text>
	<text transform="matrix(1 0 0 1 32.50 42.50)">9</text>
	<text transform="matrix(1 0 0 1 45.50 41.50)">10</text>
	<text transform="matrix(1 0 0 1 47.75 56.50)">11</text>
	<text transform="matrix(1 0 0 1 55.25 40.50)">12</text>
	<text transform="matrix(1 0 0 1 72.50 41.50)">13</text>
	<text transform="matrix(1 0 0 1 75.50 55.50)">14</text>
	<text transform="matrix(1 0 0 1 25.50 74.50)">15</text>
	<text transform="matrix(1 0 0 1 38.75 73.50)">16</text>
	<text transform="matrix(1 0 0 1 65.50 70.50)">17</text>
	<text transform="matrix(1 0 0 1 64.50 77.50)">18</text>
	<text transform="matrix(1 0 0 1 52.25 73.50)">19</text>
</g>
</svg>
