<svg width="109" height="109" viewBox="0 0 109 109">
<g id="kvg:StrokePaths_0962f">
<g id="kvg:0962f">
	<g id="kvg:0962f-g1">
		<path id="kvg:0962f-s1" d="M16,19.05c0.94,0.14,1.95,0.15,3,0.08c4.25-0.29,13.01-2.04,15.19-2.94c2.72-1.12,5.44,1.12,4.23,3.73c-1.21,2.61-9.35,15.78-11.46,19.51"/>
		<path id="kvg:0962f-s2" d="M26.96,40c13.79,11,11.54,39,1.51,32.43"/>
		<path id="kvg:0962f-s3" d="M16.87,20.47c0.38,0.78,0.58,2.52,0.78,3.63c0.2,1.12,0,65.91-0.2,72.9"/>
	</g>
	<g id="kvg:0962f-g2">
		<g id="kvg:0962f-g3">
			<path id="kvg:0962f-s4" d="M68.82,13.5c1.25,0.57,1.99,2.58,2.24,3.72c0.25,1.15,0,67.33-0.25,74.48"/>
			<path id="kvg:0962f-s5" d="M71.2,49.64c5.86-1.14,13.15-2,18.14-2.29c1.92-0.11,2.4-0.29,3.6,0"/>
		</g>
		<path id="kvg:0962f-s6" d="M49.64,45.85c1.25,0.57,1.99,2.58,2.24,3.72c0.25,1.15,0,36.05-0.25,43.21"/>
		<path id="kvg:0962f-s7" d="M34.41,93.4c0.72,0.2,2.64,0.67,4.56,0.6c13.81-0.5,41.82-2.66,54.96-2.66c1.92,0,4.79,0.29,6.66,1.15"/>
	</g>
</g>
</g>
<g id="kvg:StrokeNumbers_0962f">
	<text transform="matrix(1 0 0 1 19.50 15.50)">1</text>
	<text transform="matrix(1 0 0 1 23.50 47.50)">2</text>
	<text transform="matrix(1 0 0 1 10.50 26.50)">3</text>
	<text transform="matrix(1 0 0 1 59.50 13.50)">4</text>
	<text transform="matrix(1 0 0 1 75.50 45.50)">5</text>
	<text transform="matrix(1 0 0 1 42.50 43.50)">6</text>
	<text transform="matrix(1 0 0 1 32.50 90.50)">7</text>
</g>
</svg>
