<svg width="109" height="109" viewBox="0 0 109 109">
<g id="kvg:StrokePaths_0962a">
<g id="kvg:0962a">
	<g id="kvg:0962a-g1">
		<path id="kvg:0962a-s1" d="M13.62,20.25c1.75,0.64,3.59,0.74,5.37,0.34c4.88-1.09,10.18-2.17,12.17-2.87c3.4-1.2,6.08,1.04,4.45,4.07c-1.34,2.5-4.5,7.97-7.65,13.94"/>
		<path id="kvg:0962a-s2" d="M27.35,36.5c12.56,8.33,8.02,34.88-0.93,26.5"/>
		<path id="kvg:0962a-s3" d="M14.62,21.25c0.88,0.88,1.1,1.92,1.1,3.25c0,0.81-0.06,38.88-0.08,58.25c-0.01,5.08-0.01,8.87-0.01,10.37"/>
	</g>
	<g id="kvg:0962a-g2">
		<g id="kvg:0962a-g3">
			<path id="kvg:0962a-s4" d="M44.56,24.24c2.51,0.67,5.02,0.63,7.56,0.23c8.38-1.34,16.38-2.96,25.14-4.39c2.76-0.45,5.41-0.71,8.11,0.02"/>
			<path id="kvg:0962a-s5" d="M47.37,25.43c0.85,0.85,1.15,1.95,1.09,3.77c-0.96,29.05-5.34,45.93-17.49,57.76"/>
		</g>
		<g id="kvg:0962a-g4">
			<path id="kvg:0962a-s6" d="M50.45,45.69c1.89,0.51,4.38,0.05,6.25-0.43c4.98-1.28,15.98-4.32,19.46-5.31c2.23-0.63,4.26,0.91,3.37,3.59C71.89,66.32,62,81.75,43.85,91.76"/>
			<path id="kvg:0962a-s7" d="M52.74,53.13c3.62,0.88,17.82,20.43,31.05,32.34c3.01,2.97,6.44,5.84,10.29,7.61"/>
		</g>
	</g>
</g>
</g>
<g id="kvg:StrokeNumbers_0962a">
	<text transform="matrix(1 0 0 1 17.50 17.50)">1</text>
	<text transform="matrix(1 0 0 1 23.50 45.50)">2</text>
	<text transform="matrix(1 0 0 1 8.50 27.48)">3</text>
	<text transform="matrix(1 0 0 1 43.50 21.50)">4</text>
	<text transform="matrix(1 0 0 1 40.50 33.33)">5</text>
	<text transform="matrix(1 0 0 1 52.50 42.50)">6</text>
	<text transform="matrix(1 0 0 1 50.50 61.50)">7</text>
</g>
</svg>
