<svg width="109" height="109" viewBox="0 0 109 109">
<g id="kvg:StrokePaths_0963b">
<g id="kvg:0963b">
	<g id="kvg:0963b-g1">
		<path id="kvg:0963b-s1" d="M18,21.5c1.12,0.5,2.21,0.87,3.48,0.7C28.75,21.25,34,20,38.64,18.93c3.25-0.75,4.58,1.55,3.17,4.01c-1.41,2.46-9.13,14.41-11.59,17.92"/>
		<path id="kvg:0963b-s2" d="M29.97,41.15C46.62,50,45.5,77.38,31.73,71.72"/>
		<path id="kvg:0963b-s3" d="M20.12,22.75c0.88,0.88,1.21,2.25,1.21,4c0,5.9,0.05,45.49,0.04,62c0,4.14,0,6.78-0.01,7"/>
	</g>
	<g id="kvg:0963b-g2">
		<g id="kvg:0963b-g3">
			<path id="kvg:0963b-s4" d="M53.46,22.09c1.03,1.03,1.18,2.16,1.18,3.56c0,1.03-0.02,56.12-0.02,62.84"/>
			<path id="kvg:0963b-s5" d="M55.55,23.73c2.27-0.1,22.12-2.98,23.81-3.16c3.03-0.31,4.56,1.17,4.56,4.48c0,4.82-0.04,52.82-0.04,59.89"/>
			<path id="kvg:0963b-s6" d="M55.88,44.88c7.73-0.72,20.36-2,27.15-2.22"/>
			<path id="kvg:0963b-s7" d="M55.84,65.61c6.06-0.36,19.82-2.01,26.83-2.06"/>
		</g>
		<g id="kvg:0963b-g4">
			<path id="kvg:0963b-s8" d="M41.54,89.57c2.62,0.97,5.9,0.6,8.59,0.42c11.43-0.76,29.43-2.34,40.75-2.6c2.59-0.06,5.21,0.06,7.75,0.63"/>
		</g>
	</g>
</g>
</g>
<g id="kvg:StrokeNumbers_0963b">
	<text transform="matrix(1 0 0 1 23.25 18.13)">1</text>
	<text transform="matrix(1 0 0 1 27.50 50.50)">2</text>
	<text transform="matrix(1 0 0 1 14.25 31.63)">3</text>
	<text transform="matrix(1 0 0 1 47.25 30.50)">4</text>
	<text transform="matrix(1 0 0 1 57.50 20.50)">5</text>
	<text transform="matrix(1 0 0 1 59.45 41.50)">6</text>
	<text transform="matrix(1 0 0 1 59.50 62.42)">7</text>
	<text transform="matrix(1 0 0 1 39.50 86.90)">8</text>
</g>
</svg>
