<svg width="109" height="109" viewBox="0 0 109 109">
<g id="kvg:StrokePaths_09640">
<g id="kvg:09640">
	<g id="kvg:09640-g1">
		<path id="kvg:09640-s1" d="M19.56,22.17c5.97-1,11.36-2,14.18-3c2.83-1,5.65,1,4.4,3.33s-7.59,13.67-9.79,17"/>
		<path id="kvg:09640-s2" d="M28.35,40c12.56,8.33,12.87,32.83,1.57,28.5"/>
		<path id="kvg:09640-s3" d="M17.87,20.75c1.03,0.5,1.64,2.25,1.85,3.25c0.2,1,0,66.25-0.21,72.5"/>
	</g>
	<g id="kvg:09640-g2">
		<g id="kvg:09640-g3">
			<path id="kvg:09640-s4" d="M65.98,14.49c0.86,0.4,2.09,2.33,2.07,3.47c-0.06,3.59-0.06,8.7-0.07,11.96"/>
			<g id="kvg:09640-g4">
				<path id="kvg:09640-s5" d="M47.63,31.24c0,3.62-1.85,11.09-2.92,13.51"/>
				<path id="kvg:09640-s6" d="M47.67,33.61c12.58-2.11,36.96-5.06,42.29-4.84c7.04,0.29-0.51,6.19-2.26,7.87"/>
			</g>
		</g>
		<g id="kvg:09640-g5">
			<path id="kvg:09640-s7" d="M85.52,45.51c0.19,0.35,0.3,1.37-0.18,1.91c-3.11,3.49-13.76,13.12-23.8,16.7"/>
			<path id="kvg:09640-s8" d="M57.5,40.88c0.77,1.02,0.82,1.7,1.08,3.05s-0.1,35.63-0.1,39.88c0,10.92,9.55,9.21,18.3,9.21c6.78,0,11.72-0.58,14.28-3.63c2.56-3.05,2.24-6.6,2.5-9.65"/>
		</g>
	</g>
</g>
</g>
<g id="kvg:StrokeNumbers_09640">
	<text transform="matrix(1 0 0 1 21.50 18.50)">1</text>
	<text transform="matrix(1 0 0 1 24.50 48.50)">2</text>
	<text transform="matrix(1 0 0 1 12.75 31.50)">3</text>
	<text transform="matrix(1 0 0 1 56.50 15.90)">4</text>
	<text transform="matrix(1 0 0 1 41.25 32.58)">5</text>
	<text transform="matrix(1 0 0 1 51.50 29.75)">6</text>
	<text transform="matrix(1 0 0 1 77.50 45.50)">7</text>
	<text transform="matrix(1 0 0 1 50.50 46.50)">8</text>
</g>
</svg>
