<svg width="109" height="109" viewBox="0 0 109 109">
<g id="kvg:StrokePaths_09644">
<g id="kvg:09644">
	<g id="kvg:09644-g1">
		<path id="kvg:09644-s1" d="M17.42,21.67c1.79,0.49,3.35,0.22,5.12-0.17c4.25-0.92,9.05-2.14,11.13-2.83c3-1,4.25,1.12,3.17,3.58C34.75,27,31.38,33.25,29,38"/>
		<path id="kvg:09644-s2" d="M29,38.5c13.25,11,8.75,36.75-0.83,28.5"/>
		<path id="kvg:09644-s3" d="M19.12,22.5c0.88,0.88,1.21,2.12,1.21,3.5c0,0.68,0.05,43.73,0.04,61.01c0,4.14,0,6.79-0.01,6.99"/>
	</g>
	<g id="kvg:09644-g2">
		<g id="kvg:09644-g3">
			<path id="kvg:09644-s4" d="M58.24,18.36c0.15,1.37-0.04,3.17-0.53,4.35c-3.11,7.5-8.11,16.45-15.24,25.58"/>
			<path id="kvg:09644-s5" d="M51.64,37.78c0.98,0.98,1.42,2.83,1.42,4.11c0,9.62-0.01,32.28-0.04,44.13C53.01,88.78,53,90.99,53,92.38"/>
		</g>
		<g id="kvg:09644-g4">
			<path id="kvg:09644-s6" d="M59.5,40.84c2.25,0.53,4.92,0.1,6.66-0.2c6.71-1.16,16.51-2.51,24.97-3.32c2.03-0.19,4.87-0.58,6.77-0.01"/>
			<path id="kvg:09644-s7" d="M82.64,17.18c1.02,1.02,1.41,2.57,1.41,4.66c0,16.91,0.01,57.78,0.01,63.54c0,10.78-6,2.07-8.01,0.29"/>
			<path id="kvg:09644-s8" d="M64.88,53.75c2.55,1.9,6.58,7.81,7.21,10.77"/>
		</g>
	</g>
</g>
</g>
<g id="kvg:StrokeNumbers_09644">
	<text transform="matrix(1 0 0 1 22.50 18.13)">1</text>
	<text transform="matrix(1 0 0 1 26.50 49.50)">2</text>
	<text transform="matrix(1 0 0 1 13.50 29.50)">3</text>
	<text transform="matrix(1 0 0 1 48.75 18.13)">4</text>
	<text transform="matrix(1 0 0 1 45.75 54.05)">5</text>
	<text transform="matrix(1 0 0 1 58.50 38.50)">6</text>
	<text transform="matrix(1 0 0 1 74.25 18.50)">7</text>
	<text transform="matrix(1 0 0 1 58.50 55.50)">8</text>
</g>
</svg>
