<svg width="109" height="109" viewBox="0 0 109 109">
<g id="kvg:StrokePaths_0965d">
<g id="kvg:0965d">
	<g id="kvg:0965d-g1">
		<path id="kvg:0965d-s1" d="M14.75,17c0.71,0.61,1.65,1.03,2.74,1.08C21,18.25,28.75,17,32.64,16.21c3.2-0.65,5.12,1.15,3.76,3.83c-1.36,2.68-7.63,15.71-10.01,19.55"/>
		<path id="kvg:0965d-s2" d="M26.38,39.59C40.25,52.5,36,80,27.58,71.93"/>
		<path id="kvg:0965d-s3" d="M16.54,18.53c0,1.72-0.22,2.59,0,3.74c0.22,1.15,0,68.3-0.22,75.49"/>
	</g>
	<g id="kvg:0965d-g2">
		<g id="kvg:0965d-g3">
			<path id="kvg:0965d-s4" d="M39.38,30.13c0.95,0.36,3.49,0.77,5.51,0.62c13.67-1.06,31.63-3.19,43.9-3.7c2.11-0.09,3.81-0.04,5.71,0.23"/>
			<path id="kvg:0965d-s5" d="M49.61,51.47C47.92,56.5,43.52,63.63,40,66.48"/>
			<path id="kvg:0965d-s6" d="M43.83,40.49c0.5,0,0.98,0.59,1.18,1.09c2.91,7.45,7.31,15.73,12.01,20.92c0.47,0.52,0.8,0.84,1.24,1"/>
		</g>
		<g id="kvg:0965d-g4">
			<path id="kvg:0965d-s7" d="M83.61,47.97C82.09,52.25,78.15,58.3,75,60.73"/>
			<path id="kvg:0965d-s8" d="M78.08,38.99c0.62,0,1.22,0.63,1.46,1.16c3.62,7.93,9.08,16.76,14.92,22.28c0.59,0.56,1,0.89,1.54,1.07"/>
		</g>
		<g id="kvg:0965d-g5">
			<path id="kvg:0965d-s9" d="M65,13.25c0.46,1.18,0.68,2.55,0.68,5.11c0,45.64-3.18,64.39-29.18,81.32"/>
			<path id="kvg:0965d-s10" d="M64.53,53.26C69.5,64.25,79.5,83.75,90.41,94.37C92.49,96.4,93.09,96.8,94,97"/>
		</g>
	</g>
</g>
</g>
<g id="kvg:StrokeNumbers_0965d">
	<text transform="matrix(1 0 0 1 18.50 15.50)">1</text>
	<text transform="matrix(1 0 0 1 22.50 48.50)">2</text>
	<text transform="matrix(1 0 0 1 9.44 24.50)">3</text>
	<text transform="matrix(1 0 0 1 39.50 27.50)">4</text>
	<text transform="matrix(1 0 0 1 41.50 55.50)">5</text>
	<text transform="matrix(1 0 0 1 48.50 43.50)">6</text>
	<text transform="matrix(1 0 0 1 75.75 52.50)">7</text>
	<text transform="matrix(1 0 0 1 83.50 42.50)">8</text>
	<text transform="matrix(1 0 0 1 55.50 12.50)">9</text>
	<text transform="matrix(1 0 0 1 74.50 70.50)">10</text>
</g>
</svg>
