<svg width="109" height="109" viewBox="0 0 109 109">
<g id="kvg:StrokePaths_0965e">
<g id="kvg:0965e">
	<g id="kvg:0965e-g1">
		<path id="kvg:0965e-s1" d="M15.5,17c0.9,0.27,1.93,0.59,3,0.44c6.5-0.94,11.13-2.29,13.64-3.23c3.06-1.15,6.12,1.15,4.76,3.83c-1.36,2.68-7.13,15.71-9.51,19.55"/>
		<path id="kvg:0965e-s2" d="M27.38,38.09c13.59,9.58,11.87,42.91,0.7,31.84"/>
		<path id="kvg:0965e-s3" d="M17.54,18.03c0.46,1.47,0.28,3.09,0.5,4.24c0.22,1.15,0,67.3-0.22,74.49"/>
	</g>
	<g id="kvg:0965e-g2">
		<g id="kvg:0965e-g3">
			<g id="kvg:0965e-g4">
				<path id="kvg:0965e-s4" d="M64.98,13.96c0.06,0.38,0.23,1.1-0.12,1.53c-4.39,5.37-10.89,10.3-22.34,14.63"/>
			</g>
			<g id="kvg:0965e-g5">
				<g id="kvg:0965e-g6">
					<path id="kvg:0965e-s5" d="M56.36,27.83c0.46,0.87,0.88,1.78,0.92,3.05c0.37,11.59-1.46,28.08-13.59,34.41"/>
				</g>
				<g id="kvg:0965e-g7">
					<path id="kvg:0965e-s6" d="M39.13,40.84c1.26,0.33,3.57,0.39,4.84,0.33c13.13-0.56,31.08-4.6,47.75-4.89c2.1-0.04,3.36,0.16,4.42,0.33"/>
					<path id="kvg:0965e-s7" d="M77.22,15.5c1.21,1.13,1.89,2.67,1.89,3.9c0,8.1,0,37.6-0.28,45.1"/>
				</g>
			</g>
		</g>
		<g id="kvg:0965e-g8">
			<path id="kvg:0965e-s8" d="M46.09,75.8c1.01,0.29,2.87,0.37,3.89,0.29c10.52-0.84,22.06-3.05,35.17-3.31c1.69-0.03,2.7,0.14,3.55,0.28"/>
			<path id="kvg:0965e-s9" d="M65.05,58c0.09,0.22,1.34,1.15,1.34,2.56c0,9.05-0.27,19.45-0.27,31.42"/>
			<path id="kvg:0965e-s10" d="M35.61,93.75c1.68,0.41,4.77,0.48,6.45,0.41C57,93.5,73.86,92.26,92.5,91.72c2.8-0.08,4.49,0.19,5.89,0.4"/>
		</g>
	</g>
</g>
</g>
<g id="kvg:StrokeNumbers_0965e">
	<text transform="matrix(1 0 0 1 19.50 14.50)">1</text>
	<text transform="matrix(1 0 0 1 23.50 46.06)">2</text>
	<text transform="matrix(1 0 0 1 10.50 23.50)">3</text>
	<text transform="matrix(1 0 0 1 56.50 13.50)">4</text>
	<text transform="matrix(1 0 0 1 49.00 34.58)">5</text>
	<text transform="matrix(1 0 0 1 34.75 37.01)">6</text>
	<text transform="matrix(1 0 0 1 70.50 13.50)">7</text>
	<text transform="matrix(1 0 0 1 38.50 77.50)">8</text>
	<text transform="matrix(1 0 0 1 60.50 55.50)">9</text>
	<text transform="matrix(1 0 0 1 32.50 90.50)">10</text>
</g>
</svg>
