<svg width="109" height="109" viewBox="0 0 109 109">
<g id="kvg:StrokePaths_0968b">
<g id="kvg:0968b">
	<g id="kvg:0968b-g1">
		<path id="kvg:0968b-s1" d="M17.25,15.75c0.98,0.08,2.49,0.74,3.5,0.65c6.75-0.65,10.4-1.05,12.81-1.96c2.86-1.08,5.73,1.08,4.46,3.59c-1.27,2.51-7.68,16.21-9.91,19.8"/>
		<path id="kvg:0968b-s2" d="M28.11,37.83C43.5,47.5,39.5,77.75,29.7,68.05"/>
		<path id="kvg:0968b-s3" d="M18.99,16.14c0,0.83,0.37,0.86,0.37,3c0,5.11,0,69.63-0.21,76.36"/>
	</g>
	<g id="kvg:0968b-g2">
		<g id="kvg:0968b-g3">
			<g id="kvg:0968b-g4">
				<path id="kvg:0968b-s4" d="M45.98,20.28c1.51,0.19,3.02,0.4,4.37,0.3c11.87-0.84,23.02-1.9,37.8-2.8c2.07-0.13,3.16-0.13,4.86,0.26"/>
				<path id="kvg:0968b-s5" d="M62.84,8.75c0.14,0.75,0.23,2.12-0.02,2.96c-4.37,14.46-11.37,26.06-21.95,34.13"/>
			</g>
			<g id="kvg:0968b-g5">
				<path id="kvg:0968b-s6" d="M57.64,30.73c0.5,0.24,2.87,0.28,3.38,0.24c3.77-0.29,14.76-1.23,20.33-1.97c0.77-0.1,2.58,0.05,3.22,0.25"/>
				<path id="kvg:0968b-s7" d="M67.35,30.68c1.03,0.72,1.4,1.73,1.4,2.31c0,2.76,0.03,5.76,0.03,8.65"/>
				<path id="kvg:0968b-s8" d="M50.33,42.71c0.67,0.18,2.71,0.31,3.85,0.29c9.71-0.15,23.82-2.25,33.99-2.67c1.83-0.07,3.3,0.3,4.21,0.59"/>
			</g>
		</g>
		<g id="kvg:0968b-g6">
			<path id="kvg:0968b-s9" d="M53.03,52.08c0.58,0.66,1.15,2.29,1.15,2.97c0,3.95,0.27,39.06,0.19,40.49"/>
			<path id="kvg:0968b-s10" d="M55.33,53.46c2.3-0.05,23.39-2.3,25.11-2.4c3.07-0.18,3.83,0.93,3.83,3.2c0,3.23-0.58,21.88-0.58,34.79c0,11.44-3.45,4.69-6.02,2.14"/>
			<path id="kvg:0968b-s11" d="M55.33,64.24c7.86-0.6,20.7-1.96,27.6-2.12"/>
			<path id="kvg:0968b-s12" d="M54.41,75.36c6.13-0.2,20.34-1.36,29.14-2.03"/>
		</g>
	</g>
</g>
</g>
<g id="kvg:StrokeNumbers_0968b">
	<text transform="matrix(1 0 0 1 21.50 13.25)">1</text>
	<text transform="matrix(1 0 0 1 25.25 46.25)">2</text>
	<text transform="matrix(1 0 0 1 11.50 23.25)">3</text>
	<text transform="matrix(1 0 0 1 45.25 17.25)">4</text>
	<text transform="matrix(1 0 0 1 53.25 9.08)">5</text>
	<text transform="matrix(1 0 0 1 61.00 28.25)">6</text>
	<text transform="matrix(1 0 0 1 61.50 38.68)">7</text>
	<text transform="matrix(1 0 0 1 54.00 39.85)">8</text>
	<text transform="matrix(1 0 0 1 46.00 60.03)">9</text>
	<text transform="matrix(1 0 0 1 55.25 50.25)">10</text>
	<text transform="matrix(1 0 0 1 58.25 61.25)">11</text>
	<text transform="matrix(1 0 0 1 58.25 72.25)">12</text>
</g>
</svg>
