<svg width="109" height="109" viewBox="0 0 109 109">
<g id="kvg:StrokePaths_096bb">
<g id="kvg:096bb">
	<g id="kvg:096bb-g1">
		<g id="kvg:096bb-g2">
			<path id="kvg:096bb-s1" d="M35.31,12.5c0.19,1.16-0.05,2.67-0.65,3.67c-3.82,6.32-7.92,11.43-16.67,19.13"/>
			<path id="kvg:096bb-s2" d="M29.59,26.72c0.97,0.97,1.25,2.15,1.25,3.53c0,6.5-0.02,17.37-0.02,24.75c0,1.72,0,3.26,0,4.5"/>
		</g>
		<path id="kvg:096bb-s3" d="M59.36,11.5c0.06,0.65-0.02,1.5-0.2,2.05c-1.16,3.54-2.88,6.02-5.54,10.33"/>
		<path id="kvg:096bb-s4" d="M31.43,28.13c6.94-0.49,29.27-3.19,41.32-4.58c3.62-0.42,6.25-0.71,7.14-0.79"/>
		<path id="kvg:096bb-s5" d="M52.97,27.74c0.96,0.96,1.28,2.26,1.28,4.03c0,6.73,0.03,13.23,0.03,23.02"/>
		<path id="kvg:096bb-s6" d="M32.04,38.28c6.35-0.4,24.6-2.73,34.98-3.87c3.53-0.39,6.14-0.67,7.07-0.75"/>
		<path id="kvg:096bb-s7" d="M32.01,47.53c6.61-0.33,24.38-2.29,35.04-3.53c3.79-0.44,6.65-0.76,7.75-0.83"/>
		<path id="kvg:096bb-s8" d="M32.11,57.02c7.24-0.52,32.81-2.63,44.64-3.52c2.92-0.22,5-0.38,5.76-0.45"/>
	</g>
	<g id="kvg:096bb-g3">
		<path id="kvg:096bb-s9" d="M31.8,67.27C34,68,36,67.75,38.02,67.5c3.04-0.37,22.01-3.21,28.39-4.16c3.65-0.54,6.17,1.26,3.3,4.84C59.25,81.25,43.62,90.88,23.5,98.13"/>
		<path id="kvg:096bb-s10" d="M34.34,74.88c4.47,0.48,23.41,10.87,39.94,17.98c3.87,1.66,8.01,3.13,12.22,3.64"/>
	</g>
</g>
</g>
<g id="kvg:StrokeNumbers_096bb">
	<text transform="matrix(1 0 0 1 28.50 13.63)">1</text>
	<text transform="matrix(1 0 0 1 23.25 40.55)">2</text>
	<text transform="matrix(1 0 0 1 50.50 11.50)">3</text>
	<text transform="matrix(1 0 0 1 36.75 24.13)">4</text>
	<text transform="matrix(1 0 0 1 57.50 32.50)">5</text>
	<text transform="matrix(1 0 0 1 35.25 35.50)">6</text>
	<text transform="matrix(1 0 0 1 35.25 45.92)">7</text>
	<text transform="matrix(1 0 0 1 35.25 54.85)">8</text>
	<text transform="matrix(1 0 0 1 35.25 65.50)">9</text>
	<text transform="matrix(1 0 0 1 41.25 76.33)">10</text>
</g>
</svg>
