<svg width="109" height="109" viewBox="0 0 109 109">
<g id="kvg:StrokePaths_096ce">
<g id="kvg:096ce">
	<g id="kvg:096ce-g1">
		<g id="kvg:096ce-g2">
			<path id="kvg:096ce-s1" d="M18.5,19.44c0.45,0.96,0.75,1.9,0.9,2.83c0.15,0.93,0.33,65.93,0.27,68"/>
			<path id="kvg:096ce-s2" d="M20.29,20.49c1.78-0.1,18.07-2.26,19.4-2.42c2.37-0.28,3.27,2.74,2.98,4.1c-0.28,1.31-0.14,40.13-0.23,58.77"/>
			<path id="kvg:096ce-s3" d="M20.35,41.05c10.05-1.62,13.49-1.67,21.32-2.58"/>
			<path id="kvg:096ce-s4" d="M20.21,61.29c6.52-1.33,14.39-1.42,22.11-2.31"/>
		</g>
		<g id="kvg:096ce-g3">
			<path id="kvg:096ce-s5" d="M10.26,91.44c1,1.09,1.99,1.77,4.17,1.08c1.55-0.49,27.55-10.46,34.05-13.13"/>
		</g>
	</g>
	<g id="kvg:096ce-g4">
		<g id="kvg:096ce-g5">
			<path id="kvg:096ce-s6" d="M62.22,13.54c0.16,1.7-0.05,3.93-0.57,5.39c-3.32,9.29-7.54,17.15-15.16,28.46"/>
			<path id="kvg:096ce-s7" d="M56.45,35.56c0.61,0.94,1.08,3,1.12,4.46c0.36,12.99-0.5,52.47-0.19,59.23"/>
		</g>
		<path id="kvg:096ce-s8" d="M81.15,14.5c0.09,0.98-0.02,2.26-0.31,3.1c-1.81,5.34-4.1,9.47-8.25,15.97"/>
		<path id="kvg:096ce-s9" d="M57.84,36.8c10.04-0.71,35.63-3.14,38.67-3.81"/>
		<path id="kvg:096ce-s10" d="M75.17,38.32c0.34,0.48,1.1,2.21,1.1,3.04c0,8.43,0.04,36.01-0.17,49.28"/>
		<path id="kvg:096ce-s11" d="M57.84,54.96c6.69-1.01,33.06-2.35,35.93-2.91"/>
		<path id="kvg:096ce-s12" d="M58.03,71.53c7.06-0.85,33.66-2.52,36.69-2.98"/>
		<path id="kvg:096ce-s13" d="M57.53,92.35c7.09-1.22,38.43-1.95,41.47-2.62"/>
	</g>
</g>
</g>
<g id="kvg:StrokeNumbers_096ce">
	<text transform="matrix(1 0 0 1 11.50 24.50)">1</text>
	<text transform="matrix(1 0 0 1 21.50 16.50)">2</text>
	<text transform="matrix(1 0 0 1 24.50 37.50)">3</text>
	<text transform="matrix(1 0 0 1 24.75 57.50)">4</text>
	<text transform="matrix(1 0 0 1 3.50 95.50)">5</text>
	<text transform="matrix(1 0 0 1 52.50 12.50)">6</text>
	<text transform="matrix(1 0 0 1 50.50 51.50)">7</text>
	<text transform="matrix(1 0 0 1 72.50 13.50)">8</text>
	<text transform="matrix(1 0 0 1 62.50 32.50)">9</text>
	<text transform="matrix(1 0 0 1 78.50 44.95)">10</text>
	<text transform="matrix(1 0 0 1 60.50 51.50)">11</text>
	<text transform="matrix(1 0 0 1 60.50 68.50)">12</text>
	<text transform="matrix(1 0 0 1 60.50 88.50)">13</text>
</g>
</svg>
