<svg width="109" height="109" viewBox="0 0 109 109">
<g id="kvg:StrokePaths_096eb">
<g id="kvg:096eb">
	<g id="kvg:096eb-g1">
		<path id="kvg:096eb-s1" d="M33.66,13.81c2.62,0.51,5.21,0.33,7.84,0.12c6.91-0.56,16.69-1.66,23.38-2.11c2.64-0.22,5.29-0.25,7.93-0.09"/>
		<path id="kvg:096eb-s2" d="M19.93,24.42c-0.26,5.08-2.57,10.96-4.28,16.09"/>
		<path id="kvg:096eb-s3" d="M20.85,26.82c27.77-2.45,39.4-4.32,67.05-5.09c13.1-0.36,1.17,6.58-0.28,8.18"/>
		<path id="kvg:096eb-s4" d="M52.42,15.82c0.91,1.36,1.31,2.26,1.33,3.6c0.01,0.48-0.27,23.27-0.27,24.59"/>
		<path id="kvg:096eb-s5" d="M32.5,30.93c2.99,0.68,7.08,2.71,8.71,3.83"/>
		<path id="kvg:096eb-s6" d="M30,40.51c3.08,0.72,7.84,3.37,9.52,4.57"/>
		<path id="kvg:096eb-s7" d="M66.75,28.93c3.56,0.93,7.6,2.79,9.03,3.57"/>
		<path id="kvg:096eb-s8" d="M66.04,39.23c3.46,1.15,6.87,3.4,8.45,4.71"/>
	</g>
	<g id="kvg:096eb-g2">
		<g id="kvg:096eb-g3">
			<path id="kvg:096eb-s9" d="M18.11,54.93c4.15,0.92,8.23,0.39,12.51-0.08c12.95-1.42,33.26-3.1,46.89-3.67c4.22-0.17,8.37-0.19,12.14,0.88"/>
		</g>
		<g id="kvg:096eb-g4">
			<path id="kvg:096eb-s10" d="M52.35,55.57c0.85,0.85,1.16,2.05,1.16,3.87c0,6.8,0,20.07,0,31.06c0,3.6,0,6.95,0,9.75"/>
			<path id="kvg:096eb-s11" d="M57.92,65.51C70.25,72.88,75.25,77.12,78,81.27"/>
		</g>
	</g>
</g>
</g>
<g id="kvg:StrokeNumbers_096eb">
	<text transform="matrix(1 0 0 1 31.50 11.50)">1</text>
	<text transform="matrix(1 0 0 1 12.50 27.50)">2</text>
	<text transform="matrix(1 0 0 1 23.50 23.50)">3</text>
	<text transform="matrix(1 0 0 1 46.50 22.40)">4</text>
	<text transform="matrix(1 0 0 1 26.25 35.50)">5</text>
	<text transform="matrix(1 0 0 1 22.50 44.50)">6</text>
	<text transform="matrix(1 0 0 1 59.25 32.50)">7</text>
	<text transform="matrix(1 0 0 1 58.50 42.50)">8</text>
	<text transform="matrix(1 0 0 1 11.25 56.50)">9</text>
	<text transform="matrix(1 0 0 1 42.50 62.50)">10</text>
	<text transform="matrix(1 0 0 1 58.50 64.50)">11</text>
</g>
</svg>
