<svg width="109" height="109" viewBox="0 0 109 109">
<g id="kvg:StrokePaths_096fb">
<g id="kvg:096fb">
	<g id="kvg:096fb-g1">
		<path id="kvg:096fb-s1" d="M34.66,16.19c2.31,0.7,4.78,0.25,7.11-0.04c6.03-0.75,16.15-1.97,23.49-2.76c2.19-0.23,4.03-0.14,6.05,0.1"/>
		<path id="kvg:096fb-s2" d="M19.51,29.11c-0.2,5.55-1.93,11.7-3.21,17.3"/>
		<path id="kvg:096fb-s3" d="M20.85,32.18C37.62,30.38,70,25.62,86.4,25.2c9.1-0.24,2.35,6.05-0.78,9.53"/>
		<path id="kvg:096fb-s4" d="M50.92,17.26c1.1,1.1,1.83,2.49,1.83,3.76c0,3.98-0.16,17.08-0.23,23.73c-0.02,2.1-0.04,3.56-0.04,3.89"/>
		<path id="kvg:096fb-s5" d="M32.75,36.46c3.42,0.53,8.09,2.12,9.96,3"/>
		<path id="kvg:096fb-s6" d="M31.25,45c3.16,0.57,8.05,2.68,9.77,3.64"/>
		<path id="kvg:096fb-s7" d="M65.5,33.47c3.66,0.79,7.81,2.37,9.28,3.03"/>
		<path id="kvg:096fb-s8" d="M65.54,41.89c2.82,0.77,6.67,3.06,8.21,4.34"/>
	</g>
	<g id="kvg:096fb-g2">
		<g id="kvg:096fb-g3">
			<path id="kvg:096fb-s9" d="M25.86,55.87c0.89,1.04,1.07,1.52,1.21,2.88c0.47,4.62,2.55,21.84,2.55,22.22c0,0.43,0.19,1.93,0.37,2.79"/>
			<path id="kvg:096fb-s10" d="M28.04,57.11c10.79-1,41.49-4.23,43.85-4.37c4.11-0.24,5.36,1.76,4.73,4.82c-0.27,1.31-2.37,9.94-4.05,17.74c-0.2,0.95-0.69,2.39-0.69,3.04"/>
			<path id="kvg:096fb-s11" d="M29.46,68.34c7.42-0.97,36.17-3.47,44.14-3.8"/>
			<path id="kvg:096fb-s12" d="M31.02,80.34C42.25,79,59.5,77.75,71.25,76.75"/>
		</g>
		<path id="kvg:096fb-s13" d="M48.42,57.62c1.08,1.13,1.45,2.8,1.45,4.78c0,4.85-0.1,12.75-0.1,18.85c0,12.75,1.48,14.5,20.5,14.5c19.23,0,20.18-2.75,20.18-10.82"/>
	</g>
</g>
</g>
<g id="kvg:StrokeNumbers_096fb">
	<text transform="matrix(1 0 0 1 28.50 18.50)">1</text>
	<text transform="matrix(1 0 0 1 12.50 31.63)">2</text>
	<text transform="matrix(1 0 0 1 22.50 28.50)">3</text>
	<text transform="matrix(1 0 0 1 45.50 24.50)">4</text>
	<text transform="matrix(1 0 0 1 26.50 40.50)">5</text>
	<text transform="matrix(1 0 0 1 24.50 47.50)">6</text>
	<text transform="matrix(1 0 0 1 59.50 35.50)">7</text>
	<text transform="matrix(1 0 0 1 58.50 43.50)">8</text>
	<text transform="matrix(1 0 0 1 19.50 62.50)">9</text>
	<text transform="matrix(1 0 0 1 27.50 54.50)">10</text>
	<text transform="matrix(1 0 0 1 31.50 65.50)">11</text>
	<text transform="matrix(1 0 0 1 31.50 77.50)">12</text>
	<text transform="matrix(1 0 0 1 53.50 62.50)">13</text>
</g>
</svg>
