<svg width="109" height="109" viewBox="0 0 109 109">
<g id="kvg:StrokePaths_0970e">
<g id="kvg:0970e">
	<g id="kvg:0970e-g1">
		<path id="kvg:0970e-s1" d="M31.16,12.06c1.84,0.44,4.24,0.78,5.69,0.65C44.6,12,64.6,10.24,71.58,10.14c2.04-0.03,2.61-0.14,4.48,0.1"/>
		<path id="kvg:0970e-s2" d="M19.18,20.67C18.85,25.83,16,31.55,13.9,36.77"/>
		<path id="kvg:0970e-s3" d="M19.85,23.32c7.4-1.02,51.84-4.84,67.55-4.84c9.1,0,1.17,7.33-0.28,8.93"/>
		<path id="kvg:0970e-s4" d="M53.42,12.32c0.91,1.36,1.31,2.26,1.33,3.6c0.01,0.48-0.27,17.27-0.27,18.59"/>
		<path id="kvg:0970e-s5" d="M33.25,24.68c3.42,0.72,8.09,2.88,9.96,4.07"/>
		<path id="kvg:0970e-s6" d="M28.25,31.51c3.65,0.96,9.28,4.48,11.27,6.07"/>
		<path id="kvg:0970e-s7" d="M66.25,23.75c4.55,1.22,9.71,3.67,11.53,4.69"/>
		<path id="kvg:0970e-s8" d="M65.29,31.23c3.85,1.23,9.1,4.91,11.2,6.96"/>
	</g>
	<g id="kvg:0970e-g2">
		<g id="kvg:0970e-g3">
			<g id="kvg:0970e-g4">
				<path id="kvg:0970e-s9" d="M52.29,37.75c1.22,0.74,1.83,0.74,1.83,2.45s0,2.56,0,5.21"/>
				<path id="kvg:0970e-s10" d="M22.74,47.38c1.65,0.37,3.57,0.43,5.21,0.37c9.29-0.32,41.09-3.86,55.13-4.13c2.74-0.05,4.39,0.18,5.76,0.36"/>
			</g>
			<g id="kvg:0970e-g5">
				<path id="kvg:0970e-s11" d="M35.64,49.6c3.86,2.85,5.61,5.76,5.96,7.64"/>
				<path id="kvg:0970e-s12" d="M71.33,46.21c0.17,0.79,0.49,1.54,0.44,1.84c-0.35,2.05-3.59,7.56-4.47,9.12"/>
				<path id="kvg:0970e-s13" d="M14.75,61.28c2.3,0.5,5.01,0.63,7.29,0.5C39,60.75,70.25,58.5,86.94,57.79c3.84-0.16,6.14,0.24,8.06,0.49"/>
			</g>
		</g>
		<g id="kvg:0970e-g6">
			<path id="kvg:0970e-s14" d="M51.16,62.45c0.49,0.86,0.33,1.98-0.25,3C48,70.58,43.68,77.94,36.98,83.6c-0.98,0.83-0.26,1.5,0.75,1.49C50,84.98,72,91.5,81.25,99.5"/>
			<path id="kvg:0970e-s15" d="M68.87,70.21c0.14,0.72,0.24,2.49-0.28,3.54c-4.13,8.5-16.05,20.17-45.59,26.5"/>
			<path id="kvg:0970e-s16" d="M15.88,73.54c1.21,0.37,3.42,0.4,5.85,0.37C32.5,73.75,69,71.25,88.35,70.92c2.02-0.04,5.51,0.35,7.15,1"/>
		</g>
	</g>
</g>
</g>
<g id="kvg:StrokeNumbers_0970e">
	<text transform="matrix(1 0 0 1 24.50 12.50)">1</text>
	<text transform="matrix(1 0 0 1 13.50 22.50)">2</text>
	<text transform="matrix(1 0 0 1 21.50 19.50)">3</text>
	<text transform="matrix(1 0 0 1 46.50 18.50)">4</text>
	<text transform="matrix(1 0 0 1 26.50 29.50)">5</text>
	<text transform="matrix(1 0 0 1 21.50 35.50)">6</text>
	<text transform="matrix(1 0 0 1 59.50 27.50)">7</text>
	<text transform="matrix(1 0 0 1 57.50 35.50)">8</text>
	<text transform="matrix(1 0 0 1 44.50 40.50)">9</text>
	<text transform="matrix(1 0 0 1 12.50 48.50)">10</text>
	<text transform="matrix(1 0 0 1 28.50 55.50)">11</text>
	<text transform="matrix(1 0 0 1 60.50 52.50)">12</text>
	<text transform="matrix(1 0 0 1 4.50 63.50)">13</text>
	<text transform="matrix(1 0 0 1 39.50 67.50)">14</text>
	<text transform="matrix(1 0 0 1 68.50 67.50)">15</text>
	<text transform="matrix(1 0 0 1 5.50 74.50)">16</text>
</g>
</svg>
