<svg width="109" height="109" viewBox="0 0 109 109">
<g id="kvg:StrokePaths_0976b">
<g id="kvg:0976b">
	<g id="kvg:0976b-g1">
		<g id="kvg:0976b-g2">
			<g id="kvg:0976b-g3">
				<path id="kvg:0976b-s1" d="M11.4,23.88c0.62,0.27,1.77,0.31,2.4,0.27c3.27-0.24,24.84-2.71,31.72-2.83c1.04-0.02,1.67,0.13,2.19,0.26"/>
				<path id="kvg:0976b-s2" d="M18.85,14.46c0.47,0.33,0.75,1.48,0.84,2.14c0.81,5.9,1.56,10.65,2.23,17.9"/>
			</g>
			<path id="kvg:0976b-s3" d="M37.06,11.75c0.46,0.33,0.9,1.47,0.84,2.14c-0.65,6.86-0.33,8.92-1.57,18.13"/>
			<path id="kvg:0976b-s4" d="M22.83,33.25c1.77,0,13.18-1.23,14.77-1.37"/>
		</g>
		<g id="kvg:0976b-g4">
			<path id="kvg:0976b-s5" d="M13.76,44.05c0.29,0.51,0.58,0.93,0.7,1.56c0.99,5.01,1.83,8.1,2.5,17.1"/>
			<path id="kvg:0976b-s6" d="M15.48,45.44c8.69-1.93,24.22-3.42,27.94-4.17c1.36-0.27,2.52,1.64,2.28,3.22c-0.49,3.26-1.8,7.22-2.87,12.89"/>
			<path id="kvg:0976b-s7" d="M17.31,61.47c4.38-0.84,19.65-2.69,26.87-3.26"/>
			<path id="kvg:0976b-s8" d="M11.25,74.28c1.01,0.47,3.84,1.01,4.86,0.97c6.11-0.21,20.14-2.51,28.86-3.76c1.66-0.24,2.69,0.23,3.53,0.46"/>
			<path id="kvg:0976b-s9" d="M28.96,35.25c0.36,1,0.54,2.23,0.54,3.25c0,8.5,0,52.75-0.12,59"/>
		</g>
	</g>
	<g id="kvg:0976b-g5">
		<g id="kvg:0976b-g6">
			<path id="kvg:0976b-s10" d="M53.03,23.45c1.58,0.5,3.72,0.92,6.95,0.5c5.27-0.69,22.88-4.45,25.13-4.94c3.39-0.75,5.14,1.25,3.97,5.46C80.1,56.83,60.83,84.81,43,96.97"/>
		</g>
		<g id="kvg:0976b-g7">
			<path id="kvg:0976b-s11" d="M64.4,33.1c2.97,1.85,7.68,7.61,8.42,10.49"/>
		</g>
		<g id="kvg:0976b-g8">
			<path id="kvg:0976b-s12" d="M50.67,30.64C54.87,32.05,70.25,76,88.95,91.42c2.56,2.11,3.93,4.02,6.05,4.83"/>
		</g>
	</g>
</g>
</g>
<g id="kvg:StrokeNumbers_0976b">
	<text transform="matrix(1 0 0 1 5.50 23.50)">1</text>
	<text transform="matrix(1 0 0 1 12.50 11.50)">2</text>
	<text transform="matrix(1 0 0 1 30.50 8.85)">3</text>
	<text transform="matrix(1 0 0 1 24.50 31.50)">4</text>
	<text transform="matrix(1 0 0 1 7.50 51.50)">5</text>
	<text transform="matrix(1 0 0 1 17.50 42.50)">6</text>
	<text transform="matrix(1 0 0 1 19.50 57.50)">7</text>
	<text transform="matrix(1 0 0 1 4.50 75.50)">8</text>
	<text transform="matrix(1 0 0 1 32.50 40.50)">9</text>
	<text transform="matrix(1 0 0 1 51.50 20.50)">10</text>
	<text transform="matrix(1 0 0 1 65.50 32.50)">11</text>
	<text transform="matrix(1 0 0 1 43.50 38.50)">12</text>
</g>
</svg>
