<svg width="109" height="109" viewBox="0 0 109 109">
<g id="kvg:StrokePaths_09801">
<g id="kvg:09801">
	<g id="kvg:09801-g1">
		<path id="kvg:09801-s1" d="M18.88,18.48c1.52,0.54,4.31,0.7,5.82,0.54c16.8-1.77,48.55-4.02,63.11-4.73c2.53-0.12,4.05,0.26,5.31,0.53"/>
		<path id="kvg:09801-s2" d="M55.02,18.5c0.02,0.29,0.03,0.75-0.03,1.16c-0.39,2.44-3.15,8.31-6.24,11.59"/>
	</g>
	<g id="kvg:09801-g2">
		<g id="kvg:09801-g3">
			<path id="kvg:09801-s3" d="M33.75,32.52c0.68,1.09,1.68,1.9,1.68,3.35c0,1.45-0.46,39.94-0.46,40.67c0,0.73,0.23,0.73,0.46,2.18"/>
			<path id="kvg:09801-s4" d="M36.57,34.47c3.87-0.18,35.89-4.51,39.42-4.72c2.94-0.18,3.51,1.26,3.51,3.36c0,1.74-0.87,40.79-0.87,41.88"/>
			<path id="kvg:09801-s5" d="M36.51,48.31c6.74-0.81,33.74-4.06,42.03-4.45"/>
			<path id="kvg:09801-s6" d="M36.32,62.17c8.93-0.92,31.18-3.67,41.76-4.18"/>
			<path id="kvg:09801-s7" d="M35.82,76.58c8.93-1.08,30.49-4.13,41.76-4.68"/>
		</g>
		<g id="kvg:09801-g4">
			<path id="kvg:09801-s8" d="M43.5,82.25c0.54,1.37,0.42,2.1-0.5,3.25C40,89.25,32,95,23.75,99"/>
			<path id="kvg:09801-s9" d="M69.5,83.08C75.92,86.31,84,93.67,85.75,96.5"/>
		</g>
	</g>
</g>
</g>
<g id="kvg:StrokeNumbers_09801">
	<text transform="matrix(1 0 0 1 12.50 18.50)">1</text>
	<text transform="matrix(1 0 0 1 60.50 25.63)">2</text>
	<text transform="matrix(1 0 0 1 27.50 40.50)">3</text>
	<text transform="matrix(1 0 0 1 36.75 30.50)">4</text>
	<text transform="matrix(1 0 0 1 39.75 44.83)">5</text>
	<text transform="matrix(1 0 0 1 39.75 58.25)">6</text>
	<text transform="matrix(1 0 0 1 39.75 73.18)">7</text>
	<text transform="matrix(1 0 0 1 30.75 88.63)">8</text>
	<text transform="matrix(1 0 0 1 60.75 88.50)">9</text>
</g>
</svg>
