<svg width="109" height="109" viewBox="0 0 109 109">
<g id="kvg:StrokePaths_09846">
<g id="kvg:09846">
	<g id="kvg:09846-g1">
		<g id="kvg:09846-g2">
			<g id="kvg:09846-g3">
				<path id="kvg:09846-s1" d="M15.88,17.94c0.5,0.66,1.22,1.44,1.22,2.32c0,0.88,2.92,24.23,2.92,24.67s0.09,0.44,0.18,1.32"/>
				<path id="kvg:09846-s2" d="M17.2,19.39c1.51-0.11,31.1-2.65,32.48-2.64c1.81,0.01,2.57,2.56,2.48,3.21c-0.18,1.32-2.9,22.59-2.9,23.25"/>
				<path id="kvg:09846-s3" d="M18.5,31.77c2.04,0,29.66-3.26,31.98-3.26"/>
				<path id="kvg:09846-s4" d="M20.81,44.22c4.16-0.47,22.99-2.18,28.17-2.59"/>
			</g>
		</g>
		<g id="kvg:09846-g4">
			<path id="kvg:09846-s5" d="M13.21,58.22c0.44,0.18,1.63,0.47,2.82,0.53c3.26,0.18,25.9-3.4,35.4-3.75c1.19-0.04,1.48,0.18,2.22,0.35"/>
			<g id="kvg:09846-g5">
				<path id="kvg:09846-s6" d="M32.94,19.75c0.77,0.5,1.23,2.25,1.38,3.25s0,67.75-0.15,74"/>
			</g>
			<path id="kvg:09846-s7" d="M33.47,57.75c-4.09,10.23-14.72,24.71-23.22,30.5"/>
			<path id="kvg:09846-s8" d="M37.32,64.5c4.83,2.05,11.59,8.2,13.87,12.9"/>
		</g>
	</g>
	<g id="kvg:09846-g6">
		<g id="kvg:09846-g7">
			<path id="kvg:09846-s9" d="M57.95,17.35c1,0.5,2.84,0.57,3.85,0.5c8.3-0.58,25.13-3.08,31.59-3.32c1.67-0.06,2.68,0.24,3.51,0.49"/>
			<path id="kvg:09846-s10" d="M74.73,19.93c0.01,0.27,0.03,0.71-0.02,1.1c-0.3,2.32-3.28,7.4-5.64,10.52"/>
		</g>
		<g id="kvg:09846-g8">
			<g id="kvg:09846-g9">
				<path id="kvg:09846-s11" d="M59.66,32.3c0.45,1.08,1.11,1.88,1.11,3.32c0,1.44-0.3,41.91-0.3,42.63"/>
				<path id="kvg:09846-s12" d="M61.53,33.23c2.56-0.18,25.24-2.36,27.58-2.58c1.94-0.18,3.48,1.99,3.31,3.32c-0.21,1.69-0.4,40.25-0.4,41.33"/>
				<path id="kvg:09846-s13" d="M61.49,46.82c3.66,0,24.15-2.42,29.64-2.81"/>
				<path id="kvg:09846-s14" d="M60.69,59.94c9.13-0.48,23.97-1.55,30.97-2.05"/>
				<path id="kvg:09846-s15" d="M60.86,75.29c5.9-1.07,22.51-2,29.96-2.54"/>
			</g>
			<g id="kvg:09846-g10">
				<path id="kvg:09846-s16" d="M68.69,79.98c0.37,1.38,0.23,2.25-0.5,3.25c-2.21,3.02-9.55,9.95-13.98,13.52"/>
				<path id="kvg:09846-s17" d="M83.32,80.37c5.39,4.39,11.76,12.37,13.23,16.21"/>
			</g>
		</g>
	</g>
</g>
</g>
<g id="kvg:StrokeNumbers_09846">
	<text transform="matrix(1 0 0 1 10.50 25.50)">1</text>
	<text transform="matrix(1 0 0 1 18.50 16.50)">2</text>
	<text transform="matrix(1 0 0 1 22.50 28.50)">3</text>
	<text transform="matrix(1 0 0 1 23.50 41.50)">4</text>
	<text transform="matrix(1 0 0 1 6.50 59.50)">5</text>
	<text transform="matrix(1 0 0 1 37.50 26.50)">6</text>
	<text transform="matrix(1 0 0 1 22.50 67.50)">7</text>
	<text transform="matrix(1 0 0 1 42.50 64.50)">8</text>
	<text transform="matrix(1 0 0 1 56.50 14.50)">9</text>
	<text transform="matrix(1 0 0 1 63.50 24.50)">10</text>
	<text transform="matrix(1 0 0 1 52.20 41.50)">11</text>
	<text transform="matrix(1 0 0 1 60.50 30.50)">12</text>
	<text transform="matrix(1 0 0 1 65.06 43.85)">13</text>
	<text transform="matrix(1 0 0 1 65.50 56.50)">14</text>
	<text transform="matrix(1 0 0 1 65.06 71.50)">15</text>
	<text transform="matrix(1 0 0 1 55.50 85.50)">16</text>
	<text transform="matrix(1 0 0 1 75.50 88.50)">17</text>
</g>
</svg>
