<svg width="109" height="109" viewBox="0 0 109 109">
<g id="kvg:StrokePaths_098ed">
<g id="kvg:098ed">
	<g id="kvg:098ed-g1">
		<path id="kvg:098ed-s1" d="M32.74,11.64c0.06,0.71,0.31,1.89-0.13,2.85C29.75,20.75,21.5,33,9.81,42.22"/>
		<path id="kvg:098ed-s2" d="M35.52,16.83c4.34,2.01,11.21,8.26,12.29,11.38"/>
		<path id="kvg:098ed-s3" d="M25.75,32.16c0.36,0.15,1.02,0.19,1.39,0.15c2.3-0.25,9.87-2.17,12.1-2c0.6,0.05,0.96,0.07,1.27,0.14"/>
		<path id="kvg:098ed-s4" d="M20.27,40.44c0.39,0.78,0.78,1.68,0.78,2.72c0,1.04-0.13,54.29,0,55.34"/>
		<path id="kvg:098ed-s5" d="M21.19,42.07c2.2-0.13,18.91-2.17,20.92-2.33c1.67-0.13,2.74,1.45,2.61,2.22c-0.26,1.57-2.97,17.54-3.52,21.01"/>
		<path id="kvg:098ed-s6" d="M21.58,52.23c2.97,0,18.36-2.31,21.72-2.31"/>
		<path id="kvg:098ed-s7" d="M21.44,63.56C27.5,63,33.75,61.5,41.29,61.02"/>
		<path id="kvg:098ed-s8" d="M21.39,76.06c3.73-0.25,15.96-2.67,19.57-2.49c0.97,0.04,1.56,0.07,2.05,0.14"/>
		<path id="kvg:098ed-s9" d="M21.89,89.31c3.73-0.25,16.46-2.17,20.07-1.99c0.97,0.04,1.56,0.07,2.05,0.14"/>
	</g>
	<g id="kvg:098ed-g2">
		<path id="kvg:098ed-s10" d="M65.29,12.75c0.14,1.57-0.04,3.63-0.5,4.98c-2.97,8.59-6.73,15.86-13.53,26.31"/>
		<path id="kvg:098ed-s11" d="M62,30.89c1.02,0.11,3,0.59,4.79,0.48c8.35-0.51,19.89-3.47,25.42-3.98c1.56-0.14,3,0.18,3.79,0.37"/>
		<g id="kvg:098ed-g3">
			<path id="kvg:098ed-s12" d="M54.7,51.92c0.96,0.53,2.16,0.38,3.02,0.28c8.53-0.95,27.35-3.26,31.2-3.45c3.84-0.19,4.1,1.58,3.92,4.03c-0.6,8.22-5.6,31.47-12.33,39.66c-3.94,4.81-5.6,0.24-6.6-0.53"/>
			<path id="kvg:098ed-s13" d="M73.84,36.68c0.07,1.35,0.18,3.5-0.15,5.44c-2.47,14.35-8.32,41.14-26.3,52.04"/>
		</g>
	</g>
</g>
</g>
<g id="kvg:StrokeNumbers_098ed">
	<text transform="matrix(1 0 0 1 25.50 12.50)">1</text>
	<text transform="matrix(1 0 0 1 40.50 17.30)">2</text>
	<text transform="matrix(1 0 0 1 31.50 28.23)">3</text>
	<text transform="matrix(1 0 0 1 13.25 50.90)">4</text>
	<text transform="matrix(1 0 0 1 24.50 39.83)">5</text>
	<text transform="matrix(1 0 0 1 25.45 49.50)">6</text>
	<text transform="matrix(1 0 0 1 25.50 60.17)">7</text>
	<text transform="matrix(1 0 0 1 25.46 72.60)">8</text>
	<text transform="matrix(1 0 0 1 25.46 86.27)">9</text>
	<text transform="matrix(1 0 0 1 53.50 12.50)">10</text>
	<text transform="matrix(1 0 0 1 66.50 27.50)">11</text>
	<text transform="matrix(1 0 0 1 53.50 49.50)">12</text>
	<text transform="matrix(1 0 0 1 61.75 40.50)">13</text>
</g>
</svg>
