<svg width="109" height="109" viewBox="0 0 109 109">
<g id="kvg:StrokePaths_09997">
<g id="kvg:09997">
	<g id="kvg:09997-g1">
		<path id="kvg:09997-s1" d="M30.18,16.88c0.26,1.69,0.69,2.59,0.7,3.76C31.25,53.75,28.75,79.5,11.62,94"/>
		<g id="kvg:09997-g2">
			<path id="kvg:09997-s2" d="M12.5,38.75c1,0.75,4.75,0.25,6,0s21.88-6.44,23-6.5c2.5-0.12,3.62,0.88,3.25,3.75c-0.75,5.75-2.5,20.5-4,33.5c-2.3,19.89,4.5,24.87,25.71,24.87c30.04,0,29.27-2.37,29.27-15.12"/>
		</g>
	</g>
	<g id="kvg:09997-g3">
		<g id="kvg:09997-g4">
			<path id="kvg:09997-s3" d="M56,16.5c3.27,1.89,8.44,7.76,9.26,10.69"/>
			<path id="kvg:09997-s4" d="M84.25,12.5c0.02,0.36,0.04,0.93-0.05,1.44c-0.53,3.04-3.56,9.72-7.7,13.81"/>
			<path id="kvg:09997-s5" d="M50.81,32.35c1.15,0.45,3.27,0.52,4.42,0.45c12-0.75,16.42-2.57,34.69-2.95c1.92-0.04,3.07,0.21,4.03,0.44"/>
		</g>
		<g id="kvg:09997-g5">
			<path id="kvg:09997-s6" d="M72.19,31.78c0.56,1.22,0.29,1.99,0.08,2.43c-1.11,2.3-2.75,4.93-5.37,7.95"/>
			<g id="kvg:09997-g6">
				<path id="kvg:09997-s7" d="M57.56,44.49c0.43,0.81,1.06,1.41,1.06,2.49c0,1.08-0.15,33.35,0,34.43"/>
				<path id="kvg:09997-s8" d="M59.34,45.27c2.44-0.14,21-2.66,23.21-2.82c1.85-0.14,3.31,0.75,3.15,1.75c-0.2,1.27-0.72,35.21-0.86,36.01"/>
				<path id="kvg:09997-s9" d="M59.3,55.23c4.8-0.18,21.18-2.53,25.08-2.53"/>
				<path id="kvg:09997-s10" d="M58.99,66.59c6.46-0.45,18.01-2.34,26.1-2.93"/>
				<path id="kvg:09997-s11" d="M58.73,78.34c6.52-0.59,19.57-2.04,25.83-2.04"/>
			</g>
		</g>
	</g>
</g>
</g>
<g id="kvg:StrokeNumbers_09997">
	<text transform="matrix(1 0 0 1 20.50 15.50)">1</text>
	<text transform="matrix(1 0 0 1 5.50 38.50)">2</text>
	<text transform="matrix(1 0 0 1 48.50 14.50)">3</text>
	<text transform="matrix(1 0 0 1 75.50 11.50)">4</text>
	<text transform="matrix(1 0 0 1 49.50 29.50)">5</text>
	<text transform="matrix(1 0 0 1 75.50 38.25)">6</text>
	<text transform="matrix(1 0 0 1 49.50 50.50)">7</text>
	<text transform="matrix(1 0 0 1 59.50 42.10)">8</text>
	<text transform="matrix(1 0 0 1 63.50 52.50)">9</text>
	<text transform="matrix(1 0 0 1 63.05 62.50)">10</text>
	<text transform="matrix(1 0 0 1 63.28 74.50)">11</text>
</g>
</svg>
