<svg width="109" height="109" viewBox="0 0 109 109">
<g id="kvg:StrokePaths_09a0f">
<g id="kvg:09a0f">
	<g id="kvg:09a0f-g1">
		<path id="kvg:09a0f-s1" d="M15.24,18.12c0.51,0.38,0.99,2.96,0.99,4.13c-0.05,9.7-0.29,37.82-0.98,40.5"/>
		<path id="kvg:09a0f-s2" d="M17.77,19.76c8.73-1.26,20.4-2.83,22.76-3.17c0.94-0.14,2.53-0.25,3-0.03"/>
		<path id="kvg:09a0f-s3" d="M28.81,19.32c0.25,0.38,0.96,0.88,0.95,1.49c-0.02,6.17-0.06,28.96-0.25,38.66"/>
		<path id="kvg:09a0f-s4" d="M16.66,35.09c6.26-0.58,19.75-2.6,22.44-2.99c0.94-0.14,2.53-0.24,3-0.02"/>
		<path id="kvg:09a0f-s5" d="M16.76,47.62c6.26-0.59,19.75-2.6,22.44-2.99c0.94-0.14,2.53-0.25,3-0.03"/>
		<path id="kvg:09a0f-s6" d="M15.49,62.15c6.17-1.41,20.54-3.04,23.93-3.63c4.33-0.76,4.19,2.81,3.95,6.45C42.7,75.31,39.96,85.8,36.75,92.5c-2.75,5.75-5.32,0.41-6.21-0.86"/>
		<g id="kvg:09a0f-g2">
			<path id="kvg:09a0f-s7" d="M11.79,71.74c0.31,5.93-0.64,11.15-0.98,12.33"/>
			<path id="kvg:09a0f-s8" d="M17.54,71.36c1.45,2.33,2.69,5.27,3.02,9.43"/>
			<path id="kvg:09a0f-s9" d="M24.07,70c0.81,1.17,3.72,5.05,4.09,8.89"/>
			<path id="kvg:09a0f-s10" d="M30.8,67c1.68,2.19,4.43,4.45,5.03,7.36"/>
		</g>
	</g>
	<g id="kvg:09a0f-g3">
		<g id="kvg:09a0f-g4">
			<g id="kvg:09a0f-g5">
				<g id="kvg:09a0f-g6">
					<g id="kvg:09a0f-g7">
						<path id="kvg:09a0f-s11" d="M50.13,29.47c1.87,0.28,3.92,0.38,4.98,0.27c9.71-0.97,23.44-2.62,35.36-3.44c1.76-0.12,2.82,0.23,3.7,0.48"/>
						<path id="kvg:09a0f-s12" d="M59.32,15.78c0.85,0.48,1.36,2.15,1.53,3.11c0.17,0.96,0,48.77-0.17,54.74"/>
					</g>
					<path id="kvg:09a0f-s13" d="M81.47,12c0.85,0.48,1.36,2.15,1.54,3.11c0.17,0.96,0,50.64-0.17,56.61"/>
				</g>
				<path id="kvg:09a0f-s14" d="M61.18,42.37c3.13-0.24,17.44-1.39,20.37-1.63"/>
				<g id="kvg:09a0f-g8">
					<path id="kvg:09a0f-s15" d="M60.99,56.77c3.53-0.24,17.76-1.15,21.88-1.63"/>
				</g>
			</g>
			<path id="kvg:09a0f-s16" d="M49.23,74.47c1.9,0.08,3.78,0.1,5.14,0c7.7-0.55,26.38-2.23,40.46-2.45c2.23-0.03,3.57,0.3,4.69,0.62"/>
		</g>
		<g id="kvg:09a0f-g9">
			<path id="kvg:09a0f-s17" d="M63.73,79.21c0.04,0.34,0.09,0.88-0.08,1.38c-1.02,2.9-7.64,10.16-16.39,15.66"/>
			<path id="kvg:09a0f-s18" d="M78.75,79.75c4.92,3.13,12.71,12.86,13.94,17.73"/>
		</g>
	</g>
</g>
</g>
<g id="kvg:StrokeNumbers_09a0f">
	<text transform="matrix(1 0 0 1 9.50 26.50)">1</text>
	<text transform="matrix(1 0 0 1 17.50 16.50)">2</text>
	<text transform="matrix(1 0 0 1 32.50 26.50)">3</text>
	<text transform="matrix(1 0 0 1 20.54 31.50)">4</text>
	<text transform="matrix(1 0 0 1 20.50 43.50)">5</text>
	<text transform="matrix(1 0 0 1 20.50 57.50)">6</text>
	<text transform="matrix(1 0 0 1 5.50 74.35)">7</text>
	<text transform="matrix(1 0 0 1 14.50 79.50)">8</text>
	<text transform="matrix(1 0 0 1 20.50 75.50)">9</text>
	<text transform="matrix(1 0 0 1 25.50 73.50)">10</text>
	<text transform="matrix(1 0 0 1 47.25 26.50)">11</text>
	<text transform="matrix(1 0 0 1 51.50 12.50)">12</text>
	<text transform="matrix(1 0 0 1 69.25 10.50)">13</text>
	<text transform="matrix(1 0 0 1 63.50 39.50)">14</text>
	<text transform="matrix(1 0 0 1 64.25 53.50)">15</text>
	<text transform="matrix(1 0 0 1 46.25 70.50)">16</text>
	<text transform="matrix(1 0 0 1 52.25 84.50)">17</text>
	<text transform="matrix(1 0 0 1 70.50 86.50)">18</text>
</g>
</svg>
