<svg width="109" height="109" viewBox="0 0 109 109">
<g id="kvg:StrokePaths_09a5a">
<g id="kvg:09a5a">
	<g id="kvg:09a5a-g1">
		<g id="kvg:09a5a-g2">
			<g id="kvg:09a5a-g3">
				<path id="kvg:09a5a-s1" d="M18.97,18.82c1.66,0.31,3.05,0.19,4.4,0.02c6.62-0.86,20.11-2.89,27.26-3.45c1.62-0.13,3.34-0.33,4.92,0.17"/>
				<path id="kvg:09a5a-s2" d="M29.27,11.35c0.75,0.77,0.99,1,1.07,1.48c0.75,4.43,1.64,8.94,1.85,10.56"/>
				<path id="kvg:09a5a-s3" d="M44.64,8.8c0.09,0.59,0.21,1.02,0.11,1.75c-0.61,4.24-1.55,7.49-2.21,11.48"/>
			</g>
			<g id="kvg:09a5a-g4">
				<g id="kvg:09a5a-g5">
					<g id="kvg:09a5a-g6">
						<path id="kvg:09a5a-s4" d="M27.32,24.84c0.1,0.91-0.07,1.76-0.49,2.57c-1.31,2.92-4.63,7.31-10.21,12.34"/>
					</g>
					<path id="kvg:09a5a-s5" d="M28.69,29.23c1.69,0.27,3.39,0.09,4.62-0.14c3.87-0.73,11.13-2.1,14.22-2.72c3.46-0.69,5.15,0.71,4.59,4.26c-0.65,4.16-1.9,9.74-4.05,14.1c-1.45,2.93-3.01,3.82-5.23,0.82"/>
				</g>
				<g id="kvg:09a5a-g7">
					<path id="kvg:09a5a-s6" d="M24.28,36.2c0.55,0.55,0.9,1.3,1.08,2.03c0.37,1.46,0.81,3.47,1.25,5.39c0.17,0.72,0.3,1.39,0.37,1.96"/>
					<path id="kvg:09a5a-s7" d="M25.79,37c3.21-0.69,7.76-1.69,10.59-2.19c2.04-0.36,3.41-0.42,2.69,2.12c-0.47,1.66-0.91,2.89-1.48,5.17"/>
					<path id="kvg:09a5a-s8" d="M27.83,44.78c2.54-0.66,5.66-1.14,8.63-1.73c0.82-0.16,1.62-0.3,2.38-0.38"/>
				</g>
			</g>
		</g>
		<g id="kvg:09a5a-g8">
			<g id="kvg:09a5a-g9">
				<path id="kvg:09a5a-s9" d="M67.15,10.33c0.06,1,0.02,1.79-0.3,2.74c-1.52,4.53-4.61,12.5-9.22,18.18"/>
				<path id="kvg:09a5a-s10" d="M66.74,21.27c1.51-0.02,2.94-0.07,3.51-0.16c4.01-0.66,8.38-1.61,13.78-3.06c1.18-0.32,3.05-0.61,4.28-0.2"/>
			</g>
			<g id="kvg:09a5a-g10">
				<g id="kvg:09a5a-g11">
					<path id="kvg:09a5a-s11" d="M80.06,22.56c0.32,0.94-0.05,1.86-0.56,2.95c-4,8.49-11.37,16.62-22.68,22.06"/>
				</g>
				<path id="kvg:09a5a-s12" d="M62.49,28.04c4.57,1.87,13.14,9.34,22.38,15.36c2.86,1.86,5.14,3.23,7.84,4.12"/>
			</g>
		</g>
	</g>
	<g id="kvg:09a5a-g12">
		<path id="kvg:09a5a-s13" d="M35.84,52.43c0.74,0.74,1,1.69,1,2.58c0,2.42-0.05,13.52-0.08,20.61c-0.01,2.55-0.02,4.58-0.02,5.5"/>
		<path id="kvg:09a5a-s14" d="M37.87,54.3c7.41-0.83,21.21-2.76,27.4-3.68c2.05-0.31,4.44-0.94,6.51-0.64"/>
		<path id="kvg:09a5a-s15" d="M54.14,53.7c0.83,0.83,1.14,1.93,1.14,2.9c0,6.78,0.07,14.88,0.07,21.1"/>
		<path id="kvg:09a5a-s16" d="M37.57,62.78c7.67-0.86,20.85-2.67,26.3-3.42c1.82-0.25,3.97-0.8,5.82-0.53"/>
		<path id="kvg:09a5a-s17" d="M37.85,71.06c7.67-0.86,21.23-2.47,26.78-3.18c1.84-0.23,3.99-0.79,5.84-0.52"/>
		<path id="kvg:09a5a-s18" d="M36.95,80.18c10.93-1.65,37.42-4.36,43.51-4.79c4.08-0.29,4.97,1.49,4.43,5.11c-0.79,5.31-1.63,8.12-3.68,14.57c-2.2,6.93-5.08,5.18-8.1,1.69"/>
		<g id="kvg:09a5a-g13">
			<path id="kvg:09a5a-s19" d="M26.78,86.47c-0.53,4.53-2.3,9.4-4.06,12.08"/>
			<path id="kvg:09a5a-s20" d="M36.5,86.62c1.92,1.91,3.78,7.29,4.28,10.34"/>
			<path id="kvg:09a5a-s21" d="M50.5,85.5c1.74,1.54,4.53,6.41,4.98,8.87"/>
			<path id="kvg:09a5a-s22" d="M63.25,83.5c1.98,1.27,5.13,5.29,5.64,7.32"/>
		</g>
	</g>
</g>
</g>
<g id="kvg:StrokeNumbers_09a5a">
	<text transform="matrix(1 0 0 1 12.75 18.13)">1</text>
	<text transform="matrix(1 0 0 1 20.50 10.63)">2</text>
	<text transform="matrix(1 0 0 1 36.75 8.50)">3</text>
	<text transform="matrix(1 0 0 1 19.50 28.63)">4</text>
	<text transform="matrix(1 0 0 1 34.50 26.50)">5</text>
	<text transform="matrix(1 0 0 1 20.25 45.05)">6</text>
	<text transform="matrix(1 0 0 1 27.50 35.50)">7</text>
	<text transform="matrix(1 0 0 1 30.75 42.05)">8</text>
	<text transform="matrix(1 0 0 1 58.50 9.50)">9</text>
	<text transform="matrix(1 0 0 1 71.50 17.50)">10</text>
	<text transform="matrix(1 0 0 1 83.50 26.50)">11</text>
	<text transform="matrix(1 0 0 1 66.50 29.50)">12</text>
	<text transform="matrix(1 0 0 1 24.75 61.63)">13</text>
	<text transform="matrix(1 0 0 1 35.50 51.50)">14</text>
	<text transform="matrix(1 0 0 1 58.50 57.50)">15</text>
	<text transform="matrix(1 0 0 1 41.50 60.50)">16</text>
	<text transform="matrix(1 0 0 1 41.55 68.50)">17</text>
	<text transform="matrix(1 0 0 1 41.51 77.50)">18</text>
	<text transform="matrix(1 0 0 1 16.50 88.63)">19</text>
	<text transform="matrix(1 0 0 1 29.25 91.50)">20</text>
	<text transform="matrix(1 0 0 1 42.75 89.50)">21</text>
	<text transform="matrix(1 0 0 1 55.50 87.50)">22</text>
</g>
</svg>
