<svg width="109" height="109" viewBox="0 0 109 109">
<g id="kvg:StrokePaths_09acf">
<g id="kvg:09acf">
	<g id="kvg:09acf-g1">
		<g id="kvg:09acf-g2">
			<path id="kvg:09acf-s1" d="M18.12,16.2c0.25,0.48,0.96,2.54,0.99,3.17c0.14,2.88,1.09,18.84,1.09,19.16"/>
			<path id="kvg:09acf-s2" d="M19.31,17.63c1.42-0.03,14.19-1.13,20.79-2.57c1.41-0.31,2.91,1.19,2.68,2.39c-0.66,3.41-2.25,11.02-2.91,19.22"/>
			<path id="kvg:09acf-s3" d="M29.07,24.62c0.25,0.48,0.46,1.54,0.49,2.17c0.15,2.81,0.82,10.98,0.81,11.29"/>
			<path id="kvg:09acf-s4" d="M29.98,26.41c1.41-0.03,9.45-1.47,10.73-1.64"/>
			<path id="kvg:09acf-s5" d="M12.04,37.62c-0.02,3.02-1.35,10.89-1.81,12.88"/>
			<path id="kvg:09acf-s6" d="M12.19,40.76c5.8-1.18,29.64-3.59,33.44-3.79c5.94-0.32,0.23,5.3-1.25,7.24"/>
		</g>
		<g id="kvg:09acf-g3">
			<path id="kvg:09acf-s7" d="M20.31,48.12c0.37,0.7,0.62,1.9,0.74,2.6c0.12,0.7,0.18,44.01,0.12,45.58"/>
			<path id="kvg:09acf-s8" d="M21.79,49.32c1.49-0.17,14.14-1.65,15.25-1.85c1.98-0.35,2.73,2.27,2.48,3.32c-0.24,1.01-0.37,24.37-0.37,38.54c0,9.09-4.98,2.65-6.22,1.07"/>
			<path id="kvg:09acf-s9" d="M21.79,60.81c5.08-1.05,12.73-1.14,17.2-1.67"/>
			<path id="kvg:09acf-s10" d="M21.49,73.17c3.97-0.53,12.67-1.12,17.26-1.47"/>
		</g>
	</g>
	<g id="kvg:09acf-g4">
		<g id="kvg:09acf-g5">
			<g id="kvg:09acf-g6">
				<g id="kvg:09acf-g7">
					<path id="kvg:09acf-s11" d="M55.25,22.54c0.34,0.26,0.99,1.41,1.11,2.4c0.77,6.49,2.45,13.67,3.12,17.94"/>
					<path id="kvg:09acf-s12" d="M56.52,23.82c9.28-1.02,22.7-2.69,30.03-3.57c2.34-0.28,3.68,1.46,3.38,3.42c-1.19,7.76-2.18,12.83-3.72,17.62"/>
				</g>
			</g>
			<path id="kvg:09acf-s13" d="M48.9,31.81c1.03,0.52,2.93,0.64,3.96,0.52c7.94-0.95,30.17-3.8,41-3.07c1.72,0.12,2.75,0.25,3.61,0.51"/>
			<g id="kvg:09acf-g8">
				<path id="kvg:09acf-s14" d="M59.82,41.48c2.38-0.24,23.14-2.15,26.2-2.39"/>
				<g id="kvg:09acf-g9">
					<g id="kvg:09acf-g10">
						<path id="kvg:09acf-s15" d="M55.11,48.66c0.27,0.44,0.75,1.03,0.87,2c0.47,3.59,1.67,7.62,2.17,10.93"/>
						<path id="kvg:09acf-s16" d="M56.21,49.71c10.29-0.46,23.55-1.34,30.51-2.1c2.22-0.24,3.5,1.27,3.21,2.97c-0.34,1.99-2.02,5.82-2.56,8.21"/>
						<path id="kvg:09acf-s17" d="M58.5,59.68c2.38-0.24,28.18-0.66,31.25-0.89"/>
					</g>
					<g id="kvg:09acf-g11">
						<path id="kvg:09acf-s18" d="M70.99,13.75c0.74,0.48,1.18,2.15,1.33,3.11c0.15,0.96,0,36.13-0.15,42.12"/>
					</g>
				</g>
			</g>
		</g>
		<g id="kvg:09acf-g12">
			<path id="kvg:09acf-s19" d="M68.58,61.99c0.3,0.86,0.39,2.05-0.15,3C64.75,71.5,62.25,76,57.47,80.92c-1.07,1.1-0.17,1.57,0.45,1.57c11.83,0.01,25.83,7.01,31.48,13.78"/>
			<path id="kvg:09acf-s20" d="M81.94,68.06c0.09,0.7,0.16,2.39-0.19,3.4c-2.83,8.16-9.19,20.46-31.23,25.79"/>
			<path id="kvg:09acf-s21" d="M47.63,71.5c1.75,0.48,3.62,0.76,4.47,0.73c13.19-0.46,24.51-2.56,41.45-2.77c1.4-0.02,3.82,0.29,4.96,0.84"/>
		</g>
	</g>
</g>
</g>
<g id="kvg:StrokeNumbers_09acf">
	<text transform="matrix(1 0 0 1 10.85 23.85)">1</text>
	<text transform="matrix(1 0 0 1 19.16 13.35)">2</text>
	<text transform="matrix(1 0 0 1 23.50 31.50)">3</text>
	<text transform="matrix(1 0 0 1 31.50 24.50)">4</text>
	<text transform="matrix(1 0 0 1 3.72 43.85)">5</text>
	<text transform="matrix(1 0 0 1 13.50 37.50)">6</text>
	<text transform="matrix(1 0 0 1 14.50 56.50)">7</text>
	<text transform="matrix(1 0 0 1 23.50 46.85)">8</text>
	<text transform="matrix(1 0 0 1 25.50 57.50)">9</text>
	<text transform="matrix(1 0 0 1 25.50 69.50)">10</text>
	<text transform="matrix(1 0 0 1 46.50 23.50)">11</text>
	<text transform="matrix(1 0 0 1 57.50 20.50)">12</text>
	<text transform="matrix(1 0 0 1 44.50 29.50)">13</text>
	<text transform="matrix(1 0 0 1 61.25 38.05)">14</text>
	<text transform="matrix(1 0 0 1 47.00 54.50)">15</text>
	<text transform="matrix(1 0 0 1 58.50 47.50)">16</text>
	<text transform="matrix(1 0 0 1 60.50 57.50)">17</text>
	<text transform="matrix(1 0 0 1 62.50 11.50)">18</text>
	<text transform="matrix(1 0 0 1 57.50 67.28)">19</text>
	<text transform="matrix(1 0 0 1 82.50 66.50)">20</text>
	<text transform="matrix(1 0 0 1 45.50 68.13)">21</text>
</g>
</svg>
