<svg width="109" height="109" viewBox="0 0 109 109">
<g id="kvg:StrokePaths_09af4">
<g id="kvg:09af4">
	<g id="kvg:09af4-g1">
		<g id="kvg:09af4-g2">
			<path id="kvg:09af4-s1" d="M23.61,10.91c1.29,0.95,1.29,1.1,1.29,2.05s0.43,20.52,0.43,21.95"/>
			<path id="kvg:09af4-s2" d="M25.62,12.92c4.44-0.17,15.15-2.07,20.94-2.14c1.35-0.02,2.16,0.11,2.83,0.24"/>
			<path id="kvg:09af4-s3" d="M24.91,20.12c3.92-0.33,15.12-1.55,18.29-1.88c1.19-0.12,2.4-0.09,3.32,0.11"/>
			<path id="kvg:09af4-s4" d="M25.2,27.51c3.92-0.33,15.12-2.05,18.29-2.38c1.19-0.12,2.4-0.09,3.32,0.11"/>
			<path id="kvg:09af4-s5" d="M12.87,36.48c1.04,0.27,2.95,0.42,3.98,0.27c8.65-1.25,24.65-3.75,34-4.02c1.73-0.05,2.77,0.13,3.63,0.27"/>
			<g id="kvg:09af4-g3">
				<path id="kvg:09af4-s6" d="M27.97,37.97c0.07,0.51-0.32,1.26-0.55,1.53c-2.98,3.49-3.83,4.58-7.94,8.49c-1.03,0.98-0.49,2.61,1.26,2.12c6.78-1.88,16.08-4.41,23.8-6.84"/>
				<path id="kvg:09af4-s7" d="M42.68,39.09c2.82,1.71,7.28,7.03,7.98,9.69"/>
			</g>
		</g>
		<g id="kvg:09af4-g4">
			<g id="kvg:09af4-g5">
				<path id="kvg:09af4-s8" d="M82.47,9.5c0.23,1.18-0.9,2.19-1.64,2.85c-3.71,3.29-10.65,7.38-23.02,11.47"/>
			</g>
			<g id="kvg:09af4-g6">
				<path id="kvg:09af4-s9" d="M88.61,19.78c0.23,1.13-0.66,2.05-1.41,2.7c-4.09,3.55-12.29,9.25-24.87,13.38"/>
			</g>
			<g id="kvg:09af4-g7">
				<path id="kvg:09af4-s10" d="M93.59,30.29c0.21,1.02-0.66,2.08-1.3,2.74c-3.44,3.57-11.9,9.23-25.11,13.22"/>
			</g>
		</g>
	</g>
	<g id="kvg:09af4-g8">
		<g id="kvg:09af4-g9">
			<path id="kvg:09af4-s11" d="M22.82,58.5c1.63,1.17,3.15,1.49,5.23,1.3C39.5,58.75,72,54.75,80.09,54.03c2.66-0.24,3.89,1.33,3.06,3.34c-1.3,3.14-1.65,4.39-2.25,6.89"/>
			<path id="kvg:09af4-s12" d="M28.75,69.75c2.85,0,47.27-4.5,49.3-4.5s4.07-0.5,5.7-0.5"/>
			<path id="kvg:09af4-s13" d="M26.76,67.45c0.5,0.57,0.81,2.45,0.19,3.35c-0.72,1.03-3.87,7.2-3.98,7.85c-0.22,1.35-0.44,2.52,2.07,2.21c14.7-1.85,50.95-5.1,63.5-6.08c1.6-0.12,2.84,0.82,2.42,2.87c-0.65,3.13-4.36,11.83-7.64,15.27c-3.35,3.5-4.25,0.92-6.09-1.59"/>
		</g>
		<g id="kvg:09af4-g10">
			<path id="kvg:09af4-s14" d="M42.85,49.87c0.98,0.61,1.75,2.15,1.8,3.87C45.75,88.75,37,93,22.45,100.45"/>
		</g>
		<g id="kvg:09af4-g11">
			<path id="kvg:09af4-s15" d="M61.17,46.5c1.06,0.49,1.7,2.19,1.91,3.17c0.18,0.81,0.06,31.87-0.11,45.83c-0.03,2.84-0.07,4.97-0.11,6"/>
		</g>
	</g>
</g>
</g>
<g id="kvg:StrokeNumbers_09af4">
	<text transform="matrix(1 0 0 1 18.50 20.50)">1</text>
	<text transform="matrix(1 0 0 1 27.66 9.85)">2</text>
	<text transform="matrix(1 0 0 1 29.50 18.50)">3</text>
	<text transform="matrix(1 0 0 1 29.35 26.50)">4</text>
	<text transform="matrix(1 0 0 1 5.50 36.50)">5</text>
	<text transform="matrix(1 0 0 1 16.50 44.50)">6</text>
	<text transform="matrix(1 0 0 1 36.50 41.50)">7</text>
	<text transform="matrix(1 0 0 1 74.60 9.85)">8</text>
	<text transform="matrix(1 0 0 1 79.50 21.50)">9</text>
	<text transform="matrix(1 0 0 1 82.50 32.50)">10</text>
	<text transform="matrix(1 0 0 1 14.25 60.50)">11</text>
	<text transform="matrix(1 0 0 1 29.50 67.50)">12</text>
	<text transform="matrix(1 0 0 1 15.50 70.50)">13</text>
	<text transform="matrix(1 0 0 1 33.50 54.50)">14</text>
	<text transform="matrix(1 0 0 1 53.50 52.50)">15</text>
</g>
</svg>
