<svg width="109" height="109" viewBox="0 0 109 109">
<g id="kvg:StrokePaths_09bb4">
<g id="kvg:09bb4">
	<g id="kvg:09bb4-g1">
		<g id="kvg:09bb4-g2">
			<path id="kvg:09bb4-s1" d="M24,15.5c0.04,0.46,0.15,1.21-0.08,1.86C22.25,22,17.25,28.75,10.49,35.12"/>
			<path id="kvg:09bb4-s2" d="M22.89,20.38c1.93,0,8.86-1.38,12.85-2.73c1.66-0.56,3.31,1.29,2.41,2.4c-3.64,4.45-5.98,9.16-10.95,17.4"/>
		</g>
		<g id="kvg:09bb4-g3">
			<g id="kvg:09bb4-g4">
				<path id="kvg:09bb4-s3" d="M13.72,39.58c0.18,0.46,0.68,2.26,0.78,2.82c0.8,4.61,1.65,15.08,2.15,23.56"/>
				<path id="kvg:09bb4-s4" d="M14.55,40.74c6.2-0.42,17.72-2.54,22.35-2.96c1.7-0.15,2.57,1.18,2.48,2.42c-0.32,4.52-1.9,15.34-3.27,23.71"/>
				<path id="kvg:09bb4-s5" d="M25.33,39.79c0.7,0.65,1.24,2.54,1.26,4c0.09,6.45,0.02,15.55,0.02,18.74"/>
				<path id="kvg:09bb4-s6" d="M16.1,51.64c2.02-0.21,19.76-1.43,21.43-1.41"/>
				<path id="kvg:09bb4-s7" d="M16.97,63.82c4.46,0.03,13.28-1.92,19.44-2"/>
			</g>
			<g id="kvg:09bb4-g5">
				<path id="kvg:09bb4-s8" d="M12.36,75.82c0,5.32-1.83,13.16-2.17,14.68"/>
				<path id="kvg:09bb4-s9" d="M18.57,73.83c1.02,2.36,1.99,8.87,2.24,12.54"/>
				<path id="kvg:09bb4-s10" d="M26.17,70.69c1.32,1.93,3.41,7.95,3.74,10.96"/>
				<path id="kvg:09bb4-s11" d="M34.3,69.62c1.83,1.77,4.74,7.28,5.2,10.03"/>
			</g>
		</g>
	</g>
	<g id="kvg:09bb4-g6">
		<g id="kvg:09bb4-g7">
			<path id="kvg:09bb4-s12" d="M57.53,16.5c0.15,1.89-0.04,4.36-0.51,5.98c-3.02,10.32-6.85,20-13.77,32.56"/>
			<path id="kvg:09bb4-s13" d="M50.03,46c0.11,0.88,0.76,2.48,0.76,3.75c0,14.25-0.54,31-0.54,42.5"/>
		</g>
		<g id="kvg:09bb4-g8">
			<path id="kvg:09bb4-s14" d="M56.12,42.13c0.59,0.23,3.1,0.27,4.66,0.2C67.5,42,77.5,40.25,90.51,39.24c1.56-0.12,2.9-0.23,3.88,0"/>
			<path id="kvg:09bb4-s15" d="M72.43,15c1.04,0.49,1.66,2.22,1.87,3.2c0.21,0.99,0,69.64-0.21,75.8"/>
			<path id="kvg:09bb4-s16" d="M73.68,42.07c-3.26,12.8-10.15,30.18-16.93,37.43"/>
			<path id="kvg:09bb4-s17" d="M74.62,42.08c3.35,8.65,12.87,27.15,19.03,33.57c1.43,1.49,2.18,2.6,3.36,3.13"/>
		</g>
	</g>
</g>
</g>
<g id="kvg:StrokeNumbers_09bb4">
	<text transform="matrix(1 0 0 1 17.50 16.50)">1</text>
	<text transform="matrix(1 0 0 1 29.50 16.50)">2</text>
	<text transform="matrix(1 0 0 1 7.50 46.50)">3</text>
	<text transform="matrix(1 0 0 1 16.50 37.50)">4</text>
	<text transform="matrix(1 0 0 1 29.50 46.50)">5</text>
	<text transform="matrix(1 0 0 1 18.50 49.50)">6</text>
	<text transform="matrix(1 0 0 1 19.50 61.85)">7</text>
	<text transform="matrix(1 0 0 1 6.50 76.50)">8</text>
	<text transform="matrix(1 0 0 1 14.50 79.50)">9</text>
	<text transform="matrix(1 0 0 1 20.50 76.85)">10</text>
	<text transform="matrix(1 0 0 1 28.50 74.50)">11</text>
	<text transform="matrix(1 0 0 1 45.50 14.50)">12</text>
	<text transform="matrix(1 0 0 1 40.75 64.50)">13</text>
	<text transform="matrix(1 0 0 1 56.50 39.50)">14</text>
	<text transform="matrix(1 0 0 1 62.50 12.50)">15</text>
	<text transform="matrix(1 0 0 1 60.25 53.50)">16</text>
	<text transform="matrix(1 0 0 1 80.50 51.50)">17</text>
</g>
</svg>
