<svg width="109" height="109" viewBox="0 0 109 109">
<g id="kvg:StrokePaths_09bc6">
<g id="kvg:09bc6">
	<g id="kvg:09bc6-g1">
		<g id="kvg:09bc6-g2">
			<path id="kvg:09bc6-s1" d="M26.99,13.25c0.04,0.56,0.13,1.46-0.08,2.26C25,22.5,19.14,32.72,11.24,39.12"/>
			<path id="kvg:09bc6-s2" d="M24.89,21.38c6.36-0.13,12.82-1.44,14.85-1.73c1.74-0.25,3.13,2.17,2.41,3.4c-3.05,5.19-5.48,8.66-10.45,16.9"/>
		</g>
		<g id="kvg:09bc6-g3">
			<g id="kvg:09bc6-g4">
				<path id="kvg:09bc6-s3" d="M17.72,39.97c0.26,0.53,0.27,0.9,0.41,1.56c1.19,5.49,2.45,19.91,3.19,30.14"/>
				<path id="kvg:09bc6-s4" d="M18.95,42.62c9.21-1.38,15.56-2.39,22.44-3.55c2.52-0.43,3.82,1.08,3.69,2.59C44.6,47.2,44,57.75,42.97,69.07"/>
				<path id="kvg:09bc6-s5" d="M29.5,42.21c0.99,0.66,1.76,2.79,1.79,4.47c0.13,7.46,0.03,18.03,0.03,21.73"/>
				<path id="kvg:09bc6-s6" d="M21.25,55.65c5-1.15,20.34-2.5,22.82-2.72"/>
				<path id="kvg:09bc6-s7" d="M21.8,69.29c6.63-0.59,16.45-1.29,21.11-1.51"/>
			</g>
			<g id="kvg:09bc6-g5">
				<path id="kvg:09bc6-s8" d="M17.01,83.07c0,5.23-2.99,12.94-3.76,14.43"/>
				<path id="kvg:09bc6-s9" d="M25,80.83c1.24,2.41,2.41,9.04,2.72,12.79"/>
				<path id="kvg:09bc6-s10" d="M33.63,79.19c1.25,2.07,3.22,8.5,3.53,11.71"/>
				<path id="kvg:09bc6-s11" d="M41.94,76.87c1.61,1.9,4.16,7.82,4.56,10.78"/>
			</g>
		</g>
	</g>
	<g id="kvg:09bc6-g6">
		<path id="kvg:09bc6-s12" d="M53.25,26.95c1.02,0.48,2.88,0.56,3.9,0.48c8.35-0.67,18.85-2.67,30.29-3.09c1.69-0.06,2.71,0.23,3.56,0.46"/>
		<g id="kvg:09bc6-g7">
			<path id="kvg:09bc6-s13" d="M53.35,39.86c0.6,0.8,1,1.61,1.2,2.41c0.2,0.8-0.24,48.1-0.22,55.35"/>
			<path id="kvg:09bc6-s14" d="M55.1,41.8c6.14-0.31,34.63-2.81,36.26-3.01c2.92-0.37,4.01,2.39,3.65,3.49c-0.04,2.48-0.62,30.89-0.62,47.69c0,11.98-6,1.79-7.29,1.07"/>
			<path id="kvg:09bc6-s15" d="M55.1,56.86c8.13-0.64,32.57-1.78,39.13-2.33"/>
			<path id="kvg:09bc6-s16" d="M55.27,72.79c5.83-0.55,32.21-1.79,38.96-2.16"/>
			<path id="kvg:09bc6-s17" d="M70.7,11.8c1.29,0.59,2.06,2.67,2.32,3.85c0.26,1.19,0,74.07-0.26,81.48"/>
		</g>
		<g id="kvg:09bc6-g8">
			<path id="kvg:09bc6-s18" d="M84.25,13.5c4.59,1.41,11.1,5.3,12.25,7.5"/>
		</g>
	</g>
</g>
</g>
<g id="kvg:StrokeNumbers_09bc6">
	<text transform="matrix(1 0 0 1 20.50 14.85)">1</text>
	<text transform="matrix(1 0 0 1 32.50 17.50)">2</text>
	<text transform="matrix(1 0 0 1 11.50 48.50)">3</text>
	<text transform="matrix(1 0 0 1 21.50 38.85)">4</text>
	<text transform="matrix(1 0 0 1 34.50 47.85)">5</text>
	<text transform="matrix(1 0 0 1 23.50 52.50)">6</text>
	<text transform="matrix(1 0 0 1 24.50 66.50)">7</text>
	<text transform="matrix(1 0 0 1 10.50 81.50)">8</text>
	<text transform="matrix(1 0 0 1 19.50 85.50)">9</text>
	<text transform="matrix(1 0 0 1 26.50 83.50)">10</text>
	<text transform="matrix(1 0 0 1 35.50 81.50)">11</text>
	<text transform="matrix(1 0 0 1 52.50 24.50)">12</text>
	<text transform="matrix(1 0 0 1 46.50 51.50)">13</text>
	<text transform="matrix(1 0 0 1 55.50 38.50)">14</text>
	<text transform="matrix(1 0 0 1 57.50 53.50)">15</text>
	<text transform="matrix(1 0 0 1 57.50 69.50)">16</text>
	<text transform="matrix(1 0 0 1 61.25 11.50)">17</text>
	<text transform="matrix(1 0 0 1 79.50 11.85)">18</text>
</g>
</svg>
