<svg width="109" height="109" viewBox="0 0 109 109">
<g id="kvg:StrokePaths_09c2d">
<g id="kvg:09c2d">
	<g id="kvg:09c2d-g1">
		<g id="kvg:09c2d-g2">
			<path id="kvg:09c2d-s1" d="M26.49,13.75c0.04,0.59,0.2,1.54-0.08,2.35c-2.16,6.15-6.66,14.65-14.67,22.52"/>
			<path id="kvg:09c2d-s2" d="M24.39,21.88c1.93,0,13.82-2.44,15.85-2.73c1.74-0.25,2.63,1.17,1.91,2.4c-3.05,5.19-6.14,8.7-10.45,19.4"/>
		</g>
		<g id="kvg:09c2d-g3">
			<g id="kvg:09c2d-g4">
				<path id="kvg:09c2d-s3" d="M14.72,44.89c0.23,0.46,0.23,0.77,0.36,1.35c1.02,4.72,2.11,17.14,2.75,25.95"/>
				<path id="kvg:09c2d-s4" d="M15.78,46.52c7.92-1.19,22.01-3.21,27.92-4.21c2.17-0.37,3.29,0.93,3.17,2.23c-0.41,4.76-2.29,16.26-4.03,25.17"/>
				<path id="kvg:09c2d-s5" d="M29.56,44.23c0.9,0.59,1.58,2.51,1.61,4.04c0.12,6.73,0.03,16.27,0.03,19.6"/>
				<path id="kvg:09c2d-s6" d="M17.76,57.73c2.58-0.46,25.26-2.87,27.39-3.06"/>
				<path id="kvg:09c2d-s7" d="M18.23,70.4c5.71-0.51,17.61-1.62,25.49-2.45"/>
			</g>
			<g id="kvg:09c2d-g5">
				<path id="kvg:09c2d-s8" d="M16.48,81.07c0,6.13-3.1,15.18-3.91,16.93"/>
				<path id="kvg:09c2d-s9" d="M23.76,79.33c1.42,2.93,2.76,10.99,3.11,15.54"/>
				<path id="kvg:09c2d-s10" d="M33.48,78.19c1.54,2.46,3.97,10.13,4.36,13.96"/>
				<path id="kvg:09c2d-s11" d="M42.55,77.12c2.28,2.39,5.88,9.82,6.45,13.53"/>
			</g>
		</g>
	</g>
	<g id="kvg:09c2d-g6">
		<g id="kvg:09c2d-g7">
			<g id="kvg:09c2d-g8">
				<g id="kvg:09c2d-g9">
					<path id="kvg:09c2d-s12" d="M54.36,24.72c0.63,0.21,1.78,0.23,2.41,0.21c7.16-0.33,14-1.72,20.05-2.17c1.05-0.08,1.68,0.1,2.21,0.2"/>
					<path id="kvg:09c2d-s13" d="M66.68,12.37c0.1,0.18,1.35,0.96,1.44,2.13c0.46,5.61,0.25,19.95,0.25,21.86"/>
					<path id="kvg:09c2d-s14" d="M48.75,38.04c1.28,0.43,3.64,0.68,4.9,0.43c8.85-1.72,25.6-4.97,38.01-6.01c2.12-0.18,3.41,0.21,4.47,0.43"/>
				</g>
				<path id="kvg:09c2d-s15" d="M88.16,16.13c0.1,0.79,0.53,2.25-0.19,3.19C78.74,31.42,67.63,44.2,52.3,53.46"/>
			</g>
			<g id="kvg:09c2d-g10">
				<path id="kvg:09c2d-s16" d="M85.69,40.25c0.25,0.35,0.39,1.34-0.24,1.93c-4.7,4.32-8.45,6.07-17.23,11.09"/>
				<path id="kvg:09c2d-s17" d="M66.84,46.17c0.58,0.36,0.62,0.59,0.81,1.07c0.19,0.47,0.19,6.38,0.19,7.87c0,6.39,7.71,5.22,14.28,5.22c7.16,0,12.78-0.58,12.81-5.64"/>
			</g>
		</g>
		<g id="kvg:09c2d-g11">
			<path id="kvg:09c2d-s18" d="M57,69.6c0.32,0.74,1.06,2.05,1.06,3.04c0,0.99,2.38,23.88,2.48,24.86"/>
			<path id="kvg:09c2d-s19" d="M58.59,71.14c1.82-0.12,28.04-3,29.7-3.14c1.38-0.12,2.27,1.37,2.16,2.1c-0.22,1.48-3.41,24.71-3.41,25.45"/>
			<path id="kvg:09c2d-s20" d="M59.32,82.14c2.46,0,26.76-2.18,29.54-2.18"/>
			<path id="kvg:09c2d-s21" d="M61.69,94.73c5.01-0.53,18.36-1,24.6-1.46"/>
		</g>
	</g>
</g>
</g>
<g id="kvg:StrokeNumbers_09c2d">
	<text transform="matrix(1 0 0 1 19.50 15.50)">1</text>
	<text transform="matrix(1 0 0 1 31.66 17.50)">2</text>
	<text transform="matrix(1 0 0 1 8.71 54.50)">3</text>
	<text transform="matrix(1 0 0 1 19.54 42.54)">4</text>
	<text transform="matrix(1 0 0 1 34.50 50.50)">5</text>
	<text transform="matrix(1 0 0 1 20.50 54.54)">6</text>
	<text transform="matrix(1 0 0 1 20.50 67.50)">7</text>
	<text transform="matrix(1 0 0 1 11.50 81.54)">8</text>
	<text transform="matrix(1 0 0 1 17.50 79.50)">9</text>
	<text transform="matrix(1 0 0 1 23.50 78.50)">10</text>
	<text transform="matrix(1 0 0 1 35.50 77.50)">11</text>
	<text transform="matrix(1 0 0 1 48.50 21.50)">12</text>
	<text transform="matrix(1 0 0 1 54.50 12.50)">13</text>
	<text transform="matrix(1 0 0 1 46.50 35.50)">14</text>
	<text transform="matrix(1 0 0 1 77.75 15.50)">15</text>
	<text transform="matrix(1 0 0 1 75.50 42.50)">16</text>
	<text transform="matrix(1 0 0 1 58.50 57.50)">17</text>
	<text transform="matrix(1 0 0 1 47.50 77.50)">18</text>
	<text transform="matrix(1 0 0 1 59.50 67.50)">19</text>
	<text transform="matrix(1 0 0 1 62.50 78.50)">20</text>
	<text transform="matrix(1 0 0 1 63.50 91.50)">21</text>
</g>
</svg>
