<svg width="109" height="109" viewBox="0 0 109 109">
<g id="kvg:StrokePaths_09ded">
<g id="kvg:09ded">
	<g id="kvg:09ded-g1">
		<g id="kvg:09ded-g2">
			<g id="kvg:09ded-g3">
				<path id="kvg:09ded-s1" d="M41.78,13c0.08,0.31,0.1,0.75-0.14,1.25c-2.01,4.1-12.93,7.95-25.88,11.25"/>
			</g>
			<g id="kvg:09ded-g4">
				<path id="kvg:09ded-s2" d="M14.01,29.79c2.34,1.55,5.87,5.93,6.45,8.34"/>
				<path id="kvg:09ded-s3" d="M45.53,23.25c0.02,0.29,0.1,0.77-0.04,1.16c-1.11,3.14-2.88,6.83-6.53,11.14"/>
				<path id="kvg:09ded-s4" d="M10.27,42.75c0.7,0.13,2.58,0.49,4.44,0.38c8.5-0.52,22.98-2.39,31.22-3.48c1.84-0.24,2.34-0.13,3.51,0"/>
				<path id="kvg:09ded-s5" d="M29.15,25c1.11,0.31,2,1.36,2,2.02c0,4.49-0.22,25.24-0.22,35.37"/>
				<path id="kvg:09ded-s6" d="M30.5,41.75c-3.39,6.54-11.63,15.73-19.25,19.5"/>
				<path id="kvg:09ded-s7" d="M34.13,46.1c4.93,1.69,11.05,6.24,14.15,10.01"/>
			</g>
		</g>
		<g id="kvg:09ded-g5">
			<path id="kvg:09ded-s8" d="M12.91,67.71c0.25,0.46,0.8,1.27,0.93,1.85c1.1,4.71,3.49,17.27,4.13,25.94"/>
			<path id="kvg:09ded-s9" d="M14.07,68.72c8.71-0.48,24.28-3.37,30.78-3.84c2.39-0.17,3.6,1.2,3.47,2.46c-0.54,5.21-1.58,17.75-3.4,25.75"/>
			<path id="kvg:09ded-s10" d="M30.2,68.29c0.52,0.89,0.7,1.25,0.7,2.49c-0.01,5.85,0.16,18.39,0.16,20.3"/>
			<path id="kvg:09ded-s11" d="M16.62,80c9.38-1,24.13-2.5,29.94-2.82"/>
			<path id="kvg:09ded-s12" d="M18.43,92.98c7.76-0.48,17.7-2.25,26.35-2.38"/>
		</g>
	</g>
	<g id="kvg:09ded-g6">
		<path id="kvg:09ded-s13" d="M71.54,11.16c0.02,0.27,0.04,0.7-0.03,1.08c-0.41,2.24-2.74,7.04-5.93,9.84"/>
		<path id="kvg:09ded-s14" d="M60.8,23.03c0.33,0.42,0.6,0.98,0.6,1.67c0,6.99,0.04,33.35-0.17,44.34"/>
		<path id="kvg:09ded-s15" d="M61.81,24.31c1.55,0,21-3.06,22.51-2.96c2.24,0.15,3.33,2.08,3.13,3.88c-0.12,1.11-1.64,12.25-3.08,20.73"/>
		<path id="kvg:09ded-s16" d="M62.06,35.24c1.9,0.13,21.6-2.65,23.75-2.51"/>
		<path id="kvg:09ded-s17" d="M61.97,46.89c3.88-0.13,17.55-2.4,22.38-2.41"/>
		<path id="kvg:09ded-s18" d="M61.69,57.22c8.85-0.82,28.43-2.76,32.23-3.27c1.33-0.18,3.57-0.34,4.24-0.1"/>
		<path id="kvg:09ded-s19" d="M61.24,69.25c9.1-1.58,26.13-3.3,31.17-3.77c3.28-0.3,4.97,0.86,4.38,4.42c-1.64,9.89-3.54,17.6-7.93,23.88c-3.87,5.53-5.97,1.01-7.3-0.23"/>
		<g id="kvg:09ded-g7">
			<path id="kvg:09ded-s20" d="M54.57,77.32c0.57,5.19-0.41,11.41-2.11,14.59"/>
			<path id="kvg:09ded-s21" d="M61.82,77.88c1.61,2.12,3.14,7.69,3.54,10.81"/>
			<path id="kvg:09ded-s22" d="M69.49,75.49c1.76,1.73,4.54,6.95,4.98,9.5"/>
			<path id="kvg:09ded-s23" d="M80.16,73.75c1.71,1.3,4.43,5.23,4.86,7.14"/>
		</g>
	</g>
</g>
</g>
<g id="kvg:StrokeNumbers_09ded">
	<text transform="matrix(1 0 0 1 34.50 11.50)">1</text>
	<text transform="matrix(1 0 0 1 7.50 33.50)">2</text>
	<text transform="matrix(1 0 0 1 37.50 26.50)">3</text>
	<text transform="matrix(1 0 0 1 4.50 43.50)">4</text>
	<text transform="matrix(1 0 0 1 24.25 32.50)">5</text>
	<text transform="matrix(1 0 0 1 16.50 51.50)">6</text>
	<text transform="matrix(1 0 0 1 41.50 47.50)">7</text>
	<text transform="matrix(1 0 0 1 7.25 76.50)">8</text>
	<text transform="matrix(1 0 0 1 16.50 65.50)">9</text>
	<text transform="matrix(1 0 0 1 33.50 74.50)">10</text>
	<text transform="matrix(1 0 0 1 19.50 76.50)">11</text>
	<text transform="matrix(1 0 0 1 20.25 89.50)">12</text>
	<text transform="matrix(1 0 0 1 61.25 11.50)">13</text>
	<text transform="matrix(1 0 0 1 51.50 30.50)">14</text>
	<text transform="matrix(1 0 0 1 57.50 20.50)">15</text>
	<text transform="matrix(1 0 0 1 64.50 31.50)">16</text>
	<text transform="matrix(1 0 0 1 64.50 43.50)">17</text>
	<text transform="matrix(1 0 0 1 64.50 53.50)">18</text>
	<text transform="matrix(1 0 0 1 64.50 64.50)">19</text>
	<text transform="matrix(1 0 0 1 49.50 75.70)">20</text>
	<text transform="matrix(1 0 0 1 56.50 87.50)">21</text>
	<text transform="matrix(1 0 0 1 64.50 83.50)">22</text>
	<text transform="matrix(1 0 0 1 74.50 80.50)">23</text>
</g>
</svg>
