<svg width="109" height="109" viewBox="0 0 109 109">
<g id="kvg:StrokePaths_09e7f">
<g id="kvg:09e7f">
	<g id="kvg:09e7f-g1">
		<path id="kvg:09e7f-s1" d="M52.81,10.63c1.22,1.22,1.51,2.62,1.51,4.15c0,1.59-0.07,2.71-0.07,7.46"/>
		<g id="kvg:09e7f-g2">
			<path id="kvg:09e7f-s2" d="M21.38,25.23c3.37,0.52,6.88,0.29,10,0.01c12.46-1.12,29.03-2.76,45-3.69c3.48-0.2,6.82-0.47,10.25,0.27"/>
			<path id="kvg:09e7f-s3" d="M24.74,26.25c1.07,1.07,0.99,2.59,0.91,4.88C25,49.88,22.88,75,10.56,92.47"/>
		</g>
	</g>
	<path id="kvg:09e7f-s4" d="M31.75,41.62c2.99,0.94,5.57,0.89,8.61,0.45c11.76-1.7,34.88-4.14,38.65-4.39c3-0.2,4.07,1.69,3.53,3.94c-1.01,4.15-1.42,6.25-2.65,11.58"/>
	<path id="kvg:09e7f-s5" d="M45.74,30.87c0.88,0.88,1.25,1.59,1.33,2.95c0.42,7.56,0.8,14.68,1.17,21.93"/>
	<path id="kvg:09e7f-s6" d="M66.64,26.34c0.76,0.76,0.95,1.54,0.83,2.95C66.88,36.62,65.75,48.25,65,54"/>
	<path id="kvg:09e7f-s7" d="M31.75,57.64c2.25,0.91,5.05,0.47,7.35,0.19c8.38-1,25.86-2.93,35.02-3.53c2.59-0.17,5.33-0.42,7.88,0.2"/>
	<g id="kvg:09e7f-g3">
		<path id="kvg:09e7f-s8" d="M39.11,78.04c4.05-0.49,7.25-1.17,11-1.66c1.33-0.17,2.7-0.39,4.04-0.21"/>
		<path id="kvg:09e7f-s9" d="M35.5,66.95c0.9,0.9,1.17,2.05,1.17,3.55c0,1.95-0.03,17.37-0.03,22.57c0,2.74,0.48,3.91,3.1,2.97c3.27-1.17,7.14-2.79,11.35-4.09"/>
		<g id="kvg:09e7f-g4">
			<path id="kvg:09e7f-s10" d="M86.83,67.08c0,0.8-0.26,1.74-1.05,2.39c-2.03,1.66-10.06,6.73-17.08,9.67"/>
			<path id="kvg:09e7f-s11" d="M64.33,62.75c0.96,0.96,0.91,2.5,0.91,3.92c0,1.87-0.11,18.45-0.11,21.08c0,7.99,1.88,9.33,14.02,9.33c11.36,0,13.39-0.83,13.39-7.72"/>
		</g>
	</g>
</g>
</g>
<g id="kvg:StrokeNumbers_09e7f">
	<text transform="matrix(1 0 0 1 44.25 11.25)">1</text>
	<text transform="matrix(1 0 0 1 22.25 22.25)">2</text>
	<text transform="matrix(1 0 0 1 18.25 35.23)">3</text>
	<text transform="matrix(1 0 0 1 30.25 39.25)">4</text>
	<text transform="matrix(1 0 0 1 37.25 33.25)">5</text>
	<text transform="matrix(1 0 0 1 58.25 32.25)">6</text>
	<text transform="matrix(1 0 0 1 33.00 53.93)">7</text>
	<text transform="matrix(1 0 0 1 41.25 74.25)">8</text>
	<text transform="matrix(1 0 0 1 27.25 69.25)">9</text>
	<text transform="matrix(1 0 0 1 74.00 67.25)">10</text>
	<text transform="matrix(1 0 0 1 53.00 65.63)">11</text>
</g>
</svg>
