<svg width="109" height="109" viewBox="0 0 109 109">
<g id="kvg:StrokePaths_09ef9">
<g id="kvg:09ef9">
	<path id="kvg:09ef9-s1" d="M44.87,13.32c1.09,0.5,1.74,2.25,1.96,3.25c0.22,1-0.08,9-0.08,15.5"/>
	<path id="kvg:09ef9-s2" d="M60.12,11.57c1.09,0.5,1.74,2.25,1.96,3.25c0.22,1-0.08,7.75-0.08,15.5"/>
	<path id="kvg:09ef9-s3" d="M28.02,20.9c2.57,1.74,6.65,7.17,7.29,9.88"/>
	<path id="kvg:09ef9-s4" d="M80.71,16.21c0.02,0.26,0.03,0.67-0.03,1.05c-0.4,2.21-2.68,7.06-5.8,10.03"/>
	<path id="kvg:09ef9-s5" d="M13.25,34.71c1.54,0.59,4.36,0.73,5.89,0.59c17.11-1.48,52.86-4.98,70.48-5.21c2.56-0.03,4.1,0.28,5.38,0.58"/>
	<path id="kvg:09ef9-s6" d="M38.5,38.96c0.06,0.4,0.12,1.02-0.12,1.59c-1.43,3.36-9.61,10.72-20.82,15.23"/>
	<path id="kvg:09ef9-s7" d="M70.02,36.65c6.99,1.88,18.05,7.71,19.79,10.63"/>
	<g id="kvg:09ef9-g1">
		<path id="kvg:09ef9-s8" d="M27.75,53.82c0.75,1.25,1,3.24,1,5.5c0,3.75,0.25,35.5,0.25,39.25"/>
		<path id="kvg:09ef9-s9" d="M28.75,55.82c9.5-1,45.6-6.5,47.5-6.5c2.5,0,5,1.25,5,4c0,4-0.25,31.75-0.25,37.5c0,9.25-3.25,5.25-6.25,2"/>
	</g>
	<path id="kvg:09ef9-s10" d="M53.5,35.32c0.75,1.25,1,3.24,1,5.5c0,3.75-0.25,53-0.25,56.75"/>
	<g id="kvg:09ef9-g2">
		<g id="kvg:09ef9-g3">
			<path id="kvg:09ef9-s11" d="M42.2,63.71c0.02,0.64-0.03,1.64-0.03,2.56c0,6.29-0.91,16.29-6.26,24.51"/>
		</g>
		<g id="kvg:09ef9-g4">
			<path id="kvg:09ef9-s12" d="M67.54,60.82c0.4,0.67,0.54,1.74,0.54,2.95c0,2.01,0.13,19.04,0.13,21.05"/>
		</g>
	</g>
</g>
</g>
<g id="kvg:StrokeNumbers_09ef9">
	<text transform="matrix(1 0 0 1 42.65 11.09)">1</text>
	<text transform="matrix(1 0 0 1 58.14 8.83)">2</text>
	<text transform="matrix(1 0 0 1 21.76 19.88)">3</text>
	<text transform="matrix(1 0 0 1 79.99 12.96)">4</text>
	<text transform="matrix(1 0 0 1 8.89 31.69)">5</text>
	<text transform="matrix(1 0 0 1 29.03 42.68)">6</text>
	<text transform="matrix(1 0 0 1 79.22 38.43)">7</text>
	<text transform="matrix(1 0 0 1 21.51 64.43)">8</text>
	<text transform="matrix(1 0 0 1 35.10 52.71)">9</text>
	<text transform="matrix(1 0 0 1 55.87 40.44)">10</text>
	<text transform="matrix(1 0 0 1 31.37 65.19)">11</text>
	<text transform="matrix(1 0 0 1 68.55 63.45)">12</text>
</g>
</svg>
