<svg width="109" height="109" viewBox="0 0 109 109">
<g id="kvg:StrokePaths_09f15">
<g id="kvg:09f15">
	<g id="kvg:09f15-g1">
		<g id="kvg:09f15-g2">
			<g id="kvg:09f15-g3">
				<g id="kvg:09f15-g4">
					<path id="kvg:09f15-s1" d="M15.37,19.04c0.88,0.2,3.5,0.17,4.38,0.12C27,18.75,39,17.25,46.3,16.54c1.46-0.14,2.35,0.03,3.08,0.12"/>
					<path id="kvg:09f15-s2" d="M31.05,8.76c1.25,0.32,2.24,1.52,2.24,2.24c0,2.46,0.19,6.72,0.19,14.07"/>
					<g id="kvg:09f15-g5">
						<path id="kvg:09f15-s3" d="M21.09,26.3c1.16,0.2,2.68,0.64,3.27,0.56c4.63-0.61,11.88-1.61,20.17-2.35c0.99-0.09,1.58,0.01,2.08,0.07"/>
					</g>
				</g>
				<g id="kvg:09f15-g6">
					<g id="kvg:09f15-g7">
						<g id="kvg:09f15-g8">
							<path id="kvg:09f15-s4" d="M20.99,32.88c0.25,0.17,0.5,0.31,0.61,0.53c0.86,1.69,1.88,6.35,2.46,9.38"/>
							<path id="kvg:09f15-s5" d="M22.53,34.28c6.04-0.71,17.44-3.46,20.55-3.7c1.14-0.09,1.82,0.88,1.66,1.39c-0.68,2.13-1.13,4.14-2.58,7.21"/>
							<path id="kvg:09f15-s6" d="M24.31,41.67c3.66-0.27,15.55-1.95,20.2-2.22"/>
						</g>
					</g>
				</g>
			</g>
			<g id="kvg:09f15-g9">
				<path id="kvg:09f15-s7" d="M22.77,46.72c1.43,1.09,3.69,4.48,4.04,6.18"/>
				<path id="kvg:09f15-s8" d="M41.29,43.79c0.01,0.19,0.02,0.48-0.02,0.75c-0.2,1.59-1.37,5.08-2.97,7.22"/>
				<path id="kvg:09f15-s9" d="M16.25,55.97c0.73,1.37,2.47,1.85,4.93,1.16c12.56-3.5,17.9-5.65,29.07-8.77"/>
			</g>
		</g>
		<g id="kvg:09f15-g10">
			<g id="kvg:09f15-g11">
				<path id="kvg:09f15-s10" d="M56.1,21.42c0.68,0.2,2.94,0.26,3.63,0.2c9.93-0.86,22.64-3.34,29.28-3.78c1.14-0.08,1.83,0.09,2.4,0.19"/>
				<path id="kvg:09f15-s11" d="M70.22,10.35c0.63,0.27,2.09,1.41,2.09,1.96c0,3.44-0.08,19.3-0.21,22.67"/>
			</g>
			<g id="kvg:09f15-g12">
				<path id="kvg:09f15-s12" d="M60.89,32.03c0.96,0.21,1.84,0.45,3.78,0.21c2.66-0.33,16.57-3.41,17.88-3.73c1.31-0.31,1.95,0.74,1.25,1.81C76.91,40.72,67.24,48.43,55,52.1"/>
				<path id="kvg:09f15-s13" d="M62.13,38.02c4.53,0.51,15.02,10.67,23.91,14.89c1.38,0.66,2.39,1.09,3.68,1.31"/>
			</g>
		</g>
	</g>
	<g id="kvg:09f15-g13">
		<g id="kvg:09f15-g14">
			<path id="kvg:09f15-s14" d="M47.16,53c0.06,0.41,0.12,1.06-0.12,1.65c-1.44,3.47-9.71,11.59-21.02,16.25"/>
			<path id="kvg:09f15-s15" d="M45.31,60.21c0.72-0.05,1.75,0.38,2.98,0.28c4.82-0.37,12.69-3.41,16.7-4.13c2.02-0.36,2.96,1.57,2.07,2.93c-4.86,7.45-23.3,23.21-47.05,27"/>
			<path id="kvg:09f15-s16" d="M40.89,62.5c6.26,3.24,34.66,15.57,43.1,18.53c2.52,0.88,4.56,1.31,7.01,1.58"/>
		</g>
		<g id="kvg:09f15-g15">
			<g id="kvg:09f15-g16">
				<path id="kvg:09f15-s17" d="M50.55,79.85c3.99,1.09,10.31,4.48,11.31,6.18"/>
			</g>
			<g id="kvg:09f15-g17">
				<path id="kvg:09f15-s18" d="M41.25,97.65c0.8,0.6,2.39,0.92,4.78,0.13c6.64-2.19,18.58-6.09,25.22-8.28"/>
			</g>
		</g>
	</g>
</g>
</g>
<g id="kvg:StrokeNumbers_09f15">
	<text transform="matrix(1 0 0 1 9.50 19.50)">1</text>
	<text transform="matrix(1 0 0 1 24.25 8.05)">2</text>
	<text transform="matrix(1 0 0 1 14.50 27.98)">3</text>
	<text transform="matrix(1 0 0 1 14.25 38.90)">4</text>
	<text transform="matrix(1 0 0 1 24.50 32.50)">5</text>
	<text transform="matrix(1 0 0 1 27.50 39.50)">6</text>
	<text transform="matrix(1 0 0 1 16.13 49.81)">7</text>
	<text transform="matrix(1 0 0 1 33.50 47.50)">8</text>
	<text transform="matrix(1 0 0 1 9.38 58.79)">9</text>
	<text transform="matrix(1 0 0 1 52.88 19.13)">10</text>
	<text transform="matrix(1 0 0 1 59.50 8.50)">11</text>
	<text transform="matrix(1 0 0 1 58.50 29.50)">12</text>
	<text transform="matrix(1 0 0 1 49.98 40.73)">13</text>
	<text transform="matrix(1 0 0 1 31.12 60.75)">14</text>
	<text transform="matrix(1 0 0 1 47.11 58.25)">15</text>
	<text transform="matrix(1 0 0 1 39.20 71.78)">16</text>
	<text transform="matrix(1 0 0 1 42.62 88.06)">17</text>
	<text transform="matrix(1 0 0 1 29.25 100.72)">18</text>
</g>
</svg>
