<svg width="109" height="109" viewBox="0 0 109 109">
<g id="kvg:StrokePaths_0ff1a">
<g id="kvg:0ff1a">
	<path id="kvg:0ff1a-s1" d="M54.5,44 c -1.66,0 -3,1.34 -3,3 0,1.66 1.34,3 3,3 1.66,0 3,-1.34 3,-3 0,-1.66 -1.34,-3 -3,-3"/>
	<path id="kvg:0ff1a-s2" d="M54.5,88 c -1.66,0 -3,1.34 -3,3 0,1.66 1.34,3 3,3 1.66,0 3,-1.34 3,-3 0,-1.66 -1.34,-3 -3,-3"/>
</g>
</g>
<g id="kvg:StrokeNumbers_0ff1a">
	<text transform="matrix(1 0 0 1 45 45)">1</text>
	<text transform="matrix(1 0 0 1 45 88)">2</text>
</g>
</svg>
