<svg width="109" height="109" viewBox="0 0 109 109">
<g id="kvg:StrokePaths_0ff1b">
<g id="kvg:0ff1b">
	<path id="kvg:0ff1b-s1" d="M54.5,44 c -1.66,0 -3,1.34 -3,3 0,1.66 1.34,3 3,3 1.66,0 3,-1.34 3,-3 0,-1.66 -1.34,-3 -3,-3"/>
	<path id="kvg:0ff1b-s2" d="M51,104.5c3.61-2.46,6.65-7.37,6.65-13.29c0-1.68-1.36-3.03-3.04-3.03c-1.68,0-3.03,1.36-3.03,3.03c0,1.67,1.36,3.03,3.03,3.03c4.62,0-0.15,7.08-3.61,10.26"/>
</g>
</g>
<g id="kvg:StrokeNumbers_0ff1b">
	<text transform="matrix(1 0 0 1 45 45)">1</text>
	<text transform="matrix(1 0 0 1 45 88)">2</text>
</g>
</svg>
